<svg width="272" height="65" viewBox="0 0 272 65" fill="none" xmlns="http://www.w3.org/2000/svg">
<rect x="8" y="4" width="56" height="56" rx="12" fill="#2F495E"/>
<g clip-path="url(#clip0_64_39)">
<path d="M54.0522 19.0267L51.0055 22.0744C51.0055 22.0744 48.9733 23.09 46.9422 21.0578C44.91 19.0267 45.9255 16.9944 45.9255 16.9944L48.9733 13.9467C49.99 12.9311 48.7689 12 47.8522 12C43.3511 12 39.7033 15.6478 39.7033 20.1478C39.7033 20.78 39.7833 21.3933 39.9189 21.9844L33.0311 28.8722L39.1256 34.9667L46.0133 28.08C46.6055 28.2156 47.2178 28.2956 47.8511 28.2956C52.3511 28.2956 55.9989 24.6478 55.9989 20.1478C56 19.2256 55.0678 18.0111 54.0522 19.0267V19.0267ZM32.9111 29.0711L19.3678 42.6133C17.7067 44.2756 17.7067 46.97 19.3678 48.6322C21.0311 50.2933 23.7244 50.2933 25.3867 48.6322L38.9278 35.09L32.9111 29.0711ZM22.4033 47.3756C21.4933 47.3756 20.7567 46.6378 20.7567 45.7289C20.7567 44.82 21.4944 44.0811 22.4033 44.0811C23.3133 44.0811 24.05 44.8189 24.05 45.7289C24.05 46.6378 23.3133 47.3756 22.4033 47.3756Z" fill="#8899A6"/>
<path d="M50.2555 48.9767C51.5511 50.2722 53.6133 50.3333 54.8344 49.1111C56.0566 47.8889 55.9955 45.8278 54.7 44.5322L28.85 18.6822C27.5533 17.3856 25.4933 17.3256 24.2711 18.5478C23.0488 19.77 23.11 21.8311 24.4055 23.1267L50.2555 48.9767Z" fill="#F4900C"/>
<path d="M39.8267 12.9922C39.8267 12.9922 33.16 9.65889 27.6045 15.2144L19.8267 22.9922C19.8267 22.9922 18.7156 21.8811 17.6045 22.9922L16.4933 24.1033C16.4933 24.1033 15.3822 25.2144 16.4933 26.3256L20.9378 30.77C20.9378 30.77 22.0489 31.8811 23.16 30.77L24.2711 29.6589C24.2711 29.6589 25.3822 28.5478 24.2711 27.4367L24.1845 27.35C25.04 26.5244 26.3211 25.6833 27.6045 26.3256L32.0489 21.8811C32.0489 21.8811 30.9378 18.5478 33.16 16.3256C35.3822 14.1033 36.4933 14.1033 38.7156 14.1033C40.9378 14.1033 39.8267 12.9922 39.8267 12.9922V12.9922Z" fill="#66757F"/>
</g>
<path d="M83.28 46.48C81.2267 46.48 79.4133 46.1333 77.84 45.44C76.2667 44.72 75.0267 43.7067 74.12 42.4C73.2133 41.0667 72.7467 39.4533 72.72 37.56H78.12C78.1733 38.8667 78.64 39.9733 79.52 40.88C80.4267 41.76 81.6667 42.2 83.24 42.2C84.6 42.2 85.68 41.88 86.48 41.24C87.28 40.5733 87.68 39.6933 87.68 38.6C87.68 37.4533 87.32 36.56 86.6 35.92C85.9067 35.28 84.9733 34.76 83.8 34.36C82.6267 33.96 81.3733 33.5333 80.04 33.08C77.88 32.3333 76.2267 31.3733 75.08 30.2C73.96 29.0267 73.4 27.4667 73.4 25.52C73.3733 23.8667 73.76 22.4533 74.56 21.28C75.3867 20.08 76.5067 19.16 77.92 18.52C79.3333 17.8533 80.96 17.52 82.8 17.52C84.6667 17.52 86.3067 17.8533 87.72 18.52C89.16 19.1867 90.28 20.12 91.08 21.32C91.9067 22.52 92.3467 23.9467 92.4 25.6H86.92C86.8933 24.6133 86.5067 23.7467 85.76 23C85.04 22.2267 84.0267 21.84 82.72 21.84C81.6 21.8133 80.6533 22.0933 79.88 22.68C79.1333 23.24 78.76 24.0667 78.76 25.16C78.76 26.0933 79.0533 26.84 79.64 27.4C80.2267 27.9333 81.0267 28.3867 82.04 28.76C83.0533 29.1333 84.2133 29.5333 85.52 29.96C86.9067 30.44 88.1733 31 89.32 31.64C90.4667 32.28 91.3867 33.1333 92.08 34.2C92.7733 35.24 93.12 36.5867 93.12 38.24C93.12 39.7067 92.7467 41.0667 92 42.32C91.2533 43.5733 90.1467 44.5867 88.68 45.36C87.2133 46.1067 85.4133 46.48 83.28 46.48ZM97.4672 46V17.2H102.587V34.2L109.627 26.16H115.707L107.587 35.2L117.027 46H110.627L102.587 36.04V46H97.4672ZM122.962 23.08C122.028 23.08 121.255 22.8 120.642 22.24C120.055 21.68 119.762 20.9733 119.762 20.12C119.762 19.2667 120.055 18.5733 120.642 18.04C121.255 17.48 122.028 17.2 122.962 17.2C123.895 17.2 124.655 17.48 125.242 18.04C125.855 18.5733 126.162 19.2667 126.162 20.12C126.162 20.9733 125.855 21.68 125.242 22.24C124.655 22.8 123.895 23.08 122.962 23.08ZM120.402 46V26.16H125.522V46H120.402ZM130.866 46V17.2H135.986V46H130.866ZM141.217 46V17.2H146.337V46H141.217ZM161.22 46V18H166.34V46H161.22ZM181.367 46.48C179.34 46.48 177.554 46.04 176.007 45.16C174.46 44.28 173.234 43.0533 172.327 41.48C171.447 39.9067 171.007 38.1067 171.007 36.08C171.007 34.0533 171.447 32.2533 172.327 30.68C173.234 29.1067 174.46 27.88 176.007 27C177.554 26.12 179.34 25.68 181.367 25.68C183.9 25.68 186.034 26.3467 187.767 27.68C189.5 28.9867 190.607 30.8 191.087 33.12H185.687C185.42 32.16 184.887 31.4133 184.087 30.88C183.314 30.32 182.394 30.04 181.327 30.04C179.914 30.04 178.714 30.5733 177.727 31.64C176.74 32.7067 176.247 34.1867 176.247 36.08C176.247 37.9733 176.74 39.4533 177.727 40.52C178.714 41.5867 179.914 42.12 181.327 42.12C182.394 42.12 183.314 41.8533 184.087 41.32C184.887 40.7867 185.42 40.0267 185.687 39.04H191.087C190.607 41.28 189.5 43.08 187.767 44.44C186.034 45.8 183.9 46.48 181.367 46.48ZM205.151 46.48C203.231 46.48 201.498 46.04 199.951 45.16C198.431 44.28 197.218 43.0667 196.311 41.52C195.431 39.9467 194.991 38.1333 194.991 36.08C194.991 34.0267 195.445 32.2267 196.351 30.68C197.258 29.1067 198.471 27.88 199.991 27C201.538 26.12 203.271 25.68 205.191 25.68C207.085 25.68 208.791 26.12 210.311 27C211.858 27.88 213.071 29.1067 213.951 30.68C214.858 32.2267 215.311 34.0267 215.311 36.08C215.311 38.1333 214.858 39.9467 213.951 41.52C213.071 43.0667 211.858 44.28 210.311 45.16C208.765 46.04 207.045 46.48 205.151 46.48ZM205.151 42.04C206.485 42.04 207.645 41.5467 208.631 40.56C209.618 39.5467 210.111 38.0533 210.111 36.08C210.111 34.1067 209.618 32.6267 208.631 31.64C207.645 30.6267 206.498 30.12 205.191 30.12C203.831 30.12 202.658 30.6267 201.671 31.64C200.711 32.6267 200.231 34.1067 200.231 36.08C200.231 38.0533 200.711 39.5467 201.671 40.56C202.658 41.5467 203.818 42.04 205.151 42.04ZM219.889 46V26.16H224.409L224.809 29.52C225.422 28.3467 226.302 27.4133 227.449 26.72C228.622 26.0267 229.996 25.68 231.569 25.68C234.022 25.68 235.929 26.4533 237.289 28C238.649 29.5467 239.329 31.8133 239.329 34.8V46H234.209V35.28C234.209 33.5733 233.862 32.2667 233.169 31.36C232.476 30.4533 231.396 30 229.929 30C228.489 30 227.302 30.5067 226.369 31.52C225.462 32.5333 225.009 33.9467 225.009 35.76V46H219.889ZM252.425 46.48C250.665 46.48 249.118 46.2 247.785 45.64C246.452 45.0533 245.385 44.2533 244.585 43.24C243.785 42.2267 243.305 41.0533 243.145 39.72H248.305C248.465 40.4933 248.892 41.16 249.585 41.72C250.305 42.2533 251.225 42.52 252.345 42.52C253.465 42.52 254.278 42.2933 254.785 41.84C255.318 41.3867 255.585 40.8667 255.585 40.28C255.585 39.4267 255.212 38.8533 254.465 38.56C253.718 38.24 252.678 37.9333 251.345 37.64C250.492 37.4533 249.625 37.2267 248.745 36.96C247.865 36.6933 247.052 36.36 246.305 35.96C245.585 35.5333 244.998 35 244.545 34.36C244.092 33.6933 243.865 32.88 243.865 31.92C243.865 30.16 244.558 28.68 245.945 27.48C247.358 26.28 249.332 25.68 251.865 25.68C254.212 25.68 256.078 26.2267 257.465 27.32C258.878 28.4133 259.718 29.92 259.985 31.84H255.145C254.852 30.3733 253.745 29.64 251.825 29.64C250.865 29.64 250.118 29.8267 249.585 30.2C249.078 30.5733 248.825 31.04 248.825 31.6C248.825 32.1867 249.212 32.6533 249.985 33C250.758 33.3467 251.785 33.6667 253.065 33.96C254.452 34.28 255.718 34.64 256.865 35.04C258.038 35.4133 258.972 35.9867 259.665 36.76C260.358 37.5067 260.705 38.5867 260.705 40C260.732 41.2267 260.412 42.3333 259.745 43.32C259.078 44.3067 258.118 45.08 256.865 45.64C255.612 46.2 254.132 46.48 252.425 46.48Z" fill="white"/>
<defs>
<clipPath id="clip0_64_39">
<rect width="40" height="40" fill="white" transform="translate(16 12)"/>
</clipPath>
</defs>
</svg>
