<svg xmlns="http://www.w3.org/2000/svg" width="2096" height="463" fill="none" viewBox="0 0 2096 463"><g filter="url(#filter0_i_105_490)"><rect width="112" height="112" y="48" fill="#F0DB4F" rx="30"/></g><g filter="url(#filter1_i_105_490)"><rect width="112" height="111" y="186" fill="#F38020" rx="30"/></g><g filter="url(#filter2_i_105_490)"><rect width="112" height="112" y="323" fill="#806EE3" rx="30"/></g><g filter="url(#filter3_i_105_490)"><rect width="111" height="112" x="138" y="48" fill="#E14E1D" rx="30"/></g><g filter="url(#filter4_i_105_490)"><rect width="111" height="111" x="138" y="186" fill="#00DC82" rx="30"/></g><g filter="url(#filter5_i_105_490)"><rect width="111" height="112" x="138" y="323" fill="#953CAD" rx="30"/></g><g filter="url(#filter6_i_105_490)"><rect width="112" height="112" x="275" y="48" fill="#007ACC" rx="30"/></g><g filter="url(#filter7_i_105_490)"><rect width="112" height="111" x="275" y="186" fill="#00B4E0" rx="30"/></g><g filter="url(#filter8_i_105_490)"><rect width="112" height="112" x="275" y="323" fill="#654FF0" rx="30"/></g><path fill="#242938" d="M619.3 295.68C619.3 309.96 616.127 322.427 609.78 333.08C603.433 343.733 593.8 352.007 580.88 357.9C568.187 363.567 552.093 366.4 532.6 366.4C523.533 366.4 515.147 365.833 507.44 364.7C499.733 363.567 492.48 361.98 485.68 359.94C478.88 357.673 472.08 354.953 465.28 351.78V303.84C476.84 308.827 488.627 313.473 500.64 317.78C512.88 321.86 524.44 323.9 535.32 323.9C542.347 323.9 548.013 322.767 552.32 320.5C556.627 318.233 559.8 315.173 561.84 311.32C563.88 307.467 564.9 303.047 564.9 298.06C564.9 291.94 563.2 286.727 559.8 282.42C556.627 278.113 551.867 274.147 545.52 270.52C539.173 266.667 531.353 262.813 522.06 258.96C515.26 256.013 508.573 252.613 502 248.76C495.427 244.907 489.533 240.26 484.32 234.82C479.107 229.153 474.913 222.353 471.74 214.42C468.793 206.487 467.32 196.967 467.32 185.86C467.32 171.353 470.72 159 477.52 148.8C484.32 138.373 493.84 130.44 506.08 125C518.32 119.56 532.6 116.84 548.92 116.84C562.293 116.84 574.647 118.313 585.98 121.26C597.54 124.207 608.533 128.4 618.96 133.84L601.62 173.96C591.647 169.427 582.127 165.913 573.06 163.42C564.22 160.927 555.607 159.68 547.22 159.68C541.553 159.68 536.793 160.7 532.94 162.74C529.087 164.78 526.14 167.613 524.1 171.24C522.287 174.867 521.38 179.173 521.38 184.16C521.38 189.827 522.853 194.7 525.8 198.78C528.973 202.633 533.847 206.487 540.42 210.34C546.993 213.967 555.38 218.387 565.58 223.6C576.913 229.267 586.547 235.273 594.48 241.62C602.64 247.74 608.76 255.107 612.84 263.72C617.147 272.333 619.3 282.987 619.3 295.68ZM708.481 220.2C708.481 227.227 708.141 234.253 707.461 241.28C707.008 248.08 706.328 254.993 705.421 262.02H706.441C707.574 258.847 709.161 255.673 711.201 252.5C713.468 249.327 715.848 246.153 718.341 242.98C721.061 239.807 723.668 236.747 726.161 233.8L770.701 177.36H831.561L765.941 257.94L835.301 363H773.081L728.541 287.86L708.481 305.2V363H654.081V104.6H708.481V220.2ZM912.68 177.36V363H858.28V177.36H912.68ZM885.82 104.6C893.753 104.6 900.553 106.413 906.22 110.04C911.887 113.44 914.72 119.9 914.72 129.42C914.72 138.713 911.887 145.173 906.22 148.8C900.553 152.427 893.753 154.24 885.82 154.24C877.66 154.24 870.747 152.427 865.08 148.8C859.413 145.173 856.58 138.713 856.58 129.42C856.58 119.9 859.413 113.44 865.08 110.04C870.747 106.413 877.66 104.6 885.82 104.6ZM1013.29 363H958.886V104.6H1013.29V363ZM1113.89 363H1059.49V104.6H1113.89V363ZM1341.7 363H1230.52V333.76L1258.74 320.16V163.08L1230.52 149.48V120.24H1341.7V149.48L1313.82 163.08V320.16L1341.7 333.76V363ZM1451.07 366.4C1433.39 366.4 1418.21 363.113 1405.51 356.54C1392.82 349.74 1383.07 339.313 1376.27 325.26C1369.47 311.207 1366.07 293.187 1366.07 271.2C1366.07 248.533 1369.81 230.06 1377.29 215.78C1385 201.5 1395.54 190.96 1408.91 184.16C1422.51 177.36 1438.04 173.96 1455.49 173.96C1466.83 173.96 1477.37 175.207 1487.11 177.7C1496.86 180.193 1505.02 183.14 1511.59 186.54L1495.61 224.62C1488.81 221.673 1482.58 219.293 1476.91 217.48C1471.47 215.667 1465.47 214.76 1458.89 214.76C1450.96 214.76 1444.16 216.913 1438.49 221.22C1433.05 225.3 1428.86 231.533 1425.91 239.92C1422.97 248.08 1421.49 258.393 1421.49 270.86C1421.49 283.1 1422.97 293.3 1425.91 301.46C1429.09 309.393 1433.39 315.4 1438.83 319.48C1444.5 323.333 1451.19 325.26 1458.89 325.26C1467.51 325.26 1475.67 323.9 1483.37 321.18C1491.31 318.233 1498.79 314.267 1505.81 309.28V352.46C1498.33 357.447 1490.29 360.96 1481.67 363C1473.29 365.267 1463.09 366.4 1451.07 366.4ZM1707.13 269.84C1707.13 285.253 1705.09 298.967 1701.01 310.98C1697.16 322.993 1691.49 333.193 1684.01 341.58C1676.53 349.74 1667.35 355.973 1656.47 360.28C1645.82 364.36 1633.81 366.4 1620.43 366.4C1607.97 366.4 1596.41 364.36 1585.75 360.28C1575.1 355.973 1565.92 349.74 1558.21 341.58C1550.73 333.193 1544.84 322.993 1540.53 310.98C1536.45 298.967 1534.41 285.253 1534.41 269.84C1534.41 249.213 1537.93 231.873 1544.95 217.82C1551.98 203.54 1561.95 192.66 1574.87 185.18C1587.79 177.7 1603.32 173.96 1621.45 173.96C1638.23 173.96 1652.96 177.7 1665.65 185.18C1678.57 192.66 1688.66 203.54 1695.91 217.82C1703.39 231.873 1707.13 249.213 1707.13 269.84ZM1589.83 269.84C1589.83 282.08 1590.85 292.393 1592.89 300.78C1595.16 308.94 1598.56 315.173 1603.09 319.48C1607.85 323.56 1613.86 325.6 1621.11 325.6C1628.59 325.6 1634.49 323.56 1638.79 319.48C1643.33 315.173 1646.61 308.94 1648.65 300.78C1650.69 292.393 1651.71 282.08 1651.71 269.84C1651.71 257.6 1650.69 247.4 1648.65 239.24C1646.61 231.08 1643.21 224.96 1638.45 220.88C1633.92 216.8 1628.03 214.76 1620.77 214.76C1609.67 214.76 1601.73 219.407 1596.97 228.7C1592.21 237.767 1589.83 251.48 1589.83 269.84ZM1848.86 173.96C1867.45 173.96 1882.41 179.4 1893.74 190.28C1905.3 200.933 1911.08 218.16 1911.08 241.96V363H1856.68V254.54C1856.68 241.167 1854.64 231.193 1850.56 224.62C1846.71 217.82 1840.47 214.42 1831.86 214.42C1818.71 214.42 1809.87 219.747 1805.34 230.4C1800.81 240.827 1798.54 255.9 1798.54 275.62V363H1744.14V177.36H1785.28L1792.76 201.16H1795.14C1798.99 194.813 1803.53 189.713 1808.74 185.86C1814.18 181.78 1820.3 178.833 1827.1 177.02C1833.9 174.98 1841.15 173.96 1848.86 173.96ZM2082.79 307.92C2082.79 320.387 2080.07 331.04 2074.63 339.88C2069.41 348.493 2061.37 355.067 2050.49 359.6C2039.61 364.133 2025.55 366.4 2008.33 366.4C1995.86 366.4 1984.98 365.493 1975.69 363.68C1966.39 362.093 1956.99 359.373 1947.47 355.52V313.7C1957.89 318.233 1968.66 321.973 1979.77 324.92C1990.87 327.867 2000.17 329.34 2007.65 329.34C2015.81 329.34 2021.59 327.867 2024.99 324.92C2028.61 321.973 2030.43 318.12 2030.43 313.36C2030.43 310.187 2029.52 307.353 2027.71 304.86C2025.89 302.367 2022.27 299.533 2016.83 296.36C2011.39 293.187 2003.34 289.107 1992.69 284.12C1982.26 279.133 1973.65 274.26 1966.85 269.5C1960.27 264.513 1955.29 258.62 1951.89 251.82C1948.71 244.793 1947.13 236.067 1947.13 225.64C1947.13 208.413 1953.59 195.493 1966.51 186.88C1979.65 178.267 1996.88 173.96 2018.19 173.96C2029.52 173.96 2040.17 175.093 2050.15 177.36C2060.12 179.627 2070.43 183.367 2081.09 188.58L2065.79 224.96C2059.89 222.24 2054.11 219.86 2048.45 217.82C2042.78 215.78 2037.34 214.193 2032.13 213.06C2027.14 211.927 2022.38 211.36 2017.85 211.36C2011.95 211.36 2007.42 212.38 2004.25 214.42C2001.3 216.46 1999.83 219.52 1999.83 223.6C1999.83 226.547 2000.73 229.267 2002.55 231.76C2004.36 234.027 2007.87 236.633 2013.09 239.58C2018.3 242.3 2025.89 245.813 2035.87 250.12C2046.07 254.427 2054.57 258.96 2061.37 263.72C2068.39 268.253 2073.72 274.033 2077.35 281.06C2080.97 287.86 2082.79 296.813 2082.79 307.92Z"/><defs><filter id="filter0_i_105_490" width="112" height="118" x="0" y="42" color-interpolation-filters="sRGB" filterUnits="userSpaceOnUse"><feFlood flood-opacity="0" result="BackgroundImageFix"/><feBlend in="SourceGraphic" in2="BackgroundImageFix" mode="normal" result="shape"/><feColorMatrix in="SourceAlpha" result="hardAlpha" type="matrix" values="0 0 0 0 0 0 0 0 0 0 0 0 0 0 0 0 0 0 127 0"/><feOffset dy="-6"/><feGaussianBlur stdDeviation="3"/><feComposite in2="hardAlpha" k2="-1" k3="1" operator="arithmetic"/><feColorMatrix type="matrix" values="0 0 0 0 0 0 0 0 0 0 0 0 0 0 0 0 0 0 0.25 0"/><feBlend in2="shape" mode="normal" result="effect1_innerShadow_105_490"/></filter><filter id="filter1_i_105_490" width="112" height="117" x="0" y="180" color-interpolation-filters="sRGB" filterUnits="userSpaceOnUse"><feFlood flood-opacity="0" result="BackgroundImageFix"/><feBlend in="SourceGraphic" in2="BackgroundImageFix" mode="normal" result="shape"/><feColorMatrix in="SourceAlpha" result="hardAlpha" type="matrix" values="0 0 0 0 0 0 0 0 0 0 0 0 0 0 0 0 0 0 127 0"/><feOffset dy="-6"/><feGaussianBlur stdDeviation="3"/><feComposite in2="hardAlpha" k2="-1" k3="1" operator="arithmetic"/><feColorMatrix type="matrix" values="0 0 0 0 0 0 0 0 0 0 0 0 0 0 0 0 0 0 0.25 0"/><feBlend in2="shape" mode="normal" result="effect1_innerShadow_105_490"/></filter><filter id="filter2_i_105_490" width="112" height="118" x="0" y="317" color-interpolation-filters="sRGB" filterUnits="userSpaceOnUse"><feFlood flood-opacity="0" result="BackgroundImageFix"/><feBlend in="SourceGraphic" in2="BackgroundImageFix" mode="normal" result="shape"/><feColorMatrix in="SourceAlpha" result="hardAlpha" type="matrix" values="0 0 0 0 0 0 0 0 0 0 0 0 0 0 0 0 0 0 127 0"/><feOffset dy="-6"/><feGaussianBlur stdDeviation="3"/><feComposite in2="hardAlpha" k2="-1" k3="1" operator="arithmetic"/><feColorMatrix type="matrix" values="0 0 0 0 0 0 0 0 0 0 0 0 0 0 0 0 0 0 0.25 0"/><feBlend in2="shape" mode="normal" result="effect1_innerShadow_105_490"/></filter><filter id="filter3_i_105_490" width="111" height="118" x="138" y="42" color-interpolation-filters="sRGB" filterUnits="userSpaceOnUse"><feFlood flood-opacity="0" result="BackgroundImageFix"/><feBlend in="SourceGraphic" in2="BackgroundImageFix" mode="normal" result="shape"/><feColorMatrix in="SourceAlpha" result="hardAlpha" type="matrix" values="0 0 0 0 0 0 0 0 0 0 0 0 0 0 0 0 0 0 127 0"/><feOffset dy="-6"/><feGaussianBlur stdDeviation="3"/><feComposite in2="hardAlpha" k2="-1" k3="1" operator="arithmetic"/><feColorMatrix type="matrix" values="0 0 0 0 0 0 0 0 0 0 0 0 0 0 0 0 0 0 0.25 0"/><feBlend in2="shape" mode="normal" result="effect1_innerShadow_105_490"/></filter><filter id="filter4_i_105_490" width="111" height="117" x="138" y="180" color-interpolation-filters="sRGB" filterUnits="userSpaceOnUse"><feFlood flood-opacity="0" result="BackgroundImageFix"/><feBlend in="SourceGraphic" in2="BackgroundImageFix" mode="normal" result="shape"/><feColorMatrix in="SourceAlpha" result="hardAlpha" type="matrix" values="0 0 0 0 0 0 0 0 0 0 0 0 0 0 0 0 0 0 127 0"/><feOffset dy="-6"/><feGaussianBlur stdDeviation="3"/><feComposite in2="hardAlpha" k2="-1" k3="1" operator="arithmetic"/><feColorMatrix type="matrix" values="0 0 0 0 0 0 0 0 0 0 0 0 0 0 0 0 0 0 0.25 0"/><feBlend in2="shape" mode="normal" result="effect1_innerShadow_105_490"/></filter><filter id="filter5_i_105_490" width="111" height="118" x="138" y="317" color-interpolation-filters="sRGB" filterUnits="userSpaceOnUse"><feFlood flood-opacity="0" result="BackgroundImageFix"/><feBlend in="SourceGraphic" in2="BackgroundImageFix" mode="normal" result="shape"/><feColorMatrix in="SourceAlpha" result="hardAlpha" type="matrix" values="0 0 0 0 0 0 0 0 0 0 0 0 0 0 0 0 0 0 127 0"/><feOffset dy="-6"/><feGaussianBlur stdDeviation="3"/><feComposite in2="hardAlpha" k2="-1" k3="1" operator="arithmetic"/><feColorMatrix type="matrix" values="0 0 0 0 0 0 0 0 0 0 0 0 0 0 0 0 0 0 0.25 0"/><feBlend in2="shape" mode="normal" result="effect1_innerShadow_105_490"/></filter><filter id="filter6_i_105_490" width="112" height="118" x="275" y="42" color-interpolation-filters="sRGB" filterUnits="userSpaceOnUse"><feFlood flood-opacity="0" result="BackgroundImageFix"/><feBlend in="SourceGraphic" in2="BackgroundImageFix" mode="normal" result="shape"/><feColorMatrix in="SourceAlpha" result="hardAlpha" type="matrix" values="0 0 0 0 0 0 0 0 0 0 0 0 0 0 0 0 0 0 127 0"/><feOffset dy="-6"/><feGaussianBlur stdDeviation="3"/><feComposite in2="hardAlpha" k2="-1" k3="1" operator="arithmetic"/><feColorMatrix type="matrix" values="0 0 0 0 0 0 0 0 0 0 0 0 0 0 0 0 0 0 0.25 0"/><feBlend in2="shape" mode="normal" result="effect1_innerShadow_105_490"/></filter><filter id="filter7_i_105_490" width="112" height="117" x="275" y="180" color-interpolation-filters="sRGB" filterUnits="userSpaceOnUse"><feFlood flood-opacity="0" result="BackgroundImageFix"/><feBlend in="SourceGraphic" in2="BackgroundImageFix" mode="normal" result="shape"/><feColorMatrix in="SourceAlpha" result="hardAlpha" type="matrix" values="0 0 0 0 0 0 0 0 0 0 0 0 0 0 0 0 0 0 127 0"/><feOffset dy="-6"/><feGaussianBlur stdDeviation="3"/><feComposite in2="hardAlpha" k2="-1" k3="1" operator="arithmetic"/><feColorMatrix type="matrix" values="0 0 0 0 0 0 0 0 0 0 0 0 0 0 0 0 0 0 0.25 0"/><feBlend in2="shape" mode="normal" result="effect1_innerShadow_105_490"/></filter><filter id="filter8_i_105_490" width="112" height="118" x="275" y="317" color-interpolation-filters="sRGB" filterUnits="userSpaceOnUse"><feFlood flood-opacity="0" result="BackgroundImageFix"/><feBlend in="SourceGraphic" in2="BackgroundImageFix" mode="normal" result="shape"/><feColorMatrix in="SourceAlpha" result="hardAlpha" type="matrix" values="0 0 0 0 0 0 0 0 0 0 0 0 0 0 0 0 0 0 127 0"/><feOffset dy="-6"/><feGaussianBlur stdDeviation="3"/><feComposite in2="hardAlpha" k2="-1" k3="1" operator="arithmetic"/><feColorMatrix type="matrix" values="0 0 0 0 0 0 0 0 0 0 0 0 0 0 0 0 0 0 0.25 0"/><feBlend in2="shape" mode="normal" result="effect1_innerShadow_105_490"/></filter></defs></svg>