<?xml version="1.0" encoding="utf-8"?>
<!-- Generator: Adobe Illustrator 26.3.1, SVG Export Plug-In . SVG Version: 6.00 Build 0)  -->
<svg version="1.2" baseProfile="tiny" id="Layer_1" xmlns="http://www.w3.org/2000/svg" xmlns:xlink="http://www.w3.org/1999/xlink"
	 x="0px" y="0px" width="256px" height="256px" viewBox="0 0 256 256" overflow="visible" xml:space="preserve">
<path fill="#1F2120" d="M60,0h136c33.1,0,60,26.9,60,60v136c0,33.1-26.9,60-60,60H60c-33.1,0-60-26.9-60-60V60C0,26.9,26.9,0,60,0z"
	/>
<path fill="#FFFFFF" d="M36,177.4c0,0.9-0.8,1.5-1.5,1.5H23.6c-0.9,0-1.6-0.6-1.6-1.5V78.6c0-0.6,0.8-1.4,1.6-1.4h10.8
	c0.8,0,1.5,0.8,1.5,1.4L36,177.4L36,177.4z M64.3,177.4c0,0.9-0.8,1.5-1.5,1.5H52c-0.9,0-1.6-0.6-1.6-1.5V78.6
	c0-0.6,0.8-1.4,1.6-1.4h10.8c0.8,0,1.5,0.8,1.5,1.4L64.3,177.4L64.3,177.4z M92.6,177.4c0,0.9-0.8,1.5-1.5,1.5H80.3
	c-0.9,0-1.6-0.6-1.6-1.5V78.6c0-0.6,0.8-1.4,1.6-1.4h10.8c0.8,0,1.5,0.8,1.5,1.4V177.4z M121.1,177.4c0,0.9-0.8,1.5-1.5,1.5h-10.8
	c-0.9,0-1.6-0.6-1.6-1.5V78.6c0-0.6,0.8-1.4,1.6-1.4h10.8c0.8,0,1.5,0.8,1.5,1.4V177.4z M232.5,77c0.9,0,1.5,0.8,1.5,1.6v11.1
	c0,0.9-0.6,1.7-1.5,1.7h-96.1c-0.6,0-1.4-0.8-1.4-1.7V78.6c0-0.8,0.8-1.6,1.4-1.6C136.4,77,232.5,77,232.5,77z M232.5,106.3
	c0.9,0,1.5,0.8,1.5,1.6V119c0,0.9-0.6,1.7-1.5,1.7h-96.1c-0.6,0-1.4-0.8-1.4-1.7v-11.1c0-0.8,0.8-1.6,1.4-1.6H232.5z M232.5,135.4
	c0.9,0,1.5,0.8,1.5,1.6v11.1c0,0.9-0.6,1.7-1.5,1.7h-96.1c-0.6,0-1.4-0.8-1.4-1.7V137c0-0.8,0.8-1.6,1.4-1.6H232.5z M232.5,164.5
	c0.9,0,1.5,0.8,1.5,1.6v11.1c0,0.9-0.6,1.7-1.5,1.7h-96.1c-0.6,0-1.4-0.8-1.4-1.7v-11.1c0-0.8,0.8-1.6,1.4-1.6H232.5z"/>
</svg>
