<?xml version="1.0" encoding="utf-8"?>
<svg width="256" height="256" viewBox="0 0 256 256" fill="none" xmlns="http://www.w3.org/2000/svg">
  <rect xmlns="http://www.w3.org/2000/svg" width="256" height="256" rx="60" style="fill: rgb(244, 242, 237);"/>
  <path fill="#073042" d="M 107.028 48.818 L 60.789 48.818 C 51.58 48.818 44.011 56.68 44.011 66.415 C 43.682 75.811 50.918 83.67 59.97 84.011 L 107.522 84.011 L 107.028 48.818 Z"/>
  <path fill="#4285F4" d="M 211.835 205.303 L 60.789 205.303 C 51.415 205.303 44.011 197.445 44.011 187.707 L 44.011 66.246 C 44.011 75.982 51.58 83.841 60.789 84.011 L 187.321 84.011 C 187.321 84.011 212 81.793 212 101.097 L 212 205.303 L 211.835 205.303 Z"/>
  <path fill="#3870B2" d="M 141.413 143.12 C 148.159 137.825 149.475 127.917 144.379 121.082 C 141.579 117.324 137.301 114.933 132.692 114.761 L 133.186 114.761 C 134.011 114.591 134.997 114.591 135.823 114.761 L 135.823 105.024 C 135.823 103.828 135.327 102.803 134.34 102.292 C 132.858 101.437 131.049 101.95 130.227 103.487 C 129.897 104 129.733 104.512 129.897 105.195 L 129.897 115.102 C 121.671 116.469 115.912 124.499 117.225 133.213 L 117.225 133.383 C 117.886 137.483 120.027 141.242 123.316 143.633 L 95.509 205.474 L 113.609 205.474 L 126.441 177.116 C 127.925 173.698 131.872 172.162 135.327 173.87 C 136.646 174.554 137.795 175.749 138.453 177.116 L 151.783 205.474 L 170.209 205.474 L 141.413 143.12 Z M 132.036 140.387 C 126.77 140.387 122.657 135.945 122.657 130.48 C 122.657 125.011 126.935 120.741 132.199 120.911 C 134.667 120.911 136.81 121.937 138.617 123.647 C 142.401 127.403 142.401 133.554 138.781 137.483 C 137.137 139.192 134.667 140.387 132.036 140.387 Z"/>
  <path fill="#FFF" d="M 96.992 57.363 L 161.818 57.363 L 161.818 69.662 L 96.992 69.662 L 96.992 57.363 Z"/>
  <path fill="#073042" d="M 127.1 120.741 C 132.199 120.741 136.48 125.183 136.316 130.649 C 136.316 135.945 132.036 140.387 126.77 140.216 C 121.671 140.216 117.556 135.775 117.556 130.48 C 117.556 127.917 118.542 125.524 120.357 123.647 C 122.164 121.766 124.63 120.741 127.1 120.741 Z M 130.72 115.102 L 130.72 104.853 C 130.72 103.657 130.227 102.633 129.24 102.119 C 127.76 101.265 125.949 101.778 125.123 103.316 C 124.793 103.828 124.63 104.341 124.793 105.024 L 124.793 114.933 C 116.567 116.298 110.808 124.33 112.129 133.042 L 112.129 133.213 C 112.788 137.31 114.924 141.07 118.215 143.46 L 83.169 221.532 C 81.854 224.268 82.018 227.682 83.828 230.245 C 86.457 234.173 91.562 235.198 95.342 232.466 C 96.663 231.611 97.649 230.245 98.306 228.878 L 121.671 176.944 C 123.151 173.528 127.1 171.99 130.556 173.698 C 131.872 174.382 133.022 175.579 133.681 176.944 L 157.539 228.366 C 159.516 232.636 164.449 234.344 168.566 232.293 C 172.676 230.245 174.323 225.119 172.347 220.848 L 136.316 143.12 C 142.896 137.652 144.049 127.575 138.781 120.741 C 136.81 118.007 134.011 116.128 130.72 115.102"/>
  <path fill="#3DDC84" d="M 152.276 68.296 C 149.805 68.296 147.831 66.415 147.831 63.854 C 147.831 62.658 148.323 61.292 149.146 60.437 C 150.957 58.73 153.591 58.73 155.401 60.437 C 156.222 61.292 156.716 62.487 156.716 63.683 C 156.552 66.246 154.742 68.125 152.276 68.296 M 103.572 68.125 C 101.1 68.125 99.129 66.075 99.129 63.683 C 99.129 62.487 99.624 61.292 100.443 60.437 C 101.925 58.559 104.726 58.216 106.533 59.756 L 106.698 59.756 C 108.506 61.463 108.67 64.366 107.028 66.246 L 106.533 66.927 C 105.712 67.782 104.562 68.296 103.406 68.296 M 153.591 40.62 L 162.311 24.904 C 162.804 24.05 162.475 23.025 161.818 22.342 C 160.995 22 160.174 22.171 159.681 22.855 L 150.629 39.083 C 136.151 32.421 119.698 32.421 105.383 39.083 L 96.498 23.025 C 96.169 22.513 95.509 22 94.849 22 C 94.192 22 93.533 22.342 93.202 23.025 C 92.874 23.538 92.874 24.391 93.202 24.904 L 102.09 40.62 C 86.621 49.33 76.585 65.734 75.108 83.841 L 180.737 83.841 C 179.424 65.564 169.221 49.33 153.755 40.62"/>
  <path fill="#073042" d="M 197.37 117.839 L 190.459 117.839 C 190.128 118.007 189.8 118.349 189.8 118.861 L 189.8 232.466 C 189.8 232.977 190.128 233.319 190.625 233.319 L 197.863 233.319 C 206.254 233.319 213 226.143 213 217.603 L 213 101.95 C 213 110.662 206.254 117.667 197.863 117.667 L 197.37 117.667 L 197.37 117.839 Z"/>
</svg>