<svg xmlns="http://www.w3.org/2000/svg" xmlns:xlink="http://www.w3.org/1999/xlink" width="256" zoomAndPan="magnify" viewBox="0 0 375 374.999991" height="256" preserveAspectRatio="xMidYMid meet" version="1.0">
<defs>
<clipPath id="c52ba7456f">
<path d="M 75 0 L 300 0 C 341.421875 0 375 33.578125 375 75 L 375 304.027344 C 375 345.445312 341.421875 379.027344 300 379.027344 L 75 379.027344 C 33.578125 379.027344 0 345.445312 0 304.027344 L 0 75 C 0 33.578125 33.578125 0 75 0 " clip-rule="nonzero"/>
</clipPath>
</defs>
<g clip-path="url(#c52ba7456f)">
<path fill="#242938" d="M 0 0 L 374.414062 0 L 374.414062 379.6875 L 0 379.6875 Z M 0 0 " fill-opacity="1" fill-rule="nonzero"/>
</g>
<path fill="#ff2c4b" d="M 339.144531 297.707031 L 196.667969 50.933594 C 194.785156 47.65625 191.277344 45.632812 187.496094 45.632812 C 183.714844 45.632812 180.226562 47.652344 178.332031 50.933594 L 35.84375 297.707031 C 33.945312 300.980469 33.945312 304.636719 35.84375 307.921875 C 37.742188 311.195312 41.234375 312.820312 45.015625 312.820312 L 329.980469 312.820312 C 333.765625 312.820312 337.246094 311.195312 339.144531 307.921875 C 341.046875 304.636719 341.046875 300.980469 339.144531 297.707031 Z M 248.496094 277.785156 L 248.878906 267.089844 L 207.765625 274.351562 L 205.898438 272.628906 L 206.425781 258.550781 L 205.355469 258.550781 C 205.355469 258.550781 194.089844 277.183594 169.136719 277.183594 C 150.628906 277.183594 133.191406 269.785156 133.191406 239.75 C 133.191406 209.421875 155.988281 199.347656 179.867188 199.347656 L 204.761719 199.347656 L 204.761719 186.886719 C 204.761719 174.8125 196.742188 167.839844 181.714844 167.839844 C 164.8125 167.839844 144.699219 170.523438 144.699219 170.523438 L 143.09375 168.644531 L 143.09375 148.253906 C 143.09375 148.253906 164.679688 145.574219 186.960938 145.574219 C 207.351562 145.574219 231.898438 150.941406 231.898438 180.988281 L 231.898438 250.125 L 245.773438 247.519531 L 241.9375 237.511719 L 276.242188 252.542969 Z M 159.210938 237.734375 C 159.210938 251.683594 168.839844 254.703125 178.226562 254.703125 C 187.082031 254.703125 197.363281 252.347656 204.761719 241.347656 L 204.761719 219.082031 L 186.847656 219.082031 C 168.59375 219.082031 159.210938 223.242188 159.210938 237.734375 Z M 159.210938 237.734375 " fill-opacity="1" fill-rule="nonzero"/>
</svg>