<svg xmlns="http://www.w3.org/2000/svg" xmlns:xlink="http://www.w3.org/1999/xlink" width="256" zoomAndPan="magnify" viewBox="0 0 375 374.999991" height="256" preserveAspectRatio="xMidYMid meet" version="1.0">
<defs>
<clipPath id="a2f1790a8a">
<path d="M 75 0 L 300 0 C 341.421875 0 375 33.578125 375 75 L 375 304.027344 C 375 345.445312 341.421875 379.027344 300 379.027344 L 75 379.027344 C 33.578125 379.027344 0 345.445312 0 304.027344 L 0 75 C 0 33.578125 33.578125 0 75 0 " clip-rule="nonzero"/>
</clipPath>
</defs>
<g clip-path="url(#a2f1790a8a)">
<path fill="#f4f2ec" d="M 0 0 L 374.414062 0 L 374.414062 379.6875 L 0 379.6875 Z M 0 0 " fill-opacity="1" fill-rule="nonzero"/>
</g>
<path fill="#ac162c" d="M 354.597656 311.207031 L 197.570312 39.230469 C 195.492188 35.621094 191.625 33.390625 187.457031 33.390625 C 183.289062 33.390625 179.445312 35.617188 177.359375 39.230469 L 20.316406 311.207031 C 18.222656 314.820312 18.222656 318.847656 20.316406 322.464844 C 22.40625 326.078125 26.257812 327.867188 30.425781 327.867188 L 344.5 327.867188 C 348.667969 327.867188 352.503906 326.078125 354.597656 322.464844 C 356.691406 318.847656 356.691406 314.820312 354.597656 311.207031 Z M 254.691406 289.253906 L 255.109375 277.464844 L 209.800781 285.46875 L 207.738281 283.570312 L 208.324219 268.054688 L 207.140625 268.054688 C 207.140625 268.054688 194.726562 288.589844 167.226562 288.589844 C 146.824219 288.589844 127.605469 280.433594 127.605469 247.332031 C 127.605469 213.90625 152.734375 202.804688 179.050781 202.804688 L 206.488281 202.804688 L 206.488281 189.070312 C 206.488281 175.761719 197.648438 168.078125 181.085938 168.078125 C 162.457031 168.078125 140.289062 171.035156 140.289062 171.035156 L 138.519531 168.964844 L 138.519531 146.492188 C 138.519531 146.492188 162.3125 143.539062 186.871094 143.539062 C 209.339844 143.539062 236.394531 149.453125 236.394531 182.566406 L 236.394531 258.765625 L 251.6875 255.894531 L 247.460938 244.867188 L 285.269531 261.433594 Z M 156.285156 245.109375 C 156.285156 260.484375 166.894531 263.8125 177.242188 263.8125 C 187 263.8125 198.332031 261.21875 206.488281 249.097656 L 206.488281 224.554688 L 186.746094 224.554688 C 166.625 224.554688 156.285156 229.140625 156.285156 245.109375 Z M 156.285156 245.109375 " fill-opacity="1" fill-rule="nonzero"/>
</svg>