<!-- Just an example of what the appwrite logo could look like, it might not be the best. -->

<svg xmlns="http://www.w3.org/2000/svg" width="1244" height="1186" viewBox="0 0 1244 1186" version="1.1"><path d="M -0 593.001 L -0 1186.002 622.250 1185.751 L 1244.500 1185.500 1244.751 592.750 L 1245.002 -0 622.501 -0 L 0 0 -0 593.001 M 0.497 593.500 C 0.497 919.650, 0.611 1052.926, 0.750 889.668 C 0.889 726.410, 0.889 459.560, 0.750 296.668 C 0.611 133.776, 0.497 267.350, 0.497 593.500 M 296 26.071 C 170.722 38.078, 72.643 132.279, 53.221 259.251 C 50.565 276.614, 50.565 925.386, 53.221 942.749 C 72.080 1066.044, 161.956 1155.920, 285.251 1174.779 C 302.614 1177.435, 951.386 1177.435, 968.749 1174.779 C 1092.044 1155.920, 1181.920 1066.044, 1200.779 942.749 C 1203.435 925.386, 1203.435 276.614, 1200.779 259.251 C 1181.965 136.254, 1093.832 47.735, 969.804 27.265 C 958.519 25.403, 314.873 24.262, 296 26.071" stroke="none" fill="#ffffff" fill-rule="evenodd"/><path d="M 297.731 26.049 C 172.734 37.275, 73.799 130.593, 53.788 256.144 L 51.500 270.500 51.500 601 L 51.500 931.500 53.788 945.856 C 72.909 1065.820, 162.180 1155.091, 282.144 1174.212 L 296.500 1176.500 627 1176.500 L 957.500 1176.500 971.856 1174.212 C 1091.820 1155.091, 1181.091 1065.820, 1200.212 945.856 L 1202.500 931.500 1202.500 601 L 1202.500 270.500 1200.212 256.144 C 1181.122 136.372, 1092.404 47.464, 972.369 27.812 L 958.500 25.542 632.500 25.401 C 453.200 25.324, 302.554 25.616, 297.731 26.049 M 536.500 183.583 C 534.850 183.806, 528.550 184.479, 522.500 185.078 C 256.628 211.399, 96.864 508.254, 217.072 752.586 C 272.185 864.607, 378.892 945.490, 497.500 965.149 C 530.983 970.699, 511.818 970.341, 795.250 970.710 L 1057 971.051 1057 872.542 L 1057 774.034 799.750 773.735 C 520.025 773.411, 540.674 773.816, 517.500 768.192 C 372.149 732.917, 321.017 547.320, 426.555 438.081 C 511.221 350.447, 662.206 364.946, 725.091 466.750 L 726.481 469 831.741 469 C 889.633 469, 937 468.647, 937 468.216 C 937 467.785, 934.589 460.247, 931.642 451.466 C 883.231 307.214, 762.286 206.250, 613.500 185.883 C 599.287 183.937, 545.720 182.338, 536.500 183.583 M 751.007 523.750 C 751.011 524.163, 751.863 528.100, 752.900 532.500 C 767.836 595.872, 749.035 665.643, 704.220 713.150 L 697.758 720 877.379 720 L 1057 720 1057 621.500 L 1057 523 904 523 C 819.850 523, 751.003 523.337, 751.007 523.750" stroke="none" fill="#242938" fill-rule="evenodd"/><path d="M 536.500 183.583 C 534.850 183.806, 528.550 184.479, 522.500 185.078 C 256.628 211.399, 96.864 508.254, 217.072 752.586 C 272.185 864.607, 378.892 945.490, 497.500 965.149 C 530.983 970.699, 511.818 970.341, 795.250 970.710 L 1057 971.051 1057 872.542 L 1057 774.034 799.750 773.735 C 520.025 773.411, 540.674 773.816, 517.500 768.192 C 372.149 732.917, 321.017 547.320, 426.555 438.081 C 511.221 350.447, 662.206 364.946, 725.091 466.750 L 726.481 469 831.741 469 C 889.633 469, 937 468.647, 937 468.216 C 937 467.785, 934.589 460.247, 931.642 451.466 C 883.231 307.214, 762.286 206.250, 613.500 185.883 C 599.287 183.937, 545.720 182.338, 536.500 183.583 M 751.007 523.750 C 751.011 524.163, 751.863 528.100, 752.900 532.500 C 767.836 595.872, 749.035 665.643, 704.220 713.150 L 697.758 720 877.379 720 L 1057 720 1057 621.500 L 1057 523 904 523 C 819.850 523, 751.003 523.337, 751.007 523.750" stroke="none" fill="#fd366e" fill-rule="evenodd"/></svg>
