<svg width="256" height="256" viewBox="0 0 256 256" fill="none" xmlns="http://www.w3.org/2000/svg"><g clip-path="url(#clip0_0_3)"><path d="M196 0H60C26.8629 0 0 26.8629 0 60V196C0 229.137 26.8629 256 60 256H196C229.137 256 256 229.137 256 196V60C256 26.8629 229.137 0 196 0Z" fill="#19191D"/><path d="M208.674 163.71V199.945H116.996C90.2866 199.945 66.9656 185.373 54.489 163.71C48.9718 154.135 45.7248 143.411 45 132.372L45 122.573C45.3283 117.541 46.1835 112.558 47.5516 107.706C56.1154 77.2886 83.9636 55 116.997 55C150.03 55 177.875 77.2886 186.439 107.708H147.238C140.803 97.7928 129.666 91.2367 116.999 91.2367C104.331 91.2367 93.1918 97.7913 86.7568 107.708C84.7725 110.755 83.2614 114.087 82.2753 117.591C81.3715 120.807 80.9149 124.132 80.9184 127.473C80.9184 137.86 85.2674 147.223 92.2401 153.826C98.927 160.186 107.79 163.724 116.999 163.71H208.674Z" fill="#FD366E"/><path d="M208.674 117.591V153.826H141.755C145.335 150.445 148.188 146.361 150.135 141.829C152.083 137.297 153.084 132.411 153.078 127.475C153.078 124.048 152.605 120.734 151.72 117.591H208.674Z" fill="#FD366E"/></g><defs><clipPath id="clip0_0_3"><rect width="256" height="256" fill="white"/></clipPath></defs></svg>