<svg width="256" height="256" viewBox="0 0 256 256" fill="none" xmlns="http://www.w3.org/2000/svg">
<rect width="256" height="256" rx="60" fill="#F4F2ED"/>
<g fill-rule="evenodd" transform="matrix(1, 0, 0, 1, 206.700012, 64.077179)" origin="-0.697313 0.5" fill="#00979c" />
<g fill-rule="evenodd" transform="matrix(1.721062, 0, 0, 1.710135, 18.48369, 28.798878)" origin="0.5 0.445653" fill="#00979c">
<path d="M 0.3 62.407 L 0.3 52.807 C 0.5 52.707 0.5 52.507 0.5 52.307 C 3.5 39.207 11.7 31.307 24.7 28.207 C 25.8 27.907 27 28.007 28.1 27.607 L 34.5 27.607 C 34.6 27.807 34.9 27.707 35.1 27.707 C 41.5 28.407 47.3 30.707 52.4 34.707 C 56.8 38.007 60.2 42.207 63.3 46.707 C 63.7 47.307 63.9 47.307 64.3 46.707 C 66.1 44.107 68 41.607 70.2 39.307 C 75.5 33.607 81.9 29.607 89.7 28.207 C 90.8 27.907 92.1 28.007 93.2 27.607 L 99.4 27.607 C 99.5 27.807 99.7 27.707 99.9 27.707 C 101.8 27.907 103.6 28.307 105.4 28.807 C 118.8 32.707 128.3 45.007 127.5 58.907 C 126.9 70.607 121 79.007 110.7 84.307 C 105.6 87.107 100 87.807 94.2 87.707 C 86.6 87.607 80 85.007 74.3 80.007 C 70.3 76.507 67.2 72.307 64.3 67.907 C 63.9 67.307 63.7 67.407 63.3 68.007 C 61.5 70.707 59.6 73.407 57.4 76.007 C 53.5 80.407 49 84.007 43.4 85.907 C 36.5 88.307 29.5 88.407 22.5 86.507 C 12.4 83.607 5.5 77.207 1.7 67.407 C 1.1 65.807 0.8 64.007 0.3 62.407 Z M 32.1 77.107 C 37.8 77.307 42.7 75.407 46.9 71.507 C 51.2 67.507 54.3 62.507 57.4 57.607 C 57.5 57.307 57.5 57.107 57.3 56.807 C 54.7 52.707 52 48.607 48.4 45.207 C 41.5 38.607 33.4 36.407 24.3 39.307 C 16.8 41.807 12 47.107 10.9 55.107 C 9.8 62.607 12.7 68.607 18.7 73.107 C 22.7 76.007 27.2 77.207 32.1 77.107 Z M 95.5 77.107 C 97.7 77.107 99.9 77.007 102 76.407 C 109.9 74.007 115.1 69.107 116.6 60.907 C 118.1 52.807 115 46.307 108.2 41.707 C 100.7 36.507 89.8 37.007 82.2 42.707 C 77.1 46.507 73.7 51.607 70.3 56.907 C 70.1 57.207 70.2 57.407 70.3 57.707 C 73 62.007 75.7 66.307 79.2 70.007 C 83.6 74.707 88.9 77.407 95.5 77.107 Z M 95.5 77.107"/>
<path d="M 32 54.407 C 35.2 54.407 38.5 54.507 41.7 54.407 C 42.5 54.407 42.6 54.607 42.6 55.407 C 42.5 56.307 42.5 57.207 42.6 58.107 C 42.7 58.907 42.5 59.107 41.6 59.107 L 28.8 59.107 C 26.6 59.107 24.4 59.007 22.2 59.107 C 21.5 59.107 21.3 58.907 21.3 58.107 C 21.4 57.207 21.4 56.307 21.3 55.307 C 21.3 54.607 21.5 54.407 22.2 54.407 C 25.4 54.507 28.7 54.407 32 54.407 Z M 95 48.007 C 95.8 48.007 96.6 48.107 97.3 48.007 C 97.8 48.007 98 48.207 98 48.707 C 97.9 50.107 98 51.507 97.9 52.907 C 97.9 53.607 98.1 53.807 98.8 53.807 C 100.1 53.707 101.5 53.807 102.9 53.707 C 103.5 53.707 103.7 53.807 103.7 54.507 L 103.7 59.107 C 103.7 59.607 103.5 59.807 103 59.807 C 101.6 59.707 100.2 59.807 98.7 59.707 C 98.1 59.707 97.9 59.907 97.9 60.507 C 98 61.907 97.9 63.307 98 64.707 C 98 65.307 97.8 65.607 97.2 65.607 C 95.7 65.507 94.2 65.507 92.7 65.607 C 92.1 65.607 91.9 65.407 91.9 64.807 C 92 63.307 91.9 61.907 92 60.407 C 92 59.907 91.8 59.707 91.3 59.707 C 89.9 59.807 88.5 59.707 87.1 59.807 C 86.3 59.807 86.2 59.507 86.2 58.907 C 86.2 57.507 86.3 56.107 86.2 54.707 C 86.1 53.907 86.5 53.707 87.2 53.707 C 88.6 53.807 89.9 53.707 91.3 53.807 C 91.8 53.807 92 53.607 92 53.107 C 91.9 51.707 92 50.207 91.9 48.807 C 91.9 48.207 92.1 48.007 92.7 48.007 C 93.5 48.107 94.2 48.007 95 48.007 Z M 124.852 20.384 C 124.719 20.583 124.672 20.649 124.629 20.716 C 124.387 21.079 124.574 21.813 123.965 21.802 C 123.425 21.79 123.562 21.118 123.371 20.751 C 123.321 20.653 123.261 20.563 123.094 20.29 C 123.094 20.794 123.102 21.079 123.094 21.368 C 123.086 21.563 123.129 21.809 122.82 21.825 C 122.508 21.841 122.527 21.591 122.523 21.395 C 122.516 20.715 122.516 20.04 122.52 19.364 C 122.52 19.134 122.484 18.868 122.844 18.86 C 123.114 18.856 123.348 18.845 123.461 19.196 C 123.605 19.626 123.656 20.106 123.988 20.52 C 124.305 20.118 124.359 19.653 124.48 19.227 C 124.582 18.88 124.797 18.857 125.078 18.857 C 125.434 18.86 125.418 19.11 125.422 19.345 C 125.426 20.025 125.426 20.7 125.418 21.38 C 125.414 21.571 125.441 21.825 125.137 21.829 C 124.832 21.829 124.855 21.587 124.852 21.387 C 124.844 21.098 124.852 20.813 124.852 20.384 Z M 121.14 18.852 C 121.227 18.852 121.32 18.837 121.402 18.852 C 121.727 18.915 122.23 18.665 122.336 19.052 C 122.48 19.595 121.91 19.322 121.668 19.438 C 121.426 19.555 121.473 19.77 121.468 19.966 C 121.457 20.434 121.461 20.903 121.461 21.372 C 121.461 21.63 121.411 21.845 121.078 21.832 C 120.773 21.822 120.785 21.598 120.785 21.395 C 120.776 20.957 120.775 20.518 120.781 20.079 C 120.793 19.704 120.797 19.352 120.258 19.403 C 120.07 19.419 119.906 19.364 119.906 19.126 C 119.906 18.798 120.16 18.864 120.348 18.856 C 120.613 18.844 120.875 18.852 121.141 18.852 L 121.14 18.852 Z M 121.14 18.852"/>
</g>
</svg>