<svg width="256" height="256" viewBox="0 0 256 256" fill="none" xmlns="http://www.w3.org/2000/svg">
<rect width="256" height="256" rx="50" fill="white"/>
<path d="M128 223C180.467 223 223 180.467 223 128C223 75.5329 180.467 33 128 33C75.5329 33 33 75.5329 33 128C33 180.467 75.5329 223 128 223Z" fill="url(#paint0_linear_3_9)"/>
<path d="M105.73 113.336C104.613 115.059 103.532 116.789 102.49 118.522C101.35 115.383 100.349 112.292 99.496 109.277C102.527 108.842 105.749 108.5 109.145 108.262C107.992 109.916 106.852 111.607 105.73 113.336ZM189.542 119.41C186.184 116.187 181.383 113.233 175.274 110.631C163.145 105.466 146.899 102.119 129.528 101.208C127.433 101.098 125.388 101.023 123.41 100.983C136.672 85.1529 149.481 76.73 156.94 76.4467C158.52 76.3863 159.846 76.6988 160.885 77.374C164.376 79.6429 165.345 86.6803 163.476 96.199C163.108 98.078 164.332 99.9003 166.21 100.269C168.09 100.637 169.912 99.414 170.281 97.5348C173.493 81.1712 168.999 74.3777 164.664 71.5598C162.402 70.0891 159.713 69.4021 156.677 69.5174C145.203 69.9534 129.126 82.188 114.456 101.05C108.648 101.25 103.049 101.751 97.8112 102.534C97.2363 99.864 96.7921 97.2766 96.4911 94.7965C95.1754 83.953 96.7891 76.256 100.807 74.2066C101.453 73.8775 102.158 73.688 102.964 73.6276C106.554 73.3574 111.62 75.7701 117.219 80.42C118.692 81.6432 120.878 81.441 122.102 79.9677C123.325 78.4946 123.123 76.3087 121.649 75.0855C114.458 69.1132 107.997 66.2955 102.445 66.7127C100.728 66.8415 99.1176 67.2846 97.657 68.0293C93.9245 69.9328 91.3738 73.5777 90.0757 78.8628C88.9639 83.3886 88.8063 89.0306 89.6074 95.6316C89.9241 98.2421 90.3873 100.959 90.9843 103.756C86.8892 104.619 83.0938 105.671 79.6918 106.9C64.808 112.276 61.3719 119.363 61.1102 124.362C60.8601 129.137 63.3042 136.243 76.3675 142.979C78.0694 143.857 80.1606 143.188 81.0382 141.487C81.9159 139.785 81.2477 137.694 79.5457 136.816C72.031 132.941 67.8355 128.534 68.035 124.724C68.3161 119.357 77.3122 113.677 92.6361 110.476C94.0556 115.602 95.8788 120.927 98.065 126.326C92.5573 136.664 88.5386 146.854 86.4549 155.918C84.9656 162.394 84.5304 168.017 85.1611 172.631C85.8978 178.019 88.053 181.909 91.5661 184.193C93.3575 185.357 95.7718 186.268 98.9431 186.268C103.541 186.267 109.731 184.352 117.912 178.516C119.471 177.404 119.834 175.239 118.722 173.68C117.61 172.121 115.445 171.759 113.886 172.871C105.821 178.623 98.8897 180.682 95.3451 178.379C91.565 175.922 90.7678 168.106 93.2128 157.471C94.834 150.42 97.727 142.604 101.65 134.548C102.502 136.372 103.391 138.196 104.318 140.017C112.214 155.528 121.88 169.023 131.536 178.016C136.399 182.545 141.05 185.734 145.359 187.494C147.974 188.562 150.43 189.096 152.709 189.096C154.819 189.096 156.779 188.638 158.573 187.723C162.173 185.887 164.677 182.424 166.014 177.431C167.16 173.154 167.417 167.82 166.78 161.575C165.526 149.296 160.886 134.321 153.715 119.407C152.886 117.682 150.814 116.956 149.088 117.785C147.362 118.615 146.636 120.687 147.466 122.412C154.298 136.621 158.707 150.779 159.881 162.279C160.914 172.393 159.247 179.596 155.423 181.546C151.407 183.593 144.245 180.377 136.262 172.942C127.185 164.488 118.035 151.677 110.497 136.872C108.774 133.486 107.187 130.094 105.742 126.728C107.535 123.522 109.474 120.306 111.547 117.11C113.662 113.852 115.802 110.781 117.948 107.9C118.517 107.893 119.09 107.887 119.667 107.885C122.645 107.875 125.836 107.958 129.165 108.133C145.745 109.003 161.156 112.156 172.557 117.011C182.585 121.282 188.431 126.522 188.195 131.028C187.995 134.854 183.346 138.809 175.441 141.879C173.656 142.572 172.77 144.581 173.463 146.366C173.996 147.738 175.307 148.579 176.697 148.579C177.114 148.579 177.538 148.503 177.95 148.343C191.687 143.009 194.869 136.18 195.12 131.391C195.339 127.205 193.463 123.174 189.542 119.41Z" fill="#F2F8F6"/>
<path d="M120.96 128.805C120.96 132.992 124.352 136.387 128.535 136.387C132.72 136.387 136.111 132.992 136.111 128.805C136.111 124.617 132.72 121.222 128.535 121.222C124.352 121.222 120.96 124.617 120.96 128.805Z" fill="#F1F8F3"/>
<defs>
<linearGradient id="paint0_linear_3_9" x1="128" y1="40.5261" x2="128" y2="223" gradientUnits="userSpaceOnUse">
<stop stop-color="#B2E198"/>
<stop offset="1" stop-color="#04A171"/>
</linearGradient>
</defs>
</svg>
