<?xml version="1.0" encoding="utf-8"?>
<!-- Generator: Adobe Illustrator 26.3.1, SVG Export Plug-In . SVG Version: 6.00 Build 0)  -->
<svg version="1.2" baseProfile="tiny" id="Layer_1" xmlns="http://www.w3.org/2000/svg" xmlns:xlink="http://www.w3.org/1999/xlink"
	 x="0px" y="0px" width="256px" height="256px" viewBox="0 0 256 256" overflow="visible" xml:space="preserve">
<path fill="#00005B" d="M60,0h136c33.1,0,60,26.9,60,60v136c0,33.1-26.9,60-60,60H60c-33.1,0-60-26.9-60-60V60C0,26.9,26.9,0,60,0z"
	/>
<g>
	<path fill="#9999FF" d="M105.2,156.3H65.5l-8.1,25.2c-0.2,1-1.1,1.6-2,1.5H35.3c-1.2,0-1.5-0.6-1.2-1.9l34.4-98.8
		c0.3-1.1,0.6-2.2,1.1-3.5c0.5-2.2,0.9-4.5,0.9-6.8c-0.1-0.5,0.3-1.1,0.9-1.2c0.1,0,0.2,0,0.3,0h27.4c0.7,0,1.3,0.3,1.4,0.9
		l38.8,109.6c0.3,1.2,0,1.7-1.1,1.7h-22.3c-0.7,0.1-1.5-0.4-1.7-1.2L105.2,156.3z M71.7,135h27.1c-0.6-2.2-1.5-4.9-2.5-7.7
		c-1-2.9-1.9-6-2.9-9.2c-1.1-3.3-2-6.5-3.1-9.8s-2-6.4-2.9-9.5c-0.9-3-1.6-5.8-2.4-8.3h-0.2c-1,4.6-2.1,9.2-3.6,13.8
		c-1.6,5.1-3.2,10.5-4.9,15.8C75,125.5,73.3,130.5,71.7,135L71.7,135z"/>
	<path fill="#9999FF" d="M221.2,98.8v65.5c0,2.9,0,5.4,0.1,7.7c0.1,2.2,0.2,4.2,0.3,5.9c0.2,1.7,0.3,2.7,0.4,3.8
		c0.1,1-0.3,1.4-1.2,1.4h-18.3c-0.9,0.1-1.7-0.4-2-1.2c-0.2-0.9-0.4-1.8-0.6-2.7c-0.2-0.7-0.2-1.5-0.2-2.2
		c-3.4,3.1-7.6,5.3-12.1,6.6c-3.8,1.1-7.9,1.6-11.9,1.6s-7.9-0.5-11.6-1.8c-3.4-1.2-6.6-3.2-9.1-5.9c-2.8-3-4.8-6.5-6-10.4
		c-1.5-4.9-2.2-10-2.1-15.2v-53c-0.1-0.6,0.3-1.3,1.1-1.4c0.1,0,0.2,0,0.3,0h20.4c0.6-0.1,1.3,0.3,1.4,1.1c0,0.1,0,0.2,0,0.3v50.2
		c0,4.7,1.1,8.4,3.1,11.1c2,2.7,6.2,4.1,11,4.1c2.5,0,4.9-0.4,7.3-1.3c2.5-0.9,4.7-2,6.7-3.5V98.8c0-0.7,0.5-1.2,1.5-1.2h20.4
		c0.5-0.1,1.2,0.3,1.2,0.9C221.2,98.6,221.2,98.7,221.2,98.8z"/>
</g>
</svg>
