<svg width="256" height="256" viewBox="0 0 256 256" fill="none" xmlns="http://www.w3.org/2000/svg">
<g clip-path="url(#clip0_31_72)">
<path d="M196 0H60C26.8629 0 0 26.8629 0 60V196C0 229.137 26.8629 256 60 256H196C229.137 256 256 229.137 256 196V60C256 26.8629 229.137 0 196 0Z" fill="#F4F2ED"/>
<path d="M97.5934 42.0001H151.378L95.5465 207.428C94.9726 209.128 93.8798 210.606 92.422 211.652C90.9642 212.699 89.2149 213.262 87.4203 213.262H45.5634C44.2039 213.262 42.8638 212.938 41.6542 212.318C40.4445 211.697 39.4 210.798 38.6071 209.693C37.8142 208.589 37.2956 207.311 37.0944 205.967C36.8931 204.622 37.0149 203.249 37.4496 201.961L89.4672 47.834C90.041 46.1336 91.1338 44.6561 92.5916 43.6095C94.0494 42.5629 95.7988 42 97.5934 42.0001Z" fill="url(#paint0_linear_31_72)"/>
<path d="M175.75 152.958H90.4607C89.668 152.958 88.8936 153.196 88.2383 153.643C87.583 154.089 87.0771 154.721 86.7864 155.459C86.4958 156.196 86.4339 157.004 86.6087 157.778C86.7835 158.551 87.1871 159.253 87.7667 159.794L142.572 210.945C144.167 212.434 146.268 213.262 148.45 213.262H196.742L175.75 152.958Z" fill="#0078D4"/>
<path d="M97.5932 42.0001C95.7793 41.9933 94.0107 42.5666 92.5456 43.6363C91.0806 44.7059 89.9959 46.2159 89.4499 47.9458L37.5139 201.821C37.0501 203.114 36.9044 204.5 37.0893 205.861C37.2742 207.222 37.7842 208.518 38.5762 209.64C39.3681 210.763 40.4187 211.678 41.6391 212.308C42.8595 212.938 44.2137 213.266 45.5873 213.262H88.5247C90.1244 212.976 91.6195 212.271 92.8572 211.218C94.095 210.165 95.031 208.803 95.5696 207.27L105.925 176.749L142.92 211.253C144.47 212.536 146.415 213.245 148.427 213.262H196.54L175.437 152.958L113.922 152.972L151.574 42.0001H97.5932Z" fill="url(#paint1_linear_31_72)"/>
<path d="M166.29 47.8246C165.717 46.127 164.626 44.6519 163.17 43.607C161.715 42.5622 159.968 42.0001 158.177 42.0001H98.2349C100.027 42.0001 101.773 42.5621 103.229 43.607C104.684 44.6518 105.776 46.127 106.349 47.8246L158.369 201.96C158.804 203.248 158.926 204.622 158.725 205.966C158.523 207.311 158.005 208.588 157.212 209.693C156.419 210.797 155.374 211.697 154.165 212.317C152.955 212.938 151.615 213.262 150.256 213.262H210.197C211.557 213.262 212.897 212.938 214.106 212.317C215.316 211.697 216.36 210.797 217.153 209.692C217.946 208.588 218.464 207.311 218.666 205.966C218.867 204.621 218.745 203.248 218.31 201.96L166.29 47.8246Z" fill="url(#paint2_linear_31_72)"/>
</g>
<defs>
<linearGradient id="paint0_linear_31_72" x1="117.197" y1="54.6909" x2="61.3404" y2="219.705" gradientUnits="userSpaceOnUse">
<stop stop-color="#114A8B"/>
<stop offset="1" stop-color="#0669BC"/>
</linearGradient>
<linearGradient id="paint1_linear_31_72" x1="134.646" y1="131.591" x2="121.724" y2="135.96" gradientUnits="userSpaceOnUse">
<stop stop-opacity="0.3"/>
<stop offset="0.071" stop-opacity="0.2"/>
<stop offset="0.321" stop-opacity="0.1"/>
<stop offset="0.623" stop-opacity="0.05"/>
<stop offset="1" stop-opacity="0"/>
</linearGradient>
<linearGradient id="paint2_linear_31_72" x1="127.539" y1="49.877" x2="188.852" y2="213.229" gradientUnits="userSpaceOnUse">
<stop stop-color="#3CCBF4"/>
<stop offset="1" stop-color="#2892DF"/>
</linearGradient>
<clipPath id="clip0_31_72">
<rect width="256" height="256" fill="white"/>
</clipPath>
</defs>
</svg>
