<svg width="256" height="256" viewBox="0 0 256 256" fill="none" xmlns="http://www.w3.org/2000/svg">
<g clip-path="url(#clip0_31_72)">
<path d="M196 0H60C26.8629 0 0 26.8629 0 60V196C0 229.137 26.8629 256 60 256H196C229.137 256 256 229.137 256 196V60C256 26.8629 229.137 0 196 0Z" fill="#F4F2ED"/>
<path d="M96.1668 32.0024H156.673L93.8616 218.107C93.2161 220.019 91.987 221.681 90.3475 222.858C88.708 224.036 86.7406 224.669 84.7222 224.67H37.6332C36.1039 224.67 34.5966 224.306 33.2359 223.607C31.8752 222.909 30.7002 221.898 29.8083 220.656C28.9162 219.413 28.3329 217.977 28.1063 216.464C27.8797 214.952 28.0165 213.407 28.5053 211.958L87.025 38.5646C87.6704 36.6515 88.8996 34.989 90.5396 33.8114C92.1796 32.6337 94.1478 32.0001 96.1668 32V32.0024Z" fill="url(#paint0_linear_31_72)"/>
<path d="M184.092 156.828H88.143C87.2509 156.827 86.3792 157.095 85.6416 157.597C84.9038 158.098 84.3343 158.811 84.007 159.64C83.6797 160.47 83.6099 161.379 83.8067 162.249C84.0035 163.119 84.4579 163.91 85.1105 164.517L146.765 222.064C148.56 223.738 150.923 224.67 153.378 224.67H207.709L184.092 156.828Z" fill="#0078D4"/>
<path d="M96.167 32.0024C94.126 31.9945 92.1358 32.6395 90.4874 33.8432C88.8389 35.0467 87.6185 36.7459 87.0044 38.6925L28.5776 211.8C28.0558 213.255 27.892 214.813 28.1001 216.344C28.3081 217.875 28.8817 219.334 29.7725 220.595C30.6634 221.858 31.8451 222.888 33.2179 223.596C34.5906 224.306 36.1139 224.674 37.6589 224.67H85.9633C87.7624 224.348 89.4439 223.554 90.8361 222.37C92.2283 221.186 93.2813 219.655 93.8874 217.93L105.539 183.592L147.158 222.41C148.902 223.853 151.09 224.651 153.353 224.67H207.481L183.741 156.829L114.537 156.846L156.892 32.0024H96.167Z" fill="url(#paint1_linear_31_72)"/>
<path d="M168.971 38.5531C168.327 36.643 167.1 34.9832 165.463 33.8076C163.825 32.632 161.86 31.9998 159.844 32H92.4103C94.426 32.0001 96.3909 32.6324 98.0281 33.8081C99.6659 34.9836 100.894 36.6432 101.538 38.5531L160.06 211.954C160.549 213.403 160.686 214.947 160.46 216.461C160.234 217.974 159.65 219.41 158.759 220.653C157.866 221.896 156.692 222.908 155.331 223.606C153.97 224.304 152.462 224.669 150.932 224.669H218.368C219.897 224.668 221.405 224.304 222.765 223.606C224.126 222.907 225.301 221.895 226.193 220.652C227.085 219.409 227.668 217.973 227.893 216.46C228.12 214.947 227.983 213.403 227.494 211.954L168.971 38.5531Z" fill="url(#paint2_linear_31_72)"/>
</g>
<defs>
<linearGradient id="paint0_linear_31_72" x1="118.219" y1="46.2797" x2="55.3825" y2="231.917" gradientUnits="userSpaceOnUse">
<stop stop-color="#114A8B"/>
<stop offset="1" stop-color="#0669BC"/>
</linearGradient>
<linearGradient id="paint1_linear_31_72" x1="137.849" y1="132.792" x2="123.314" y2="137.707" gradientUnits="userSpaceOnUse">
<stop stop-opacity="0.3"/>
<stop offset="0.071" stop-opacity="0.2"/>
<stop offset="0.321" stop-opacity="0.1"/>
<stop offset="0.623" stop-opacity="0.05"/>
<stop offset="1" stop-opacity="0"/>
</linearGradient>
<linearGradient id="paint2_linear_31_72" x1="125.378" y1="40.8629" x2="194.354" y2="224.629" gradientUnits="userSpaceOnUse">
<stop stop-color="#3CCBF4"/>
<stop offset="1" stop-color="#2892DF"/>
</linearGradient>
<clipPath id="clip0_31_72">
<rect width="256" height="256" fill="white"/>
</clipPath>
</defs>
</svg>
