<svg width="256" height="256" viewBox="0 0 256 256" fill="none" xmlns="http://www.w3.org/2000/svg">
<rect width="256" height="256" rx="60" fill="#3B3C37"/>
<path d="M165.164 95.9128L165.119 95.4844L164.425 95.5435L164.47 95.9719L165.164 95.9128ZM169.831 107.139L169.846 107.375L170.334 107.331C170.319 107.183 170.378 106.947 170.481 106.651L170.437 106.223C170.23 106.238 170.023 106.548 169.831 107.139ZM151.619 121.275C151.589 120.876 150.348 119.325 147.896 116.592C147.852 116.09 148.694 115.337 150.422 114.347L155.356 110.049C156.464 108.645 157.114 106.371 157.306 103.21L157.247 102.486C157.055 100.3 155.474 98.5421 152.475 97.1979C150.703 96.0014 147.512 95.3367 142.904 95.2186C139.093 95.5435 134.115 96.9025 127.985 99.3101C126.301 100.521 124.381 101.733 122.224 102.944L122.254 103.313C122.387 103.298 122.594 103.224 122.83 103.062C123.081 103.032 123.229 103.151 123.244 103.387L123.613 103.195L123.79 103.18L123.805 103.343C123.82 103.535 122.49 104.583 119.802 106.459L120.009 106.843L119.831 106.858L119.388 106.696C119.403 106.829 119.211 106.917 118.842 106.947L118.857 107.109L119.285 107.641C119.152 107.656 118.945 107.597 118.665 107.493C118.044 107.552 117.439 107.877 116.833 108.498L117.084 107.405C117.985 103.52 118.605 100.078 118.93 97.0945L118.886 96.9025C118.266 96.5036 117.66 95.9423 117.099 95.2333C117.114 94.7754 117.114 94.5096 117.099 94.4505L117.055 94.288L116.877 94.3323C114.927 97.257 111.176 102.25 105.607 109.31C101.368 114.332 99.1815 117.124 99.0486 117.685C97.3204 119.473 96.4932 120.551 96.5818 120.92C96.1239 121.216 95.9319 121.511 96.0058 121.836C95.8728 121.866 95.7842 121.821 95.7547 121.688C95.0161 122.885 93.923 123.653 92.4607 123.993L90.9245 124.347C90.7177 124.391 90.6143 124.539 90.6291 124.79L90.6734 124.982L91.2495 124.849L91.2938 125.012L89.9939 125.514L87.6897 126.046L86.4784 126.12C86.3012 126.297 87.4385 126.105 86.9954 126.208L85.4888 126.563C84.573 126.77 84.0708 126.696 83.9821 126.326L83.8049 126.371C83.8344 126.533 83.8492 126.651 83.8196 126.755L83.731 126.385L82.5198 126.666C82.4312 126.105 80.7916 124.066 77.6158 120.551C77.5567 119.871 78.6793 118.882 80.9688 117.597L87.4385 111.91C88.8861 110.049 89.7428 107.065 90.0235 102.959L89.9349 101.998C89.6838 99.1034 87.5863 96.7695 83.6424 94.9675C81.3086 93.387 77.1136 92.545 71.0575 92.4121C66.0353 92.8404 59.477 94.6277 51.412 97.7444C49.1963 99.3545 46.6705 100.95 43.8344 102.53L43.8787 103.032C44.0708 103.018 44.3219 102.914 44.6321 102.737C44.957 102.707 45.1343 102.855 45.1638 103.151L45.666 102.87L45.9171 102.855L45.9319 103.092C45.9467 103.328 44.1889 104.702 40.6291 107.213L40.9098 107.656L40.6586 107.671L40.1121 107.479C40.1269 107.626 39.8758 107.73 39.3588 107.774L39.3883 108.04L39.9792 108.69C39.7872 108.705 39.5213 108.645 39.1815 108.527C38.0294 108.631 36.9068 109.458 35.799 111.024L36.0796 111.467C37.0397 110.58 37.601 110.137 37.7635 110.123L37.8226 110.846C37.6601 110.861 37.409 110.965 37.0693 111.142L37.6749 112.058C38.8418 110.802 40.1269 109.724 41.5301 108.823C42.2244 109 42.5937 109.222 42.6084 109.458L43.1402 109.414C46.9511 106.592 50.7177 104.554 54.4548 103.298L54.4991 103.801C53.8049 104.835 53.3322 105.366 53.0811 105.396C53.1106 105.75 53.2288 106.061 53.4504 106.326C53.5095 106.962 51.8108 111.245 48.3691 119.162C40.5552 137.567 33.9969 151.186 28.6646 159.99C28.6793 160.167 28.7827 160.403 28.9747 160.699C30.2894 160.388 31.1165 160.063 31.4711 159.753L31.7517 159.724L31.796 160.226L32.2835 160.182L32.7857 159.901C32.8004 160.049 32.9629 160.123 33.3027 160.093L33.347 160.595C33.3913 161.083 33.1106 161.821 32.5198 162.84C31.988 163.446 31.412 164.716 30.8064 166.651L30.8211 166.888L31.3086 166.843C33.4356 164.465 35.0456 162.131 36.1535 159.857C42.3573 158.04 47.084 156.253 50.3632 154.495C53.6572 154.214 56.1682 153.343 57.8817 151.91L57.8521 151.644L56.6114 152.013L56.3307 152.043L56.3012 151.777C58.7236 151.408 60.3928 150.876 61.3233 150.137C66.0353 146.504 69.5951 143.933 72.0028 142.412C76.9511 138.778 80.1712 135.233 81.6335 131.792C81.8994 131.733 82.1653 131.674 82.4607 131.6C83.155 131.57 83.539 131.555 83.6424 131.526C83.6129 131.393 83.6719 131.319 83.8049 131.289C84.9127 131.171 84.3809 131.363 85.09 131.201L86.9511 130.772C86.8329 130.802 86.7886 130.861 86.8182 130.979L87.0988 130.802C87.0397 130.802 86.9954 130.787 86.9511 130.772L87.2613 130.699L87.1136 130.787C87.3204 130.817 87.5419 130.802 87.7931 130.743L87.926 131.289L79.4622 144.746L77.5863 147.094L76.6705 150.167L76.8477 150.123L77.7635 149.739L77.4681 150.935L77.5567 151.289L77.8078 151.6C77.6897 151.629 77.6453 151.703 77.6749 151.836L77.7192 152.028L78.1033 151.939C78.6646 151.452 78.9009 151.009 78.8123 150.61C79.4179 150.713 79.8167 150.758 80.0235 150.699L80.0678 150.891C79.6985 150.979 79.5065 151.275 79.477 151.777L79.5213 151.969L79.7281 151.925C82.8004 148.572 90.3337 137.094 96.375 129.31C96.183 128.468 99.3292 127.301 105.829 125.795L106.035 125.75C106.272 126.77 105.769 129.236 104.529 133.151C103.731 135.514 103.347 136.814 103.406 137.021C102.372 140.167 101.885 141.866 101.944 142.131L99.6394 149.679C98.1476 153.549 97.0102 157.611 96.2126 161.895C96.3455 161.866 96.5523 161.88 96.8477 161.954L97.1727 161.674C97.2022 161.806 97.2908 161.851 97.4238 161.821L97.2908 161.275L98.2953 161.245C98.5907 161.171 98.8418 160.802 99.0486 160.123C99.0043 159.103 99.2111 158.557 99.669 158.439C100.289 156.016 100.673 154.805 100.806 154.761C101.382 152.353 101.811 150.979 102.091 150.64C102.963 147.508 103.598 145.898 104.012 145.795L104.1 146.179L103.465 147.818C102.357 152.737 101.235 156.622 100.097 159.473L100.422 160.891L100.629 160.846C103.377 154.938 107.335 143.239 112.49 125.75C112.638 124.214 113.377 123.018 114.691 122.176L114.396 121.866L114.351 121.703C114.942 121.57 115.356 121.334 115.592 121.009C115.563 120.876 115.046 120.684 114.041 120.418L116.611 109.399C117.173 108.897 117.498 108.631 117.601 108.631L117.645 109.192C117.512 109.207 117.306 109.281 117.069 109.443L117.557 110.137C118.443 109.177 119.403 108.35 120.452 107.656C120.984 107.804 121.249 107.981 121.279 108.158L121.663 108.128C124.588 105.987 127.453 104.45 130.275 103.52L130.304 103.889C129.787 104.672 129.433 105.071 129.241 105.086C129.27 105.352 129.344 105.588 129.477 105.795C129.521 106.282 128.251 109.532 125.651 115.558C119.713 129.517 114.735 139.842 110.688 146.548C110.703 146.681 110.792 146.858 110.954 147.094C111.944 146.858 112.579 146.607 112.83 146.371L113.007 146.356L113.037 146.725L113.45 146.696L113.82 146.504C113.834 146.607 113.967 146.651 114.218 146.637L114.248 147.035C114.278 147.39 114.071 147.951 113.613 148.719C113.184 149.177 112.741 150.137 112.269 151.6L112.283 151.792L112.668 151.762C114.278 149.96 115.504 148.188 116.345 146.445C121.057 145.056 124.647 143.712 127.128 142.383C129.654 142.161 131.56 141.511 132.86 140.418L132.845 140.226L131.885 140.507L131.678 140.521L131.663 140.329C133.495 140.063 134.78 139.65 135.474 139.103C139.049 136.356 141.752 134.391 143.583 133.239C149.285 129.089 151.944 125.1 151.619 121.275ZM150.644 121.526L150.777 123.018C150.6 123.387 150.408 123.579 150.23 123.594L150.009 121.053C150.422 121.201 150.629 121.349 150.644 121.526ZM38.7975 109.502L38.5464 109.517L38.5021 109.059L39.5213 108.97L39.536 109.207C39.3736 109.222 39.1225 109.31 38.7975 109.502ZM33.8196 159.295C33.2288 159.03 32.697 158.926 32.2391 158.97L32.1801 158.247C32.1505 157.966 32.313 157.774 32.6675 157.7C32.9925 157.671 33.1845 157.907 33.214 158.38C34.0708 157.331 34.5434 156.799 34.6321 156.784L35.1786 157.006C35.0013 158.483 34.5434 159.236 33.8196 159.295ZM87.0102 103.653C86.7591 103.682 86.2569 102.9 85.5331 101.349L85.4888 100.891C85.9615 100.846 86.4489 101.614 86.9659 103.195L87.0102 103.653ZM86.3012 98.1432L86.0944 98.6307L78.8713 95.6174C83.6867 95.7799 86.1682 96.6218 86.3012 98.1432ZM55.799 124.332L54.7798 124.421L54.7355 123.963L55.7547 123.874L55.799 124.332ZM54.9718 108.601L55.2229 108.586L55.282 109.31C55.0456 109.325 54.7355 109.679 54.3514 110.359L54.3071 109.857C54.765 109.31 55.0013 108.897 54.9718 108.601ZM52.83 113.653L52.9186 114.613L52.6675 114.628L52.5789 113.668L52.83 113.653ZM51.7074 115.455L52.1948 115.411C52.1505 116.208 51.929 116.637 51.5301 116.666L51.279 116.681C51.5892 116.149 51.7369 115.736 51.7074 115.455ZM50.8654 117.966L51.1461 117.936L51.1609 118.173L50.703 118.941L50.2155 118.985L50.2007 118.749C50.6882 118.705 50.9098 118.453 50.8654 117.966ZM50.0383 120.226L49.8905 121.437L49.6394 121.452L49.536 120.255L50.0383 120.226ZM41.7517 143.786C41.4267 145.44 41.0722 146.282 40.703 146.312L40.6882 146.075C40.5996 145.263 40.9541 144.495 41.7517 143.786ZM40.2303 147.08L40.2451 147.316C40.2746 147.641 40.1269 147.833 39.8019 147.848L39.7872 147.611C39.7576 147.331 39.9053 147.154 40.2303 147.08ZM39.7872 153.919L40.5552 153.845L40.5848 154.111C40.3928 154.126 40.1417 154.229 39.8315 154.406L39.344 154.45C39.3145 154.199 39.477 154.007 39.7872 153.919ZM61.6483 147.168C57.3352 149.295 54.7945 150.743 54.0412 151.496C49.3736 153.121 47.0545 154.126 47.0988 154.524C42.9482 156.164 40.2155 157.375 38.9009 158.128C38.5907 158.158 38.1476 158.04 37.5567 157.774C37.4829 156.932 37.8669 156.253 38.6793 155.706C39.4031 155.647 40.0973 155.75 40.762 156.031C41.5301 155.632 42.8743 155.189 44.7798 154.716L44.7355 154.214L43.1993 154.347C43.3913 154.081 44.8684 153.387 47.6454 152.264L48.4134 152.191L48.4282 152.427C47.1136 152.545 46.3898 152.929 46.2273 153.623C46.2569 153.933 46.4341 154.066 46.7591 154.037C47.7487 153.416 48.2362 153.047 48.2214 152.944C50.0973 152.589 55.282 149.871 63.7753 144.805L63.8196 145.263C63.8344 145.484 63.1106 146.105 61.6483 147.168ZM48.6202 151.452C49.861 151.349 50.9245 150.846 51.8108 149.975C52.1653 149.945 52.3573 150.078 52.3721 150.388C51.7665 150.448 50.5996 150.95 48.9009 151.925L48.6498 151.939L48.6202 151.452ZM69.6394 135.307L63.1254 140.462C58.2805 143.638 55.6808 145.233 55.3115 145.263C47.601 149.502 42.8004 151.703 40.9393 151.866L40.6586 151.895C40.895 151.024 44.3219 144.007 50.9688 130.802C53.8935 130.551 58.5021 129.192 64.7798 126.71L66.316 126.578C69.4917 126.297 71.8699 126.917 73.4356 128.394L73.5242 129.354C72.3425 132.752 71.0427 134.731 69.6394 135.307ZM56.9068 128.143L57.9555 128.055L57.9703 128.291L56.9216 128.38L56.9068 128.143ZM71.6335 125.647L72.4016 125.573C73.1106 125.913 73.4799 126.208 73.5095 126.474L73.5242 126.71C72.8448 126.77 72.2096 126.415 71.6335 125.647ZM73.7162 113.786C73.0368 114.598 71.1756 115.987 68.1328 117.936C67.1284 118.025 63.3913 119.473 56.9216 122.309C56.5966 122.161 56.2569 122.102 55.8876 122.131L55.8433 121.674C55.7694 120.743 56.183 119.576 57.0988 118.158C57.601 115.499 58.1476 113.978 58.7532 113.609L64.1446 101.481C64.0855 100.728 65.2377 100.152 67.601 99.7533L68.3691 99.6794L68.4282 100.374C70.7473 100.019 72.1948 99.8124 72.7561 99.7681C77.0397 99.3988 79.2702 100.27 79.4474 102.353L79.9349 102.309L79.8315 101.083L80.3632 101.038C81.6188 101.733 82.2982 102.575 82.3869 103.564C82.4459 104.244 82.0767 105.086 81.2938 106.09C80.9688 106.12 80.7768 105.883 80.7473 105.411L80.2155 105.455L80.0973 106.932C77.926 110.182 76.3455 111.851 75.3706 111.939C74.4843 113.165 73.9378 113.771 73.7162 113.786ZM77.025 122.279C76.5818 121.984 76.2273 121.851 75.9615 121.866L75.9024 121.142L76.3898 121.097L77.4681 121.733C77.5124 122.072 77.3647 122.25 77.025 122.279ZM80.4518 126.341C80.9245 126.533 81.2052 126.74 81.2643 126.932L81.0279 126.991L81.0427 127.006C80.9984 127.006 80.9393 127.021 80.895 127.035L80.5405 127.316L80.4518 126.341ZM80.7768 128.38L80.7325 128.188L81.3529 128.04L81.3972 128.232L80.7768 128.38ZM82.2687 130.049C82.9038 129.945 83.214 129.901 84.3957 129.635L84.44 129.827L82.1948 130.344C82.2244 130.241 82.2539 130.137 82.2687 130.049ZM84.4548 130.979C83.5095 131.068 83.7162 130.95 82.2096 131.289L82.1653 131.097L84.0412 130.492L84.9422 130.285L85.0309 130.64C84.6321 130.728 84.9275 130.728 84.4548 130.979ZM86.4489 130.507C86.2273 130.566 86.0501 130.462 85.9467 130.211L86.5228 130.078C86.7739 130.019 86.9363 130.123 86.9954 130.374L86.4489 130.507ZM91.8551 124.687L91.8108 124.495L92.7414 124.273L92.83 124.628L91.8551 124.687ZM97.6306 160.108C97.6897 159.842 97.7044 159.65 97.6749 159.517L97.8817 159.473C98.1328 159.414 98.2805 159.502 98.3396 159.739L98.3839 159.931L97.6306 160.108ZM101.678 126.208L101.264 126.134C100.6 126.4 100.038 126.592 99.5804 126.696L99.1963 126.784C98.9747 126.843 98.7975 126.755 98.7089 126.518L101.412 125.898L102.298 125.484L102.594 125.824C102.165 125.913 101.855 126.046 101.678 126.208ZM103.761 125.544L103.716 125.352C103.849 125.322 104.026 125.219 104.218 125.027L106.139 124.583L106.183 124.775C105.164 125.027 104.351 125.278 103.761 125.544ZM104.056 121.659C103.923 121.688 103.746 121.806 103.524 121.984C103.495 121.851 103.229 121.851 102.727 121.969C102.638 121.6 104.056 121.083 106.995 120.403L107.409 120.315L107.498 120.669C105.43 121.275 104.278 121.614 104.056 121.659ZM109.226 116.075C109.019 118.424 108.192 119.753 106.73 120.093L106.685 119.901L105.385 120.403L104.809 120.536C104.514 120.61 104.248 120.595 104.012 120.521L103.894 120.004C103.849 119.812 105.725 117.213 109.536 112.22L109.979 112.294C110.142 112.973 109.891 114.229 109.226 116.075ZM118.369 108.247L118.192 108.261L118.162 107.892L118.93 107.818L118.945 108.01C118.812 108.04 118.62 108.114 118.369 108.247ZM114.603 146.075C114.159 145.868 113.761 145.78 113.421 145.809L113.377 145.248C113.362 145.056 113.48 144.923 113.731 144.849C113.982 144.82 114.13 144.997 114.159 145.381C114.795 144.569 115.149 144.155 115.223 144.155L115.622 144.318C115.474 145.44 115.134 146.031 114.603 146.075ZM154.987 103.83C154.795 103.845 154.425 103.254 153.849 102.058L153.82 101.688C154.189 101.659 154.573 102.235 154.957 103.417L154.987 103.83ZM154.455 99.6056L154.278 99.9896L148.812 97.7001C152.461 97.8183 154.351 98.4534 154.455 99.6056ZM131.279 119.502L130.511 119.576L130.481 119.207L131.249 119.148L131.279 119.502ZM130.644 107.552L130.851 107.538L130.895 108.099C130.703 108.114 130.467 108.38 130.186 108.897L130.156 108.527C130.496 108.099 130.659 107.774 130.644 107.552ZM129.034 111.393L129.093 112.117L128.886 112.131L128.827 111.408L129.034 111.393ZM128.162 112.767L128.546 112.737C128.502 113.357 128.34 113.682 128.059 113.712L127.852 113.727C128.074 113.313 128.177 112.988 128.162 112.767ZM127.542 114.657L127.719 114.642L127.734 114.835L127.394 115.425L127.01 115.455L126.995 115.263C127.394 115.233 127.571 115.027 127.542 114.657ZM126.922 116.371L126.789 117.316L126.611 117.331L126.538 116.4L126.922 116.371ZM120.614 134.288C120.363 135.529 120.097 136.164 119.817 136.193L119.802 136.031C119.758 135.411 120.023 134.82 120.614 134.288ZM119.447 136.784L119.462 136.947C119.492 137.213 119.374 137.36 119.108 137.375L119.093 137.183C119.078 136.991 119.196 136.858 119.447 136.784ZM119.122 141.984L119.713 141.939L119.728 142.131C119.595 142.146 119.388 142.22 119.152 142.353L118.768 142.383C118.753 142.176 118.871 142.043 119.122 141.984ZM135.71 136.858C132.461 138.468 130.526 139.561 129.92 140.123C126.375 141.363 124.617 142.131 124.647 142.442C121.501 143.697 119.433 144.598 118.458 145.174C118.221 145.189 117.882 145.1 117.439 144.894C117.379 144.258 117.675 143.741 118.295 143.357C118.857 143.313 119.388 143.387 119.876 143.594C120.467 143.298 121.486 142.973 122.933 142.604L122.904 142.235L121.693 142.323C121.84 142.117 122.978 141.585 125.09 140.728L125.681 140.684L125.696 140.846C124.691 140.935 124.13 141.23 124.012 141.762C124.026 141.998 124.174 142.117 124.425 142.087C125.164 141.6 125.518 141.319 125.518 141.23C126.936 140.979 130.865 138.911 137.32 135.041L137.35 135.411C137.365 135.573 136.818 136.046 135.71 136.858ZM125.814 140.108C126.774 140.019 127.586 139.65 128.266 139C128.517 138.97 128.665 139.089 128.679 139.325C128.236 139.369 127.365 139.739 126.05 140.448L125.843 140.462L125.814 140.108ZM141.796 127.833L136.877 131.792C133.199 134.199 131.205 135.411 130.895 135.44C125.046 138.66 121.412 140.329 119.979 140.448L119.772 140.462C119.95 139.798 122.564 134.465 127.616 124.45C129.817 124.258 133.303 123.21 138.088 121.319L139.285 121.216C141.693 121.009 143.495 121.481 144.676 122.619L144.735 123.343C143.834 125.883 142.86 127.375 141.796 127.833ZM132.136 122.397L132.904 122.323L132.919 122.515L132.151 122.589L132.136 122.397ZM143.317 120.492L143.908 120.448C144.455 120.713 144.735 120.95 144.75 121.142L144.765 121.304C144.248 121.349 143.761 121.083 143.317 120.492ZM144.868 111.496C144.351 112.117 142.948 113.18 140.659 114.657C139.891 114.731 137.055 115.824 132.151 117.951C131.914 117.863 131.648 117.833 131.368 117.848L131.338 117.479C131.279 116.77 131.589 115.883 132.269 114.805C132.653 112.767 133.081 111.629 133.524 111.363L137.645 102.146C137.601 101.6 138.473 101.157 140.245 100.817L140.836 100.772L140.88 101.334C142.623 101.053 143.716 100.891 144.159 100.846C147.409 100.566 149.108 101.216 149.241 102.811L149.625 102.781L149.551 101.895L149.935 101.866C150.88 102.383 151.382 103.003 151.442 103.741C151.486 104.273 151.22 104.923 150.659 105.676C150.408 105.706 150.26 105.529 150.23 105.145L149.846 105.174L149.728 106.282C148.088 108.778 146.892 110.063 146.139 110.123C145.474 111.024 145.06 111.481 144.868 111.496ZM146.597 117.641L146.552 117.08L146.936 117.05L147.764 117.552C147.778 117.789 147.66 117.922 147.409 117.951C147.055 117.73 146.789 117.626 146.597 117.641ZM77.8374 153.52L77.4533 153.609L77.1284 153.889C77.1874 154.126 77.3352 154.214 77.5863 154.155C77.8374 154.096 77.9408 153.948 77.8817 153.712L77.8374 153.52ZM76.375 150.61L76.4193 150.802C76.6705 150.743 76.7739 150.595 76.7148 150.359L76.6705 150.167C76.4341 150.226 76.3307 150.374 76.375 150.61ZM86.7739 125.868L87.217 125.765L87.1284 125.381L86.6852 125.484L86.7739 125.868ZM220.806 137.124C216.316 138.128 215.755 137.951 214.809 138.025L214.839 138.394L215.252 138.365L215.474 138.35L215.415 138.306L215.902 138.114C220.348 137.626 220.865 137.804 220.821 137.301L220.806 137.124ZM196.626 140.329L196.656 140.699H196.715L196.685 140.329H196.626ZM193.849 130.595L193.45 130.462C193.125 131.334 192.963 131.851 192.978 131.998L192.992 132.161C193.303 132.146 193.583 131.614 193.849 130.595ZM221.722 137.05L221.752 137.419L222.402 137.538L222.372 137.168L221.722 137.05ZM191.161 140.787L190.156 140.669L189.979 141.053L189.994 141.245L195.976 140.743L195.947 140.374L191.161 140.787ZM188.443 127.685L188.428 127.493L188.221 127.508L187.852 127.744L188.059 128.099C188.34 128.069 188.473 127.936 188.443 127.685ZM224.558 134.332L224.839 134.303C225.001 134.288 225.075 134.155 225.06 133.919L224.898 133.564C223.879 133.653 223.406 133.697 222.579 134.155L222.564 133.963L221.338 134.081C221.309 133.712 221.205 133.52 221.043 133.535L220.408 133.594C219.669 133.653 219.314 133.623 218.945 133.904C218.93 133.771 218.886 133.712 218.812 133.712L218.103 133.771L217.69 134.007C217.675 133.874 217.631 133.815 217.557 133.815L217.306 134.037L217.291 133.845L216.301 133.771L216.065 133.786L216.094 134.155L216.597 134.288L217.069 134.258C217.232 134.362 217.409 134.391 217.616 134.377L218.029 134.17L218.044 134.332C215.725 134.908 215.74 134.805 214.145 135.071C213.967 134.953 213.834 134.894 213.746 134.908L213.716 134.938C213.539 134.923 213.436 134.805 213.421 134.613L214.248 134.51C214.307 134.51 214.351 134.569 214.809 134.657C215.474 134.332 215.504 134.199 215.858 134.17L215.829 133.801C213.554 134.244 214.47 133.948 211.619 134.199L211.486 134.214L211.456 133.845C215.119 133.402 213.894 133.653 215.149 133.298C215.164 133.431 215.208 133.49 215.282 133.49C215.43 133.343 215.592 133.269 215.784 133.239L216.035 133.224C217.32 133.121 217.749 133.372 220.289 132.663L220.304 132.826L220.718 132.619L221.102 132.589C221.072 132.22 221.634 132.161 221.826 132.146L221.796 131.747C217.335 132.648 216.168 132.397 214.927 132.752L214.913 132.589C213.746 132.796 213.701 132.707 213.406 132.722C213.317 132.737 213.185 132.811 213.037 132.959C213.022 132.826 212.978 132.767 212.889 132.767C212.845 132.767 212.83 132.781 212.815 132.781L209.034 133.402C209.019 133.298 208.975 133.239 208.886 133.254C206.922 133.668 207.453 133.741 204.824 133.978C204.706 133.993 204.543 134.052 204.337 134.185C204.322 134.081 204.263 134.022 204.13 134.037L202.52 134.17L201.442 134.436C201.427 134.332 201.368 134.273 201.235 134.288C200.629 134.45 200.097 134.554 199.669 134.583H199.639C199.374 134.613 199.772 134.51 199.566 134.421L199.241 134.613C198.768 134.657 199.019 134.583 197.394 134.598C194.543 134.953 194.854 134.997 194.543 135.012L193.48 134.938C193.495 135.041 193.436 135.115 193.317 135.115C192.106 134.953 191.486 134.761 191.471 134.539C191.634 133.387 191.914 132.796 192.313 132.767L192.52 132.752L192.343 133.136L192.549 133.121C192.933 132.914 193.111 132.722 193.096 132.545L193.066 132.146L192.682 132.176L192.653 131.806C192.623 131.526 192.668 131.275 192.771 131.068L193.642 129.665L193.672 130.034L194.086 130.004L194.056 129.635L193.82 129.295C194.13 129.029 194.366 128.882 194.558 128.867L194.543 128.675L193.982 128.719L193.938 128.158C195.06 125.824 195.592 124.465 195.563 124.081L195.961 124.244C196.213 124.229 196.331 124.081 196.316 123.815L195.932 123.845L195.917 123.682C195.888 123.402 195.947 123.136 196.065 122.9C196.67 122.264 196.951 121.629 196.892 120.965C197.01 120.95 197.069 121.009 197.084 121.142C197.601 120.846 198 120.063 198.295 118.764C199.211 117.109 200.511 113.801 202.21 108.852C205.459 100.108 205.326 99.1772 205.784 97.1093L205.4 97.1388C205.43 97.4047 205.371 97.6558 205.252 97.8921C204.987 97.7887 204.78 97.7296 204.632 97.7444L204.617 97.5819C204.558 96.8286 204.868 95.9276 205.577 94.8641L205.755 94.8493L206.08 96.1196L206.464 96.0901C206.449 96.0014 206.552 95.4992 206.759 94.5686C206.744 94.3766 206.597 94.2585 206.301 94.2437L205.932 94.48C205.902 94.2141 205.917 93.5199 205.961 92.4121L205.769 92.4268C205.444 92.1019 205.282 91.836 205.267 91.6144L203.155 91.8212C203.14 91.6735 203.066 91.452 202.919 91.1713C202.904 90.9793 203.377 90.7873 204.351 90.5952L204.78 90.7577L205.179 90.5214C205.193 90.6543 205.267 90.7134 205.415 90.6986L205.814 90.4623C205.829 90.5952 205.902 90.6543 206.05 90.6395L206.242 90.6248L206.213 90.1964C205.917 90.226 205.134 90.226 203.894 90.1816L203.495 90.4475L203.48 90.2112C193.569 91.0236 187.941 91.4815 186.597 91.6144C186.419 91.6292 185.725 91.6144 184.499 91.5849C184.514 91.7474 184.366 91.836 184.071 91.8655L183.642 91.6735L182.195 92.0428C181.855 92.0723 181.279 92.0576 180.481 91.9689C180.26 92.1462 179.994 92.2496 179.669 92.2791C179.492 92.2939 181.781 92.161 183.908 92.0133C183.687 92.1905 183.347 92.2939 182.874 92.3382C182.549 92.3678 182.269 92.3234 182.032 92.1905C181.707 92.3382 180.659 92.5746 178.901 92.9291L178.473 92.7666L171.56 93.8301C171.294 93.6971 170.984 93.6528 170.629 93.6824C170.26 93.7119 169.639 93.8449 168.783 94.0812L165.444 95.4697L165.696 95.8833C165.858 95.8685 166.094 95.7799 166.375 95.6174L167.557 95.7208L167.409 96.8286C166.316 97.3161 165.681 98.0398 165.504 98.9556C163.864 99.6794 163.052 100.196 163.052 100.507L163.066 100.699L163.317 100.684L163.761 100.448L164.278 101.068L164.351 101.925C164.381 102.191 161.619 107.996 156.094 119.34C151.309 130.27 148.797 136.253 148.561 137.331C146.922 137.789 145.976 138.453 145.696 139.34C145.725 139.62 146.213 139.812 147.158 139.886L147.202 140.315L146.774 141.024L146.848 141.88C146.892 142.323 148.088 142.663 150.437 142.9C150.422 142.752 150.496 142.663 150.659 142.648C150.703 143.18 150.555 144.214 150.216 145.75L150.467 145.736C151.442 144.406 151.899 143.49 151.855 142.988L152.062 142.973C152.298 142.959 152.549 143.224 152.845 143.801C152.549 143.919 151.515 146.267 149.743 150.861L149.994 151.275L150.245 151.26C152.416 145.765 153.775 142.722 154.337 142.146C157.187 141.895 162.121 141.393 169.122 140.64L169.566 140.374C169.58 140.521 169.669 140.595 169.831 140.58L170.289 140.536L170.732 140.27C170.747 140.418 170.836 140.492 170.998 140.477L176.301 140.019C177.704 139.901 178.369 139.473 178.31 138.749C178.295 138.557 179.122 138.335 180.792 138.099C180.954 138.084 181.19 138.128 181.515 138.232C181.501 138.099 182.343 137.966 184.026 137.818C184.071 136.932 184.351 136.459 184.854 136.415L184.809 135.987C184.337 136.031 183.805 136.149 183.185 136.356C182.077 136.297 181.368 136.208 181.072 136.105C180.777 136.267 180.555 136.356 180.393 136.371L176.7 136.489L176.257 136.725C176.242 136.592 176.153 136.533 175.991 136.548L175.784 136.563L175.312 136.799C175.297 136.666 174.913 136.563 174.145 136.459L173.672 136.74L172.756 136.814L172.741 136.578C177.498 136.061 179.846 135.411 179.787 134.642C180.097 134.613 180.26 134.761 180.289 135.071L181.678 134.716L181.634 134.288L170.245 134.598C170.26 134.746 170.186 134.835 170.023 134.849L168.635 134.731C168.281 134.761 167.985 134.864 167.749 135.041L167.232 134.849C165.799 134.967 164.735 135.145 164.026 135.366C163.052 135.292 161.973 135.307 160.777 135.411L158.221 135.632L157.04 135.499C156.981 134.746 158.443 131.038 161.456 124.391C162.328 122.146 163.125 120.743 163.893 120.211C164.056 120.196 164.292 120.255 164.617 120.388L166.434 119.768L167.365 119.916C168.93 119.783 170.747 119.34 172.83 118.572C173.347 118.527 173.731 118.557 174.012 118.675L175.4 118.35L179.536 117.996C181.294 117.848 183.199 117.464 185.267 116.829L185.223 116.4C184.455 116.474 184.056 116.341 184.026 116.031C183.982 115.455 183.421 115.219 182.343 115.307L182.298 114.879L183.436 114.554L186.419 114.303L186.375 113.874C186.257 113.889 185.651 113.874 184.529 113.83L184.484 113.372L185.636 113.269C185.947 113.239 186.08 113.092 186.05 112.796C184.499 112.84 183.716 112.767 183.701 112.56C172.889 113.092 167.468 113.195 167.439 112.855C167.276 112.87 167.055 112.973 166.759 113.151L166.478 112.707C169.344 106.622 171.028 103.549 171.515 103.505C171.53 103.741 171.412 104.126 171.146 104.642L171.161 104.835L171.619 104.79C172.756 102.072 173.716 100.669 174.514 100.61C177.911 100.315 174.041 100.093 181.309 98.9556C181.604 99.0886 181.811 99.1477 181.959 99.1329C184.809 98.5568 188.783 97.9512 193.879 97.3308L193.849 96.9025L191.131 97.1536L191.102 96.7252C191.427 96.6957 191.693 96.5923 191.914 96.415L191.929 96.6514C192.077 96.6366 192.283 96.5332 192.549 96.3559C193.022 96.3116 193.377 96.3559 193.628 96.4889C194.573 96.2378 195.341 96.0901 195.902 96.031L197.601 95.8685C198.015 95.6026 198.207 95.3663 198.192 95.1447L198.177 94.9527C197.749 94.997 197.261 94.9675 196.685 94.8641C196.67 94.6277 196.789 94.4652 197.069 94.3914L200.23 94.096L201.678 93.7267C201.693 93.8892 201.766 93.9483 201.885 93.9483C202.032 93.9335 202.239 93.8301 202.505 93.6528C202.579 93.6676 202.668 93.6676 202.741 93.6824C202.549 94.0812 202.328 94.6573 202.106 95.4106L201.693 95.4401C201.663 95.1595 201.589 94.9084 201.456 94.6868L201.249 94.7016C197.409 105.396 195.696 110.374 192.151 118.586C191.501 120.684 190.954 121.851 190.481 122.102C190.496 122.338 190.644 122.456 190.895 122.427C190.984 123.461 190.747 124.48 190.171 125.484C188.532 130.211 187.439 132.796 186.877 133.269L187.247 135.499C187.261 135.736 187.143 135.868 186.892 135.898L186.508 135.928C186.449 135.307 186.227 135.012 185.829 135.056L185.622 135.071C185.12 135.854 184.735 136.755 184.484 137.804L184.868 137.774C185.385 137.434 185.622 137.035 185.577 136.578L186.345 136.504L186.789 136.666C186.434 137.227 186.272 137.671 186.301 138.01L186.508 138.365L186.006 139.546L186.021 139.739C186.464 139.694 186.951 139.842 187.468 140.152C187.823 140.123 188.207 139.96 188.635 139.679C189.078 139.635 190.732 139.62 193.583 139.62L195.016 139.133C196.759 139.118 197.04 139.162 198.546 139.03L199.167 138.97L199.492 138.749L199.507 138.941C201.087 138.808 201.19 138.911 202.431 139.059L202.446 139.251L201.574 139.325L201.604 139.694C201.87 139.665 202.106 139.591 202.298 139.428C202.52 139.414 202.653 139.532 202.668 139.798C202.313 139.827 201.914 139.916 201.471 140.063L201.087 139.931C200.481 140.093 200.614 140.137 200.201 140.167L199.595 140.049C199.61 140.152 199.551 140.226 199.447 140.226C199.462 140.462 199.595 140.58 199.817 140.566L200.437 140.507L203.672 140.226L204.898 139.96C204.913 140.063 204.957 140.123 205.06 140.108L205.651 139.886L206.759 139.798C207.616 139.724 207.601 139.665 209.462 139.369C209.447 139.251 209.492 139.207 209.58 139.192L209.595 139.354C212.623 138.837 212.815 138.808 213.303 138.645L213.347 138.734C214.1 138.557 213.672 138.601 213.879 138.453C213.894 138.586 213.938 138.645 214.012 138.645L214.543 138.601L214.514 138.202L213.436 138.188L213.421 138.158C213.377 138.173 213.347 138.173 213.303 138.188H213.155V138.217C212.431 138.365 212.416 138.261 211.944 138.306L209.241 138.453L209.226 138.261L210.733 138.055L211.279 138.01L211.589 137.789L211.604 137.981C213.731 137.804 214.484 138.335 224.322 136.238C224.854 136.193 224.809 135.75 225.149 134.835C224.972 134.849 224.795 134.805 224.632 134.716C223.82 135.027 223.391 134.879 221.826 135.13C221.693 135.145 221.589 135.027 221.545 134.79L221.53 134.628L223.037 134.672C223.317 134.642 223.864 134.598 224.676 134.14C224.676 134.273 224.381 134.347 224.558 134.332ZM151.826 135.499L151.131 135.558C151.102 135.278 151.471 134.214 152.239 132.397L152.697 132.353C152.712 132.781 152.431 133.83 151.826 135.499ZM152.668 132.131L152.653 131.939C152.638 131.703 152.786 131.541 153.111 131.467L153.125 131.659C153.14 131.939 152.992 132.102 152.668 132.131ZM161.899 139.266L161.914 139.458L160.762 139.561L160.747 139.369L161.899 139.266ZM160.511 139.148C160.526 139.384 160.171 139.65 159.403 139.916L157.985 139.812L157.527 139.857L157.483 139.428L160.511 139.148ZM169.846 96.1787L169.152 96.2378L169.137 96.0014C169.122 95.7651 169.255 95.6026 169.551 95.5288L169.802 95.514L170.275 95.706C170.289 95.9867 170.156 96.1491 169.846 96.1787ZM180.408 94.1107L180.629 94.096L180.659 94.5243L180.023 94.5834C180.009 94.3471 180.127 94.1846 180.408 94.1107ZM177.749 95.0413L176.7 94.9231L176.685 94.7311C178.059 94.613 178.517 94.4652 179.359 94.2289C179.374 94.3914 179.521 94.4505 179.787 94.4209L179.817 94.8493L179.403 94.8936C179.078 94.9231 178.797 94.8788 178.561 94.7459C178.31 94.9084 178.044 95.0118 177.749 95.0413ZM179.063 98.867L179.049 98.675L180.747 98.5125L180.762 98.7045L179.063 98.867ZM180.88 97.3899L180.865 97.1536L181.693 97.0797L181.707 97.3161L180.88 97.3899ZM181.072 94.4948L180.851 94.5096L181.043 94.0517L182.933 93.8744L182.948 94.1107C182.461 94.1551 181.826 94.288 181.072 94.4948ZM182.032 98.5716L182.003 98.1432L182.83 98.0694C183.111 98.0398 183.258 98.1728 183.273 98.4682L182.032 98.5716ZM187.04 91.7474L185.976 92.0428L185.784 92.0576C185.282 92.1019 184.632 92.0871 183.864 92.0133C185.238 91.9246 186.552 91.8212 187.04 91.7474ZM185.902 96.4741L185.917 96.6661L184.455 96.7991L184.44 96.607L185.902 96.4741ZM188.295 97.6115C188.281 97.4342 188 97.3161 187.424 97.257L185.961 97.6706L184.839 97.7149C184.588 97.5376 184.455 97.4195 184.44 97.3308L185.74 97.4047L188.665 96.932L190.156 96.9911L190.171 97.2274C189.433 97.3013 188.812 97.4342 188.295 97.6115ZM203.347 93.7267C203.524 93.7415 203.642 93.7415 203.687 93.7415C204.204 93.2392 204.78 92.8404 205.444 92.5598C204.913 94.8936 204.086 96.6218 202.948 97.7444L202.121 97.2422C202.815 95.4844 203.229 94.3175 203.347 93.7267ZM200.806 98.0842L201.013 98.0694C200.733 98.6011 200.481 98.8818 200.275 98.8966L200.23 98.3353C200.363 98.3353 200.555 98.2466 200.806 98.0842ZM199.167 101.998C199.566 100.403 199.95 99.5022 200.304 99.2658L200.319 99.4579C200.112 100.935 199.787 101.718 199.359 101.777L199.433 102.707C199.078 103.21 198.916 103.594 198.93 103.889L198.724 103.904L198.605 102.619C198.842 102.589 199.034 102.383 199.167 101.998ZM198.532 104.126C198.546 104.347 198.399 104.864 198.103 105.662L197.896 105.676L197.852 105.115C198.133 104.465 198.369 104.14 198.532 104.126ZM186.611 138.719L186.597 138.557L186.981 138.527L187.025 139.089C186.818 139.103 186.67 138.985 186.611 138.719ZM203.642 139.162C203.628 139.029 203.569 138.97 203.436 138.985L202.475 139.074L202.461 138.882H202.549L204.824 138.69L204.839 138.882C204.174 138.911 203.775 139.015 203.642 139.162ZM202.505 138.69C202.594 138.734 202.549 138.778 202.505 138.808C202.461 138.793 202.402 138.749 202.505 138.69ZM202.623 136.031L201.353 136.134L201.338 135.942L202.49 135.839L203.495 135.588C203.509 135.706 203.569 135.75 203.701 135.736C204.898 135.529 204.78 135.47 205.356 135.425C205.548 135.411 205.666 135.529 205.681 135.765L202.623 136.031ZM207.069 135.647C206.36 135.573 206.316 135.514 205.814 135.558L205.799 135.396L206.936 135.292L206.951 135.455C206.833 135.47 207.261 135.499 207.069 135.647ZM207.158 135.44L207.143 135.278L207.764 135.219L207.778 135.381L207.158 135.44ZM208.532 135.322L208.517 135.159C208.62 135.145 208.768 135.071 208.96 134.923C209.27 134.894 209.433 135.1 209.462 135.337L208.532 135.322ZM210.289 135.1L210.275 134.908L211.028 134.849L211.043 135.041L210.289 135.1ZM211.338 135.012C211.323 134.79 211.412 134.657 211.604 134.628L211.855 134.953C211.84 134.849 211.885 134.79 211.973 134.775L212.165 135.13L211.338 135.012ZM200.186 139.827L200.156 139.458L200.038 139.473L200.068 139.842L200.186 139.827ZM226.139 133.106C226.257 133.032 226.316 132.959 226.035 132.914C225.902 133.062 226.183 133.106 225.888 133.121L225.902 133.254C225.932 133.224 226.006 133.18 226.065 133.136L225.902 133.269V133.284L225.592 133.682L226.213 133.461H226.286L226.257 133.092L226.139 133.106ZM227.217 133.948L227.099 133.963L227.128 134.332L228 134.258C227.985 134.022 227.409 133.948 227.217 133.948ZM225.873 133.298L225.888 133.284V133.269C225.888 133.269 225.873 133.284 225.873 133.298Z" fill="black"/>
<path d="M169.167 105.957L169.182 106.193L169.669 106.149C169.654 106.001 169.713 105.765 169.817 105.47L169.773 105.041C169.566 105.056 169.359 105.366 169.167 105.957ZM164.499 94.7312L164.455 94.3028L163.761 94.3619L163.805 94.7903L164.499 94.7312ZM150.954 120.093C150.925 119.694 149.684 118.143 147.232 115.411C147.188 114.908 148.03 114.155 149.758 113.165L154.691 108.867C155.799 107.464 156.449 105.189 156.641 102.028L156.582 101.304C156.39 99.1182 154.809 97.3604 151.811 96.0162C150.038 94.8198 146.848 94.1551 142.239 94.0369C138.428 94.3619 133.451 95.7208 127.321 98.1285C125.637 99.3397 123.716 100.551 121.56 101.762L121.589 102.131C121.722 102.117 121.929 102.043 122.165 101.88C122.417 101.851 122.564 101.969 122.579 102.205L122.948 102.013L123.126 101.999L123.14 102.161C123.155 102.353 121.826 103.402 119.137 105.278L119.344 105.662L119.167 105.677L118.724 105.514C118.739 105.647 118.547 105.736 118.177 105.765L118.192 105.928L118.62 106.459C118.487 106.474 118.281 106.415 118 106.312C117.38 106.371 116.774 106.696 116.168 107.316L116.419 106.223C117.321 102.338 117.941 98.8966 118.266 95.9129L118.222 95.7208C117.601 95.322 116.996 94.7607 116.434 94.0517C116.449 93.5938 116.449 93.3279 116.434 93.2688L116.39 93.1064L116.213 93.1507C114.263 96.0753 110.511 101.068 104.942 108.129C100.703 113.151 98.517 115.942 98.384 116.504C96.6558 118.291 95.8287 119.369 95.9173 119.739C95.4594 120.034 95.2674 120.329 95.3412 120.654C95.2083 120.684 95.1196 120.64 95.0901 120.507C94.3516 121.703 93.2585 122.471 91.7962 122.811L90.26 123.165C90.0532 123.21 89.9498 123.357 89.9645 123.609L90.0089 123.801L90.5849 123.668L90.6292 123.83L89.3294 124.332L87.0251 124.864L85.8139 124.938C85.6366 125.115 86.774 124.923 86.3309 125.027L84.8242 125.381C83.9084 125.588 83.4062 125.514 83.3176 125.145L83.1403 125.189C83.1699 125.352 83.1846 125.47 83.1551 125.573L83.0665 125.204L81.8552 125.484C81.7666 124.923 80.127 122.885 76.9513 119.369C76.8922 118.69 78.0148 117.7 80.3043 116.415L86.774 110.728C88.2216 108.867 89.0783 105.883 89.3589 101.777L89.2703 100.817C89.0192 97.9217 86.9217 95.5879 82.9778 93.7858C80.644 92.2053 76.449 91.3634 70.3929 91.2304C65.3708 91.6588 58.8124 93.4461 50.7474 96.5628C48.5318 98.1728 46.0059 99.7681 43.1699 101.349L43.2142 101.851C43.4062 101.836 43.6573 101.733 43.9675 101.555C44.2925 101.526 44.4697 101.674 44.4993 101.969L45.0015 101.688L45.2526 101.674L45.2674 101.91C45.2821 102.146 43.5244 103.52 39.9645 106.031L40.2452 106.474L39.9941 106.489L39.4476 106.297C39.4623 106.445 39.2112 106.548 38.6942 106.592L38.7238 106.858L39.3146 107.508C39.1226 107.523 38.8567 107.464 38.517 107.346C37.3648 107.449 36.2422 108.276 35.1344 109.842L35.4151 110.285C36.3752 109.399 36.9365 108.956 37.099 108.941L37.1581 109.665C36.9956 109.679 36.7445 109.783 36.4047 109.96L37.0103 110.876C38.1773 109.62 39.4623 108.542 40.8656 107.641C41.5598 107.818 41.9291 108.04 41.9439 108.276L42.4756 108.232C46.2866 105.411 50.0532 103.372 53.7902 102.117L53.8346 102.619C53.1403 103.653 52.6677 104.185 52.4165 104.214C52.4461 104.569 52.5643 104.879 52.7858 105.145C52.8449 105.78 51.1462 110.064 47.7046 117.981C39.8907 136.386 33.3323 150.004 28 158.808C28.0148 158.985 28.1182 159.222 28.3102 159.517C29.6248 159.207 30.452 158.882 30.8065 158.572L31.0872 158.542L31.1315 159.044L31.6189 159L32.1211 158.719C32.1359 158.867 32.2984 158.941 32.6381 158.911L32.6824 159.414C32.7267 159.901 32.4461 160.64 31.8552 161.659C31.3235 162.264 30.7474 163.535 30.1418 165.47L30.1566 165.706L30.644 165.662C32.7711 163.284 34.3811 160.95 35.4889 158.675C41.6928 156.858 46.4195 155.071 49.6987 153.313C52.9926 153.032 55.5037 152.161 57.2171 150.728L57.1876 150.462L55.9468 150.832L55.6662 150.861L55.6366 150.595C58.0591 150.226 59.7282 149.694 60.6588 148.956C65.3708 145.322 68.9306 142.752 71.3383 141.23C76.2866 137.597 79.5066 134.052 80.969 130.61C81.2349 130.551 81.5007 130.492 81.7962 130.418C82.4904 130.388 82.8744 130.374 82.9778 130.344C82.9483 130.211 83.0074 130.137 83.1403 130.108C84.2482 129.99 83.7164 130.182 84.4254 130.019L86.2866 129.591L86.5968 129.517L86.449 129.606C86.6558 129.635 86.8774 129.62 87.1285 129.561L87.2614 130.108L78.7976 143.564L76.9217 145.913L76.0059 148.985L76.1832 148.941L77.099 148.557L76.8035 149.753L76.8922 150.108L77.1433 150.418C77.0251 150.448 76.9808 150.521 77.0103 150.654L77.0546 150.846L77.4387 150.758C78 150.27 78.2363 149.827 78.1477 149.428C78.7533 149.532 79.1521 149.576 79.3589 149.517L79.4032 149.709C79.034 149.798 78.8419 150.093 78.8124 150.595L78.8567 150.787L79.0635 150.743C82.1359 147.39 89.6691 135.913 95.7105 128.129C95.5185 127.287 98.6647 126.12 105.164 124.613L105.371 124.569C105.607 125.588 105.105 128.055 103.864 131.969C103.066 134.332 102.682 135.632 102.742 135.839C101.708 138.985 101.22 140.684 101.279 140.95L98.9749 148.498C97.483 152.368 96.3456 156.43 95.548 160.713C95.6809 160.684 95.8877 160.699 96.1832 160.773L96.5081 160.492C96.5377 160.625 96.6263 160.669 96.7592 160.64L96.6263 160.093L97.6307 160.064C97.9261 159.99 98.1773 159.62 98.384 158.941C98.3397 157.922 98.5465 157.375 99.0044 157.257C99.6248 154.835 100.009 153.623 100.142 153.579C100.718 151.171 101.146 149.798 101.427 149.458C102.298 146.326 102.934 144.716 103.347 144.613L103.436 144.997L102.801 146.637C101.693 151.555 100.57 155.44 99.4328 158.291L99.7578 159.709L99.9646 159.665C102.712 153.756 106.671 142.058 111.826 124.569C111.973 123.032 112.712 121.836 114.027 120.994L113.731 120.684L113.687 120.521C114.278 120.388 114.691 120.152 114.928 119.827C114.898 119.694 114.381 119.502 113.377 119.236L115.947 108.217C116.508 107.715 116.833 107.449 116.936 107.449L116.981 108.01C116.848 108.025 116.641 108.099 116.405 108.261L116.892 108.956C117.778 107.996 118.739 107.168 119.787 106.474C120.319 106.622 120.585 106.799 120.614 106.976L120.999 106.947C123.923 104.805 126.789 103.269 129.61 102.338L129.64 102.708C129.123 103.49 128.768 103.889 128.576 103.904C128.606 104.17 128.679 104.406 128.812 104.613C128.857 105.1 127.586 108.35 124.987 114.377C119.049 128.335 114.071 138.66 110.024 145.366C110.038 145.499 110.127 145.677 110.29 145.913C111.279 145.677 111.914 145.425 112.165 145.189L112.343 145.174L112.372 145.544L112.786 145.514L113.155 145.322C113.17 145.425 113.303 145.47 113.554 145.455L113.583 145.854C113.613 146.208 113.406 146.77 112.948 147.538C112.52 147.996 112.077 148.956 111.604 150.418L111.619 150.61L112.003 150.581C113.613 148.778 114.839 147.006 115.681 145.263C120.393 143.874 123.982 142.53 126.464 141.201C128.99 140.979 130.895 140.329 132.195 139.236L132.18 139.044L131.22 139.325L131.013 139.34L130.999 139.148C132.83 138.882 134.115 138.468 134.809 137.922C138.384 135.174 141.087 133.21 142.919 132.058C148.62 127.907 151.279 123.919 150.954 120.093ZM149.979 120.344L150.112 121.836C149.935 122.205 149.743 122.397 149.566 122.412L149.344 119.871C149.758 120.019 149.965 120.167 149.979 120.344ZM38.1329 108.321L37.8818 108.335L37.8375 107.877L38.8567 107.789L38.8715 108.025C38.709 108.04 38.4579 108.129 38.1329 108.321ZM33.1551 158.114C32.5643 157.848 32.0325 157.744 31.5746 157.789L31.5155 157.065C31.486 156.784 31.6484 156.592 32.003 156.518C32.3279 156.489 32.5199 156.725 32.5495 157.198C33.4062 156.149 33.8789 155.617 33.9675 155.603L34.514 155.824C34.3368 157.301 33.8789 158.055 33.1551 158.114ZM86.3456 102.471C86.0945 102.501 85.5923 101.718 84.8685 100.167L84.8242 99.709C85.2969 99.6647 85.7843 100.433 86.3013 102.013L86.3456 102.471ZM85.6366 96.9616L85.4298 97.449L78.2068 94.4357C83.0222 94.5982 85.5037 95.4402 85.6366 96.9616ZM55.1344 123.151L54.1152 123.239L54.0709 122.781L55.0901 122.693L55.1344 123.151ZM54.3072 107.419L54.5583 107.405L54.6174 108.129C54.3811 108.143 54.0709 108.498 53.6869 109.177L53.6425 108.675C54.1004 108.129 54.3368 107.715 54.3072 107.419ZM52.1654 112.471L52.2541 113.431L52.003 113.446L51.9143 112.486L52.1654 112.471ZM51.0428 114.273L51.5303 114.229C51.486 115.027 51.2644 115.455 50.8656 115.484L50.6145 115.499C50.9247 114.968 51.0724 114.554 51.0428 114.273ZM50.2009 116.784L50.4815 116.755L50.4963 116.991L50.0384 117.759L49.551 117.804L49.5362 117.567C50.0236 117.523 50.2452 117.272 50.2009 116.784ZM49.3737 119.044L49.226 120.256L48.9749 120.27L48.8715 119.074L49.3737 119.044ZM41.0872 142.604C40.7622 144.258 40.4077 145.1 40.0384 145.13L40.0236 144.894C39.935 144.081 40.2895 143.313 41.0872 142.604ZM39.5657 145.898L39.5805 146.134C39.61 146.459 39.4623 146.651 39.1374 146.666L39.1226 146.43C39.0931 146.149 39.2408 145.972 39.5657 145.898ZM39.1226 152.737L39.8907 152.663L39.9202 152.929C39.7282 152.944 39.4771 153.047 39.1669 153.225L38.6795 153.269C38.6499 153.018 38.8124 152.826 39.1226 152.737ZM60.9838 145.987C56.6706 148.114 54.13 149.561 53.3767 150.315C48.709 151.939 46.39 152.944 46.4343 153.343C42.2836 154.982 39.551 156.194 38.2363 156.947C37.9261 156.976 37.483 156.858 36.8922 156.592C36.8183 155.75 37.2024 155.071 38.0148 154.524C38.7386 154.465 39.4328 154.569 40.0975 154.849C40.8656 154.451 42.2097 154.007 44.1152 153.535L44.0709 153.032L42.5347 153.165C42.7267 152.9 44.2038 152.205 46.9808 151.083L47.7489 151.009L47.7637 151.245C46.449 151.363 45.7253 151.747 45.5628 152.442C45.5923 152.752 45.7696 152.885 46.0945 152.855C47.0842 152.235 47.5716 151.866 47.5569 151.762C49.4328 151.408 54.6174 148.69 63.1108 143.623L63.1551 144.081C63.1699 144.303 62.4461 144.923 60.9838 145.987ZM47.9557 150.27C49.1965 150.167 50.26 149.665 51.1462 148.793C51.5007 148.764 51.6928 148.897 51.7075 149.207C51.1019 149.266 49.935 149.768 48.2363 150.743L47.9852 150.758L47.9557 150.27ZM68.9749 134.126L62.4609 139.295C57.616 142.471 55.0162 144.066 54.6322 144.096C46.9217 148.335 42.1211 150.536 40.26 150.699L39.9793 150.728C40.2157 149.857 43.6425 142.84 50.2895 129.635C53.2142 129.384 57.8227 128.025 64.1004 125.544L65.6366 125.411C68.8124 125.13 71.1905 125.75 72.7563 127.227L72.8449 128.188C71.678 131.57 70.3781 133.549 68.9749 134.126ZM56.2422 126.962L57.291 126.873L57.3058 127.109L56.257 127.198L56.2422 126.962ZM70.969 124.465L71.7371 124.391C72.4461 124.731 72.8154 125.027 72.8449 125.292L72.8597 125.529C72.1802 125.588 71.5451 125.233 70.969 124.465ZM73.0517 112.604C72.3722 113.417 70.5111 114.805 67.4682 116.755C66.4638 116.843 62.7267 118.291 56.257 121.127C55.9321 120.979 55.5923 120.92 55.223 120.95L55.1787 120.492C55.1049 119.561 55.5185 118.394 56.4343 116.976C56.9365 114.318 57.483 112.796 58.0886 112.427L63.4801 100.3C63.421 99.5465 64.5731 98.9705 66.9365 98.5716L67.7046 98.4978L67.7637 99.192C70.0827 98.8375 71.5303 98.6307 72.0916 98.5864C76.3752 98.2171 78.6056 99.0886 78.7829 101.171L79.2703 101.127L79.1669 99.901L79.6987 99.8567C80.9542 100.551 81.6337 101.393 81.7223 102.383C81.7814 103.062 81.4121 103.904 80.6292 104.908C80.3043 104.938 80.1123 104.702 80.0827 104.229L79.551 104.273L79.4328 105.75C77.2614 109 75.6809 110.669 74.7061 110.758C73.8198 111.984 73.2733 112.589 73.0517 112.604ZM76.3604 121.097C75.9173 120.802 75.5628 120.669 75.2969 120.684L75.2378 119.96L75.7253 119.916L76.8035 120.551C76.8479 120.891 76.7002 121.068 76.3604 121.097ZM79.7873 125.16C80.26 125.352 80.5406 125.558 80.5997 125.75L80.3634 125.809L80.3781 125.824C80.3338 125.824 80.2747 125.839 80.2304 125.854L79.8759 126.134L79.7873 125.16ZM80.1123 127.198L80.0679 127.006L80.6883 126.858L80.7326 127.05L80.1123 127.198ZM81.6041 128.867C82.2393 128.764 82.5495 128.719 83.7312 128.453L83.7755 128.645L81.5303 129.162C81.5598 129.059 81.5894 128.956 81.6041 128.867ZM83.7903 129.798C82.8449 129.886 83.0517 129.768 81.5451 130.108L81.5007 129.916L83.3914 129.31L84.2925 129.103L84.3811 129.458C83.9675 129.547 84.2629 129.547 83.7903 129.798ZM85.7843 129.325C85.5628 129.384 85.3855 129.281 85.2821 129.03L85.8582 128.897C86.1093 128.838 86.2718 128.941 86.3309 129.192L85.7843 129.325ZM91.1905 123.505L91.1462 123.313L92.0768 123.092L92.1654 123.446L91.1905 123.505ZM96.966 158.926C97.0251 158.66 97.0399 158.468 97.0103 158.335L97.2171 158.291C97.4682 158.232 97.616 158.321 97.675 158.557L97.7193 158.749L96.966 158.926ZM101.013 125.027L100.6 124.953C99.935 125.219 99.3737 125.411 98.9158 125.514L98.5318 125.603C98.3102 125.662 98.1329 125.573 98.0443 125.337L100.747 124.716L101.634 124.303L101.929 124.643C101.501 124.731 101.191 124.864 101.013 125.027ZM103.096 124.362L103.052 124.17C103.185 124.14 103.362 124.037 103.554 123.845L105.474 123.402L105.518 123.594C104.499 123.845 103.687 124.096 103.096 124.362ZM103.391 120.477C103.258 120.507 103.081 120.625 102.86 120.802C102.83 120.669 102.564 120.669 102.062 120.787C101.973 120.418 103.391 119.901 106.331 119.222L106.744 119.133L106.833 119.487C104.765 120.093 103.613 120.433 103.391 120.477ZM108.561 114.894C108.354 117.242 107.527 118.572 106.065 118.911L106.021 118.719L104.721 119.222L104.145 119.355C103.849 119.428 103.583 119.414 103.347 119.34L103.229 118.823C103.185 118.631 105.061 116.031 108.871 111.038L109.315 111.112C109.477 111.792 109.226 113.047 108.561 114.894ZM117.705 107.065L117.527 107.08L117.498 106.71L118.266 106.637L118.281 106.829C118.148 106.858 117.956 106.932 117.705 107.065ZM113.938 144.894C113.495 144.687 113.096 144.598 112.756 144.628L112.712 144.066C112.697 143.874 112.815 143.742 113.066 143.668C113.318 143.638 113.465 143.815 113.495 144.199C114.13 143.387 114.484 142.973 114.558 142.973L114.957 143.136C114.809 144.258 114.47 144.849 113.938 144.894ZM154.322 102.648C154.13 102.663 153.761 102.072 153.185 100.876L153.155 100.507C153.524 100.477 153.908 101.053 154.292 102.235L154.322 102.648ZM153.79 98.4239L153.613 98.808L148.148 96.5185C151.796 96.6366 153.687 97.2718 153.79 98.4239ZM130.614 118.321L129.846 118.394L129.817 118.025L130.585 117.951L130.614 118.321ZM129.979 106.371L130.186 106.356L130.23 106.917C130.038 106.932 129.802 107.198 129.521 107.715L129.492 107.346C129.832 106.917 129.994 106.592 129.979 106.371ZM128.369 110.211L128.428 110.935L128.222 110.95L128.162 110.226L128.369 110.211ZM127.498 111.585L127.882 111.555C127.838 112.176 127.675 112.501 127.394 112.53L127.188 112.545C127.409 112.131 127.513 111.806 127.498 111.585ZM126.877 113.476L127.055 113.461L127.069 113.653L126.73 114.244L126.346 114.273L126.331 114.081C126.73 114.052 126.907 113.845 126.877 113.476ZM126.257 115.189L126.124 116.134L125.947 116.149L125.873 115.219L126.257 115.189ZM119.95 133.106C119.699 134.347 119.433 134.982 119.152 135.012L119.137 134.849C119.093 134.229 119.359 133.638 119.95 133.106ZM118.783 135.603L118.798 135.765C118.827 136.031 118.709 136.179 118.443 136.194L118.428 136.001C118.414 135.809 118.532 135.677 118.783 135.603ZM118.458 140.802L119.049 140.758L119.064 140.95C118.931 140.965 118.724 141.038 118.487 141.171L118.103 141.201C118.089 140.994 118.207 140.861 118.458 140.802ZM135.046 135.677C131.796 137.287 129.861 138.38 129.256 138.941C125.71 140.182 123.953 140.95 123.982 141.26C120.836 142.516 118.768 143.417 117.793 143.993C117.557 144.007 117.217 143.919 116.774 143.712C116.715 143.077 117.01 142.56 117.631 142.176C118.192 142.131 118.724 142.205 119.211 142.412C119.802 142.117 120.821 141.792 122.269 141.422L122.239 141.053L121.043 141.157C121.191 140.95 122.328 140.418 124.44 139.561L125.031 139.517L125.046 139.679C124.041 139.768 123.48 140.064 123.362 140.595C123.377 140.832 123.524 140.95 123.775 140.92C124.514 140.433 124.869 140.152 124.869 140.064C126.287 139.812 130.216 137.744 136.671 133.874L136.7 134.244C136.7 134.391 136.154 134.864 135.046 135.677ZM125.149 138.926C126.109 138.838 126.922 138.468 127.601 137.818C127.852 137.804 128 137.907 128.015 138.143C127.572 138.188 126.7 138.557 125.386 139.266L125.179 139.281L125.149 138.926ZM141.131 126.651L136.213 130.61C132.535 133.018 130.541 134.229 130.23 134.258C124.381 137.479 120.747 139.148 119.315 139.266L119.108 139.281C119.285 138.616 121.9 133.284 126.951 123.269C129.152 123.077 132.638 122.028 137.424 120.137L138.62 120.034C141.028 119.827 142.83 120.3 144.012 121.437L144.071 122.161C143.17 124.702 142.195 126.193 141.131 126.651ZM131.471 121.216L132.239 121.142L132.254 121.334L131.486 121.408L131.471 121.216ZM142.653 119.31L143.244 119.266C143.79 119.532 144.071 119.768 144.086 119.96L144.1 120.123C143.583 120.167 143.096 119.901 142.653 119.31ZM144.204 110.315C143.687 110.935 142.284 111.999 139.994 113.476C139.226 113.549 136.39 114.643 131.486 116.77C131.25 116.681 130.984 116.651 130.703 116.666L130.674 116.297C130.614 115.588 130.925 114.702 131.604 113.623C131.988 111.585 132.417 110.448 132.86 110.182L136.981 100.965C136.936 100.418 137.808 99.9749 139.58 99.6352L140.171 99.5908L140.216 100.152C141.959 99.8715 143.052 99.709 143.495 99.6647C146.744 99.384 148.443 100.034 148.576 101.629L148.96 101.6L148.886 100.713L149.27 100.684C150.216 101.201 150.718 101.821 150.777 102.56C150.821 103.092 150.555 103.742 149.994 104.495C149.743 104.524 149.595 104.347 149.566 103.963L149.182 103.993L149.064 105.1C147.424 107.597 146.227 108.882 145.474 108.941C144.809 109.842 144.396 110.3 144.204 110.315ZM145.932 116.459L145.888 115.898L146.272 115.869L147.099 116.371C147.114 116.607 146.996 116.74 146.744 116.77C146.39 116.548 146.124 116.445 145.932 116.459ZM77.1728 152.338L76.7888 152.427L76.4638 152.708C76.5229 152.944 76.6706 153.032 76.9217 152.973C77.1728 152.914 77.2762 152.767 77.2171 152.53L77.1728 152.338ZM75.7105 149.428L75.7548 149.62C76.0059 149.561 76.1093 149.414 76.0502 149.177L76.0059 148.985C75.7696 149.044 75.6662 149.192 75.7105 149.428ZM86.1684 129.783L86.449 129.606C86.39 129.606 86.3456 129.591 86.3013 129.576C86.1979 129.606 86.1536 129.679 86.1684 129.783ZM86.1093 124.687L86.5524 124.583L86.4638 124.199L86.0207 124.303L86.1093 124.687ZM190.496 139.606L189.492 139.487L189.315 139.871L189.329 140.064L195.312 139.561L195.282 139.192L190.496 139.606ZM195.962 139.148L195.991 139.517H196.05L196.021 139.148H195.962ZM221.058 135.869L221.087 136.238L221.737 136.356L221.708 135.987L221.058 135.869ZM220.142 135.942C215.651 136.947 215.09 136.77 214.145 136.843L214.174 137.213L214.588 137.183L214.809 137.168L214.75 137.124L215.238 136.932C219.684 136.445 220.201 136.622 220.157 136.12L220.142 135.942ZM193.185 129.414L192.786 129.281C192.461 130.152 192.298 130.669 192.313 130.817L192.328 130.979C192.638 130.965 192.919 130.433 193.185 129.414ZM187.778 126.504L187.764 126.312L187.557 126.326L187.188 126.563L187.394 126.917C187.675 126.888 187.808 126.755 187.778 126.504ZM199.521 138.645L199.492 138.276L199.374 138.291L199.403 138.66L199.521 138.645ZM223.894 133.151L224.174 133.121C224.337 133.106 224.411 132.973 224.396 132.737L224.233 132.383C223.214 132.471 222.742 132.516 221.914 132.973L221.9 132.781L220.674 132.9C220.644 132.53 220.541 132.338 220.378 132.353L219.743 132.412C219.004 132.471 218.65 132.442 218.281 132.722C218.266 132.589 218.222 132.53 218.148 132.53L217.439 132.589L217.025 132.826C217.01 132.693 216.966 132.634 216.892 132.634L216.641 132.855L216.626 132.663L215.637 132.589L215.4 132.604L215.43 132.973L215.932 133.106L216.405 133.077C216.567 133.18 216.744 133.21 216.951 133.195L217.365 132.988L217.38 133.151C215.061 133.727 215.075 133.623 213.48 133.889C213.303 133.771 213.17 133.712 213.081 133.727L213.052 133.756C212.874 133.742 212.771 133.623 212.756 133.431L213.583 133.328C213.643 133.328 213.687 133.387 214.145 133.476C214.809 133.151 214.839 133.018 215.194 132.988L215.164 132.619C212.889 133.062 213.805 132.767 210.954 133.018L210.821 133.032L210.792 132.663C214.455 132.22 213.229 132.471 214.484 132.117C214.499 132.25 214.544 132.309 214.617 132.309C214.765 132.161 214.928 132.087 215.12 132.058L215.371 132.043C216.656 131.939 217.084 132.191 219.625 131.482L219.64 131.644L220.053 131.437L220.437 131.408C220.408 131.038 220.969 130.979 221.161 130.965L221.131 130.566C216.671 131.467 215.504 131.216 214.263 131.57L214.248 131.408C213.081 131.614 213.037 131.526 212.742 131.541C212.653 131.555 212.52 131.629 212.372 131.777C212.357 131.644 212.313 131.585 212.225 131.585C212.18 131.585 212.165 131.6 212.151 131.6L208.369 132.22C208.355 132.117 208.31 132.058 208.222 132.072C206.257 132.486 206.789 132.56 204.16 132.796C204.041 132.811 203.879 132.87 203.672 133.003C203.657 132.9 203.598 132.84 203.465 132.855L201.855 132.988L200.777 133.254C200.762 133.151 200.703 133.092 200.57 133.106C199.965 133.269 199.433 133.372 199.004 133.402H198.975C198.709 133.431 199.108 133.328 198.901 133.239L198.576 133.431C198.103 133.476 198.355 133.402 196.73 133.417C193.879 133.771 194.189 133.815 193.879 133.83L192.815 133.756C192.83 133.86 192.771 133.934 192.653 133.934C191.442 133.771 190.821 133.579 190.807 133.357C190.969 132.205 191.25 131.614 191.648 131.585L191.855 131.57L191.678 131.954L191.885 131.939C192.269 131.733 192.446 131.541 192.431 131.363L192.402 130.965L192.018 130.994L191.988 130.625C191.959 130.344 192.003 130.093 192.106 129.886L192.978 128.483L193.007 128.852L193.421 128.823L193.391 128.453L193.155 128.114C193.465 127.848 193.702 127.7 193.894 127.685L193.879 127.493L193.318 127.538L193.273 126.976C194.396 124.643 194.928 123.284 194.898 122.9L195.297 123.062C195.548 123.047 195.666 122.9 195.651 122.634L195.267 122.663L195.253 122.501C195.223 122.22 195.282 121.954 195.4 121.718C196.006 121.083 196.287 120.448 196.227 119.783C196.346 119.768 196.405 119.827 196.42 119.96C196.936 119.665 197.335 118.882 197.631 117.582C198.547 115.928 199.846 112.619 201.545 107.671C204.795 98.9261 204.662 97.9956 205.12 95.9276L204.736 95.9572C204.765 96.223 204.706 96.4742 204.588 96.7105C204.322 96.6071 204.115 96.548 203.968 96.5628L203.953 96.4003C203.894 95.647 204.204 94.7459 204.913 93.6824L205.09 93.6677L205.415 94.938L205.799 94.9084C205.784 94.8198 205.888 94.3176 206.095 93.387C206.08 93.195 205.932 93.0768 205.637 93.062L205.267 93.2984C205.238 93.0325 205.253 92.3383 205.297 91.2304L205.105 91.2452C204.78 90.9202 204.617 90.6544 204.603 90.4328L202.49 90.6396C202.476 90.4919 202.402 90.2703 202.254 89.9897C202.239 89.7976 202.712 89.6056 203.687 89.4136L204.115 89.5761L204.514 89.3397C204.529 89.4727 204.603 89.5318 204.75 89.517L205.149 89.2807C205.164 89.4136 205.238 89.4727 205.386 89.4579L205.578 89.4431L205.548 89.0148C205.253 89.0443 204.47 89.0443 203.229 89L202.83 89.2659L202.815 89.0295C192.904 89.8419 187.276 90.2999 185.932 90.4328C185.755 90.4476 185.061 90.4328 183.835 90.4032C183.849 90.5657 183.702 90.6544 183.406 90.6839L182.978 90.4919L181.53 90.8612C181.191 90.8907 180.614 90.8759 179.817 90.7873C179.595 90.9645 179.329 91.0679 179.004 91.0975C178.827 91.1123 181.117 90.9793 183.244 90.8316C183.022 91.0089 182.682 91.1123 182.21 91.1566C181.885 91.1861 181.604 91.1418 181.368 91.0089C181.043 91.1566 179.994 91.3929 178.236 91.7474L177.808 91.5849L170.895 92.6484C170.629 92.5155 170.319 92.4712 169.965 92.5007C169.595 92.5303 168.975 92.6632 168.118 92.8996L164.78 94.288L165.031 94.7016C165.194 94.6869 165.43 94.5982 165.71 94.4357L166.892 94.5391L166.744 95.647C165.651 96.1344 165.016 96.8582 164.839 97.774C163.199 98.4978 162.387 99.0148 162.387 99.325L162.402 99.517L162.653 99.5022L163.096 99.2659L163.613 99.8863L163.687 100.743C163.716 101.009 160.954 106.814 155.43 118.158C150.644 129.089 148.133 135.071 147.897 136.149C146.257 136.607 145.312 137.272 145.031 138.158C145.061 138.439 145.548 138.631 146.493 138.705L146.538 139.133L146.109 139.842L146.183 140.699C146.227 141.142 147.424 141.482 149.773 141.718C149.758 141.57 149.832 141.482 149.994 141.467C150.038 141.999 149.891 143.032 149.551 144.569L149.802 144.554C150.777 143.225 151.235 142.309 151.191 141.806L151.397 141.792C151.634 141.777 151.885 142.043 152.18 142.619C151.885 142.737 150.851 145.086 149.078 149.679L149.329 150.093L149.58 150.078C151.752 144.583 153.111 141.541 153.672 140.965C156.523 140.713 161.456 140.211 168.458 139.458L168.901 139.192C168.916 139.34 169.004 139.414 169.167 139.399L169.625 139.355L170.068 139.089C170.083 139.236 170.171 139.31 170.334 139.295L175.637 138.838C177.04 138.719 177.705 138.291 177.646 137.567C177.631 137.375 178.458 137.154 180.127 136.917C180.29 136.903 180.526 136.947 180.851 137.05C180.836 136.917 181.678 136.784 183.362 136.637C183.406 135.75 183.687 135.278 184.189 135.233L184.145 134.805C183.672 134.849 183.14 134.968 182.52 135.174C181.412 135.115 180.703 135.027 180.408 134.923C180.112 135.086 179.891 135.174 179.728 135.189L176.035 135.307L175.592 135.544C175.578 135.411 175.489 135.352 175.326 135.366L175.12 135.381L174.647 135.617C174.632 135.484 174.248 135.381 173.48 135.278L173.007 135.558L172.092 135.632L172.077 135.396C176.833 134.879 179.182 134.229 179.123 133.461C179.433 133.431 179.595 133.579 179.625 133.889L181.013 133.535L180.969 133.106L169.58 133.417C169.595 133.564 169.521 133.653 169.359 133.668L167.97 133.549C167.616 133.579 167.321 133.682 167.084 133.86L166.567 133.668C165.134 133.786 164.071 133.963 163.362 134.185C162.387 134.111 161.309 134.126 160.112 134.229L157.557 134.451L156.375 134.318C156.316 133.564 157.778 129.857 160.792 123.21C161.663 120.965 162.461 119.561 163.229 119.03C163.391 119.015 163.628 119.074 163.953 119.207L165.77 118.586L166.7 118.734C168.266 118.601 170.083 118.158 172.165 117.39C172.682 117.346 173.066 117.375 173.347 117.493L174.736 117.168L178.871 116.814C180.629 116.666 182.535 116.282 184.603 115.647L184.558 115.219C183.79 115.292 183.391 115.16 183.362 114.849C183.318 114.273 182.756 114.037 181.678 114.126L181.634 113.697L182.771 113.372L185.755 113.121L185.71 112.693C185.592 112.708 184.987 112.693 183.864 112.648L183.82 112.191L184.972 112.087C185.282 112.058 185.415 111.91 185.386 111.614C183.835 111.659 183.052 111.585 183.037 111.378C172.225 111.91 166.804 112.013 166.774 111.674C166.612 111.688 166.39 111.792 166.095 111.969L165.814 111.526C168.679 105.44 170.363 102.368 170.851 102.323C170.866 102.56 170.747 102.944 170.496 103.461L170.511 103.653L170.969 103.609C172.106 100.891 173.066 99.4874 173.864 99.4284C177.261 99.1329 173.391 98.9114 180.659 97.774C180.954 97.9069 181.161 97.966 181.309 97.9513C184.16 97.3752 188.133 96.7696 193.229 96.1492L193.199 95.7208L190.482 95.9719L190.452 95.5436C190.777 95.514 191.043 95.4106 191.264 95.2334L191.279 95.4697C191.427 95.4549 191.634 95.3516 191.9 95.1743C192.372 95.13 192.727 95.1743 192.978 95.3072C193.923 95.0561 194.691 94.9084 195.253 94.8493L196.951 94.6869C197.365 94.421 197.557 94.1846 197.542 93.9631L197.527 93.771C197.099 93.8154 196.612 93.7858 196.035 93.6824C196.021 93.4461 196.139 93.2836 196.42 93.2097L199.581 92.9143L201.028 92.5451C201.043 92.7075 201.117 92.7666 201.235 92.7666C201.383 92.7518 201.589 92.6484 201.855 92.4712C201.929 92.486 202.018 92.486 202.092 92.5007C201.9 92.8996 201.678 93.4756 201.456 94.229L201.043 94.2585C201.013 93.9778 200.939 93.7267 200.807 93.5052L200.6 93.5199C196.759 104.214 195.046 109.192 191.501 117.405C190.851 119.502 190.304 120.669 189.832 120.92C189.846 121.157 189.994 121.275 190.245 121.245C190.334 122.279 190.097 123.298 189.521 124.303C187.882 129.03 186.789 131.614 186.227 132.087L186.597 134.318C186.612 134.554 186.493 134.687 186.242 134.716L185.858 134.746C185.799 134.126 185.578 133.83 185.179 133.874L184.972 133.889C184.47 134.672 184.086 135.573 183.835 136.622L184.219 136.592C184.736 136.253 184.972 135.854 184.928 135.396L185.696 135.322L186.139 135.484C185.784 136.046 185.622 136.489 185.651 136.829L185.858 137.183L185.356 138.365L185.371 138.557C185.814 138.513 186.301 138.66 186.818 138.97C187.173 138.941 187.557 138.778 187.985 138.498C188.428 138.453 190.083 138.439 192.934 138.439L194.366 137.951C196.109 137.936 196.39 137.981 197.897 137.848L198.517 137.789L198.842 137.567L198.857 137.759C200.437 137.626 200.541 137.73 201.781 137.877L201.796 138.069L200.925 138.143L200.954 138.513C201.22 138.483 201.456 138.409 201.648 138.247C201.87 138.232 202.003 138.35 202.018 138.616C201.663 138.645 201.264 138.734 200.821 138.882L200.437 138.749C199.832 138.911 199.965 138.956 199.551 138.985L198.945 138.867C198.96 138.97 198.901 139.044 198.798 139.044C198.812 139.281 198.945 139.399 199.167 139.384L199.787 139.325L203.022 139.044L204.248 138.778C204.263 138.882 204.307 138.941 204.411 138.926L205.001 138.705L206.109 138.616C206.966 138.542 206.951 138.483 208.812 138.188C208.798 138.069 208.842 138.025 208.931 138.01L208.945 138.173C211.973 137.656 212.165 137.626 212.653 137.464L212.697 137.552C213.451 137.375 213.022 137.419 213.229 137.272C213.244 137.405 213.288 137.464 213.362 137.464L213.894 137.419L213.864 137.021L212.786 137.006L212.771 136.976C212.727 136.991 212.697 136.991 212.653 137.006H212.505V137.035C211.781 137.183 211.767 137.08 211.294 137.124L208.591 137.272L208.576 137.08L210.083 136.873L210.629 136.829L210.939 136.607L210.954 136.799C213.081 136.622 213.835 137.154 223.672 135.056C224.204 135.012 224.16 134.569 224.499 133.653C224.322 133.668 224.145 133.623 223.982 133.535C223.17 133.845 222.742 133.697 221.176 133.948C221.043 133.963 220.939 133.845 220.895 133.609L220.88 133.446L222.387 133.49C222.668 133.461 223.214 133.417 224.027 132.959C224.027 133.092 223.716 133.165 223.894 133.151ZM151.161 134.318L150.467 134.377C150.437 134.096 150.806 133.032 151.575 131.216L152.032 131.171C152.047 131.6 151.767 132.648 151.161 134.318ZM152.003 130.95L151.988 130.758C151.973 130.521 152.121 130.359 152.446 130.285L152.461 130.477C152.476 130.758 152.328 130.92 152.003 130.95ZM161.235 138.084L161.25 138.276L160.097 138.38L160.083 138.188L161.235 138.084ZM159.846 137.966C159.861 138.202 159.507 138.468 158.739 138.734L157.321 138.631L156.863 138.675L156.818 138.247L159.846 137.966ZM169.182 94.997L168.487 95.0561L168.473 94.8198C168.458 94.5835 168.591 94.421 168.886 94.3471L169.137 94.3323L169.61 94.5244C169.625 94.805 169.492 94.9675 169.182 94.997ZM179.743 92.9291L179.965 92.9143L179.994 93.3427L179.359 93.4018C179.344 93.1654 179.462 93.003 179.743 92.9291ZM177.084 93.8597L176.035 93.7415L176.021 93.5495C177.394 93.4313 177.852 93.2836 178.694 93.0473C178.709 93.2097 178.857 93.2688 179.123 93.2393L179.152 93.6677L178.739 93.712C178.414 93.7415 178.133 93.6972 177.897 93.5643C177.645 93.7267 177.38 93.8301 177.084 93.8597ZM178.399 97.6854L178.384 97.4934L180.083 97.3309L180.097 97.5229L178.399 97.6854ZM180.216 96.2083L180.201 95.9719L181.028 95.8981L181.043 96.1344L180.216 96.2083ZM180.408 93.3131L180.186 93.3279L180.378 92.87L182.269 92.6928L182.284 92.9291C181.796 92.9734 181.161 93.1064 180.408 93.3131ZM181.368 97.39L181.338 96.9616L182.165 96.8877C182.446 96.8582 182.594 96.9911 182.609 97.2866L181.368 97.39ZM186.375 90.5657L185.312 90.8612L185.12 90.8759C184.617 90.9202 183.968 90.9055 183.199 90.8316C184.573 90.743 185.888 90.6396 186.375 90.5657ZM185.238 95.2925L185.253 95.4845L183.79 95.6174L183.775 95.4254L185.238 95.2925ZM187.631 96.4298C187.616 96.2526 187.335 96.1344 186.759 96.0753L185.297 96.4889L184.174 96.5332C183.923 96.356 183.79 96.2378 183.775 96.1492L185.075 96.223L188 95.7504L189.492 95.8095L189.507 96.0458C188.768 96.1196 188.148 96.2526 187.631 96.4298ZM202.682 92.5451C202.86 92.5598 202.978 92.5598 203.022 92.5598C203.539 92.0576 204.115 91.6588 204.78 91.3781C204.248 93.712 203.421 95.4402 202.284 96.5628L201.456 96.0606C202.151 94.3028 202.564 93.1359 202.682 92.5451ZM200.142 96.9025L200.349 96.8877C200.068 97.4195 199.817 97.7001 199.61 97.7149L199.566 97.1536C199.699 97.1536 199.891 97.065 200.142 96.9025ZM198.502 100.817C198.901 99.2216 199.285 98.3205 199.64 98.0842L199.654 98.2762C199.448 99.7533 199.123 100.536 198.694 100.595L198.768 101.526C198.414 102.028 198.251 102.412 198.266 102.708L198.059 102.722L197.941 101.437C198.177 101.408 198.369 101.201 198.502 100.817ZM197.867 102.944C197.882 103.165 197.734 103.682 197.439 104.48L197.232 104.495L197.188 103.934C197.468 103.284 197.705 102.959 197.867 102.944ZM185.947 137.538L185.932 137.375L186.316 137.346L186.36 137.907C186.154 137.922 186.006 137.804 185.947 137.538ZM202.978 137.981C202.963 137.848 202.904 137.789 202.771 137.804L201.811 137.892L201.796 137.7H201.885L204.16 137.508L204.174 137.7C203.51 137.73 203.111 137.833 202.978 137.981ZM201.84 137.508C201.929 137.552 201.885 137.597 201.84 137.626C201.796 137.612 201.737 137.567 201.84 137.508ZM201.959 134.849L200.688 134.953L200.674 134.761L201.826 134.657L202.83 134.406C202.845 134.524 202.904 134.569 203.037 134.554C204.233 134.347 204.115 134.288 204.691 134.244C204.883 134.229 205.001 134.347 205.016 134.583L201.959 134.849ZM206.405 134.465C205.696 134.391 205.651 134.332 205.149 134.377L205.134 134.214L206.272 134.111L206.287 134.273C206.168 134.288 206.597 134.318 206.405 134.465ZM206.493 134.258L206.479 134.096L207.099 134.037L207.114 134.199L206.493 134.258ZM207.867 134.14L207.852 133.978C207.956 133.963 208.103 133.889 208.295 133.742C208.606 133.712 208.768 133.919 208.798 134.155L207.867 134.14ZM209.625 133.919L209.61 133.727L210.363 133.668L210.378 133.86L209.625 133.919ZM210.674 133.83C210.659 133.609 210.747 133.476 210.939 133.446L211.191 133.771C211.176 133.668 211.22 133.609 211.309 133.594L211.501 133.948L210.674 133.83ZM225.208 132.117L225.223 132.102V132.087C225.223 132.087 225.208 132.102 225.208 132.117ZM225.474 131.925C225.592 131.851 225.651 131.777 225.371 131.733C225.238 131.88 225.518 131.925 225.223 131.939L225.238 132.072C225.267 132.043 225.341 131.999 225.4 131.954L225.238 132.087V132.102L224.928 132.501L225.548 132.279H225.622L225.592 131.91L225.474 131.925ZM226.552 132.767L226.434 132.781L226.464 133.151L227.335 133.077C227.321 132.84 226.744 132.767 226.552 132.767Z" fill="#F9DC3E"/>
</svg>
