<svg width="256" height="256" version="1.1" viewBox="0 0 256 256" xmlns="http://www.w3.org/2000/svg">
 <rect width="256" height="256" rx="60" fill="#1769ff"/>
 <path id="behance" class="st1" d="m93.063 74.068c5.1318 0 9.8161 0.45701 14.053 1.3615 4.2368 0.90448 7.8548 2.3897 10.873 4.4558s5.3603 4.8082 7.0265 8.2357c1.6662 3.4276 2.4945 7.6549 2.4945 12.691 0 5.4365-1.2377 9.9685-3.7037 13.596-2.4659 3.6275-6.122 6.5981-10.949 8.9117 6.6456 1.9137 11.606 5.2651 14.881 10.045 3.2752 4.7795 4.9128 10.549 4.9128 17.3 0 5.4365-1.0568 10.149-3.1705 14.129-2.1137 3.9798-4.9604 7.2265-8.5403 9.74-3.5799 2.523-7.6549 4.3796-12.234 5.5888-4.6082 1.2092-9.3591 1.8185-14.12 1.809h-52.28v-107.86zm-3.0182 43.654c4.2273 0 7.7025-1.0092 10.426-3.0181 2.723-2.0185 4.0845-5.2842 4.075-9.8162 0-2.5136-0.45701-4.5796-1.3615-6.1887-0.90448-1.609-2.1136-2.8753-3.6275-3.7798-1.5139-0.90448-3.2467-1.5329-5.208-1.8851-2.0184-0.35232-4.0655-0.53318-6.122-0.52365h-22.193v25.231zm1.3615 45.767c2.2374 9e-3 4.4654-0.21893 6.6457-0.67592 2.1137-0.45701 3.9798-1.2092 5.5888-2.266 1.6091-1.0568 2.8944-2.4945 3.856-4.3035 0.95209-1.809 1.4377-4.1321 1.4377-6.9503 0-5.5317-1.5614-9.4925-4.6843-11.854-3.1229-2.3708-7.255-3.5514-12.387-3.5514h-25.83v29.61zm71.084-2.2659c3.2181 3.1229 7.8548 4.6843 13.901 4.6843 4.332 0 8.0548-1.0854 11.178-3.2467 3.1229-2.1612 5.0366-4.4558 5.7412-6.8742h18.88c-3.0182 9.3687-7.6549 16.062-13.901 20.089-6.2458 4.0274-13.796 6.0459-22.66 6.0459-6.141 0-11.682-0.98065-16.614-2.942-4.9319-1.9613-9.1116-4.7605-12.539-8.388-3.4276-3.6275-6.0744-7.95-7.931-12.987-1.8566-5.0366-2.7897-10.578-2.7897-16.614 0-5.8364 0.9521-11.273 2.8658-16.31 1.9137-5.0366 4.6367-9.3877 8.1595-13.063 3.5228-3.6751 7.7311-6.5695 12.615-8.6832 4.8843-2.1137 10.302-3.1705 16.243-3.1705 6.6457 0 12.434 1.2853 17.376 3.856 4.9319 2.5707 8.9878 6.0172 12.158 10.349 3.1705 4.3321 5.4651 9.264 6.8742 14.805 1.4091 5.5412 1.9137 11.33 1.5138 17.376h-56.345c0.29514 6.9218 2.0565 11.958 5.2746 15.072zm24.25-41.083c-2.5707-2.8182-6.4743-4.2273-11.711-4.2273-3.4276 0-6.2743 0.58072-8.5308 1.7328-2.266 1.1616-4.075 2.5898-5.4365 4.3036-1.3615 1.7137-2.3136 3.5227-2.8658 5.4365-0.55223 1.9137-0.88547 3.6275-0.98067 5.1318h34.894c-1.0188-5.427-2.8087-9.5591-5.3699-12.377zm-33.2-40.598h43.597v12.092h-43.597z" fill="#fff" stroke-width=".09521"/>
</svg>
