<svg width="256" height="256" viewBox="0 0 256 256" fill="none" xmlns="http://www.w3.org/2000/svg">
<rect width="256" height="256" rx="60" fill="#F4F2ED"/>
<mask id="path-2-inside-1_266_93" fill="white">
<path d="M200.778 121.534C200.761 121.534 200.745 121.534 200.728 121.534C199.684 124.801 198.876 128.35 198.723 132.392C198.434 139.983 199.205 144.602 198.331 149.519C197.458 154.436 194.875 159.276 188.305 166.866C180.484 175.9 168.09 182.891 153.775 185.254C151.11 186.955 148.298 188.514 145.339 189.901C156.482 194.096 168.135 194.324 177.373 191.293C193.647 185.952 192.387 182.116 199.679 170.942C201.977 167.421 204.629 164.734 207.293 162.527C214.882 165.836 222.357 167.961 227.014 167.434C229.518 161.629 226.953 154.897 222.691 148.533C226.187 137.673 220.882 126.799 209.132 122.954C206.067 121.952 203.313 121.48 200.778 121.529L200.778 121.534ZM209.592 137.479C210.238 137.465 210.877 137.591 211.465 137.848C212.052 138.105 212.575 138.486 212.997 138.966C213.382 139.404 213.676 139.914 213.861 140.469C214.046 141.024 214.119 141.611 214.075 142.198C214.032 142.785 213.873 143.36 213.609 143.889C213.344 144.419 212.978 144.894 212.531 145.286C211.631 146.078 210.458 146.486 209.272 146.421C208.086 146.355 206.983 145.822 206.205 144.938C205.82 144.501 205.527 143.99 205.342 143.435C205.157 142.881 205.084 142.293 205.128 141.707C205.171 141.12 205.329 140.545 205.594 140.015C205.859 139.485 206.225 139.011 206.671 138.619C207.483 137.905 208.52 137.501 209.592 137.479ZM136.767 185.811C136.902 185.891 137.041 185.961 137.177 186.04C137.316 185.988 137.458 185.933 137.597 185.88C137.32 185.855 137.044 185.838 136.767 185.811Z"/>
<path d="M142.322 54.0004C135.96 53.9631 129.437 56.5012 123.831 61.9449C116.468 69.0945 114.181 75.5306 115.472 83.5607L115.826 85.7637L113.625 85.4059C97.4489 82.7848 77.4284 84.1088 54.6501 93.3233C61.346 96.1935 73.6362 100.984 87.2746 107.534L91.5994 109.612L86.8981 110.564C68.8888 114.215 47.5188 124.759 28 147.772C36.7317 147.093 54.5772 144.993 73.1892 145.022C83.5353 145.038 93.7315 145.753 102.038 147.907C110.345 150.061 117.894 154.99 118.958 158.601C120.022 162.213 119.418 164.114 118.37 166.939C117.322 169.764 114.1 174.056 109.642 176.889C105.184 179.722 99.5275 182.198 93.6508 184.303C81.8974 188.512 69.3883 191.202 63.8658 191.715C62.692 191.824 62.2234 192.246 61.771 193.067C61.3187 193.888 61.0692 195.179 61.0325 196.529C60.9835 198.331 61.2636 199.272 61.7726 199.986C62.2816 200.7 63.0766 200.985 63.8957 201.041C98.5986 203.389 124.546 194.66 143.392 187.182C165.067 177.244 178.767 157.618 181.741 139.948C183.605 128.876 183.205 123.45 181.408 118.829C179.611 114.208 176.166 110.105 171.795 102.268C168.987 97.2326 167.42 92.2917 166.449 87.69L166.243 86.7206L167.017 86.1007C175.048 79.6627 181.588 72.6333 183.963 67.5158C179.091 62.3343 170.672 61.2393 161.253 62.2465L160.479 62.3274L159.934 61.772C154.915 56.6589 148.685 54.0382 142.322 54.0004ZM145.143 65.9639C147.905 65.9202 150.341 67.8348 151.003 70.5675C151.781 73.7858 149.851 77.014 146.693 77.7776C143.534 78.5419 140.342 76.5526 139.564 73.3342C138.785 70.116 140.715 66.8878 143.874 66.1241C144.29 66.024 144.715 65.9702 145.143 65.9639Z"/>
<path d="M184.657 79.9777C182.622 79.9361 180.491 80.1502 178.289 80.6517C178.141 80.6858 178.011 80.7272 177.865 80.7619C175.443 83.1563 172.739 85.5598 169.845 87.9159C170.777 92.0268 172.16 96.3119 174.607 100.699C178.854 108.314 182.355 112.378 184.409 117.661C186.464 122.944 186.821 129.158 184.915 140.48C182.552 154.515 174.008 169.378 160.461 180.35C170.976 177.283 179.938 171.625 185.872 164.771C192.276 157.372 194.413 153.187 195.162 148.969C195.911 144.752 195.209 140.129 195.507 132.286C195.7 127.232 196.776 122.811 198.145 118.924L198.474 117.992L199.456 117.863C208.22 116.726 216.141 114.49 220.235 111.847C218.92 105.933 213.333 101.345 205.934 97.8574L205.228 97.5246L205.052 96.7653C202.705 86.6881 194.837 80.1891 184.657 79.9777ZM189.751 92.4238C190.275 92.4233 190.795 92.504 191.293 92.663C192.59 93.0779 193.667 94.0007 194.286 95.2287C194.904 96.4568 195.015 97.8896 194.592 99.2116C194.383 99.8664 194.049 100.474 193.61 101C193.171 101.527 192.635 101.961 192.033 102.279C191.43 102.597 190.774 102.792 190.1 102.853C189.426 102.913 188.748 102.839 188.106 102.634C186.808 102.219 185.732 101.296 185.113 100.068C184.494 98.8396 184.384 97.4071 184.807 96.085C185.146 95.0242 185.808 94.0972 186.697 93.4387C187.587 92.7802 188.656 92.4247 189.751 92.4238Z"/>
</mask>
<path d="M200.778 121.534C200.761 121.534 200.745 121.534 200.728 121.534C199.684 124.801 198.876 128.35 198.723 132.392C198.434 139.983 199.205 144.602 198.331 149.519C197.458 154.436 194.875 159.276 188.305 166.866C180.484 175.9 168.09 182.891 153.775 185.254C151.11 186.955 148.298 188.514 145.339 189.901C156.482 194.096 168.135 194.324 177.373 191.293C193.647 185.952 192.387 182.116 199.679 170.942C201.977 167.421 204.629 164.734 207.293 162.527C214.882 165.836 222.357 167.961 227.014 167.434C229.518 161.629 226.953 154.897 222.691 148.533C226.187 137.673 220.882 126.799 209.132 122.954C206.067 121.952 203.313 121.48 200.778 121.529L200.778 121.534ZM209.592 137.479C210.238 137.465 210.877 137.591 211.465 137.848C212.052 138.105 212.575 138.486 212.997 138.966C213.382 139.404 213.676 139.914 213.861 140.469C214.046 141.024 214.119 141.611 214.075 142.198C214.032 142.785 213.873 143.36 213.609 143.889C213.344 144.419 212.978 144.894 212.531 145.286C211.631 146.078 210.458 146.486 209.272 146.421C208.086 146.355 206.983 145.822 206.205 144.938C205.82 144.501 205.527 143.99 205.342 143.435C205.157 142.881 205.084 142.293 205.128 141.707C205.171 141.12 205.329 140.545 205.594 140.015C205.859 139.485 206.225 139.011 206.671 138.619C207.483 137.905 208.52 137.501 209.592 137.479ZM136.767 185.811C136.902 185.891 137.041 185.961 137.177 186.04C137.316 185.988 137.458 185.933 137.597 185.88C137.32 185.855 137.044 185.838 136.767 185.811Z" fill="#787878"/>
<path d="M142.322 54.0004C135.96 53.9631 129.437 56.5012 123.831 61.9449C116.468 69.0945 114.181 75.5306 115.472 83.5607L115.826 85.7637L113.625 85.4059C97.4489 82.7848 77.4284 84.1088 54.6501 93.3233C61.346 96.1935 73.6362 100.984 87.2746 107.534L91.5994 109.612L86.8981 110.564C68.8888 114.215 47.5188 124.759 28 147.772C36.7317 147.093 54.5772 144.993 73.1892 145.022C83.5353 145.038 93.7315 145.753 102.038 147.907C110.345 150.061 117.894 154.99 118.958 158.601C120.022 162.213 119.418 164.114 118.37 166.939C117.322 169.764 114.1 174.056 109.642 176.889C105.184 179.722 99.5275 182.198 93.6508 184.303C81.8974 188.512 69.3883 191.202 63.8658 191.715C62.692 191.824 62.2234 192.246 61.771 193.067C61.3187 193.888 61.0692 195.179 61.0325 196.529C60.9835 198.331 61.2636 199.272 61.7726 199.986C62.2816 200.7 63.0766 200.985 63.8957 201.041C98.5986 203.389 124.546 194.66 143.392 187.182C165.067 177.244 178.767 157.618 181.741 139.948C183.605 128.876 183.205 123.45 181.408 118.829C179.611 114.208 176.166 110.105 171.795 102.268C168.987 97.2326 167.42 92.2917 166.449 87.69L166.243 86.7206L167.017 86.1007C175.048 79.6627 181.588 72.6333 183.963 67.5158C179.091 62.3343 170.672 61.2393 161.253 62.2465L160.479 62.3274L159.934 61.772C154.915 56.6589 148.685 54.0382 142.322 54.0004ZM145.143 65.9639C147.905 65.9202 150.341 67.8348 151.003 70.5675C151.781 73.7858 149.851 77.014 146.693 77.7776C143.534 78.5419 140.342 76.5526 139.564 73.3342C138.785 70.116 140.715 66.8878 143.874 66.1241C144.29 66.024 144.715 65.9702 145.143 65.9639Z" fill="#ECECEC"/>
<path d="M184.657 79.9777C182.622 79.9361 180.491 80.1502 178.289 80.6517C178.141 80.6858 178.011 80.7272 177.865 80.7619C175.443 83.1563 172.739 85.5598 169.845 87.9159C170.777 92.0268 172.16 96.3119 174.607 100.699C178.854 108.314 182.355 112.378 184.409 117.661C186.464 122.944 186.821 129.158 184.915 140.48C182.552 154.515 174.008 169.378 160.461 180.35C170.976 177.283 179.938 171.625 185.872 164.771C192.276 157.372 194.413 153.187 195.162 148.969C195.911 144.752 195.209 140.129 195.507 132.286C195.7 127.232 196.776 122.811 198.145 118.924L198.474 117.992L199.456 117.863C208.22 116.726 216.141 114.49 220.235 111.847C218.92 105.933 213.333 101.345 205.934 97.8574L205.228 97.5246L205.052 96.7653C202.705 86.6881 194.837 80.1891 184.657 79.9777ZM189.751 92.4238C190.275 92.4233 190.795 92.504 191.293 92.663C192.59 93.0779 193.667 94.0007 194.286 95.2287C194.904 96.4568 195.015 97.8896 194.592 99.2116C194.383 99.8664 194.049 100.474 193.61 101C193.171 101.527 192.635 101.961 192.033 102.279C191.43 102.597 190.774 102.792 190.1 102.853C189.426 102.913 188.748 102.839 188.106 102.634C186.808 102.219 185.732 101.296 185.113 100.068C184.494 98.8396 184.384 97.4071 184.807 96.085C185.146 95.0242 185.808 94.0972 186.697 93.4387C187.587 92.7802 188.656 92.4247 189.751 92.4238Z" fill="#B2B2B2"/>
<path d="M200.778 121.534L200.797 122.533L201.841 122.514L201.776 121.471L200.778 121.534ZM200.728 121.534V120.534H199.998L199.775 121.229L200.728 121.534ZM198.723 132.392L199.722 132.43L199.722 132.43L198.723 132.392ZM198.331 149.519L197.347 149.344L197.347 149.344L198.331 149.519ZM188.305 166.866L187.549 166.212L187.549 166.212L188.305 166.866ZM153.775 185.254L153.612 184.267L153.409 184.3L153.236 184.411L153.775 185.254ZM145.339 189.901L144.915 188.996L142.769 190.002L144.987 190.837L145.339 189.901ZM177.373 191.293L177.061 190.342L177.061 190.342L177.373 191.293ZM199.679 170.942L200.517 171.488L200.517 171.488L199.679 170.942ZM207.293 162.527L207.693 161.61L207.129 161.364L206.655 161.757L207.293 162.527ZM227.014 167.434L227.126 168.428L227.702 168.363L227.932 167.83L227.014 167.434ZM222.691 148.533L221.739 148.227L221.591 148.687L221.86 149.09L222.691 148.533ZM209.132 122.954L209.443 122.004L209.443 122.004L209.132 122.954ZM200.778 121.529L200.758 120.53L199.715 120.55L199.78 121.592L200.778 121.529ZM209.592 137.479L209.613 138.478L209.613 138.478L209.592 137.479ZM212.997 138.966L213.748 138.306L213.748 138.306L212.997 138.966ZM212.531 145.286L211.871 144.535L211.871 144.535L212.531 145.286ZM206.205 144.938L206.956 144.278L206.956 144.278L206.205 144.938ZM206.671 138.619L206.011 137.867L206.011 137.867L206.671 138.619ZM136.767 185.811L136.862 184.816L136.259 186.673L136.767 185.811ZM137.177 186.04L136.674 186.905L137.084 187.142L137.527 186.977L137.177 186.04ZM137.597 185.88L137.952 186.815L137.685 184.884L137.597 185.88ZM142.322 54.0004L142.328 53.0004L142.328 53.0004L142.322 54.0004ZM123.831 61.9449L124.527 62.6623L124.527 62.6623L123.831 61.9449ZM115.472 83.5607L116.46 83.4022L116.46 83.402L115.472 83.5607ZM115.826 85.7637L115.666 86.7508L117.033 86.9731L116.813 85.6052L115.826 85.7637ZM113.625 85.4059L113.786 84.4189L113.785 84.4188L113.625 85.4059ZM54.6501 93.3233L54.2751 92.3963L52.0495 93.2966L54.2561 94.2425L54.6501 93.3233ZM87.2746 107.534L87.7077 106.632L87.7075 106.632L87.2746 107.534ZM91.5994 109.612L91.798 110.592L94.7169 110L92.0325 108.71L91.5994 109.612ZM86.8981 110.564L86.6995 109.584L86.6994 109.584L86.8981 110.564ZM28 147.772L27.2374 147.125L25.6854 148.955L28.0775 148.769L28 147.772ZM73.1892 145.022L73.1908 144.022L73.1908 144.022L73.1892 145.022ZM102.038 147.907L101.787 148.875L101.787 148.875L102.038 147.907ZM93.6508 184.303L93.3137 183.362L93.3137 183.362L93.6508 184.303ZM63.8658 191.715L63.7733 190.719L63.7733 190.719L63.8658 191.715ZM61.771 193.067L62.647 193.549L62.647 193.549L61.771 193.067ZM61.0325 196.529L62.0322 196.556L62.0322 196.556L61.0325 196.529ZM63.8957 201.041L63.8281 202.038L63.8282 202.038L63.8957 201.041ZM143.392 187.182L143.76 188.112L143.785 188.102L143.808 188.091L143.392 187.182ZM181.741 139.948L180.755 139.782L180.755 139.782L181.741 139.948ZM181.408 118.829L182.34 118.467L182.34 118.467L181.408 118.829ZM171.795 102.268L172.669 101.781L172.669 101.781L171.795 102.268ZM166.449 87.69L167.428 87.4835L167.427 87.4822L166.449 87.69ZM166.243 86.7206L165.618 85.9402L165.137 86.3255L165.265 86.9284L166.243 86.7206ZM167.017 86.1007L167.642 86.8812L167.642 86.881L167.017 86.1007ZM183.963 67.5158L184.87 67.9367L185.154 67.3233L184.691 66.8308L183.963 67.5158ZM161.253 62.2465L161.357 63.2411L161.359 63.2408L161.253 62.2465ZM160.479 62.3274L159.765 63.0278L160.103 63.3721L160.583 63.322L160.479 62.3274ZM159.934 61.772L160.648 61.0716L160.647 61.0714L159.934 61.772ZM145.143 65.9639L145.158 66.9638L145.159 66.9638L145.143 65.9639ZM151.003 70.5675L151.975 70.3325L151.975 70.3322L151.003 70.5675ZM146.693 77.7776L146.458 76.8056L146.458 76.8057L146.693 77.7776ZM139.564 73.3342L138.592 73.5693L138.592 73.5693L139.564 73.3342ZM143.874 66.1241L143.64 65.1519L143.639 65.1521L143.874 66.1241ZM184.657 79.9777L184.678 78.9779L184.677 78.9779L184.657 79.9777ZM178.289 80.6517L178.067 79.6766L178.065 79.677L178.289 80.6517ZM177.865 80.7619L177.633 79.789L177.361 79.8538L177.162 80.0508L177.865 80.7619ZM169.845 87.9159L169.214 87.1405L168.733 87.5321L168.87 88.1369L169.845 87.9159ZM174.607 100.699L175.48 100.212L175.48 100.212L174.607 100.699ZM184.915 140.48L183.929 140.314L183.929 140.314L184.915 140.48ZM160.461 180.35L159.832 179.573L160.741 181.31L160.461 180.35ZM185.872 164.771L186.628 165.425L186.628 165.425L185.872 164.771ZM195.162 148.969L194.177 148.794L194.177 148.794L195.162 148.969ZM195.507 132.286L196.507 132.324L196.507 132.324L195.507 132.286ZM198.145 118.924L197.202 118.591L197.202 118.592L198.145 118.924ZM198.474 117.992L198.344 117.001L197.735 117.081L197.531 117.66L198.474 117.992ZM199.456 117.863L199.327 116.871L199.325 116.872L199.456 117.863ZM220.235 111.847L220.778 112.687L221.363 112.31L221.211 111.63L220.235 111.847ZM205.934 97.8574L205.507 98.7617L205.507 98.762L205.934 97.8574ZM205.228 97.5246L204.254 97.7514L204.364 98.2225L204.802 98.4289L205.228 97.5246ZM205.052 96.7653L204.078 96.9921L204.078 96.9921L205.052 96.7653ZM189.751 92.4238L189.752 93.4238L189.752 93.4238L189.751 92.4238ZM191.293 92.663L191.597 91.7105L191.597 91.7104L191.293 92.663ZM194.592 99.2116L193.64 98.9073L193.64 98.9073L194.592 99.2116ZM188.106 102.634L187.801 103.586L187.801 103.586L188.106 102.634ZM184.807 96.085L183.854 95.7806L183.854 95.7807L184.807 96.085ZM200.759 120.534C200.763 120.534 200.763 120.534 200.758 120.534C200.754 120.534 200.752 120.534 200.746 120.534C200.742 120.534 200.735 120.534 200.728 120.534V122.534C200.734 122.534 200.733 122.534 200.748 122.534C200.759 122.534 200.777 122.534 200.797 122.533L200.759 120.534ZM199.775 121.229C198.712 124.556 197.881 128.197 197.723 132.354L199.722 132.43C199.871 128.502 200.655 125.045 201.68 121.838L199.775 121.229ZM197.723 132.354C197.577 136.186 197.699 139.279 197.746 141.976C197.794 144.685 197.766 146.987 197.347 149.344L199.316 149.694C199.771 147.134 199.794 144.668 199.746 141.941C199.698 139.201 199.579 136.189 199.722 132.43L197.723 132.354ZM197.347 149.344C196.52 153.998 194.075 158.673 187.549 166.212L189.061 167.521C195.675 159.88 198.396 154.874 199.316 149.694L197.347 149.344ZM187.549 166.212C179.894 175.054 167.718 181.939 153.612 184.267L153.937 186.24C168.463 183.843 181.074 176.747 189.061 167.521L187.549 166.212ZM153.236 184.411C150.608 186.089 147.833 187.627 144.915 188.996L145.764 190.806C148.763 189.4 151.613 187.82 154.313 186.097L153.236 184.411ZM144.987 190.837C156.322 195.104 168.21 195.352 177.685 192.243L177.061 190.342C168.06 193.296 156.642 193.088 145.692 188.965L144.987 190.837ZM177.685 192.243C185.884 189.552 189.842 187.187 192.648 183.961C194.033 182.37 195.109 180.602 196.272 178.584C197.443 176.554 198.713 174.252 200.517 171.488L198.842 170.395C196.999 173.218 195.692 175.586 194.54 177.585C193.38 179.597 192.386 181.216 191.14 182.649C188.685 185.47 185.136 187.693 177.061 190.342L177.685 192.243ZM200.517 171.488C202.747 168.071 205.325 165.456 207.931 163.297L206.655 161.757C203.934 164.012 201.206 166.772 198.842 170.395L200.517 171.488ZM206.893 163.444C210.722 165.113 214.539 166.492 218.002 167.387C221.447 168.278 224.619 168.711 227.126 168.428L226.902 166.441C224.752 166.683 221.857 166.318 218.503 165.451C215.167 164.588 211.452 163.25 207.693 161.61L206.893 163.444ZM227.932 167.83C230.657 161.513 227.807 154.374 223.522 147.977L221.86 149.09C226.1 155.42 228.379 161.745 226.096 167.038L227.932 167.83ZM223.643 148.84C227.311 137.445 221.705 126.016 209.443 122.004L208.821 123.905C220.059 127.582 225.063 137.902 221.739 148.227L223.643 148.84ZM209.443 122.004C206.3 120.976 203.432 120.477 200.758 120.53L200.797 122.529C203.194 122.482 205.835 122.928 208.821 123.905L209.443 122.004ZM199.78 121.592L199.78 121.596L201.776 121.471L201.776 121.467L199.78 121.592ZM209.613 138.478C210.115 138.468 210.61 138.566 211.064 138.764L211.865 136.932C211.143 136.616 210.361 136.463 209.571 136.479L209.613 138.478ZM211.064 138.764C211.518 138.963 211.921 139.257 212.247 139.627L213.748 138.306C213.229 137.715 212.586 137.247 211.865 136.932L211.064 138.764ZM212.246 139.626C212.543 139.964 212.769 140.357 212.912 140.785L214.809 140.153C214.582 139.472 214.222 138.844 213.748 138.306L212.246 139.626ZM212.912 140.785C213.055 141.214 213.112 141.669 213.078 142.124L215.073 142.272C215.125 141.554 215.036 140.834 214.809 140.153L212.912 140.785ZM213.078 142.124C213.044 142.58 212.921 143.028 212.714 143.442L214.503 144.337C214.826 143.691 215.02 142.989 215.073 142.272L213.078 142.124ZM212.714 143.442C212.507 143.856 212.221 144.228 211.871 144.535L213.192 146.037C213.734 145.56 214.18 144.982 214.503 144.337L212.714 143.442ZM211.871 144.535C211.165 145.155 210.249 145.473 209.327 145.422L209.217 147.419C210.668 147.499 212.096 147 213.192 146.037L211.871 144.535ZM209.327 145.422C208.406 145.372 207.554 144.958 206.956 144.278L205.454 145.599C206.411 146.686 207.766 147.339 209.217 147.419L209.327 145.422ZM206.956 144.278C206.66 143.941 206.434 143.547 206.291 143.119L204.394 143.752C204.621 144.433 204.981 145.06 205.454 145.599L206.956 144.278ZM206.291 143.119C206.148 142.691 206.091 142.236 206.125 141.78L204.13 141.633C204.077 142.351 204.167 143.071 204.394 143.752L206.291 143.119ZM206.125 141.78C206.159 141.324 206.282 140.876 206.489 140.462L204.7 139.568C204.377 140.214 204.183 140.915 204.13 141.633L206.125 141.78ZM206.489 140.462C206.696 140.048 206.982 139.677 207.332 139.37L206.011 137.867C205.468 138.345 205.023 138.922 204.7 139.568L206.489 140.462ZM207.331 139.37C207.968 138.811 208.778 138.496 209.613 138.478L209.572 136.479C208.261 136.506 206.999 136.999 206.011 137.867L207.331 139.37ZM136.259 186.673C136.343 186.722 136.425 186.767 136.493 186.804C136.565 186.843 136.62 186.873 136.674 186.905L137.679 185.175C137.597 185.128 137.515 185.084 137.45 185.048C137.381 185.01 137.326 184.98 137.274 184.95L136.259 186.673ZM137.527 186.977C137.667 186.924 137.826 186.862 137.952 186.815L137.242 184.945C137.09 185.003 136.965 185.052 136.826 185.103L137.527 186.977ZM137.685 184.884C137.355 184.855 137.155 184.844 136.862 184.816L136.671 186.807C136.934 186.832 137.285 186.856 137.509 186.876L137.685 184.884ZM142.328 53.0004C135.684 52.9615 128.913 55.6159 123.134 61.2275L124.527 62.6623C129.96 57.3866 136.237 54.9648 142.316 55.0004L142.328 53.0004ZM123.134 61.2275C119.385 64.8679 116.87 68.3829 115.471 72.0678C114.068 75.7648 113.816 79.5623 114.485 83.7195L116.46 83.402C115.837 79.5291 116.083 76.0935 117.341 72.7774C118.604 69.4493 120.914 66.1714 124.527 62.6623L123.134 61.2275ZM114.485 83.7192L114.839 85.9222L116.813 85.6052L116.46 83.4022L114.485 83.7192ZM115.986 84.7767L113.786 84.4189L113.465 86.393L115.666 86.7508L115.986 84.7767ZM113.785 84.4188C97.4222 81.7675 77.217 83.1157 54.2751 92.3963L55.0251 94.2504C77.6399 85.102 97.4756 83.8022 113.465 86.393L113.785 84.4188ZM54.2561 94.2425C60.9905 97.1292 73.2283 101.898 86.8417 108.435L87.7075 106.632C74.044 100.071 61.7016 95.2579 55.044 92.4042L54.2561 94.2425ZM86.8415 108.435L91.1663 110.513L92.0325 108.71L87.7077 106.632L86.8415 108.435ZM91.4008 108.632L86.6995 109.584L87.0967 111.545L91.798 110.592L91.4008 108.632ZM86.6994 109.584C68.466 113.28 46.8987 123.945 27.2374 147.125L28.7626 148.419C48.1389 125.574 69.3117 115.15 87.0967 111.545L86.6994 109.584ZM28.0775 148.769C36.8597 148.086 54.6284 145.993 73.1877 146.022L73.1908 144.022C54.5259 143.993 36.6036 146.1 27.9225 146.775L28.0775 148.769ZM73.1877 146.022C83.5042 146.038 93.6018 146.753 101.787 148.875L102.289 146.939C93.8612 144.754 83.5663 144.038 73.1908 144.022L73.1877 146.022ZM101.787 148.875C105.841 149.926 109.708 151.655 112.676 153.55C114.16 154.498 115.4 155.474 116.321 156.411C117.255 157.361 117.799 158.206 117.999 158.884L119.917 158.318C119.585 157.19 118.786 156.065 117.747 155.008C116.694 153.937 115.327 152.87 113.752 151.864C110.603 149.854 106.542 148.042 102.289 146.939L101.787 148.875ZM117.999 158.884C118.5 160.587 118.593 161.828 118.463 162.949C118.33 164.095 117.959 165.173 117.433 166.591L119.308 167.287C119.83 165.88 120.285 164.595 120.449 163.181C120.617 161.742 120.479 160.227 119.917 158.318L117.999 158.884ZM117.433 166.591C116.47 169.188 113.401 173.315 109.105 176.045L110.178 177.733C114.798 174.797 118.175 170.34 119.308 167.287L117.433 166.591ZM109.105 176.045C104.736 178.822 99.1579 181.269 93.3137 183.362L93.988 185.244C99.8971 183.128 105.631 180.623 110.178 177.733L109.105 176.045ZM93.3137 183.362C81.6174 187.55 69.192 190.216 63.7733 190.719L63.9583 192.711C69.5846 192.188 82.1774 189.474 93.988 185.244L93.3137 183.362ZM63.7733 190.719C63.0829 190.783 62.4875 190.95 61.9789 191.302C61.4741 191.651 61.153 192.116 60.895 192.585L62.647 193.549C62.8414 193.196 62.9808 193.04 63.1169 192.946C63.2491 192.855 63.4749 192.756 63.9583 192.711L63.7733 190.719ZM60.8951 192.585C60.3309 193.609 60.0713 195.085 60.0329 196.501L62.0322 196.556C62.067 195.272 62.3065 194.168 62.647 193.549L60.8951 192.585ZM60.0329 196.501C59.9809 198.416 60.2731 199.606 60.9585 200.567L62.5867 199.405C62.254 198.939 61.9862 198.247 62.0322 196.556L60.0329 196.501ZM60.9585 200.567C61.7032 201.611 62.8359 201.971 63.8281 202.038L63.9633 200.043C63.3173 199.999 62.86 199.788 62.5867 199.405L60.9585 200.567ZM63.8282 202.038C98.7466 204.402 124.856 195.613 143.76 188.112L143.023 186.253C124.236 193.707 98.4506 202.377 63.9633 200.043L63.8282 202.038ZM143.808 188.091C165.774 178.019 179.696 158.122 182.727 140.114L180.755 139.782C177.838 157.114 164.36 176.468 142.975 186.273L143.808 188.091ZM182.727 140.114C184.601 128.98 184.235 123.339 182.34 118.467L180.476 119.192C182.175 123.562 182.608 128.773 180.755 139.782L182.727 140.114ZM182.34 118.467C181.403 116.056 180.043 113.802 178.412 111.22C176.772 108.625 174.837 105.669 172.669 101.781L170.922 102.755C173.124 106.704 175.097 109.718 176.721 112.289C178.354 114.873 179.616 116.981 180.476 119.192L182.34 118.467ZM172.669 101.781C169.92 96.8532 168.383 92.0121 167.428 87.4835L165.471 87.8965C166.457 92.5714 168.054 97.612 170.922 102.755L172.669 101.781ZM167.427 87.4822L167.221 86.5128L165.265 86.9284L165.471 87.8978L167.427 87.4822ZM166.868 87.5011L167.642 86.8812L166.392 85.3203L165.618 85.9402L166.868 87.5011ZM167.642 86.881C175.698 80.4236 182.393 73.2742 184.87 67.9367L183.056 67.0949C180.783 71.9924 174.398 78.9018 166.392 85.3205L167.642 86.881ZM184.691 66.8308C179.473 61.2812 170.616 60.2395 161.146 61.2522L161.359 63.2408C170.728 62.239 178.708 63.3874 183.234 68.2008L184.691 66.8308ZM161.149 61.2519L160.375 61.3328L160.583 63.322L161.357 63.2411L161.149 61.2519ZM161.193 61.627L160.648 61.0716L159.22 62.4723L159.765 63.0278L161.193 61.627ZM160.647 61.0714C155.453 55.7795 148.972 53.0399 142.328 53.0004L142.316 55.0004C148.397 55.0365 154.376 57.5383 159.22 62.4725L160.647 61.0714ZM145.159 66.9638C147.441 66.9277 149.477 68.5126 150.031 70.8028L151.975 70.3322C151.206 67.1571 148.369 64.9128 145.127 64.964L145.159 66.9638ZM150.031 70.8026C150.684 73.5012 149.063 76.1759 146.458 76.8056L146.928 78.7496C150.64 77.8521 152.879 74.0703 151.975 70.3325L150.031 70.8026ZM146.458 76.8057C143.853 77.436 141.188 75.7978 140.536 73.0991L138.592 73.5693C139.496 77.3074 143.215 79.6479 146.928 78.7496L146.458 76.8057ZM140.536 73.0992C139.883 70.4005 141.504 67.7258 144.109 67.0961L143.639 65.1521C139.926 66.0497 137.688 69.8314 138.592 73.5693L140.536 73.0992ZM144.108 67.0963C144.452 67.0135 144.804 66.969 145.158 66.9638L145.128 64.964C144.626 64.9714 144.127 65.0345 143.64 65.1519L144.108 67.0963ZM184.677 78.9779C182.557 78.9346 180.345 79.1578 178.067 79.6766L178.511 81.6267C180.636 81.1427 182.686 80.9376 184.636 80.9775L184.677 78.9779ZM178.065 79.677C177.969 79.6992 177.881 79.7232 177.812 79.742C177.739 79.7622 177.687 79.7764 177.633 79.789L178.096 81.7348C178.189 81.7128 178.275 81.6889 178.34 81.6711C178.41 81.652 178.461 81.6382 178.513 81.6263L178.065 79.677ZM177.162 80.0508C174.766 82.4194 172.086 84.8015 169.214 87.1405L170.477 88.6913C173.391 86.3181 176.12 83.8933 178.568 81.4731L177.162 80.0508ZM168.87 88.1369C169.816 92.3125 171.228 96.6935 173.734 101.186L175.48 100.212C173.093 95.9303 171.738 91.7411 170.821 87.6949L168.87 88.1369ZM173.734 101.186C175.875 105.025 177.834 107.979 179.485 110.589C181.144 113.21 182.487 115.478 183.477 118.024L185.341 117.299C184.277 114.561 182.843 112.156 181.175 109.52C179.501 106.874 177.586 103.988 175.48 100.212L173.734 101.186ZM183.477 118.024C185.435 123.058 185.823 129.059 183.929 140.314L185.901 140.646C187.818 129.258 187.493 122.831 185.341 117.299L183.477 118.024ZM183.929 140.314C181.61 154.089 173.205 168.741 159.832 179.573L161.091 181.127C174.811 170.015 183.494 154.941 185.901 140.646L183.929 140.314ZM160.741 181.31C171.417 178.196 180.553 172.442 186.628 165.425L185.116 164.116C179.323 170.807 170.534 176.37 160.181 179.39L160.741 181.31ZM186.628 165.425C193.074 157.979 195.35 153.627 196.147 149.144L194.177 148.794C193.475 152.746 191.479 156.765 185.116 164.116L186.628 165.425ZM196.147 149.144C196.54 146.929 196.548 144.631 196.504 141.97C196.459 139.293 196.359 136.211 196.507 132.324L194.508 132.247C194.358 136.204 194.46 139.355 194.504 142.004C194.549 144.67 194.533 146.791 194.177 148.794L196.147 149.144ZM196.507 132.324C196.694 127.393 197.744 123.072 199.088 119.256L197.202 118.592C195.808 122.55 194.705 127.071 194.508 132.247L196.507 132.324ZM199.088 119.257L199.417 118.325L197.531 117.66L197.202 118.591L199.088 119.257ZM198.604 118.984L199.586 118.855L199.325 116.872L198.344 117.001L198.604 118.984ZM199.584 118.855C208.384 117.713 216.489 115.455 220.778 112.687L219.693 111.007C215.792 113.525 208.055 115.739 199.327 116.871L199.584 118.855ZM221.211 111.63C219.789 105.236 213.816 100.467 206.36 96.9529L205.507 98.762C212.849 102.223 218.051 106.631 219.259 112.064L221.211 111.63ZM206.36 96.9531L205.655 96.6202L204.802 98.4289L205.507 98.7617L206.36 96.9531ZM206.202 97.2977L206.026 96.5385L204.078 96.9921L204.254 97.7514L206.202 97.2977ZM206.026 96.5385C203.578 86.0289 195.328 79.1991 184.678 78.9779L184.636 80.9775C194.346 81.1791 201.832 87.3472 204.078 96.9921L206.026 96.5385ZM189.752 93.4238C190.173 93.4234 190.589 93.4881 190.989 93.6156L191.597 91.7104C191 91.5198 190.377 91.4232 189.75 91.4238L189.752 93.4238ZM190.988 93.6155C192.027 93.9478 192.893 94.6878 193.392 95.6787L195.179 94.7788C194.44 93.3136 193.153 92.208 191.597 91.7105L190.988 93.6155ZM193.392 95.6787C193.892 96.6704 193.983 97.8321 193.64 98.9073L195.545 99.516C196.046 97.947 195.916 96.2432 195.179 94.7788L193.392 95.6787ZM193.64 98.9073C193.47 99.4393 193.198 99.9327 192.842 100.36L194.378 101.641C194.9 101.015 195.296 100.293 195.545 99.516L193.64 98.9073ZM192.842 100.36C192.486 100.787 192.052 101.138 191.566 101.395L192.499 103.163C193.218 102.784 193.856 102.267 194.378 101.641L192.842 100.36ZM191.566 101.395C191.08 101.651 190.551 101.808 190.01 101.857L190.19 103.849C190.996 103.776 191.781 103.542 192.499 103.163L191.566 101.395ZM190.01 101.857C189.469 101.906 188.925 101.846 188.41 101.681L187.801 103.586C188.572 103.832 189.383 103.921 190.19 103.849L190.01 101.857ZM188.41 101.681C187.371 101.349 186.505 100.609 186.006 99.6177L184.22 100.518C184.958 101.983 186.245 103.089 187.801 103.586L188.41 101.681ZM186.006 99.6177C185.507 98.626 185.416 97.4645 185.759 96.3894L183.854 95.7807C183.353 97.3497 183.482 99.0532 184.22 100.518L186.006 99.6177ZM185.759 96.3894C186.035 95.5271 186.573 94.7752 187.292 94.2424L186.102 92.635C185.043 93.4191 184.256 94.5213 183.854 95.7806L185.759 96.3894ZM187.292 94.2424C188.012 93.7098 188.874 93.4245 189.752 93.4238L189.751 91.4238C188.439 91.4249 187.162 91.8507 186.102 92.635L187.292 94.2424Z" fill="black" mask="url(#path-2-inside-1_266_93)"/>
</svg>
