<svg width="256" height="256" viewBox="0 0 256 256" fill="none" xmlns="http://www.w3.org/2000/svg">
<g clip-path="url(#clip0_10_7)">
<path d="M196 0H60C26.8629 0 0 26.8629 0 60V196C0 229.137 26.8629 256 60 256H196C229.137 256 256 229.137 256 196V60C256 26.8629 229.137 0 196 0Z" fill="#F4F2ED"/>
<path d="M192.623 98.9614C192.293 98.6093 191.943 98.2571 191.592 97.9257C191.241 97.5943 190.911 97.2214 190.561 96.89C190.21 96.5586 189.88 96.1857 189.529 95.8543C189.179 95.5229 188.849 95.15 188.498 94.8186C188.148 94.4871 187.818 94.1143 187.467 93.7829C187.116 93.4514 186.786 93.0786 186.436 92.7471C186.085 92.4157 185.755 92.0429 185.404 91.7114C195.635 101.809 201.495 115.546 201.719 129.95C201.719 164.274 167.028 192.196 124.375 192.196C100.491 192.196 79.1238 183.434 64.9131 169.701L65.9444 170.736L66.9756 171.772L68.0069 172.808L69.0381 173.844L70.0694 174.879L71.1006 175.915L72.1319 176.951C86.3219 191.264 108.164 200.482 132.625 200.482C175.278 200.482 209.969 172.559 209.969 138.339C209.969 123.715 203.699 109.857 192.623 98.9614Z" fill="black"/>
<path d="M196.562 129.95C196.562 161.456 164.243 186.997 124.375 186.997C84.5069 186.997 52.1875 161.456 52.1875 129.95C52.1875 110.416 64.5625 93.1614 83.5787 82.9286C102.595 72.6957 114.434 62.2143 124.375 62.2143C134.316 62.2143 142.814 70.7693 165.171 82.9286C184.187 93.1614 196.562 110.416 196.562 129.95Z" fill="#FBF0DF"/>
<path d="M196.563 129.95C196.552 125.903 195.997 121.875 194.912 117.977C189.282 186.956 105.503 190.27 72.565 169.639C87.3717 181.165 105.644 187.287 124.375 186.997C164.181 186.997 196.563 161.415 196.563 129.95Z" fill="#F6DECE"/>
<path d="M96.5931 79.1379C105.812 73.5864 118.064 63.1672 130.109 63.1464C128.256 62.5449 126.322 62.2306 124.375 62.2143C119.384 62.2143 114.062 64.8036 107.359 68.6979C105.029 70.065 102.616 71.5772 100.058 73.1514C95.2525 76.1343 89.7456 79.5107 83.5581 82.8872C63.9231 93.555 52.1875 111.141 52.1875 129.95C52.1875 130.779 52.1875 131.607 52.1875 132.415C64.6862 88.0657 87.3944 84.6893 96.5931 79.1379Z" fill="#FFFEFC"/>
<path fill-rule="evenodd" clip-rule="evenodd" d="M118.435 67.455C118.464 72.3461 117.441 77.1859 115.437 81.6438C113.433 86.1017 110.495 90.0727 106.823 93.2857C106.246 93.8036 106.699 94.7979 107.442 94.5079C114.392 91.7943 123.777 83.6743 119.817 67.2893C119.652 66.3571 118.435 66.6057 118.435 67.455ZM123.117 67.455C125.64 71.5905 127.244 76.2251 127.817 81.0412C128.39 85.8572 127.92 90.7408 126.437 95.3571C126.19 96.0821 127.077 96.7036 127.572 96.1029C132.089 90.3029 136.028 78.7857 124.231 66.3571C123.632 65.8186 122.704 66.6471 123.117 67.3721V67.455ZM128.809 67.1029C132.761 69.9129 136.067 73.5413 138.505 77.7436C140.942 81.9458 142.453 86.6241 142.937 91.4629C142.917 91.6372 142.963 91.813 143.068 91.9537C143.173 92.0944 143.327 92.1892 143.5 92.2185C143.672 92.2478 143.849 92.2093 143.994 92.1111C144.139 92.0128 144.241 91.8623 144.278 91.6907C146.176 84.4614 145.103 72.1364 129.49 65.7357C128.665 65.4043 128.129 66.5229 128.809 67.02V67.1029ZM90.7356 88.6457C95.4366 87.2352 99.7891 84.8461 103.51 81.6341C107.23 78.422 110.236 74.4589 112.33 70.0029C112.701 69.2571 113.877 69.5471 113.691 70.3757C110.123 86.9471 98.1812 90.4064 90.7562 89.9507C89.9725 89.9714 89.9931 88.8736 90.7356 88.6457Z" fill="#CCBEA7"/>
<path d="M124.375 192.196C81.7225 192.196 47.0312 164.274 47.0312 129.95C47.0312 109.236 59.7775 89.9093 81.1244 78.33C87.3119 75.0157 92.6125 71.6807 97.3356 68.76C99.9344 67.1443 102.389 65.6321 104.761 64.2236C112 59.915 118.188 57.0357 124.375 57.0357C130.562 57.0357 135.966 59.5214 142.731 63.54C144.794 64.7207 146.856 66.005 149.063 67.4136C154.199 70.6036 159.994 74.2078 167.626 78.33C188.973 89.9093 201.719 109.215 201.719 129.95C201.719 164.274 167.028 192.196 124.375 192.196ZM124.375 62.2143C119.384 62.2143 114.062 64.8036 107.359 68.6978C105.029 70.065 102.616 71.5771 100.058 73.1514C95.2525 76.1343 89.7456 79.5107 83.5581 82.8871C63.9231 93.555 52.1875 111.141 52.1875 129.95C52.1875 161.415 84.5688 187.018 124.375 187.018C164.181 187.018 196.562 161.415 196.562 129.95C196.562 111.141 184.827 93.555 165.171 82.9286C157.375 78.7857 151.291 74.8914 146.361 71.8257C144.113 70.4378 142.051 69.1536 140.174 68.0143C133.924 64.2857 129.366 62.2143 124.375 62.2143Z" fill="black"/>
<path d="M138.916 145.071C137.989 148.883 135.88 152.299 132.893 154.828C130.651 157.011 127.748 158.381 124.643 158.722C121.445 158.435 118.44 157.062 116.125 154.828C113.169 152.288 111.089 148.872 110.185 145.071C110.155 144.846 110.177 144.616 110.249 144.4C110.321 144.185 110.441 143.988 110.6 143.826C110.76 143.664 110.954 143.541 111.168 143.466C111.382 143.391 111.61 143.366 111.835 143.394H137.286C137.51 143.37 137.736 143.397 137.947 143.474C138.158 143.55 138.35 143.674 138.506 143.835C138.663 143.997 138.782 144.192 138.853 144.406C138.923 144.62 138.945 144.848 138.916 145.071Z" fill="#B71422"/>
<path d="M116.125 154.994C118.436 157.229 121.43 158.615 124.623 158.929C127.808 158.611 130.794 157.224 133.099 154.994C133.837 154.303 134.526 153.563 135.162 152.777C133.891 151.33 132.339 150.158 130.601 149.335C128.863 148.512 126.976 148.055 125.056 147.992C123.001 148.041 120.989 148.591 119.192 149.594C117.396 150.597 115.869 152.024 114.743 153.751C115.218 154.186 115.63 154.6 116.125 154.994Z" fill="#FF6164"/>
<path d="M116.455 153.357C117.478 152.03 118.786 150.952 120.283 150.206C121.78 149.46 123.426 149.064 125.097 149.049C128.186 149.14 131.129 150.389 133.347 152.549C133.821 152.031 134.275 151.493 134.708 150.954C132.084 148.445 128.617 147.018 124.994 146.956C123.058 146.973 121.149 147.42 119.405 148.265C117.662 149.111 116.126 150.333 114.908 151.845C115.396 152.377 115.912 152.882 116.455 153.357Z" fill="black"/>
<path d="M124.561 159.965C121.124 159.663 117.889 158.203 115.383 155.822C112.19 153.11 109.943 149.445 108.968 145.361C108.898 144.998 108.91 144.623 109.003 144.265C109.096 143.906 109.267 143.573 109.504 143.29C109.787 142.947 110.144 142.674 110.548 142.491C110.952 142.308 111.392 142.22 111.835 142.234H137.286C137.729 142.224 138.167 142.314 138.571 142.497C138.974 142.68 139.331 142.951 139.617 143.29C139.852 143.574 140.02 143.908 140.11 144.267C140.199 144.625 140.207 144.999 140.133 145.361C139.158 149.445 136.911 153.11 133.718 155.822C131.217 158.198 127.99 159.658 124.561 159.965ZM111.835 144.636C111.505 144.636 111.423 144.781 111.402 144.823C112.274 148.364 114.246 151.535 117.033 153.875C119.07 155.891 121.719 157.167 124.561 157.5C127.394 157.171 130.041 155.911 132.089 153.916C134.867 151.572 136.831 148.403 137.699 144.864C137.654 144.798 137.591 144.746 137.519 144.713C137.446 144.68 137.365 144.668 137.286 144.678L111.835 144.636Z" fill="black"/>
<path d="M155.766 146.356C162.43 146.356 167.832 143.165 167.832 139.23C167.832 135.295 162.43 132.104 155.766 132.104C149.103 132.104 143.701 135.295 143.701 139.23C143.701 143.165 149.103 146.356 155.766 146.356Z" fill="#FEBBD0"/>
<path d="M93.3344 146.356C99.998 146.356 105.4 143.165 105.4 139.23C105.4 135.295 99.998 132.104 93.3344 132.104C86.6707 132.104 81.2687 135.295 81.2687 139.23C81.2687 143.165 86.6707 146.356 93.3344 146.356Z" fill="#FEBBD0"/>
<path fill-rule="evenodd" clip-rule="evenodd" d="M99.0062 136.371C101.255 136.376 103.454 135.71 105.326 134.458C107.197 133.206 108.657 131.425 109.52 129.34C110.384 127.255 110.612 124.959 110.175 122.744C109.739 120.529 108.658 118.493 107.07 116.895C105.481 115.296 103.457 114.207 101.252 113.765C99.0465 113.323 96.7604 113.548 94.6827 114.411C92.6049 115.274 90.8288 116.737 89.5792 118.615C88.3295 120.492 87.6625 122.7 87.6625 124.958C87.6625 127.981 88.857 130.881 90.9837 133.021C93.1105 135.161 95.9958 136.366 99.0062 136.371ZM150.094 136.371C152.345 136.388 154.551 135.732 156.43 134.488C158.31 133.244 159.779 131.467 160.652 129.383C161.525 127.299 161.762 125.002 161.333 122.782C160.904 120.563 159.828 118.522 158.242 116.917C156.656 115.312 154.631 114.217 152.424 113.77C150.218 113.323 147.929 113.544 145.847 114.405C143.766 115.267 141.986 116.73 140.734 118.608C139.481 120.487 138.813 122.697 138.812 124.958C138.807 127.972 139.991 130.866 142.106 133.005C144.22 135.145 147.093 136.355 150.094 136.371Z" fill="black"/>
<path fill-rule="evenodd" clip-rule="evenodd" d="M95.5 125.683C96.3452 125.687 97.1727 125.439 97.8775 124.97C98.5823 124.502 99.1327 123.833 99.459 123.05C99.7853 122.267 99.8728 121.404 99.7104 120.571C99.548 119.738 99.1431 118.972 98.5468 118.37C97.9505 117.769 97.1899 117.358 96.3611 117.191C95.5324 117.024 94.6729 117.108 93.8916 117.432C93.1102 117.755 92.4422 118.305 91.9722 119.011C91.5022 119.716 91.2512 120.546 91.2512 121.395C91.2512 122.529 91.6982 123.616 92.4944 124.42C93.2906 125.223 94.3712 125.677 95.5 125.683ZM146.588 125.683C147.433 125.687 148.261 125.439 148.966 124.97C149.67 124.502 150.221 123.833 150.547 123.05C150.873 122.267 150.961 121.404 150.799 120.571C150.636 119.738 150.231 118.972 149.635 118.37C149.039 117.769 148.278 117.358 147.449 117.191C146.621 117.024 145.761 117.108 144.98 117.432C144.198 117.755 143.53 118.305 143.06 119.011C142.59 119.716 142.339 120.546 142.339 121.395C142.339 122.522 142.781 123.603 143.568 124.405C144.355 125.208 145.425 125.667 146.547 125.683H146.588Z" fill="white"/>
</g>
<defs>
<clipPath id="clip0_10_7">
<rect width="256" height="256" fill="white"/>
</clipPath>
</defs>
</svg>
