<svg xmlns="http://www.w3.org/2000/svg" xmlns:xlink="http://www.w3.org/1999/xlink" width="256" zoomAndPan="magnify" viewBox="0 0 375 374.999991" height="256" preserveAspectRatio="xMidYMid meet" version="1.0">
<defs>
<clipPath id="3de09904e5">
<path d="M 75 0 L 300 0 C 341.421875 0 375 33.578125 375 75 L 375 304.027344 C 375 345.445312 341.421875 379.027344 300 379.027344 L 75 379.027344 C 33.578125 379.027344 0 345.445312 0 304.027344 L 0 75 C 0 33.578125 33.578125 0 75 0 " clip-rule="nonzero"/>
</clipPath>
<clipPath id="b2ce8d5dd6">
<path d="M 43.320312 160.636719 L 331.679688 160.636719 L 331.679688 255.847656 L 43.320312 255.847656 Z M 43.320312 160.636719 " clip-rule="nonzero"/>
</clipPath>
</defs>
<g clip-path="url(#3de09904e5)">
<path fill="#242938" d="M 0 0 L 374.414062 0 L 374.414062 379.6875 L 0 379.6875 Z M 0 0 " fill-opacity="1" fill-rule="nonzero"/>
</g>
<g clip-path="url(#b2ce8d5dd6)">
<path fill="#ffffff" d="M 43.320312 160.636719 L 331.601562 160.636719 L 331.601562 255.558594 L 43.320312 255.558594 Z M 43.320312 160.636719 " fill-opacity="1" fill-rule="nonzero"/>
</g>
<path fill="#d43d44" d="M 42.1875 210.210938 L 42.1875 255.46875 C 42.1875 280.523438 107.226562 300.820312 187.5 300.820312 L 187.5 255.46875 C 107.226562 255.46875 42.1875 235.21875 42.1875 210.210938 Z M 187.5 164.859375 L 301.171875 192.984375 C 320.953125 185.25 332.835938 175.40625 332.835938 164.859375 L 332.835938 119.53125 C 332.835938 94.5 267.773438 74.179688 187.523438 74.179688 C 107.273438 74.179688 42.1875 94.429688 42.1875 119.53125 L 42.1875 164.859375 C 42.1875 189.84375 107.226562 210.210938 187.5 210.210938 Z M 301.148438 238.453125 L 187.5 210.210938 L 187.5 255.46875 L 301.171875 283.710938 C 320.929688 276.046875 332.8125 266.226562 332.8125 255.46875 L 332.8125 210.210938 C 332.8125 220.875 320.929688 230.695312 301.148438 238.453125 Z M 301.148438 238.453125 " fill-opacity="1" fill-rule="nonzero"/>
</svg>