<svg xmlns="http://www.w3.org/2000/svg" xmlns:xlink="http://www.w3.org/1999/xlink" width="256" zoomAndPan="magnify" viewBox="0 0 375 374.999991" height="256" preserveAspectRatio="xMidYMid meet" version="1.0">
<defs>
<clipPath id="c245c4a8d7">
<path d="M 75 0 L 300 0 C 341.421875 0 375 33.578125 375 75 L 375 304.027344 C 375 345.445312 341.421875 379.027344 300 379.027344 L 75 379.027344 C 33.578125 379.027344 0 345.445312 0 304.027344 L 0 75 C 0 33.578125 33.578125 0 75 0 " clip-rule="nonzero"/>
</clipPath>
<clipPath id="291f397751">
<path d="M 37.5 153.164062 L 337.5 153.164062 L 337.5 265.664062 L 37.5 265.664062 Z M 37.5 153.164062 " clip-rule="nonzero"/>
</clipPath>
</defs>
<g clip-path="url(#c245c4a8d7)">
<path fill="#f4f2ec" d="M 0 0 L 374.414062 0 L 374.414062 379.6875 L 0 379.6875 Z M 0 0 " fill-opacity="1" fill-rule="nonzero"/>
</g>
<g clip-path="url(#291f397751)">
<path fill="#ffffff" d="M 37.5 153.164062 L 338.085938 153.164062 L 338.085938 265.664062 L 37.5 265.664062 Z M 37.5 153.164062 " fill-opacity="1" fill-rule="nonzero"/>
</g>
<path fill="#d43d44" d="M 38.359375 213.015625 L 38.359375 259.519531 C 38.359375 285.261719 105.1875 306.117188 187.667969 306.117188 L 187.667969 259.519531 C 105.1875 259.519531 38.359375 238.710938 38.359375 213.015625 Z M 187.667969 166.417969 L 304.464844 195.316406 C 324.792969 187.367188 337 177.253906 337 166.417969 L 337 119.84375 C 337 94.125 270.148438 73.246094 187.691406 73.246094 C 105.234375 73.246094 38.359375 94.050781 38.359375 119.84375 L 38.359375 166.417969 C 38.359375 192.089844 105.1875 213.015625 187.667969 213.015625 Z M 304.441406 242.035156 L 187.667969 213.015625 L 187.667969 259.519531 L 304.464844 288.539062 C 324.765625 280.664062 336.976562 270.574219 336.976562 259.519531 L 336.976562 213.015625 C 336.976562 223.972656 324.765625 234.0625 304.441406 242.035156 Z M 304.441406 242.035156 " fill-opacity="1" fill-rule="nonzero"/>
</svg>