<svg width="256" height="256" viewBox="0 0 256 256" fill="none" xmlns="http://www.w3.org/2000/svg">
<rect width="256" height="256" rx="60" fill="#242938"/>
<path d="M51.8645 171.69C53.4979 171.69 55.0452 172.077 55.8198 172.85C55.9488 174.055 54.8733 175.989 54.1856 175.989C53.3689 175.688 52.5952 175.515 51.6496 175.515C47.7382 175.515 45.8031 179.557 45.8031 183.554C45.8031 186.047 46.6628 187.552 48.6409 187.552C50.747 187.552 52.8961 186.134 54.0996 185.059C54.4005 185.273 54.7873 185.962 54.7873 186.735C54.7873 187.595 54.5294 188.412 53.7558 189.185C52.3803 190.561 50.0593 191.721 46.7058 191.721C42.8373 191.721 40.1724 189.529 40.1724 184.414C40.1724 177.708 44.5996 171.69 51.8216 171.69H51.8645Z" fill="white"/>
<path d="M64.5004 187.337C66.6065 187.337 70.4328 183.64 71.5074 176.591C71.5504 176.161 71.5934 176.032 71.6793 175.602C71.2065 175.43 70.5618 175.301 69.9162 175.301C68.3258 175.301 66.6925 175.774 65.2311 177.751C63.7267 179.857 63.082 182.479 63.082 184.586C63.082 186.39 63.5977 187.337 64.4574 187.337H64.5004ZM57.5793 185.403C57.5793 182.867 58.439 178.439 61.6635 175.215C64.4144 172.378 67.767 171.69 70.8197 171.69C72.8399 171.69 75.5907 172.334 77.31 172.679C76.8802 174.57 75.8486 181.705 75.3758 185.832C75.1609 187.595 75.0749 190.045 75.1609 190.948C73.7425 191.549 71.0776 191.721 70.346 191.721C69.96 191.721 69.8732 189.959 70.003 188.283C70.0451 187.724 70.132 186.907 70.174 186.563C68.4977 189.357 65.1881 191.721 61.7065 191.721C59.2135 191.721 57.5793 189.658 57.5793 185.446V185.403V185.403Z" fill="white"/>
<path d="M88.0116 171.69C89.7738 171.69 91.4501 172.335 92.2247 173.151C92.1817 174.356 91.2361 176.375 89.7309 175.816C89.0861 175.601 88.4414 175.43 87.5817 175.43C86.4212 175.43 85.4326 175.946 85.4326 177.02C85.4326 177.836 86.0344 178.439 88.9142 180.459C90.9782 181.964 91.7949 183.296 91.7949 185.187C91.7949 188.326 88.8282 191.721 83.6703 191.721C81.5642 191.721 79.7151 190.905 79.1133 190.045C78.3396 188.756 78.9414 186.22 79.8019 186.649C80.9195 187.207 82.7677 187.81 84.2721 187.81C85.6905 187.81 86.5931 187.164 86.5931 186.305C86.5931 185.575 85.9484 184.929 83.3265 183.081C81.1335 181.448 80.4458 179.943 80.4458 178.224C80.4458 174.657 83.4984 171.69 87.9686 171.69H88.0116Z" fill="white"/>
<path d="M102.84 171.69C104.603 171.69 106.279 172.335 107.053 173.151C107.01 174.356 106.065 176.375 104.56 175.816C103.915 175.601 103.27 175.43 102.411 175.43C101.25 175.43 100.262 175.946 100.262 177.02C100.262 177.836 100.863 178.439 103.743 180.459C105.806 181.964 106.623 183.296 106.623 185.187C106.623 188.326 103.656 191.721 98.4985 191.721C96.3923 191.721 94.5441 190.905 93.9423 190.045C93.1686 188.756 93.7704 186.22 94.63 186.649C95.7476 187.207 97.5958 187.81 99.1002 187.81C100.519 187.81 101.421 187.164 101.421 186.305C101.421 185.575 100.777 184.929 98.1546 183.081C95.9625 181.448 95.2748 179.943 95.2748 178.224C95.2748 174.657 98.3265 171.69 102.798 171.69H102.84Z" fill="white"/>
<path d="M116.378 187.337C118.485 187.337 122.311 183.64 123.385 176.591C123.428 176.161 123.472 176.032 123.558 175.602C123.084 175.43 122.441 175.301 121.795 175.301C120.205 175.301 118.571 175.774 117.109 177.751C115.606 179.857 114.96 182.479 114.96 184.586C114.96 186.39 115.476 187.337 116.336 187.337H116.378ZM109.457 185.403C109.457 182.867 110.318 178.439 113.541 175.215C116.292 172.378 119.645 171.69 122.698 171.69C124.718 171.69 127.47 172.334 129.189 172.679C128.759 174.57 127.727 181.705 127.255 185.832C127.039 187.595 126.954 190.045 127.039 190.948C125.62 191.549 122.956 191.721 122.225 191.721C121.839 191.721 121.752 189.959 121.881 188.283C121.924 187.724 122.01 186.907 122.053 186.563C120.377 189.357 117.067 191.721 113.585 191.721C111.092 191.721 109.457 189.658 109.457 185.446V185.403V185.403Z" fill="white"/>
<path d="M138.901 177.278C140.879 174.097 143.457 171.69 147.069 171.69C150.12 171.69 151.109 174.527 150.551 178.567C150.25 180.459 149.734 183.167 149.39 185.66C149.089 187.767 148.874 189.658 148.918 190.948C147.8 191.507 144.533 191.722 143.802 191.722C143.501 191.722 143.457 189.357 143.845 186.864C144.188 184.801 144.919 181.061 145.263 178.911C145.479 177.666 145.435 176.16 144.232 176.16C142.64 176.16 138.859 178.697 136.967 189.099C136.837 189.959 136.494 190.474 136.02 190.775C135.376 191.163 134 191.507 131.207 191.55C131.723 188.928 132.54 183.554 133.141 179.6C133.699 175.989 133.915 173.667 133.785 172.765C134.517 172.507 138.343 171.69 138.771 171.69C139.246 171.69 139.331 173.023 138.901 176.247C138.859 176.548 138.815 177.02 138.771 177.278H138.901Z" fill="white"/>
<path d="M160.737 187.294C162.627 187.294 166.454 183.769 167.528 177.536C167.572 177.192 167.701 176.548 167.787 176.16C167.227 175.644 166.496 175.3 165.337 175.3C160.994 175.3 159.06 180.502 159.06 184.242C159.06 186.262 159.748 187.294 160.693 187.294H160.737ZM157.9 191.721C155.149 191.721 153.43 189.271 153.43 185.059C153.43 178.095 157.77 171.69 165.078 171.69C166.368 171.69 167.528 172.033 168.259 172.463C168.646 170.486 169.548 164.382 169.592 162.576C170.795 162.362 173.374 161.976 174.534 161.976C175.009 161.976 175.138 162.448 174.965 163.522C173.932 169.97 172.086 182.35 171.741 185.102C171.482 187.423 171.44 189.701 171.482 190.99C170.108 191.592 167.313 191.721 166.583 191.721C166.281 191.721 166.11 189.744 166.196 187.982C166.239 187.423 166.324 186.605 166.324 186.477C164.175 190.002 161.209 191.721 157.942 191.721H157.9Z" fill="white"/>
<path d="M183.087 177.88C185.366 172.807 188.073 171.69 189.836 171.69C190.395 171.69 191.254 172.034 191.641 172.464C191.814 173.882 190.696 176.719 189.707 177.793C189.19 177.536 188.547 177.278 187.816 177.278C186.353 177.278 183.473 179.557 181.668 189.357C181.538 190.174 181.281 190.518 180.809 190.733C180.079 191.163 177.198 191.507 175.823 191.55C176.466 188.024 177.584 180.846 178.015 176.633C178.144 175.558 178.186 173.581 178.101 172.807C178.917 172.421 182.142 171.69 182.872 171.69C183.259 171.69 183.56 174.055 182.957 177.88H183.087Z" fill="white"/>
<path d="M198.259 187.337C200.367 187.337 204.191 183.64 205.267 176.591C205.309 176.161 205.353 176.032 205.439 175.602C204.966 175.43 204.321 175.301 203.676 175.301C202.085 175.301 200.452 175.774 198.99 177.751C197.486 179.857 196.84 182.479 196.84 184.586C196.84 186.39 197.356 187.337 198.217 187.337H198.259ZM191.338 185.403C191.338 182.867 192.198 178.439 195.422 175.215C198.173 172.378 201.526 171.69 204.578 171.69C206.598 171.69 209.349 172.334 211.07 172.679C210.64 174.57 209.608 181.705 209.135 185.832C208.92 187.595 208.833 190.045 208.92 190.948C207.502 191.549 204.837 191.721 204.105 191.721C203.719 191.721 203.633 189.959 203.762 188.283C203.805 187.724 203.89 186.907 203.934 186.563C202.257 189.357 198.948 191.721 195.466 191.721C192.972 191.721 191.338 189.658 191.338 185.446V185.403V185.403Z" fill="white"/>
<path d="M185.636 98.847C187.054 115.37 161.051 131.096 127.557 133.97C94.0627 136.843 65.7606 125.775 64.3439 109.253C62.9255 92.7274 88.929 77.0021 122.423 74.1285C155.917 71.2559 184.219 82.3211 185.636 98.847Z" fill="#BBE6FB"/>
<g opacity="0.350006">
<g opacity="0.350006">
<path opacity="0.350006" d="M123.406 76.0663C110.63 75.8586 95.6789 80.9314 84.5545 85.6818C83.3967 89.0183 82.7734 92.5671 82.7734 96.2457C82.7734 115.846 100.471 131.737 122.304 131.737C144.136 131.737 161.834 115.846 161.834 96.2457C161.834 90.0428 160.058 84.2151 156.942 79.1414C148.042 77.7579 135.801 76.2678 123.406 76.0663Z" fill="white"/>
</g>
</g>
<path d="M122.303 76.0625C115.23 75.6309 103.038 79.3211 92.8721 83.0023C91.3274 86.6478 90.4695 90.6371 90.4695 94.8234C90.4695 111.997 106.04 125.918 122.511 125.918C138.874 125.918 153.351 111.974 154.553 94.8234C154.943 89.2384 153.021 83.9757 150.351 79.4384C139.812 77.5821 128.626 76.4484 122.303 76.0625Z" fill="white"/>
<path d="M104.151 92.5685C105.019 90.6468 106.334 89.7057 107.607 88.0948C107.465 87.7133 107.156 86.4659 107.156 86.0334C107.156 84.1028 108.722 82.5357 110.653 82.5357C111.109 82.5357 111.544 82.6262 111.943 82.7846C117.732 78.3727 125.353 76.4492 133.012 78.1614C133.712 78.319 134.398 78.5097 135.071 78.7192C127.502 77.6697 118.97 80.3508 113.166 85.035C113.343 85.4531 113.835 86.6486 113.835 87.1295C113.835 89.061 112.585 89.5311 110.653 89.5311C110.215 89.5311 109.795 89.4469 109.408 89.2992C108.097 91.0597 106.49 94.4132 105.704 96.5095C108.913 99.3803 111.813 100.421 115.592 101.833C115.582 101.653 115.722 101.486 115.722 101.303C115.722 95.4797 120.848 90.7471 126.672 90.7471C131.891 90.7471 136.213 94.5421 137.056 99.5209C139.66 97.8643 142.178 96.5945 144.097 94.1392C143.65 93.5929 143.167 92.0465 143.167 91.2853C143.167 89.5329 144.589 88.1118 146.341 88.1118C146.589 88.1118 146.828 88.1476 147.059 88.2013C148.034 86.1991 148.769 84.0768 149.239 81.8883C140.132 75.1463 122.512 76.066 122.512 76.066C122.512 76.066 108.491 75.3344 98.9989 79.9603C99.632 84.5371 101.458 88.8881 104.151 92.5685Z" fill="white"/>
<path d="M147.679 89.9418C148.323 90.522 148.674 91.0316 148.951 91.5277C149.802 93.0589 148.094 94.4603 146.341 94.4603C146.163 94.4603 145.991 94.4361 145.82 94.4075C143.846 97.4933 140.387 101.45 137.315 103.442C142.026 104.214 146.468 106.1 150.004 109.016C152.578 104.404 154.553 97.7431 154.553 92.0855C154.553 87.7792 152.652 84.6227 149.782 82.307C149.631 84.6138 148.4 87.8401 147.679 89.9418Z" fill="white"/>
<path d="M109.437 119.156C111.007 114.821 114.868 111.462 118.52 108.507C117.986 107.776 117.184 105.964 116.85 105.106C112.395 103.752 108.454 101.216 105.396 97.8585C105.374 97.9561 105.346 98.051 105.323 98.1486C104.747 100.728 104.642 103.314 104.928 105.835C107.061 106.233 108.676 108.102 108.676 110.35C108.676 111.684 107.507 113.616 106.6 114.457C107.586 116.584 108.258 117.611 109.437 119.156Z" fill="white"/>
<path d="M109.16 122.795C107.288 120.934 105.993 117.22 104.778 114.888C104.551 114.923 104.318 114.947 104.08 114.947C101.54 114.947 98.8796 112.816 99.4813 110.35C99.8144 108.985 100.756 108.093 102.29 107.348C101.941 104.521 101.846 100.457 102.503 97.518C102.691 96.6771 103.089 96.2831 103.353 95.4826C100.551 91.3823 98.7408 86.0005 98.7408 80.6608C98.7408 80.4656 98.7506 80.2731 98.7551 80.0797C94.0199 82.4545 90.4694 86.1957 90.4694 92.0852C90.4694 105.112 97.9725 117.892 109.136 122.901C109.144 122.866 109.151 122.83 109.16 122.795Z" fill="white"/>
<path d="M136.612 104.786C135.169 108.889 131.268 111.836 126.672 111.836C124.213 111.836 121.957 110.988 120.165 109.578C116.469 112.456 113.116 117.512 111.412 121.898C112.177 122.721 112.71 123.398 113.568 124.128C116.153 124.801 119.713 124.128 122.512 124.128C133.768 124.128 143.737 119.121 149.453 110.34C145.652 107.708 141.169 105.203 136.612 104.786Z" fill="white"/>
<path d="M103.863 94.091C104.731 92.1693 105.819 90.3909 107.091 88.78C106.95 88.3994 106.867 87.9884 106.867 87.5559C106.867 85.6252 108.433 84.0582 110.365 84.0582C110.821 84.0582 111.256 84.1486 111.654 84.3071C117.443 79.8951 125.065 77.9717 132.724 79.6838C133.423 79.8414 134.109 80.0321 134.782 80.2417C127.213 79.1922 119.392 81.5124 113.589 86.1974C113.766 86.6147 113.863 87.075 113.863 87.5559C113.863 89.4874 112.296 91.0535 110.365 91.0535C109.926 91.0535 109.507 90.9694 109.119 90.8216C107.808 92.5821 106.736 94.5271 105.95 96.6242C108.706 99.5945 112.089 101.943 115.867 103.355C115.859 103.175 115.84 102.997 115.84 102.814C115.84 96.9905 120.56 92.2696 126.384 92.2696C131.603 92.2696 135.924 96.0646 136.768 101.043C139.372 99.3868 141.686 97.2591 143.604 94.8038C143.156 94.2575 142.878 93.5689 142.878 92.8078C142.878 91.0553 144.3 89.6342 146.053 89.6342C146.301 89.6342 146.539 89.6701 146.771 89.7238C147.745 87.7215 148.48 85.5993 148.95 83.4107C139.844 76.6688 122.223 77.5884 122.223 77.5884C122.223 77.5884 108.202 76.8568 98.7103 81.4828C99.3434 86.0595 101.169 90.4106 103.863 94.091Z" fill="#1287B1"/>
<path d="M148.171 90.4611C148.814 91.0414 149.227 91.8732 149.227 92.8081C149.227 94.5605 147.805 95.9825 146.053 95.9825C145.875 95.9825 145.703 95.9584 145.532 95.9297C143.557 99.0155 140.941 101.646 137.867 103.638C142.409 104.348 146.684 106.275 150.218 109.191C152.793 104.578 154.264 99.2653 154.264 93.6078C154.264 89.3015 152.363 86.1449 149.493 83.8293C149.343 86.136 148.891 88.3594 148.171 90.4611Z" fill="#1287B1"/>
<path d="M109.921 120.198C111.491 115.863 114.219 111.973 117.871 109.019C117.337 108.286 116.896 107.487 116.562 106.629C112.106 105.274 108.165 102.738 105.108 99.3808C105.086 99.4785 105.057 99.5734 105.035 99.671C104.458 102.251 104.352 104.836 104.64 107.358C106.772 107.755 108.387 109.624 108.387 111.873C108.387 113.206 107.815 114.405 106.908 115.246C107.731 116.99 108.743 118.652 109.921 120.198Z" fill="#1287B1"/>
<path d="M109.148 122.742C107.276 120.881 105.704 118.742 104.49 116.412C104.262 116.446 104.029 116.47 103.791 116.47C101.252 116.47 99.1933 114.411 99.1933 111.872C99.1933 110.053 100.253 108.484 101.787 107.739C101.439 104.913 101.557 101.979 102.215 99.0404C102.403 98.2004 102.632 97.3802 102.896 96.5787C100.094 92.4793 98.4527 87.5229 98.4527 82.1832C98.4527 81.988 98.4617 81.7955 98.4661 81.603C93.7309 83.9768 90.1804 87.719 90.1804 93.6076C90.1804 106.636 97.9602 117.839 109.124 122.848C109.132 122.813 109.139 122.777 109.148 122.742Z" fill="#1287B1"/>
<path d="M136.323 106.308C134.88 110.411 130.98 113.358 126.383 113.358C123.924 113.358 121.669 112.51 119.876 111.101C116.18 113.979 113.391 117.902 111.688 122.289C112.452 123.112 113.268 123.887 114.126 124.616C116.712 125.29 119.425 125.65 122.223 125.65C133.479 125.65 143.375 119.839 149.091 111.059C145.29 108.426 140.881 106.726 136.323 106.308Z" fill="#1287B1"/>
<path d="M136.693 103.59L146.435 101.266L136.656 100.767L144.614 94.6852L135.584 97.9223L141.721 89.4181L133.245 95.0515L136.209 85.0966L130.388 93.3017L130.255 82.9331L126.426 92.169L123.232 82.823L123.405 93.8327L117.886 83.9638L120.873 94.4426L111.921 87.9325L118.933 96.7439L107.82 92.657L116.591 99.1464L105.344 99.4921L116.843 102.46L105.334 104.948L116.695 105.772L107.114 111.907L116.979 108.33L110.134 116.999L118.784 110.024L115.669 121.657L122.347 112.19L121.411 123.371L125.201 113.235L128.428 123.888L129.212 113.203L134.001 122.319L131.172 111.892L139.941 118.685L134.28 110.024L143.901 113.772L136.544 106.543L146.409 107.318L136.693 103.59Z" fill="white"/>
<g opacity="0.350006">
<g opacity="0.350006">
<path opacity="0.350006" d="M32.981 122.23C63.1941 92.0183 87.3242 82.6911 109.224 78.4332C112.121 77.87 112.669 71.5381 112.669 71.5381C112.669 71.5381 113.075 76.2017 115.103 76.8097C117.131 77.4186 119.766 69.5099 119.766 69.5099C119.766 69.5099 117.333 76.6074 119.766 77.013C122.2 77.4186 126.66 70.1188 126.66 70.1188C126.66 70.1188 124.836 76.4041 126.053 76.8097C127.268 77.2154 133.351 67.6858 133.351 67.6858C133.351 67.6858 129.701 73.9711 133.149 74.58C136.597 75.188 141.626 70.2898 141.626 70.2898C141.626 70.2898 137.672 74.7716 139.434 75.3904C146.937 78.0276 153.008 68.2759 153.008 68.2759C153.008 68.2759 151.602 72.5518 147.952 77.2154C155.859 79.2427 161.732 67.3303 161.732 67.3303L155.859 79.2427C158.901 80.8662 171.068 66.8745 171.068 66.8745C171.068 66.8745 164.782 77.8243 161.132 80.054C163.159 81.6766 170.459 75.188 170.459 75.188C170.459 75.188 164.579 82.487 166.809 82.8926C170.054 85.5289 182.016 69.3075 182.016 69.3075C182.016 69.3075 177.354 78.8371 170.459 86.3402C176.222 89.2227 190.534 70.7268 190.534 70.7268C190.534 70.7268 190.128 76.6073 179.786 85.9345C187.492 84.9209 197.428 70.3212 197.428 70.3212C197.428 70.3212 193.778 81.2709 185.058 88.9755C192.624 88.1884 204.726 69.5099 204.726 69.5099C204.726 69.5099 200.063 82.487 190.534 89.9901C201.078 92.3219 216.286 76.6073 216.286 76.6073C216.286 76.6073 210.304 87.7604 202.496 92.3219C211.216 95.6674 223.18 81.879 223.18 81.879C223.18 81.879 211.216 100.332 192.156 99.5205C185.903 99.2546 166.986 80.5474 126.458 82.0822C72.9269 84.1105 61.5724 106.82 32.981 122.23Z" fill="white"/>
</g>
</g>
<path d="M34.2193 119.936C64.4323 89.7236 88.5616 80.3974 110.461 76.1385C113.36 75.5753 113.908 69.2443 113.908 69.2443C113.908 69.2443 114.312 73.9088 116.342 74.5159C118.369 75.124 121.004 67.217 121.004 67.217C121.004 67.217 118.571 74.3145 121.004 74.7192C123.438 75.124 127.899 67.825 127.899 67.825C127.899 67.825 126.074 74.1103 127.29 74.5159C128.507 74.9216 134.589 65.3911 134.589 65.3911C134.589 65.3911 130.94 71.6773 134.387 72.2853C137.834 72.8943 142.864 67.9961 142.864 67.9961C142.864 67.9961 138.91 72.4779 140.672 73.0966C148.175 75.7329 154.245 65.9821 154.245 65.9821C154.245 65.9821 152.838 70.258 149.19 74.9216C157.097 76.9498 162.97 65.0356 162.97 65.0356L157.097 76.9498C160.139 78.5715 172.305 64.5816 172.305 64.5816C172.305 64.5816 166.02 75.5296 162.37 77.7602C164.398 79.3828 171.698 72.8943 171.698 72.8943C171.698 72.8943 165.817 80.1941 168.048 80.5988C171.292 83.236 183.254 67.0137 183.254 67.0137C183.254 67.0137 178.59 76.5442 171.698 84.0464C177.46 86.9298 191.772 68.433 191.772 68.433C191.772 68.433 191.366 74.3145 181.025 83.6416C188.73 82.6271 198.666 68.0274 198.666 68.0274C198.666 68.0274 195.016 78.9772 186.296 86.6826C193.862 85.8955 205.964 67.217 205.964 67.217C205.964 67.217 201.302 80.1941 191.772 87.6963C202.316 90.0281 217.524 74.3145 217.524 74.3145C217.524 74.3145 211.542 85.4657 203.735 90.0281C212.455 93.3736 224.418 79.5852 224.418 79.5852C224.418 79.5852 212.455 98.0381 193.393 97.2268C187.141 96.9599 168.224 78.2527 127.695 79.7884C74.1652 81.8158 62.8097 104.526 34.2193 119.936Z" fill="white"/>
<g opacity="0.350006">
<g opacity="0.350006">
<path opacity="0.350006" d="M32.1896 125.535C48.1576 133.545 62.7582 124.319 81.1591 129.504C95.149 133.448 112.183 138.309 135.297 134.963C158.413 131.619 178.184 121.581 187.614 103.635C190.554 95.6271 202.516 105.461 202.516 105.461C202.516 105.461 193.798 101.811 194.001 103.535C194.204 105.258 207.08 111.24 207.08 111.24C207.08 111.24 195.42 107.59 196.13 110.327C196.84 113.064 210.728 124.014 210.728 124.014C210.728 124.014 195.014 112.051 193.697 113.672C192.378 115.295 200.388 121.886 200.388 121.886C200.388 121.886 187.106 113.672 182.442 116.095C179.087 117.835 196.231 129.084 196.231 129.084C196.231 129.084 185.078 120.567 182.442 122.797C179.806 125.029 195.014 143.278 195.014 143.278C195.014 143.278 177.777 124.622 176.055 125.535C174.331 126.447 180.819 135.37 180.819 135.37C180.819 135.37 172.303 126.042 169.972 127.664C167.641 129.287 182.138 153.517 182.138 153.517C182.138 153.517 166.424 128.679 159.935 132.834C170.125 155.19 166.322 158.384 166.322 158.384C166.322 158.384 165.022 135.576 152.331 136.18C145.943 136.485 155.372 153.213 155.372 153.213C155.372 153.213 146.694 137.934 140.914 138.239C151.566 158.397 147.769 166.595 147.769 166.595C147.769 166.595 149.531 149.379 135.084 139.799C140.558 144.664 131.649 166.595 131.649 166.595C131.649 166.595 139.486 134.277 125.869 140.439C123.717 141.41 125.717 156.559 125.717 156.559C125.717 156.559 122.979 139.221 118.874 140.134C116.481 140.665 103.666 164.162 103.666 164.162C103.666 164.162 114.16 138.765 110.966 139.83C108.64 140.606 104.275 151.084 104.275 151.084C104.275 151.084 106.403 140.742 104.275 140.134C102.146 139.526 90.283 151.084 90.283 151.084C90.283 151.084 99.1042 140.742 97.5828 138.613C95.2779 135.387 92.5763 135.235 89.3705 136.485C84.706 138.302 78.4217 146.825 78.4217 146.825C78.4217 146.825 84.6863 138.196 83.5912 134.963C81.8334 129.769 63.822 145 63.822 145C63.822 145 74.4673 134.963 72.0343 132.834C69.6013 130.705 56.3896 131.363 52.2642 131.352C40.0984 131.314 35.8825 128.46 32.1896 125.535Z" fill="white"/>
</g>
</g>
<path d="M31.5819 123.71C47.5498 131.719 62.1495 122.494 80.5504 127.68C94.5403 131.622 111.575 136.484 134.69 133.138C157.806 129.792 177.575 119.755 187.005 101.811C189.945 93.8019 201.908 103.635 201.908 103.635C201.908 103.635 193.189 99.986 193.393 101.71C193.595 103.433 206.471 109.414 206.471 109.414C206.471 109.414 194.811 105.765 195.521 108.503C196.231 111.239 210.121 122.189 210.121 122.189C210.121 122.189 194.405 110.225 193.088 111.848C191.771 113.47 199.78 120.06 199.78 120.06C199.78 120.06 186.498 111.848 181.834 114.269C178.479 116.009 195.622 127.258 195.622 127.258C195.622 127.258 184.469 118.742 181.834 120.972C179.198 123.204 194.407 141.452 194.407 141.452C194.407 141.452 177.169 122.797 175.447 123.71C173.724 124.623 180.212 133.544 180.212 133.544C180.212 133.544 171.695 124.216 169.364 125.839C167.032 127.461 181.529 151.692 181.529 151.692C181.529 151.692 165.815 126.853 159.326 131.009C169.516 153.365 165.714 156.559 165.714 156.559C165.714 156.559 164.414 133.751 151.722 134.356C145.335 134.66 154.763 151.388 154.763 151.388C154.763 151.388 146.085 136.108 140.307 136.413C150.959 156.571 147.161 164.77 147.161 164.77C147.161 164.77 148.922 147.553 134.475 137.973C139.949 142.839 131.04 164.77 131.04 164.77C131.04 164.77 138.879 132.452 125.262 138.614C123.11 139.586 125.11 154.734 125.11 154.734C125.11 154.734 122.371 137.397 118.267 138.309C115.872 138.84 103.057 162.337 103.057 162.337C103.057 162.337 113.551 136.94 110.358 138.006C108.031 138.78 103.666 149.258 103.666 149.258C103.666 149.258 105.795 138.917 103.666 138.309C101.537 137.701 89.6752 149.258 89.6752 149.258C89.6752 149.258 98.4965 138.917 96.9742 136.788C94.6693 133.561 91.9676 133.411 88.7628 134.66C84.0974 136.477 77.813 145 77.813 145C77.813 145 84.0777 136.37 82.9834 133.138C81.2247 127.945 63.2142 143.175 63.2142 143.175C63.2142 143.175 73.8595 133.138 71.4256 131.009C68.9927 128.88 55.7809 129.539 51.6555 129.526C39.4897 129.488 35.2748 126.635 31.5819 123.71Z" fill="white"/>
</svg>
