<svg xmlns="http://www.w3.org/2000/svg" width="64" height="64"><g transform="matrix(1.954132 0 0 1.954132 -85.24798 -3.17432)"><g fill-rule="evenodd"><path d="M57.42 16.804l1.185 1.178-1.185 1.178H49.08v3.924l-5.085-5.102 5.085-5.016v3.838z" fill="#932279"/><path d="M61.196 15.42l-1.178 1.185-1.178-1.185V7.08h-3.924l5.102-5.085 5.016 5.085h-3.838z" fill="#efa724"/><path d="M62.58 19.196l-1.185-1.178 1.185-1.178h8.338v-3.924l5.085 5.102-5.085 5.016v-3.838z" fill="#262577"/><path d="M58.804 20.58l1.178-1.185 1.178 1.185v8.34h3.924l-5.102 5.085-5.016-5.085h3.838z" fill="#9ccd2a"/></g><g stroke="#fff" stroke-width=".724"><path d="M48.783 6.783h10.132v10.132H48.783z" fill="#9ccd2a"/><path d="M61.086 6.783h10.132v10.132H61.086z" fill="#932279"/><path d="M61.086 19.086h10.132v10.132H61.086z" fill="#efa724"/><path d="M48.783 19.086h10.132v10.132H48.783z" fill="#262577"/><path d="M44.136 18l7.164-7.164L58.465 18 51.3 25.164zm8.7-8.7L60 2.136 67.164 9.3 60 16.465zm8.7 8.7l7.164-7.164L75.864 18 68.7 25.164zm-8.7 8.7L60 19.535l7.164 7.164L60 33.864z" fill="none"/></g></g></svg>