<svg width="256" height="256" fill="none" version="1.1" viewBox="0 0 256 256" xml:space="preserve" xmlns="http://www.w3.org/2000/svg" xmlns:xlink="http://www.w3.org/1999/xlink"><defs><linearGradient id="linearGradient13481" x1="332.52" x2="243.32" y1="110.48" y2="-27.357" gradientUnits="userSpaceOnUse"><stop stop-color="#ffebae" offset="0"/><stop stop-color="#fff2cd" offset=".3631"/><stop stop-color="#fff8e3" offset=".72481"/><stop stop-color="#fffcf5" stop-opacity="0" offset="1"/></linearGradient></defs><rect width="256" height="256" rx="60" fill="#242938"/><g transform="matrix(.7486 0 0 .7486 29.276 39.093)"><path transform="matrix(1.0725 0 0 1.0725 -186.06 49.283)" d="m403.31 128.14-107.49 61.341-106.87-62.416 0.62054-123.76 107.49-61.341 106.87 62.416z" fill="#fff" fill-rule="evenodd" stroke="#fff" style="paint-order:stroke markers fill"/><path transform="matrix(1.0725 0 0 1.0725 -186.06 49.283)" d="m403.31 128.14-107.49 61.341-106.87-62.416 0.62054-123.76 107.49-61.341 106.87 62.416z" fill="url(#linearGradient13481)" fill-rule="evenodd" stroke="#fff" style="paint-order:stroke markers fill"/><path d="m127.85 256.65c-1.9164-1.0955-5.9594-3.3702-8.9844-5.0549-3.025-1.6847-8.425-4.7606-12-6.8354-12.195-7.0777-32.477-18.814-49.5-28.643-9.35-5.3989-19.925-11.515-23.5-13.591s-8.999-5.111-12.053-6.7445c-3.0544-1.6335-6.9919-4.3138-8.75-5.9561l-3.1966-2.986v-136.4l3.1966-2.986c1.7581-1.6423 5.6956-4.3226 8.75-5.9561 3.0544-1.6335 8.4784-4.6707 12.053-6.7493 7.0243-4.0841 44.31-25.615 65.759-37.972 7.2925-4.2015 16.518-9.5481 20.5-11.881 11.369-6.6607 11.706-6.7575 15.741-4.5211 1.925 1.0669 6.2 3.4313 9.5 5.2542s7.1945 4.1457 8.6544 5.1617c1.4599 1.0161 2.9654 1.8474 3.3456 1.8474s1.8857 0.83133 3.3456 1.8474c1.4599 1.0161 5.1294 3.2001 8.1544 4.8533 6.3189 3.4535 15.8 8.8837 18 10.309 0.825 0.53462 3.525 2.1097 6 3.5001s7.875 4.5221 12 6.9592c4.125 2.4371 9.975 5.834 13 7.5487 3.025 1.7147 8.875 5.0815 13 7.4819s10.101 5.758 13.279 7.4612c10.812 5.7939 9.7209-2.74 9.7209 76.039s1.091 70.245-9.7209 76.039c-3.1785 1.7033-9.1541 5.0608-13.279 7.4612s-9.975 5.7673-13 7.4819c-3.025 1.7147-8.875 5.1116-13 7.5487s-9.525 5.5687-12 6.9592c-2.475 1.3904-5.175 2.9655-6 3.5001-2.2001 1.4257-11.681 6.8559-18 10.309-3.025 1.6533-6.6945 3.8373-8.1544 4.8533s-2.8764 1.8474-3.1478 1.8474c-0.27138 0-3.4563 1.8-7.0776 4-3.6213 2.2-6.8016 4-7.0675 4s-2.6121 1.35-5.2138 3c-5.6017 3.5525-5.8597 3.5776-10.355 1.0082zm10.516-12.346c3.3-1.811 11.85-6.6852 19-10.832 7.15-4.1465 20.65-11.956 30-17.355s19.925-11.515 23.5-13.591 8.975-5.149 12-6.829c3.025-1.68 8.875-5.027 13-7.4378l7.5-4.3833v-130.47l-7.5-4.3833c-4.125-2.4108-9.975-5.7578-13-7.4378-3.025-1.68-8.425-4.753-12-6.829-3.575-2.076-14.15-8.1918-23.5-13.591s-22.85-13.198-30-17.331c-7.15-4.1332-15.7-9.0596-19-10.948l-6-3.4329-6 3.1482c-3.3 1.7315-10.275 5.6452-15.5 8.697-5.225 3.0519-20.075 11.648-33 19.103-12.925 7.4548-26.2 15.128-29.5 17.051s-8.475 4.9193-11.5 6.6583-8.0875 4.6897-11.25 6.557l-5.75 3.395v64.548c0 60.395 0.11261 64.618 1.75 65.633 2.0223 1.2534 46.818 27.096 55.75 32.161 3.3 1.8717 8.925 5.1274 12.5 7.235s9.2 5.3799 12.5 7.2718c3.3 1.8919 8.6296 4.9672 11.843 6.834 11.452 6.6521 17.164 9.8357 17.657 9.8422 0.275 4e-3 3.2-1.4752 6.5-3.2861z" fill="#94161f"/><path d="m95.921 109.34v-40.391l4.0202-1.6086c2.2111-0.88472 4.4611-1.6086 5-1.6086 0.6158 0 1.0117 11.051 1.0657 29.75 0.0473 16.362 0.42949 28.625 0.84936 27.25 4.7406-15.525 15.463-24.394 20.992-17.365 1.91 2.4282 2.0726 3.9529 2.0726 19.441 0 11.101 0.37185 17.036 1.0954 17.483 0.60245 0.37233 2.1768 0.0982 3.4985-0.60915 4.0255-2.1544 4.125 3e-3 0.16745 3.6302-4.5915 4.2078-8.7391 4.5332-12.307 0.96551-2.3877-2.3877-2.4546-2.8628-2.4546-17.441 0-9.0009-0.40297-15.235-1.009-15.61-2.1357-1.3199-5.2078 0.84542-6.9432 4.8938-2.5299 5.902-6.0479 20.274-6.0479 24.708 0 3.5308-0.23266 3.7949-4.6781 5.3096-2.573 0.8767-4.823 1.594-5 1.594s-0.32186-18.176-0.32186-40.391zm55.841 38.867c-1.4622-0.7942-3.7062-3.1387-4.9865-5.21-3.1216-5.0498-3.183-16.562-0.12418-23.266 2.4714-5.4168 8.404-11.334 13.487-13.451 5.2395-2.1827 13.994-1.9914 18.699 0.40857 5.4236 2.7669 5.8455 4.6974 1.4299 6.5423-4.4868 1.8747-3.8877 1.9519-7.7575-0.99974-4.5578-3.4764-7.8085-3.1999-12.53 1.066-4.8904 4.4182-6.3967 8.7845-5.8722 17.022 0.45704 7.1777 2.7657 11.288 7.2337 12.879 6.1596 2.1931 11.346-4.2954 12.273-15.353l0.58868-7.0218 4.537-1.5459c2.4953-0.85024 4.6679-1.5459 4.828-1.5459s0.41743 5.4644 0.57186 12.143c0.23399 10.119 0.56268 12.321 1.9722 13.208 1.2888 0.81136 2.1579 0.64275 3.6507-0.70821 3.4902-3.1586 3.7315 0.24505 0.2632 3.7133-5.9878 5.9878-16.105 3.4093-16.105-4.1044 0-2.408-0.1448-2.3441-3.0831 1.3608-1.6957 2.1381-4.0582 4.434-5.25 5.1021-2.9522 1.6548-10.582 1.5231-13.825-0.23863zm49.333-0.79038c-2.0714-2.205-2.1743-3.1939-2.1743-20.906v-18.592l4.6781-1.594c2.573-0.8767 4.823-1.594 5-1.594s0.32186 8.0632 0.32186 17.918c0 9.855 0.27314 18.63 0.60699 19.5 0.67301 1.7538 4.9174 2.1604 5.9031 0.56548 1.1644-1.884 2.5384 0.0571 1.463 2.0666-2.6624 4.9748-12.119 6.5522-15.799 2.6352zm-146.25-1.4788c-6.1467-3.9486-8.3847-8.6798-8.3756-17.707 0.0123-12.206 6.631-20.703 18.663-23.96 6.1611-1.6677 6.8612-1.6748 11.554-0.11614 2.7474 0.91254 5.7653 2.51 6.7063 3.5499 1.6398 1.8119 1.5424 1.9767-2.335 3.9549l-4.0461 2.0642-2.6934-2.4962c-2.0704-1.9188-3.7708-2.4962-7.3512-2.4962-4.0076 0-5.1299 0.48706-8.0394 3.4889-2.8787 2.97-3.4436 4.3472-3.7991 9.261-0.60078 8.3057 1.0612 13.361 5.8007 17.642 3.3573 3.0331 4.7201 3.6078 8.5562 3.6078 5.3899 0 7.6787-1.0398 12.566-5.7089 2.2024-2.1039 3.8937-3.0537 4.2916-2.41 1.1053 1.7883-2.4242 6.0104-8.2658 9.8878-4.7221 3.1344-6.5398 3.7395-12.108 4.0314-5.8574 0.30699-7.0371 0.032-11.124-2.5936zm145.69-59.834c-0.93236-4.7452-1.5652-8.6961-1.4063-8.7796 3.2001-1.6826 8.2245-3.5926 9.4507-3.5926 1.2773 0 1.4798 0.74483 1.0193 3.75-0.31603 2.0625-0.87732 6.5241-1.2473 9.9146-0.6556 6.0078-1.579 7.2309-5.5274 7.3217-0.32655 8e-3 -1.3566-3.8688-2.2889-8.6141z" fill="#a30701"/></g></svg>
