<svg width="256" height="256" version="1.1" viewBox="0 0 256 256" xmlns="http://www.w3.org/2000/svg">
 <rect width="256" height="256" rx="60" fill="#f4f2ed"/>
 <g transform="matrix(1.2918 0 0 1.2918 -28.217 -10.127)">
  <path d="m120.93 186.93-69.292-39.999v-80.001l69.292-40 69.292 40v80z" display="none" fill="#fffffd"/>
  <path d="m186.2 107.48c-22.368 0.439-17.709 14.599-33.473 18.18-16.014 3.638-18.542-39.111-34.552-39.111-16.012 0-19.559 41.526-39.608 70.034l-0.572 0.807 42.985 24.813 65.22-37.651z" fill="#36a2eb"/>
  <path d="m186.2 106.2c-7.488-9.61-12.567-20.658-23.494-20.658-19.337 0-14.249 31.545-35.62 31.545-21.373 0-23.62-33.931-47.832-2.035-7.715 10.163-13.925 21.495-18.803 32.218l60.529 34.943 65.22-37.651z" fill="#ffce56"/>
  <path d="m55.762 119.26c7.338-20.321 10.505-36.779 24.514-36.779 21.371 0 26.458 60.039 44.779 53.931 18.318-6.105 16.282-38.669 44.779-38.669 5.424 0 10.962 3.323 16.371 8.698v38.113l-65.22 37.651-65.222-37.651v-25.294z" fill="#fe6184" opacity=".8"/>
  <path d="m120.93 186.93-69.292-39.999v-80.001l69.292-40 69.292 40v80zm-61.151-44.699 61.151 35.301 61.151-35.301v-70.601l-61.151-35.301-61.151 35.301z" fill="#dbdee4"/>
 </g>
</svg>
