<?xml version="1.0" encoding="UTF-8" standalone="no"?>
<svg
   width="256"
   height="256"
   version="1.1"
   viewBox="0 0 256 256"
   id="svg149"
   sodipodi:docname="ChartJS-Dark.svg"
   inkscape:version="1.2.2 (1:1.2.2+202212051552+b0a8486541)"
   xmlns:inkscape="http://www.inkscape.org/namespaces/inkscape"
   xmlns:sodipodi="http://sodipodi.sourceforge.net/DTD/sodipodi-0.dtd"
   xmlns="http://www.w3.org/2000/svg"
   xmlns:svg="http://www.w3.org/2000/svg">
  <defs
     id="defs153" />
  <sodipodi:namedview
     id="namedview151"
     pagecolor="#ffffff"
     bordercolor="#000000"
     borderopacity="0.25"
     inkscape:showpageshadow="2"
     inkscape:pageopacity="0.0"
     inkscape:pagecheckerboard="0"
     inkscape:deskcolor="#d1d1d1"
     showgrid="false"
     inkscape:zoom="2.1875"
     inkscape:cx="128"
     inkscape:cy="128"
     inkscape:window-width="1366"
     inkscape:window-height="716"
     inkscape:window-x="0"
     inkscape:window-y="26"
     inkscape:window-maximized="1"
     inkscape:current-layer="svg149" />
  <rect
     width="256"
     height="256"
     rx="60"
     fill="#242938"
     id="rect135" />
  <g
     transform="matrix(1.2918 0 0 1.2918 -28.217 -10.127)"
     id="g147">
    <path
       d="M 120.93,186.93 51.638,146.931 V 66.93 l 69.292,-40 69.292,40 v 80 z m 0,-83.91 z"
       display="none"
       fill="#fffffd"
       id="path137" />
    <path
       d="m186.2 107.48c-22.368 0.439-17.709 14.599-33.473 18.18-16.014 3.638-18.542-39.111-34.552-39.111-16.012 0-19.559 41.526-39.608 70.034l-0.572 0.807 42.985 24.813 65.22-37.651z"
       fill="#36a2eb"
       id="path139" />
    <path
       d="m186.2 106.2c-7.488-9.61-12.567-20.658-23.494-20.658-19.337 0-14.249 31.545-35.62 31.545-21.373 0-23.62-33.931-47.832-2.035-7.715 10.163-13.925 21.495-18.803 32.218l60.529 34.943 65.22-37.651z"
       fill="#ffce56"
       id="path141" />
    <path
       d="m55.762 119.26c7.338-20.321 10.505-36.779 24.514-36.779 21.371 0 26.458 60.039 44.779 53.931 18.318-6.105 16.282-38.669 44.779-38.669 5.424 0 10.962 3.323 16.371 8.698v38.113l-65.22 37.651-65.222-37.651v-25.294z"
       fill="#fe6184"
       opacity=".8"
       id="path143" />
    <path
       d="m120.93 186.93-69.292-39.999v-80.001l69.292-40 69.292 40v80zm-61.151-44.699 61.151 35.301 61.151-35.301v-70.601l-61.151-35.301-61.151 35.301z"
       fill="#e7e9ed"
       id="path145" />
  </g>
</svg>
