<svg xmlns="http://www.w3.org/2000/svg" xmlns:xlink="http://www.w3.org/1999/xlink" width="256" zoomAndPan="magnify" viewBox="0 0 375 374.999991" height="256" preserveAspectRatio="xMidYMid meet" version="1.0">
<defs>
<clipPath id="65d29c56e1">
<path d="M 75 0 L 300 0 C 341.421875 0 375 33.578125 375 75 L 375 304.027344 C 375 345.445312 341.421875 379.027344 300 379.027344 L 75 379.027344 C 33.578125 379.027344 0 345.445312 0 304.027344 L 0 75 C 0 33.578125 33.578125 0 75 0 " clip-rule="nonzero"/>
</clipPath>
<clipPath id="8a6cbc3163">
<path d="M 54 25.519531 L 321 25.519531 L 321 353.269531 L 54 353.269531 Z M 54 25.519531 " clip-rule="nonzero"/>
</clipPath>
</defs>
<g clip-path="url(#65d29c56e1)">
<path fill="#f4f2ec" d="M 0 0 L 374.414062 0 L 374.414062 379.6875 L 0 379.6875 Z M 0 0 " fill-opacity="1" fill-rule="nonzero"/>
</g>
<g clip-path="url(#8a6cbc3163)">
<path fill="#e9460f" d="M 123.867188 123.242188 C 109.425781 136.691406 96.28125 151.304688 84.425781 167.078125 C 81.277344 170.929688 78.351562 174.941406 75.648438 179.117188 C 72.945312 183.296875 70.484375 187.609375 68.265625 192.0625 C 66.046875 196.511719 64.082031 201.074219 62.371094 205.746094 C 60.664062 210.417969 59.21875 215.167969 58.039062 220 C 56.859375 224.835938 55.957031 229.71875 55.324219 234.652344 C 54.691406 239.585938 54.335938 244.539062 54.253906 249.511719 C 54.175781 254.488281 54.375 259.449219 54.851562 264.402344 C 55.324219 269.351562 56.078125 274.261719 57.101562 279.128906 C 57.796875 281.453125 58.570312 283.75 59.421875 286.019531 C 60.277344 288.292969 61.207031 290.53125 62.210938 292.738281 C 63.214844 294.945312 64.296875 297.117188 65.449219 299.25 C 66.601562 301.382812 67.828125 303.476562 69.125 305.527344 C 70.421875 307.578125 71.785156 309.578125 73.21875 311.535156 C 74.652344 313.492188 76.148438 315.398438 77.710938 317.253906 C 79.277344 319.109375 80.898438 320.910156 82.585938 322.652344 C 84.273438 324.398438 86.015625 326.082031 87.816406 327.707031 C 89.617188 329.332031 91.472656 330.890625 93.378906 332.390625 C 95.285156 333.890625 97.242188 335.320312 99.246094 336.6875 C 101.253906 338.050781 103.300781 339.34375 105.394531 340.570312 C 107.488281 341.796875 109.621094 342.949219 111.792969 344.027344 C 113.964844 345.105469 116.171875 346.109375 118.414062 347.039062 C 120.65625 347.96875 122.925781 348.820312 125.222656 349.59375 C 127.523438 350.367188 129.84375 351.0625 132.191406 351.679688 C 134.535156 352.292969 136.902344 352.828125 139.285156 353.28125 L 139.503906 353.28125 L 139.367188 353.160156 C 136.796875 352.027344 134.3125 350.730469 131.917969 349.261719 C 129.519531 347.796875 127.234375 346.179688 125.054688 344.40625 C 122.878906 342.632812 120.828125 340.71875 118.90625 338.671875 C 116.988281 336.621094 115.210938 334.453125 113.582031 332.167969 C 111.953125 329.878906 110.484375 327.492188 109.175781 325.007812 C 107.867188 322.523438 106.730469 319.960938 105.765625 317.324219 C 104.800781 314.6875 104.019531 311.996094 103.414062 309.253906 C 102.8125 306.507812 102.394531 303.738281 102.167969 300.9375 C 102.316406 298.042969 102.636719 295.167969 103.128906 292.308594 C 103.621094 289.453125 104.277344 286.632812 105.097656 283.855469 C 105.921875 281.074219 106.90625 278.351562 108.050781 275.6875 C 109.195312 273.023438 110.492188 270.4375 111.941406 267.925781 C 113.390625 265.417969 114.980469 263 116.714844 260.675781 C 118.449219 258.355469 120.316406 256.140625 122.308594 254.039062 C 124.304688 251.933594 126.417969 249.957031 128.648438 248.101562 C 130.875 246.25 133.207031 244.53125 135.636719 242.953125 C 132.386719 250.875 133.179688 259.886719 137.6875 267.125 C 138.308594 267.996094 138.992188 268.820312 139.734375 269.59375 C 140.476562 270.367188 141.273438 271.082031 142.117188 271.742188 C 142.964844 272.398438 143.851562 272.992188 144.785156 273.523438 C 145.71875 274.050781 146.683594 274.511719 147.679688 274.902344 C 148.679688 275.289062 149.703125 275.605469 150.746094 275.847656 C 151.789062 276.089844 152.847656 276.253906 153.914062 276.34375 C 154.984375 276.429688 156.050781 276.441406 157.121094 276.375 C 158.191406 276.308594 159.25 276.167969 160.300781 275.949219 C 161.300781 275.667969 162.277344 275.320312 163.230469 274.90625 C 164.183594 274.496094 165.105469 274.019531 165.992188 273.484375 C 166.882812 272.949219 167.730469 272.355469 168.542969 271.703125 C 169.351562 271.054688 170.113281 270.351562 170.828125 269.601562 C 171.542969 268.847656 172.207031 268.050781 172.816406 267.207031 C 173.421875 266.367188 173.972656 265.488281 174.460938 264.574219 C 174.953125 263.65625 175.378906 262.714844 175.742188 261.742188 C 176.105469 260.769531 176.402344 259.773438 176.632812 258.761719 C 176.863281 257.75 177.023438 256.726562 177.117188 255.691406 C 177.210938 254.65625 177.230469 253.621094 177.1875 252.585938 C 177.140625 251.546875 177.023438 250.515625 176.839844 249.496094 C 176.652344 248.472656 176.402344 247.46875 176.082031 246.480469 C 175.761719 245.492188 175.375 244.53125 174.925781 243.59375 C 174.476562 242.660156 173.96875 241.757812 173.398438 240.890625 C 172.828125 240.019531 172.203125 239.195312 171.519531 238.410156 C 170.839844 237.628906 170.109375 236.894531 169.328125 236.207031 C 167.621094 234.820312 166.011719 233.328125 164.5 231.734375 C 162.984375 230.140625 161.578125 228.453125 160.28125 226.679688 C 158.984375 224.902344 157.804688 223.054688 156.742188 221.125 C 155.683594 219.199219 154.75 217.214844 153.945312 215.167969 C 153.140625 213.121094 152.472656 211.03125 151.9375 208.898438 C 151.398438 206.765625 151.003906 204.609375 150.742188 202.425781 C 150.484375 200.242188 150.367188 198.050781 150.390625 195.851562 C 150.410156 193.652344 150.574219 191.464844 150.878906 189.285156 C 152.078125 184.554688 153.957031 180.113281 156.511719 175.957031 C 159.066406 171.796875 162.183594 168.117188 165.859375 164.910156 C 160.328125 179.65625 175.925781 194.214844 186.410156 201.371094 C 205.015625 212.527344 222.886719 224.757812 240.027344 238.050781 C 242.320312 239.859375 244.492188 241.796875 246.550781 243.867188 C 248.605469 245.9375 250.53125 248.125 252.324219 250.429688 C 254.113281 252.734375 255.761719 255.140625 257.261719 257.644531 C 258.757812 260.148438 260.101562 262.730469 261.289062 265.398438 C 262.472656 268.066406 263.496094 270.796875 264.347656 273.585938 C 265.203125 276.375 265.886719 279.207031 266.398438 282.082031 C 266.910156 284.957031 267.242188 287.851562 267.402344 290.765625 C 267.5625 293.679688 267.546875 296.59375 267.351562 299.503906 C 266.84375 302.570312 266.128906 305.589844 265.207031 308.558594 C 264.285156 311.527344 263.167969 314.421875 261.847656 317.238281 C 260.53125 320.054688 259.027344 322.765625 257.339844 325.375 C 255.648438 327.988281 253.789062 330.46875 251.761719 332.824219 C 249.730469 335.179688 247.550781 337.386719 245.21875 339.441406 C 242.886719 341.5 240.425781 343.386719 237.835938 345.109375 C 235.246094 346.828125 232.550781 348.363281 229.75 349.714844 C 226.949219 351.0625 224.070312 352.21875 221.113281 353.171875 C 269.621094 342.386719 319.613281 303.875 320.570312 249.25 C 320.511719 246.589844 320.359375 243.933594 320.109375 241.285156 C 319.863281 238.636719 319.523438 236 319.09375 233.375 C 318.660156 230.75 318.132812 228.144531 317.519531 225.554688 C 316.902344 222.96875 316.195312 220.40625 315.398438 217.867188 C 314.601562 215.328125 313.714844 212.820312 312.738281 210.347656 C 311.765625 207.871094 310.707031 205.433594 309.558594 203.03125 C 308.414062 200.628906 307.183594 198.273438 305.871094 195.957031 C 304.558594 193.644531 303.167969 191.378906 301.695312 189.164062 C 300.222656 186.945312 298.675781 184.785156 297.050781 182.679688 C 295.425781 180.570312 293.730469 178.523438 291.960938 176.535156 C 290.191406 174.550781 288.355469 172.625 286.453125 170.769531 C 284.546875 168.910156 282.582031 167.121094 280.550781 165.402344 C 278.519531 163.683594 276.429688 162.039062 274.285156 160.46875 C 272.136719 158.894531 269.9375 157.402344 267.6875 155.984375 C 265.433594 154.566406 263.136719 153.230469 260.789062 151.976562 C 258.445312 150.722656 256.054688 149.554688 253.628906 148.464844 L 251.851562 148.464844 C 252.742188 150.609375 253.164062 152.917969 253.082031 155.238281 C 253.054688 155.511719 253.109375 155.785156 253.082031 156.058594 C 252.824219 157.105469 252.496094 158.128906 252.097656 159.128906 C 251.695312 160.132812 251.230469 161.097656 250.695312 162.035156 C 250.160156 162.972656 249.5625 163.863281 248.90625 164.71875 C 248.246094 165.570312 247.53125 166.375 246.757812 167.125 C 245.988281 167.878906 245.167969 168.574219 244.300781 169.214844 C 243.433594 169.851562 242.523438 170.429688 241.578125 170.941406 C 240.628906 171.453125 239.648438 171.898438 238.640625 172.273438 C 237.628906 172.652344 236.597656 172.957031 235.546875 173.1875 C 234.496094 173.421875 233.429688 173.578125 232.355469 173.664062 C 231.28125 173.746094 230.207031 173.757812 229.132812 173.691406 C 228.054688 173.628906 226.992188 173.488281 225.933594 173.273438 C 224.878906 173.058594 223.839844 172.773438 222.824219 172.417969 C 221.808594 172.058594 220.820312 171.632812 219.863281 171.136719 C 218.90625 170.640625 217.988281 170.082031 217.109375 169.457031 C 216.230469 168.835938 215.398438 168.152344 214.613281 167.414062 C 213.832031 166.675781 213.101562 165.886719 212.425781 165.046875 C 196.4375 144.5625 212.425781 121.25 215.105469 98.71875 C 215.304688 95.191406 215.285156 91.671875 215.042969 88.148438 C 214.804688 84.628906 214.34375 81.136719 213.664062 77.671875 C 212.984375 74.207031 212.089844 70.800781 210.980469 67.449219 C 209.875 64.097656 208.5625 60.832031 207.042969 57.644531 C 205.523438 54.457031 203.8125 51.378906 201.90625 48.410156 C 200 45.4375 197.914062 42.597656 195.652344 39.890625 C 193.390625 37.179688 190.96875 34.625 188.382812 32.21875 C 185.800781 29.816406 183.078125 27.582031 180.210938 25.519531 C 191.902344 45.007812 176.332031 70.585938 165 85.140625 C 153.636719 99.699219 137.222656 110.542969 123.867188 123.242188 Z M 123.867188 123.242188 " fill-opacity="1" fill-rule="nonzero"/>
</g>
</svg>