<svg xmlns="http://www.w3.org/2000/svg" xmlns:xlink="http://www.w3.org/1999/xlink" width="256" zoomAndPan="magnify" viewBox="0 0 375 374.999991" height="256" preserveAspectRatio="xMidYMid meet" version="1.0">
<defs>
<clipPath id="993b5bca7c">
<path d="M 75 0 L 300 0 C 341.421875 0 375 33.578125 375 75 L 375 304.027344 C 375 345.445312 341.421875 379.027344 300 379.027344 L 75 379.027344 C 33.578125 379.027344 0 345.445312 0 304.027344 L 0 75 C 0 33.578125 33.578125 0 75 0 " clip-rule="nonzero"/>
</clipPath>
<clipPath id="aa0b2c4580">
<path d="M 65 37.5 L 310 37.5 L 310 337.5 L 65 337.5 Z M 65 37.5 " clip-rule="nonzero"/>
</clipPath>
</defs>
<g clip-path="url(#993b5bca7c)">
<path fill="#242938" d="M 0 0 L 374.414062 0 L 374.414062 379.6875 L 0 379.6875 Z M 0 0 " fill-opacity="1" fill-rule="nonzero"/>
</g>
<g clip-path="url(#aa0b2c4580)">
<path fill="#e9460f" d="M 129.363281 126.949219 C 116.144531 139.261719 104.113281 152.636719 93.261719 167.074219 C 90.378906 170.597656 87.699219 174.273438 85.226562 178.09375 C 82.753906 181.917969 80.5 185.867188 78.46875 189.941406 C 76.4375 194.015625 74.640625 198.191406 73.074219 202.46875 C 71.511719 206.742188 70.1875 211.09375 69.109375 215.515625 C 68.03125 219.9375 67.203125 224.410156 66.621094 228.925781 C 66.042969 233.441406 65.71875 237.976562 65.644531 242.527344 C 65.574219 247.082031 65.753906 251.625 66.191406 256.15625 C 66.625 260.6875 67.3125 265.183594 68.25 269.636719 C 68.886719 271.765625 69.59375 273.867188 70.375 275.945312 C 71.15625 278.023438 72.007812 280.074219 72.925781 282.09375 C 73.847656 284.113281 74.835938 286.101562 75.890625 288.054688 C 76.949219 290.007812 78.070312 291.921875 79.253906 293.800781 C 80.441406 295.675781 81.691406 297.507812 83.003906 299.300781 C 84.3125 301.09375 85.6875 302.835938 87.117188 304.535156 C 88.546875 306.230469 90.035156 307.878906 91.578125 309.476562 C 93.121094 311.070312 94.714844 312.613281 96.363281 314.101562 C 98.011719 315.589844 99.710938 317.019531 101.457031 318.390625 C 103.203125 319.761719 104.992188 321.070312 106.828125 322.320312 C 108.664062 323.570312 110.539062 324.753906 112.457031 325.875 C 114.371094 326.996094 116.324219 328.050781 118.3125 329.039062 C 120.300781 330.027344 122.320312 330.949219 124.371094 331.796875 C 126.421875 332.648438 128.5 333.425781 130.605469 334.136719 C 132.707031 334.84375 134.835938 335.480469 136.980469 336.042969 C 139.128906 336.605469 141.292969 337.097656 143.476562 337.511719 L 143.675781 337.511719 L 143.550781 337.398438 C 141.199219 336.363281 138.925781 335.175781 136.730469 333.832031 C 134.539062 332.492188 132.445312 331.007812 130.453125 329.386719 C 128.457031 327.761719 126.582031 326.011719 124.824219 324.136719 C 123.066406 322.261719 121.441406 320.277344 119.949219 318.183594 C 118.457031 316.089844 117.113281 313.90625 115.914062 311.632812 C 114.71875 309.355469 113.675781 307.011719 112.792969 304.597656 C 111.910156 302.183594 111.195312 299.71875 110.644531 297.210938 C 110.089844 294.699219 109.710938 292.164062 109.5 289.601562 C 109.636719 286.949219 109.933594 284.316406 110.378906 281.703125 C 110.828125 279.085938 111.429688 276.507812 112.183594 273.960938 C 112.9375 271.417969 113.835938 268.925781 114.886719 266.488281 C 115.933594 264.050781 117.117188 261.683594 118.445312 259.382812 C 119.773438 257.085938 121.230469 254.875 122.816406 252.746094 C 124.40625 250.621094 126.113281 248.59375 127.9375 246.671875 C 129.765625 244.746094 131.699219 242.933594 133.738281 241.238281 C 135.777344 239.539062 137.910156 237.96875 140.136719 236.523438 C 137.164062 243.773438 137.886719 252.023438 142.011719 258.648438 C 142.582031 259.449219 143.207031 260.203125 143.886719 260.910156 C 144.566406 261.617188 145.292969 262.273438 146.070312 262.875 C 146.84375 263.476562 147.65625 264.019531 148.511719 264.503906 C 149.363281 264.988281 150.246094 265.410156 151.160156 265.765625 C 152.074219 266.121094 153.011719 266.410156 153.964844 266.632812 C 154.921875 266.855469 155.890625 267.003906 156.867188 267.085938 C 157.84375 267.167969 158.824219 267.179688 159.804688 267.117188 C 160.78125 267.058594 161.753906 266.925781 162.710938 266.726562 C 163.628906 266.46875 164.519531 266.148438 165.394531 265.773438 C 166.265625 265.394531 167.109375 264.960938 167.921875 264.46875 C 168.738281 263.980469 169.515625 263.4375 170.253906 262.839844 C 170.996094 262.246094 171.695312 261.605469 172.347656 260.914062 C 173.003906 260.226562 173.609375 259.496094 174.167969 258.726562 C 174.722656 257.957031 175.226562 257.152344 175.675781 256.3125 C 176.125 255.476562 176.515625 254.609375 176.847656 253.71875 C 177.179688 252.832031 177.449219 251.921875 177.660156 250.996094 C 177.871094 250.066406 178.019531 249.132812 178.105469 248.183594 C 178.1875 247.238281 178.210938 246.289062 178.167969 245.339844 C 178.125 244.390625 178.019531 243.449219 177.847656 242.511719 C 177.679688 241.578125 177.449219 240.65625 177.15625 239.753906 C 176.863281 238.847656 176.511719 237.96875 176.101562 237.113281 C 175.6875 236.253906 175.222656 235.429688 174.699219 234.632812 C 174.179688 233.839844 173.605469 233.085938 172.980469 232.367188 C 172.359375 231.648438 171.6875 230.976562 170.976562 230.351562 C 169.414062 229.078125 167.941406 227.714844 166.554688 226.253906 C 165.167969 224.796875 163.882812 223.253906 162.695312 221.628906 C 161.503906 220.003906 160.425781 218.308594 159.457031 216.546875 C 158.488281 214.78125 157.632812 212.964844 156.898438 211.089844 C 156.160156 209.21875 155.546875 207.304688 155.054688 205.351562 C 154.566406 203.402344 154.199219 201.425781 153.964844 199.425781 C 153.726562 197.425781 153.617188 195.421875 153.640625 193.410156 C 153.660156 191.398438 153.808594 189.394531 154.085938 187.398438 C 155.1875 183.070312 156.90625 179.003906 159.246094 175.199219 C 161.582031 171.394531 164.433594 168.023438 167.800781 165.085938 C 162.738281 178.585938 177.011719 191.914062 186.613281 198.460938 C 203.640625 208.675781 220 219.867188 235.6875 232.039062 C 237.785156 233.691406 239.777344 235.464844 241.660156 237.359375 C 243.542969 239.257812 245.304688 241.257812 246.941406 243.367188 C 248.582031 245.476562 250.089844 247.679688 251.460938 249.96875 C 252.835938 252.261719 254.0625 254.628906 255.148438 257.070312 C 256.234375 259.511719 257.167969 262.007812 257.949219 264.5625 C 258.734375 267.117188 259.359375 269.710938 259.824219 272.339844 C 260.292969 274.972656 260.601562 277.621094 260.746094 280.289062 C 260.894531 282.953125 260.878906 285.621094 260.699219 288.289062 C 260.234375 291.09375 259.582031 293.859375 258.738281 296.574219 C 257.894531 299.292969 256.867188 301.941406 255.664062 304.519531 C 254.457031 307.097656 253.078125 309.578125 251.535156 311.96875 C 249.988281 314.359375 248.285156 316.628906 246.425781 318.785156 C 244.570312 320.941406 242.574219 322.960938 240.441406 324.84375 C 238.304688 326.726562 236.054688 328.457031 233.683594 330.03125 C 231.3125 331.605469 228.84375 333.007812 226.28125 334.246094 C 223.71875 335.480469 221.082031 336.539062 218.375 337.414062 C 262.773438 327.539062 308.539062 292.289062 309.414062 242.289062 C 309.359375 239.851562 309.21875 237.421875 308.992188 235 C 308.765625 232.574219 308.453125 230.160156 308.058594 227.757812 C 307.664062 225.355469 307.183594 222.96875 306.617188 220.601562 C 306.054688 218.230469 305.40625 215.886719 304.675781 213.5625 C 303.945312 211.238281 303.136719 208.945312 302.246094 206.675781 C 301.351562 204.410156 300.382812 202.179688 299.332031 199.980469 C 298.285156 197.785156 297.160156 195.625 295.957031 193.507812 C 294.757812 191.390625 293.484375 189.316406 292.136719 187.289062 C 290.789062 185.257812 289.371094 183.28125 287.882812 181.351562 C 286.398438 179.421875 284.84375 177.550781 283.226562 175.730469 C 281.605469 173.910156 279.925781 172.152344 278.183594 170.453125 C 276.4375 168.75 274.636719 167.113281 272.78125 165.539062 C 270.921875 163.96875 269.007812 162.460938 267.046875 161.023438 C 265.082031 159.582031 263.066406 158.214844 261.007812 156.917969 C 258.945312 155.621094 256.839844 154.398438 254.691406 153.25 C 252.546875 152.101562 250.359375 151.03125 248.136719 150.039062 L 246.511719 150.039062 C 247.324219 152 247.710938 154.113281 247.636719 156.238281 C 247.613281 156.488281 247.664062 156.738281 247.636719 156.988281 C 247.402344 157.945312 247.101562 158.882812 246.734375 159.796875 C 246.371094 160.714844 245.941406 161.601562 245.453125 162.457031 C 244.964844 163.3125 244.417969 164.132812 243.8125 164.914062 C 243.210938 165.691406 242.554688 166.429688 241.851562 167.117188 C 241.144531 167.808594 240.394531 168.445312 239.601562 169.027344 C 238.804688 169.613281 237.976562 170.140625 237.105469 170.609375 C 236.238281 171.078125 235.34375 171.484375 234.417969 171.828125 C 233.496094 172.175781 232.550781 172.453125 231.585938 172.664062 C 230.625 172.878906 229.652344 173.023438 228.667969 173.101562 C 227.683594 173.179688 226.699219 173.1875 225.714844 173.128906 C 224.730469 173.066406 223.753906 172.941406 222.789062 172.746094 C 221.820312 172.550781 220.871094 172.289062 219.941406 171.960938 C 219.011719 171.632812 218.109375 171.242188 217.234375 170.789062 C 216.355469 170.335938 215.515625 169.824219 214.710938 169.253906 C 213.90625 168.679688 213.144531 168.058594 212.425781 167.382812 C 211.710938 166.703125 211.042969 165.980469 210.425781 165.210938 C 195.789062 146.460938 210.425781 125.125 212.875 104.5 C 213.058594 101.273438 213.042969 98.050781 212.820312 94.828125 C 212.601562 91.605469 212.179688 88.40625 211.558594 85.238281 C 210.933594 82.066406 210.117188 78.949219 209.101562 75.882812 C 208.089844 72.8125 206.886719 69.820312 205.496094 66.90625 C 204.105469 63.988281 202.539062 61.171875 200.792969 58.453125 C 199.050781 55.734375 197.144531 53.132812 195.070312 50.652344 C 193 48.175781 190.78125 45.832031 188.417969 43.632812 C 186.054688 41.433594 183.558594 39.386719 180.9375 37.5 C 191.636719 55.335938 177.386719 78.75 167.011719 92.074219 C 156.613281 105.398438 141.585938 115.324219 129.363281 126.949219 Z M 129.363281 126.949219 " fill-opacity="1" fill-rule="nonzero"/>
</g>
</svg>