<svg width="256" height="256" viewBox="0 0 256 256" fill="none" xmlns="http://www.w3.org/2000/svg">
<rect width="256" height="256" rx="60" fill="#F4F2ED"/>
<path d="M 229.015 88.504 L 133.038 24.519 C 129.762 22.501 126.265 22.486 122.962 24.519 L 26.985 88.504 C 24.525 90.144 23 93.075 23 96.003 L 23 159.987 C 23 162.918 24.525 165.847 26.985 167.486 L 122.962 231.481 C 126.236 233.498 129.735 233.516 133.038 231.481 L 229.015 167.486 C 231.475 165.847 233 162.918 233 159.989 L 233 96.004 C 233 93.075 231.475 90.144 229.015 88.504 Z M 137.025 48.893 L 207.687 96.003 L 176.163 117.098 L 137.024 90.963 L 137.024 48.896 L 137.025 48.893 Z M 118.976 48.893 L 118.976 90.964 L 79.834 117.097 L 48.311 96.004 L 118.976 48.893 Z M 41.047 112.877 L 63.664 127.995 L 41.047 143.114 L 41.047 112.877 Z M 118.976 207.098 L 48.311 159.987 L 79.834 138.894 L 118.976 165.027 L 118.976 207.098 Z M 128 149.323 L 96.126 127.995 L 128 106.667 L 159.874 127.995 L 128 149.323 Z M 137.024 207.098 L 137.024 165.027 L 176.163 138.894 L 207.687 159.987 L 137.025 207.098 L 137.024 207.098 Z M 214.954 143.114 L 192.336 127.995 L 214.954 112.879 L 214.954 143.114 Z" fill="#000000"/>
</svg>