<svg width="256" height="256" viewBox="0 0 256 256" fill="none" xmlns="http://www.w3.org/2000/svg">
<g clip-path="url(#clip0_223_881)">
<path d="M196 0H60C26.8629 0 0 26.8629 0 60V196C0 229.137 26.8629 256 60 256H196C229.137 256 256 229.137 256 196V60C256 26.8629 229.137 0 196 0Z" fill="#242938"/>
<path d="M64.9583 106.128L45.1041 86.189C34.1513 97.1653 28 112.038 28 127.545C28 143.051 34.1513 157.924 45.1041 168.9L65.0427 148.962C59.3616 143.287 56.1624 135.592 56.1466 127.562C56.1307 119.533 59.2995 111.824 64.9583 106.128Z" fill="#E8710A"/>
<path d="M45.1035 86.1891L64.9576 106.128C67.7745 103.307 71.1197 101.07 74.8018 99.5437C78.484 98.0172 82.4309 97.2315 86.4169 97.2315C90.403 97.2315 94.3499 98.0172 98.0321 99.5437C101.714 101.07 105.059 103.307 107.876 106.128L122.323 81.3734L121.478 80.6975C110.21 72.2903 96.292 68.2188 82.2688 69.2271C68.2456 70.2354 55.0536 76.2562 45.1035 86.1891Z" fill="#F9AB00"/>
<path d="M122.408 173.715L107.876 149.046C105.059 151.866 101.714 154.103 98.0321 155.63C94.3499 157.156 90.403 157.942 86.4169 157.942C82.4309 157.942 78.484 157.156 74.8018 155.63C71.1197 154.103 67.7745 151.866 64.9576 149.046L45.1035 168.984C55.0337 178.829 68.1593 184.794 82.1058 185.801C96.0523 186.808 109.899 182.791 121.141 174.476L122.07 173.715" fill="#F9AB00"/>
<path d="M127.985 86.1886C117.032 97.165 110.881 112.038 110.881 127.544C110.881 143.051 117.032 157.924 127.985 168.9L147.924 148.961C142.232 143.27 139.035 135.551 139.035 127.502C139.035 119.453 142.232 111.734 147.924 106.043C153.615 100.351 161.334 97.154 169.383 97.154C177.432 97.154 185.151 100.351 190.842 106.043L210.865 86.1886C205.427 80.7399 198.968 76.417 191.857 73.4676C184.746 70.5182 177.123 69 169.425 69C161.727 69 154.104 70.5182 146.993 73.4676C139.883 76.417 133.423 80.7399 127.985 86.1886Z" fill="#F9AB00"/>
<path d="M210.865 86.189L191.011 106.128C196.702 111.819 199.899 119.538 199.899 127.587C199.899 135.636 196.702 143.355 191.011 149.046C185.319 154.738 177.6 157.935 169.551 157.935C161.502 157.935 153.783 154.738 148.092 149.046L127.984 168.985C138.964 179.975 153.86 186.154 169.395 186.162C177.087 186.166 184.705 184.655 191.813 181.715C198.921 178.775 205.38 174.463 210.822 169.027C216.264 163.591 220.582 157.135 223.53 150.03C226.477 142.925 227.996 135.309 228 127.617C228.004 119.925 226.493 112.307 223.553 105.199C220.612 98.0905 216.301 91.631 210.865 86.189Z" fill="#E8710A"/>
</g>
<defs>
<clipPath id="clip0_223_881">
<rect width="256" height="256" fill="white"/>
</clipPath>
</defs>
</svg>
