<svg xmlns="http://www.w3.org/2000/svg" xmlns:xlink="http://www.w3.org/1999/xlink" width="256" zoomAndPan="magnify" viewBox="0 0 375 374.999991" height="256" preserveAspectRatio="xMidYMid meet" version="1.0">
<defs>
<clipPath id="044184bb10">
<path d="M 75 0 L 300 0 C 341.421875 0 375 33.578125 375 75 L 375 304.027344 C 375 345.445312 341.421875 379.027344 300 379.027344 L 75 379.027344 C 33.578125 379.027344 0 345.445312 0 304.027344 L 0 75 C 0 33.578125 33.578125 0 75 0 " clip-rule="nonzero"/>
</clipPath>
</defs>
<g clip-path="url(#044184bb10)">
<path fill="#242938" d="M 0 0 L 374.414062 0 L 374.414062 379.6875 L 0 379.6875 Z M 0 0 " fill-opacity="1" fill-rule="nonzero"/>
</g>
<path fill="#e42528" d="M 280.601562 220.761719 C 280.601562 233.125 273.925781 239.308594 261.808594 239.800781 L 113.695312 239.800781 C 101.582031 239.800781 94.90625 233.621094 94.90625 220.761719 C 94.90625 208.398438 101.582031 202.21875 113.695312 201.722656 L 262.550781 201.722656 C 274.667969 202.21875 280.601562 208.398438 280.601562 220.761719 Z M 262.550781 249.199219 L 113.695312 249.199219 C 101.582031 249.199219 94.90625 255.132812 94.90625 268.238281 C 94.90625 280.601562 101.582031 286.535156 113.695312 287.277344 L 262.550781 287.277344 C 274.667969 287.277344 281.34375 281.097656 281.34375 268.238281 C 280.601562 255.132812 274.667969 249.199219 262.550781 249.199219 Z M 308.542969 145.101562 C 296.425781 145.101562 289.75 151.28125 289.75 163.398438 L 289.75 267.496094 C 289.75 279.859375 296.425781 286.042969 308.542969 286.535156 C 326.839844 286.042969 336.484375 267.496094 336.484375 229.910156 L 336.484375 183.179688 C 336.484375 157.957031 326.839844 145.59375 308.542969 145.101562 Z M 67.707031 145.101562 C 49.40625 145.59375 39.765625 157.957031 39.765625 183.179688 L 39.765625 229.910156 C 39.765625 267.496094 49.40625 286.042969 67.707031 286.535156 C 79.820312 286.535156 86.496094 280.601562 86.496094 267.496094 L 86.496094 164.140625 C 86.003906 151.777344 79.820312 145.59375 67.707031 145.101562 Z M 308.542969 135.703125 C 308.542969 104.300781 292.222656 89.464844 262.550781 88.96875 L 113.695312 88.96875 C 83.53125 89.464844 67.707031 105.042969 67.707031 135.703125 C 86.003906 135.703125 95.648438 145.59375 95.648438 164.140625 C 95.648438 182.683594 105.289062 192.328125 123.585938 192.328125 L 253.402344 192.328125 C 271.453125 192.328125 281.34375 182.683594 281.34375 164.140625 C 280.601562 145.101562 290.988281 136.445312 308.542969 135.703125 Z M 308.542969 135.703125 " fill-opacity="1" fill-rule="nonzero"/>
</svg>