<?xml version="1.0" standalone="no"?>
<!DOCTYPE svg PUBLIC "-//W3C//DTD SVG 20010904//EN"
 "http://www.w3.org/TR/2001/REC-SVG-20010904/DTD/svg10.dtd">
<svg version="1.0" xmlns="http://www.w3.org/2000/svg"
 width="640.000000pt" height="720.000000pt" viewBox="0 0 640.000000 720.000000"
 preserveAspectRatio="xMidYMid meet">

<g transform="translate(0.000000,720.000000) scale(0.100000,-0.100000)"
fill="#e32428" stroke="none">
<path d="M1675 6189 c-108 -13 -221 -45 -314 -90 -121 -59 -231 -169 -289
-289 -51 -106 -81 -225 -89 -356 l-6 -101 79 -6 c175 -14 306 -93 373 -224 33
-66 50 -147 57 -267 16 -297 100 -422 329 -493 57 -17 127 -18 1365 -18 1238
0 1308 1 1365 18 136 42 218 105 270 207 36 72 52 148 60 283 10 183 38 267
118 354 79 86 176 129 311 140 l79 6 -6 106 c-20 366 -216 619 -540 701 -43
11 -115 24 -160 30 -99 12 -2897 12 -3002 -1z"/>
<path d="M911 5179 c-221 -27 -359 -164 -417 -414 -18 -74 -19 -132 -19 -725
0 -702 3 -757 61 -958 87 -309 277 -465 516 -424 131 23 206 82 245 195 17 49
18 114 18 1062 0 951 -1 1013 -18 1070 -44 142 -192 217 -386 194z"/>
<path d="M5318 5179 c-130 -18 -222 -89 -256 -198 -16 -52 -17 -137 -17 -1071
l0 -1015 24 -59 c30 -75 83 -128 157 -155 158 -60 324 -24 439 94 94 95 156
245 197 472 23 125 23 141 23 788 0 650 0 661 -22 747 -43 168 -128 289 -245
347 -88 44 -201 63 -300 50z"/>
<path d="M1709 4156 c-159 -43 -227 -153 -217 -353 5 -112 40 -190 106 -240
89 -67 -4 -64 1603 -61 l1454 3 52 24 c109 49 163 149 163 300 0 163 -46 251
-158 304 l-67 32 -1445 2 c-1124 1 -1455 -1 -1491 -11z"/>
<path d="M1755 3320 c-186 -28 -272 -144 -263 -356 7 -156 57 -238 177 -286
l56 -23 1455 0 1455 0 56 23 c68 27 125 80 152 141 30 67 36 229 11 308 -24
76 -96 150 -174 178 -54 19 -90 20 -1465 21 -775 1 -1432 -2 -1460 -6z"/>
</g>
</svg>
