<svg xmlns="http://www.w3.org/2000/svg" xmlns:xlink="http://www.w3.org/1999/xlink" width="256" zoomAndPan="magnify" viewBox="0 0 375 374.999991" height="256" preserveAspectRatio="xMidYMid meet" version="1.0">
<defs>
<clipPath id="50f4cd6ab8">
<path d="M 75 0 L 300 0 C 341.421875 0 375 33.578125 375 75 L 375 304.027344 C 375 345.445312 341.421875 379.027344 300 379.027344 L 75 379.027344 C 33.578125 379.027344 0 345.445312 0 304.027344 L 0 75 C 0 33.578125 33.578125 0 75 0 " clip-rule="nonzero"/>
</clipPath>
</defs>
<g clip-path="url(#50f4cd6ab8)">
<path fill="#f4f2ec" d="M 0 0 L 374.414062 0 L 374.414062 379.6875 L 0 379.6875 Z M 0 0 " fill-opacity="1" fill-rule="nonzero"/>
</g>
<path fill="#e42528" d="M 277.78125 221.371094 C 277.78125 233.441406 271.261719 239.476562 259.433594 239.960938 L 114.832031 239.960938 C 103 239.960938 96.484375 233.925781 96.484375 221.371094 C 96.484375 209.300781 103 203.265625 114.832031 202.785156 L 260.15625 202.785156 C 271.984375 203.265625 277.78125 209.300781 277.78125 221.371094 Z M 260.15625 249.132812 L 114.832031 249.132812 C 103 249.132812 96.484375 254.925781 96.484375 267.722656 C 96.484375 279.792969 103 285.585938 114.832031 286.308594 L 260.15625 286.308594 C 271.984375 286.308594 278.503906 280.273438 278.503906 267.722656 C 277.78125 254.925781 271.984375 249.132812 260.15625 249.132812 Z M 305.058594 147.5 C 293.230469 147.5 286.710938 153.535156 286.710938 165.367188 L 286.710938 266.996094 C 286.710938 279.066406 293.230469 285.101562 305.058594 285.585938 C 322.921875 285.101562 332.335938 266.996094 332.335938 230.304688 L 332.335938 184.679688 C 332.335938 160.054688 322.921875 147.984375 305.058594 147.5 Z M 69.929688 147.5 C 52.066406 147.984375 42.648438 160.054688 42.648438 184.679688 L 42.648438 230.304688 C 42.648438 266.996094 52.066406 285.101562 69.929688 285.585938 C 81.757812 285.585938 88.277344 279.792969 88.277344 266.996094 L 88.277344 166.089844 C 87.792969 154.019531 81.757812 147.984375 69.929688 147.5 Z M 305.058594 138.328125 C 305.058594 107.667969 289.125 93.183594 260.15625 92.703125 L 114.832031 92.703125 C 85.378906 93.183594 69.929688 108.394531 69.929688 138.328125 C 87.792969 138.328125 97.207031 147.984375 97.207031 166.089844 C 97.207031 184.195312 106.621094 193.609375 124.488281 193.609375 L 251.226562 193.609375 C 268.847656 193.609375 278.503906 184.195312 278.503906 166.089844 C 277.78125 147.5 287.917969 139.050781 305.058594 138.328125 Z M 305.058594 138.328125 " fill-opacity="1" fill-rule="nonzero"/>
</svg>