<?xml version="1.0" standalone="no"?>
<!DOCTYPE svg PUBLIC "-//W3C//DTD SVG 20010904//EN"
 "http://www.w3.org/TR/2001/REC-SVG-20010904/DTD/svg10.dtd">
<svg version="1.0" xmlns="http://www.w3.org/2000/svg"
 width="320.000000pt" height="320.000000pt" viewBox="0 0 320.000000 320.000000"
 preserveAspectRatio="xMidYMid meet">

<g transform="translate(0.000000,320.000000) scale(0.100000,-0.100000)"
fill="#000000" stroke="none">
<path d="M171 1348 c12 -29 54 -137 95 -240 l73 -188 -93 -237 -94 -238 1446
-3 c795 -1 1447 0 1449 2 2 2 -37 106 -87 232 -49 126 -90 236 -90 245 0 9 41
119 90 243 49 125 90 229 90 231 0 3 -652 5 -1450 5 l-1450 0 21 -52z m1845
-438 c-60 -188 -61 -190 -90 -190 -18 0 -27 4 -23 13 2 6 31 92 63 190 56 170
60 177 85 177 l26 0 -61 -190z m-1416 135 c25 -13 60 -60 60 -80 0 -3 -13 -5
-29 -5 -18 0 -34 8 -43 21 -17 27 -66 29 -85 3 -7 -10 -13 -44 -13 -79 0 -35
6 -69 13 -79 19 -26 68 -24 85 3 9 13 25 21 43 21 34 0 34 -1 14 -40 -33 -65
-131 -78 -184 -26 -24 25 -26 33 -26 120 0 80 3 97 20 116 37 41 94 51 145 25z
m160 -93 c0 -121 9 -144 55 -144 46 0 55 23 55 144 l0 108 31 0 31 0 -4 -125
c-3 -121 -4 -125 -31 -152 -23 -24 -36 -28 -82 -28 -46 0 -59 4 -82 28 -27 27
-28 31 -31 152 l-4 125 31 0 31 0 0 -108z m394 98 c86 -32 90 -245 6 -287 -14
-7 -55 -13 -92 -13 l-68 0 0 155 0 155 64 0 c36 0 76 -4 90 -10z m293 -77 c17
-49 42 -118 56 -155 l26 -68 -34 0 c-29 0 -34 4 -40 30 -6 29 -8 30 -65 30
-57 0 -59 -1 -65 -30 -6 -26 -11 -30 -39 -30 l-33 0 56 155 c52 144 58 155 81
155 23 0 29 -9 57 -87z m383 72 c25 -13 60 -60 60 -80 0 -3 -13 -5 -29 -5 -18
0 -34 8 -43 21 -17 27 -66 29 -85 3 -7 -10 -13 -44 -13 -79 0 -35 6 -69 13
-79 19 -26 68 -24 85 3 9 13 25 21 43 21 34 0 34 -1 14 -40 -33 -65 -131 -78
-184 -26 -24 25 -26 33 -26 120 0 80 3 97 20 116 37 41 94 51 145 25z m450 0
c25 -13 60 -60 60 -80 0 -3 -13 -5 -29 -5 -18 0 -34 8 -43 21 -17 27 -66 29
-85 3 -7 -10 -13 -44 -13 -79 0 -35 6 -69 13 -79 19 -26 68 -24 85 3 9 13 25
21 43 21 34 0 34 -1 14 -40 -33 -65 -131 -78 -184 -26 -24 25 -26 33 -26 120
0 80 3 97 20 116 37 41 94 51 145 25z m220 -110 c0 -33 2 -35 35 -35 31 0 35
-3 35 -25 0 -22 -4 -25 -35 -25 -34 0 -35 -1 -35 -40 0 -38 -2 -40 -30 -40
-28 0 -30 2 -30 40 0 39 -1 40 -35 40 -31 0 -35 3 -35 25 0 22 4 25 35 25 33
0 35 2 35 35 0 32 2 35 30 35 28 0 30 -3 30 -35z m240 0 c0 -33 2 -35 35 -35
31 0 35 -3 35 -25 0 -22 -4 -25 -35 -25 -34 0 -35 -1 -35 -40 0 -38 -2 -40
-30 -40 -28 0 -30 2 -30 40 0 39 -1 40 -35 40 -31 0 -35 3 -35 25 0 22 4 25
35 25 33 0 35 2 35 35 0 32 2 35 30 35 28 0 30 -3 30 -35z"/>
<path d="M1060 905 l0 -108 37 6 c50 9 63 29 63 102 0 73 -13 93 -63 102 l-37
6 0 -108z"/>
<path d="M1380 936 c-5 -14 -14 -37 -20 -51 -9 -24 -8 -25 30 -25 l39 0 -16
48 c-20 60 -20 60 -33 28z"/>
</g>
</svg>
