<?xml version="1.0" standalone="no"?>
<!DOCTYPE svg PUBLIC "-//W3C//DTD SVG 20010904//EN"
 "http://www.w3.org/TR/2001/REC-SVG-20010904/DTD/svg10.dtd">
<svg version="1.0" xmlns="http://www.w3.org/2000/svg"
 width="721.000000pt" height="240.000000pt" viewBox="0 0 721.000000 240.000000"
 preserveAspectRatio="xMidYMid meet">

<g transform="translate(0.000000,240.000000) scale(0.100000,-0.100000)"
fill="#000000" stroke="none">
<path d="M5980 2139 c-66 -27 -103 -90 -104 -174 l-1 -60 -400 -687 c-231
-397 -406 -687 -414 -688 -26 0 -79 -44 -100 -81 -74 -131 65 -292 206 -238
71 26 122 113 109 184 -6 29 36 105 400 728 293 502 412 698 427 703 65 20
107 80 107 152 0 64 -18 102 -66 138 -40 31 -120 42 -164 23z m133 -100 c35
-38 35 -78 1 -118 -22 -26 -33 -31 -70 -31 -57 0 -94 35 -94 87 0 46 15 72 53
89 42 18 76 10 110 -27z m-935 -1605 c31 -35 30 -97 -3 -129 -33 -34 -93 -34
-132 -1 -22 19 -28 33 -28 64 0 90 103 131 163 66z"/>
<path d="M6670 2128 c-63 -32 -92 -85 -87 -157 l4 -55 -169 -290 c-94 -160
-200 -343 -237 -406 -38 -63 -143 -243 -234 -400 -151 -260 -169 -287 -201
-298 -132 -48 -134 -243 -2 -303 52 -23 90 -23 142 0 63 29 89 72 90 152 1 61
6 73 52 150 28 46 137 233 243 414 205 352 258 443 364 625 37 63 86 147 108
187 26 44 50 74 63 77 55 14 113 96 114 160 0 16 -9 48 -20 70 -41 85 -144
118 -230 74z m138 -71 c8 -6 21 -27 29 -44 30 -74 -46 -150 -119 -120 -42 18
-58 37 -64 79 -6 37 21 82 60 99 25 10 73 4 94 -14z m-961 -1597 c33 -12 63
-56 63 -93 0 -33 -43 -83 -76 -90 -61 -11 -114 32 -114 93 0 43 16 69 53 85
39 17 38 17 74 5z"/>
<path d="M3775 1865 c-43 -22 -55 -43 -55 -91 0 -86 57 -114 230 -114 l90 0 0
-620 0 -620 -97 0 c-122 -1 -172 -12 -200 -45 -28 -31 -30 -90 -7 -124 34 -48
60 -51 409 -51 349 0 375 3 409 51 23 34 21 93 -6 124 -29 33 -79 44 -195 45
l-93 0 0 668 c0 367 -5 685 -10 706 -5 21 -18 48 -30 60 -19 20 -33 21 -218
24 -164 2 -202 0 -227 -13z"/>
<path d="M4685 1654 c-67 -35 -95 -79 -95 -152 0 -35 7 -59 26 -89 35 -54 75
-76 139 -77 132 -1 211 134 146 251 -42 74 -143 105 -216 67z m136 -83 c83
-83 -32 -213 -124 -141 -34 27 -44 78 -23 118 31 61 99 71 147 23z"/>
<path d="M847 1419 c-59 -14 -88 -32 -214 -138 -146 -122 -166 -143 -195 -206
-22 -47 -23 -62 -23 -260 0 -286 -2 -282 220 -468 174 -146 159 -141 470 -145
170 -2 273 0 297 7 108 33 103 176 -7 201 -22 5 -142 10 -266 10 l-227 0 -58
39 c-33 22 -94 72 -137 113 l-77 73 0 165 c1 110 5 172 13 187 15 26 191 174
234 196 27 14 67 17 255 17 247 1 292 7 326 45 27 31 29 90 6 124 -33 46 -65
51 -331 50 -136 -1 -265 -5 -286 -10z"/>
<path d="M1647 1409 c-47 -36 -49 -64 -33 -526 11 -322 19 -441 31 -479 20
-68 81 -136 153 -171 54 -27 63 -28 202 -28 168 0 175 3 355 120 l100 66 6
-67 c5 -59 10 -71 38 -96 53 -47 138 -30 160 33 18 51 15 1060 -3 1103 -26 61
-85 83 -145 52 -50 -26 -52 -43 -51 -395 0 -179 -4 -339 -8 -356 -7 -24 -37
-48 -178 -137 l-169 -108 -90 0 c-110 0 -148 18 -164 77 -6 21 -15 182 -21
358 -16 526 -17 532 -71 561 -39 20 -82 17 -112 -7z"/>
<path d="M2841 1416 c-51 -28 -50 -23 -51 -598 0 -396 3 -544 12 -563 27 -59
109 -72 160 -26 l33 29 5 325 5 325 163 136 c90 75 176 143 192 151 35 18 187
21 223 4 34 -16 57 -60 57 -113 0 -104 60 -161 142 -137 52 16 70 53 70 148
-1 110 -23 166 -97 240 -80 80 -122 93 -295 93 -121 0 -130 -1 -186 -30 -32
-16 -104 -68 -159 -114 -55 -47 -103 -85 -107 -86 -5 0 -8 29 -8 65 0 75 -17
125 -51 149 -28 19 -75 20 -108 2z"/>
<path d="M4680 1048 c-63 -32 -90 -77 -90 -147 0 -71 30 -120 93 -150 54 -26
97 -27 146 -1 102 51 127 174 55 260 -54 64 -126 77 -204 38z m120 -63 c48
-25 64 -79 38 -128 -18 -34 -40 -46 -85 -47 -34 0 -46 5 -67 31 -42 50 -28
120 29 145 39 17 50 17 85 -1z"/>
</g>
</svg>
