<svg version="1.2" xmlns="http://www.w3.org/2000/svg" viewBox="0 0 256 256" width="256" height="256">
	<title>Cypress-Dark</title>
	<style>
		.s0 { fill: #242938 } 
		.s1 { fill: #ffffff } 
	</style>
	<path id="Layer" class="s0" d="m0 60c0-33.1 26.9-60 60-60h136c33.1 0 60 26.9 60 60v136c0 33.1-26.9 60-60 60h-136c-33.1 0-60-26.9-60-60z"/>
	<path id="Layer" fill-rule="evenodd" class="s1" d="m123.8 35.8h9.9q40.4 3.6 65.2 32.6c41.3 48.4 21.4 121.3-37 144.4-59.1 23.4-121.5-18.7-126-80.7v-9.9c3.6-48.2 40.1-82.6 87.9-86.4zm-1.2 58.2c-18.6-14.2-48-11.9-59.3 10.3q-8.1 16.1-3.9 35.4c6.5 30.2 39.6 39.2 63.2 21.4q0.6-0.5 0.2-1.2l-8.6-12.2q-0.5-0.6-1.1-0.2c-10.2 7.6-27.2 8.4-30.9-7.1-3.3-13.9-3.1-41.5 19.1-38.5q6.5 0.8 11.9 5 0.2 0.1 0.3 0.1 0.1 0.1 0.3 0 0.1 0 0.3-0.1 0.1 0 0.2-0.2l8.5-11.4q0.2-0.1 0.2-0.3 0-0.2 0-0.4 0-0.2-0.1-0.3-0.1-0.2-0.3-0.3zm41 58.3l-15.6-64.1q-0.1-0.2-0.2-0.3 0-0.1-0.2-0.2-0.1-0.1-0.3-0.2-0.1-0.1-0.3-0.1h-21.2q-1 0-0.7 1l27.3 86.7q0.2 0.6-0.2 1.2c-4.8 6.2-12.6 8-19.9 9q-0.8 0.2-0.7 0.9l2.1 13.8q0.1 0.8 0.9 0.7 27-1.9 38.4-22.7 2.2-3.9 9.3-25.6 10.5-31.9 20.8-64 0.3-1-0.7-1h-20.5q-0.8 0-0.9 0.8l-16.6 64.1q-0.1 0.2-0.2 0.2-0.1 0.1-0.2 0.1-0.2 0-0.3-0.1-0.1 0-0.1-0.2z"/>
</svg>