<svg xmlns="http://www.w3.org/2000/svg" width="256" height="256" fill="none" viewBox="0 0 256 256"><rect width="256" height="256" rx="60" ry="60" style="fill: #1d232a; stroke-width: 0px;"/>
  <g>
    <path d="M127.88,157.44c7.98,0,15.96-.06,23.94.01,13.48.13,23.99,10.32,24.18,23.35.19,13.12-9.9,24.18-23.15,24.48-16.61.37-33.25.43-49.86,0-13.27-.34-23.21-11.51-22.92-24.67.28-12.84,10.65-22.95,23.88-23.15,7.98-.12,15.96-.02,23.94-.02Z" style="fill: #1ad1a5; stroke-width: 0px;"/>
    <path d="M127.74,149.65c-26.71,1.05-52.16-23.05-51.77-51.99.39-28.59,23.47-51.92,52.12-51.92,28.54,0,51.81,23.46,51.93,52.09.13,28.1-23.35,52.92-52.29,51.82ZM127.86,145.64c25.72.68,48.44-21.39,48.08-47.99-.36-26.57-20.67-47.9-48.46-47.67-26.59.22-47.08,20.92-47.35,47.8-.26,26.29,21.48,47.87,47.73,47.86Z" style="fill: #4d4d4d; stroke-width: 0px;"/>
    <path d="M127.86,145.64c-26.25,0-48-21.56-47.73-47.86.27-26.88,20.76-47.58,47.35-47.8,27.79-.23,48.1,21.1,48.46,47.67.36,26.6-22.36,48.67-48.08,47.99ZM128.06,76.51c-12.05.04-21.61,9.55-21.59,21.48.02,11.7,10.09,21.64,21.77,21.47,11.78-.17,21.53-10.17,21.34-21.9-.19-11.69-9.8-21.09-21.52-21.05Z" style="fill: #fff; stroke-width: 0px;"/>
    <path d="M128.06,76.51c11.72-.04,21.33,9.36,21.52,21.05.19,11.73-9.56,21.74-21.34,21.9-11.68.16-21.75-9.77-21.77-21.47-.02-11.93,9.54-21.44,21.59-21.48Z" style="fill: #ff9903; stroke-width: 0px;"/>
  </g>
</svg>