<svg xmlns="http://www.w3.org/2000/svg" width="256" height="256" fill="none"><rect width="256" height="256" fill="#F4F2ED" rx="60"/><path fill="#01579b" d="M74.7 181.3l-30.78-30.8A20.88 20.88 0 0138 136.28c0-2.4 1.35-6.14 2.37-8.28l28.42-59.2z"/><path fill="#40c4ff" d="M180.11 74.7l-30.8-30.78c-2.68-2.7-8.28-5.92-13.01-5.92-4.08 0-8.08.82-10.66 2.37L68.81 68.79zm5.92 143.3v-31.97l-55.66-17.77-50.92 17.77L111.42 218z"/><path fill="#29b6f6" d="M68.8 164.7c0 9.51 1.19 11.84 5.9 16.6l4.75 4.73h106.58l-52.1-59.2-65.14-58.04z"/><path fill="#01579b" d="M163.53 68.78H68.8l117.24 117.23H218V112.6l-37.9-37.9c-5.32-5.34-10.04-5.92-16.57-5.92z"/><path fill="#fff" d="M75.9 182.47c-4.74-4.75-5.91-9.44-5.91-17.76V69.97L68.8 68.8v95.92c-.02 8.32-.02 10.63 7.09 17.76l3.55 3.54z" opacity=".2"/><path fill="#263238" d="M218 112.6l-1.18-1.18v73.42h-31.97l1.18 1.19H218z" opacity=".2"/><path fill="#fff" d="M180.11 74.7c-5.87-5.87-10.68-5.9-17.76-5.9H68.81l1.18 1.17h92.36c3.54 0 12.46-.6 17.76 4.74z" opacity=".2"/><radialGradient id="prefix__a" cx="71.92" cy="62.22" r="68" gradientTransform="matrix(1.32333 0 0 -1.32333 32.83 210.33)" gradientUnits="userSpaceOnUse"><stop offset="0" stop-color="#fff" stop-opacity=".1"/><stop offset="1" stop-color="#fff" stop-opacity="0"/></radialGradient><path fill="url(#prefix__a)" d="M216.82 111.42l-36.7-36.71-30.8-30.8c-2.69-2.7-8.29-5.91-13.02-5.91-4.08 0-8.08.82-10.66 2.37L68.81 68.79 40.38 128c-1.02 2.16-2.37 5.9-2.37 8.28 0 5.18 2.28 10.46 5.92 14.22l28.37 28.17c.68.83 1.47 1.68 2.4 2.62l1.19 1.18 3.54 3.55 30.8 30.79 1.18 1.18H186V186h31.97v-73.4z" opacity=".2"/></svg>