<svg xmlns="http://www.w3.org/2000/svg" xmlns:xlink="http://www.w3.org/1999/xlink" width="256" zoomAndPan="magnify" viewBox="0 0 375 374.999991" height="256" preserveAspectRatio="xMidYMid meet" version="1.0">
<defs>
<clipPath id="0ed0ad48fc">
<path d="M 75 0 L 300 0 C 341.421875 0 375 33.578125 375 75 L 375 304.027344 C 375 345.445312 341.421875 379.027344 300 379.027344 L 75 379.027344 C 33.578125 379.027344 0 345.445312 0 304.027344 L 0 75 C 0 33.578125 33.578125 0 75 0 " clip-rule="nonzero"/>
</clipPath>
</defs>
<g clip-path="url(#0ed0ad48fc)">
<path fill="#242938" d="M 0 0 L 374.414062 0 L 374.414062 379.6875 L 0 379.6875 Z M 0 0 " fill-opacity="1" fill-rule="nonzero"/>
</g>
<path fill="#ff4e80" d="M 213.691406 197.664062 C 208.390625 197.734375 214.691406 200.390625 221.613281 201.457031 C 223.523438 199.96875 225.257812 198.457031 226.804688 196.988281 C 222.496094 198.042969 218.113281 198.066406 213.691406 197.664062 M 242.140625 190.570312 C 245.296875 186.214844 247.601562 181.445312 248.40625 176.511719 C 247.699219 180.027344 245.792969 183.066406 243.992188 186.269531 C 234.085938 192.507812 243.0625 182.5625 243.988281 178.785156 C 233.339844 192.195312 242.527344 186.824219 242.140625 190.570312 M 252.644531 163.246094 C 253.285156 153.699219 250.765625 156.714844 249.917969 160.355469 C 250.902344 160.875 251.6875 167.085938 252.644531 163.246094 M 193.589844 32.777344 C 196.417969 33.285156 199.699219 33.675781 199.242188 34.347656 C 202.335938 33.671875 203.039062 33.046875 193.589844 32.777344 M 199.242188 34.347656 L 197.242188 34.761719 L 199.101562 34.597656 L 199.242188 34.347656 M 287.453125 166.863281 C 287.769531 175.433594 284.945312 179.59375 282.398438 186.957031 L 277.816406 189.246094 C 274.070312 196.527344 278.179688 193.871094 275.5 199.660156 C 269.644531 204.863281 257.738281 215.945312 253.925781 216.953125 C 251.144531 216.894531 255.808594 213.675781 256.421875 212.410156 C 248.585938 217.792969 250.136719 220.484375 238.152344 223.757812 L 237.804688 222.976562 C 208.25 236.878906 167.203125 209.328125 167.742188 171.734375 C 167.429688 174.125 166.847656 173.523438 166.191406 174.492188 C 164.667969 155.148438 175.125 135.71875 192.761719 127.792969 C 210.011719 119.25 230.234375 122.753906 242.59375 134.269531 C 235.808594 125.378906 222.296875 115.953125 206.28125 116.835938 C 190.601562 117.085938 175.925781 127.050781 171.035156 137.871094 C 162.996094 142.929688 162.0625 157.375 158.5625 160.011719 C 153.855469 194.636719 167.425781 209.589844 190.382812 227.1875 C 193.992188 229.625 191.398438 229.996094 191.886719 231.847656 C 184.261719 228.273438 177.273438 222.882812 171.535156 216.28125 C 174.578125 220.746094 177.867188 225.082031 182.121094 228.488281 C 174.925781 226.050781 165.320312 211.0625 162.511719 210.449219 C 174.914062 232.648438 212.8125 249.378906 232.660156 241.082031 C 223.476562 241.417969 211.8125 241.269531 201.492188 237.453125 C 197.160156 235.222656 191.265625 230.605469 192.320312 229.738281 C 219.402344 239.859375 247.382812 237.40625 270.816406 218.617188 C 276.777344 213.972656 283.289062 206.074219 285.171875 205.964844 C 282.335938 210.226562 285.65625 208.019531 283.476562 211.78125 C 289.421875 202.199219 280.898438 207.875 289.621094 195.230469 L 292.84375 199.667969 C 291.648438 191.71875 302.722656 182.0625 301.597656 169.484375 C 304.136719 165.636719 304.429688 173.621094 301.734375 182.472656 C 305.476562 172.65625 302.722656 171.078125 303.683594 162.976562 C 304.71875 165.699219 306.082031 168.589844 306.785156 171.464844 C 304.34375 161.980469 309.285156 155.484375 310.503906 149.976562 C 309.304688 149.441406 306.746094 154.167969 306.164062 142.964844 C 306.25 138.097656 307.519531 140.417969 308.003906 139.21875 C 307.046875 138.667969 304.542969 134.9375 303.015625 127.78125 C 304.121094 126.101562 305.96875 132.140625 307.480469 132.386719 C 306.507812 126.699219 304.839844 122.363281 304.777344 117.992188 C 300.378906 108.808594 303.222656 119.21875 299.652344 114.050781 C 294.976562 99.457031 303.535156 110.664062 304.113281 104.035156 C 311.207031 114.308594 315.25 130.234375 317.105469 136.824219 C 315.6875 128.785156 313.402344 120.996094 310.609375 113.457031 C 312.761719 114.367188 307.136719 96.914062 313.40625 108.472656 C 306.710938 83.835938 284.75 60.816406 264.546875 50.015625 C 267.015625 52.277344 270.140625 55.121094 269.023438 55.5625 C 258.972656 49.582031 260.738281 49.113281 259.300781 46.585938 C 251.117188 43.257812 250.578125 46.851562 245.160156 46.59375 C 229.730469 38.410156 226.753906 39.28125 212.558594 34.152344 L 213.203125 37.171875 C 202.980469 33.765625 201.292969 38.464844 190.25 37.183594 C 189.574219 36.65625 193.789062 35.285156 197.253906 34.777344 C 187.375 36.082031 187.835938 32.828125 178.164062 35.136719 C 180.550781 33.464844 183.066406 32.359375 185.609375 30.9375 C 177.550781 31.425781 166.371094 35.628906 169.820312 31.804688 C 156.679688 37.671875 133.332031 45.902344 120.234375 58.1875 L 119.820312 55.433594 C 113.816406 62.644531 93.644531 76.960938 92.035156 86.289062 L 90.433594 86.664062 C 87.308594 91.949219 85.289062 97.945312 82.8125 103.386719 C 78.726562 110.351562 76.820312 106.066406 77.402344 107.160156 C 69.367188 123.453125 65.375 137.140625 61.929688 148.367188 C 64.386719 152.042969 61.984375 170.472656 62.914062 185.230469 C 58.882812 258.101562 114.058594 328.851562 174.375 345.191406 C 183.214844 348.347656 196.363281 348.230469 207.542969 348.558594 C 194.347656 344.78125 192.644531 346.558594 179.792969 342.078125 C 170.519531 337.710938 168.488281 332.726562 161.921875 327.027344 L 164.523438 331.621094 C 151.640625 327.066406 157.035156 325.980469 146.550781 322.660156 L 149.332031 319.039062 C 145.15625 318.722656 138.273438 312.007812 136.390625 308.28125 L 131.828125 308.460938 C 126.339844 301.691406 123.417969 296.816406 123.628906 293.035156 L 122.152344 295.664062 C 120.480469 292.792969 101.96875 270.273438 111.574219 275.515625 C 109.785156 273.882812 107.414062 272.859375 104.84375 268.1875 L 106.800781 265.953125 C 102.175781 260.007812 98.292969 252.382812 98.585938 249.84375 C 101.050781 253.175781 102.761719 253.796875 104.457031 254.371094 C 92.785156 225.40625 92.128906 252.773438 83.289062 224.890625 L 85.160156 224.738281 C 83.722656 222.578125 82.855469 220.230469 81.703125 217.933594 L 82.511719 209.820312 C 74.109375 200.101562 80.164062 168.503906 81.375 151.175781 C 82.21875 144.128906 88.390625 136.625 93.085938 124.863281 L 90.226562 124.371094 C 95.695312 114.832031 121.453125 86.058594 133.382812 87.539062 C 139.160156 80.28125 132.238281 87.511719 131.109375 85.683594 C 143.800781 72.546875 147.789062 76.402344 156.355469 74.042969 C 165.59375 68.558594 148.429688 76.179688 152.808594 71.949219 C 168.777344 67.871094 164.125 62.675781 184.957031 60.605469 C 187.160156 61.855469 179.859375 62.535156 178.027344 64.160156 C 191.332031 57.652344 220.136719 59.132812 238.84375 67.773438 C 260.550781 77.917969 284.9375 107.90625 285.902344 136.121094 L 286.996094 136.414062 C 286.441406 147.628906 288.714844 160.597656 284.777344 172.511719 L 287.453125 166.863281 M 155.835938 204.9375 L 155.089844 208.65625 C 158.574219 213.390625 161.339844 218.515625 165.785156 222.210938 C 162.585938 215.964844 160.207031 213.382812 155.835938 204.9375 M 164.070312 204.613281 C 162.226562 202.574219 161.132812 200.121094 159.910156 197.675781 C 161.082031 201.972656 163.472656 205.667969 165.699219 209.425781 L 164.070312 204.613281 M 309.800781 172.9375 L 309.023438 174.894531 C 307.59375 185.035156 304.511719 195.066406 299.785156 204.375 C 305.007812 194.558594 308.382812 183.820312 309.800781 172.9375 M 194.640625 30.234375 C 198.222656 28.917969 203.449219 29.515625 207.25 28.652344 C 202.296875 29.066406 197.363281 29.316406 192.492188 29.941406 L 194.640625 30.234375 M 68.816406 97.140625 C 69.644531 104.785156 63.0625 107.75 70.269531 102.710938 C 74.136719 94.011719 68.761719 100.3125 68.816406 97.140625 M 60.34375 132.523438 C 62.003906 127.429688 62.304688 124.363281 62.9375 121.417969 C 58.351562 127.28125 60.828125 128.535156 60.34375 132.523438 " fill-opacity="1" fill-rule="nonzero"/>
</svg>