<svg xmlns="http://www.w3.org/2000/svg" xmlns:xlink="http://www.w3.org/1999/xlink" width="256" zoomAndPan="magnify" viewBox="0 0 375 374.999991" height="256" preserveAspectRatio="xMidYMid meet" version="1.0">
<defs>
<clipPath id="88ea5350df">
<path d="M 75 0 L 300 0 C 341.421875 0 375 33.578125 375 75 L 375 304.027344 C 375 345.445312 341.421875 379.027344 300 379.027344 L 75 379.027344 C 33.578125 379.027344 0 345.445312 0 304.027344 L 0 75 C 0 33.578125 33.578125 0 75 0 " clip-rule="nonzero"/>
</clipPath>
</defs>
<g clip-path="url(#88ea5350df)">
<path fill="#f4f2ec" d="M 0 0 L 374.414062 0 L 374.414062 379.6875 L 0 379.6875 Z M 0 0 " fill-opacity="1" fill-rule="nonzero"/>
</g>
<path fill="#a80030" d="M 212.65625 198.679688 C 207.371094 198.75 213.65625 201.402344 220.5625 202.464844 C 222.46875 200.976562 224.199219 199.472656 225.742188 198.007812 C 221.441406 199.058594 217.070312 199.082031 212.65625 198.679688 M 241.042969 191.605469 C 244.191406 187.257812 246.488281 182.5 247.296875 177.578125 C 246.589844 181.082031 244.6875 184.113281 242.890625 187.308594 C 233.007812 193.535156 241.960938 183.617188 242.886719 179.84375 C 232.261719 193.222656 241.425781 187.867188 241.042969 191.605469 M 251.523438 164.339844 C 252.160156 154.8125 249.648438 157.824219 248.800781 161.460938 C 249.785156 161.972656 250.566406 168.171875 251.523438 164.339844 M 192.601562 34.167969 C 195.425781 34.675781 198.699219 35.066406 198.242188 35.734375 C 201.328125 35.0625 202.03125 34.441406 192.601562 34.167969 M 198.242188 35.738281 L 196.246094 36.152344 L 198.101562 35.988281 L 198.242188 35.738281 M 286.253906 167.949219 C 286.566406 176.503906 283.746094 180.652344 281.210938 187.996094 L 276.636719 190.28125 C 272.898438 197.546875 277 194.894531 274.324219 200.671875 C 268.484375 205.863281 256.605469 216.921875 252.800781 217.925781 C 250.027344 217.867188 254.679688 214.65625 255.289062 213.390625 C 247.476562 218.765625 249.019531 221.449219 237.0625 224.714844 L 236.714844 223.933594 C 207.230469 237.804688 166.273438 210.316406 166.816406 172.808594 C 166.5 175.195312 165.921875 174.59375 165.265625 175.558594 C 163.746094 156.261719 174.179688 136.878906 191.777344 128.96875 C 208.988281 120.445312 229.164062 123.941406 241.492188 135.429688 C 234.722656 126.558594 221.242188 117.15625 205.265625 118.039062 C 189.621094 118.285156 174.980469 128.226562 170.097656 139.023438 C 162.078125 144.074219 161.148438 158.484375 157.65625 161.117188 C 152.957031 195.660156 166.496094 210.582031 189.402344 228.136719 C 193.003906 230.566406 190.414062 230.9375 190.90625 232.785156 C 183.296875 229.222656 176.324219 223.839844 170.597656 217.257812 C 173.632812 221.707031 176.917969 226.035156 181.160156 229.433594 C 173.980469 227.003906 164.398438 212.046875 161.597656 211.4375 C 173.96875 233.585938 211.78125 250.277344 231.585938 242 C 222.421875 242.332031 210.78125 242.183594 200.488281 238.378906 C 196.164062 236.15625 190.285156 231.546875 191.335938 230.679688 C 218.355469 240.78125 246.273438 238.332031 269.652344 219.585938 C 275.601562 214.953125 282.097656 207.074219 283.976562 206.960938 C 281.144531 211.214844 284.457031 209.011719 282.285156 212.765625 C 288.214844 203.207031 279.710938 208.871094 288.414062 196.253906 L 291.632812 200.679688 C 290.4375 192.75 301.484375 183.113281 300.363281 170.5625 C 302.898438 166.726562 303.191406 174.691406 300.5 183.523438 C 304.230469 173.730469 301.484375 172.15625 302.445312 164.070312 C 303.480469 166.789062 304.839844 169.671875 305.539062 172.542969 C 303.105469 163.078125 308.035156 156.597656 309.25 151.101562 C 308.054688 150.570312 305.503906 155.285156 304.917969 144.105469 C 305.003906 139.25 306.269531 141.5625 306.757812 140.367188 C 305.800781 139.816406 303.304688 136.097656 301.777344 128.957031 C 302.882812 127.28125 304.726562 133.304688 306.230469 133.554688 C 305.265625 127.878906 303.601562 123.550781 303.535156 119.191406 C 299.148438 110.027344 301.984375 120.414062 298.425781 115.257812 C 293.757812 100.695312 302.300781 111.878906 302.875 105.265625 C 309.949219 115.515625 313.984375 131.402344 315.835938 137.980469 C 314.421875 129.960938 312.140625 122.1875 309.351562 114.667969 C 311.5 115.574219 305.890625 98.164062 312.148438 109.691406 C 305.464844 85.109375 283.554688 62.144531 263.398438 51.367188 C 265.863281 53.625 268.980469 56.460938 267.863281 56.902344 C 257.835938 50.9375 259.597656 50.46875 258.164062 47.949219 C 249.996094 44.625 249.460938 48.214844 244.054688 47.957031 C 228.660156 39.792969 225.691406 40.65625 211.527344 35.542969 L 212.171875 38.554688 C 201.972656 35.15625 200.289062 39.84375 189.269531 38.566406 C 188.59375 38.039062 192.800781 36.671875 196.257812 36.167969 C 186.402344 37.46875 186.863281 34.222656 177.214844 36.523438 C 179.59375 34.859375 182.101562 33.753906 184.640625 32.332031 C 176.601562 32.824219 165.449219 37.015625 168.890625 33.203125 C 155.777344 39.054688 132.484375 47.265625 119.414062 59.523438 L 119.003906 56.777344 C 113.011719 63.96875 92.882812 78.25 91.28125 87.558594 L 89.679688 87.933594 C 86.5625 93.207031 84.550781 99.1875 82.078125 104.621094 C 78 111.566406 76.101562 107.292969 76.679688 108.382812 C 68.660156 124.636719 64.679688 138.296875 61.242188 149.496094 C 63.695312 153.164062 61.296875 171.550781 62.226562 186.277344 C 58.203125 258.980469 113.253906 329.570312 173.433594 345.871094 C 182.253906 349.023438 195.367188 348.902344 206.523438 349.230469 C 193.359375 345.460938 191.65625 347.238281 178.835938 342.761719 C 169.582031 338.40625 167.558594 333.433594 161.003906 327.75 L 163.601562 332.332031 C 150.75 327.785156 156.128906 326.703125 145.671875 323.394531 L 148.445312 319.777344 C 144.28125 319.460938 137.414062 312.761719 135.535156 309.046875 L 130.980469 309.226562 C 125.507812 302.472656 122.589844 297.605469 122.800781 293.835938 L 121.328125 296.457031 C 119.660156 293.589844 101.191406 271.125 110.773438 276.355469 C 108.992188 274.726562 106.625 273.707031 104.058594 269.042969 L 106.011719 266.8125 C 101.394531 260.882812 97.523438 253.273438 97.816406 250.742188 C 100.273438 254.066406 101.980469 254.6875 103.671875 255.257812 C 92.027344 226.359375 91.375 253.664062 82.554688 225.84375 L 84.417969 225.691406 C 82.988281 223.535156 82.121094 221.195312 80.96875 218.902344 L 81.78125 210.808594 C 73.394531 201.113281 79.433594 169.589844 80.644531 152.296875 C 81.484375 145.265625 87.644531 137.78125 92.328125 126.046875 L 89.476562 125.554688 C 94.933594 116.039062 120.628906 87.332031 132.53125 88.808594 C 138.296875 81.566406 131.390625 88.78125 130.261719 86.957031 C 142.925781 73.851562 146.90625 77.695312 155.453125 75.339844 C 164.671875 69.867188 147.542969 77.472656 151.914062 73.253906 C 167.847656 69.183594 163.203125 64.003906 183.992188 61.9375 C 186.1875 63.183594 178.902344 63.859375 177.074219 65.480469 C 190.351562 58.988281 219.089844 60.464844 237.753906 69.085938 C 259.410156 79.207031 283.742188 109.128906 284.703125 137.277344 L 285.796875 137.570312 C 285.242188 148.757812 287.507812 161.699219 283.582031 173.585938 L 286.253906 167.949219 M 154.933594 205.9375 L 154.191406 209.644531 C 157.667969 214.371094 160.425781 219.484375 164.863281 223.171875 C 161.671875 216.941406 159.296875 214.363281 154.933594 205.9375 M 163.148438 205.617188 C 161.308594 203.578125 160.21875 201.132812 159 198.691406 C 160.167969 202.980469 162.554688 206.664062 164.773438 210.414062 L 163.148438 205.617188 M 308.550781 174.011719 L 307.769531 175.960938 C 306.347656 186.078125 303.273438 196.089844 298.554688 205.375 C 303.765625 195.582031 307.132812 184.867188 308.550781 174.011719 M 193.648438 31.632812 C 197.222656 30.320312 202.441406 30.914062 206.234375 30.054688 C 201.289062 30.46875 196.371094 30.71875 191.507812 31.34375 L 193.648438 31.632812 M 68.113281 98.386719 C 68.9375 106.011719 62.375 108.972656 69.566406 103.945312 C 73.421875 95.265625 68.058594 101.550781 68.113281 98.386719 M 59.660156 133.691406 C 61.316406 128.605469 61.617188 125.546875 62.25 122.609375 C 57.671875 128.457031 60.144531 129.707031 59.660156 133.691406 " fill-opacity="1" fill-rule="nonzero"/>
</svg>