<svg width="256" height="256" viewBox="0 0 256 256" fill="none" xmlns="http://www.w3.org/2000/svg">
<g clip-path="url(#clip0_33_877)">
<path d="M196 0H60C26.8629 0 0 26.8629 0 60V196C0 229.137 26.8629 256 60 256H196C229.137 256 256 229.137 256 196V60C256 26.8629 229.137 0 196 0Z" fill="#F4F2ED"/>
<g clip-path="url(#clip1_33_877)">
<path d="M215 127.5C215 175.825 175.825 215 127.5 215C79.1751 215 40 175.825 40 127.5C40 79.1751 79.1751 40 127.5 40C175.825 40 215 79.1751 215 127.5Z" fill="#D70751"/>
<path d="M163.86 119.01C163.979 122.192 162.932 123.738 161.985 126.473L160.282 127.319C158.89 130.025 160.42 129.037 159.423 131.187C157.247 133.119 152.83 137.231 151.416 137.608C150.382 137.585 152.115 136.388 152.342 135.921C149.432 137.917 150.006 138.918 145.556 140.134L145.427 139.843C134.457 145.006 119.216 134.776 119.416 120.821C119.3 121.706 119.083 121.485 118.841 121.841C118.274 114.662 122.157 107.451 128.705 104.502C135.11 101.333 142.618 102.632 147.203 106.911C144.684 103.611 139.668 100.111 133.727 100.435C127.904 100.53 122.456 104.23 120.638 108.248C117.657 110.124 117.309 115.486 116.01 116.469C114.26 129.323 119.299 134.874 127.824 141.407C129.162 142.311 128.201 142.449 128.38 143.137C125.548 141.812 122.956 139.81 120.823 137.359C121.956 139.014 123.176 140.624 124.755 141.888C122.083 140.986 118.515 135.418 117.476 135.191C122.079 143.433 136.149 149.645 143.52 146.562C140.109 146.689 135.777 146.632 131.948 145.216C130.334 144.388 128.149 142.674 128.54 142.354C138.597 146.109 148.983 145.196 157.683 138.223C159.899 136.498 162.317 133.565 163.016 133.525C161.964 135.108 163.196 134.286 162.388 135.684C164.59 132.126 161.427 134.235 164.666 129.541L165.862 131.187C165.414 128.232 169.53 124.647 169.111 119.977C170.055 118.549 170.163 121.515 169.162 124.8C170.552 121.156 169.53 120.57 169.885 117.562C170.269 118.573 170.778 119.646 171.038 120.715C170.132 117.192 171.964 114.784 172.419 112.736C171.969 112.539 171.022 114.293 170.803 110.134C170.836 108.327 171.308 109.187 171.488 108.742C171.135 108.537 170.204 107.152 169.639 104.496C170.046 103.87 170.735 106.114 171.293 106.205C170.934 104.094 170.316 102.483 170.29 100.862C168.657 97.4509 169.712 101.318 168.389 99.3974C166.651 93.9792 169.83 98.1397 170.046 95.6795C172.678 99.4922 174.178 105.406 174.869 107.854C174.342 104.868 173.493 101.975 172.454 99.1761C173.256 99.5146 171.164 93.0349 173.495 97.3258C171.008 88.1791 162.857 79.6317 155.356 75.6227C156.271 76.4617 157.429 77.5153 157.016 77.6812C153.283 75.462 153.939 75.2869 153.404 74.3492C150.369 73.1125 150.166 74.4506 148.157 74.3519C142.428 71.3122 141.325 71.6349 136.053 69.7331L136.292 70.8552C132.498 69.5909 131.871 71.332 127.771 70.858C127.522 70.6644 129.086 70.1521 130.374 69.9664C126.705 70.451 126.876 69.242 123.286 70.0994C124.169 69.4791 125.107 69.0668 126.05 68.54C123.059 68.7218 118.907 70.2811 120.188 68.8614C115.309 71.0397 106.641 74.0965 101.778 78.6573L101.625 77.6353C99.3963 80.3102 91.9065 85.6243 91.3098 89.092L90.7132 89.2303C89.5556 91.1939 88.8037 93.4184 87.8844 95.4374C86.3684 98.0226 85.6612 96.433 85.8772 96.8387C82.8943 102.886 81.41 107.967 80.1311 112.137C81.0425 113.5 80.1536 120.345 80.4972 125.822C79.001 152.879 99.4859 179.147 121.878 185.21C125.16 186.386 130.039 186.344 134.191 186.46C129.294 185.059 128.662 185.718 123.889 184.055C120.448 182.433 119.694 180.582 117.255 178.466L118.22 180.171C113.44 178.479 115.44 178.077 111.55 176.846L112.581 175.501C111.031 175.383 108.476 172.891 107.778 171.507L106.081 171.574C104.045 169.064 102.959 167.25 103.039 165.845L102.491 166.822C101.871 165.757 94.9963 157.395 98.5627 159.341C97.9002 158.738 97.0191 158.358 96.0644 156.62L96.79 155.792C95.0766 153.583 93.6318 150.753 93.7424 149.81C94.6577 151.046 95.2925 151.277 95.9221 151.489C91.5877 140.737 91.3441 150.898 88.0634 140.545L88.7562 140.49C88.2255 139.685 87.9001 138.817 87.4734 137.962L87.7764 134.953C84.6577 131.35 86.9045 119.616 87.3562 113.183C87.6657 110.567 89.96 107.782 91.7023 103.413L90.6409 103.231C92.6717 99.6913 102.233 89.009 106.664 89.5569C108.809 86.8623 106.237 89.5464 105.817 88.8694C110.53 83.9925 112.012 85.4241 115.193 84.5457C118.621 82.5109 112.249 85.3411 113.874 83.77C119.805 82.2567 118.076 80.3273 125.81 79.5595C126.627 80.0231 123.918 80.2759 123.238 80.8778C128.177 78.4598 138.87 79.0116 145.818 82.2185C153.875 85.9865 162.932 97.1192 163.29 107.593L163.697 107.703C163.491 111.867 164.334 116.683 162.871 121.106L163.86 119.01Z" fill="white"/>
</g>
</g>
<defs>
<clipPath id="clip0_33_877">
<rect width="256" height="256" fill="white"/>
</clipPath>
<clipPath id="clip1_33_877">
<rect width="175" height="175" fill="white" transform="translate(40 40)"/>
</clipPath>
</defs>
</svg>
