<svg width="256" height="256" viewBox="0 0 256 256" fill="none" xmlns="http://www.w3.org/2000/svg">
<g clip-path="url(#clip0_120_2389)">
<path d="M196 0H60C26.8629 0 0 26.8629 0 60V196C0 229.137 26.8629 256 60 256H196C229.137 256 256 229.137 256 196V60C256 26.8629 229.137 0 196 0Z" fill="#F4F2ED"/>
<g clip-path="url(#clip1_120_2389)">
<path d="M158.333 110.936L128 128.421L97.6669 110.936L128 93.4521L158.333 110.936ZM188.667 128.421V163.389L219 145.905L188.667 128.421ZM37.0308 145.905L67.3638 163.389V128.421L37.0308 145.905ZM128 198.357L158.333 215.841L188.666 198.357L158.333 180.873L188.666 163.388L158.333 145.905L128 163.389L97.6669 145.905L67.3338 163.389L97.6669 180.873L67.3338 198.358L97.6669 215.842L128 198.357Z" fill="#15244A"/>
<path d="M188.635 163.389V198.357L158.302 180.873L188.635 163.389ZM128 163.389V128.42L97.667 110.936V145.905L128 163.389ZM97.667 41V75.9685L128 58.4842L97.667 41ZM158.333 145.905L188.666 163.389V128.42L219 145.905V110.936L188.667 93.4519V58.4835L158.333 41V75.9685L128 58.4842V93.4527L158.333 110.937V145.905Z" fill="url(#paint0_linear_120_2389)"/>
<path d="M128 163.389V128.42L158.333 110.936V145.905L128 163.389ZM128 58.4842L158.333 75.9685V41L128 58.4842ZM97.6669 110.936L128 93.4519V58.4842L97.6669 75.9677V41L67.3338 58.4842V93.4527L37 110.936V145.905L67.3331 128.42V163.389L97.6662 145.905L97.6669 110.936ZM67.3647 163.389V198.357L97.6978 180.873L67.3647 163.389Z" fill="url(#paint1_linear_120_2389)"/>
</g>
</g>
<defs>
<linearGradient id="paint0_linear_120_2389" x1="81.6936" y1="67.0468" x2="204.719" y2="137.775" gradientUnits="userSpaceOnUse">
<stop stop-color="#1C68EC"/>
<stop offset="1" stop-color="#00E9DF"/>
</linearGradient>
<linearGradient id="paint1_linear_120_2389" x1="41.4182" y1="78.5479" x2="157.429" y2="145.525" gradientUnits="userSpaceOnUse">
<stop stop-color="#FF3C2A"/>
<stop offset="1" stop-color="#FFD215"/>
</linearGradient>
<clipPath id="clip0_120_2389">
<rect width="256" height="256" fill="white"/>
</clipPath>
<clipPath id="clip1_120_2389">
<rect width="182" height="175" fill="white" transform="translate(37 41)"/>
</clipPath>
</defs>
</svg>
