<svg width="256" height="256" version="1.1" viewBox="0 0 256 256" xmlns="http://www.w3.org/2000/svg">
 <rect width="256" height="256" rx="60" fill="#f4f2ed"/>
 <path d="m39.811 111.37h-1.977v-11.389c0-0.89973 0.055-2.0008 0.16581-3.303h-0.04747c-0.18954 0.76573-0.35927 1.3143-0.50919 1.6456l-5.8012 13.047h-0.97091l-5.7892-12.952c-0.16581-0.37883-0.33554-0.95893-0.50918-1.7403h-0.04722c0.0631 0.6789 0.09464 1.7877 0.09464 3.3267v11.366h-1.9181v-16.977h2.6283l5.2091 11.839c0.40255 0.90756 0.66301 1.5864 0.78137 2.0365h0.07088c0.3392-0.93128 0.61165-1.6258 0.81683-2.0837l5.3163-11.792h2.4862zm5.1974-15.202c-0.34754 0-0.64345-0.11837-0.888-0.3551-0.24455-0.23673-0.36709-0.53682-0.36709-0.89973 0-0.36292 0.12228-0.66483 0.36709-0.90574 0.24481-0.2409 0.54046-0.36109 0.888-0.36109 0.3551 0 0.65727 0.12045 0.90573 0.36109 0.24847 0.24064 0.37309 0.54281 0.37309 0.90574 0 0.34753-0.12436 0.64345-0.37309 0.888-0.24873 0.24456-0.55063 0.36683-0.90573 0.36683zm0.94718 15.202h-1.9416v-12.123h1.9416zm12.194-0.55637c-0.93128 0.56029-2.0365 0.84055-3.315 0.84055-1.7286 0-3.1237-0.56237-4.1853-1.6871-1.0616-1.1247-1.5922-2.5829-1.5922-4.3746 0-1.9968 0.57227-3.601 1.7166-4.8126 1.1443-1.2116 2.6716-1.8175 4.5818-1.8175 1.0655 0 2.0047 0.19737 2.8178 0.59209v1.989c-0.89973-0.63146-1.8628-0.94719-2.8887-0.94719-1.2392 0-2.2552 0.44401-3.0486 1.3317-0.79336 0.88774-1.1897 2.0542-1.1897 3.4986 0 1.4206 0.37309 2.5415 1.1187 3.3622 0.74564 0.82073 1.7463 1.2314 3.0014 1.2314 1.0577 0 2.0521-0.35119 2.9834-1.0538v1.8472zm9.2583-9.6017c-0.33945-0.26046-0.82881-0.39081-1.4681-0.39081-0.82882 0-1.5213 0.39081-2.0779 1.1722-0.55663 0.78137-0.83456 1.8469-0.83456 3.1967v6.18h-1.9416v-12.123h1.9416v2.4982h0.04747c0.27636-0.85254 0.69846-1.5174 1.2668-1.995 0.56836-0.47763 1.2035-0.71619 1.9061-0.71619 0.50501 0 0.89191 0.0552 1.1602 0.16582zm6.855 10.442c-1.7919 0-3.2222-0.56627-4.2917-1.6991-1.0695-1.1328-1.6042-2.6343-1.6042-4.5047 0-2.0365 0.55637-3.6268 1.6694-4.7711 1.113-1.1443 2.6166-1.7166 4.5107-1.7166 1.8073 0 3.2183 0.55636 4.2325 1.6694 1.0142 1.113 1.5213 2.6562 1.5213 4.629 0 1.9337-0.54672 3.4826-1.6399 4.6468-1.0932 1.1641-2.5592 1.7463-4.398 1.7463zm0.1421-11.058c-1.2473 0-2.2336 0.42419-2.9599 1.2728-0.72636 0.84864-1.0893 2.0185-1.0893 3.5103 0 1.4366 0.36709 2.5691 1.101 3.3979 0.73392 0.82882 1.7166 1.2431 2.9479 1.2431 1.2548 0 2.2198-0.40646 2.8947-1.2194 0.675-0.81293 1.0121-1.9692 1.0121-3.4688 0-1.5156-0.33737-2.6833-1.0121-3.5043-0.67474-0.821-1.6396-1.2316-2.8945-1.2316zm8.2637 10.336v-2.0836c1.0577 0.78136 2.2216 1.1722 3.4926 1.1722 1.7048 0 2.5574-0.56836 2.5574-1.7048 0-0.32355-0.07306-0.59781-0.219-0.82283-0.146-0.22499-0.34336-0.42417-0.59208-0.59781-0.24873-0.17364-0.54074-0.32955-0.87601-0.46774l-1.0833-0.43199c-0.53682-0.21301-1.0085-0.4281-1.4149-0.64528-0.40646-0.21719-0.74565-0.46173-1.0181-0.73392-0.27244-0.27219-0.47763-0.58192-0.61555-0.92945-0.13792-0.34755-0.20701-0.75375-0.20701-1.2194 0-0.56836 0.13036-1.0713 0.39082-1.5096 0.26045-0.43826 0.60773-0.8051 1.0418-1.101 0.43409-0.29591 0.92919-0.51909 1.4858-0.669 0.55662-0.14991 1.1305-0.22499 1.7226-0.22499 1.0496 0 1.989 0.18171 2.8178 0.54463v1.9653c-0.89191-0.58401-1.9178-0.87602-3.0783-0.87602-0.36317 0-0.69064 0.0415-0.98264 0.12436-0.292 0.083-0.54281 0.19945-0.75191 0.34938-0.20909 0.1499-0.371 0.32953-0.48519 0.53863-0.11419 0.20909-0.17181 0.4401-0.17181 0.69246 0 0.31572 0.05707 0.5801 0.17181 0.7931 0.11472 0.21302 0.2821 0.40256 0.50318 0.56836 0.22109 0.16582 0.48937 0.31573 0.80509 0.45 0.31573 0.13427 0.67474 0.28027 1.0773 0.43802 0.53682 0.20544 1.0181 0.41636 1.4444 0.63353 0.42628 0.21717 0.78918 0.46173 1.0893 0.73392 0.30008 0.27219 0.53081 0.58609 0.69272 0.9412 0.1619 0.35509 0.24273 0.77744 0.24273 1.2668 0 0.59991-0.13219 1.1208-0.39655 1.5627a3.3945 3.3945 0 0 1-1.0596 1.101c-0.44218 0.292-0.95109 0.50917-1.5273 0.65127-0.57618 0.14209-1.18 0.213-1.8115 0.213-1.2478-2.6e-4 -2.329-0.24116-3.2446-0.72245zm16.09 0.72219c-1.7919 0-3.2222-0.56627-4.2919-1.6991-1.0697-1.1328-1.6042-2.6343-1.6042-4.5047 0-2.0365 0.55663-3.6268 1.6694-4.7711 1.1127-1.1443 2.6166-1.7166 4.5109-1.7166 1.8073 0 3.2183 0.55636 4.2322 1.6694 1.0139 1.113 1.5213 2.6562 1.5213 4.629 0 1.9337-0.54647 3.4826-1.6397 4.6468-1.0932 1.1641-2.5592 1.7463-4.398 1.7463zm0.14208-11.058c-1.2473 0-2.2338 0.42419-2.9602 1.2728-0.72636 0.84864-1.0893 2.0185-1.0893 3.5103 0 1.4366 0.36708 2.5691 1.1013 3.3979 0.73419 0.82882 1.7168 1.2431 2.9482 1.2431 1.2548 0 2.2197-0.40646 2.8947-1.2194 0.67499-0.81293 1.0121-1.9692 1.0121-3.4688 0-1.5156-0.33736-2.6833-1.0121-3.5043-0.67474-0.821-1.6399-1.2316-2.8947-1.2316zm14.55-5.4698c-0.37882-0.21301-0.80926-0.31964-1.2903-0.31964-1.3578 0-2.0365 0.85646-2.0365 2.5691v1.8706h2.8413v1.6574h-2.8413v10.466h-1.9298v-10.466h-2.0719v-1.6574h2.0719v-1.9653c0-1.2707 0.36708-2.275 1.101-3.0131 0.7339-0.7381 1.6493-1.107 2.7464-1.107 0.5921 0 1.0616 0.07088 1.4089 0.213v1.7523zm7.6596 16.125c-0.45783 0.25264-1.0614 0.37882-1.8112 0.37882-2.1233 0-3.1846-1.1839-3.1846-3.5517v-7.1747h-2.0837v-1.6574h2.0837v-2.9599l1.9416-0.62755v3.5872h3.0543v1.6574h-3.0543v6.8316c0 0.81291 0.13791 1.393 0.41427 1.7403 0.27635 0.34728 0.73392 0.52091 1.3734 0.52091 0.48937 0 0.91174-0.13426 1.2666-0.40255zm-98.637 50.802v-46.368h12.805c16.34 0 24.51 7.5339 24.51 22.602 0 7.1569-2.269 12.907-6.8065 17.251-4.5375 4.3435-10.611 6.5153-18.221 6.5153zm5.4323-41.453v36.538h6.9197c6.0789 0 10.81-1.6274 14.195-4.8824 3.3846-3.255 5.0767-7.8684 5.0767-13.839 0-11.878-6.3164-17.817-18.948-17.817zm43.006-0.0647c-0.94875 0-1.7572-0.32329-2.4252-0.97012-0.66795-0.64684-1.0025-1.4658-1.0025-2.4575 0-0.99177 0.33398-1.8159 1.0025-2.4737 0.66848-0.65778 1.4764-0.98629 2.4252-0.98629 0.97013 0 1.7945 0.32903 2.4737 0.98629 0.67917 0.65727 1.0186 1.4824 1.0186 2.4737 0 0.94875-0.33945 1.7572-1.0186 2.4252-0.67917 0.66795-1.5036 1.0025-2.4737 1.0025zm2.5868 41.518h-5.303v-33.111h5.303zm28.002-27.743c-0.92711-0.71149-2.2635-1.0668-4.0096-1.0668-2.2636 0-4.1553 1.0668-5.6748 3.2008-1.5195 2.134-2.2797 5.0444-2.2797 8.7304v16.879h-5.303v-33.111h5.303v6.823h0.12932c0.75451-2.3282 1.9077-4.1441 3.46-5.4484 1.5523-1.3044 3.2869-1.9564 5.206-1.9564 1.3792 0 2.4359 0.15123 3.1687 0.45261zm31.494 12.514h-23.378c0.0858 3.6863 1.0778 6.5318 2.9748 8.5364 1.897 2.0046 4.5052 3.0068 7.8252 3.0068 3.7293 0 7.1567-1.2288 10.283-3.6863v4.9797c-2.9101 2.1131-6.758 3.1688-11.544 3.1688-4.6778 0-8.3536-1.5033-11.026-4.5107-2.6726-3.0074-4.0096-7.2375-4.0096-12.692 0-5.1518 1.4603-9.3496 4.3816-12.594 2.9213-3.2449 6.5476-4.8666 10.88-4.8666s7.6846 1.4016 10.056 4.2035 3.557 6.6936 3.557 11.673v2.7813zm-5.4323-4.4948c-0.0214-3.0603-0.75973-5.443-2.215-7.1457-1.4553-1.7028-3.4759-2.5548-6.0625-2.5548-2.501 0-4.6238 0.89477-6.3701 2.6841-1.7463 1.7893-2.8243 4.1282-3.2334 7.0164zm36.021 18.205c-2.5436 1.5301-5.5616 2.2956-9.0539 2.2956-4.7208 0-8.5314-1.5359-11.43-4.6074s-4.3493-7.0542-4.3493-11.948c0-5.4532 1.5627-9.835 4.6887-13.144 3.126-3.3088 7.2964-4.9638 12.513-4.9638 2.9101 0 5.4756 0.53917 7.6958 1.6167v5.4323c-2.4575-1.7241-5.0876-2.5868-7.8898-2.5868-3.3841 0-6.16 1.2129-8.3263 3.6378s-3.2498 5.6101-3.2498 9.5548c0 3.8802 1.0184 6.9416 3.0559 9.1832 2.0375 2.2416 4.7693 3.3627 8.1967 3.3627 2.8887 0 5.6049-0.95892 8.1484-2.8775v5.0444zm23.378 1.1962c-1.2507 0.68986-2.8994 1.0348-4.9476 1.0348-5.7989 0-8.6978-3.2334-8.6978-9.7005v-19.595h-5.6909v-4.5268h5.6909v-8.0835l5.303-1.7137v9.7975h8.3424v4.5268h-8.3424v18.658c0 2.2203 0.37674 3.8049 1.1315 4.7529 0.75477 0.94797 2.0046 1.4227 3.7509 1.4227 1.3367 0 2.4901-0.36604 3.46-1.0994zm39.804 0.32329h-6.6285l-10.671-17.752c-0.32329-0.53863-0.67917-1.3041-1.0674-2.2961h-0.12931l-1.0994 2.2961-10.994 17.752h-6.6611l15.521-23.313-14.292-23.055h6.661l9.4744 16.297c0.62469 1.0786 1.1748 2.1561 1.6488 3.2334h0.12932c0.68986-1.4227 1.2934-2.543 1.8107-3.3627l9.8627-16.167h6.2405l-14.583 22.99zm-101.3-59.823c-0.89738 0-1.6626-0.31651-2.2961-0.95007-0.63354-0.63354-0.95004-1.3987-0.95004-2.2961 0-0.89739 0.3165-1.6626 0.95004-2.2961 0.63354-0.63354 1.3988-0.95005 2.2961-0.95005 0.89477 0 1.6584 0.31677 2.292 0.95005 0.63354 0.63328 0.95031 1.3988 0.95031 2.2961 0 0.89738-0.31677 1.6629-0.95031 2.2961-0.63354 0.63329-1.3972 0.95007-2.292 0.95007zm0-6.1115c-0.79049 0-1.4658 0.28001-2.0255 0.83977-0.55976 0.55976-0.83977 1.235-0.83977 2.0258 0 0.79075 0.27975 1.4652 0.83977 2.0234a2.7636 2.7636 0 0 0 2.0255 0.83742c0.79049 0 1.4652-0.27922 2.0237-0.83742 0.55845-0.5582 0.83768-1.2329 0.83768-2.0234 0-0.79049-0.27923-1.4658-0.83768-2.0258-0.55846-0.56002-1.2327-0.83977-2.0237-0.83977zm1.5755 4.8952h-0.70106l-0.45027-0.99125c-0.22785-0.49614-0.47293-0.74434-0.73575-0.74434h-0.38089v1.7356h-0.57569v-4.1292h1.1602c0.48181 0 0.85308 0.10116 1.1143 0.30295 0.26126 0.2018 0.39186 0.47607 0.39186 0.8223 0 0.28288-0.0917 0.52379-0.27506 0.72271-0.18327 0.19893-0.43956 0.33319-0.76833 0.40255v0.0172c0.22814 0.0491 0.45469 0.30296 0.6797 0.76182zm-2.2677-3.6357v1.411h0.61919c0.56837 0 0.85255-0.23646 0.85255-0.70993 0-0.25394-0.0764-0.43435-0.22916-0.54098-0.15279-0.10667-0.39578-0.16009-0.72715-0.16009zm105.51 25.161c-0.89738 0-1.6628-0.31651-2.2964-0.95006-0.63353-0.63353-0.95005-1.3987-0.95005-2.2961 0-0.8974 0.31652-1.6626 0.95005-2.2961 0.63356-0.63355 1.3988-0.95006 2.2964-0.95006 0.89453 0 1.6582 0.31677 2.2917 0.95006 0.63354 0.63328 0.9503 1.3987 0.9503 2.2961 0 0.89738-0.31676 1.6629-0.9503 2.2961-0.63355 0.63328-1.3974 0.95006-2.2917 0.95006zm0-6.1115c-0.79051 0-1.4658 0.28001-2.0258 0.83976-0.56002 0.55978-0.83978 1.235-0.83978 2.0258 0 0.79076 0.27976 1.4652 0.83978 2.0234 0.56 0.5582 1.235 0.83741 2.0258 0.83741s1.4652-0.27921 2.0234-0.83741c0.55819-0.5582 0.83768-1.2329 0.83768-2.0234 0-0.79048-0.27896-1.4657-0.83768-2.0258-0.55872-0.56001-1.2329-0.83976-2.0234-0.83976zm1.5755 4.8952h-0.70107l-0.45024-0.99126c-0.22788-0.49613-0.47321-0.74433-0.73575-0.74433h-0.38092v1.7356h-0.57565v-4.1292h1.1599c0.4818 0 0.85332 0.10119 1.1146 0.30297 0.26123 0.20178 0.3916 0.47605 0.3916 0.8223 0 0.28287-0.0917 0.52377-0.27507 0.7227-0.18326 0.19892-0.4393 0.33319-0.76807 0.40255v0.0172c0.22787 0.049 0.45444 0.30295 0.67944 0.76182zm-2.268-3.6357v1.411h0.61894c0.56838 0 0.85281-0.23646 0.85281-0.70992 0-0.25395-0.0767-0.43436-0.22944-0.54099-0.15277-0.10667-0.39549-0.16008-0.72712-0.16008z" fill="#040404" stroke-width=".26072"/>
</svg>
