<?xml version="1.0" encoding="UTF-8" standalone="no"?>
<svg
   width="256"
   height="256"
   viewBox="0 0 256 256"
   fill="none"
   version="1.1"
   id="svg12"
   sodipodi:docname="DiscordBot.svg"
   inkscape:version="1.1.2 (0a00cf5339, 2022-02-04, custom)"
   xmlns:inkscape="http://www.inkscape.org/namespaces/inkscape"
   xmlns:sodipodi="http://sodipodi.sourceforge.net/DTD/sodipodi-0.dtd"
   xmlns:xlink="http://www.w3.org/1999/xlink"
   xmlns="http://www.w3.org/2000/svg"
   xmlns:svg="http://www.w3.org/2000/svg">
  <defs
     id="defs16">
    <polygon
       id="roboillo-a"
       points="0 .975 108 .975 108 88.974 0 88.974" />
    <polygon
       id="roboillo-c"
       points="0 .975 144 .975 144 27 0 27" />
    <polygon
       id="roboillo-a-3"
       points="0 .975 108 .975 108 88.974 0 88.974" />
    <polygon
       id="roboillo-c-6"
       points="0 .975 144 .975 144 27 0 27" />
  </defs>
  <sodipodi:namedview
     id="namedview14"
     pagecolor="#ffffff"
     bordercolor="#666666"
     borderopacity="1.0"
     inkscape:pageshadow="2"
     inkscape:pageopacity="0.0"
     inkscape:pagecheckerboard="0"
     showgrid="false"
     inkscape:zoom="1.28"
     inkscape:cx="187.89062"
     inkscape:cy="134.375"
     inkscape:window-width="1211"
     inkscape:window-height="686"
     inkscape:window-x="1325"
     inkscape:window-y="730"
     inkscape:window-maximized="1"
     inkscape:current-layer="svg12" />
  <rect
     width="256"
     height="256"
     rx="60"
     fill="#242938"
     id="rect2"
     style="fill:#5865f2;fill-opacity:1" />
  <style
     type="text/css"
     id="style824">* { fill: #36c }</style>
  <g
     id="g854"
     transform="matrix(0.9998467,0,0,1.0181109,2.9384408,-1.9440221)">
    <path
       stroke="#202225"
       stroke-linecap="round"
       stroke-linejoin="round"
       stroke-width="3.34057"
       d="M 217.97804,144.54913 V 60.261782 M 31.824994,144.54913 V 60.261782"
       id="path1331"
       style="fill:#ffffff;fill-opacity:1;fill-rule:evenodd" />
    <path
       fill="#DCDDDE"
       d="M 222.87681,112.08755 H 26.926229 c -3.607123,0 -6.531686,9.94349 -6.531686,22.21055 0,12.26706 2.924563,22.21056 6.531686,22.21056 H 222.87681 c 3.60712,0 6.53168,-9.9435 6.53168,-22.21056 0,-12.26706 -2.92456,-22.21055 -6.53168,-22.21055"
       id="path1333"
       style="fill:#ffffff;fill-opacity:1;fill-rule:evenodd;stroke-width:1.67029" />
    <g
       transform="matrix(1.6329215,0,0,1.7085042,36.723595,31.26129)"
       id="g1340"
       style="fill:#ffffff;fill-opacity:1;fill-rule:evenodd">
      <mask
         id="roboillo-b"
         fill="#fff">
        <use
           xlink:href="#roboillo-a-3"
           id="use1335"
           x="0"
           y="0"
           width="100%"
           height="100%" />
      </mask>
      <path
         fill="#B9BBBE"
         d="m 108.0001,88.9742 h -108 v -34 c 0,-29.823 24.177,-54 54,-54 29.823,0 54,24.177 54,54 z"
         mask="url(#roboillo-b)"
         id="path1338"
         style="fill:#ffffff;fill-opacity:1" />
    </g>
    <path
       fill="#202225"
       d="m 142.81173,105.78402 c -8.77859,12.8582 -27.04282,12.8582 -35.8214,0 -4.1313,-6.05152 -10.801776,-9.644504 -17.909883,-9.644504 H 69.326996 c -8.086228,0 -14.640774,6.859644 -14.640774,15.320154 v 54.72852 H 195.11747 v -54.72852 c 0,-8.46051 -6.55455,-15.320154 -14.64241,-15.320154 h -19.75345 c -7.10811,0 -13.77859,3.592984 -17.90988,9.644504"
       id="path1342"
       style="fill:#ffffff;fill-opacity:1;fill-rule:evenodd;stroke-width:1.67029" />
    <path
       fill="#72767D"
       d="m 134.69904,91.727304 c 0,-5.660275 -4.38766,-10.251025 -9.79752,-10.251025 -5.41151,0 -9.79753,4.59075 -9.79753,10.251025 0,5.660274 4.38602,10.251026 9.79753,10.251026 5.40986,0 9.79752,-4.590752 9.79752,-10.251026"
       id="path1344"
       style="fill:#ffffff;fill-opacity:1;fill-rule:evenodd;stroke-width:1.67029" />
    <path
       fill="#DCDDDE"
       d="m 93.876011,133.72746 c 0,-6.60337 -5.117576,-11.95953 -11.430451,-11.95953 -6.312874,0 -11.43045,5.35616 -11.43045,11.95953 0,6.60508 5.117576,11.95953 11.43045,11.95953 6.312875,0 11.430451,-5.35445 11.430451,-11.95953 m 84.911909,0 c 0,-6.60337 -5.11757,-11.95953 -11.43045,-11.95953 -6.31287,0 -11.43045,5.35616 -11.43045,11.95953 0,6.60508 5.11758,11.95953 11.43045,11.95953 6.31288,0 11.43045,-5.35445 11.43045,-11.95953"
       id="path1346"
       style="fill:#000000;fill-opacity:1;fill-rule:evenodd;stroke-width:1.67029" />
    <g
       transform="matrix(1.6329215,0,0,1.7085042,7.3310078,179.90116)"
       id="g1353"
       style="fill:#ffffff;fill-opacity:1;fill-rule:evenodd">
      <mask
         id="roboillo-d"
         fill="#fff">
        <use
           xlink:href="#roboillo-c-6"
           id="use1348"
           x="0"
           y="0"
           width="100%"
           height="100%" />
      </mask>
      <path
         fill="#4F545C"
         d="m 85.4683,26.9635 c 17.814,-0.013 35.655,0.088 53.495,0 l 5.037,-25.989 h -144 l 5.698,25.989 c 26.588,-0.163 53.194,0.019 79.77,0"
         mask="url(#roboillo-d)"
         id="path1351"
         style="fill:#ffffff;fill-opacity:1" />
    </g>
    <path
       fill="#B9BBBE"
       d="m 200.0159,201.83903 c 0,-2.82928 -2.19301,-5.12551 -4.89876,-5.12551 -2.70575,0 -4.89876,2.29623 -4.89876,5.12551 0,2.83099 2.19301,5.12552 4.89876,5.12552 2.70575,0 4.89876,-2.29453 4.89876,-5.12552 m -16.32921,0 c 0,-2.82928 -2.19301,-5.12551 -4.89877,-5.12551 -2.70575,0 -4.89876,2.29623 -4.89876,5.12551 0,2.83099 2.19301,5.12552 4.89876,5.12552 2.70576,0 4.89877,-2.29453 4.89877,-5.12552 m -16.32922,0 c 0,-2.82928 -2.19301,-5.12551 -4.89876,-5.12551 -2.70575,0 -4.89876,2.29623 -4.89876,5.12551 0,2.83099 2.19301,5.12552 4.89876,5.12552 2.70575,0 4.89876,-2.29453 4.89876,-5.12552"
       id="path1355"
       style="fill:#ffffff;fill-opacity:1;fill-rule:evenodd;stroke-width:1.67029" />
  </g>
</svg>
