<svg width="256" height="256" viewBox="0 0 256 256" fill="none" xmlns="http://www.w3.org/2000/svg">
<g clip-path="url(#clip0_129_4681)">
<path d="M196 0H60C26.8629 0 0 26.8629 0 60V196C0 229.137 26.8629 256 60 256H196C229.137 256 256 229.137 256 196V60C256 26.8629 229.137 0 196 0Z" fill="#F4F2ED"/>
<path d="M200.939 108.887C199.892 101.279 195.7 94.673 188.138 88.7051L183.765 85.7439L180.849 90.1629C177.113 95.8575 175.246 103.784 175.838 111.392C176.111 114.035 176.977 118.864 179.665 123.009C176.977 124.513 171.647 126.517 164.54 126.38H28.7813L28.508 127.975C27.2324 135.583 27.2324 159.409 42.4938 177.677C54.1108 191.572 71.4678 198.633 94.1549 198.633C143.356 198.633 179.71 175.718 196.794 133.988C203.491 134.125 217.932 134.034 225.358 119.684C225.54 119.365 225.996 118.499 227.271 115.766L228 114.262L223.854 111.438C219.299 108.477 208.957 107.338 200.939 108.887ZM137.343 58H116.705V76.9971H137.343V58ZM137.343 80.8238H116.705V99.8209H137.343V80.8238ZM112.924 80.8238H92.2871V99.8209H112.924V80.8238ZM88.5515 80.8238H67.9144V99.8209H88.5515V80.8238ZM64.1332 103.648H43.4961V122.645H64.1332V103.648ZM88.5515 103.648H67.9144V122.645H88.5515V103.648ZM112.924 103.648H92.2871V122.645H112.924V103.648ZM137.343 103.648H116.705V122.645H137.343V103.648ZM161.761 103.648H141.124V122.645H161.761V103.648Z" fill="#1D63ED"/>
</g>
<defs>
<clipPath id="clip0_129_4681">
<rect width="256" height="256" fill="white"/>
</clipPath>
</defs>
</svg>
