<?xml version="1.0" encoding="UTF-8" standalone="no"?>
<svg
   width="256"
   height="256"
   viewBox="0 0 256 256"
   fill="none"
   version="1.1"
   id="svg878"
   sodipodi:docname="Dribble-Dark.svg"
   inkscape:version="1.2.2 (1:1.2.2+202212051552+b0a8486541)"
   xmlns:inkscape="http://www.inkscape.org/namespaces/inkscape"
   xmlns:sodipodi="http://sodipodi.sourceforge.net/DTD/sodipodi-0.dtd"
   xmlns="http://www.w3.org/2000/svg"
   xmlns:svg="http://www.w3.org/2000/svg">
  <sodipodi:namedview
     id="namedview880"
     pagecolor="#ffffff"
     bordercolor="#000000"
     borderopacity="0.25"
     inkscape:showpageshadow="2"
     inkscape:pageopacity="0.0"
     inkscape:pagecheckerboard="0"
     inkscape:deskcolor="#d1d1d1"
     showgrid="false"
     inkscape:zoom="2.1649824"
     inkscape:cx="121.47905"
     inkscape:cy="127.94561"
     inkscape:window-width="1366"
     inkscape:window-height="716"
     inkscape:window-x="0"
     inkscape:window-y="26"
     inkscape:window-maximized="1"
     inkscape:current-layer="svg878" />
  <rect
     width="256"
     height="256"
     rx="60"
     fill="#242938"
     id="rect865" />
  <defs
     id="defs876">
    <linearGradient
       id="paint0_linear_7_120"
       x1="218"
       y1="38"
       x2="38"
       y2="218"
       gradientUnits="userSpaceOnUse">
      <stop
         offset="0.00343514"
         stop-color="#E44857"
         id="stop869" />
      <stop
         offset="0.4689"
         stop-color="#C711E1"
         id="stop871" />
      <stop
         offset="1"
         stop-color="#7F52FF"
         id="stop873" />
    </linearGradient>
  </defs>
  <path
     d="m 131.65002,34.318602 c 51.92251,0 93.93254,42.010038 93.93254,93.853868 0,51.84386 -42.01004,93.93254 -93.93254,93.93254 -51.922515,0 -93.932545,-42.01004 -93.932545,-93.85387 0,-51.843837 42.01003,-93.932538 93.932545,-93.932538 z"
     fill="#e74d89"
     id="path1398"
     style="display:inline;stroke-width:0.786705" />
  <path
     style="display:inline;fill:#b2215a;stroke-width:0.644947;fill-opacity:1"
     d="m 131.65002,34.057369 c -51.885973,0 -93.942963,42.062791 -93.942963,93.942951 0,51.88016 42.05699,93.94231 93.942963,93.94231 51.88597,0 93.94296,-42.06279 93.94296,-93.94295 0,-51.88017 -42.05763,-93.942309 -93.94296,-93.942311 z m 61.64338,45.4681 c 10.09857,12.82348 16.28168,28.840081 16.76861,46.272351 -21.07815,-3.69296 -39.25598,-3.80454 -54.96237,-1.31504 -1.9903,-4.56816 -4.0393,-9.00669 -6.14118,-13.30461 16.84537,-6.92802 31.9526,-17.033041 44.33494,-31.652701 z M 182.48409,68.299529 C 171.4226,81.727319 157.53625,90.968769 141.8247,97.25764 131.76676,78.6219 121.42181,63.091579 113.15488,51.75406 c 5.93609,-1.45048 12.11855,-2.22506 18.48933,-2.22506 19.39291,-0.006 37.13605,7.080219 50.83988,18.770529 z M 97.918647,57.161299 c 7.990903,10.66806 18.624133,26.121641 29.022613,45.068871 -22.04106,6.05348 -46.695443,7.68584 -71.649082,7.75613 5.507199,-23.34448 21.4419,-42.696761 42.626469,-52.825001 z m -44.7348,70.831921 0.0645,-2.53658 h 0.42244 c 27.95974,0 55.719543,-1.83164 80.608693,-9.16533 1.85551,3.77551 3.68135,7.65035 5.46657,11.63742 -32.7446,9.60003 -53.159754,31.1477 -67.151234,51.65056 C 60.523357,165.7884 53.183857,147.73375 53.183857,127.99322 Z m 30.848451,62.30832 c 13.24592,-19.95079 31.705592,-39.69068 61.743992,-47.98147 7.01638,17.97854 12.74092,37.6004 15.77089,58.20904 -9.21823,3.8284 -19.311,5.94189 -29.89136,5.94189 -17.90243,0 -34.412432,-6.02961 -47.623522,-16.16946 z m 91.946852,2.40758 c -3.21183,-18.82986 -8.47266,-36.79034 -14.80798,-53.44158 13.7277,-1.74394 29.50954,-1.32085 47.80475,2.04319 -3.65749,21.26519 -15.88181,39.63779 -32.99677,51.39839 z"
     id="path2" />
</svg>
