<svg width="256" height="256" version="1.1" viewBox="0 0 256 256" xmlns="http://www.w3.org/2000/svg">
 <rect width="256" height="256" rx="60" fill="#f4f2ed"/>
 <path d="m128 34.107c51.923 0 93.933 42.01 93.933 93.854 0 51.844-42.01 93.933-93.933 93.933-51.923 0-93.933-42.01-93.933-93.854 0-51.844 42.01-93.933 93.933-93.933z" fill="#e74d89" stroke-width=".7867"/>
 <path d="m128 34.057c-51.886 0-93.943 42.063-93.943 93.943s42.057 93.942 93.943 93.942c51.886 0 93.943-42.063 93.943-93.943 0-51.88-42.058-93.942-93.943-93.942zm61.643 45.468c10.099 12.823 16.282 28.84 16.769 46.272-21.078-3.693-39.256-3.8045-54.962-1.315-1.9903-4.5682-4.0393-9.0067-6.1412-13.305 16.845-6.928 31.953-17.033 44.335-31.653zm-10.809-11.226c-11.061 13.428-24.948 22.669-40.659 28.958-10.058-18.636-20.403-34.166-28.67-45.504 5.9361-1.4505 12.119-2.2251 18.489-2.2251 19.393-6e-3 37.136 7.0802 50.84 18.771zm-84.565-11.138c7.9909 10.668 18.624 26.122 29.023 45.069-22.041 6.0535-46.695 7.6858-71.649 7.7561 5.5072-23.344 21.442-42.697 42.626-52.825zm-44.735 70.832 0.0645-2.5366h0.42244c27.96 0 55.72-1.8316 80.609-9.1653 1.8555 3.7755 3.6814 7.6504 5.4666 11.637-32.745 9.6-53.16 31.148-67.151 51.651-12.071-13.791-19.411-31.846-19.411-51.586zm30.848 62.308c13.246-19.951 31.706-39.691 61.744-47.981 7.0164 17.979 12.741 37.6 15.771 58.209-9.2182 3.8284-19.311 5.9419-29.891 5.9419-17.902 0-34.412-6.0296-47.624-16.169zm91.947 2.4076c-3.2118-18.83-8.4727-36.79-14.808-53.442 13.728-1.7439 29.51-1.3208 47.805 2.0432-3.6575 21.265-15.882 39.638-32.997 51.398z" fill="#b2215a" stroke-width=".64495"/>
</svg>
