<svg xmlns="http://www.w3.org/2000/svg" width="256" height="256"><rect width="256" height="256" fill="#c42e51" rx="60"/><path d="M128 0zm-8.45 56.61c23.384-.27 46.571 12.093 57.923 35.242 9.695 19.753 9.363 38.503-1.047 60.21-5.086 10.614-5.196 11.31-2.57 16.833 2.28 4.824 7.753 8.312 13.023 8.312 4.844 0 12.27-6.254 13.355-11.246 1.067-4.84-2.058-11.922-6.472-14.688a108.246 108.246 0 01-4.196-2.718c-1.375-1.067 4.48-4.055 7.907-4.055 7.328 0 13.3 5.613 14.664 13.762.59 3.55 1.43 4.5 4.695 5.355 9.164 2.367 13.836 15.477 8.055 22.57-2.348 2.88-2.453 2.891-3.254.446-2.848-8.543-7.106-11.946-14.965-11.946-3.402 0-6.102 1.368-11.715 5.93-10.73 8.75-19.902 13.899-31.008 17.41-13.61 4.094-29.351 5.098-43.582 1.664-23.062-4.597-45.14-22.507-56.023-45.41C50.754 125.676 54.773 96 75.02 75.488a63.192 63.192 0 0144.53-18.879zm0 0" fill="#fff"/></svg>