<?xml version="1.0" encoding="UTF-8"?>
<svg xmlns="http://www.w3.org/2000/svg" xmlns:xlink="http://www.w3.org/1999/xlink" width="256" height="256" viewBox="0 0 256 256" version="1.1">
<rect width="256" height="256" rx="60" fill="#ffffff"/>
<defs>
<clipPath id="clip1">
  <path d="M 25 25 L 221 25 L 221 84 L 25 84 Z M 25 25 "/>
</clipPath>
<clipPath id="clip2">
  <path d="M 230.398438 128 C 230.398438 184.554688 184.554688 230.398438 128 230.398438 C 71.445312 230.398438 25.601562 184.554688 25.601562 128 C 25.601562 71.445312 71.445312 25.601562 128 25.601562 C 184.554688 25.601562 230.398438 71.445312 230.398438 128 Z M 230.398438 128 "/>
</clipPath>
<clipPath id="clip3">
  <path d="M 26 172 L 222 172 L 222 231 L 26 231 Z M 26 172 "/>
</clipPath>
<clipPath id="clip4">
  <path d="M 230.398438 128 C 230.398438 184.554688 184.554688 230.398438 128 230.398438 C 71.445312 230.398438 25.601562 184.554688 25.601562 128 C 25.601562 71.445312 71.445312 25.601562 128 25.601562 C 184.554688 25.601562 230.398438 71.445312 230.398438 128 Z M 230.398438 128 "/>
</clipPath>
<clipPath id="clip5">
  <path d="M 25 99 L 190 99 L 190 157 L 25 157 Z M 25 99 "/>
</clipPath>
<clipPath id="clip6">
  <path d="M 230.398438 128 C 230.398438 184.554688 184.554688 230.398438 128 230.398438 C 71.445312 230.398438 25.601562 184.554688 25.601562 128 C 25.601562 71.445312 71.445312 25.601562 128 25.601562 C 184.554688 25.601562 230.398438 71.445312 230.398438 128 Z M 230.398438 128 "/>
</clipPath>
<clipPath id="clip7">
  <path d="M 25 99 L 119 99 L 119 157 L 25 157 Z M 25 99 "/>
</clipPath>
<clipPath id="clip8">
  <path d="M 230.398438 128 C 230.398438 184.554688 184.554688 230.398438 128 230.398438 C 71.445312 230.398438 25.601562 184.554688 25.601562 128 C 25.601562 71.445312 71.445312 25.601562 128 25.601562 C 184.554688 25.601562 230.398438 71.445312 230.398438 128 Z M 230.398438 128 "/>
</clipPath>
</defs>
<g id="surface1">
<g clip-path="url(#clip1)" clip-rule="nonzero">
<g clip-path="url(#clip2)" clip-rule="nonzero">
<path style=" stroke:none;fill-rule:nonzero;fill:rgb(94.117647%,74.901961%,10.196078%);fill-opacity:1;" d="M 171.839844 83.199219 L 32 83.199219 C 28.480469 83.199219 25.601562 80.320312 25.601562 76.800781 L 25.601562 32 C 25.601562 28.480469 28.480469 25.601562 32 25.601562 L 214.398438 25.601562 C 217.921875 25.601562 220.800781 28.480469 220.800781 32 L 220.800781 34.238281 C 220.480469 61.121094 198.71875 83.199219 171.839844 83.199219 Z M 171.839844 83.199219 "/>
</g>
</g>
<g clip-path="url(#clip3)" clip-rule="nonzero">
<g clip-path="url(#clip4)" clip-rule="nonzero">
<path style=" stroke:none;fill-rule:nonzero;fill:rgb(24.313725%,74.509804%,69.019608%);fill-opacity:1;" d="M 221.121094 230.398438 L 26.238281 230.398438 L 26.238281 172.800781 L 172.480469 172.800781 C 199.359375 172.800781 221.121094 194.558594 221.121094 221.441406 Z M 221.121094 230.398438 "/>
</g>
</g>
<g clip-path="url(#clip5)" clip-rule="nonzero">
<g clip-path="url(#clip6)" clip-rule="nonzero">
<path style=" stroke:none;fill-rule:nonzero;fill:rgb(2.745098%,64.705882%,87.058824%);fill-opacity:1;" d="M 160.320312 156.800781 L 15.359375 156.800781 L 15.359375 99.199219 L 160.320312 99.199219 C 176.320312 99.199219 189.121094 112 189.121094 128 C 189.121094 144 176 156.800781 160.320312 156.800781 Z M 160.320312 156.800781 "/>
</g>
</g>
<g clip-path="url(#clip7)" clip-rule="nonzero">
<g clip-path="url(#clip8)" clip-rule="nonzero">
<path style=" stroke:none;fill-rule:nonzero;fill:rgb(13.72549%,12.156863%,12.54902%);fill-opacity:1;" d="M 115.199219 99.199219 L 20.480469 99.199219 L 20.480469 156.800781 L 115.199219 156.800781 C 117.441406 148.160156 118.71875 138.558594 118.71875 128 C 118.71875 117.441406 117.441406 107.839844 115.199219 99.199219 Z M 115.199219 99.199219 "/>
</g>
</g>
<path style=" stroke:none;fill-rule:nonzero;fill:rgb(84.313725%,63.529412%,16.078431%);fill-opacity:1;" d="M 76.480469 39.359375 C 59.199219 49.601562 44.800781 64.960938 35.839844 83.199219 L 111.359375 83.199219 C 103.679688 65.601562 91.519531 50.878906 76.480469 39.359375 Z M 76.480469 39.359375 "/>
<path style=" stroke:none;fill-rule:nonzero;fill:rgb(0.392157%,60.784314%,56.078431%);fill-opacity:1;" d="M 79.679688 218.238281 C 94.398438 206.398438 106.238281 190.71875 113.601562 172.800781 L 35.839844 172.800781 C 45.441406 192 60.800781 208 79.679688 218.238281 Z M 79.679688 218.238281 "/>
</g>
</svg>
