<svg xmlns="http://www.w3.org/2000/svg" width="256" height="256" viewBox="0 0 256 256" fill="none"><rect width="256" height="256" fill="#F4F2ED" rx="60"/><path d="M60,0h136c33.1,0,60,26.9,60,60v136c0,33.1-26.9,60-60,60H60c-33.1,0-60-26.9-60-60V60C0,26.9,26.9,0,60,0z"/><path d="M193.5,174.4c0,7-3.7,8.6-3.7,8.6s-63.1,36.4-67.4,38.5c-2.1,1.1-4.3,1.1-6.4,0c0,0-65.8-38.5-67.9-40.1 c-1.1-1.1-2.1-2.7-2.7-4.3V97.9c0-3.7,4.3-5.9,4.3-5.9l65.8-38c2.7-1.1,5.3-1.1,8,0c0,0,58.3,33.7,64.7,37.4 c3.7,1.6,5.9,5.3,5.3,9.6C193.5,100.1,193.5,167.4,193.5,174.4L193.5,174.4z M167.3,98.5c-13.4-7.5-45.4-26.2-45.4-26.2 c-1.6-1.1-4.3-1.1-6.4,0l-51.9,29.9c0,0-3.7,2.1-3.7,4.8v62c0,1.1,1.1,2.7,1.6,3.7c1.6,1.1,53.5,31,53.5,31c1.6,1.1,3.7,1.1,5.3,0 c3.2-1.6,52.4-30.5,52.4-30.5s2.7-1.1,2.7-6.4v-15.5l-57.7,35.3v-13.4c0-3.7,1.6-6.4,4.3-9.6l51.9-31c1.1-1.6,2.1-4.3,2.1-6.4v-13.9 l-58.3,35.3v-14.4c0-3.2,1.1-6.4,3.7-8L167.3,98.5L167.3,98.5z M210.1,49.3c0-1.1-1.1-1.6-1.6-1.6h-12.3V34.8c0-1.1-1.1-1.1-2.1-1.1 l-6.4,1.1c-1.1,0-1.1,0.5-1.1,1.1v11.8h-11.8c-1.1,0-1.1,1.1-1.6,1.1v8h14.4v13.4c0,1.1,1.1,1.1,2.1,1.1l6.4-1.1 c1.1,0,1.1-0.5,1.1-1.1V57.3h13.4L210.1,49.3L210.1,49.3z" fill="#409EFF"/></svg>
