<svg width="256" height="256" viewBox="0 0 256 256" fill="none" xmlns="http://www.w3.org/2000/svg">
<g clip-path="url(#clip0_33_831)">
<path d="M196 0H60C26.8629 0 0 26.8629 0 60V196C0 229.137 26.8629 256 60 256H196C229.137 256 256 229.137 256 196V60C256 26.8629 229.137 0 196 0Z" fill="#242938"/>
<path d="M186.844 175.062C186.887 174.022 187.061 171.25 187.277 168.868C188.317 157.432 185.371 145.736 179.134 136.51C177.011 133.348 177.011 133.348 169.821 130.965C162.63 128.583 162.63 128.583 162.587 126.98C162.587 125.421 162.543 125.378 160.334 124.901C153.62 123.428 147.079 124.078 138.719 127.067C136.034 128.02 133.218 128.8 132.482 128.8C131.095 128.8 131.095 128.8 130.792 124.078C130.662 121.479 130.142 117.84 129.666 116.021C128.107 109.957 127.76 110.303 135.427 110.043C142.661 109.827 145.953 109.09 151.628 106.491C155.353 104.759 158.905 102.42 158.385 101.986C158.212 101.813 156.956 101.207 155.656 100.687C151.498 99.0409 146.646 95.8788 144.394 93.453C142.574 91.4604 142.055 90.4208 141.102 87.302C137.939 76.776 133.391 71.7946 123.818 68.3726C122.649 67.9394 120.916 66.8998 120.006 66.0335C117.537 63.7377 114.938 60.1857 114.938 59.1894C114.938 58.3664 115.285 58.2797 118.967 58.0198C132.785 57.0669 140.885 57.7599 150.545 60.7488C171.293 67.2463 187.061 80.9345 196.157 100.384C202.525 113.985 204.431 131.355 201.312 146.993C200.316 152.104 197.803 159.338 195.378 164.319C192.735 169.691 188.144 176.881 187.407 176.881C187.017 176.881 186.844 176.231 186.844 175.062Z" fill="#333333"/>
<path d="M53.9048 149.938C52.6919 143.614 52.3887 140.019 52.3887 131.182C52.3454 123.038 52.5187 120.959 53.2984 116.887C56.2006 102.679 62.9147 89.9443 72.8776 79.8948C77.6424 75.0433 80.8912 72.0544 81.3244 72.0544C81.411 72.0544 81.8442 73.094 82.2773 74.3502C83.2303 77.3391 85.0496 80.8478 86.9556 83.5334C87.9952 84.9629 88.515 86.1757 88.515 87.0854C88.515 88.3849 88.2984 88.6015 86.0026 89.771C80.8912 92.37 76.7761 96.0087 72.9642 101.423C70.7551 104.542 70.7551 104.542 73.7872 104.542C76.8194 104.542 76.8194 104.542 76.8194 106.015C76.8194 107.314 76.5595 107.618 74.8702 108.614C73.7872 109.264 71.7513 110.78 70.2786 111.949C61.7885 119.053 55.6375 134.777 55.5942 149.505C55.5942 151.541 55.4642 152.191 54.9877 152.191C54.5546 152.191 54.208 151.411 53.9048 149.938Z" fill="#333333"/>
<path d="M134.431 90.8974C134.431 89.468 134.518 89.3813 135.947 89.3813C137.376 89.3813 137.463 89.468 137.463 90.8974C137.463 92.3269 137.376 92.4135 135.947 92.4135C134.518 92.4135 134.431 92.3269 134.431 90.8974Z" fill="#333333"/>
<path d="M122.302 83.1003C122.302 81.6709 122.389 81.5842 123.818 81.5842C125.248 81.5842 125.334 81.6709 125.334 83.1003C125.334 84.5298 125.248 84.6164 123.818 84.6164C122.389 84.6164 122.302 84.5298 122.302 83.1003Z" fill="#333333"/>
<path d="M166.095 201.572C169.777 196.157 171.9 188.923 170.86 185.198C170.167 182.642 167.958 180.563 165.229 179.913C160.854 178.874 155.872 180.433 140.062 187.884C131.095 192.129 123.948 194.684 118.187 195.767C113.725 196.59 102.246 196.46 98.0445 195.507C87.995 193.298 78.2487 189.01 74.4368 185.111C72.271 182.902 72.271 182.902 72.271 174.369C72.271 167.655 72.4443 165.142 73.0507 162.5C73.8304 159.121 73.8304 159.121 75.3465 159.121C76.4727 159.121 76.8193 159.295 76.8193 159.901C76.8626 160.507 77.0358 160.421 77.8156 159.511C83.9665 152.191 85.6992 150.198 85.9158 150.025C86.0457 149.895 87.7351 147.946 89.5977 145.693C92.9331 141.665 92.9764 141.578 91.8502 141.448C90.8539 141.318 90.6806 141.102 90.6806 139.802C90.6806 138.762 90.8972 138.329 91.3304 138.329C91.6769 138.329 91.9802 138.156 91.9802 137.939C91.9802 137.463 96.2252 135.6 99.8205 134.517C103.372 133.434 110.606 132.568 113.075 132.958C114.808 133.218 114.938 133.305 114.895 134.604C114.895 135.73 114.548 136.163 112.902 137.246C111.776 137.983 110.39 139.239 109.783 140.062C108.527 141.751 108.787 141.621 112.382 138.676C115.545 136.12 123.515 130.922 127.24 129.016C130.619 127.283 130.619 127.283 130.402 122.735C130.272 120.223 129.839 117.104 129.449 115.805C129.059 114.505 128.626 112.686 128.496 111.819C128.28 110.173 128.28 110.173 129.796 110.173C130.749 110.173 131.398 110.433 131.572 110.823C131.745 111.256 131.528 111.473 130.922 111.473C130.229 111.473 130.099 111.646 130.316 112.253C131.095 114.332 131.832 118.663 132.092 122.865C132.265 125.421 132.438 127.5 132.481 127.5C132.525 127.5 134.734 126.72 137.42 125.767C145.303 122.952 152.97 122.042 159.381 123.212C162.76 123.818 170.384 126.287 170.384 126.764C170.384 127.024 169.301 127.067 167.871 126.894C162.846 126.331 163.799 127.11 171.12 129.579C178.311 132.048 178.311 132.048 180.433 135.21C186.931 144.827 189.746 156.739 188.62 169.864C188.36 172.809 188.23 175.365 188.36 175.582C188.49 175.755 188.23 176.361 187.797 176.925C187.364 177.488 186.454 179.35 185.804 180.996C182.859 188.447 177.184 196.071 171.25 200.489C169.82 201.572 165.056 204.171 164.536 204.171C164.406 204.171 165.099 203.001 166.095 201.572ZM184.895 149.115C183.985 145.563 179.48 136.25 178.527 135.817C178.311 135.73 178.181 135.427 178.181 135.167C178.181 134.864 177.747 134.387 177.228 134.041C175.668 133.045 164.319 129.233 161.98 128.886C159.771 128.583 159.771 128.583 159.771 126.764C159.771 124.944 159.771 124.944 156.999 124.641C153.057 124.208 147.339 124.684 143.527 125.767C139.499 126.894 133.521 129.233 133.738 129.623C134.084 130.142 142.747 134.171 145.65 135.167C146.733 135.514 149.808 136.77 152.407 137.983C158.515 140.712 158.601 140.755 166.269 143.96C169.864 145.433 173.546 146.993 174.499 147.426C175.452 147.859 177.791 148.812 179.697 149.592C181.603 150.328 183.639 151.194 184.245 151.498C184.851 151.801 185.371 152.017 185.458 151.931C185.545 151.887 185.285 150.631 184.895 149.115Z" fill="url(#paint0_linear_33_831)"/>
<path d="M54.7276 153.1C54.2511 152.191 54.1212 145.26 54.5544 143.657C54.7276 143.094 55.1175 142.661 55.4207 142.661C55.8972 142.661 56.0271 143.787 56.0271 148.292C56.0271 153.793 55.7239 154.92 54.7276 153.1Z" fill="#666666"/>
<path d="M54.9443 139.802C55.6374 134.041 58.9728 123.688 60.2723 123.255C61.1819 122.952 60.8787 125.378 59.4926 128.843C58.193 132.222 56.4604 139.196 56.4604 141.145C56.4604 141.968 56.2438 142.228 55.5507 142.228C54.6844 142.228 54.6411 142.098 54.9443 139.802Z" fill="#666666"/>
<path d="M61.2251 120.613C61.2251 120.396 62.2214 118.75 63.3909 116.931C65.86 113.292 69.2387 110.043 73.0939 107.661C75.6929 106.058 75.6929 106.058 74.1768 105.798C73.3538 105.625 73.0506 105.495 73.4838 105.452C73.8736 105.452 74.2201 105.105 74.2201 104.759C74.2201 104.282 74.6966 104.109 75.9528 104.109C77.6422 104.109 77.6855 104.152 77.6855 105.625C77.6855 106.708 77.4689 107.271 76.9491 107.444C76.5159 107.618 75.9095 108.007 75.6063 108.311C75.3031 108.614 74.7399 108.874 74.3934 108.874C74.0469 108.874 73.787 109.09 73.787 109.307C73.787 109.567 73.5271 109.74 73.1805 109.74C72.834 109.74 72.4875 110.043 72.3142 110.39C72.1843 110.736 71.6645 111.04 71.188 111.04C70.7115 111.04 70.3216 111.299 70.3216 111.603C70.3216 112.296 66.7697 115.804 66.0766 115.804C65.7734 115.804 65.5568 116.194 65.5568 116.671C65.5568 117.147 65.3835 117.537 65.1236 117.537C64.907 117.537 64.6904 117.84 64.6904 118.187C64.6904 118.533 64.5172 118.837 64.3006 118.837C64.084 118.837 63.7808 119.313 63.6508 119.92C63.4343 120.699 63.0877 121.002 62.308 121.002C61.7016 121.002 61.2251 120.829 61.2251 120.613Z" fill="#666666"/>
<path d="M138.762 110.78C138.762 110.087 139.282 109.827 141.708 109.437C145.433 108.787 150.111 107.488 150.718 106.925C150.978 106.708 152.234 106.015 153.533 105.408C154.833 104.802 155.959 104.196 156.002 104.022C156.089 103.806 156.349 103.676 156.566 103.676C156.782 103.676 157.302 103.329 157.735 102.896C158.385 102.246 158.428 101.986 157.995 101.597C157.692 101.293 157.042 101.077 156.522 101.077C156.046 101.077 155.656 100.903 155.656 100.644C155.656 100.427 155.266 100.21 154.833 100.21C153.533 100.21 152.624 99.7339 152.624 99.0842C152.624 98.7376 152.191 98.4777 151.584 98.4777C150.978 98.4777 150.241 98.2178 149.938 97.8713C149.592 97.5681 148.898 97.1349 148.379 97.005C147.859 96.8317 147.426 96.3985 147.426 96.052C147.426 95.7055 147.079 95.4456 146.646 95.4456C145.78 95.4456 143.527 93.323 143.527 92.5C143.527 92.1968 143.354 91.9802 143.094 91.9802C142.877 91.9802 142.661 91.4171 142.661 90.6807C142.661 89.901 142.444 89.3812 142.098 89.3812C141.578 89.3812 139.629 83.75 139.629 82.2339C139.629 81.8874 139.455 81.5842 139.239 81.5842C139.022 81.5842 138.502 80.7178 138.026 79.6349C137.593 78.552 137.116 77.6857 136.943 77.6857C136.726 77.6857 136.596 77.2958 136.596 76.8193C136.596 76.3428 136.337 75.953 136.033 75.953C135.34 75.953 133.131 73.7005 133.131 73.0075C133.131 72.7042 132.741 72.4876 132.265 72.4876C131.788 72.4876 131.398 72.3144 131.398 72.1411C131.398 71.9678 130.705 71.5347 129.882 71.2315C129.059 70.9282 128.366 70.4084 128.366 70.0619C128.366 69.6721 127.89 69.4555 127.067 69.4555C126.374 69.4555 125.767 69.3255 125.767 69.1089C125.767 68.9357 124.771 68.5458 123.515 68.2426C120.959 67.6362 118.837 65.9035 118.837 64.4307C118.837 63.7376 118.533 63.3911 117.884 63.3045C117.234 63.2178 116.844 62.828 116.757 62.2216C116.671 61.6584 116.324 61.2253 115.978 61.2253C115.631 61.2253 115.371 60.9221 115.371 60.5755C115.371 60.229 115.198 59.9258 114.938 59.9258C114.721 59.9258 114.505 59.5359 114.505 59.0594C114.505 57.7599 115.934 57.9765 116.757 59.406C118.1 61.7018 122.692 66.3367 123.905 66.5966C124.598 66.7698 126.937 67.7661 129.146 68.849C136.207 72.2711 139.585 76.6461 142.401 86.0025C143.354 89.1213 143.874 90.1609 145.693 92.1535C148.119 94.7958 152.884 97.7414 157.995 99.8206C159.814 100.557 161.287 101.38 161.287 101.64C161.287 102.679 157.518 105.538 153.793 107.314C149.635 109.307 144.913 110.78 141.058 111.3C138.979 111.559 138.762 111.516 138.762 110.78Z" fill="#666666"/>
<path d="M67.7227 105.495C67.7227 105.278 68.3724 104.369 69.1521 103.416C69.9318 102.506 71.4912 100.47 72.5741 98.8675C73.6571 97.3081 74.8699 95.792 75.2598 95.4888C75.8662 94.969 75.9529 95.099 75.9529 96.5284C75.9529 97.7413 75.7363 98.1744 75.0865 98.3477C74.61 98.4777 74.2202 98.9542 74.2202 99.3873C74.2202 99.8638 74.0469 100.21 73.787 100.21C73.5704 100.21 73.3538 100.514 73.3538 100.86C73.3538 101.207 73.1806 101.51 72.9207 101.51C72.7041 101.51 72.4875 101.813 72.4875 102.16C72.4875 102.506 72.0977 102.809 71.6212 102.809C70.9714 102.809 70.7548 103.113 70.7548 103.892C70.7548 104.499 70.4083 105.148 69.9318 105.408C68.8922 105.928 67.7227 105.971 67.7227 105.495Z" fill="#666666"/>
<path d="M77.6855 93.2364C79.5048 91.6336 83.4034 88.948 83.8365 88.948C84.0531 88.948 84.1831 89.4245 84.1831 90.0309C84.1831 90.724 83.9232 91.1138 83.5333 91.1138C83.1868 91.1138 82.8836 91.3304 82.8836 91.547C82.8836 91.8069 82.5803 91.9802 82.2338 91.9802C81.8873 91.9802 81.584 92.1968 81.584 92.4133C81.584 92.6732 81.1076 92.8465 80.5011 92.8465C79.7214 92.8465 79.4182 93.0631 79.4182 93.7128C79.4182 94.4492 79.115 94.5792 77.8155 94.5792C76.1694 94.5359 76.1694 94.5359 77.6855 93.2364Z" fill="#666666"/>
<path d="M128.106 91.7636C123.385 89.3811 120.829 85.1794 122.129 81.844C122.562 80.6744 125.074 80.9343 125.767 82.1905C126.504 83.5767 129.103 85.396 133.478 87.6051C137.03 89.3811 137.03 89.3811 137.03 91.1138C137.03 92.8465 137.03 92.8465 133.651 92.8465C130.922 92.8465 129.882 92.6299 128.106 91.7636Z" fill="#666666"/>
<path d="M84.6162 88.948C84.6162 88.7314 85.2226 88.2116 85.9157 87.8651C87.3452 87.1287 87.3885 87.2153 85.2226 84.1831C83.5333 81.7574 82.1471 79.0718 81.1075 76.0829C80.3278 73.7871 80.3278 73.7871 81.3674 73.7871C82.1905 73.7871 82.4504 74.1336 82.9268 75.953C83.2301 77.1658 83.6199 78.1188 83.7932 78.1188C83.9665 78.1188 84.4429 78.9851 84.9194 80.068C85.3526 81.151 85.8291 82.0173 86.0457 82.0173C86.2189 82.0173 86.3489 82.3205 86.3489 82.6671C86.3489 83.0136 86.5655 83.3168 86.782 83.3168C87.0419 83.3168 87.2152 83.7067 87.2152 84.1831C87.2152 84.6596 87.5184 85.0495 87.865 85.0495C88.2981 85.0495 88.5147 85.526 88.5147 86.5656C88.5147 87.3886 88.3415 88.0817 88.0815 88.0817C87.865 88.0817 87.6484 88.3849 87.6484 88.7314C87.6484 89.1646 87.1719 89.3812 86.1323 89.3812C85.3093 89.3812 84.6162 89.2079 84.6162 88.948Z" fill="#666666"/>
<path d="M181.863 79.7648C179.697 77.469 179.697 77.469 181.993 79.6349C183.205 80.8044 184.245 81.844 184.245 81.8873C184.245 82.2339 183.855 81.844 181.863 79.7648Z" fill="#666666"/>
<path d="M73.1807 183.855C71.578 182.079 71.1015 172.073 72.2711 164.839C75.2599 146.386 91.677 132.698 110.866 132.698C114.938 132.698 114.938 132.698 114.938 134.214C114.938 135.254 114.635 135.99 113.985 136.51C111.43 138.589 109.74 140.192 109.74 140.625C109.74 140.885 110.043 140.668 110.433 140.149C110.78 139.629 111.343 139.196 111.603 139.196C111.906 139.196 112.382 138.806 112.686 138.329C112.989 137.853 113.379 137.463 113.639 137.463C113.855 137.463 114.548 136.986 115.198 136.38C115.848 135.774 116.628 135.297 116.931 135.297C117.277 135.297 117.537 135.124 117.537 134.907C117.537 134.214 130.316 126.634 131.485 126.634C131.658 126.634 131.832 126.937 131.832 127.284C131.832 128.15 132.135 128.107 135.557 126.72C142.314 123.948 145.26 123.385 153.274 123.385C160.594 123.428 160.681 123.428 165.186 124.988C169.734 126.547 169.734 126.547 165.272 126.59C160.681 126.634 159.641 127.197 163.323 127.63C164.493 127.76 168.348 128.886 171.9 130.186C178.397 132.482 178.397 132.482 180.043 134.864C182.772 138.849 185.458 144.784 186.628 149.548C187.234 152.017 187.667 154.357 187.58 154.746C187.407 155.31 187.364 155.31 187.321 154.66C187.321 154.227 187.061 154.01 186.801 154.14C186.584 154.313 185.371 153.967 184.115 153.36C182.859 152.754 180.303 151.628 178.397 150.891C176.491 150.155 174.152 149.159 173.199 148.725C172.246 148.292 168.564 146.733 164.969 145.26C157.302 142.055 157.215 142.011 151.108 139.282C148.509 138.069 145.433 136.813 144.35 136.467C142.444 135.817 139.369 134.431 133.824 131.745C132.438 131.095 131.009 130.532 130.662 130.532C130.272 130.532 130.099 130.272 130.229 129.926C130.402 129.493 130.272 129.363 129.882 129.536C129.536 129.666 129.363 129.969 129.536 130.229C129.666 130.489 129.579 130.532 129.276 130.359C128.236 129.709 117.537 136.727 109.783 143.224C107.834 144.827 106.188 146.126 106.058 146.126C105.798 146.126 106.231 143.787 106.751 141.925C107.401 139.802 109.567 137.116 111.733 135.774C113.639 134.517 113.639 134.517 112.382 134.344C108.744 133.824 97.7847 136.12 98.2179 137.333C98.3478 137.636 98.3045 137.896 98.0879 137.896C97.9147 137.896 96.875 139.109 95.8354 140.582C94.1461 143.008 87.9085 150.761 87.2154 151.324C87.0854 151.454 85.8293 152.927 84.3998 154.573C76.2129 164.363 74.7401 165.792 74.6102 164.016C74.5669 163.583 74.307 164.493 73.9604 166.052C73.2241 169.604 73.2241 177.444 73.9604 181.56C74.2637 183.249 74.3503 184.678 74.2203 184.678C74.0471 184.678 73.6139 184.332 73.1807 183.855Z" fill="url(#paint1_linear_33_831)"/>
<path d="M54.9443 140.842C55.5507 136.293 56.9802 130.706 58.6262 126.417C60.4022 121.912 63.9109 115.805 65.5569 114.289C66.4666 113.466 66.4666 113.466 66.3366 115.155C66.25 116.584 66.0334 116.931 65.2537 117.017C64.474 117.147 64.2574 117.451 64.2574 118.447C64.2574 119.27 64.0408 119.703 63.6077 119.703C63.2611 119.703 62.9579 120.093 62.9579 120.569C62.9579 121.609 61.1819 125.334 60.7054 125.334C60.5322 125.334 60.3589 125.811 60.3589 126.417C60.3589 127.024 60.1856 127.5 59.9257 127.5C59.7092 127.5 59.4926 127.803 59.4926 128.15C59.4926 128.496 58.9728 130.489 58.3663 132.568C57.7599 134.691 57.0668 137.896 56.7636 139.759C56.3738 142.574 56.1572 143.094 55.4641 143.094C54.7277 143.094 54.6844 142.878 54.9443 140.842Z" fill="#999999"/>
<path d="M130.099 120.006C130.099 119.227 129.709 117.104 129.233 115.328C128.756 113.552 128.366 111.603 128.366 110.953C128.366 109.74 128.366 109.74 131.615 109.74C134.561 109.74 134.864 109.827 134.864 110.607C134.864 111.386 134.561 111.473 132.265 111.473C129.753 111.473 129.666 111.516 130.099 112.339C130.619 113.292 131.832 119.183 131.832 120.613C131.832 121.133 131.529 121.436 130.965 121.436C130.272 121.436 130.099 121.133 130.099 120.006Z" fill="#999999"/>
<path d="M69.0222 110.823C69.3254 110.476 70.9715 109.264 72.6608 108.137C74.3502 107.054 75.8663 106.015 76.0395 105.885C76.2128 105.712 75.0432 105.668 73.3972 105.755C70.7549 105.928 70.365 105.842 70.1918 105.149C70.0185 104.412 69.9752 104.412 69.9319 105.105C69.8885 105.582 69.542 105.842 68.8056 105.842C67.5061 105.842 67.5494 105.712 69.8885 102.679C70.7116 101.553 71.5779 100.644 71.7945 100.644C71.9677 100.644 72.0544 101.423 71.9677 102.376C71.7945 104.109 71.7945 104.109 74.9566 104.109C78.1187 104.109 78.1187 104.109 78.1187 105.625C78.1187 106.665 77.9022 107.141 77.469 107.141C77.1225 107.141 76.8192 107.358 76.8192 107.574C76.8192 107.834 76.3427 108.007 75.7363 108.007C75.0432 108.007 74.6534 108.267 74.6534 108.657C74.6534 109.004 74.3502 109.307 74.0036 109.307C73.6571 109.307 73.3539 109.524 73.3539 109.74C73.3539 110 72.964 110.173 72.4875 110.173C72.0111 110.173 71.6212 110.476 71.6212 110.823C71.6212 111.299 71.1447 111.473 70.0618 111.473C68.719 111.473 68.5457 111.386 69.0222 110.823Z" fill="#999999"/>
<path d="M137.03 110.736C137.03 109.957 137.42 109.827 140.019 109.567C143.181 109.307 151.151 106.925 152.104 105.972C152.407 105.668 153.274 105.408 153.967 105.408C154.79 105.408 155.223 105.192 155.223 104.759C155.223 104.412 155.526 104.109 155.873 104.109C156.219 104.109 156.522 103.936 156.522 103.676C156.522 103.459 156.912 103.243 157.389 103.243C157.865 103.243 158.255 102.983 158.255 102.636C158.255 102.29 157.865 101.857 157.389 101.727C156.912 101.597 156.522 101.25 156.522 101.033C156.522 100.817 156.046 100.644 155.439 100.644C154.746 100.644 154.357 100.384 154.357 99.9939C154.357 99.604 153.967 99.3441 153.317 99.3441C151.801 99.3441 150.891 98.911 150.891 98.2179C150.891 97.8714 150.458 97.6115 149.808 97.6115C149.158 97.6115 148.725 97.3516 148.725 97.005C148.725 96.6152 148.206 96.312 147.556 96.2253C146.516 96.0954 146.3 95.8788 146.213 94.6226C146.04 93.1065 146.04 93.1065 147.512 94.2328C149.852 96.0087 154.14 98.3479 157.605 99.8206C159.381 100.557 160.941 101.293 161.071 101.51C161.547 102.246 157.735 105.192 153.707 107.184C149.072 109.437 144.61 110.78 139.932 111.256C137.246 111.559 137.03 111.516 137.03 110.736Z" fill="#999999"/>
<path d="M73.0075 98.3913C74.7835 95.7922 78.3788 92.5002 81.8008 90.291C83.6635 89.0781 85.3961 88.0819 85.6993 88.0819C86.0026 88.0819 86.479 87.7786 86.7823 87.4321C87.1721 86.9556 87.0855 86.5224 86.2191 85.3962C83.5335 81.8875 79.8949 73.9172 80.5013 72.921C80.6313 72.6611 81.0211 72.4878 81.3677 72.4878C82.0174 72.4878 83.7501 77.2093 83.7501 79.072C83.7501 79.9816 83.9667 80.2848 84.6164 80.2848C85.1795 80.2848 85.5694 80.6747 85.7427 81.3677C85.8726 81.9742 86.1758 82.4507 86.3924 82.4507C86.609 82.4507 86.7823 82.7539 86.7823 83.1004C86.7823 83.447 86.9988 83.7502 87.2154 83.7502C87.4753 83.7502 87.6486 84.14 87.6486 84.6165C87.6486 85.093 87.9085 85.4828 88.255 85.4828C88.9914 85.4828 89.3813 86.4358 89.3813 88.1252C89.3813 89.1648 89.208 89.3814 88.2984 89.3814C87.2154 89.3814 84.0533 90.6809 83.8367 91.244C83.7501 91.4172 83.4036 91.5472 83.057 91.5472C82.7105 91.5472 82.4506 91.7638 82.4506 91.9804C82.4506 92.2403 82.1907 92.4135 81.8441 92.4135C81.4976 92.4135 81.1511 92.7168 80.9778 93.0633C80.8479 93.4098 80.3281 93.713 79.8516 93.713C79.3751 93.713 78.9852 93.9729 78.9852 94.2762C78.9852 95.0992 76.2563 97.6116 75.3899 97.6116C74.9135 97.6116 74.6536 97.9581 74.6536 98.6945C74.6536 99.6041 74.437 99.7774 73.3107 99.7774C72.0112 99.7774 72.0112 99.7774 73.0075 98.3913Z" fill="#999999"/>
<path d="M130.879 92.9766C130.186 92.8899 129.666 92.5867 129.666 92.3701C129.666 92.1535 129.189 91.9803 128.583 91.9803C127.976 91.9803 127.5 91.807 127.5 91.5471C127.5 91.3305 127.197 91.1139 126.85 91.1139C126.504 91.1139 126.2 90.9407 126.2 90.6808C126.2 90.4642 125.941 90.2476 125.637 90.2476C125.031 90.2476 123.168 88.3417 123.168 87.6919C123.168 87.4753 122.952 87.2154 122.648 87.1288C122.389 87.0421 122.085 85.786 121.955 84.2699C121.782 81.5842 121.782 81.5842 123.775 81.5842C125.204 81.5842 125.767 81.7575 125.767 82.1907C125.767 82.5372 126.071 82.8837 126.417 83.057C126.764 83.187 127.067 83.5768 127.067 83.9667C127.067 84.3132 127.457 84.6164 127.933 84.6164C128.41 84.6164 128.799 84.7897 128.799 85.0063C128.799 85.2228 129.276 85.5261 129.882 85.656C130.662 85.8726 130.965 86.2191 130.965 86.9988C130.965 87.6053 130.792 88.0818 130.575 88.0818C129.752 88.0818 125.031 84.5731 124.468 83.5335C123.558 81.8441 122.952 83.2736 123.775 85.1795C125.074 88.385 130.012 91.5471 133.608 91.5471C136.207 91.5471 136.553 91.0273 134.647 90.1176C132.785 89.2513 132.698 88.5149 134.431 88.5149C136.726 88.5149 137.896 89.3379 137.896 90.984C137.896 92.2835 137.766 92.4134 136.597 92.4134C135.903 92.4134 135.297 92.63 135.297 92.8466C135.297 93.2798 133.218 93.3231 130.879 92.9766Z" fill="#999999"/>
<path d="M143.094 92.37C143.094 92.1101 142.791 91.6336 142.444 91.2871C142.098 90.8972 141.795 90.1608 141.795 89.5977C141.795 89.0346 141.665 88.5148 141.448 88.4282C140.972 88.2116 139.196 82.3638 139.196 80.9777C139.196 78.5952 140.278 80.1547 141.838 84.7029C142.661 87.2586 143.874 90.1175 144.524 91.0705C145.693 92.8465 145.693 92.8465 144.394 92.8465C143.701 92.8465 143.094 92.6299 143.094 92.37Z" fill="#999999"/>
<path d="M137.03 77.9455C137.03 77.599 136.813 77.2524 136.553 77.1658C136.293 77.0792 136.163 76.3428 136.25 75.5198C136.38 74.0037 136.38 74.0037 137.81 75.9096C139.499 78.2054 139.542 78.5519 138.113 78.5519C137.463 78.5519 137.03 78.292 137.03 77.9455Z" fill="#999999"/>
<path d="M131.832 72.4876C131.832 72.271 131.529 72.0544 131.182 72.0544C130.835 72.0544 130.532 71.6646 130.532 71.1881C130.532 70.5383 130.229 70.3218 129.363 70.3218C128.756 70.3218 126.807 69.802 125.074 69.1522C122.432 68.1559 121.869 67.7661 121.869 66.9864C121.869 65.9901 121.869 65.9901 125.031 67.1163C128.323 68.3292 133.478 71.1448 134.431 72.2277C134.907 72.8341 134.777 72.9208 133.391 72.9208C132.525 72.9208 131.832 72.7475 131.832 72.4876Z" fill="#999999"/>
<path d="M98.1312 65.297C97.0482 64.5606 96.8317 63.391 97.7846 63.391C98.1312 63.391 98.4777 63.0878 98.651 62.7413C98.7809 62.3948 99.1274 62.0915 99.4307 62.0915C99.7339 62.0915 100.514 61.7883 101.207 61.4851C101.856 61.1386 102.376 61.0086 102.376 61.1819C102.376 61.3985 103.502 61.7017 104.889 61.8316C106.231 61.9616 108.874 62.3514 110.736 62.6113C114.072 63.1311 114.072 63.1311 114.072 64.5606C114.072 65.99 114.072 65.99 106.578 65.99C100.514 65.99 98.9109 65.8601 98.1312 65.297Z" fill="#999999"/>
<path d="M118.274 64.8206C118.1 64.6906 117.97 64.0842 117.97 63.5211C117.97 62.7847 117.711 62.5248 117.061 62.5248C116.541 62.5248 116.064 62.1783 115.935 61.6585C115.805 61.182 115.545 60.7921 115.328 60.7921C115.111 60.7921 114.938 60.229 114.938 59.4926C114.938 58.7996 115.111 58.1931 115.285 58.1931C115.501 58.1931 116.628 59.406 117.797 60.8788C121.392 65.4703 121.219 65.1238 119.79 65.1238C119.097 65.1238 118.404 64.9939 118.274 64.8206Z" fill="#999999"/>
<path d="M73.2241 183.812C72.6177 183.119 71.9246 182.513 71.7514 182.513C70.9717 182.513 68.7192 179.61 68.0261 177.748C66.4667 173.416 65.9902 170.211 65.9902 163.453C65.9902 153.317 67.8095 146.17 72.661 137.29C77.036 129.233 85.1363 120.136 91.8071 115.718C96.4853 112.599 103.373 109.437 108.224 108.138C112.036 107.141 113.422 107.011 119.703 106.968C125.464 106.968 127.11 107.098 128.15 107.661C130.142 108.701 134.647 109.74 137.29 109.74C139.022 109.74 139.629 109.914 139.629 110.347C139.629 111.3 137.42 111.603 133.261 111.256C129.709 110.953 129.536 110.953 129.839 111.733C130.879 114.375 131.485 117.97 131.702 122.779C131.962 128.237 131.962 128.237 128.107 130.272C122.995 133.001 117.884 136.423 112.642 140.669C106.015 146.04 106.275 145.867 106.275 145.173C106.275 142.141 109.09 137.593 112.123 135.73C112.946 135.211 113.639 134.604 113.639 134.388C113.639 133.781 108.484 133.911 104.629 134.647C88.7749 137.68 76.1264 150.501 73.5707 166.139C72.5744 172.29 72.8776 180.52 74.2637 183.769C74.9135 185.285 74.4803 185.328 73.2241 183.812Z" fill="#CCCCCC"/>
<path d="M55.1611 153.967C54.468 152.624 54.6413 151.758 55.5942 151.758C56.2873 151.758 56.4606 152.061 56.4606 153.274C56.4606 154.963 55.8541 155.266 55.1611 153.967Z" fill="#CCCCCC"/>
<path d="M54.7278 144.09C54.7278 141.881 55.984 135.081 57.1102 131.269C58.4097 126.807 60.5322 121.869 61.182 121.869C62.0483 121.869 61.6585 124.121 60.1424 127.89C58.3231 132.438 56.9803 137.896 56.5904 142.141C56.3738 144.784 56.2006 145.26 55.5508 145.26C54.9444 145.26 54.7278 144.957 54.7278 144.09Z" fill="#CCCCCC"/>
<path d="M61.2253 121.176C61.2253 120.569 63.911 116.324 65.2971 114.722C66.8132 112.989 66.8132 112.989 66.8565 114.635C66.8565 115.935 66.7266 116.238 65.9902 116.238C65.3404 116.238 65.1239 116.541 65.1239 117.321C65.1239 118.014 64.864 118.404 64.4741 118.404C64.1276 118.404 63.8244 118.793 63.8244 119.227C63.8244 120.743 63.3045 121.436 62.2649 121.436C61.7018 121.436 61.2253 121.306 61.2253 121.176Z" fill="#CCCCCC"/>
<path d="M68.4158 111.429C68.849 110.91 70.9715 109.35 73.094 107.964C76.2561 105.885 76.7759 105.408 75.823 105.408C75.1732 105.408 74.6534 105.235 74.6534 105.019C74.6534 104.499 75.7797 104.109 77.2957 104.109C78.422 104.109 78.5519 104.239 78.5519 105.582C78.5519 107.098 77.9888 107.574 76.3428 107.574C75.9096 107.574 75.5198 107.877 75.5198 108.224C75.5198 108.571 75.2165 108.874 74.87 108.874C74.5235 108.874 74.2202 109.09 74.2202 109.307C74.2202 109.567 73.917 109.74 73.5705 109.74C73.224 109.74 72.9207 109.957 72.9207 110.173C72.9207 110.433 72.5742 110.606 72.0977 110.606C71.6646 110.606 71.1881 110.996 71.0581 111.473C70.8848 112.166 70.4517 112.339 69.1955 112.339C67.5928 112.339 67.5928 112.339 68.4158 111.429Z" fill="#CCCCCC"/>
<path d="M140.495 110.26C140.495 109.394 142.141 108.874 144.957 108.874C145.607 108.874 146.126 108.701 146.126 108.441C146.126 108.224 146.733 108.008 147.426 108.008C148.162 108.008 148.725 107.834 148.725 107.574C148.725 107.358 149.202 107.141 149.808 107.141C150.415 107.141 150.891 106.968 150.891 106.708C150.891 106.491 151.498 106.275 152.191 106.275C153.014 106.275 153.49 106.058 153.49 105.668C153.49 104.975 154.4 104.542 155.916 104.542C156.652 104.542 156.956 104.282 156.956 103.676C156.956 103.026 157.259 102.809 158.082 102.809C159.078 102.809 159.121 102.723 158.515 102.16C158.168 101.813 157.649 101.51 157.345 101.51C156.999 101.51 155.916 101.207 154.92 100.817C153.663 100.297 153.057 99.8206 153.057 99.3008C153.057 98.6511 152.71 98.4778 151.541 98.4778C150.501 98.4778 150.025 98.2612 150.025 97.828C150.025 97.4382 149.635 97.1783 148.942 97.1783C148.076 97.1783 147.859 96.9617 147.859 96.0954C147.859 95.4889 147.946 95.0125 148.076 95.0125C148.206 95.0125 149.808 95.8788 151.671 96.9184C153.49 98.0013 156.306 99.3875 157.952 100.037C159.555 100.687 160.854 101.467 160.854 101.77C160.854 102.723 157.345 105.365 153.75 107.098C150.155 108.831 145.607 110.303 142.358 110.823C140.712 111.083 140.495 111.04 140.495 110.26Z" fill="#CCCCCC"/>
<path d="M68.156 105.408C68.156 105.192 68.6758 104.369 69.3689 103.589C70.0186 102.809 71.2748 101.077 72.1845 99.734C73.0941 98.3912 74.2204 96.9184 74.6535 96.5285C75.5199 95.7488 75.5199 95.7922 75.5199 97.3516C75.5199 98.6077 75.3466 99.0409 74.6535 99.2142C74.177 99.3441 73.7872 99.8206 73.7872 100.254C73.7872 100.73 73.6139 101.077 73.3973 101.077C73.1808 101.077 72.8775 101.553 72.7476 102.16C72.531 102.939 72.1845 103.243 71.4048 103.243C70.7983 103.243 70.3218 103.459 70.3218 103.676C70.3218 103.936 70.9283 104.109 71.6214 104.109C73.1808 104.109 73.3973 105.192 71.9679 105.582C70.4518 105.972 68.156 105.885 68.156 105.408Z" fill="#CCCCCC"/>
<path d="M77.2524 93.9295C77.2524 93.5397 82.667 89.7278 84.7029 88.6882C85.9591 88.0818 87.042 87.7785 87.5185 87.9518C88.2549 88.255 88.2549 88.2117 87.5618 87.2154C83.4034 81.3243 80.8044 75.8664 80.4146 72.2711C80.3279 71.3181 80.1547 67.8961 80.0247 64.6473C79.8081 58.7129 79.8081 58.7129 84.0532 59.536C88.3849 60.3157 94.0161 61.9184 94.7958 62.5248C95.0557 62.7414 96.0086 63.0013 96.9616 63.1746C97.9146 63.3478 98.9542 63.6944 99.2574 63.9543C99.5606 64.1709 100.21 64.4308 100.773 64.4741C101.293 64.5174 101.986 64.604 102.29 64.6473C103.286 64.734 102.809 65.8169 101.423 66.6399C100.47 67.203 98.9109 67.5063 96.5284 67.6362C93.4963 67.8095 92.6299 67.6795 90.2475 66.7266C88.7314 66.0768 87.4319 65.6436 87.3453 65.7303C87.1287 65.9468 91.2438 71.8813 93.9294 75.3033C95.7054 77.5558 96.3118 78.682 96.3118 79.7216C96.3118 81.0644 96.2252 81.1511 94.7524 81.1511C92.9331 81.1511 91.8069 81.6709 89.9443 83.4469C88.5581 84.7464 88.0816 85.9159 88.948 85.9159C89.2079 85.9159 89.3812 86.5657 89.3812 87.3887C89.3812 88.6449 89.2079 88.9481 88.0383 89.3379C87.2586 89.5978 86.1757 89.8144 85.6559 89.8144C85.0062 89.8144 84.6163 90.0743 84.6163 90.4642C84.6163 90.8107 84.3131 91.1139 83.9665 91.1139C83.62 91.1139 83.3168 91.3305 83.3168 91.5471C83.3168 91.807 83.0136 91.9803 82.667 91.9803C82.3205 91.9803 82.0173 92.1969 82.0173 92.4134C82.0173 92.6733 81.6274 92.8466 81.151 92.8466C80.6745 92.8466 80.2846 93.1498 80.2846 93.4964C80.2846 93.9295 79.8081 94.1461 78.7685 94.1461C77.9455 94.1461 77.2524 94.0595 77.2524 93.9295Z" fill="#CCCCCC"/>
<path d="M129.796 92.8034C129.016 92.5868 128.366 92.1969 128.366 91.9803C128.366 91.7204 127.977 91.5472 127.5 91.5472C127.024 91.5472 126.634 91.3739 126.634 91.114C126.634 90.8974 126.331 90.6808 125.984 90.6808C125.551 90.6808 125.334 90.2477 125.334 89.3813C125.334 88.2118 125.204 88.0818 124.035 88.0818C123.038 88.0818 122.735 87.9085 122.735 87.2155C122.735 86.739 122.562 86.3491 122.302 86.3491C122.085 86.3491 121.869 85.6561 121.869 84.8331C121.869 84.01 122.085 83.317 122.302 83.317C122.562 83.317 122.735 82.8405 122.735 82.234C122.735 81.2811 122.909 81.1511 124.251 81.1511C125.594 81.1511 125.811 81.2811 126.071 82.4506C126.244 83.3603 126.547 83.7501 127.154 83.7501C127.587 83.7501 128.063 84.0534 128.193 84.3999C128.366 84.7464 128.713 85.0496 129.059 85.0496C129.406 85.0496 129.666 85.3529 129.666 85.6994C129.666 86.0459 130.056 86.3491 130.532 86.3491C131.572 86.3491 135.297 88.1251 135.297 88.6016C135.297 88.7749 135.774 88.9482 136.38 88.9482C137.376 88.9482 137.463 89.1214 137.463 90.8541C137.463 92.4568 137.29 92.8034 136.51 93.0199C135.081 93.3665 131.399 93.2798 129.796 92.8034ZM135.687 91.3306C136.553 91.0707 136.033 90.6808 132.222 88.8182C129.233 87.3454 127.024 85.916 125.681 84.5732C123.515 82.4073 122.909 82.4506 123.385 84.7031C123.948 87.2155 128.323 90.6808 132.048 91.5905C133.348 91.8937 133.824 91.8504 135.687 91.3306Z" fill="#CCCCCC"/>
<path d="M142.661 91.1141C142.661 90.2477 142.444 89.8146 142.011 89.8146C141.578 89.8146 141.361 89.3814 141.361 88.5151C141.361 87.822 141.188 87.2155 141.015 87.2155C140.842 87.2155 140.105 85.4829 139.412 83.317C138.676 81.1945 137.983 79.4185 137.809 79.4185C137.593 79.4185 137.463 79.1153 137.463 78.7688C137.463 78.4222 137.29 78.119 137.03 78.119C136.813 78.119 136.597 77.8158 136.597 77.4693C136.597 77.1227 136.423 76.8195 136.163 76.8195C135.947 76.8195 135.73 76.1264 135.73 75.2601C135.73 74.2638 135.903 73.8306 136.207 74.0472C137.506 74.8269 140.192 79.9816 141.578 84.3566C142.444 86.999 143.614 89.9012 144.22 90.8108C145.26 92.4136 145.26 92.4136 143.96 92.4136C142.791 92.4136 142.661 92.2836 142.661 91.1141Z" fill="#CCCCCC"/>
<path d="M132.265 72.9209C132.265 72.7043 131.962 72.4877 131.615 72.4877C131.269 72.4877 130.966 72.3144 130.966 72.1412C130.966 71.9679 130.272 71.5347 129.449 71.2315C128.626 70.9283 127.933 70.4951 127.933 70.2785C127.933 70.062 127.543 69.8887 127.067 69.8887C126.591 69.8887 126.201 69.7154 126.201 69.4555C126.201 69.2389 125.811 69.0224 125.334 69.0224C124.858 69.0224 123.472 68.6325 122.216 68.156C119.876 67.2464 113.985 66.4233 109.87 66.4233C108.181 66.4233 107.574 66.2501 107.574 65.8169C107.574 65.4704 107.315 65.0805 107.055 64.9939C106.751 64.8639 107.964 64.734 109.74 64.6907C112.989 64.604 112.989 64.604 109.957 64.0409C108.311 63.7377 105.625 63.3479 104.022 63.1746C102.376 63.0013 101.077 62.6981 101.077 62.4815C101.077 62.2649 101.553 61.3553 102.117 60.4456C102.68 59.5793 103.286 58.2798 103.416 57.5434C104.629 50.786 104.369 51.1325 107.141 52.6053C108.527 53.3417 110.867 54.9011 112.296 56.0706C113.769 57.2402 115.112 58.1931 115.328 58.1931C115.501 58.1931 116.194 58.9295 116.801 59.8392C117.407 60.7055 118.837 62.5248 120.05 63.8243C121.869 65.9035 122.735 66.4233 125.854 67.6362C129.319 68.9357 134.431 71.838 135.037 72.8776C135.254 73.1808 134.821 73.354 133.824 73.354C132.958 73.354 132.265 73.1808 132.265 72.9209Z" fill="#CCCCCC"/>
<path d="M69.5853 180.693C64.9938 175.972 56.8935 163.107 56.8935 160.594C56.8935 160.161 56.6336 159.035 56.2871 158.038C54.9009 154.097 54.5977 151.368 54.8576 145.91C55.3341 136.683 57.1534 129.579 61.0952 121.566C64.2574 115.112 68.1992 110.953 74.8267 106.968C77.4257 105.409 77.4257 105.409 72.7475 105.409C68.0259 105.409 68.0259 105.409 69.1955 103.979C69.8019 103.243 70.9715 101.64 71.7512 100.427C75.3032 95.0991 82.8836 88.8182 86.4789 88.2118C87.3452 88.0818 88.0816 87.8652 88.0816 87.6919C88.0816 87.562 87.6485 86.8689 87.0853 86.1759C86.0891 84.9197 86.0891 84.9197 87.8217 83.0137C89.9442 80.6746 90.7673 80.1981 93.193 79.8516C95.0123 79.635 95.0123 79.635 92.6299 76.6028C87.9084 70.6684 83.1868 62.958 83.8366 62.265C84.0098 62.135 86.1324 62.958 88.6014 64.0843C92.5433 65.9469 93.4096 66.2068 95.8787 66.2068C97.9579 66.2068 99.0841 65.9902 99.9938 65.3838C101.12 64.6474 101.77 64.6041 107.314 64.864C117.234 65.3405 120.699 65.8169 124.771 67.333C134.431 70.885 138.113 74.5669 141.318 83.9234C142.271 86.6523 143.267 89.3813 143.57 89.9011C145.13 92.9766 151.887 97.7848 157.952 100.211C159.294 100.73 160.551 101.38 160.681 101.597C161.547 102.983 152.147 108.397 146.126 109.957C141.751 111.083 134.734 111.3 131.139 110.39C129.493 110 127.587 109.35 126.85 108.961C125.854 108.441 124.251 108.267 119.703 108.311C112.469 108.354 107.401 109.524 100.687 112.772C94.5792 115.761 90.724 118.36 86.1757 122.735C77.0792 131.442 70.4084 143.051 68.1126 154.14C67.073 159.035 67.0296 167.655 67.9393 171.683C68.6757 174.845 70.5383 180.087 71.448 181.56C72.4443 183.076 71.5346 182.686 69.5853 180.693ZM136.25 91.2006C136.467 90.984 135.21 90.1177 132.871 88.9915C128.496 86.9122 125.074 84.5298 124.684 83.3169C124.338 82.2773 123.688 82.1907 123.342 83.1004C122.389 85.4828 126.244 89.6845 130.922 91.4172C132.568 92.0236 135.557 91.8937 136.25 91.2006Z" fill="white"/>
</g>
<defs>
<linearGradient id="paint0_linear_33_831" x1="43.2487" y1="41.9493" x2="41.0829" y2="43.8986" gradientUnits="userSpaceOnUse">
<stop stop-color="#8D8E8D"/>
<stop offset="0.01" stop-color="#8B8C8B"/>
<stop offset="0.02" stop-color="#8A8C8A"/>
<stop offset="0.03" stop-color="#8A8B8A"/>
<stop offset="0.04" stop-color="#828382"/>
<stop offset="0.05" stop-color="#878987"/>
<stop offset="0.12" stop-color="#848584"/>
<stop offset="0.13" stop-color="#838583"/>
<stop offset="0.14" stop-color="#838483"/>
<stop offset="0.24" stop-color="#7D7E7D"/>
<stop offset="0.25" stop-color="#7C7E7C"/>
<stop offset="0.26" stop-color="#7C7D7C"/>
<stop offset="0.28" stop-color="#7B7C7B"/>
<stop offset="0.29" stop-color="#7A7C7A"/>
<stop offset="0.3" stop-color="#7A7B7A"/>
<stop offset="0.31" stop-color="#797B79"/>
<stop offset="0.37" stop-color="#777877"/>
<stop offset="0.38" stop-color="#767876"/>
<stop offset="0.92" stop-color="#616261"/>
<stop offset="0.93" stop-color="#5F605E"/>
<stop offset="0.94" stop-color="#5F5F5E"/>
<stop offset="0.98" stop-color="#5D5E5C"/>
<stop offset="1" stop-color="#5D5D5D"/>
</linearGradient>
<linearGradient id="paint1_linear_33_831" x1="43.2488" y1="41.9494" x2="41.083" y2="43.8986" gradientUnits="userSpaceOnUse">
<stop stop-color="#8D8E8D"/>
<stop offset="0.01" stop-color="#8B8C8B"/>
<stop offset="0.02" stop-color="#8A8C8A"/>
<stop offset="0.03" stop-color="#8A8B8A"/>
<stop offset="0.04" stop-color="#828382"/>
<stop offset="0.05" stop-color="#878987"/>
<stop offset="0.12" stop-color="#848584"/>
<stop offset="0.13" stop-color="#838583"/>
<stop offset="0.14" stop-color="#838483"/>
<stop offset="0.24" stop-color="#7D7E7D"/>
<stop offset="0.25" stop-color="#7C7E7C"/>
<stop offset="0.26" stop-color="#7C7D7C"/>
<stop offset="0.28" stop-color="#7B7C7B"/>
<stop offset="0.29" stop-color="#7A7C7A"/>
<stop offset="0.3" stop-color="#7A7B7A"/>
<stop offset="0.31" stop-color="#797B79"/>
<stop offset="0.37" stop-color="#777877"/>
<stop offset="0.38" stop-color="#767876"/>
<stop offset="0.92" stop-color="#616261"/>
<stop offset="0.93" stop-color="#5F605E"/>
<stop offset="0.94" stop-color="#5F5F5E"/>
<stop offset="0.98" stop-color="#5D5E5C"/>
<stop offset="1" stop-color="#5D5D5D"/>
</linearGradient>
<clipPath id="clip0_33_831">
<rect width="256" height="256" fill="white"/>
</clipPath>
</defs>
</svg>
