<svg width="256" height="256" viewBox="0 0 256 256" fill="none" xmlns="http://www.w3.org/2000/svg">
<rect width="256" height="256" rx="60" fill="#E04E39"/>
<path d="M66.5026 184.97L67.0609 183.666L67.1335 183.48C67.5771 182.421 68.0047 181.355 68.4162 180.283C68.9644 178.866 69.4504 177.439 69.9989 176.053C70.299 175.246 70.5885 174.439 70.8886 173.642C71.5918 171.729 72.5537 169.174 73.7227 166.711C74.4158 165.274 74.9847 164.198 75.5746 163.205C76.1642 162.212 76.9401 161.053 77.6434 160.029L78.2849 159.16L79.1847 158.591C79.3179 158.501 79.4557 158.418 79.5988 158.343C80.0121 158.111 80.4405 157.907 80.8811 157.733C81.5121 157.474 82.2571 157.215 83.1362 156.946C84.3673 156.584 85.7226 156.243 87.4085 155.912C89.8086 155.384 92.4669 154.877 95.7773 154.381C100.732 153.595 106.018 152.902 112.421 152.198C123.707 150.978 134.931 150.129 145.782 149.55C151.523 149.281 155.92 149.157 160.037 149.157H162.633C165.556 149.167 168.475 149.357 171.374 149.726C172.292 149.854 173.195 150.065 174.074 150.357C174.343 150.45 174.57 150.554 174.715 150.616L175.564 150.998L176.236 151.629C176.515 151.888 176.795 152.146 177.063 152.426C178.134 153.499 179.14 154.635 180.074 155.829C183.626 160.461 186.619 165.495 188.991 170.829C191.284 175.697 192.985 180.823 194.059 186.097L195.342 192.831H179.432L178.481 188.342C177.446 183.459 164.288 170.601 157.74 168.067C157.078 167.818 154.254 167.032 145.648 167.032C127.907 167.032 102.729 170.187 99.0978 170.942C94.8564 172.918 88.2774 181.37 84.5431 189.686L83.012 193.111" fill="white"/>
<path d="M175.584 159.419C174.783 158.394 173.923 157.416 173.008 156.491L172.357 155.871L172.191 155.809C171.665 155.64 171.125 155.519 170.577 155.446C167.932 155.111 165.269 154.942 162.602 154.94C157.14 154.867 151.627 155.043 146.124 155.302C135.107 155.839 124.08 156.729 113.104 157.929C107.621 158.529 102.149 159.212 96.7287 160.07C94.0289 160.495 91.3292 160.96 88.6912 161.539C87.3773 161.819 86.0739 162.129 84.8432 162.501C84.2615 162.67 83.6884 162.866 83.1261 163.091C82.8991 163.181 82.6779 163.284 82.4638 163.401L82.3603 163.464C81.7167 164.336 81.1128 165.237 80.5502 166.163C79.9813 167.094 79.4535 168.15 78.9573 169.194C77.9747 171.263 77.1261 173.456 76.3088 175.67C75.4918 177.884 74.6952 180.128 73.8161 182.363C73.3918 183.48 72.9472 184.256 72.4815 185.373C72.2642 185.901 72.0369 186.614 71.8091 186.614H79.2468C83.2706 177.304 90.8221 167.705 97.1635 165.119C98.9115 164.405 127.017 161.074 145.596 161.074C152.485 161.074 157.254 161.323 159.778 162.305C167.392 165.243 182.536 179.373 184.098 186.614H188.411C187.481 181.854 185.923 177.237 183.777 172.887C181.598 168.085 178.847 163.563 175.585 159.419H175.584Z" fill="#BA8449"/>
<path d="M172.298 155.822L172.286 155.81L172.274 155.798L172.31 155.834L172.298 155.822Z" fill="white"/>
<path d="M172.298 155.822L172.286 155.81L172.274 155.798L172.31 155.834L172.298 155.822Z" fill="#BA8449"/>
<path d="M183.57 192.821L182.681 188.228C181.78 183.844 180.36 179.583 178.45 175.535C176.464 171.065 173.961 166.843 170.992 162.956C170.443 162.274 169.957 161.674 169.398 161.115C167.09 160.857 164.77 160.726 162.447 160.722H160.088C156.158 160.722 151.927 160.836 146.392 161.095C135.769 161.622 124.783 162.491 113.735 163.691C107.528 164.384 102.408 165.046 97.6288 165.76C94.5255 166.246 92.0946 166.691 89.9223 167.166C88.7716 167.41 87.6296 167.693 86.4982 168.015L86.136 168.129C85.929 168.46 85.7223 168.78 85.5156 169.163C85.1225 169.835 84.6986 170.622 84.1708 171.718C83.2296 173.704 82.4224 175.856 81.75 177.677C81.45 178.483 81.1605 179.259 80.8811 180.045C80.3537 181.494 79.8469 182.983 79.2156 184.494C78.7709 185.631 78.3052 186.811 77.8192 187.948L77.7571 188.114C77.55 188.611 77.3332 188.983 77.1159 189.49L75.6055 192.821H65.4059L63.9474 192.231H63.7923C62.6451 191.686 61.6998 190.793 61.0921 189.677C60.4844 188.562 60.2455 187.284 60.4096 186.024V185.766L60.5956 184.98L60.8441 184.028C61.0179 183.384 61.2007 182.743 61.3923 182.104C61.765 180.811 62.1576 179.58 62.5714 178.38C63.3473 176.073 64.2889 173.673 65.4368 171.066C66.585 168.46 67.8267 166.029 69.0574 163.825C69.7383 162.603 70.4629 161.406 71.2297 160.236C72.0677 158.953 72.8851 157.784 73.7848 156.646C74.3513 155.92 75.0162 155.275 75.7606 154.732C76.1831 154.43 76.6217 154.15 77.0745 153.895C77.6776 153.569 78.2994 153.279 78.9366 153.026C79.837 152.665 80.7553 152.351 81.6879 152.085C83.4465 151.567 85.0913 151.205 86.3431 150.936C88.8881 150.409 91.5152 149.902 95.0014 149.415C100.039 148.65 105.346 147.988 111.894 147.347C123.273 146.178 134.652 145.35 145.575 144.884C150.82 144.668 154.885 144.574 158.681 144.574H162.706C165.879 144.589 169.047 144.81 172.191 145.236H172.295C173.442 145.41 174.57 145.687 175.667 146.064H175.739C176.244 146.245 176.736 146.462 177.208 146.716C177.566 146.912 177.911 147.13 178.243 147.367L178.667 147.678L178.998 147.947L179.339 148.257C179.671 148.567 180.002 148.878 180.312 149.198C181.5 150.41 182.619 151.688 183.663 153.026C187.411 157.971 190.56 163.343 193.046 169.028C194.304 171.831 195.406 174.7 196.346 177.625C197.269 180.43 197.981 183.3 198.477 186.211L199.563 192.8L183.57 192.821Z" fill="white"/>
<path d="M72.0782 192.821L75.9884 184.7C79.2363 177.78 87.0362 165.201 95.6425 161.674H95.8082C98.715 160.588 127.876 157.226 145.616 157.226C155.599 157.226 159.323 158.26 161.257 158.974C170.257 162.439 185.877 177.118 187.987 185.818L189.725 192.852L72.0782 192.821Z" fill="white"/>
<path d="M177.788 192.821L176.753 188.528C175.719 184.442 163.46 172.143 157.099 169.691C156.509 169.463 153.995 168.76 145.627 168.76C128.476 168.76 103.763 171.801 99.7183 172.587C96.3876 174.242 90.4083 181.204 86.4673 189.614L84.8741 192.821H70.299L73.9712 184.783C78.2642 175.204 86.674 163.422 94.9701 160.029C98.1664 158.715 127.71 155.416 145.596 155.416C153.396 155.416 158.568 156.026 161.868 157.298C170.836 160.763 187.677 175.918 189.798 185.973L191.236 192.821H177.788Z" fill="white"/>
<path d="M184.45 192.821L182.784 191.404C176.484 185.549 174.757 173.508 176.722 168.511C177.806 165.225 181.282 163.37 184.615 164.301C185.722 164.229 188.38 162.077 189.167 160.784C189.784 159.635 190.711 158.683 191.843 158.036C192.975 157.388 194.267 157.072 195.57 157.122C199.863 157.122 206.804 160.526 209.08 163.743C209.707 164.588 210.119 165.573 210.281 166.612C210.443 167.652 210.35 168.716 210.01 169.712C209.949 169.877 209.845 170.218 209.679 170.684C207.321 177.77 204.28 186.283 201.787 190.245L200.121 192.821H184.45Z" fill="white"/>
<path d="M183.922 192.821L189.322 184.132C191.422 180.786 193.302 177.306 194.949 173.715C191.898 175.846 187.605 177.273 181.274 177.553L181.098 177.428L180.984 178.018C179.619 177.998 178.289 177.585 177.152 176.828C176.015 176.071 175.121 175.004 174.575 173.752C174.03 172.5 173.856 171.118 174.075 169.771C174.295 168.423 174.898 167.167 175.812 166.153C176.425 165.473 177.167 164.922 177.994 164.532C178.822 164.141 179.718 163.919 180.633 163.877C186.839 163.598 187.646 162.129 188.815 159.915C190.398 156.946 193.821 155.229 198.218 155.229C199.327 155.224 200.434 155.342 201.518 155.581C206.786 156.552 210.663 161.067 210.828 166.422C211.076 171.946 208.076 179.87 201.911 190.131L200.225 192.821H183.922Z" fill="white"/>
<path d="M206.928 175.897C199.863 175.897 192.177 171.294 188.236 166.753C184.646 162.615 184.294 158.974 184.625 156.636C185.124 153.169 188.194 150.661 191.69 150.864C192.446 150.874 193.2 150.944 193.946 151.071C194.639 147.967 196.294 141.419 202.987 141.419C203.29 141.404 203.594 141.404 203.897 141.419C205.423 141.552 206.874 142.142 208.059 143.113C209.244 144.084 210.108 145.39 210.538 146.861C211.67 146.262 212.93 145.949 214.21 145.95C215.259 145.957 216.295 146.181 217.253 146.609C218.211 147.036 219.07 147.657 219.776 148.433C220.93 149.657 221.685 151.203 221.938 152.867C222.191 154.53 221.931 156.231 221.193 157.743C222.801 158.738 223.978 160.299 224.493 162.119C224.851 163.345 224.918 164.639 224.689 165.896C224.459 167.153 223.938 168.339 223.169 169.359C220.065 173.59 213.062 175.659 207.435 175.845L206.928 175.897ZM199.894 32.1407C193.501 36.1442 186.518 45.33 178.015 57.8984C177.355 58.874 176.461 59.669 175.415 60.211C174.369 60.753 173.204 61.0248 172.026 61.0017C168.871 61.0017 164.909 59.1088 160.275 55.3745C152.92 49.4573 152.765 46.0645 152.703 44.8541C152.525 41.3144 155.208 38.2811 158.744 38.027C165.809 37.3648 171.664 33.1339 177.364 29.048C183.063 24.962 188.308 21.1551 194.577 21.1551C195.83 21.1524 197.078 21.3123 198.29 21.6309" fill="white"/>
<path d="M159.323 43.7887C176.412 42.1958 186.404 24.4862 196.821 27.2375C189.87 31.5821 182.918 40.3126 173.226 54.6505C170.94 58.0125 154.668 44.2231 159.323 43.7891V43.7887Z" fill="#FFF8EF"/>
<path d="M48.5238 35.5856C52.7856 31.6442 58.5581 29.6478 65.6646 29.6478C71.7884 29.6478 79.0191 31.148 87.1604 34.1064C89.5097 34.7951 91.9549 35.0989 94.4013 35.0062H97.5667C99.6355 35.0062 103.887 35.0062 105.646 38.9683C106.209 40.2956 106.415 41.747 106.245 43.1786C106.074 44.6102 105.533 45.9725 104.674 47.1304C101.849 51.5578 94.2255 56.2743 86.9327 56.2743H86.581C82.6604 56.2743 78.9675 54.2056 74.685 51.7746C69.3473 48.7955 63.3059 45.4234 56.1995 45.4234C55.2066 45.4226 54.2147 45.4881 53.2306 45.6196L48.5238 35.5856ZM180.136 77.9976C176.971 77.9976 171.095 76.6837 167.257 67.8187C165.507 63.6867 164.556 59.2605 164.454 54.7744C164.454 48.5678 167.691 46.9749 169.626 46.499C171.022 45.0819 173.639 41.5442 175.616 38.8753C183.632 28.0861 189.363 21 196.035 21C197.139 20.9974 198.235 21.2045 199.262 21.6103C208.283 25.2207 212.607 32.7823 211.127 42.3611C210.093 49.4367 205.655 57.8777 199.076 65.4706C195.973 69.0396 188.049 77.4186 181.046 77.946L180.136 77.9976H180.136Z" fill="white"/>
<path d="M77.0226 81.1013C76.2654 81.1634 75.5044 81.1634 74.7472 81.1013C63.5751 79.2807 49.6307 68.0465 44.3652 56.44C40.7657 48.5057 42.3793 43.1062 44.3652 39.9408C45.7849 37.5148 47.825 35.5107 50.2758 34.1345C52.7266 32.7582 55.4997 32.0594 58.31 32.11C65.4266 32.11 72.5952 36.0306 78.9159 39.4852C81.3156 40.7577 84.8432 42.7233 86.3326 43.0855C86.8807 42.9243 87.448 42.8373 88.0192 42.8269C89.1601 42.8497 90.2747 43.1736 91.2501 43.7658C92.2255 44.3579 93.0271 45.1973 93.5738 46.199C96.4704 51.2367 94.7221 64.7467 90.1704 72.6392C87.005 78.1945 82.3088 81.101 77.0226 81.101V81.1013Z" fill="white"/>
<path d="M115.897 178.338C89.6945 178.338 63.813 165.615 55.2063 156.326C46.2171 146.623 42.938 135.699 45.4517 123.71C47.5205 113.862 53.0133 105.028 57.865 97.1969C61.2063 91.8177 64.3612 86.7386 65.1887 83.0871C75.8333 36.0719 102.542 30.0513 124.607 30.0513C126.014 30.0513 127.493 30.0513 129.117 30.1236C176.122 31.5414 180.839 54.2469 183.622 67.819C183.998 70.0152 184.552 72.1773 185.277 74.2843C201.052 113.045 203.649 136.268 193.987 151.961C184.491 167.384 163.647 174.894 122.073 178.246C120.004 178.401 117.935 178.339 115.866 178.339H115.897V178.338Z" fill="white"/>
<path d="M114.925 178.722C88.2466 178.722 63.5231 165.439 55.2063 156.471C46.2171 146.767 42.938 135.782 45.4517 123.782C47.5205 113.934 53.0133 105.069 57.865 97.2385C61.2063 91.8492 64.3612 86.7595 65.1887 83.108C75.8333 36.0925 102.542 30.062 124.607 30.062C126.014 30.062 127.493 30.062 129.117 30.1343C176.122 31.5412 180.839 54.2471 183.622 67.8188C183.998 70.015 184.552 72.1771 185.277 74.2841C200.794 112.434 203.359 135.42 193.821 151.143C182.888 169.174 157.254 175.07 122.145 178.38C119.807 178.608 117.366 178.722 114.924 178.722H114.925Z" fill="white"/>
<path d="M182.867 145.919C183.203 145.091 183.547 144.267 183.901 143.447C187.512 134.861 190.108 127.372 185.866 122.624C180.818 117.027 159.364 106.962 140.434 97.9935C104.063 80.8426 81.6051 69.7741 78.3674 58.6849C77.9494 57.336 77.8254 55.9132 78.0039 54.5123C78.1824 53.1115 78.6591 51.7652 79.4019 50.5642C85.6086 40.7268 103.194 30.1443 127.162 30.1443H127.886C150.447 30.3408 166.895 36.8475 176.763 49.4679C185.101 60.1328 186.994 72.5668 188.37 81.6388C188.846 84.7422 189.404 88.5906 190.035 89.6454C207.145 119.055 199.345 140.736 193.139 151.04L182.867 145.919V145.919Z" fill="white"/>
<path d="M165.002 112.135C156.178 112.135 141.458 109.941 136.348 105.059C132.345 101.231 130.803 94.911 129.324 88.7352C128.682 85.7776 127.796 82.8783 126.676 80.0667H126.593C126.221 81.1009 125.797 82.1355 125.445 83.1701C123.056 89.8319 119.797 98.9453 112.856 103.859C109.866 106 99.1908 107.996 90.8947 107.996C82.6189 107.996 76.34 106.197 72.1712 102.669C66.1611 97.5904 61.5786 88.2593 58.5577 74.9564L58.144 74.6876C56.3839 73.7257 54.9262 72.2931 53.9338 70.5501C52.3616 67.3948 53.0031 61.7883 54.6374 58.8709C55.1841 57.8269 55.9817 56.9352 56.9587 56.2761C57.9356 55.617 59.0611 55.2112 60.2338 55.0952H60.968C62.2679 55.1404 63.5619 55.2925 64.837 55.5507C66.2901 55.8401 67.7634 56.0163 69.2437 56.0778C69.5054 56.0955 69.7682 56.0955 70.0298 56.0778C77.6893 54.9075 85.4222 54.2819 93.1702 54.2056C110.373 54.2056 119.404 57.7332 122.797 59.0573L123.479 59.3159C125.017 59.6952 126.593 59.8931 128.176 59.9055C128.868 59.9084 129.56 59.86 130.245 59.7605C137.525 58.6212 144.879 58.0265 152.247 57.9813C170.402 57.9813 180.032 62.1188 184.15 63.8984L185.06 64.2809H185.412C186.829 64.1888 188.234 63.9672 189.611 63.6191C190.698 63.3811 191.732 63.1635 192.714 63.0502C192.986 63.0175 193.259 63.0001 193.532 62.9983C194.916 63.0227 196.266 63.4288 197.435 64.1716C198.603 64.9145 199.543 65.9653 200.152 67.2084C201.807 70.2395 202.925 76.6426 200.597 80.3047C199.045 82.7458 196.459 83.9046 194.391 84.8356L193.511 85.2388C192.818 86.4285 191.577 88.8907 190.542 90.9282C187.512 96.918 184.087 103.693 180.933 107.345C178.18 110.562 172.967 112.134 165.002 112.134V112.135Z" fill="white"/>
<g style="mix-blend-mode:multiply" opacity="0.3">
<path d="M161.485 110.665C154.492 110.665 144.675 109.631 137.6 104.634C133.545 101.79 131.724 95.9764 129.2 86.7492C128.502 83.9861 127.66 81.2617 126.676 78.5871C126.231 79.6217 125.724 81.0286 125.3 82.1562C122.672 89.1903 119.093 98.8312 112.556 102.845C109.194 104.914 98.6427 106.828 90.4291 106.828C81.6364 106.828 75.2953 104.862 71.5919 100.993C62.2819 91.2282 60.3991 81.8975 59.3028 76.3324C59.1477 75.5358 58.9512 74.5324 58.7754 73.8495C53.2927 70.974 52.9305 66.681 53.0442 64.8915C53.1925 61.6011 55.8851 58.9993 59.1786 58.9639C60.8546 59.0283 62.4638 59.6386 63.7611 60.7017L64.0818 60.9189L64.5476 61.0639C66.1789 61.4332 67.6601 62.2883 68.7958 63.5163C69.9315 64.7443 70.6684 66.2877 70.9093 67.9429C71.9017 72.1651 73.1875 76.313 74.7573 80.3562C78.3779 89.6666 80.9018 91.2696 81.1191 91.3939C84.4603 92.4667 87.9549 92.9838 91.4636 92.9246C96.209 92.9315 100.929 92.2343 105.47 90.8559C106.763 88.7871 109.39 83.6146 111.211 80.0147C116.745 69.081 117.687 67.4256 119.983 66.2258C121.488 65.489 123.15 65.1337 124.825 65.1912C127.605 65.2194 130.361 65.7016 132.986 66.6188C137.02 68.3258 139.193 73.6014 143.786 87.1216C144.613 89.5525 145.699 92.7179 146.351 94.3628C149.827 96.0381 157.73 97.1969 166.099 97.1969C168.457 97.1969 170.174 97.1039 171.271 97.0004C172.057 95.3763 173.174 93.0075 174.136 90.9696C180.829 76.7669 181.832 75.1529 183.581 73.8186C186.78 71.6382 190.514 70.372 194.38 70.1566C195.875 70.0735 197.349 70.5334 198.531 71.4515C199.714 72.3697 200.524 73.6842 200.814 75.1529C201.746 80.2527 196.811 82.1355 195.197 82.7563C194.804 82.9008 194.163 83.1493 193.729 83.3458C193.129 84.3804 192.011 86.625 191.07 88.5179C183.943 102.493 181.543 106.31 178.843 107.924C175.636 109.786 167.588 110.665 161.485 110.665H161.485Z" fill="white"/>
</g>
<g style="mix-blend-mode:multiply" opacity="0.3">
<path d="M69.5645 69.3498C67.1367 69.2384 64.7432 68.7318 62.4784 67.8499C61.3821 67.4878 60.5234 67.1463 59.9334 66.9189C58.6511 66.4223 55.2993 65.119 55.2993 61.1158V55.2401H60.9785C61.5662 55.2518 62.1486 55.3531 62.7062 55.5402C63.9162 55.716 67.8783 56.016 69.1922 56.1087L69.9576 56.1712C70.9918 56.1712 74.2193 55.7367 75.6055 55.5296C76.576 55.3586 77.558 55.2617 78.5432 55.2397H83.5504L84.3259 60.1641C84.5292 61.5666 84.215 62.9951 83.4421 64.1829C82.6693 65.3707 81.4905 66.2365 80.1259 66.6189L78.8331 67.0639C76.0397 68.2426 73.0933 69.0192 70.0818 69.3705L69.5645 69.3498ZM184.832 77.7495C182.364 77.5834 180.004 76.6706 178.067 75.1322C175.553 73.374 173.226 71.6772 173.226 68.6052V62.8224H179.298C180.163 62.8232 181.021 62.9918 181.822 63.3194C182.474 63.598 184.926 64.3536 185.96 64.6017C186.311 64.5501 187.077 64.25 188.463 63.9605C189.052 63.7494 189.663 63.607 190.284 63.5362H195.208L196.004 68.5845C196.234 69.961 195.965 71.3743 195.247 72.5706C194.528 73.7669 193.407 74.6678 192.084 75.1115C191.876 75.1943 191.349 75.5049 191.049 75.6807C189.439 76.6107 187.694 77.2843 185.877 77.6772C185.531 77.7299 185.182 77.7544 184.832 77.7495Z" fill="white"/>
</g>
<path d="M144.262 186.614H164.95V205.234H144.262V186.614Z" fill="white"/>
<path d="M175.584 159.419C174.783 158.394 173.923 157.416 173.008 156.491L172.357 155.871L172.191 155.809C171.665 155.64 171.125 155.519 170.577 155.446C167.932 155.111 165.269 154.942 162.602 154.94C157.14 154.867 151.627 155.043 146.124 155.302C135.107 155.839 124.08 156.729 113.104 157.929C107.621 158.529 102.149 159.212 96.7287 160.07C94.0289 160.495 91.3292 160.96 88.6912 161.539C87.3773 161.819 86.0739 162.129 84.8432 162.501C84.2615 162.67 83.6884 162.866 83.1261 163.091C82.8991 163.181 82.6779 163.284 82.4638 163.401L82.3603 163.464C81.7167 164.336 81.1128 165.237 80.5502 166.163C79.9813 167.094 79.4535 168.15 78.9573 169.194C77.9747 171.263 77.1261 173.456 76.3088 175.67C75.4918 177.884 74.6952 180.128 73.8161 182.363C73.3918 183.48 72.9472 184.256 72.4815 185.373C72.2642 185.901 72.0369 186.614 71.8091 186.614H79.2468C83.2706 177.304 90.8221 167.705 97.1635 165.119C98.9115 164.405 127.017 161.074 145.596 161.074C152.485 161.074 157.254 161.323 159.778 162.305C167.392 165.243 182.536 179.373 184.098 186.614H188.411C187.481 181.854 185.923 177.237 183.777 172.887C181.598 168.085 178.847 163.563 175.585 159.419H175.584ZM172.298 155.823L172.286 155.81L172.274 155.798L172.31 155.835L172.298 155.823Z" fill="#BA8449"/>
<path d="M187.77 171.429C185.478 166.167 182.572 161.195 179.112 156.616C178.208 155.45 177.238 154.338 176.205 153.285L175.388 152.498L175.233 152.354L175.119 152.261L174.953 152.137C174.803 152.032 174.648 151.935 174.488 151.847C174.238 151.724 173.983 151.614 173.722 151.516C172.932 151.248 172.118 151.054 171.291 150.936C168.439 150.548 165.564 150.344 162.685 150.326C157.057 150.212 151.482 150.326 145.906 150.585C134.778 151.06 123.666 151.871 112.587 153.016C107.042 153.595 101.508 154.247 95.9633 155.085C93.1909 155.509 90.429 155.974 87.6879 156.553C86.2912 156.853 84.8948 157.174 83.457 157.588C82.7114 157.802 81.9761 158.051 81.2535 158.333C80.8356 158.502 80.4282 158.695 80.0329 158.912C79.7855 159.045 79.5471 159.193 79.3191 159.357C78.9863 159.603 78.6872 159.892 78.4295 160.215C77.6304 161.21 76.8845 162.246 76.1951 163.319C75.4918 164.353 74.8194 165.491 74.2092 166.598C72.8851 168.905 71.8505 171.15 70.8159 173.415C69.7818 175.68 68.9128 177.956 68.1264 180.273C67.736 181.427 67.3704 182.59 67.0301 183.759C66.855 184.343 66.6894 184.929 66.5335 185.518L66.2956 186.397L66.192 186.842C66.192 186.914 66.337 186.697 66.6991 186.904L66.7921 186.614H71.8505C72.0783 186.614 72.3057 185.901 72.5229 185.373C72.9882 184.256 73.4332 183.304 73.8575 182.197C74.7366 179.963 75.5227 177.801 76.3502 175.587C77.1781 173.373 78.0158 171.232 78.9984 169.153C79.4953 168.118 80.0329 167.084 80.5916 166.143C81.1503 165.202 81.7501 164.333 82.4017 163.453L82.5053 163.402C82.7194 163.284 82.9405 163.181 83.1675 163.091C83.728 162.862 84.3012 162.665 84.8843 162.501C86.1153 162.129 87.4187 161.819 88.7326 161.539C91.3706 160.96 94.0704 160.505 96.7705 160.07C102.191 159.212 107.663 158.529 113.145 157.929C124.121 156.729 135.148 155.86 146.165 155.302C151.668 155.043 157.182 154.868 162.643 154.94C165.31 154.942 167.974 155.112 170.619 155.447C171.167 155.519 171.707 155.64 172.233 155.809L172.399 155.871L173.05 156.491C173.964 157.416 174.824 158.394 175.626 159.419C178.887 163.556 181.638 168.071 183.819 172.867C185.952 177.225 187.497 181.849 188.412 186.615H192.756C192.321 184.545 191.649 181.628 190.832 179.073C189.959 176.469 188.936 173.916 187.77 171.429V171.429Z" fill="#895C2F"/>
<path d="M159.157 164.012C156.83 163.112 152.268 162.833 145.596 162.833C126.904 162.833 99.3252 166.112 97.8148 166.681C92.1461 169.029 85.0913 178.339 81.1605 186.614H182.308C180.756 180.408 166.688 166.96 159.157 164.012Z" fill="#FFF8EF"/>
<path d="M159.778 162.388C157.254 161.353 152.485 161.074 145.596 161.074C126.976 161.074 98.9115 164.311 97.1631 165.026C90.8221 167.622 83.2296 177.305 79.2465 186.615H81.1605C85.0604 178.339 92.1153 169.081 97.784 166.763C99.2944 166.195 126.872 162.833 145.565 162.833C152.237 162.833 156.799 163.029 159.126 163.929C166.657 166.836 180.726 180.407 182.308 186.615H184.067C182.536 179.373 167.392 165.326 159.778 162.388V162.388Z" fill="#E5D1AE"/>
<path d="M194.318 163.443C193.284 165.564 187.76 170.901 183.115 169.577C180.684 168.884 181.129 181.442 186.725 186.615H196.884C199.676 182.477 204.052 168.864 204.549 167.457C205.128 165.811 195.373 161.322 194.318 163.443Z" fill="#BA8449"/>
<path d="M205.076 166.339C204.952 163.536 203.204 161.715 200.276 161.053C197.918 160.525 194.752 161.053 193.966 162.532C192.415 165.47 190.48 169.163 180.922 169.577C180.613 169.595 180.323 169.735 180.116 169.965C179.909 170.196 179.801 170.498 179.815 170.808C179.829 171.114 179.962 171.403 180.186 171.612C180.411 171.821 180.708 171.934 181.015 171.925C190.997 171.491 193.894 167.674 195.973 163.763C197.478 163.164 199.155 163.164 200.659 163.763C201.254 163.914 201.782 164.259 202.157 164.745C202.532 165.231 202.733 165.829 202.728 166.442C202.977 171.873 197.328 181.442 194.225 186.614H197.018C200.473 180.408 205.293 171.925 205.076 166.339V166.339Z" fill="#895C2F"/>
<g style="mix-blend-mode:multiply" opacity="0.15">
<path d="M185.432 187.576C191.639 186.128 197.111 179.953 197.597 171.025C197.69 169.38 194.318 166.205 194.318 165.336C194.318 164.467 204.745 165.522 205.221 167.942C205.697 170.363 198.756 185.125 196.439 187.535C194.121 189.945 181.822 188.424 185.432 187.576V187.576Z" fill="#C7893E"/>
</g>
<path d="M190.356 157.464C189.581 162.822 200.121 170.332 207.249 170.063C213.238 169.867 219.9 167.074 218.927 163.794C217.955 160.515 212.172 164.374 211.686 162.057C211.2 159.739 218.452 155.488 215.555 152.395C212.876 149.55 209.762 156.936 206.576 155.871C203.39 154.805 207.197 147.595 203.297 147.181C198.662 146.706 200.401 157.029 196.925 157.226C194.411 157.401 190.604 155.695 190.356 157.464V157.464Z" fill="#F8B1AB" stroke="#F38089" stroke-width="0.531213"/>
<g style="mix-blend-mode:multiply" opacity="0.5">
<path d="M193.315 157.433C194.463 158.281 198.487 159.439 199.19 157.939C199.894 156.439 200.442 153.522 199.966 153.088C199.645 154.464 199.2 157.081 197.669 157.66C196.501 158.115 194.121 157.567 193.315 157.433V157.433ZM204.621 151.64C204.414 152.602 203.68 157.122 205.976 157.753C208.045 158.301 209.473 157.07 211.035 154.494C210.197 155.312 208.024 157.184 206.287 156.45C204.549 155.715 204.487 153.957 204.621 151.64Z" fill="#F8B1AB"/>
</g>
<g style="mix-blend-mode:multiply" opacity="0.25">
<path d="M194.432 163.857C206.307 158.064 208.728 167.498 208.149 169.432C203.514 170.249 195.156 165.398 194.432 163.857V163.857Z" fill="#F8B1AB"/>
</g>
<g style="mix-blend-mode:multiply" opacity="0.5">
<path d="M211.738 160.122C209.669 162.408 210.703 164.26 212.007 164.456C213.714 164.777 215.793 163.101 215.524 163.08C215.059 163.08 211.852 164.177 211.231 162.574C210.766 161.363 211.5 160.67 211.738 160.122Z" fill="#F8B1AB"/>
</g>
<g style="mix-blend-mode:multiply" opacity="0.15">
<path d="M76.2576 175.318C114.335 197.186 190.046 174.998 186.012 167.788C180.705 158.333 178.584 152.271 166.926 152.902C155.268 153.533 80.6225 159.419 77.5813 161.736C74.54 164.053 71.2715 172.453 76.2572 175.318H76.2576Z" fill="#C7893E"/>
</g>
<path d="M159.323 43.7887C176.412 42.1958 186.404 24.4862 196.821 27.2375C189.87 31.5821 182.918 40.3126 173.226 54.6505C170.94 58.0125 154.668 44.2231 159.323 43.7891V43.7887Z" fill="#FFF8EF" stroke="#E5D1AE" stroke-width="0.797008" stroke-linecap="round" stroke-linejoin="round"/>
<path d="M52.4546 39.8786C60.1818 32.7409 73.9817 35.5234 85.1843 39.5887C91.5566 41.9059 99.8113 40.0235 100.391 41.3269C101.756 44.4302 93.5116 50.6369 86.7052 50.5228C79.8985 50.4091 68.6749 37.7063 52.4546 39.8786V39.8786Z" fill="#BA8449" stroke="#895C2F" stroke-width="0.531213" stroke-linecap="round" stroke-linejoin="round"/>
<path d="M171.053 52.1883C174.964 53.3472 189.87 24.0931 197.111 26.9894C220.148 36.2064 190.16 71.4705 180.56 72.1738C170.96 72.8774 168.809 51.5265 171.054 52.1883H171.053ZM87.7914 48.7127C81.4191 51.4644 58.8266 27.8583 49.2685 43.0647C42.9794 53.078 62.0131 73.3322 75.6262 75.5049C89.2397 77.6772 91.1534 47.2644 87.7914 48.7127Z" fill="#F8B1AB" stroke="#F38089" stroke-width="0.531213"/>
<g style="mix-blend-mode:multiply">
<path d="M188.815 32.6375C187.553 36.6409 177.281 47.0265 178.729 55.954C179.256 59.2331 182.774 69.0291 184.274 68.6466C185.774 68.2638 189.539 65.9465 189.197 66.4743C187.008 68.3976 184.631 70.0957 182.101 71.5429C180.322 70.581 172.491 52.5608 173.608 51.5575C176.94 48.5682 187.367 32.834 188.815 32.6375H188.815ZM49.6103 43.6438C56.5616 39.3926 69.2644 41.182 76.6916 48.4233C79.3195 50.9988 80.0641 59.802 74.1263 65.75C71.7782 68.1294 88.1223 57.3093 88.1739 54.2056C88.2258 51.1023 87.1397 50.1818 84.6982 49.2816C75.7297 45.9302 66.2959 38.3374 58.1029 38.503C56.357 38.5223 54.6481 39.0095 53.1544 39.9136C51.6607 40.8178 50.4367 42.1059 49.6099 43.6438H49.6103Z" fill="#F8B1AB"/>
</g>
<g style="mix-blend-mode:multiply" opacity="0.25">
<path d="M191.608 30.4136C207.466 39.1755 181.915 52.4264 183.787 68.9362C180.467 68.574 172.274 52.6022 174.312 51.1953C177.136 49.2196 188.949 29.6584 191.608 30.4136V30.4136Z" fill="#F8B1AB"/>
</g>
<path d="M72.5643 84.815L72.4815 85.1252C72.4815 85.3323 72.3573 85.6425 72.2021 86.1598C71.8103 87.4412 71.3264 88.6926 70.7542 89.9042C68.5911 94.2133 66.1731 98.3896 63.513 102.411C61.8787 104.976 60.1405 107.873 58.4026 111.1C56.5358 114.508 54.9978 118.086 53.8096 121.786C52.4866 125.878 52.0357 130.201 52.4859 134.478C53.0947 139.174 54.9086 143.632 57.751 147.419C58.4855 148.454 59.2719 149.416 60.1303 150.378C60.9611 151.335 61.86 152.23 62.8199 153.057C64.8718 154.766 67.0621 156.303 69.368 157.65C74.2924 160.591 79.4886 163.05 84.8846 164.994C90.5906 167.089 96.4772 168.654 102.47 169.67C108.686 170.764 115.009 171.111 121.307 170.704C134.341 169.67 147.892 168.366 161.061 164.86C167.609 163.102 174.115 160.836 179.887 157.174C182.783 155.336 185.358 153.037 187.511 150.367C188.05 149.695 188.546 148.971 189.125 148.299C189.73 147.657 190.23 146.924 190.605 146.126C191.35 144.537 191.955 142.886 192.415 141.192C194.184 134.365 193.853 127.227 192.715 120.389C191.474 113.583 189.703 106.883 187.418 100.352C185.225 93.8354 182.67 87.494 180.177 81.246C179.526 79.6632 178.874 78.2048 178.232 76.5287C177.916 75.6965 177.646 74.847 177.426 73.9844C177.188 73.1358 176.991 72.2978 176.805 71.4707C176.05 68.1603 175.491 64.9538 174.55 61.9227C173.684 58.9454 172.399 56.1066 170.733 53.4918C169.082 50.9624 167.015 48.731 164.619 46.8922C159.775 43.3504 154.254 40.8434 148.399 39.5271C142.765 38.1837 137.021 37.3527 131.238 37.0442C125.822 36.61 120.378 36.6377 114.966 37.127C110.012 37.5951 105.163 38.8415 100.598 40.8203C92.8298 44.2432 86.4314 50.1681 82.4224 57.6504C80.8696 60.5877 79.5484 63.6417 78.4709 66.7846C77.5192 69.6395 76.764 72.2052 76.1849 74.4704C75.895 75.598 75.6364 76.6427 75.4504 77.5738C75.1588 78.4259 74.8132 79.2586 74.4158 80.0668C73.8496 81.1781 73.3656 82.3295 72.9679 83.5116C72.6987 84.3079 72.6057 84.7322 72.6057 84.7322L72.5643 84.815ZM69.1195 83.9871C69.4924 82.2868 69.7036 80.5551 69.7505 78.815C69.8338 77.8692 69.9755 76.9295 70.1748 76.0012C70.3595 75.5028 70.5736 75.0158 70.8159 74.5427L71.4575 72.8877C72.4894 70.2806 73.6565 67.729 74.9538 65.2433C78.4639 58.5394 83.0526 52.4585 88.5361 47.2438C91.9136 44.0799 95.794 41.5 100.018 39.6099C104.698 37.5448 109.659 36.1886 114.739 35.5857C120.23 34.9351 125.765 34.731 131.29 34.9754C137.221 35.1026 143.13 35.7534 148.948 36.9203C154.926 38.2342 161.133 40.3026 166.533 44.2752C169.26 46.2752 171.628 48.7236 173.536 51.5161C175.415 54.3903 176.854 57.5282 177.809 60.8264C178.737 64.0952 179.497 67.4098 180.084 70.7568C180.26 71.5636 180.425 72.3603 180.633 73.1362C180.811 73.902 181.039 74.6553 181.315 75.3913C181.906 76.9622 182.503 78.531 183.105 80.0977C185.512 86.4632 187.66 93.0147 189.549 99.7522C191.487 106.483 192.871 113.361 193.687 120.317C194.099 123.818 194.238 127.346 194.101 130.868C193.991 134.372 193.439 137.848 192.456 141.212C191.978 142.906 191.352 144.554 190.584 146.137C190.398 146.529 190.232 146.933 190.056 147.347C189.88 147.761 189.787 148.195 189.611 148.609C189.457 149.029 189.27 149.437 189.053 149.829L188.349 150.967C186.36 153.963 183.893 156.612 181.046 158.808C179.631 159.911 178.153 160.93 176.619 161.86C175.067 162.76 173.516 163.598 171.871 164.353C168.657 165.832 165.337 167.07 161.94 168.056C155.272 169.935 148.484 171.363 141.624 172.329C134.879 173.363 128.176 174.046 121.587 174.584C114.973 175.081 108.323 174.762 101.787 173.632C95.5618 172.57 89.4467 170.939 83.5191 168.76C77.8846 166.717 72.457 164.144 67.3094 161.074C64.8196 159.588 62.4564 157.9 60.244 156.026C59.1344 155.069 58.0972 154.032 57.1407 152.922C56.2207 151.874 55.3542 150.779 54.5445 149.643C51.3558 145.313 49.3423 140.231 48.6996 134.892C48.2575 130.092 48.8321 125.253 50.3859 120.689C51.695 116.793 53.3606 113.025 55.3614 109.435C57.1719 106.135 59.0028 103.228 60.6163 100.6C63.1719 96.679 65.4933 92.6099 67.5684 88.4145C68.0622 87.3559 68.4804 86.2636 68.8199 85.1459C68.911 84.8605 68.987 84.5704 69.0476 84.277L69.1304 83.9668L69.1199 83.9871H69.1195Z" fill="#E5D1AE"/>
<path d="M70.8159 84.3804C67.1437 100.6 35.0966 126.275 59.4372 152.539C67.7126 161.477 94.608 175.163 121.607 172.618C191.732 165.997 209.452 149.063 179.908 76.4668C175.108 64.6638 180.488 37.4683 128.941 35.927C107.311 35.2754 81.2847 38.2443 70.8159 84.38V84.3804Z" fill="#FFF8EF"/>
<path d="M84.7604 53.7297L84.6154 53.9676C84.4749 54.1877 84.3472 54.4157 84.2329 54.6505C83.7783 55.5271 83.4077 56.4448 83.1261 57.3913C82.0974 61.1579 81.7471 65.0776 82.0915 68.9669C82.5104 75.084 83.9947 81.0809 86.4775 86.6871C89.6307 93.9839 94.4869 100.419 100.639 105.452C104.142 108.313 108.032 110.664 112.194 112.434C116.668 114.308 121.365 115.598 126.169 116.272C131.286 116.974 136.463 117.13 141.613 116.738C142.927 116.655 144.262 116.51 145.585 116.365H146.061L146.548 116.282C146.848 116.22 147.137 116.168 147.468 116.086C148.099 115.931 148.751 115.745 149.403 115.558C152.02 114.814 154.689 113.996 157.44 113.376C162.923 112.145 168.819 111.524 174.57 112.786C177.454 113.432 180.206 114.561 182.712 116.127C183.338 116.49 183.945 116.884 184.532 117.307L185.412 117.999L186.239 118.734C186.808 119.22 187.274 119.768 187.832 120.306C188.097 120.57 188.349 120.846 188.587 121.134C188.836 121.434 189.068 121.748 189.28 122.075C190.804 124.737 191.553 127.772 191.442 130.837C191.42 133.841 191.073 136.834 190.408 139.764C190.088 141.23 189.726 142.685 189.322 144.13L188.742 146.271L188.443 147.305L188.329 147.802V147.865C188.111 147.709 188.836 148.278 187.812 147.047C186.363 147.047 187.077 147.295 186.87 147.222V147.161C188.362 144.679 189.613 142.06 190.604 139.34C192.549 133.888 193.382 128.102 193.056 122.324C192.707 116.605 191.457 110.977 189.353 105.649C188.348 102.993 187.181 100.402 185.856 97.89C185.203 96.6321 184.513 95.3937 183.787 94.1764C183.36 93.4742 182.994 92.7371 182.691 91.9729C182.407 91.2233 182.172 90.4562 181.987 89.6763C181.295 86.6871 180.953 83.8733 180.508 81.0806C180.064 78.2871 179.66 75.5772 179.081 72.9185C178.042 67.7523 176.214 62.777 173.66 58.1676C171.223 53.845 167.903 50.0842 163.916 47.13C160.04 44.3324 155.736 42.1805 151.172 40.7577C146.853 39.3957 142.412 38.4604 137.91 37.9649C133.735 37.4895 129.533 37.2788 125.331 37.334C121.551 37.3603 117.777 37.6472 114.035 38.1923C107.958 38.9955 102.056 40.8065 96.5743 43.5508C93.0901 45.3219 89.9399 47.6845 87.264 50.5333C86.5693 51.2857 85.9133 52.0729 85.2988 52.892L84.7092 53.7609L84.7608 53.7297H84.7604ZM83.0226 52.6955L83.6535 51.7543C84.295 50.8547 84.9856 49.9912 85.7223 49.1679C88.5307 46.0979 91.8483 43.5361 95.5288 41.5957C101.187 38.6172 107.296 36.5868 113.611 35.5856C117.472 34.9279 121.375 34.5442 125.29 34.4373C129.614 34.2917 133.943 34.4196 138.251 34.8202C142.982 35.2307 147.66 36.1108 152.216 37.4477C157.183 38.8864 161.877 41.1374 166.109 44.1095C170.597 47.3226 174.361 51.4423 177.157 56.202C179.946 61.1651 181.933 66.5383 183.043 72.1222C183.653 74.9149 184.077 77.7393 184.522 80.5527C184.967 83.3665 185.246 86.2112 185.836 88.8285C185.972 89.4484 186.145 90.0598 186.353 90.6593C186.58 91.2357 186.853 91.7927 187.17 92.3249C187.884 93.6075 188.587 94.9109 189.239 96.2452C190.558 98.9308 191.712 101.695 192.694 104.521C194.725 110.246 195.818 116.261 195.932 122.334C196.038 128.455 194.909 134.535 192.611 140.209C191.455 143.034 190.02 145.737 188.329 148.278C188.29 148.338 188.249 148.397 188.204 148.454C187.935 148.454 188.598 148.774 187.067 148.785C185.97 147.481 186.736 147.936 186.518 147.698V147.491C186.565 147.292 186.62 147.096 186.684 146.902L187.036 145.867L187.698 143.799C188.133 142.401 188.523 140.99 188.867 139.568C189.574 136.75 189.983 133.865 190.087 130.961C190.265 128.125 189.649 125.295 188.308 122.789C188.127 122.502 187.933 122.222 187.729 121.951C187.505 121.674 187.267 121.408 187.015 121.155C186.515 120.644 186.005 120.144 185.484 119.655L184.688 118.941L183.85 118.29C183.301 117.834 182.691 117.462 182.112 117.058C179.723 115.541 177.07 114.488 174.291 113.955C168.757 112.869 163.099 113.686 157.813 115.082C155.144 115.755 152.547 116.624 149.92 117.451C149.268 117.658 148.606 117.865 147.923 118.051C147.592 118.144 147.22 118.227 146.889 118.31L146.382 118.403H145.844C144.479 118.569 143.134 118.744 141.779 118.848C136.476 119.344 131.136 119.275 125.848 118.641C120.8 118.025 115.858 116.727 111.159 114.783C106.762 112.965 102.648 110.526 98.9424 107.541C92.5271 102.178 87.4932 95.3523 84.2638 87.6388C81.7357 81.7606 80.2447 75.4888 79.8571 69.1017C79.5599 64.9467 80.0011 60.7719 81.1605 56.7709C81.5011 55.6995 81.9374 54.6609 82.4639 53.6675C82.6502 53.2952 82.7952 53.1092 82.8881 52.9436L83.0327 52.7056L83.0226 52.6955Z" fill="#E5BFA1"/>
<path d="M86.9018 54.9609L86.6224 55.5196L86.5497 55.654V55.9126C86.5962 56.3361 86.7227 56.7468 86.9225 57.123C87.6092 58.2985 88.4628 59.3682 89.4565 60.2986C91.7521 62.4386 94.2305 64.3735 96.8634 66.0814C102.253 69.6086 108.056 72.8256 113.787 75.9289C125.404 82.0735 137.341 87.732 149.237 93.5143C155.185 96.4004 161.133 99.3072 167.04 102.328C169.998 103.849 172.936 105.431 175.843 107.014C178.75 108.596 181.646 110.314 184.46 112.186C185.867 113.127 187.253 114.11 188.597 115.197C189.26 115.755 189.922 116.334 190.553 116.955L191.029 117.452L191.256 117.7L191.318 117.762L191.411 117.886L191.504 118.01L192.249 119.045L192.622 119.541C192.746 119.727 192.87 119.955 192.983 120.151L193.687 121.413C193.882 121.832 194.054 122.26 194.204 122.696C194.383 123.115 194.528 123.547 194.639 123.989C194.88 124.863 195.046 125.756 195.135 126.658C195.135 127.103 195.249 127.548 195.249 127.992V129.327C195.063 132.774 194.337 136.17 193.097 139.392C191.97 142.578 190.563 145.599 189.291 148.619L187.222 147.585C189.243 144.104 190.768 140.357 191.753 136.454C192.728 132.559 193.177 128.551 193.087 124.537C193.035 123.503 193.087 122.541 192.963 121.538L192.642 118.548C192.539 117.513 192.291 116.572 192.125 115.59C191.961 114.599 191.743 113.619 191.474 112.652L190.677 109.745C190.449 108.711 190.015 107.842 189.705 106.89L188.67 104.045L187.418 101.293C186.984 100.383 186.622 99.442 186.135 98.5524L184.677 95.8937L183.943 94.5696L183.57 93.8249L183.332 93.3694L183.156 93.0181C183.043 92.7696 182.929 92.5837 182.815 92.2938L182.474 91.3834L182.318 90.9283L182.205 90.5251L181.987 89.7183C180.953 85.446 180.539 81.4425 179.753 77.398C179.055 73.447 178.016 69.5638 176.65 65.7915C175.297 62.1016 173.435 58.6195 171.115 55.4469C168.805 52.3267 165.986 49.6168 162.778 47.4302C159.536 45.2318 156.006 43.4913 152.289 42.2581C151.364 41.917 150.421 41.627 149.465 41.3892C148.503 41.1407 147.561 40.8613 146.589 40.6339C144.634 40.2718 142.71 39.817 140.713 39.5994C139.679 39.4751 138.737 39.3095 137.744 39.2165L134.744 38.9993L133.245 38.8856H131.734L128.745 38.834H125.745C124.711 38.834 123.676 38.834 122.714 38.9582L119.807 39.2063L116.87 39.6099C112.969 40.2189 109.135 41.1956 105.418 42.5269C101.729 43.8013 98.2044 45.5097 94.9185 47.6161L93.7081 48.4128L92.5392 49.3126C91.7531 49.8713 91.06 50.5128 90.3462 51.1234C88.9944 52.3492 87.7929 53.7312 86.767 55.2402L86.9018 54.9609ZM81.9571 52.1369C84.5449 48.4052 87.8635 45.2378 91.7117 42.8266C95.3668 40.4283 99.2942 38.4733 103.411 37.0028C107.497 35.5755 111.709 34.5365 115.99 33.8995L119.197 33.4963L122.466 33.2583C123.583 33.1548 124.535 33.1755 125.631 33.1548H128.828L132.013 33.2892L133.596 33.3618L135.189 33.517L138.365 33.817C139.4 33.9413 140.434 34.1272 141.531 34.2823C143.599 34.5511 145.741 35.0891 147.84 35.5236C148.875 35.7928 149.909 36.1132 150.944 36.4031C151.978 36.6929 153.013 37.0544 154.047 37.4372C158.171 38.8823 162.074 40.8948 165.643 43.4165C169.246 45.9772 172.393 49.1242 174.953 52.7265C177.454 56.2897 179.442 60.1861 180.86 64.3017C182.257 68.3405 183.295 72.4943 183.963 76.715C184.688 80.8529 185.07 84.9908 185.898 88.8388L186.063 89.5214L186.156 89.8628L186.25 90.1422L186.415 90.7009C186.477 90.8974 186.622 91.156 186.725 91.3834L186.891 91.7351C186.891 91.7351 186.787 91.5385 186.891 91.6628V91.7456L186.984 91.9214L187.356 92.6247L188.08 94.0316L189.549 96.8454C190.035 97.7764 190.408 98.7798 190.832 99.7417L192.083 102.659L193.118 105.669C193.428 106.704 193.852 107.655 194.08 108.7L194.846 111.803C195.107 112.825 195.307 113.861 195.445 114.907C195.601 115.941 195.828 116.976 195.911 118.01L196.16 121.196C196.273 122.231 196.16 123.327 196.16 124.392C196.125 128.655 195.53 132.895 194.39 137.002C193.234 141.098 191.51 145.011 189.27 148.629C189.123 148.886 188.883 149.077 188.6 149.163C188.317 149.249 188.011 149.223 187.747 149.09C187.482 148.958 187.278 148.729 187.176 148.451C187.075 148.173 187.084 147.867 187.201 147.595C188.422 144.492 189.725 141.481 190.718 138.409C191.789 135.417 192.383 132.276 192.477 129.099C192.582 126.106 191.666 123.166 189.88 120.762L189.105 119.8L189.011 119.676C188.939 119.593 189.084 119.758 189.011 119.738L188.959 119.686L188.763 119.489L188.37 119.096C187.81 118.566 187.223 118.066 186.612 117.596C185.36 116.634 184.015 115.745 182.66 114.876C177.061 111.486 171.295 108.378 165.385 105.565C159.468 102.68 153.489 99.9073 147.489 97.1349C135.479 91.6526 123.407 86.2735 111.532 80.2423C105.594 77.2323 99.6976 74.1188 93.9464 70.4775C92.5185 69.557 91.1014 68.6053 89.7152 67.5809C88.2854 66.5494 86.924 65.4264 85.6394 64.2189C84.1906 62.9134 82.9519 61.3921 81.9672 59.7087C81.3867 58.6301 81.0347 57.4435 80.933 56.2228C80.8985 55.8789 80.8985 55.5323 80.933 55.1883C80.9233 55.0092 80.9233 54.8297 80.933 54.6507C80.933 54.4436 81.026 54.2264 81.0881 54.0197C81.1503 53.8126 81.2124 53.5954 81.2847 53.3985L81.3882 53.1199L81.4605 52.9851L81.7398 52.4264L81.9571 52.1365V52.1369Z" fill="#895C2F"/>
<path d="M83.8813 53.1709C74.3022 67.9741 85.7637 124.992 145.999 117.307C152.382 116.5 173.567 105.203 187.843 121.072C195.663 129.761 185.112 151.836 187.843 147.284C190.884 142.216 202.614 122.665 185.091 92.542C179.432 82.932 188.743 36.3509 128.383 35.8234C105.19 35.5855 90.2532 43.3542 83.8809 53.1709H83.8813Z" fill="#BA8449"/>
<g style="mix-blend-mode:multiply" opacity="0.15">
<path d="M82.1947 56.7708C99.5737 45.578 152.092 46.3438 168.881 73.1876C180.053 91.0214 159.571 134.964 152.092 140.571C144.613 146.178 134.072 151.029 106.525 144.43C83.2292 138.823 118.4 117.089 90.9256 113.924C65.8302 111.027 63.3579 68.9462 82.195 56.7708H82.1947Z" fill="#C7893E"/>
</g>
<g style="mix-blend-mode:multiply" opacity="0.25">
<path d="M130.814 100.021C130.814 101.356 128.269 102.431 125.124 102.431C121.98 102.431 119.424 101.397 119.424 100.021C119.424 98.6453 121.949 97.6521 125.104 97.6521C128.258 97.6521 130.814 98.6867 130.814 100.021V100.021Z" fill="#C7893E"/>
</g>
<path d="M120.8 92.8731C122.104 92.0041 129.076 92.2937 129.924 93.1629C130.772 94.0315 132.748 97.7244 130.503 99.2454C129.738 99.7724 129.676 97.59 127.969 97.9416C125.9 98.3764 126.934 101.107 125.362 101.045C122.828 100.973 125.269 98.1073 123.045 97.7142C121.379 97.4243 120.976 98.9969 120.293 98.8726C117.831 98.4487 118.979 94.0936 120.8 92.8731V92.8731Z" fill="#F38089"/>
<path d="M124.607 92.9352C126.288 92.8328 127.973 93.0504 129.572 93.5763C130.485 94.6445 130.994 95.9991 131.011 97.404C130.998 97.6475 130.934 97.8855 130.823 98.1028C130.713 98.3202 130.558 98.512 130.369 98.666L130.234 98.5003C130.053 98.1623 129.787 97.877 129.462 97.6722C129.138 97.4673 128.766 97.3499 128.383 97.3313C128.225 97.3115 128.065 97.3115 127.907 97.3313C127.375 97.484 126.902 97.7957 126.553 98.2248C126.203 98.6538 125.994 99.1796 125.952 99.7314C125.745 100.528 125.672 100.704 125.434 100.704C124.721 100.704 124.7 100.404 124.721 99.5349C124.741 98.666 124.721 97.4661 123.2 97.1762C123.037 97.1344 122.871 97.1067 122.704 97.0934C121.951 97.1122 121.239 97.4417 120.738 98.0037L120.448 98.2729C120.219 98.2389 120.007 98.1286 119.848 97.9597C119.688 97.7909 119.59 97.5732 119.569 97.3419C119.49 96.5898 119.594 95.8296 119.873 95.1268C120.152 94.424 120.598 93.7997 121.173 93.3075C122.279 92.9424 123.445 92.7982 124.607 92.8832V92.9352ZM124.607 92.3042C123.333 92.21 122.053 92.3863 120.852 92.8215C119.031 94.042 117.883 98.3972 120.345 98.8312H120.428C121.038 98.8312 121.462 97.6314 122.704 97.6314C122.828 97.6314 122.962 97.4868 123.097 97.5177C125.321 97.9006 122.879 100.693 125.414 100.693C126.976 100.693 125.9 98.1592 127.979 97.7349C128.099 97.7187 128.221 97.7187 128.341 97.7349C129.541 97.7349 129.769 99.1934 130.286 99.1934C130.36 99.2164 130.439 99.2164 130.514 99.1934C132.759 97.6728 130.803 94.0213 129.935 93.1212C129.427 92.6144 126.831 92.3144 124.566 92.3144L124.607 92.3042H124.607Z" fill="#F38089"/>
<g style="mix-blend-mode:multiply" opacity="0.25">
<path d="M178.926 115.786C181.491 132.533 160.585 153.626 132.438 157.939C104.291 162.253 83.457 137.044 80.8811 120.296C78.3052 103.549 95.6429 109.941 123.749 105.617C151.854 101.294 176.329 99.0384 178.926 115.786Z" fill="#F6E8D0"/>
</g>
<path opacity="0.5" d="M105.47 141.223C105.983 141.925 106.672 142.482 107.466 142.837C108.244 143.213 109.058 143.508 109.897 143.716C111.595 144.135 113.325 144.408 115.07 144.533C118.512 144.8 121.969 144.821 125.414 144.595C128.879 144.388 132.324 144.016 135.758 143.499C137.465 143.23 139.172 142.94 140.858 142.558C142.534 142.222 144.173 141.723 145.751 141.068C146.082 140.913 146.506 140.623 146.485 140.519L146.806 139.268C147.055 138.43 147.344 137.571 147.634 136.744C148.244 135.11 148.896 133.496 149.568 131.882C150.913 128.665 152.382 125.51 153.892 122.365C154.637 120.792 155.423 119.262 156.209 117.669C156.996 116.076 157.813 114.565 158.63 113.024C159.456 111.467 160.328 109.935 161.247 108.431C161.723 107.676 162.178 106.921 162.706 106.155L163.533 105.028C163.864 104.635 164.236 104.242 164.567 103.859L166.243 106.838C163.057 107.872 159.871 108.907 156.654 109.797C155.05 110.262 153.427 110.666 151.813 111.089C150.199 111.514 148.565 111.876 146.941 112.269C145.316 112.662 143.682 112.972 142.048 113.303C140.413 113.634 138.758 113.924 137.123 114.234C135.49 114.545 133.824 114.762 132.169 115.041C130.514 115.32 128.859 115.507 127.203 115.703C125.548 115.9 123.883 116.107 122.207 116.231C120.531 116.355 118.876 116.551 117.2 116.603L112.194 116.81H107.156C105.48 116.81 103.794 116.655 102.118 116.572L99.6046 116.417L97.0908 116.117L94.6083 115.786L93.3565 115.631L92.1047 115.289L87.1292 114.255L88.0602 111.017L90.1602 112.134L90.6775 112.445L91.1635 112.796L92.136 113.5C92.4593 113.72 92.7701 113.958 93.067 114.213L93.9254 115.01L94.7736 115.807C95.0428 116.097 95.2705 116.406 95.5186 116.696C96.0285 117.267 96.4984 117.872 96.9252 118.506C97.3574 119.12 97.758 119.755 98.1254 120.41C98.4563 121.093 98.8595 121.724 99.1596 122.406C99.4596 123.089 99.7808 123.762 100.059 124.475L100.825 126.544L101.508 128.613C101.931 130.018 102.324 131.432 102.687 132.854C103.051 134.275 103.441 135.689 103.856 137.096C104.084 137.799 104.27 138.502 104.549 139.164C104.799 139.875 105.107 140.563 105.47 141.223V141.223ZM105.47 141.223C105.09 140.593 104.765 139.932 104.497 139.247C104.198 138.575 104.001 137.861 103.763 137.178L102.491 132.968C102.054 131.578 101.585 130.198 101.084 128.83L100.287 126.762L99.3565 124.796C99.015 124.144 98.6528 123.523 98.3219 122.892C97.9906 122.261 97.5253 121.682 97.1221 121.093C96.7113 120.512 96.262 119.959 95.7773 119.438C95.3245 118.895 94.8222 118.397 94.277 117.948C94.0082 117.72 93.7601 117.472 93.4909 117.255L92.5392 116.696L91.6808 116.127C91.3871 115.948 91.0788 115.792 90.7599 115.662L89.8289 115.238L89.4358 115.031L88.9393 114.886L86.9842 114.369C86.5507 114.252 86.1802 113.97 85.952 113.583C85.7239 113.196 85.6563 112.736 85.7637 112.3C85.8708 111.918 86.1086 111.585 86.4357 111.36C86.7627 111.135 87.1582 111.032 87.5534 111.069L87.9258 111.131L92.6947 112.031L93.8843 112.238L95.0943 112.383L97.5151 112.683L99.9359 112.973L102.366 113.117C104.001 113.189 105.615 113.376 107.249 113.345H112.152L117.045 113.138C118.679 113.138 120.314 112.889 121.949 112.776C123.583 112.662 125.207 112.465 126.831 112.258C128.455 112.051 130.079 111.886 131.703 111.607C133.327 111.327 134.952 111.141 136.555 110.821C138.158 110.5 139.793 110.241 141.396 109.91C143 109.579 144.613 109.238 146.206 108.876C147.799 108.514 149.402 108.142 150.996 107.717C152.588 107.293 154.182 106.911 155.754 106.455C158.911 105.576 162.043 104.61 165.147 103.559C165.513 103.43 165.912 103.429 166.279 103.555C166.646 103.681 166.96 103.927 167.17 104.253C167.381 104.579 167.475 104.967 167.438 105.353C167.401 105.739 167.236 106.102 166.967 106.383L166.822 106.538L166.068 107.221L165.271 108.131C164.744 108.741 164.236 109.424 163.719 110.086C162.685 111.462 161.764 112.889 160.823 114.328C159.882 115.765 158.982 117.234 158.102 118.724C157.223 120.213 156.344 121.693 155.506 123.203C153.82 126.224 152.206 129.285 150.706 132.399C149.957 133.945 149.267 135.518 148.637 137.116C148.319 137.908 148.022 138.708 147.747 139.516L147.375 140.757C147.272 141.059 147.062 141.312 146.785 141.471C146.585 141.603 146.374 141.717 146.154 141.812C144.5 142.431 142.788 142.885 141.044 143.168C139.328 143.487 137.603 143.76 135.872 143.985C132.438 144.424 128.987 144.71 125.527 144.843C122.056 145.011 118.576 144.955 115.111 144.678C113.365 144.536 111.635 144.245 109.939 143.809C109.096 143.593 108.278 143.291 107.497 142.909C106.675 142.552 105.964 141.98 105.439 141.254L105.47 141.223Z" fill="#D7CAB2"/>
<path opacity="0.5" d="M105.46 141.233C105.979 141.93 106.666 142.485 107.456 142.847C108.236 143.227 109.054 143.522 109.897 143.726C111.596 144.144 113.326 144.421 115.07 144.554C118.512 144.808 121.968 144.832 125.414 144.626C128.876 144.441 132.328 144.096 135.758 143.592C137.465 143.343 139.182 143.064 140.868 142.702C142.557 142.374 144.21 141.882 145.803 141.233C146.154 141.057 146.599 140.819 146.661 140.571L146.993 139.309C147.241 138.482 147.541 137.644 147.83 136.826C148.449 135.197 149.108 133.582 149.806 131.985C151.203 128.799 152.713 125.675 154.275 122.561C155.04 120.999 155.837 119.458 156.644 117.917C157.449 116.374 158.284 114.846 159.147 113.334C159.995 111.855 160.905 110.314 161.847 108.834C162.333 108.1 162.799 107.355 163.326 106.641L164.143 105.607C164.462 105.237 164.808 104.891 165.178 104.573L166.016 106.062C162.861 107.096 159.685 108.131 156.478 109C154.885 109.466 153.261 109.869 151.658 110.293C150.054 110.717 148.43 111.069 146.806 111.462C145.182 111.855 143.558 112.165 141.934 112.496C140.31 112.828 138.665 113.107 137.031 113.417C135.396 113.727 133.752 113.944 132.107 114.213C130.462 114.483 128.817 114.679 127.162 114.886C125.507 115.093 123.862 115.289 122.197 115.403C120.531 115.517 118.876 115.724 117.211 115.776L112.194 115.941H107.187C105.522 115.941 103.856 115.786 102.191 115.703L99.6874 115.548L97.1944 115.237L94.7013 114.938L93.4601 114.783L92.229 114.348L87.305 113.169L87.7809 111.689L89.8496 112.776L90.3669 113.066L90.8428 113.396L91.8051 114.038C92.1153 114.255 92.4564 114.431 92.7463 114.679L93.5945 115.434L94.4529 116.179C94.7115 116.448 94.9498 116.748 95.1979 117.027C95.7364 117.563 96.2312 118.14 96.6775 118.755C97.1253 119.348 97.5396 119.967 97.9184 120.606C98.27 121.268 98.6736 121.889 98.9529 122.551C99.2323 123.213 99.5941 123.886 99.884 124.62L100.691 126.689L101.405 128.758C101.845 130.159 102.255 131.57 102.636 132.988C103.018 134.406 103.411 135.823 103.835 137.219C104.063 137.912 104.249 138.626 104.539 139.288C104.793 139.96 105.101 140.611 105.46 141.233V141.233ZM105.46 141.233C105.083 140.603 104.761 139.942 104.497 139.257C104.208 138.585 104.011 137.871 103.773 137.188L102.522 132.968C102.112 131.577 101.664 130.197 101.177 128.83L100.411 126.761L99.5218 124.765C99.201 124.103 98.8392 123.472 98.4872 122.82C98.1356 122.168 97.7218 121.589 97.339 120.979C96.9302 120.381 96.4918 119.805 96.0254 119.251C95.5968 118.683 95.1228 118.15 94.6083 117.658C94.3497 117.41 94.1012 117.151 93.8324 116.924L92.9119 116.272L92.0532 115.641C91.758 115.445 91.4508 115.269 91.1327 115.114L90.1915 114.617L89.7258 114.369L89.2288 114.203L87.2327 113.531C87.0149 113.458 86.835 113.301 86.7322 113.096C86.6295 112.89 86.6124 112.652 86.6846 112.434C86.7584 112.256 86.895 112.111 87.0685 112.027C87.2421 111.944 87.4404 111.926 87.6258 111.979L87.6981 112.124L92.5185 112.941L93.7289 113.107L94.9494 113.221L97.3909 113.51L99.832 113.8L102.294 113.945C103.928 114.017 105.563 114.203 107.218 114.172L112.194 114.203L117.128 113.996C118.773 113.996 120.407 113.748 122.052 113.634C123.697 113.52 125.331 113.324 126.965 113.117C128.6 112.91 130.234 112.734 131.858 112.455C133.483 112.176 135.127 111.99 136.741 111.669C138.355 111.348 139.989 111.089 141.603 110.748C143.217 110.407 144.83 110.076 146.434 109.714C148.043 109.352 149.647 108.966 151.244 108.555C152.847 108.141 154.44 107.738 156.023 107.272C159.199 106.403 162.344 105.421 165.457 104.366C165.565 104.328 165.679 104.312 165.793 104.319C165.907 104.326 166.019 104.355 166.122 104.405C166.225 104.455 166.317 104.525 166.393 104.61C166.468 104.696 166.527 104.795 166.564 104.903C166.614 105.056 166.623 105.219 166.588 105.375C166.554 105.532 166.477 105.676 166.367 105.793L166.295 105.855L165.457 106.662L164.65 107.624C164.123 108.276 163.616 108.98 163.119 109.693C162.147 111.1 161.216 112.548 160.306 114.017C159.397 115.488 158.514 116.974 157.657 118.476C156.799 119.975 155.94 121.485 155.123 123.006C153.489 126.109 151.916 129.151 150.458 132.316C149.762 133.896 149.072 135.479 148.389 137.064C148.079 137.871 147.779 138.668 147.509 139.485L147.148 140.736C147.064 140.995 146.882 141.211 146.641 141.337C146.452 141.467 146.251 141.578 146.041 141.668C144.404 142.295 142.71 142.759 140.982 143.053C139.275 143.385 137.558 143.674 135.81 143.901C132.378 144.376 128.926 144.69 125.465 144.843C121.997 145.027 118.52 144.979 115.059 144.698C113.313 144.556 111.583 144.266 109.887 143.829C109.044 143.613 108.226 143.312 107.445 142.929C106.643 142.553 105.954 141.971 105.449 141.243L105.459 141.233L105.46 141.233Z" fill="#D7CAB2"/>
<path d="M105.449 141.244C109.939 148.195 146.247 143.405 146.827 140.664C148.42 133.568 161.454 108.659 165.654 105.183C158.123 107.79 119.166 120.244 87.4601 112.714C101.849 117.307 101.963 135.844 105.449 141.243V141.244Z" fill="#333333"/>
<path d="M160.895 108.555C155.444 116.779 147.075 132.823 145.296 139.816C143.144 140.995 131.848 143.095 120.748 143.095C111.894 143.095 107.798 141.657 106.928 140.302C105.895 138.221 105.117 136.022 104.611 133.754C103.112 128.396 101.063 121.113 96.0563 116.013C100.6 116.576 105.174 116.852 109.753 116.841C130.648 116.841 151.027 111.555 160.906 108.565L160.895 108.555ZM165.705 105.193C159.881 107.262 135.272 115.114 109.753 115.114C102.272 115.179 94.8083 114.378 87.5121 112.724C101.849 117.307 101.963 135.844 105.449 141.244C107.166 143.892 113.518 144.833 120.738 144.833C132.459 144.833 146.485 142.361 146.868 140.695C148.461 133.599 161.495 108.69 165.695 105.214L165.705 105.193Z" fill="#333333"/>
<g style="mix-blend-mode:multiply">
<path d="M103.287 135.161C105.698 137.23 113.9 128.013 113.032 124.444C110.808 115.372 100.774 116.624 97.1014 116.045C93.4288 115.465 86.3326 112.331 89.2808 113.252C97.784 115.858 113.994 114.7 115.928 115.32C118.37 116.045 120.066 125.934 117.666 128.158C115.266 130.382 106.773 143.312 105.501 141.099C104.229 138.885 103.918 136.516 103.287 135.161V135.161ZM141.706 124.444C143.651 126.337 148.751 128.582 151.937 127.434C151.362 129.223 150.585 130.941 149.62 132.554C127.607 130.62 133.596 115.176 135.231 113.727C136.865 112.279 157.244 109.383 161.206 108.555C155.216 109.869 134.952 117.886 141.706 124.444Z" fill="#818181"/>
</g>
<path d="M120.469 144.884C112.98 144.884 108.056 143.85 106.173 141.781C106.028 141.606 105.998 140.56 106.856 138.605C108.925 133.826 115.39 125.561 126.51 124.889C127.255 124.889 128 124.816 128.724 124.816C141.81 124.816 149.692 131.458 149.713 132.647L149.071 134.188C148.368 135.885 147.292 138.45 146.341 141.305C145.41 142.237 132.231 144.885 120.469 144.885V144.884Z" fill="#F8B1AB"/>
<path d="M128.745 124.548V125.386C140.124 125.386 148.244 131.003 149.092 132.627C148.948 132.989 148.751 133.434 148.534 133.961C147.841 135.617 146.796 138.099 145.865 140.871C144.013 141.906 131.776 144.306 120.418 144.306C113.311 144.306 108.429 143.271 106.629 141.471C106.546 140.861 107.145 138.451 109.318 135.347C111.263 132.575 116.849 126.037 126.521 125.469C127.245 125.469 128 125.396 128.724 125.396V124.237L128.745 124.548ZM128.724 124.237C127.99 124.237 127.234 124.237 126.469 124.31C111.159 125.22 104.084 140.396 105.698 142.133C107.932 144.585 113.797 145.433 120.418 145.433C132.22 145.433 146.444 142.723 146.868 141.461C148.172 137.551 149.672 134.22 150.251 132.772C150.83 131.324 141.975 124.207 128.703 124.207L128.724 124.237Z" fill="#F38089"/>
<g style="mix-blend-mode:multiply">
<path d="M105.987 141.285C104.953 146.033 133.834 122.903 149.434 134.044C152.537 129.72 135.334 122.479 125.29 124.154C116.818 125.582 108.107 131.013 105.987 141.285V141.285Z" fill="#F8B1AB"/>
</g>
<path d="M111.821 116.479C113.228 119.086 116.021 131.789 117.18 132.12C118.338 132.451 125.455 134.437 126.49 134.002C127.524 133.568 127.431 131.106 128.559 131.83C129.427 132.409 129.862 133.568 130.731 133.133C132.283 132.358 136.937 129.513 137.683 128.209C138.427 126.906 138.262 119.665 137.683 113.872C134.558 115.176 117.035 117.058 111.821 116.479V116.479Z" fill="#FEF6E4"/>
<path d="M137.093 114.659C137.641 120.607 137.651 126.927 137.093 127.93C136.534 128.934 132.283 131.665 130.39 132.616C130.352 132.622 130.313 132.622 130.276 132.616C130.141 132.616 129.883 132.337 129.666 132.099C129.405 131.806 129.114 131.543 128.796 131.313C128.595 131.174 128.358 131.095 128.114 131.086C127.369 131.086 127.079 131.841 126.811 132.451C126.655 132.823 126.448 133.341 126.231 133.485C126.155 133.496 126.079 133.496 126.003 133.485C123.364 133.122 120.756 132.555 118.204 131.789L117.407 131.582C116.859 130.961 115.701 126.885 114.852 123.886C114.087 121.217 113.363 118.714 112.783 117.131H114.397C121.049 117.131 133.255 115.745 137.155 114.617L137.093 114.659H137.093ZM137.661 113.831C135.014 114.969 121.338 116.551 114.428 116.551C113.578 116.558 112.729 116.52 111.883 116.438C113.228 119.086 116.021 131.789 117.18 132.12C118.338 132.451 124.131 134.065 126.003 134.065C126.154 134.072 126.305 134.051 126.448 134.002C127.338 133.62 127.39 131.696 128.114 131.696C128.245 131.703 128.371 131.75 128.476 131.83C129.21 132.316 129.635 133.227 130.276 133.227C130.405 133.224 130.533 133.192 130.648 133.134C132.199 132.358 136.855 129.513 137.6 128.21C138.344 126.906 138.179 119.665 137.6 113.872L137.662 113.831H137.661Z" fill="#FFD085"/>
<g style="mix-blend-mode:multiply">
<path d="M113.849 122.562C113.373 117.876 135.086 116.355 137.796 116.717C137.796 115.61 137.6 114.844 137.651 113.614C134.072 115.413 114.573 117.307 111.873 116.531C112.68 118.489 113.341 120.505 113.849 122.562H113.849Z" fill="#EADCBE"/>
</g>
<g style="mix-blend-mode:multiply">
<path d="M124.69 119.024C124.991 119.644 125.26 120.28 125.497 120.927C125.952 122.086 126.531 123.648 126.997 125.21C127.462 126.772 128.031 128.313 128.352 129.524L128.941 131.468L127.442 131.903L126.986 129.834C126.717 128.634 126.355 127.041 125.952 125.448C125.548 123.855 125.145 122.282 124.793 121.113C124.441 119.944 124.152 119.2 124.152 119.2L124.69 119.024Z" fill="#FFD085"/>
</g>
<g style="mix-blend-mode:multiply" opacity="0.4">
<path d="M51.1614 45.1437C62.6956 48.0818 60.8128 68.0152 67.7126 69.5671C74.6123 71.1186 83.5914 53.1714 84.4603 49.2195C71.1679 43.5715 65.0129 36.8995 55.4958 38.8753C52.3515 39.475 47.9342 44.306 51.1618 45.1437H51.1614Z" fill="#F8B1AB"/>
</g>
<g style="mix-blend-mode:multiply" opacity="0.5">
<path d="M83.1054 103.404C97.5874 104.562 109.556 105.141 113.807 100.693C118.059 96.2452 119.6 76.5599 126.645 77.0463C132.552 77.4495 134.559 103.114 138.417 103.88C142.276 104.645 169.45 112.093 176.164 105.141C182.877 98.1901 186.012 93.8456 184.439 89.6249C182.867 85.4045 143.227 71.791 135.138 71.0569C127.048 70.3223 72.2021 77.1393 70.8159 80.6149C69.4297 84.0906 67.9818 83.594 68.2404 87.3076C68.7472 94.2281 68.6229 102.245 83.1054 103.404V103.404Z" fill="#C7893E"/>
</g>
<path d="M123.697 74.2016C124.731 74.2016 128.869 73.9117 129.779 74.6361C135.034 78.7736 134.807 95.542 140.351 100.838C145.244 105.514 171.922 108.948 176.557 103.59C181.191 98.2316 187.987 82.0215 189.58 80.8322C191.173 79.6425 194.649 78.7634 195.663 77.2116C196.677 75.6601 195.808 68.5224 193.346 68.8123C190.884 69.1018 186.249 70.6947 183.353 69.8465C180.457 68.9983 166.419 60.1435 131.082 65.5019C128.032 65.8885 124.936 65.6919 121.959 64.9225C119.642 64.3431 106.318 56.6471 70.8472 61.7364C67.2989 62.2431 62.4475 60.7018 60.7097 60.8675C58.9719 61.0331 58.4026 66.526 59.1165 67.9743C59.8303 69.4222 63.461 70.581 63.8955 72.3189C64.3299 74.0567 67.5161 91.1353 75.9157 98.2316C84.7604 105.71 107.498 100.538 109.504 99.1005C118.628 92.5837 120.655 74.2016 123.697 74.2016V74.2016Z" fill="#333333"/>
<path d="M93.1702 61.7569C108.956 61.7569 117.025 64.9118 120.066 66.0913C120.534 66.2953 121.015 66.4715 121.504 66.6187C123.673 67.1625 125.899 67.4438 128.135 67.4568C129.194 67.4617 130.252 67.3853 131.3 67.229C138.221 66.1584 145.213 65.6085 152.216 65.5842C168.819 65.5842 177.457 69.2981 181.181 70.891C181.925 71.2118 182.463 71.4392 182.898 71.5736C183.719 71.8047 184.569 71.9162 185.422 71.9049C187.373 71.8269 189.311 71.5461 191.204 71.0668C192.011 70.9012 192.777 70.7355 193.377 70.6429C194.184 71.522 194.67 75.4321 194.246 76.353C193.37 77.0797 192.367 77.6373 191.287 77.9975C190.334 78.3835 189.422 78.8653 188.566 79.4356C187.635 80.108 186.643 81.9701 183.819 87.5559C181.129 92.8729 177.787 99.4934 175.243 102.431C174.353 103.466 171.198 104.5 165.002 104.5C155.806 104.5 144.189 102.028 141.551 99.5141C139.151 97.2175 137.869 91.9212 136.638 86.8112C135.262 81.1008 133.917 75.7115 130.814 73.2704C130.028 72.6496 128.745 72.4015 126.324 72.4015H123.656C121.214 72.4015 120.128 75.4321 118.328 80.4698C116.332 86.2733 113.518 94.104 108.522 97.6524C107.415 98.3244 99.2112 100.424 90.9362 100.424C84.6053 100.424 79.8055 99.2038 77.064 96.8866C73.7434 94.0833 69.0886 87.5762 65.7783 72.6082C65.706 72.2667 65.654 72.0186 65.6126 71.874C65.2094 70.2601 63.6579 69.2462 62.2819 68.3566C61.7172 68.0253 61.1901 67.633 60.7097 67.1876C60.4556 65.6399 60.6273 64.0522 61.2063 62.5945C62.0114 62.6678 62.8124 62.7817 63.606 62.936C65.4788 63.3002 67.3781 63.5113 69.2852 63.5674C69.889 63.5926 70.4937 63.5749 71.0953 63.5154C78.4034 62.414 85.7798 61.8265 93.1702 61.7573V61.7569ZM93.1702 60.019C85.6872 60.0633 78.2169 60.6406 70.8159 61.7467C70.2881 61.8182 69.7558 61.8529 69.223 61.8499C66.1197 61.8499 62.5714 60.8157 60.9476 60.8157H60.689C58.9512 60.9602 58.3718 66.4636 59.0957 67.9119C59.8201 69.3599 63.4403 70.5187 63.8752 72.2565C64.3096 73.9944 67.4954 91.073 75.895 98.1693C79.4226 101.148 85.1433 102.121 90.8842 102.121C99.5632 102.121 108.284 99.9071 109.504 99.0175C118.628 92.5006 120.655 74.1186 123.697 74.1186C124.162 74.1186 125.238 74.0565 126.366 74.0565C127.772 74.0565 129.272 74.1495 129.779 74.5531C135.034 78.6906 134.807 95.459 140.351 100.755C143.455 103.745 155.516 106.227 165.002 106.227C170.35 106.227 174.881 105.441 176.557 103.507C181.191 98.1486 187.987 81.9388 189.58 80.7492C191.173 79.5595 194.649 78.6804 195.663 77.1286C196.677 75.5771 195.849 68.7187 193.49 68.7187H193.346C191.401 68.9461 188.111 69.9912 185.381 69.9912C184.682 70.0025 183.985 69.9159 183.312 69.7326C181.088 69.0602 172.243 63.6705 152.175 63.6705C145.097 63.7134 138.033 64.2874 131.041 65.3876C130.079 65.5279 129.107 65.5971 128.135 65.5947C126.042 65.5817 123.958 65.3178 121.928 64.8086C120.21 64.55 112.194 60.019 93.1702 60.019V60.019Z" fill="#1A1A1A"/>
<g style="mix-blend-mode:multiply" opacity="0.5">
<path fill-rule="evenodd" clip-rule="evenodd" d="M73.7434 72.4634C72.9366 73.498 72.4401 88.9631 78.9159 93.1525C83.1878 95.9144 101.363 95.3248 104.983 93.2971C110.735 90.1113 116.332 75.4218 114.718 73.3324C112.111 69.8567 93.2944 65.2226 79.0913 68.8432C77.0298 69.5754 75.1891 70.8214 73.7434 72.4634V72.4634Z" stroke="#333333" stroke-width="1.06243"/>
</g>
<path d="M73.7434 72.4634C72.9366 73.498 72.4401 88.9631 78.9159 93.1525C83.1878 95.9144 101.363 95.3248 104.983 93.2971C110.735 90.1113 116.332 75.4218 114.718 73.3324C112.111 69.8567 93.2944 65.2226 79.0913 68.8432C77.0298 69.5754 75.1891 70.8214 73.7434 72.4634V72.4634Z" fill="white"/>
<g style="mix-blend-mode:multiply" opacity="0.5">
<path fill-rule="evenodd" clip-rule="evenodd" d="M180.374 79.2287C181.036 80.3562 179.526 95.7799 172.522 99.0899C167.929 101.262 149.982 98.335 146.661 95.8522C141.406 91.942 137.796 76.6532 139.627 74.7806C142.658 71.6772 161.93 69.5155 175.522 74.9462C177.48 75.9344 179.15 77.4091 180.374 79.2287V79.2287Z" stroke="#333333" stroke-width="1.06243"/>
</g>
<path d="M180.374 79.2287C181.036 80.3562 179.526 95.7799 172.522 99.0899C167.929 101.262 149.982 98.335 146.661 95.8522C141.406 91.942 137.796 76.6532 139.627 74.7806C142.658 71.6772 161.93 69.5155 175.522 74.9462C177.48 75.9344 179.15 77.4091 180.374 79.2287V79.2287Z" fill="white"/>
<path d="M94.4114 81.8461C93.9359 85.208 92.229 87.7527 90.6052 87.5147C88.9807 87.2768 88.0602 84.4114 88.5361 81.008C89.0119 77.6047 90.7185 75.1014 92.3426 75.3394C93.9668 75.5773 94.8877 78.4841 94.4118 81.8461H94.4114ZM163.916 85.7562C164.278 89.1389 163.233 91.9628 161.609 92.1801C159.985 92.3973 158.371 89.7491 158.02 86.3665C157.668 82.9838 158.702 80.1082 160.336 79.9426C161.971 79.7769 163.574 82.3735 163.916 85.7562Z" fill="#010101"/>
<g style="mix-blend-mode:multiply" opacity="0.3">
<path d="M60.9269 65.8016C62.9027 67.1155 64.7648 66.3087 65.1992 68.9049C65.6337 71.5015 71.6438 94.2382 79.1741 96.8348C91.505 101.128 107.022 96.9282 109.09 95.5834C111.159 94.2386 121.038 72.2051 122.704 71.3358C124.369 70.4669 129.614 71.4292 130.741 71.9156C134.145 73.3635 140.382 97.2697 142.12 98.48C149.723 103.838 174.053 103.404 175.222 101.955C176.391 100.507 185.567 79.6112 187.16 78.3598C189.549 76.5497 195.052 75.3186 195.197 76.1152C195.342 76.9115 190.78 77.6358 189.404 79.3737C188.029 81.1115 178.843 101.097 175.957 102.825C173.071 104.552 151.74 107.428 140.982 99.8557C135.81 96.2351 133.813 74.4497 129.758 73.2913C127.651 72.5976 125.39 72.5222 123.242 73.074C120.707 74.7392 117.159 93.1939 109.556 97.9006C106.546 99.7729 82.8674 104.325 75.8227 96.9594C62.644 83.2115 66.6264 70.9014 62.3749 69.0913C59.4372 67.85 58.8269 66.3396 58.8992 65.2534C58.9719 64.1673 59.8404 65.0776 60.9269 65.8016V65.8016ZM61.1441 61.1675C59.7681 60.6607 67.0816 63.7019 69.7817 63.5156C72.4815 63.3296 77.0226 61.4468 78.4709 60.9811C79.9192 60.5158 71.6641 62.0157 69.6368 61.9223C67.6094 61.8293 61.9404 61.4468 61.1441 61.1675V61.1675ZM117.759 65.2225C120.293 66.381 121.452 69.205 123.966 69.4948C126.479 69.7844 129.397 70.2188 130.773 69.4222C132.629 68.3272 134.573 67.3895 136.586 66.6189C137.62 66.4017 128.983 67.7777 125.797 67.4878C122.414 67.1565 118.7 65.3671 117.759 65.2225H117.759ZM179.67 68.6259C178.636 68.1915 183.498 72.1739 184.946 71.9566C186.394 71.7394 189.084 70.0844 190.118 69.7121C190.987 69.4222 186.643 70.581 185.339 70.3634C183.41 69.9229 181.515 69.3422 179.67 68.6259V68.6259Z" fill="#333333"/>
</g>
<g style="mix-blend-mode:multiply" opacity="0.3">
<path d="M70.9917 70.2188C77.4363 63.8465 92.7771 66.0188 95.5702 66.5982C77.1468 67.9328 76.8159 69.3089 73.5989 72.5669C72.6965 78.6838 73.311 84.9287 75.3883 90.7524C72.2228 88.9318 68.8402 72.3501 70.9917 70.2188V70.2188ZM183.88 77.067C178.336 69.9086 162.84 70.043 159.995 70.2497C178.087 73.9946 178.222 75.4222 180.994 79.0529C181.087 85.2324 179.666 91.3407 176.857 96.8454C180.208 95.4592 185.742 79.4671 183.88 77.067Z" fill="#333333"/>
</g>
<g style="mix-blend-mode:multiply">
<path d="M73.9196 83.108C74.5607 75.546 75.2226 69.5257 90.1082 69.0604C102.025 68.6877 111.532 71.4812 112.938 74.3462C113.818 76.1461 113.125 84.1942 107.156 91.5385C111.025 88.0937 117.128 74.6361 114.47 72.9186C104.766 66.7119 85.505 66.5466 78.3365 69.1221C76.4946 69.9231 74.8522 71.1206 73.5262 72.6291C73.3402 74.522 73.309 82.0527 73.9192 83.108H73.9196Z" fill="#D0DDDC"/>
</g>
<g style="mix-blend-mode:multiply">
<path d="M74.3744 83.6146C76.6401 98.2314 103.432 93.7935 105.025 93.2145C104.922 94.0314 90.9772 97.9005 79.2468 93.411C74.5295 91.6005 74.1056 81.9389 74.3744 83.615V83.6146ZM179.133 89.6454C179.422 82.0631 179.505 76.0116 164.795 73.715C153.013 71.8842 143.227 73.4978 141.489 76.1565C140.392 77.8424 140.092 85.9111 145.12 93.9384C141.696 90.049 137.289 75.9389 140.144 74.5738C150.489 69.5877 169.698 71.8014 176.463 75.2356C178.197 76.2541 179.681 77.6465 180.808 79.3114C180.756 81.1938 179.877 88.673 179.133 89.6458V89.6454Z" fill="#D0DDDC"/>
</g>
<g style="mix-blend-mode:multiply">
<path d="M178.626 90.0905C174.581 104.324 148.544 96.6383 147.034 95.8627C147.034 96.6902 160.399 102.235 172.585 99.2141C177.488 98.0037 179.091 88.4558 178.626 90.0905V90.0905Z" fill="#D0DDDC"/>
</g>
<g style="mix-blend-mode:screen" opacity="0.25">
<path d="M93.157 78.5608C93.681 78.5608 94.1057 78.136 94.1057 77.6121C94.1057 77.0881 93.681 76.6633 93.157 76.6633C92.633 76.6633 92.2083 77.0881 92.2083 77.6121C92.2083 78.136 92.633 78.5608 93.157 78.5608Z" fill="white"/>
</g>
<g style="mix-blend-mode:screen" opacity="0.25">
<path d="M162.082 82.616C162.606 82.616 163.031 82.1912 163.031 81.6672C163.031 81.1433 162.606 80.7185 162.082 80.7185C161.558 80.7185 161.133 81.1433 161.133 81.6672C161.133 82.1912 161.558 82.616 162.082 82.616Z" fill="white"/>
</g>
<g style="mix-blend-mode:screen" opacity="0.1">
<path d="M61.3614 64.8604C63.4301 67.2499 64.7234 67.4777 67.568 67.1053C94.7424 63.5156 109.721 63.7019 117.107 70.6533C118.711 72.1637 117.832 66.236 114.79 65.4812C91.9188 59.4296 75.3367 64.8604 71.8505 65.2948C68.3643 65.7293 65.7783 64.9326 61.3614 64.8604V64.8604ZM136.369 68.336C135.758 68.967 136.017 75.2565 138.975 72.8978C147.52 66.0911 165.405 67.7258 177.86 71.8636C175.791 67.9535 161.309 65.2018 153.095 65.3468C149.248 65.4296 138.055 66.6193 136.369 68.336Z" fill="#D0DDDC"/>
</g>
<path d="M185.019 74.7952C186.698 74.7952 188.06 74.3704 188.06 73.8464C188.06 73.3225 186.698 72.8977 185.019 72.8977C183.339 72.8977 181.977 73.3225 181.977 73.8464C181.977 74.3704 183.339 74.7952 185.019 74.7952Z" fill="#D0DDDC"/>
<path d="M70.4436 65.7706C70.4436 66.019 69.016 65.9983 67.3402 65.7706C65.6645 65.5432 64.3819 65.0568 64.4233 64.7981C64.4647 64.5395 65.8509 64.5602 67.5266 64.7981C69.2023 65.036 70.485 65.5119 70.4436 65.7706Z" fill="#D0DDDC"/>
<path d="M239.358 205.627C238.83 200.31 234.94 197.931 231.32 197.931C230.122 197.935 228.935 198.167 227.824 198.613L227.11 198.924L226.51 199.369C225.383 200.201 224.147 200.876 222.838 201.375C222.772 200.16 222.813 198.942 222.962 197.734V197.538C223.945 188.176 221.989 182.714 217.138 181.297C216.321 181.06 215.475 180.942 214.624 180.945C211.996 181.065 209.468 181.99 207.383 183.593C206.542 182.64 205.494 181.891 204.32 181.404C203.146 180.916 201.876 180.703 200.607 180.78C196.17 180.78 192.601 182.849 191.297 186.19C191.173 186.511 190.997 187.038 190.78 187.711C189.664 185.253 187.843 183.182 185.548 181.761C183.254 180.339 180.589 179.63 177.891 179.725C174.022 179.722 170.229 180.797 166.937 182.828L166.667 183.025C162.304 186.099 158.754 190.189 156.323 194.941C154.981 190.352 151.945 186.443 147.83 184.007L147.747 183.956L147.386 183.738C151.968 175.587 156.023 164.777 153.592 154.494C151.006 143.519 144.551 141.875 140.941 141.875C139.378 141.89 137.828 142.17 136.358 142.702H136.162C129.355 145.381 126.355 149.405 125.703 150.367C120.243 159.146 116.847 169.049 115.773 179.332C115.573 181.205 115.366 183.077 115.152 184.949C113.776 183.125 111.821 181.823 109.608 181.255C108.756 180.996 107.87 180.863 106.98 180.863C103.225 180.863 100.143 183.169 98.5185 184.7C97.8264 183.677 96.9047 182.83 95.8271 182.227C94.7494 181.623 93.5457 181.28 92.3118 181.225H91.7015C88.1683 181.29 84.7761 182.623 82.1431 184.98C81.3916 183.667 80.3008 182.58 78.985 181.834C77.6691 181.088 76.1767 180.709 74.6643 180.739H73.3816C68.923 180.739 65.4164 182.807 63.9885 186.335C63.8592 186.677 63.7387 187.021 63.627 187.369C60.1303 183.025 55.672 180.987 49.6928 180.987H49.0927C45.3689 181.059 36.0691 182.621 30.3488 195.469C29.4909 197.382 28.7987 199.365 28.2797 201.396C27.2498 200.928 26.1319 200.685 25.0006 200.683C23.7607 200.689 22.5406 200.993 21.4426 201.569C20.3446 202.145 19.4009 202.976 18.6908 203.993C17.8008 205.296 14.9975 209.879 16.3735 214.337C16.7427 215.517 17.3775 216.597 18.2293 217.494C19.0811 218.391 20.1271 219.08 21.287 219.509C23.4284 220.347 26.1285 221.165 28.1765 221.754C29.8261 225.43 32.3991 228.616 35.6452 231.002C38.7384 233.215 42.4785 234.339 46.2792 234.198C51.3805 234.023 56.3984 232.853 61.0508 230.754L61.3301 230.629L61.4028 230.578C62.8612 232.082 64.7588 233.085 66.823 233.443C67.6693 233.599 68.528 233.679 69.3887 233.681C73.2469 233.681 75.9571 231.767 78.44 228.075C79.551 229.714 81.0627 231.042 82.8315 231.933C84.6004 232.824 86.5675 233.248 88.5462 233.164C88.7842 233.164 89.0327 233.288 89.2913 233.288C91.5878 233.288 94.4634 232.44 96.8842 228.581C97.8834 230.345 99.3471 231.802 101.116 232.792C102.885 233.782 104.892 234.269 106.918 234.198C109.643 234.136 112.322 233.483 114.77 232.285L114.894 232.223C116.197 231.53 117.263 230.94 118.132 230.433C122.025 232.551 126.382 233.674 130.814 233.702C131.733 233.705 132.652 233.657 133.565 233.557H134.051C145.431 231.323 152.816 228.591 157.233 226.533C161.08 230.81 166.45 233.41 172.191 233.774C172.988 233.837 173.784 233.867 174.571 233.867C179.385 233.882 184.127 232.698 188.37 230.423C189.54 231.688 190.974 232.68 192.57 233.329C193.599 233.759 194.703 233.981 195.818 233.981C202.894 233.981 206.162 225.582 207.104 222.716L208.821 218.154C210.377 219.874 212.378 221.131 214.603 221.785C215.973 222.175 217.39 222.37 218.814 222.364C226.572 222.364 234.072 216.861 235.251 215.951C236.768 214.73 237.943 213.138 238.663 211.329C239.382 209.52 239.622 207.556 239.358 205.627V205.627Z" fill="white"/>
<path d="M208.046 229.924C211.358 229.924 214.042 227.239 214.042 223.928C214.042 220.616 211.358 217.932 208.046 217.932C204.735 217.932 202.05 220.616 202.05 223.928C202.05 227.239 204.735 229.924 208.046 229.924Z" fill="white"/>
<path d="M208.062 220.403C208.524 220.403 208.981 220.495 209.408 220.672C209.835 220.849 210.222 221.109 210.548 221.437C210.874 221.764 211.133 222.153 211.308 222.58C211.484 223.008 211.573 223.466 211.571 223.928C211.571 224.626 211.364 225.308 210.976 225.888C210.588 226.468 210.036 226.919 209.391 227.186C208.746 227.452 208.037 227.521 207.353 227.384C206.669 227.246 206.041 226.909 205.548 226.415C205.056 225.92 204.722 225.291 204.587 224.606C204.453 223.921 204.525 223.212 204.795 222.568C205.064 221.924 205.518 221.375 206.1 220.99C206.681 220.604 207.364 220.4 208.062 220.403H208.062ZM208.062 220.983C207.281 220.983 206.532 221.293 205.979 221.846C205.427 222.398 205.117 223.147 205.117 223.928C205.117 224.709 205.427 225.458 205.979 226.01C206.532 226.563 207.281 226.873 208.062 226.873C208.842 226.869 209.588 226.557 210.14 226.006C210.691 225.454 211.003 224.708 211.007 223.928C211.007 223.147 210.696 222.398 210.144 221.846C209.592 221.293 208.843 220.983 208.062 220.983V220.983ZM208.169 221.99C208.458 221.974 208.747 222.01 209.023 222.097C209.2 222.165 209.35 222.288 209.45 222.448C209.558 222.621 209.611 222.823 209.603 223.028C209.608 223.15 209.589 223.273 209.548 223.388C209.506 223.503 209.442 223.609 209.359 223.699C209.167 223.895 208.914 224.019 208.641 224.05C208.789 224.131 208.923 224.233 209.038 224.355C209.197 224.53 209.339 224.719 209.465 224.92L209.923 225.637H209.038L208.489 224.828C208.306 224.553 208.107 224.37 208.107 224.294C208.042 224.228 207.965 224.176 207.879 224.141C207.758 224.12 207.634 224.12 207.512 224.141H207.36V225.667H206.643V221.99L208.169 221.99ZM208.474 222.616H207.36V223.547H207.894C208.119 223.555 208.345 223.534 208.565 223.485C208.653 223.463 208.729 223.408 208.779 223.333C208.829 223.25 208.855 223.155 208.855 223.058C208.859 222.949 208.827 222.842 208.763 222.753C208.686 222.675 208.583 222.626 208.474 222.616V222.616Z" fill="#E24C32"/>
<path d="M233.596 206.206C233.244 202.648 230.037 203.972 230.037 203.972C230.037 203.972 224.865 207.965 220.345 207.52C215.824 207.075 217.241 196.928 217.241 196.928C217.241 196.928 218.276 187.617 215.555 186.852C212.835 186.086 209.586 189.283 209.586 189.283C206.966 192.339 204.92 195.844 203.545 199.627L203.007 199.803C203.007 199.803 203.628 189.666 202.914 187.39C202.387 186.242 197.494 186.356 196.707 188.372C195.921 190.39 192.001 204.655 191.732 210.613C191.732 210.613 184.077 217.109 177.405 218.175C170.733 219.24 169.13 215.072 169.13 215.072C169.13 215.072 187.284 210.003 186.715 195.5C186.146 180.997 172.077 186.355 170.495 187.555C168.912 188.755 160.771 193.648 158.381 207.324C158.299 207.789 158.154 209.817 158.154 209.817C158.154 209.817 151.13 214.534 147.21 215.785C147.21 215.785 158.154 197.372 144.81 189.004C138.675 185.269 133.917 192.924 133.917 192.924C133.917 192.924 151.978 172.825 147.975 155.829C146.061 147.74 142.027 146.871 138.314 148.174C132.676 150.409 130.534 153.698 130.534 153.698C125.57 161.677 122.482 170.679 121.504 180.025C119.817 195.769 117.366 214.813 117.366 214.813C117.366 214.813 113.901 218.185 110.704 218.371C107.508 218.558 108.925 208.844 108.925 208.844C108.925 208.844 111.408 194.082 111.232 191.59C111.056 189.097 110.88 187.762 107.942 186.873C105.004 185.983 101.767 189.718 101.767 189.718C101.767 189.718 93.3151 202.534 92.6013 204.489L92.1567 205.286L91.7117 204.758C91.7117 204.758 97.6702 187.318 91.9809 187.059C86.2911 186.8 82.5463 193.266 82.5463 193.266C82.5463 193.266 76.0505 204.117 75.7813 205.358L75.3367 204.82C75.3367 204.82 78.0571 192.21 77.4777 189.097C77.4352 188.695 77.3081 188.308 77.1047 187.959C76.9013 187.61 76.6264 187.309 76.2979 187.074C75.9695 186.84 75.5951 186.677 75.1993 186.598C74.8036 186.519 74.3955 186.524 74.0021 186.614C74.0021 186.614 70.2678 186.169 69.2953 188.569C68.3229 190.969 64.7542 206.889 64.3096 211.968C64.3096 211.968 54.9992 218.63 48.793 218.723C42.5863 218.816 43.279 214.834 43.279 214.834C43.279 214.834 65.7782 207.127 59.6442 191.911C56.882 188 53.6857 186.738 49.1442 186.862C44.6031 186.987 38.9243 189.718 35.283 197.9C33.6895 201.164 32.7579 204.712 32.5418 208.338C32.5418 208.338 28.652 209.134 26.5106 207.355C24.3696 205.575 23.3041 207.355 23.3041 207.355C23.3041 207.355 19.6523 212.579 23.3041 213.996C26.3469 215.076 29.4568 215.957 32.6141 216.634C33.6222 220.464 35.9111 223.833 39.1001 226.181C45.7721 231.25 58.5784 225.447 58.5784 225.447L63.8232 222.344C63.8232 222.344 63.999 227.092 67.8267 227.795C71.654 228.499 73.2574 227.744 79.9294 211.555C83.8395 203.279 84.0673 203.713 84.0673 203.713L84.5119 203.61C84.5119 203.61 81.4812 219.437 82.6396 223.709C83.7985 227.981 88.8463 227.536 88.8463 227.536C88.8463 227.536 91.6082 228.271 93.8324 220.451C95.5835 214.862 97.7908 209.427 100.432 204.2H100.96C100.96 204.2 99.0978 220.182 101.994 225.343C104.891 230.505 112.194 226.957 112.194 226.957C114.25 225.932 116.24 224.778 118.152 223.502C122.363 226.725 127.635 228.239 132.914 227.744C152.227 223.947 159.085 218.795 159.085 218.795C160.302 221.414 162.208 223.652 164.598 225.272C166.989 226.892 169.774 227.832 172.657 227.992C175.976 228.315 179.325 227.9 182.464 226.775C185.603 225.65 188.454 223.843 190.811 221.485C190.811 221.485 190.718 226.285 194.815 227.981C198.911 229.678 201.663 220.595 201.663 220.595L208.511 202.131H209.131C209.131 202.131 209.493 213.985 216.248 215.94C223.003 217.896 231.765 211.151 231.765 211.151C231.765 211.151 233.958 209.765 233.596 206.206H233.596ZM42.2238 207.955C42.4929 197.372 49.4654 192.749 51.8342 195.065C54.203 197.383 53.3442 202.358 48.8133 205.472C44.2827 208.586 42.2448 207.955 42.2448 207.955H42.2241H42.2238ZM132.541 166.96C132.541 166.96 138.862 150.502 140.372 158.508C141.882 166.515 127.11 190.359 127.11 190.359C127.297 185.011 132.541 166.96 132.541 166.96ZM140.124 212.765C135.986 223.709 125.797 219.261 125.797 219.261C125.797 219.261 124.648 215.34 127.938 204.396C131.227 193.452 138.965 197.734 138.965 197.734C138.965 197.734 144.262 201.82 140.124 212.765ZM168.147 207.955C168.147 207.955 167.164 204.489 170.816 197.817C174.467 191.145 177.312 194.797 177.312 194.797C177.312 194.797 180.415 198.179 176.867 203.248C175.913 204.695 174.615 205.882 173.09 206.703C171.564 207.525 169.859 207.955 168.126 207.955H168.147Z" fill="#E24C32"/>
</svg>
