<?xml version="1.0" standalone="no"?>
<!DOCTYPE svg PUBLIC "-//W3C//DTD SVG 20010904//EN"
 "http://www.w3.org/TR/2001/REC-SVG-20010904/DTD/svg10.dtd">
<svg version="1.0" xmlns="http://www.w3.org/2000/svg"
 width="340.000000pt" height="289.000000pt" viewBox="0 0 340.000000 289.000000"
preserveAspectRatio="xMidYMid meet">

<g transform="translate(0.000000,289.000000) scale(0.100000,-0.100000)"
fill="#8c002f" stroke="none">
<path d="M20 1800 l0 -1070 265 0 266 0 -53 62 c-136 161 -231 339 -293 553
-64 219 -84 441 -61 671 31 305 113 538 272 766 30 43 54 80 54 83 0 3 -101 5
-225 5 l-225 0 0 -1070z"/>
<path d="M2950 2864 c0 -3 14 -25 30 -49 80 -117 156 -310 186 -474 9 -47 18
-170 21 -273 l6 -188 -983 0 -983 0 6 -107 c31 -577 260 -885 682 -919 143
-12 319 38 460 131 84 55 238 213 318 327 l69 97 249 -124 c137 -69 249 -127
249 -130 0 -18 -138 -224 -212 -316 l-87 -109 215 0 214 0 -2 1068 -3 1067
-217 3 c-120 1 -218 0 -218 -4z"/>
<path d="M1600 2806 c-130 -36 -235 -125 -293 -247 -20 -40 -39 -98 -43 -127
l-7 -52 444 2 444 3 -3 50 c-4 81 -41 183 -86 239 -94 115 -301 175 -456 132z"/>
<path d="M3047 566 c-91 -34 -151 -111 -170 -220 -29 -170 91 -326 250 -326
133 1 227 97 235 240 l3 55 -113 3 -113 3 3 -43 3 -43 50 -1 c60 -1 66 -14 32
-65 -78 -116 -247 -26 -247 131 0 110 98 211 180 185 12 -4 39 -23 61 -42 l38
-34 36 17 c47 22 50 29 25 64 -51 72 -184 109 -273 76z"/>
<path d="M30 305 l0 -265 135 0 135 0 0 45 0 45 -85 0 -86 0 3 68 3 67 80 1
80 2 0 43 0 44 -82 3 -83 3 0 54 0 54 83 3 82 3 3 48 3 47 -135 0 -136 0 0
-265z"/>
<path d="M550 305 l0 -265 55 0 55 0 0 97 0 97 58 -94 58 -95 67 -3 67 -3 -71
107 c-65 98 -70 108 -53 117 92 51 113 191 38 256 -43 39 -90 51 -191 51 l-83
0 0 -265z m187 153 c48 -45 20 -128 -43 -128 l-34 0 0 75 c0 75 0 75 27 75 15
0 37 -10 50 -22z"/>
<path d="M1127 563 c-4 -3 -7 -123 -7 -265 l0 -258 125 0 125 0 0 45 0 45 -75
0 -75 0 0 220 0 220 -43 0 c-24 0 -47 -3 -50 -7z"/>
<path d="M1749 543 c-5 -16 -21 -55 -33 -88 -13 -33 -49 -125 -80 -205 -31
-80 -63 -160 -71 -177 l-15 -33 58 0 57 0 21 53 22 52 88 0 89 0 24 -52 24
-53 54 0 c29 0 53 2 53 5 0 3 -15 45 -34 93 -18 48 -60 159 -91 247 -32 88
-62 166 -68 173 -5 6 -27 12 -48 12 -34 0 -41 -4 -50 -27z m81 -218 c13 -38
25 -76 28 -82 3 -10 -12 -13 -58 -13 -54 0 -61 2 -56 18 36 126 50 162 56 155
4 -4 18 -39 30 -78z"/>
<path d="M2237 563 c-4 -3 -7 -123 -7 -265 l0 -258 55 0 55 0 0 170 c0 94 3
170 8 170 4 -1 23 -23 42 -50 19 -26 78 -103 130 -169 91 -116 97 -121 133
-121 l37 0 0 265 0 265 -50 0 -50 0 0 -170 c0 -93 -4 -170 -8 -170 -5 0 -68
77 -141 170 -123 159 -134 170 -165 170 -18 0 -36 -3 -39 -7z"/>
</g>
</svg>
