<?xml version="1.0" encoding="UTF-8" standalone="no" ?>
<!DOCTYPE svg PUBLIC "-//W3C//DTD SVG 1.1//EN" "http://www.w3.org/Graphics/SVG/1.1/DTD/svg11.dtd">
<svg xmlns="http://www.w3.org/2000/svg" xmlns:xlink="http://www.w3.org/1999/xlink" version="1.1" width="256" height="256" viewBox="0 0 256 256" xml:space="preserve">
<rect width="256" height="256" rx="60" fill="#F4F2ED"/>
<g transform="matrix(0.7864124175 0 0 0.7864124175 128.3735365206 128)" id="VDm9pU6msH1MOP5XqDtns"  >
<g style=""   >
		<g transform="matrix(1.2548929 0 0 1.2548929 0.0002346213 1.1049327123)" id="Xq_LIF0SZ29pjTVf7qjEG"  >
<path style="stroke: none; stroke-width: 1; stroke-dasharray: none; stroke-linecap: butt; stroke-dashoffset: 0; stroke-linejoin: miter; stroke-miterlimit: 4; fill: rgb(128,128,242); fill-rule: nonzero; opacity: 1;"  transform=" translate(-147.4125, -130.3715)" d="M 97.021 99.016 L 145.453 71.054 C 146.665 70.354 148.159 70.354 149.371 71.054 L 197.804 99.016 C 199.01500000000001 99.71600000000001 199.763 101.009 199.763 102.409 L 199.763 158.333 C 199.763 159.732 199.01500000000001 161.026 197.804 161.727 L 149.371 189.689 C 148.15900000000002 190.38899999999998 146.66500000000002 190.38899999999998 145.453 189.689 L 97.021 161.727 C 95.809 161.02700000000002 95.062 159.733 95.062 158.333 L 95.062 102.40899999999999 C 95.063 101.00899999999999 95.81 99.716 97.021 99.01599999999999" stroke-linecap="round" />
</g>
		<g transform="matrix(1.2548929 0 0 1.2548929 -6.572e-7 -4.861e-7)" id="pXVLEuE6xWyXGVzoRKLei"  >
<path style="stroke: none; stroke-width: 1; stroke-dasharray: none; stroke-linecap: butt; stroke-dashoffset: 0; stroke-linejoin: miter; stroke-miterlimit: 4; fill: rgb(75,50,195); fill-rule: nonzero; opacity: 1;"  transform=" translate(-147.4123125111, -129.491)" d="M 273.336 124.488 L 215.46900000000002 23.816000000000003 C 213.36700000000002 20.176000000000002 209.484 17.491000000000003 205.28100000000003 17.491000000000003 L 89.54500000000003 17.491000000000003 C 85.34100000000004 17.491000000000003 81.45700000000004 20.176000000000002 79.35500000000003 23.816000000000003 L 21.488000000000035 124.266 C 19.386000000000035 127.90700000000001 19.386000000000035 132.502 21.488000000000035 136.143 L 79.35500000000003 235.99 C 81.45700000000004 239.63 85.34100000000004 241.491 89.54500000000003 241.491 L 205.28000000000003 241.491 C 209.48300000000003 241.491 213.36700000000002 239.686 215.46800000000002 236.04500000000002 L 273.33500000000004 136.03500000000003 C 275.439 132.39600000000002 275.439 128.12800000000001 273.336 124.48800000000003 M 225.419 172.89800000000002 C 225.419 174.37800000000001 224.52800000000002 175.747 223.245 176.48800000000003 L 149.53500000000003 219.01500000000004 C 148.25300000000001 219.75500000000005 146.64700000000002 219.75500000000005 145.36500000000004 219.01500000000004 L 71.59800000000004 176.48800000000006 C 70.31600000000005 175.74700000000004 69.41900000000004 174.37900000000005 69.41900000000004 172.89800000000005 L 69.41900000000004 87.84300000000005 C 69.41900000000004 86.36200000000005 70.30300000000004 84.99400000000004 71.58600000000004 84.25300000000004 L 145.29300000000003 41.72600000000004 C 146.57500000000005 40.98500000000004 148.17900000000003 40.98500000000004 149.46100000000004 41.72600000000004 L 223.23300000000006 84.25300000000004 C 224.51600000000005 84.99400000000004 225.41900000000007 86.36200000000004 225.41900000000007 87.84300000000005 z" stroke-linecap="round" />
</g>
</g>
</g>
</svg>