<?xml version="1.0" standalone="no"?>
<!DOCTYPE svg PUBLIC "-//W3C//DTD SVG 20010904//EN"
 "http://www.w3.org/TR/2001/REC-SVG-20010904/DTD/svg10.dtd">
<svg version="1.0" xmlns="http://www.w3.org/2000/svg"
 width="474.000000pt" height="376.000000pt" viewBox="0 0 474.000000 376.000000"
 preserveAspectRatio="xMidYMid meet">

<g transform="translate(0.000000,376.000000) scale(0.100000,-0.100000)"
fill="#000000" stroke="none">
<path d="M1954 3662 c1 -27 -3 -37 -14 -37 -8 0 -16 9 -18 20 -8 47 -13 51
-34 25 -11 -14 -43 -34 -71 -46 -51 -22 -52 -22 -78 -3 -15 10 -31 19 -36 19
-20 0 -278 -109 -873 -368 -363 -158 -474 -212 -460 -226 15 -15 12 -54 -6
-64 -13 -7 13 -32 125 -120 77 -62 148 -112 157 -112 10 0 14 -3 11 -7 -4 -3
0 -15 10 -25 36 -40 -4 -12 -163 116 l-167 134 -35 -15 c-19 -8 -43 -12 -53
-10 -25 7 -31 -17 -14 -57 24 -58 21 -66 -30 -66 -43 0 -46 2 -51 30 -7 35
-28 39 -44 9 -15 -27 -11 -31 131 -148 64 -53 171 -141 238 -196 67 -55 136
-110 154 -123 17 -13 48 -38 67 -56 19 -17 82 -69 140 -114 97 -77 146 -116
340 -277 40 -33 96 -78 124 -100 51 -39 181 -148 221 -184 11 -10 38 -31 60
-47 22 -16 58 -46 80 -66 22 -20 57 -49 77 -65 65 -50 388 -316 458 -376 13
-12 34 -29 46 -37 24 -17 128 -105 159 -135 12 -11 49 -42 84 -70 34 -27 79
-65 99 -83 56 -50 105 -72 159 -72 40 0 74 13 193 71 80 40 146 75 148 80 2 5
20 11 40 15 20 4 42 10 47 14 6 5 72 40 147 79 76 39 151 79 167 89 l31 19
-30 22 c-19 14 -30 30 -30 46 0 22 -9 30 -32 26 -4 0 -18 15 -32 35 -31 45
-102 99 -109 82 -4 -10 -7 -10 -18 0 -8 7 -14 18 -14 25 0 6 -17 20 -38 30
-106 50 -51 164 75 153 32 -2 72 2 101 11 45 15 63 33 32 33 -31 0 -13 26 30
43 25 11 45 23 45 29 0 5 10 2 22 -6 31 -22 61 -20 84 5 19 22 19 22 -8 15
-32 -7 -38 8 -9 23 13 7 17 18 13 37 -4 24 -3 26 19 19 23 -7 23 -7 -4 19 -21
19 -35 25 -50 20 -12 -4 -19 -3 -15 1 9 9 -32 55 -50 55 -11 0 -12 -3 -4 -13
12 -14 5 -57 -9 -57 -5 0 -6 6 -3 14 3 8 0 24 -6 36 -10 18 -9 24 1 31 21 13
-9 31 -41 24 -19 -4 -21 -3 -10 5 13 8 12 10 -3 10 -11 0 -15 5 -11 11 3 6 0
15 -7 20 -17 11 -29 11 -28 2 4 -25 -2 -63 -11 -63 -5 0 -7 6 -4 14 3 8 1 17
-5 21 -14 8 -14 45 -1 45 19 0 10 21 -15 32 -21 9 -32 8 -60 -5 -27 -13 -35
-14 -35 -4 0 7 16 21 36 30 l35 17 100 -77 c55 -43 132 -104 171 -135 75 -60
119 -69 52 -10 -39 34 -32 35 17 1 15 -11 35 -16 50 -13 18 4 20 3 10 -4 -11
-8 -7 -14 22 -26 20 -8 37 -20 37 -25 0 -6 6 -11 13 -11 7 0 26 -14 43 -31 37
-40 174 -142 181 -135 4 4 -35 37 -132 110 -17 14 -18 17 -5 26 21 14 30 12
24 -4 -9 -25 205 -190 233 -179 11 4 14 3 9 -5 -4 -7 -15 -12 -25 -12 -11 0
-21 -9 -24 -21 -5 -17 -11 -20 -29 -16 -20 5 -27 -1 -55 -53 -17 -33 -28 -60
-23 -60 4 0 10 3 12 8 2 4 28 19 58 34 525 256 488 240 508 225 9 -7 17 -6 25
2 9 10 8 11 -7 5 -34 -13 -8 15 35 36 74 38 53 71 -145 220 -163 123 -200 151
-221 162 -22 12 -22 12 33 -56 24 -30 23 -47 -3 -26 -13 11 -15 9 -15 -11 l-1
-24 -21 25 c-20 23 -21 24 -16 4 4 -16 -1 -25 -19 -33 -30 -14 -33 -14 -33 0
0 5 5 7 10 4 6 -3 10 2 10 11 0 26 39 64 59 56 14 -5 14 -4 2 11 -8 10 -21 15
-31 12 -23 -7 -35 31 -12 40 11 4 -1 18 -43 50 -32 25 -61 43 -64 39 -3 -3 11
-19 32 -36 37 -30 47 -48 25 -48 -6 0 -27 18 -46 41 -24 27 -37 37 -42 28 -4
-6 -13 -8 -19 -5 -14 9 -15 46 -1 46 21 0 8 18 -37 51 -72 52 -78 55 -50 17
27 -34 34 -58 20 -58 -5 0 -19 19 -32 42 l-24 43 -10 -28 c-5 -15 -12 -27 -16
-27 -9 0 -7 63 3 78 4 6 -42 48 -110 99 -167 127 -154 119 -164 102 -8 -11
-12 -11 -22 -1 -10 10 -10 14 0 21 10 6 3 15 -23 35 -22 17 -36 23 -34 15 3
-25 -1 -39 -10 -39 -5 0 -11 10 -13 22 -2 12 -8 23 -15 25 -7 3 -9 -3 -6 -16
3 -12 -3 -28 -15 -42 l-21 -22 3 29 c2 16 -4 44 -13 62 -12 27 -13 35 -2 41 9
6 -5 22 -48 55 -62 48 -77 49 -41 3 11 -14 20 -30 20 -36 0 -20 -17 -11 -28
15 -7 14 -17 22 -22 19 -6 -3 -10 3 -10 13 0 11 -8 23 -17 26 -15 6 -15 8 -3
16 13 8 12 12 -5 24 -11 8 -38 28 -59 45 -44 35 -58 35 -66 2 -3 -12 -9 -21
-15 -19 -12 4 -7 51 6 59 6 3 -14 24 -43 47 -29 22 -54 39 -56 37 -2 -2 4 -15
13 -29 9 -14 15 -33 13 -43 -3 -13 -11 -4 -27 29 -13 26 -27 45 -31 43 -4 -3
-13 2 -20 10 -9 10 -9 15 -1 15 22 0 9 16 -43 53 -30 20 -57 37 -60 37 -11 0
9 -36 33 -59 18 -17 22 -26 13 -29 -14 -4 -34 14 -70 66 -13 17 -18 32 -12 32
6 0 10 4 8 9 -3 9 -95 81 -103 81 -13 0 -3 -29 15 -45 21 -19 26 -50 10 -60
-5 -3 -10 2 -10 13 0 10 -9 27 -20 37 -28 26 -51 73 -37 78 6 2 -14 22 -43 45
-30 22 -56 39 -58 37 -3 -2 5 -19 17 -38 23 -37 25 -47 13 -47 -5 0 -17 17
-28 38 -10 20 -23 40 -29 44 -5 4 -10 13 -10 21 0 14 -93 92 -101 84 -2 -2 5
-15 16 -30 21 -27 26 -47 11 -47 -5 0 -17 20 -27 45 -13 34 -20 43 -29 35 -9
-8 -14 -6 -18 4 -3 8 -1 16 6 19 6 2 -8 18 -32 35 -41 30 -69 36 -43 10 14
-14 16 -38 4 -38 -4 0 -14 16 -21 36 -10 28 -17 35 -32 31 -20 -6 -28 18 -8
25 10 3 -82 78 -96 78 -3 0 2 -11 11 -25 9 -13 14 -30 12 -37 -3 -7 -12 1 -22
20 -17 33 -31 41 -38 20 -6 -17 -28 0 -28 22 0 10 6 21 13 24 8 3 2 14 -18 30
-29 25 -30 25 -33 6 -5 -29 -16 -25 -29 10 -6 17 -19 30 -28 30 -15 0 -15 -1
-1 -16 21 -20 21 -54 0 -54 -11 0 -14 -6 -9 -21 5 -15 4 -19 -5 -14 -7 4 -10
20 -7 39 2 17 0 42 -5 55 -6 17 -5 27 3 31 7 5 3 13 -12 24 -29 20 -39 20 -39
1 0 -28 -18 -15 -30 20 -16 48 -27 52 -26 7z m-74 -52 c0 -11 -4 -20 -10 -20
-5 0 -10 9 -10 20 0 11 5 20 10 20 6 0 10 -9 10 -20z m137 -152 c24 -18 108
-82 187 -143 80 -60 271 -204 425 -320 155 -115 281 -214 281 -220 0 -5 -26
-21 -58 -33 -31 -13 -64 -28 -72 -33 -28 -16 -131 -65 -290 -137 -25 -11 -94
-44 -155 -72 -60 -29 -144 -68 -185 -87 -41 -20 -117 -55 -168 -79 -51 -24
-96 -44 -100 -44 -19 0 -132 -66 -132 -77 0 -7 -4 -13 -10 -13 -5 0 -10 7 -10
16 0 12 -4 14 -12 6 -10 -7 -135 88 -467 354 -250 200 -459 368 -465 374 -15
15 9 34 94 70 119 51 855 377 960 425 52 24 104 44 114 44 10 1 39 -14 63 -31z
m203 -28 c-10 -6 -11 -10 -2 -10 18 0 15 -17 -7 -39 -24 -24 -33 -17 -24 18 6
26 20 41 38 41 6 0 3 -5 -5 -10z m100 -50 c0 -5 -4 -10 -10 -10 -5 0 -10 5
-10 10 0 6 5 10 10 10 6 0 10 -4 10 -10z m40 -40 c0 -16 -2 -30 -4 -30 -2 0
-6 14 -8 30 -3 17 -1 30 4 30 4 0 8 -13 8 -30z m-10 -64 c0 -3 -4 -8 -10 -11
-5 -3 -10 -1 -10 4 0 6 5 11 10 11 6 0 10 -2 10 -4z m150 -57 c0 -18 -2 -19
-15 -9 -8 7 -15 16 -15 21 0 5 7 9 15 9 9 0 15 -9 15 -21z m-25 -38 c3 -5 1
-12 -5 -16 -5 -3 -10 1 -10 9 0 18 6 21 15 7z m315 -191 c14 -26 5 -40 -25
-40 -34 0 -49 45 -17 53 30 8 31 7 42 -13z m140 -106 c18 -21 -9 -49 -39 -39
-23 7 -27 25 -9 43 16 16 33 15 48 -4z m-2562 -41 c5 -10 8 -43 8 -73 -1 -55
-1 -55 -34 -58 -35 -4 -62 11 -62 34 0 19 26 18 34 -2 5 -12 8 -13 20 -2 18
17 8 41 -15 35 -15 -4 -18 0 -15 16 3 12 5 32 5 45 1 17 7 22 26 22 13 0 28
-8 33 -17z m432 -33 c0 -5 -4 -10 -10 -10 -5 0 -10 5 -10 10 0 6 5 10 10 10 6
0 10 -4 10 -10z m-24 -67 c-4 -4 -11 -1 -17 7 -6 10 -8 -1 -5 -38 3 -48 2 -53
-19 -58 -22 -6 -72 13 -62 23 3 2 15 0 26 -7 20 -10 21 -8 21 49 0 38 4 61 13
64 15 6 54 -30 43 -40z m-284 -12 c-1 -13 2 -29 6 -35 33 -42 17 -96 -28 -96
-42 0 -79 43 -47 55 6 3 13 22 14 41 3 53 10 66 35 62 18 -2 22 -9 20 -27z
m2768 -37 c0 -25 -16 -15 -33 21 -9 20 -17 39 -17 43 1 13 50 -49 50 -64z
m-2441 -28 c0 -46 -3 -56 -19 -61 -11 -3 -30 0 -42 7 l-23 13 28 3 c28 3 29 6
25 48 -2 36 0 44 13 44 14 0 17 -11 18 -54z m2166 -7 c-4 -5 4 -13 17 -18 14
-6 17 -10 7 -10 -23 -1 -53 24 -45 38 4 6 12 9 17 5 5 -3 7 -10 4 -15z m-2098
-51 c4 -52 3 -56 -20 -60 -23 -5 -24 -3 -15 35 5 22 8 47 7 56 -2 26 0 33 12
29 7 -2 14 -29 16 -60z m2316 37 c-3 -9 -8 -14 -10 -11 -3 3 -2 9 2 15 9 16
15 13 8 -4z m-2563 -32 c8 -21 17 -42 19 -48 2 -5 -3 -4 -13 4 -15 13 -16 12
-6 -13 14 -39 13 -45 -14 -57 -30 -14 -96 15 -77 34 8 8 14 8 23 -1 18 -18 28
-15 28 9 0 16 -4 19 -21 14 -19 -6 -21 -4 -15 16 3 13 9 36 12 52 10 42 46 37
64 -10z m2315 -3 c3 -6 -1 -13 -10 -16 -19 -8 -30 0 -20 15 8 14 22 14 30 1z
m-1999 -52 c0 -29 -5 -56 -11 -60 -15 -11 -37 -10 -30 2 3 6 -4 11 -17 11
l-23 2 23 4 c19 4 22 11 22 49 0 36 3 44 19 44 16 0 19 -7 17 -52z m2374 38
c0 -3 -4 -8 -10 -11 -5 -3 -10 -1 -10 4 0 6 5 11 10 11 6 0 10 -2 10 -4z
m-2495 -26 c3 -5 -1 -10 -9 -10 -9 0 -16 5 -16 10 0 6 4 10 9 10 6 0 13 -4 16
-10z m2511 -28 c-9 -9 -19 -10 -37 -3 -23 9 -23 10 8 10 26 1 31 4 27 19 -5
14 -4 15 5 2 7 -11 7 -19 -3 -28z m-486 18 c0 -5 -5 -10 -11 -10 -5 0 -7 5 -4
10 3 6 8 10 11 10 2 0 4 -4 4 -10z m-1838 -5 c3 -3 2 -23 -2 -45 -4 -23 -3
-43 3 -49 14 -14 -16 -25 -48 -17 -28 7 -34 25 -7 22 14 -1 18 8 20 47 3 43
16 59 34 42z m123 -33 c-6 -7 -35 18 -35 31 0 5 9 2 20 -8 11 -10 18 -20 15
-23z m-375 3 c0 -8 -5 -15 -11 -15 -7 0 0 -12 15 -26 25 -25 37 -62 16 -49 -6
4 -9 -3 -7 -16 5 -46 -90 -57 -107 -13 -6 17 8 18 35 4 16 -9 19 -7 19 11 0
19 -2 20 -17 8 -15 -13 -16 -10 -9 40 4 30 9 58 12 63 9 15 54 9 54 -7z m2003
-6 c-11 -12 -26 -20 -33 -17 -17 5 16 38 38 38 14 0 13 -3 -5 -21z m307 16 c0
-2 -10 -9 -22 -15 -22 -11 -22 -10 -4 4 21 17 26 19 26 11z m-60 -35 c-8 -5
-19 -10 -25 -10 -5 0 -3 5 5 10 8 5 20 10 25 10 6 0 3 -5 -5 -10z m-1925 -10
c3 -5 3 -10 -2 -10 -4 0 -8 -21 -8 -47 0 -35 -4 -48 -16 -51 -12 -2 -15 7 -13
55 2 32 3 59 3 61 2 7 31 1 36 -8z m1763 -24 c1 -19 -2 -37 -8 -41 -7 -4 -9 2
-4 19 4 16 1 32 -6 41 -10 12 -10 15 2 15 9 0 15 -12 16 -34z m-1638 2 c0 -5
-9 -4 -20 2 -11 6 -20 12 -20 14 0 2 9 2 20 -1 11 -3 20 -9 20 -15z m1440 3
c0 -4 -23 -18 -50 -29 -57 -24 -58 -12 -2 18 42 22 52 24 52 11z m100 -51 c0
-30 -4 -40 -16 -40 -9 0 -12 5 -8 12 5 7 7 25 6 40 -1 15 2 28 8 28 5 0 10
-18 10 -40z m-1602 -30 c3 -49 -6 -69 -29 -70 -5 0 -4 104 0 128 1 2 6 2 13 0
7 -3 14 -28 16 -58z m1112 53 c-8 -3 -22 -11 -30 -17 -13 -10 -13 -9 -1 7 7 9
21 17 30 16 13 0 14 -1 1 -6z m-1356 -55 c-4 -6 0 -14 7 -19 12 -8 12 -11 -1
-20 -11 -8 -12 -12 -2 -16 19 -7 14 -41 -7 -53 -28 -14 -57 -13 -74 5 -8 8
-17 12 -20 9 -3 -3 -8 -1 -12 5 -3 6 1 11 9 11 16 0 21 12 32 73 8 48 33 64
56 36 10 -12 15 -26 12 -31z m409 -1 c16 -10 26 -21 24 -24 -8 -7 -77 47 -77
61 0 6 6 4 13 -4 7 -8 25 -23 40 -33z m1227 33 c0 -5 -5 -10 -11 -10 -5 0 -7
5 -4 10 3 6 8 10 11 10 2 0 4 -4 4 -10z m1150 -59 c0 -11 -3 -11 -17 0 -15 12
-16 12 -10 -3 7 -19 3 -23 -33 -31 -25 -6 -26 -5 -22 31 3 20 12 44 21 53 15
15 18 14 38 -10 13 -14 23 -32 23 -40z m-1493 43 c-3 -3 -12 -4 -19 -1 -8 3
-5 6 6 6 11 1 17 -2 13 -5z m461 -48 c3 -56 -8 -76 -31 -55 -11 11 -11 18 0
41 8 15 12 37 8 48 -4 13 -2 20 7 20 9 0 14 -18 16 -54z m923 11 c-8 -8 -11
-7 -11 4 0 20 13 34 18 19 3 -7 -1 -17 -7 -23z m-2368 -37 c1 -49 -1 -55 -20
-58 -20 -3 -21 0 -14 25 5 16 6 43 3 62 -4 27 -2 32 13 29 14 -2 18 -14 18
-58z m1187 31 c0 -11 -61 -43 -68 -36 -3 3 -3 6 -1 8 21 12 65 37 67 37 1 0 2
-4 2 -9z m159 -18 c1 -16 3 -39 4 -53 5 -38 -12 -54 -34 -34 -16 15 -17 18 -3
32 11 10 14 25 9 49 -4 24 -2 33 8 33 8 0 15 -12 16 -27z m680 -55 c44 -34 77
-66 75 -70 -7 -11 -52 -10 -59 2 -4 6 -11 8 -16 4 -9 -5 -55 25 -91 58 -7 8
-26 21 -41 31 -16 10 -26 21 -23 24 3 4 16 -2 28 -13 12 -10 18 -13 14 -6 -9
15 1 32 20 32 8 0 50 -28 93 -62z m-1956 -6 c-6 -62 -11 -74 -25 -70 -8 3 -11
23 -9 59 3 62 6 70 25 63 10 -4 12 -19 9 -52z m112 47 c11 -17 0 -20 -21 -4
-17 13 -17 14 -2 15 9 0 20 -5 23 -11z m2410 -34 c20 -25 35 -53 33 -62 -2
-13 -11 -7 -33 24 -17 24 -36 43 -42 43 -7 0 -13 2 -13 4 0 2 -3 11 -6 20 -13
33 24 15 61 -29z m-1341 -15 c7 -46 47 -89 83 -90 12 0 24 -6 27 -12 3 -8 19
2 43 30 39 43 64 51 86 30 10 -9 2 -21 -35 -56 -43 -40 -65 -74 -38 -57 6 3
10 0 10 -7 0 -8 9 -21 20 -31 11 -9 20 -25 20 -35 0 -22 19 -42 39 -42 11 0
10 4 -4 21 -19 20 -19 20 6 42 53 46 56 56 23 83 -16 14 -22 22 -14 18 8 -4
22 -13 31 -21 9 -8 20 -13 25 -12 27 5 52 -3 50 -15 -1 -8 -23 -35 -50 -61
-43 -43 -45 -47 -22 -43 40 8 31 -6 -19 -30 -64 -31 -82 -28 -76 11 0 4 -4 7
-9 7 -17 0 -120 -61 -120 -71 0 -5 -8 -10 -17 -10 -17 -1 -17 -2 0 -6 19 -5
21 -12 7 -33 -9 -13 -10 -13 -10 0 -1 9 -5 6 -10 -7 -11 -26 -30 -31 -30 -8 0
8 -5 15 -11 15 -5 0 -7 4 -4 10 4 6 -1 7 -11 3 -11 -4 -15 -2 -11 4 3 5 -15
20 -42 33 -55 25 -127 85 -113 94 5 3 7 27 4 54 -4 45 -2 49 24 61 20 9 24 15
15 20 -11 7 -11 13 0 32 7 13 12 36 11 52 -2 19 2 27 13 27 9 0 14 -4 10 -9
-3 -6 -3 -27 1 -49 6 -39 7 -39 35 -29 30 12 39 27 17 27 -9 0 -9 3 1 9 8 5
16 29 17 53 2 24 3 44 3 46 1 2 5 1 10 -2 4 -3 11 -24 15 -46z m-1414 8 c26
-43 25 -57 -6 -92 -24 -28 -26 -28 -62 -14 -33 12 -37 18 -37 49 -1 38 37 87
68 88 9 1 26 -14 37 -31z m110 2 c0 -5 -2 -10 -4 -10 -3 0 -8 5 -11 10 -3 6
-1 10 4 10 6 0 11 -4 11 -10z m300 -19 c19 -16 33 -32 30 -34 -3 -3 -23 10
-45 29 -22 18 -35 34 -30 34 6 0 26 -14 45 -29z m2300 15 c0 -3 -4 -8 -10 -11
-5 -3 -10 -1 -10 4 0 6 5 11 10 11 6 0 10 -2 10 -4z m-2408 -12 c3 -3 2 -20
-2 -38 -4 -18 -3 -40 2 -49 6 -12 3 -19 -11 -26 -24 -14 -27 -6 -23 64 4 50
16 68 34 49z m843 -14 c-9 -15 -55 -37 -95 -45 -31 -6 -29 -4 20 23 58 31 85
39 75 22z m1560 -10 c-3 -5 -11 -10 -16 -10 -6 0 -7 5 -4 10 3 6 11 10 16 10
6 0 7 -4 4 -10z m-2190 -65 c21 -16 43 -35 49 -41 6 -6 21 -16 34 -23 21 -11
30 -31 15 -31 -10 0 -67 45 -106 83 -16 15 -33 27 -38 27 -5 0 -9 2 -9 4 0 2
-3 13 -7 23 -6 16 -5 16 9 3 9 -8 33 -28 53 -45z m703 -13 c3 -63 -5 -76 -33
-49 -8 9 -10 19 -4 28 5 8 9 31 9 52 0 66 24 39 28 -31z m1532 25 c0 -5 -6 -7
-14 -4 -8 3 -17 3 -19 -1 -2 -4 -2 -1 0 6 1 8 3 21 3 30 1 15 3 14 15 -2 8
-11 15 -24 15 -29z m-2379 -32 c-3 -59 -6 -65 -32 -65 -16 0 -18 4 -10 18 11
20 11 22 11 68 0 28 4 35 17 32 14 -3 17 -12 14 -53z m-256 25 c-5 -15 -3 -18
9 -14 11 4 16 0 16 -14 0 -12 5 -24 10 -27 12 -8 13 -35 2 -35 -5 0 -14 10
-20 23 -9 20 -10 19 -10 -14 1 -50 -7 -61 -35 -47 -12 6 -29 14 -37 18 -24 11
-23 33 5 83 18 31 33 47 47 47 15 0 18 -5 13 -20z m2175 15 c0 -7 -57 -35 -72
-35 -7 0 3 8 22 19 37 20 50 24 50 16z m-1320 -20 c0 -9 -64 -45 -80 -45 -8 0
3 11 25 24 41 25 55 30 55 21z m150 -58 c0 -35 -3 -66 -6 -69 -3 -4 -15 3 -27
15 -13 13 -17 22 -9 25 7 2 12 23 12 48 0 32 4 44 15 44 12 0 15 -14 15 -63z
m-676 -16 c-2 -56 -9 -71 -31 -71 -13 0 -14 9 -8 58 8 66 11 73 28 66 8 -3 12
-22 11 -53z m579 -28 c7 -61 -9 -84 -36 -53 -9 11 -12 22 -7 25 6 4 10 23 10
44 0 74 24 63 33 -16z m1857 57 c0 -5 -5 -10 -11 -10 -5 0 -7 5 -4 10 3 6 8
10 11 10 2 0 4 -4 4 -10z m-2024 -15 c-11 -8 -27 -15 -35 -15 -10 1 -7 6 9 15
33 19 50 18 26 0z m-344 -50 c-2 -17 -8 -35 -13 -42 -7 -7 -6 -14 1 -18 19
-12 10 -25 -16 -25 -22 0 -24 2 -14 14 6 8 11 32 10 53 -3 53 -2 55 18 51 13
-2 16 -11 14 -33z m138 31 c0 -3 -4 -8 -10 -11 -5 -3 -10 -1 -10 4 0 6 5 11
10 11 6 0 10 -2 10 -4z m150 -5 c0 -9 -41 -23 -49 -16 -3 4 28 20 47 24 1 1 2
-3 2 -8z m2040 -1 c0 -5 -4 -10 -10 -10 -5 0 -10 5 -10 10 0 6 5 10 10 10 6 0
10 -4 10 -10z m-2581 -9 c7 -5 11 -17 7 -27 -3 -11 -2 -43 3 -72 8 -51 7 -53
-17 -59 -30 -7 -71 6 -84 27 -6 10 -4 27 7 50 43 92 52 101 84 81z m660 -28
c-1 -21 2 -46 6 -57 5 -12 3 -21 -6 -27 -9 -6 -15 -4 -17 5 -2 9 -11 12 -25 9
l-22 -6 23 22 c18 18 21 29 16 57 -5 28 -3 34 11 34 13 0 16 -8 14 -37z m1971
22 c-14 -17 -30 -20 -30 -6 0 5 8 12 18 14 9 3 19 5 21 6 2 0 -2 -6 -9 -14z
m-1048 -33 c10 -8 28 -12 41 -10 13 2 28 -1 35 -8 8 -9 1 -23 -34 -58 -25 -25
-55 -48 -66 -52 -16 -5 -18 -8 -7 -15 11 -7 10 -11 -6 -23 -26 -20 -49 -20
-65 -1 -16 19 -4 35 27 35 20 0 23 3 14 14 -9 11 -6 17 14 30 14 9 31 14 37
10 7 -4 8 -3 4 4 -4 7 -3 20 3 29 8 14 4 25 -17 47 -26 28 -14 27 20 -2z
m-1152 4 c0 -24 -18 -28 -30 -6 -9 17 -8 20 10 20 11 0 20 -6 20 -14z m1528
-4 c10 -7 10 -15 -1 -42 -9 -19 -17 -28 -21 -21 -4 6 -4 16 -1 22 7 11 -44 -9
-91 -35 -24 -14 -25 -16 -5 -10 16 4 21 3 17 -5 -4 -6 -13 -11 -21 -11 -7 0
-16 -6 -18 -12 -4 -10 -8 -10 -15 0 -8 12 -14 11 -39 -1 -28 -15 -32 -14 -61
6 -18 12 -32 26 -32 30 0 5 14 -1 31 -13 l30 -22 105 48 c69 32 103 53 100 61
-6 15 3 17 22 5z m-1634 -10 c3 -4 1 -25 -4 -45 -4 -22 -4 -39 1 -43 14 -8 1
-24 -19 -24 -9 0 -26 8 -37 17 -15 12 -16 14 -3 10 19 -7 28 11 28 59 0 23 5
34 14 34 8 0 17 -4 20 -8z m2376 -6 c0 -3 -4 -8 -10 -11 -5 -3 -10 -1 -10 4 0
6 5 11 10 11 6 0 10 -2 10 -4z m90 -29 c0 -25 -26 -67 -41 -67 -13 0 -11 18 8
61 17 40 33 43 33 6z m-747 -28 c1 -4 -1 -7 -5 -8 -5 -1 -8 1 -8 5 1 3 -9 14
-22 25 -13 11 -18 18 -11 15 6 -4 15 -1 19 6 6 10 17 -8 27 -43z m306 27 c10
-12 8 -17 -9 -26 -24 -13 -43 -4 -21 9 7 5 10 14 7 20 -10 16 9 13 23 -3z
m-1358 -33 l24 -27 -32 23 c-33 23 -40 31 -25 31 5 0 19 -12 33 -27z m1259 17
c0 -6 11 -22 25 -36 25 -25 25 -50 0 -40 -7 2 -17 0 -23 -6 -18 -18 -32 2 -32
48 0 32 4 44 15 44 8 0 15 -5 15 -10z m-2116 -35 c-3 -14 -2 -31 3 -38 5 -6 9
-30 8 -52 0 -34 -3 -40 -20 -37 -11 1 -30 4 -43 5 -26 2 -39 32 -21 53 10 12
9 13 -7 8 -17 -5 -17 -4 -2 5 9 6 22 27 28 46 9 27 17 35 36 35 21 0 24 -3 18
-25z m1760 7 c6 -10 -22 -47 -30 -40 -3 4 -3 16 1 27 6 21 20 27 29 13z m-504
-24 c0 -13 -23 -5 -28 10 -2 7 2 10 12 6 9 -3 16 -11 16 -16z m-949 -19 c-60
-28 -65 -28 -83 -13 -23 22 -17 29 11 13 17 -11 27 -10 63 8 24 12 50 22 58
22 8 0 -14 -14 -49 -30z m659 -31 c0 -11 -50 23 -71 48 -8 10 5 5 29 -11 23
-15 42 -32 42 -37z m1065 19 c13 4 16 3 11 -5 -12 -20 -34 -14 -68 19 l-33 31
36 -26 c24 -17 43 -24 54 -19z m-765 -18 c0 -5 -6 -10 -12 -11 -7 0 -17 -2
-23 -3 -5 -2 -23 -3 -38 -4 -16 0 -26 -5 -23 -10 9 -14 -66 -40 -86 -30 -25
13 -11 37 25 45 18 3 43 14 57 24 14 9 32 19 40 22 16 5 60 -19 60 -33z m-333
-24 c-7 -20 -45 -17 -52 4 -6 21 -27 21 -64 1 -24 -12 -26 -21 -10 -37 13 -13
-36 -54 -57 -46 -10 4 -14 -2 -14 -20 0 -20 -4 -24 -19 -20 -39 10 -31 31 22
62 31 18 44 31 33 31 -30 0 0 28 58 55 l50 23 28 -21 c16 -12 27 -26 25 -32z
m363 10 c0 -8 -150 -75 -164 -74 -11 1 142 78 157 79 4 0 7 -2 7 -5z m1674
-41 c24 -28 35 -49 29 -55 -10 -10 -56 46 -56 68 0 7 -5 13 -11 12 -24 -3 -37
2 -31 11 12 19 31 9 69 -36z m-2824 21 c9 -10 9 -15 1 -15 -19 0 -10 -78 12
-101 16 -17 17 -23 6 -30 -19 -12 -66 -11 -90 1 -23 13 -25 43 -4 60 9 7 14
19 11 26 -3 7 -1 16 4 19 6 4 10 15 10 25 0 16 11 27 31 29 4 1 12 -6 19 -14z
m896 -26 c4 -8 1 -8 -14 0 -12 6 -24 16 -28 22 -4 8 -1 8 14 0 12 -6 24 -16
28 -22z m1084 12 c0 -5 3 -16 6 -25 8 -21 -11 -20 -36 1 -19 16 -19 18 -3 25
25 10 33 9 33 -1z m-1390 -6 c0 -2 -13 -11 -30 -20 -16 -9 -30 -12 -30 -8 0 5
10 13 23 19 25 13 37 16 37 9z m253 -9 c25 -19 22 -25 -25 -46 -47 -21 -73
-25 -63 -11 3 5 1 13 -5 16 -19 12 10 35 42 35 17 0 27 4 23 10 -9 14 7 12 28
-4z m1442 -13 c-28 -20 -41 -16 -19 6 10 10 23 16 28 13 5 -3 1 -11 -9 -19z
m255 3 l25 -14 -37 -7 c-40 -8 -61 -26 -77 -68 -9 -24 -7 -31 17 -57 22 -25
35 -30 76 -32 40 -1 52 3 68 21 10 13 18 38 18 57 0 19 3 34 6 34 10 0 99 -71
107 -87 7 -12 3 -14 -25 -11 -31 3 -33 1 -36 -32 -3 -32 -15 -49 -34 -50 -15
0 -8 33 10 46 9 7 12 14 5 14 -6 0 -15 -4 -18 -10 -3 -5 -15 -10 -26 -10 -10
0 -19 -6 -19 -14 0 -23 -20 -29 -39 -12 -10 9 -23 16 -30 16 -13 0 -94 51 -99
63 -2 4 -8 4 -13 1 -12 -7 -69 15 -69 27 0 5 5 9 11 9 7 0 6 9 -4 23 -15 23
-14 24 51 52 37 16 73 35 80 42 16 16 21 16 52 -1z m-1369 -42 c32 -26 59 -49
59 -51 0 -2 -34 -19 -75 -38 -41 -18 -75 -37 -75 -42 1 -8 18 -23 65 -58 20
-15 20 -15 1 -30 -11 -8 -15 -15 -8 -15 6 0 9 -6 6 -14 -3 -8 4 -16 18 -20 23
-6 23 -7 3 -21 -23 -18 -41 -14 -39 8 1 8 -4 14 -10 12 -6 -2 -24 -6 -39 -10
-20 -4 -27 -10 -23 -20 6 -17 -9 -20 -19 -4 -9 14 -57 3 -122 -28 -29 -14 -58
-23 -65 -20 -7 2 11 15 41 27 l54 24 -38 33 c-21 18 -41 31 -44 27 -3 -3 -1
-8 4 -12 6 -4 17 -16 25 -26 14 -18 13 -18 -8 -12 -18 6 -22 4 -22 -13 0 -12
-4 -21 -10 -21 -5 0 -10 7 -10 16 0 8 -5 12 -11 9 -5 -4 -18 0 -28 9 -10 9
-25 14 -34 11 -8 -4 -18 -1 -23 6 -5 9 -2 10 12 6 11 -4 4 5 -15 21 l-34 29
24 16 c13 10 29 17 36 17 7 0 13 5 13 11 0 7 -9 9 -22 5 -13 -4 -32 -9 -43
-11 l-20 -4 20 15 c39 29 63 28 101 -5 19 -17 39 -29 43 -27 5 3 21 10 36 16
27 10 27 12 11 28 -11 11 -19 13 -24 7 -11 -17 -52 -16 -45 1 3 8 12 14 20 14
12 0 13 3 4 14 -9 11 -9 15 1 18 7 3 17 -5 23 -16 6 -12 21 -23 35 -24 21 -3
22 -2 11 12 -17 20 -6 36 24 36 26 0 41 15 26 24 -5 4 -21 2 -35 -4 -33 -12
-32 -9 1 29 15 17 37 31 48 30 19 0 19 -1 -2 -11 -31 -15 -29 -28 7 -41 17 -6
30 -15 30 -19 0 -4 10 -12 21 -19 20 -10 21 -9 17 20 -2 17 0 32 6 35 6 2 3 7
-8 11 -13 6 -21 3 -28 -8 -10 -19 -38 -23 -38 -7 0 6 6 13 14 16 8 3 12 12 9
21 -5 13 -3 13 16 4 16 -9 32 -9 62 -1 39 11 41 13 25 28 -14 14 -18 15 -25 3
-7 -10 -10 -10 -16 -1 -6 10 9 29 23 30 2 0 30 -21 63 -46z m1033 22 c3 -13
16 -27 28 -30 22 -7 21 -8 -10 -24 -32 -15 -35 -15 -46 0 -15 21 -9 78 9 78 7
0 16 -11 19 -24z m556 14 c0 -5 -4 -10 -10 -10 -5 0 -10 5 -10 10 0 6 5 10 10
10 6 0 10 -4 10 -10z m30 -10 c0 -11 -4 -20 -10 -20 -5 0 -10 9 -10 20 0 11 5
20 10 20 6 0 10 -9 10 -20z m-2278 -12 c-9 -9 -7 -14 6 -24 9 -8 13 -13 7 -13
-5 0 -18 6 -29 14 -20 15 -14 35 12 35 12 0 13 -3 4 -12z m448 -9 c0 -5 -11
-9 -25 -9 -14 0 -25 -4 -25 -10 0 -5 -9 -10 -20 -10 -12 0 -20 7 -20 16 0 10
6 14 15 10 8 -3 20 1 27 8 13 14 48 10 48 -5z m1790 7 c0 -3 -4 -8 -10 -11 -5
-3 -10 -1 -10 4 0 6 5 11 10 11 6 0 10 -2 10 -4z m-2012 -23 c2 -7 -3 -13 -12
-13 -8 0 -19 -8 -25 -17 -8 -14 -12 -15 -25 -4 -22 18 -20 30 7 41 28 11 49 9
55 -7z m1581 -7 c9 -11 6 -12 -14 -8 -14 2 -25 8 -25 13 0 14 26 11 39 -5z
m491 -16 c-19 -12 -40 -13 -40 0 0 5 8 13 18 19 22 13 44 -5 22 -19z m-2759 4
c12 -14 11 -16 -5 -13 -11 2 -21 10 -24 17 -5 17 13 15 29 -4z m2910 -6 c7
-13 23 -33 37 -46 17 -17 21 -27 14 -34 -8 -8 -18 -2 -35 18 -30 34 -43 28
-23 -10 19 -37 10 -66 -20 -66 -13 0 -24 5 -24 10 0 6 5 10 10 10 7 0 9 14 5
38 -17 107 -17 102 4 102 11 0 26 -10 32 -22z m-2814 -23 c1 -17 5 -45 9 -63
8 -42 -9 -62 -52 -62 -28 0 -35 4 -40 26 -4 14 -2 29 3 33 5 3 13 21 16 40 13
65 60 84 64 26z m2156 19 c9 -4 17 -11 17 -16 0 -5 -6 -8 -12 -5 -7 2 -18 -2
-23 -10 -15 -20 -59 -25 -81 -9 -19 14 -19 15 0 22 12 5 21 3 24 -4 4 -14 42
-16 42 -3 0 5 -8 12 -17 15 -15 6 -15 8 -3 16 8 5 20 8 25 5 6 -3 18 -8 28
-11z m-1475 -20 c12 -8 22 -18 22 -23 0 -4 -36 -24 -80 -46 -78 -38 -80 -38
-100 -20 -11 10 -20 13 -20 7 0 -7 -9 -12 -20 -12 -11 0 -20 6 -20 13 0 16 56
21 65 6 9 -13 42 -11 51 3 5 8 0 9 -15 5 -15 -3 -26 1 -36 16 -14 21 -13 22
22 35 37 13 66 12 108 -4 20 -7 20 -7 1 14 -22 26 -10 29 22 6z m1132 -24 c0
-5 -4 -10 -10 -10 -5 0 -10 5 -10 10 0 6 5 10 10 10 6 0 10 -4 10 -10z m-732
-40 c7 -11 9 -20 4 -20 -10 0 -32 22 -32 32 0 15 15 8 28 -12z m-938 -28 c0
-4 -5 -13 -10 -18 -7 -7 -7 -21 1 -43 9 -25 16 -31 30 -28 11 3 19 1 19 -4 0
-19 -2 -24 -11 -21 -5 1 -9 -6 -9 -17 0 -37 -81 -34 -106 4 -13 20 -12 27 13
78 22 44 33 57 50 57 13 0 23 -4 23 -8z m979 -33 c-29 -18 -44 -9 -19 11 15
11 26 15 29 8 2 -6 -3 -14 -10 -19z m-579 -9 c0 -5 -7 -10 -16 -10 -8 0 -12 5
-9 10 3 6 10 10 16 10 5 0 9 -4 9 -10z m610 -10 c-24 -15 -36 -11 -14 4 10 8
21 12 24 10 2 -3 -2 -9 -10 -14z m-96 -9 c9 -14 -17 -29 -39 -21 -19 7 -19 7
0 18 24 14 32 15 39 3z m136 -1 c0 -5 -9 -14 -20 -20 -22 -12 -27 -1 -8 18 14
14 28 16 28 2z m1415 -10 c-3 -5 -11 -10 -16 -10 -6 0 -7 5 -4 10 3 6 11 10
16 10 6 0 7 -4 4 -10z m-2067 -12 c-5 -15 -48 -24 -48 -10 0 14 12 22 33 22
10 0 17 -5 15 -12z m669 -15 c-9 -9 -20 -14 -24 -10 -3 4 2 14 13 21 25 19 33
10 11 -11z m-117 -13 c0 -5 -4 -10 -10 -10 -5 0 -10 5 -10 10 0 6 5 10 10 10
6 0 10 -4 10 -10z m150 -10 c-24 -15 -36 -11 -14 4 10 8 21 12 24 10 2 -3 -2
-9 -10 -14z m-955 1 c3 -5 1 -12 -5 -16 -13 -8 -13 -65 0 -65 6 0 10 -11 10
-25 0 -14 6 -25 13 -25 6 0 3 -7 -8 -16 -20 -15 -68 -11 -92 8 -19 15 -17 68
2 68 9 0 15 6 14 13 -4 25 21 67 40 67 11 0 22 -4 26 -9z m860 -12 c11 -17 -1
-21 -15 -4 -8 9 -8 15 -2 15 6 0 14 -5 17 -11z m-27 -37 c-2 -9 -13 -18 -26
-20 -28 -4 -28 -8 6 -38 15 -14 21 -22 13 -19 -10 6 -11 2 -7 -13 5 -15 2 -22
-14 -27 -21 -7 -39 2 -95 49 -25 21 -26 24 -8 20 17 -5 21 -2 17 13 -3 12 3
22 21 30 14 6 27 7 31 2 3 -5 12 -9 20 -9 11 0 12 4 5 19 -6 10 -8 21 -4 24
11 11 44 -14 41 -31z m83 -9 c25 -16 36 -30 30 -36 -5 -5 -17 -1 -30 12 -24
24 -46 28 -38 7 4 -10 1 -13 -9 -9 -8 3 -13 12 -10 19 3 8 0 14 -7 14 -8 0 -6
4 3 10 19 13 15 14 61 -17z m1292 9 c-6 -14 -25 -12 -30 4 -2 5 5 10 16 10 11
0 17 -5 14 -14z m-1148 -22 c4 -6 16 -8 27 -4 14 4 18 2 14 -5 -4 -6 -13 -11
-19 -11 -16 1 -54 30 -40 30 7 0 15 -5 18 -10z m-1015 -24 c0 -2 3 -11 6 -20
9 -23 -9 -20 -24 4 -10 17 -10 20 3 20 8 0 15 -2 15 -4z m106 -28 c4 -6 2 -14
-4 -16 -14 -4 -16 -36 -3 -60 4 -9 11 -29 15 -43 5 -23 2 -28 -18 -33 -49 -12
-110 33 -75 55 8 5 10 9 6 9 -5 0 -1 10 7 22 9 12 16 32 16 44 0 20 10 28 42
33 4 0 10 -4 14 -11z m389 -54 c28 -25 37 -36 20 -25 -43 28 -90 71 -79 71 5
0 32 -21 59 -46z m102 16 c-4 -16 1 -22 26 -28 l32 -9 -33 -17 c-40 -21 -46
-17 -44 29 1 46 0 45 13 45 6 0 9 -9 6 -20z m54 7 c-1 -12 -15 -9 -19 4 -3 6
1 10 8 8 6 -3 11 -8 11 -12z m499 -56 c0 -11 3 -27 7 -37 5 -13 3 -15 -7 -9
-10 6 -12 4 -7 -8 9 -23 -5 -21 -36 3 l-26 20 22 24 c27 29 47 32 47 7z m-210
-16 l25 -14 -28 -1 c-58 0 -107 -44 -107 -95 0 -7 11 -27 25 -43 22 -26 30
-29 77 -27 29 1 56 3 59 4 15 3 31 63 25 92 -7 35 -3 34 67 -24 55 -45 61 -67
17 -67 -17 0 -42 -7 -55 -16 -21 -14 -41 -21 -67 -23 -5 -1 -8 -8 -8 -16 0
-18 -21 -20 -38 -3 -10 10 -17 10 -31 1 -15 -9 -29 -2 -92 46 -62 48 -74 62
-71 83 3 29 0 32 -43 42 l-30 8 23 -20 c12 -11 22 -22 22 -26 0 -13 -36 -5
-59 13 l-24 18 26 18 c17 11 36 15 52 11 20 -5 23 -3 18 10 -5 14 -3 15 15 5
11 -6 23 -15 26 -20 5 -8 91 30 110 49 14 14 36 12 66 -5z m-694 -16 c3 -6 1
-15 -7 -20 -10 -6 -11 -14 -3 -36 6 -15 15 -27 21 -26 14 3 0 -61 -17 -82 -19
-23 -31 -19 -85 30 l-50 44 43 -11 c23 -6 42 -15 42 -21 0 -6 3 -7 8 -3 14 15
8 31 -17 42 l-24 11 21 12 c13 7 19 17 16 26 -12 30 35 60 52 34z m1054 -115
c5 -43 3 -54 -7 -52 -8 2 -14 6 -14 11 1 4 1 30 1 59 0 65 12 55 20 -18z
m-130 36 c0 -5 -7 -7 -15 -4 -8 4 -15 8 -15 10 0 2 7 4 15 4 8 0 15 -4 15 -10z
m-856 -19 c3 -4 3 -11 0 -14 -8 -8 -34 3 -34 14 0 11 27 12 34 0z m84 -40 c3
-8 0 -11 -7 -7 -18 11 -13 -21 10 -65 25 -50 19 -69 -21 -69 -40 0 -70 16 -70
37 0 15 2 15 18 0 24 -22 32 -21 32 4 0 11 -4 17 -10 14 -6 -4 -17 -2 -25 5
-11 9 -11 15 0 38 8 15 16 35 19 45 7 21 47 20 54 -2z m302 -31 c-18 -11 -22
-7 105 -110 64 -52 106 -79 118 -76 22 5 23 -10 1 -18 -19 -7 -19 -8 -158 104
-92 75 -103 87 -89 98 9 6 22 12 27 12 6 0 4 -5 -4 -10z m370 -35 c0 -12 -28
-35 -44 -35 -12 0 -6 38 7 43 23 10 37 7 37 -8z m270 -5 c8 -5 11 -12 7 -16
-4 -4 -15 0 -24 9 -18 18 -8 23 17 7z m-900 -15 c0 -8 -2 -15 -4 -15 -2 0 -6
7 -10 15 -3 8 -1 15 4 15 6 0 10 -7 10 -15z m107 -46 c0 -13 4 -41 8 -61 12
-63 -28 -88 -76 -49 -22 18 -23 20 -9 62 25 73 73 104 77 48z m602 10 c-22
-14 -33 -10 -19 6 7 8 17 12 22 9 6 -4 5 -10 -3 -15z m-125 -78 c13 -14 14
-21 5 -27 -7 -4 -18 1 -26 11 -26 36 -9 49 21 16z m-304 -83 c0 -17 -3 -18
-15 -8 -19 16 -19 1 -1 -35 16 -31 8 -68 -16 -73 -8 -2 -27 2 -42 8 -30 11
-31 19 -10 118 9 44 42 59 67 30 9 -11 17 -29 17 -40z m33 -42 c4 -10 1 -13
-9 -9 -15 6 -19 23 -5 23 5 0 11 -7 14 -14z"/>
<path d="M1724 2389 c-30 -33 41 -55 82 -25 16 12 17 17 6 28 -18 18 -70 16
-88 -3z"/>
<path d="M440 2640 c0 -5 5 -10 10 -10 6 0 10 5 10 10 0 6 -4 10 -10 10 -5 0
-10 -4 -10 -10z"/>
<path d="M855 2329 c-10 -15 3 -25 16 -12 7 7 7 13 1 17 -6 3 -14 1 -17 -5z"/>
<path d="M3650 2401 c0 -6 4 -13 10 -16 6 -3 7 1 4 9 -7 18 -14 21 -14 7z"/>
<path d="M1120 2132 c0 -12 23 -32 37 -32 9 0 8 6 -4 20 -18 21 -33 26 -33 12z"/>
<path d="M1403 1884 c-7 -18 11 -39 26 -30 17 11 13 46 -4 46 -9 0 -18 -7 -22
-16z"/>
<path d="M1540 1770 c0 -13 28 -25 38 -16 3 4 0 11 -8 16 -20 13 -30 12 -30 0z"/>
<path d="M2740 1741 c-8 -6 -18 -7 -22 -5 -4 3 -8 -1 -8 -10 0 -8 -4 -16 -10
-18 -5 -1 -6 -9 -1 -16 6 -10 18 -8 55 8 41 17 46 23 36 35 -14 17 -29 19 -50
6z"/>
<path d="M2548 1604 c21 -15 32 -42 12 -29 -6 4 -18 1 -27 -7 -13 -10 -17 -10
-20 -1 -4 10 -10 10 -25 2 -19 -10 -19 -11 -1 -28 62 -56 102 -77 84 -43 -7
14 -6 25 5 40 14 20 17 21 39 6 18 -12 24 -12 28 -2 7 19 -62 78 -92 78 l-25
0 22 -16z"/>
<path d="M2684 1585 c18 -13 15 -19 -6 -16 -4 0 -12 -7 -17 -17 -12 -22 2 -48
19 -37 9 6 9 9 0 15 -7 4 0 12 19 20 17 7 31 15 31 19 0 14 -25 31 -44 31 -21
-1 -21 -1 -2 -15z"/>
<path d="M2600 1505 c-14 -16 -3 -20 19 -6 8 5 9 11 3 15 -5 3 -15 -1 -22 -9z"/>
<path d="M1690 1646 c0 -21 21 -31 31 -15 14 22 11 29 -11 29 -11 0 -20 -6
-20 -14z"/>
<path d="M1828 1543 c-5 -23 1 -53 12 -53 15 0 20 45 6 58 -11 11 -14 11 -18
-5z"/>
<path d="M1971 1406 c-8 -9 -11 -19 -7 -23 9 -9 29 13 24 27 -2 8 -8 7 -17 -4z"/>
<path d="M2785 1430 c3 -5 11 -10 16 -10 6 0 7 5 4 10 -3 6 -11 10 -16 10 -6
0 -7 -4 -4 -10z"/>
<path d="M2801 1384 c-21 -15 -21 -17 -4 -30 25 -19 30 -17 35 11 7 33 -3 38
-31 19z"/>
<path d="M2576 943 c-11 -12 -6 -41 9 -47 11 -4 15 1 15 19 0 25 -12 39 -24
28z"/>
<path d="M2720 760 c0 -17 2 -19 14 -8 14 13 12 28 -5 28 -5 0 -9 -9 -9 -20z"/>
<path d="M190 2875 c0 -8 2 -15 4 -15 2 0 6 7 10 15 3 8 1 15 -4 15 -6 0 -10
-7 -10 -15z"/>
<path d="M116 2629 c7 -69 10 -76 43 -106 20 -17 48 -35 64 -38 16 -4 27 -13
27 -24 0 -31 81 -91 112 -83 4 1 17 -18 29 -43 22 -43 55 -65 100 -65 11 0 19
-7 19 -17 1 -34 72 -93 113 -93 14 0 47 -60 47 -88 0 -15 2 -15 10 -2 6 9 10
11 10 3 0 -7 6 -10 14 -7 8 3 17 1 21 -5 3 -6 17 -11 31 -11 16 0 24 -6 24
-17 1 -33 63 -88 109 -95 12 -1 21 -5 19 -8 -2 -3 8 -20 20 -38 26 -35 69 -62
102 -62 12 0 20 -7 20 -17 0 -20 42 -73 57 -73 6 0 16 -7 23 -15 7 -8 23 -15
36 -15 17 0 24 -6 24 -18 0 -33 77 -92 119 -92 13 0 21 -7 21 -17 0 -10 7 -26
14 -35 20 -27 85 -68 106 -68 12 0 20 -7 20 -17 0 -10 8 -27 18 -39 21 -26 84
-64 105 -64 8 0 18 -11 21 -25 8 -30 80 -85 113 -85 15 0 23 -6 23 -17 0 -10
6 -25 13 -33 21 -27 81 -68 110 -75 15 -4 27 -14 27 -24 0 -9 6 -23 13 -31 19
-24 91 -70 109 -70 9 0 19 -11 22 -25 8 -30 91 -95 122 -95 19 0 24 -5 24 -25
0 -29 81 -94 118 -95 15 0 22 -6 22 -19 0 -26 98 -111 127 -111 16 0 23 -6 23
-19 0 -27 107 -113 131 -106 14 5 19 1 19 -13 0 -26 95 -112 124 -112 12 0 40
9 61 21 22 12 54 28 70 37 17 8 32 16 34 18 5 4 1 187 -4 192 -2 2 -17 -3 -33
-12 -45 -23 -115 -46 -124 -40 -5 3 -28 7 -52 8 -52 3 -68 15 -440 326 -148
124 -288 241 -311 260 -217 180 -352 294 -361 306 -6 8 -15 14 -19 14 -4 0
-35 24 -69 53 -71 63 -76 66 -181 149 -44 35 -86 69 -94 76 -13 13 -178 149
-251 207 -136 108 -240 199 -240 208 0 6 -3 7 -6 4 -4 -3 -34 17 -68 46 -33
29 -86 72 -116 95 -30 23 -78 61 -107 85 -55 46 -300 244 -321 260 -10 8 -11
-5 -6 -64z"/>
<path d="M415 2270 c-3 -5 -1 -10 4 -10 6 0 11 5 11 10 0 6 -2 10 -4 10 -3 0
-8 -4 -11 -10z"/>
<path d="M940 1834 c0 -8 5 -12 10 -9 6 4 8 11 5 16 -9 14 -15 11 -15 -7z"/>
<path d="M3635 1640 c-3 -5 -2 -10 4 -10 5 0 13 5 16 10 3 6 2 10 -4 10 -5 0
-13 -4 -16 -10z"/>
<path d="M3798 1563 c-10 -2 -18 -8 -18 -12 0 -10 31 -36 52 -44 27 -9 40 16
22 41 -15 22 -23 24 -56 15z"/>
<path d="M4515 1441 c-102 -54 -131 -74 -133 -92 -3 -13 4 -29 16 -38 11 -9
36 -29 55 -44 l36 -29 86 42 85 43 0 78 c0 42 3 84 6 93 11 28 -17 18 -151
-53z"/>
<path d="M4040 1480 c6 -11 16 -20 22 -20 6 0 3 9 -7 20 -10 11 -20 20 -22 20
-2 0 1 -9 7 -20z"/>
<path d="M3968 1421 c-21 -10 -46 -25 -56 -34 -10 -9 -21 -14 -24 -11 -3 3
-81 -31 -172 -75 -92 -45 -179 -81 -196 -81 -38 0 -41 -8 -26 -59 15 -53 31
-62 83 -51 38 9 161 69 193 95 8 7 23 15 33 18 9 4 17 16 17 27 0 11 8 24 18
27 9 4 19 10 22 13 9 13 50 22 50 11 0 -6 5 -11 10 -11 6 0 8 11 4 26 -6 22
-4 25 12 20 11 -3 24 -2 30 2 15 10 54 74 54 90 0 15 -6 14 -52 -7z"/>
<path d="M3758 1366 c-74 -35 -104 -57 -48 -34 51 22 137 67 125 67 -5 0 -40
-15 -77 -33z"/>
<path d="M3411 1381 c-12 -8 -10 -15 10 -39 28 -36 40 -39 62 -14 16 17 15 20
-6 40 -25 24 -44 27 -66 13z"/>
<path d="M3640 1305 c-14 -8 -20 -14 -14 -15 5 0 19 7 30 15 24 18 16 19 -16
0z"/>
<path d="M3575 1270 c-3 -6 1 -7 9 -4 18 7 21 14 7 14 -6 0 -13 -4 -16 -10z"/>
</g>
</svg>
