<svg vwidth="256" height="256" viewBox="0 0 256 256" fill="none" xmlns="http://www.w3.org/2000/svg">
<rect width="256" height="256" rx="60" fill="#F4F2ED"/>
<path d="M124.7,39c-10.5,6.1-22,12.8-25.5,14.8l-6.3,3.7l-25.3,49.9c-19.4,38.3-25.2,50.2-24.8,50.8 c0.6,0.9,4.2,3.3,10.3,6.7l3.1,1.7l10.4-6c5.7-3.3,17.4-10.2,26-15.2s15.8-9.1,16.1-9.1c0.4,0,4.8,10.2,28.2,66.2l6,14.2l7.8,4.8 c4.3,2.6,8.3,5.1,8.8,5.6c0.4,0.4,1.3,0.8,1.9,0.8s7.2-3.7,14.8-8.1c7.6-4.4,18.4-10.7,24-13.8c12.2-7,13.2-7.7,13.2-8.9c0-1.1-15.3-48.2-16.2-50c-0.6-1.1-1.2-1.2-5-1.2c-14.9,0-27.7-10.3-30.8-24.7c-2.5-12.1,1.8-23.7,11.9-31.6c3.4-2.6,3.7-3,3.4-4.7c-0.2-1-3.7-12.2-7.9-25.1l-7.7-23.3l-7.8-4.3c-4.2-2.4-8.1-4.3-8.5-4.3C144.2,28,135.2,33,124.7,39z M149.6,35.3c2.6,1.4,4.7,2.7,4.7,2.9s-0.7,0.8-1.7,1.3c-0.9,0.4-11.1,6.3-22.5,12.9l-20.9,12.1l-4.7-2.6c-2.6-1.4-4.7-2.8-4.7-3c0-0.4,44.5-26.3,44.9-26.2C144.8,32.7,147,33.9,149.6,35.3z M101.1,65c2.7,1.6,5.3,3.1,5.7,3.5c0.4,0.4,4.6,12.6,9.4,27.1c19.1,58.3,36.4,111,38.6,117.4c1.2,3.7,2.1,6.8,2,7c-0.2,0.1-2.6-1.3-5.4-3.1l-5.2-3.3l-8.9-21.3c-18.9-45.2-31.3-74.9-34-81.2c-2.2-5.2-3-6.5-3.9-6.6c-0.7-0.1-1.6,0.3-2.1,0.8c-0.5,0.6-9.8,13-20.6,27.7s-20.1,27-20.4,27.5c-0.6,0.7-1.3,0.4-4.4-1.4c-2-1.2-3.7-2.5-3.7-2.9c0-0.4,1.7-4.2,3.9-8.2c2.1-4,12.8-25,23.6-46.6c10.9-21.5,20-39.2,20.2-39.2C96,62.3,98.4,63.5,101.1,65z" fill="#000019"/>
<path d="M187.4,95.1c-4.2,0.9-7.1,2.5-10,5.4c-3.7,3.7-5.4,7.8-5.7,13c-0.2,5.2,0.8,8.5,4,13.3c8.3,12.4,27.2,10.5,34-3.3c1.3-2.8,1.5-3.7,1.5-8.7c0-6.9-1.1-9.6-5.9-14.4C200.6,95.6,193.9,93.6,187.4,95.1z M198.5,100.7c3.8,1.9,6.5,5.1,6,7c-2.2,8.7-10.4,16-19.9,17.6c-3.3,0.6-3.6,0.6-4.8-0.6c-2.2-2.1-3.7-6-3.8-9.8C176,103,188.1,95.4,198.5,100.7z" fill="#000019"/>
</svg>