<svg width="256" height="256" viewBox="0 0 256 256" fill="none" xmlns="http://www.w3.org/2000/svg">
<g clip-path="url(#clip0_10_295)">
<path d="M196 0H60C26.8629 0 0 26.8629 0 60V196C0 229.137 26.8629 256 60 256H196C229.137 256 256 229.137 256 196V60C256 26.8629 229.137 0 196 0Z" fill="#242938"/>
<path d="M190.26 66.6666C190.26 83.6034 176.53 97.3333 159.593 97.3333H128.13V36H159.593C176.53 36 190.26 49.7299 190.26 66.6666Z" stroke="white" stroke-width="15.081"/>
<path d="M66 66.6666C66 83.6034 79.7299 97.3333 96.6667 97.3333H128.13V36H96.6667C79.7299 36 66 49.7299 66 66.6666Z" stroke="white" stroke-width="15.081"/>
<path d="M66 128.001C66 144.937 79.7299 158.667 96.6667 158.667H128.13V97.3341H96.6667C79.7299 97.3341 66 111.064 66 128.001Z" stroke="white" stroke-width="15.081"/>
<path d="M66 189.333C66 206.27 79.9278 220 96.8645 220C114.021 220 128.13 206.092 128.13 188.935V158.667H96.6667C79.7299 158.667 66 172.397 66 189.333Z" stroke="white" stroke-width="15.081"/>
<path d="M128.13 128.001C128.13 144.937 141.86 158.667 158.797 158.667H159.593C176.53 158.667 190.26 144.937 190.26 128.001C190.26 111.064 176.53 97.3341 159.593 97.3341H158.797C141.86 97.3341 128.13 111.064 128.13 128.001Z" stroke="white" stroke-width="15.081"/>
</g>
<defs>
<clipPath id="clip0_10_295">
<rect width="256" height="256" fill="white"/>
</clipPath>
</defs>
</svg>
