<svg width="256" height="256" viewBox="0 0 256 256" fill="none" xmlns="http://www.w3.org/2000/svg">
<g clip-path="url(#clip0_10_306)">
<path d="M196 0H60C26.8629 0 0 26.8629 0 60V196C0 229.137 26.8629 256 60 256H196C229.137 256 256 229.137 256 196V60C256 26.8629 229.137 0 196 0Z" fill="#F4F2ED"/>
<path d="M127.667 128C127.667 109.591 142.59 94.6665 161 94.6665C179.409 94.6665 194.333 109.591 194.333 128C194.333 146.409 179.409 161.333 161 161.333C142.59 161.333 127.667 146.409 127.667 128Z" fill="#1ABCFE"/>
<path d="M61 194.666C61 176.257 75.9238 161.333 94.3333 161.333H127.667V194.666C127.667 213.076 112.743 228 94.3333 228C75.9238 228 61 213.076 61 194.666Z" fill="#0ACF83"/>
<path d="M127.667 28V94.6664H161C179.409 94.6664 194.333 79.7428 194.333 61.3333C194.333 42.9238 179.409 28 161 28H127.667Z" fill="#FF7262"/>
<path d="M61 61.3333C61 79.7428 75.9238 94.6665 94.3333 94.6665H127.667V28H94.3333C75.9238 28 61 42.9238 61 61.3333Z" fill="#F24E1E"/>
<path d="M61 128C61 146.409 75.9238 161.333 94.3333 161.333H127.667V94.6665H94.3333C75.9238 94.6665 61 109.591 61 128Z" fill="#A259FF"/>
</g>
<defs>
<clipPath id="clip0_10_306">
<rect width="256" height="256" fill="white"/>
</clipPath>
</defs>
</svg>
