<svg width="256" height="256" viewBox="0 0 256 256" fill="none" xmlns="http://www.w3.org/2000/svg">
<g clip-path="url(#clip0_80_15)">
<path d="M196 0H60C26.8629 0 0 26.8629 0 60V196C0 229.137 26.8629 256 60 256H196C229.137 256 256 229.137 256 196V60C256 26.8629 229.137 0 196 0Z" fill="#F4F2ED"/>
<path d="M207.209 98.2608C203.471 89.2549 195.889 79.5312 189.951 76.4574C194.185 84.6673 197.124 93.4843 198.663 102.595L198.679 102.739C188.952 78.4688 172.464 68.6673 158.991 47.3528C158.31 46.2748 157.628 45.1947 156.964 44.0545C156.585 43.4033 156.281 42.8165 156.017 42.2764C155.458 41.193 155.027 40.0481 154.734 38.8648C154.734 38.8102 154.714 38.7573 154.678 38.7163C154.642 38.6753 154.592 38.6491 154.538 38.6425C154.485 38.628 154.429 38.628 154.376 38.6425C154.365 38.6425 154.347 38.6625 154.334 38.667C154.321 38.6714 154.292 38.6914 154.272 38.7003L154.305 38.6425C132.697 51.3112 125.361 74.7593 124.695 86.4945C116.062 87.0871 107.809 90.2713 101.011 95.6315C100.302 95.0302 99.5609 94.4678 98.7912 93.9468C96.8312 87.0767 96.7476 79.8058 98.5492 72.8924C90.6136 76.7414 83.5624 82.1981 77.8419 88.9171H77.8019C74.3925 84.5898 74.6322 70.3208 74.8275 67.3404C73.8189 67.7463 72.8561 68.2581 71.9553 68.8673C68.9455 71.0182 66.1318 73.4317 63.5472 76.0795C60.6018 79.0696 57.9118 82.3014 55.5053 85.7411V85.7544V85.7388C49.975 93.5881 46.0521 102.456 43.963 111.832L43.8475 112.401C43.6855 113.159 43.1017 116.955 43.0018 117.779C43.0018 117.844 42.9885 117.904 42.9819 117.968C42.2288 121.888 41.7622 125.856 41.5857 129.844V130.288C41.6237 151.844 49.731 172.602 64.3071 188.465C78.8832 204.328 98.8689 214.143 120.319 215.972C141.769 217.801 163.124 211.512 180.17 198.346C197.215 185.18 208.712 166.094 212.39 144.855C212.534 143.744 212.652 142.643 212.78 141.521C214.552 126.856 212.634 111.981 207.2 98.2475L207.209 98.2608ZM108.056 165.694C108.458 165.887 108.835 166.096 109.248 166.28L109.308 166.318C108.891 166.118 108.473 165.91 108.056 165.694ZM198.681 102.764V102.682L198.697 102.773L198.681 102.764Z" fill="url(#paint0_linear_80_15)"/>
<path d="M207.209 98.261C203.471 89.2551 195.888 79.5313 189.951 76.4575C194.185 84.6675 197.124 93.4844 198.663 102.595V102.677L198.679 102.768C205.311 121.769 204.351 142.602 196.002 160.911C186.142 182.094 162.285 203.806 124.928 202.74C84.574 201.595 49.0148 171.601 42.3779 132.329C41.1682 126.134 42.3779 122.994 42.9861 117.96C42.1565 121.87 41.6936 125.849 41.6033 129.846V130.29C41.6413 151.846 49.7486 172.604 64.3247 188.467C78.9008 204.33 98.8864 214.145 120.336 215.974C141.786 217.804 163.142 211.515 180.187 198.348C197.233 185.182 208.729 166.096 212.407 144.857C212.552 143.746 212.669 142.646 212.798 141.523C214.57 126.859 212.652 111.983 207.218 98.2498L207.209 98.261Z" fill="url(#paint1_radial_80_15)"/>
<path d="M207.209 98.261C203.471 89.2551 195.888 79.5313 189.951 76.4575C194.185 84.6675 197.124 93.4844 198.663 102.595V102.677L198.679 102.768C205.311 121.769 204.351 142.602 196.002 160.911C186.142 182.094 162.285 203.806 124.928 202.74C84.574 201.595 49.0148 171.601 42.3779 132.329C41.1682 126.134 42.3779 122.994 42.9861 117.96C42.1565 121.87 41.6936 125.849 41.6033 129.846V130.29C41.6413 151.846 49.7486 172.604 64.3247 188.467C78.9008 204.33 98.8864 214.145 120.336 215.974C141.786 217.804 163.142 211.515 180.187 198.348C197.233 185.182 208.729 166.096 212.407 144.857C212.552 143.746 212.669 142.646 212.798 141.523C214.57 126.859 212.652 111.983 207.218 98.2498L207.209 98.261Z" fill="url(#paint2_radial_80_15)"/>
<path d="M165.39 108.374C165.577 108.505 165.75 108.636 165.925 108.767C163.764 104.93 161.074 101.417 157.934 98.3321C131.187 71.5501 150.927 40.2785 154.254 38.6783L154.287 38.6294C132.679 51.2981 125.343 74.7462 124.677 86.4814C125.68 86.4125 126.675 86.328 127.7 86.328C135.366 86.3429 142.892 88.3901 149.512 92.2615C156.132 96.1329 161.611 101.691 165.39 108.369V108.374Z" fill="url(#paint3_radial_80_15)"/>
<path d="M127.744 113.73C127.602 115.873 120.042 123.263 117.399 123.263C92.9377 123.263 88.9645 138.081 88.9645 138.081C90.0477 150.558 98.731 160.84 109.228 166.263C109.707 166.512 110.193 166.736 110.68 166.956C111.522 167.33 112.364 167.675 113.206 167.992C116.808 169.268 120.581 169.997 124.399 170.154C167.284 172.168 175.585 118.813 144.641 103.322C151.94 102.371 159.332 104.168 165.383 108.365C161.604 101.686 156.126 96.1284 149.506 92.257C142.886 88.3855 135.36 86.3383 127.693 86.3235C126.672 86.3235 125.673 86.4079 124.67 86.4768C116.038 87.0694 107.784 90.2536 100.986 95.6138C102.298 96.7251 103.779 98.2098 106.897 101.288C112.735 107.047 127.707 113.012 127.74 113.712L127.744 113.73Z" fill="url(#paint4_radial_80_15)"/>
<path d="M127.744 113.73C127.602 115.873 120.042 123.263 117.399 123.263C92.9377 123.263 88.9645 138.081 88.9645 138.081C90.0477 150.558 98.731 160.84 109.228 166.263C109.707 166.512 110.193 166.736 110.68 166.956C111.522 167.33 112.364 167.675 113.206 167.992C116.808 169.268 120.581 169.997 124.399 170.154C167.284 172.168 175.585 118.813 144.641 103.322C151.94 102.371 159.332 104.168 165.383 108.365C161.604 101.686 156.126 96.1284 149.506 92.257C142.886 88.3855 135.36 86.3383 127.693 86.3235C126.672 86.3235 125.673 86.4079 124.67 86.4768C116.038 87.0694 107.784 90.2536 100.986 95.6138C102.298 96.7251 103.779 98.2098 106.897 101.288C112.735 107.047 127.707 113.012 127.74 113.712L127.744 113.73Z" fill="url(#paint5_radial_80_15)"/>
<path d="M96.9797 92.7712C97.6767 93.2157 98.2516 93.6025 98.7554 93.9514C96.7955 87.0813 96.7119 79.8104 98.5135 72.897C90.5779 76.746 83.5266 82.2027 77.8062 88.9217C78.2257 88.9106 90.7047 88.6861 96.9797 92.7712Z" fill="url(#paint6_radial_80_15)"/>
<path d="M42.3624 132.333C49.0015 171.606 84.5585 201.611 124.912 202.744C162.269 203.802 186.131 182.088 195.986 160.915C204.336 142.606 205.295 121.774 198.663 102.773V102.691C198.663 102.626 198.65 102.588 198.663 102.608L198.679 102.753C201.731 122.705 191.596 142.026 175.749 155.117L175.701 155.228C144.825 180.41 115.281 170.417 109.31 166.341C108.893 166.141 108.475 165.933 108.058 165.716C90.0588 157.102 82.6207 140.69 84.2189 126.599C79.9462 126.662 75.747 125.483 72.1299 123.205C68.5129 120.927 65.6333 117.647 63.84 113.764C68.5653 110.865 73.953 109.227 79.4899 109.004C85.0268 108.782 90.5283 109.982 95.4704 112.492C105.657 117.122 117.248 117.578 127.767 113.764C127.733 113.063 112.762 107.096 106.924 101.339C103.805 98.2611 102.325 96.7787 101.013 95.6652C100.304 95.0639 99.563 94.5015 98.7932 93.9804C98.2827 93.6315 97.7078 93.2537 97.0175 92.8003C90.7425 88.7152 78.2635 88.9397 77.8506 88.9508H77.8107C74.4012 84.6234 74.641 70.3545 74.8363 67.374C73.8277 67.7799 72.8649 68.2917 71.964 68.9009C68.9542 71.0518 66.1405 73.4653 63.5559 76.1132C60.6 79.0948 57.8989 82.3192 55.4807 85.7525C49.9505 93.6018 46.0276 102.468 43.9384 111.843C43.8962 112.019 40.8397 125.399 42.3469 132.338L42.3624 132.333Z" fill="url(#paint7_radial_80_15)"/>
<path d="M157.932 98.3277C161.073 101.416 163.763 104.933 165.923 108.774C166.396 109.132 166.837 109.487 167.212 109.832C186.717 127.835 176.497 153.283 175.736 155.083C191.58 142.012 201.706 122.678 198.665 102.72C188.934 78.4268 172.429 68.6253 158.977 47.3108C158.296 46.2328 157.615 45.1527 156.951 44.0125C156.571 43.3613 156.267 42.7745 156.003 42.2344C155.444 41.151 155.014 40.0061 154.72 38.8228C154.721 38.7682 154.701 38.7153 154.665 38.6743C154.629 38.6334 154.579 38.6071 154.525 38.6005C154.472 38.586 154.416 38.586 154.363 38.6005C154.352 38.6005 154.334 38.6205 154.321 38.625C154.307 38.6294 154.278 38.6494 154.258 38.6583C150.931 40.2386 131.196 71.5302 157.943 98.2899L157.932 98.3277Z" fill="url(#paint8_radial_80_15)"/>
<path d="M167.21 109.841C166.835 109.496 166.393 109.141 165.921 108.783C165.745 108.652 165.572 108.52 165.386 108.389C159.334 104.192 151.942 102.395 144.643 103.346C175.585 118.838 167.283 172.179 124.402 170.179C120.583 170.022 116.81 169.293 113.208 168.017C112.366 167.701 111.524 167.356 110.682 166.981C110.196 166.759 109.71 166.536 109.23 166.287L109.29 166.325C115.27 170.412 144.805 180.398 175.681 155.212L175.729 155.101C176.5 153.301 186.719 127.852 167.206 109.85L167.21 109.841Z" fill="url(#paint9_radial_80_15)"/>
<path d="M88.9668 138.067C88.9668 138.067 92.9378 123.249 117.401 123.249C120.044 123.249 127.611 115.859 127.747 113.717C117.228 117.532 105.637 117.075 95.4504 112.445C90.5084 109.936 85.0068 108.735 79.4699 108.957C73.9331 109.18 68.5453 110.818 63.8201 113.717C65.6133 117.6 68.4929 120.88 72.11 123.158C75.727 125.436 79.9263 126.615 84.1989 126.552C82.6052 140.637 90.0411 157.046 108.038 165.669C108.44 165.863 108.817 166.072 109.23 166.256C98.7245 160.822 90.05 150.545 88.9668 138.074V138.067Z" fill="url(#paint10_radial_80_15)"/>
<path d="M207.209 98.2608C203.471 89.2549 195.889 79.5312 189.951 76.4574C194.185 84.6673 197.124 93.4843 198.663 102.595L198.679 102.739C188.952 78.4688 172.464 68.6673 158.991 47.3528C158.31 46.2748 157.628 45.1947 156.964 44.0545C156.585 43.4033 156.281 42.8165 156.017 42.2764C155.458 41.193 155.027 40.0481 154.734 38.8648C154.734 38.8102 154.714 38.7573 154.678 38.7163C154.642 38.6753 154.593 38.6491 154.538 38.6425C154.485 38.628 154.429 38.628 154.376 38.6425C154.365 38.6425 154.347 38.6625 154.334 38.667C154.321 38.6714 154.292 38.6914 154.272 38.7003L154.305 38.6425C132.697 51.3112 125.361 74.7593 124.695 86.4945C125.698 86.4256 126.693 86.3411 127.718 86.3411C135.384 86.356 142.91 88.4032 149.53 92.2746C156.15 96.1461 161.629 101.704 165.408 108.382C159.357 104.186 151.965 102.388 144.665 103.339C175.608 118.831 167.306 172.172 124.424 170.172C120.606 170.015 116.833 169.286 113.23 168.01C112.388 167.694 111.546 167.349 110.704 166.974C110.218 166.752 109.732 166.529 109.253 166.28L109.312 166.318C108.895 166.118 108.478 165.91 108.061 165.694C108.462 165.887 108.84 166.096 109.253 166.28C98.7468 160.844 90.0724 150.567 88.9892 138.098C88.9892 138.098 92.9602 123.28 117.423 123.28C120.067 123.28 127.634 115.89 127.769 113.748C127.736 113.048 112.764 107.08 106.926 101.324C103.808 98.2453 102.327 96.7628 101.015 95.6493C100.306 95.048 99.5654 94.4856 98.7957 93.9646C96.8357 87.0944 96.7521 79.8236 98.5537 72.9101C90.6181 76.7592 83.5669 82.2159 77.8464 88.9349H77.8064C74.397 84.6075 74.6367 70.3386 74.8321 67.3582C73.8234 67.764 72.8606 68.2759 71.9598 68.8851C68.95 71.0359 66.1363 73.4494 63.5517 76.0973C60.6064 79.0874 57.9163 82.3192 55.5098 85.7588C49.9795 93.6081 46.0566 102.474 43.9675 111.85L43.8521 112.419C43.69 113.176 42.9642 117.026 42.8599 117.853C42.196 121.826 41.772 125.837 41.5902 129.861V130.306C41.6282 151.862 49.7355 172.62 64.3116 188.483C78.8877 204.346 98.8734 214.161 120.323 215.99C141.773 217.819 163.129 211.53 180.174 198.364C197.22 185.198 208.716 166.111 212.394 144.873C212.539 143.761 212.656 142.661 212.785 141.539C214.557 126.874 212.639 111.998 207.205 98.2653L207.209 98.2608Z" fill="url(#paint11_linear_80_15)"/>
</g>
<defs>
<linearGradient id="paint0_linear_80_15" x1="195.822" y1="66.1578" x2="52.8219" y2="203.949" gradientUnits="userSpaceOnUse">
<stop offset="0.048" stop-color="#FFF44F"/>
<stop offset="0.111" stop-color="#FFE847"/>
<stop offset="0.225" stop-color="#FFC830"/>
<stop offset="0.368" stop-color="#FF980E"/>
<stop offset="0.401" stop-color="#FF8B16"/>
<stop offset="0.462" stop-color="#FF672A"/>
<stop offset="0.534" stop-color="#FF3647"/>
<stop offset="0.705" stop-color="#E31587"/>
</linearGradient>
<radialGradient id="paint1_radial_80_15" cx="0" cy="0" r="1" gradientUnits="userSpaceOnUse" gradientTransform="translate(190.295 58.6325) scale(179.35 179.584)">
<stop offset="0.129" stop-color="#FFBD4F"/>
<stop offset="0.186" stop-color="#FFAC31"/>
<stop offset="0.247" stop-color="#FF9D17"/>
<stop offset="0.283" stop-color="#FF980E"/>
<stop offset="0.403" stop-color="#FF563B"/>
<stop offset="0.467" stop-color="#FF3750"/>
<stop offset="0.71" stop-color="#F5156C"/>
<stop offset="0.782" stop-color="#EB0878"/>
<stop offset="0.86" stop-color="#E50080"/>
</radialGradient>
<radialGradient id="paint2_radial_80_15" cx="0" cy="0" r="1" gradientUnits="userSpaceOnUse" gradientTransform="translate(123.705 131.977) scale(179.35 179.584)">
<stop offset="0.3" stop-color="#960E18"/>
<stop offset="0.351" stop-color="#B11927" stop-opacity="0.74"/>
<stop offset="0.435" stop-color="#DB293D" stop-opacity="0.343"/>
<stop offset="0.497" stop-color="#F5334B" stop-opacity="0.094"/>
<stop offset="0.53" stop-color="#FF3750" stop-opacity="0"/>
</radialGradient>
<radialGradient id="paint3_radial_80_15" cx="0" cy="0" r="1" gradientUnits="userSpaceOnUse" gradientTransform="translate(145.901 18.6262) scale(129.918 130.087)">
<stop offset="0.132" stop-color="#FFF44F"/>
<stop offset="0.252" stop-color="#FFDC3E"/>
<stop offset="0.506" stop-color="#FF9D12"/>
<stop offset="0.526" stop-color="#FF980E"/>
</radialGradient>
<radialGradient id="paint4_radial_80_15" cx="0" cy="0" r="1" gradientUnits="userSpaceOnUse" gradientTransform="translate(103.728 178.651) scale(85.3909 85.5024)">
<stop offset="0.353" stop-color="#3A8EE6"/>
<stop offset="0.472" stop-color="#5C79F0"/>
<stop offset="0.669" stop-color="#9059FF"/>
<stop offset="1" stop-color="#C139E6"/>
</radialGradient>
<radialGradient id="paint5_radial_80_15" cx="0" cy="0" r="1" gradientUnits="userSpaceOnUse" gradientTransform="translate(132.379 116.562) rotate(-13.6086) scale(45.2848 53.0788)">
<stop offset="0.206" stop-color="#9059FF" stop-opacity="0"/>
<stop offset="0.278" stop-color="#8C4FF3" stop-opacity="0.064"/>
<stop offset="0.747" stop-color="#7716A8" stop-opacity="0.45"/>
<stop offset="0.975" stop-color="#6E008B" stop-opacity="0.6"/>
</radialGradient>
<radialGradient id="paint6_radial_80_15" cx="0" cy="0" r="1" gradientUnits="userSpaceOnUse" gradientTransform="translate(121.485 51.9648) scale(61.4406 61.5208)">
<stop stop-color="#FFE226"/>
<stop offset="0.121" stop-color="#FFDB27"/>
<stop offset="0.295" stop-color="#FFC82A"/>
<stop offset="0.502" stop-color="#FFA930"/>
<stop offset="0.732" stop-color="#FF7E37"/>
<stop offset="0.792" stop-color="#FF7139"/>
</radialGradient>
<radialGradient id="paint7_radial_80_15" cx="0" cy="0" r="1" gradientUnits="userSpaceOnUse" gradientTransform="translate(170.318 11.9586) scale(262.144 262.486)">
<stop offset="0.113" stop-color="#FFF44F"/>
<stop offset="0.456" stop-color="#FF980E"/>
<stop offset="0.622" stop-color="#FF5634"/>
<stop offset="0.716" stop-color="#FF3647"/>
<stop offset="0.904" stop-color="#E31587"/>
</radialGradient>
<radialGradient id="paint8_radial_80_15" cx="0" cy="0" r="1" gradientUnits="userSpaceOnUse" gradientTransform="translate(148.529 26.512) rotate(83.9838) scale(192.351 126.077)">
<stop stop-color="#FFF44F"/>
<stop offset="0.06" stop-color="#FFE847"/>
<stop offset="0.168" stop-color="#FFC830"/>
<stop offset="0.304" stop-color="#FF980E"/>
<stop offset="0.356" stop-color="#FF8B16"/>
<stop offset="0.455" stop-color="#FF672A"/>
<stop offset="0.57" stop-color="#FF3647"/>
<stop offset="0.737" stop-color="#E31587"/>
</radialGradient>
<radialGradient id="paint9_radial_80_15" cx="0" cy="0" r="1" gradientUnits="userSpaceOnUse" gradientTransform="translate(121.485 74.1906) scale(163.634 163.848)">
<stop offset="0.137" stop-color="#FFF44F"/>
<stop offset="0.48" stop-color="#FF980E"/>
<stop offset="0.592" stop-color="#FF5634"/>
<stop offset="0.655" stop-color="#FF3647"/>
<stop offset="0.904" stop-color="#E31587"/>
</radialGradient>
<radialGradient id="paint10_radial_80_15" cx="0" cy="0" r="1" gradientUnits="userSpaceOnUse" gradientTransform="translate(163.659 83.0808) scale(179.106 179.339)">
<stop offset="0.094" stop-color="#FFF44F"/>
<stop offset="0.231" stop-color="#FFE141"/>
<stop offset="0.509" stop-color="#FFAF1E"/>
<stop offset="0.626" stop-color="#FF980E"/>
</radialGradient>
<linearGradient id="paint11_linear_80_15" x1="194.091" y1="65.4243" x2="72.4272" y2="186.951" gradientUnits="userSpaceOnUse">
<stop offset="0.167" stop-color="#FFF44F" stop-opacity="0.8"/>
<stop offset="0.266" stop-color="#FFF44F" stop-opacity="0.634"/>
<stop offset="0.489" stop-color="#FFF44F" stop-opacity="0.217"/>
<stop offset="0.6" stop-color="#FFF44F" stop-opacity="0"/>
</linearGradient>
<clipPath id="clip0_80_15">
<rect width="256" height="256" fill="white"/>
</clipPath>
</defs>
</svg>
