<svg width="256" height="256" viewBox="0 0 256 256" fill="none" xmlns="http://www.w3.org/2000/svg">
<rect width="256" height="256" rx="60" fill="#242938"/>
<path d="M89.7778 193.926C82.5397 188.233 74.8187 182.775 69.5426 175.089C58.4409 161.535 49.893 145.842 44.0494 129.352C40.5173 118.628 39.3076 107.132 34.7543 96.8229C29.9911 89.3355 35.5705 81.1506 43.772 78.7706C47.4235 78.0698 53.8439 74.6256 46.0938 77.0873C39.1456 82.1851 38.4732 72.46 45.598 71.8441C50.4604 71.1978 52.2503 67.2173 50.5875 63.634C45.368 60.2303 63.2441 56.4895 54.2496 51.4107C44.8797 41.3017 67.356 39.3557 61.8107 50.8365C60.4834 59.6647 77.5161 49.2184 73.5641 59.4131C77.5809 64.3089 88.6059 60.5274 88.3324 67.3958C94.1838 67.798 96.192 72.7214 101.685 73.0993C107.378 75.6702 117.698 77.6961 119.635 84.1113C113.987 88.5828 100.909 74.875 100.28 87.2525C101.986 105.537 101.552 124.373 108.242 141.785C111.406 152.328 119.077 160.628 126.004 168.839C132.633 176.881 141.611 182.543 150.762 187.31C158.79 191.096 167.444 193.607 176.193 195.182C179.741 192.468 186.006 182.378 191.542 186.633C191.804 191.414 180.555 196.627 191.012 196.098C197.153 194.246 201.412 200.848 206.469 194.893C211.128 200.411 225.833 191.367 222.518 202.647C218.036 205.539 211.498 203.791 207.009 207.769C199.606 204.072 193.713 211.078 185.518 210.192C176.417 211.822 167.158 212.48 157.931 212.494C142.794 211.298 127.336 210.794 112.936 205.524C104.824 203.167 96.9075 198.547 89.7778 193.926V193.926ZM102.562 199.465C110.483 202.891 118.229 206.501 126.91 207.59C140.683 209.506 154.906 212.452 168.728 209.765C162.472 206.94 156.005 210.865 149.772 207.745C142.298 209.353 134.276 207.335 126.678 206.341C118.036 202.492 108.711 199.846 100.619 194.849C90.5074 191.156 105.848 199.586 108.579 200.268C114.9 203.856 101.628 198.429 99.7569 196.938C94.4627 193.968 93.788 194.589 99.2327 197.605C100.329 198.246 101.413 198.919 102.562 199.465V199.465ZM87.4891 188.813C95.165 191.657 87.4552 183.416 83.9378 183.894C82.3794 181.191 77.9838 179.483 81.0845 178.03C75.507 179.967 75.2418 170.667 72.6201 171.996C66.7196 170.133 70.3236 163.532 63.2951 159.479C62.6535 155.208 56.3119 151.504 54.2892 145.062C53.3959 141.764 47.1246 132.292 50.977 141.107C54.2572 149.593 60.0284 156.86 64.8312 164.118C68.5605 171.029 72.9641 178.252 79.7559 182.564C82.0454 184.76 84.2559 188.125 87.4891 188.813ZM65.3763 164.535C65.6442 163.376 66.7801 167.044 65.3763 164.535V164.535ZM96.6817 192.222C98.3815 191.461 94.2375 191.263 96.6817 192.222V192.222ZM100.849 193.742C100.417 191.643 98.9464 194.915 100.849 193.742V193.742ZM106.064 195.917C108.547 193.553 102.237 194.427 106.064 195.917V195.917ZM115.004 200.9C116.513 198.669 110.174 200.058 115.004 200.9V200.9ZM97.8376 188.933C101.694 186.438 92.8561 188.899 97.8376 188.933V188.933ZM101.75 190.884C101.641 189.565 100.356 191.475 101.75 190.884V190.884ZM121.306 203.09C124.449 205.074 139.663 207.438 130.137 203.903C128.543 204.239 112.472 199.358 121.306 203.09ZM90.2609 178.911C89.9552 177.588 85.3813 177.451 90.2609 178.911V178.911ZM99.3646 184.217C101.734 182.565 94.4471 182.942 99.3646 184.217V184.217ZM107.022 188.912C110.422 187.63 101.507 187.624 107.022 188.912V188.912ZM86.5564 174.877C90.2453 177.706 101.433 175.239 92.2057 173.188C88.0058 170.949 78.5402 169.417 84.9922 174.538L86.5564 174.877L86.5564 174.877ZM112.209 190.533C113.745 187.915 105.765 189.038 112.209 190.533V190.533ZM104.414 184.338C113.434 186.89 96.8286 178.634 102.188 183.399L103.376 183.937L104.414 184.338L104.414 184.338ZM120.042 193.371C128.585 193.453 112.326 192.193 120.042 193.371V193.371ZM83.2695 169.934C82.9359 168.343 81.1614 170.068 83.2695 169.934V169.934ZM134.492 201.477C134.72 198.603 131.705 203.615 134.492 201.477V201.477ZM97.8478 178.862C97.3311 177.349 95.1786 178.8 97.8478 178.862V178.862ZM84.0797 168.936C88.984 168.641 77.3653 166.775 84.0797 168.936V168.936ZM67.7695 158.393C67.1591 156.042 62.4328 154.167 67.7695 158.393V158.393ZM110.588 185.567C109.689 184.542 110.165 185.791 110.588 185.567V185.567ZM137.239 201.922C137.154 200.356 135.788 202.514 137.239 201.922V201.922ZM108.229 183.131C108.709 181.114 104.047 182.52 108.229 183.131V183.131ZM88.374 170.548C92.0226 170.157 82.5292 168.081 88.374 170.548V170.548ZM121.96 191.418C127.646 189.165 116.419 190.318 121.96 191.418V191.418ZM104.49 179.559C111.043 180.404 96.6934 175.102 103.052 179.084L104.49 179.559L104.49 179.559V179.559ZM127.264 193.562C133.382 189.904 131.365 202.126 137.644 194.594C143.837 190.072 132.295 200.185 139.928 195.401C145.448 191.709 153.601 197.151 158.752 198.926C162.456 198.744 166.056 202.129 169.854 200.07C177.163 198.101 155.56 197.15 161.223 193.657C154.534 195.603 149.593 191.336 146.302 187.052C138.799 185.319 130.125 181.484 126.381 174.845C124.854 172.352 128.586 175.196 125.063 171.121C120.542 167.1 118.285 162.536 115.25 157.648C111.624 155.714 111.202 150.021 110.836 157.457C110.864 152.764 106.458 149.605 105.383 150.918C105.364 146.399 110.098 148.664 106.784 145.32C106.071 140.636 103.722 135.754 103.016 130.465C101.919 127.916 102.861 122.456 99.2719 128.227C97.9643 134.327 98.8379 120.732 100.871 125.215C103.541 120.64 99.9132 121.178 99.7646 121.813C101.503 117.954 100.865 112.479 99.311 114.567C100.237 110.476 100.775 99.5116 97.9243 101.455C99.6521 97.1768 101.201 81.88 93.7005 87.7122C90.6607 87.7549 85.3966 88.8156 82.9083 90.0531C90.7102 94.3538 82.1235 91.6063 78.9476 90.9227C78.5338 94.9021 75.3881 93.181 71.4582 93.22C77.7352 93.9966 68.4016 99.6398 64.8007 97.4478C60.1241 99.6829 68.8367 105.262 64.8945 106.987C65.379 109.588 57.73 106.048 58.3307 112.054C53.7907 110.144 57.7056 119.178 59.9769 116.123C67.6987 118.213 65.4129 122.977 65.6095 127.503C64.3514 130.141 59.3979 121.304 64.5063 121.714C60.4762 115.167 60.0483 119.347 56.6994 122.389C55.9203 122.609 65.2417 126.716 59.392 128.747C64.5385 129.541 64.6849 134.044 65.7326 136.894C68.8259 140.116 68.1928 133.337 71.8941 137.208C69.5519 133.759 59.4879 127.489 67.5908 129.5C67.5475 126.028 66.1253 123.229 68.6078 123.297C71.0662 118.845 66.0331 134.274 71.5744 128.616C73.1083 127.946 73.4883 124.158 76.2455 128.973C80.2501 132.913 77.692 135.768 72.0429 132.16C73.0536 135.589 79.5999 136.814 78.3697 142.176C79.6738 146.891 81.4985 145.155 83.0889 144.882C84.3365 149.464 85.045 146.095 85.1042 143.914C90.8167 145.137 89.4786 148.514 91.266 150.873C95.2024 152.65 85.6317 138.829 92.3898 146.717C99.5 153.137 95.0564 155.817 88.6756 154.788C92.7141 154.462 94.0165 160.248 99.0679 160.045C103.674 162.236 106.793 170.653 98.8531 167.149C96.0992 164.666 86.3536 161.603 94.3135 166.326C101.665 169.73 107.504 171.767 114.595 176.04C119.669 179.663 121.861 183.812 123.785 184.633C119.52 186.67 110.932 183.007 117.309 181.884C113.332 181.16 108.858 179.148 112.668 184.104C115.907 186.809 124.145 186.522 125.622 186.828C124.37 189.587 122.222 189.806 125.673 190.02C121.823 192.072 126.907 192.389 127.264 193.562H127.264ZM119.391 171.328C117.048 168.878 116.443 164.289 118.975 168.282C120.273 168.803 123.135 175.78 119.391 171.328H119.391ZM145.032 187.615C146.493 187.52 145.074 188.725 145.032 187.615V187.615ZM115.692 165.321C115.602 161.617 116.539 168.177 115.692 165.321V165.321ZM113.144 161.892C110.197 156.199 116.858 163.504 113.144 161.892V161.892ZM82.2613 140.577C83.9924 140.115 83.113 143.538 82.2613 140.577V140.577ZM106.84 153.899C107.903 149.907 108.089 157.249 106.84 153.899V153.899ZM89.4758 141.826C88.2518 139.623 92.0362 143.892 89.4758 141.826V141.826ZM104.378 146.603C101.586 140.348 106.354 143.186 104.995 147.628L104.378 146.603ZM78.6793 129.464C77.4313 127.413 75.3669 121.392 76.0315 119.554C76.6327 122.547 82.3966 132.435 78.8588 123.65C74.9493 116.286 83.5321 126.041 84.415 127.877C84.8261 129.705 82.0029 127.378 83.9158 131.663C80.4273 126.785 81.8564 134.357 78.6793 129.464V129.464ZM70.7371 123.992C71.064 119.221 72.5552 127.263 70.7371 123.992V123.992ZM74.3096 125.221C76.0143 121.621 77.2002 130.241 74.3096 125.221V125.221ZM65.7158 118.573C62.7589 115.635 60.6191 112.927 65.8542 116.75C67.8713 116.829 61.3725 110.59 66.34 114.769C71.5634 115.721 68.9193 123.333 65.7158 118.573ZM70.23 118.455C71.9472 116.754 71.1416 120.131 70.23 118.455V118.455ZM73.0076 119.346C70.4043 114.466 76.1672 121.392 73.0076 119.346V119.346ZM67.4859 114.069C58.8899 106.419 78.2873 118.069 68.8902 115.487L67.4858 114.069L67.4859 114.069V114.069ZM92.1147 128.379C88.3949 126.149 91.1289 112.677 92.3975 121.891C96.0137 120.721 92.1978 126.649 94.895 126.594C94.47 130.334 93.2633 131.679 92.1147 128.379ZM101.224 133.763C101.589 129.703 101.992 136.539 101.224 133.763V133.763ZM99.642 132.199C100.052 130.465 99.6844 134.242 99.642 132.199V132.199ZM69.1721 111.555C63.6498 103.936 85.2215 119.262 72.7091 113.488C71.4016 113.146 69.8285 113.024 69.1721 111.555ZM86.7142 120.856C86.1916 114.441 87.8813 121.919 86.714 120.856L86.7142 120.856ZM100.033 129.4C101.063 125.745 100.11 131.817 100.033 129.4V129.4ZM70.0181 108.647C73.3002 107.945 83.6198 114.412 74.1431 110.494C73.0902 109.329 70.8454 109.858 70.0181 108.647ZM98.2029 122.695C98.5537 116.135 100.162 118.776 98.215 123.634L98.203 122.695L98.2029 122.695H98.2029ZM72.4613 106.365C73.7986 104.403 68.9113 97.4957 73.1657 103.887C75.0041 105.348 78.4884 106.334 75.4121 106.949C80.2503 111.217 74.232 108.105 72.4613 106.365V106.365ZM96.8088 120.646C97.7327 113.173 97.6236 125.024 96.8088 120.646V120.646ZM69.6683 99.4626C70.6897 99.0261 70.2077 100.824 69.6683 99.4626V99.4626ZM76.0192 103.243C77.6536 99.813 79.0343 107.068 76.0192 103.243V103.243ZM93.9334 113.208C93.9161 111.891 94.2714 115.124 93.9334 113.208V113.208ZM92.8957 110.911C90.4093 104.777 95.2085 114.159 92.8957 110.911V110.911ZM91.369 106.889C90.9517 104.354 92.7875 110.073 91.369 106.889L91.369 106.889ZM93.8536 102.85C92.1474 99.8432 96.0083 89.5998 96.4391 95.9527C94.6382 100.903 95.9196 103.672 97.1759 97.0325C99.4959 91.8072 96.6747 107.344 93.8536 102.85L93.8536 102.85V102.85ZM96.407 87.6163C97.1507 86.703 96.572 88.7167 96.407 87.6163V87.6163ZM92.1429 171.638C91.1316 170.755 92.27 172.2 92.1429 171.638V171.638ZM100.927 176.082C105.813 177.335 105.788 175.321 101.372 174.723C98.9969 172.513 91.5019 170.17 98.2103 174.449C98.6546 175.574 100.058 175.548 100.927 176.082V176.082ZM83.5787 164.559C86.2706 166.566 93.7181 170.248 87.4135 165.323C89.5391 162.853 83.345 161.539 85.3997 159.887C80.1734 156.689 81.2769 156.973 84.9384 157.074C78.6574 154.266 85.8451 154.476 85.5066 153.038C83.0847 152.559 73.4769 148.767 79.1291 153.349C73.3833 150.42 77.7599 154.441 76.0232 154.016C70.1477 152.413 81.2557 158.49 75.0901 156.982C78.4608 159.653 84.163 163.824 76.5152 159.809C75.5075 161.259 81.988 163.458 83.5787 164.559ZM92.7659 169.837C103.937 173.436 87.2893 165.439 92.7659 169.837V169.837ZM139.795 198.327C139.939 196.111 138.269 200.218 139.795 198.327V198.327ZM144.629 200.362C147.206 197.864 144.734 204.34 148.9 199.75C148.945 196.465 148.771 194.524 144.113 198.515C142.829 199.227 142.256 202.255 144.629 200.362V200.362ZM67.8987 152.174C67.1072 149.062 62.3506 149.078 67.8987 152.174V152.174ZM73.0602 155.556C71.1435 152.378 66.2214 152.679 73.0602 155.556V155.556ZM102.424 173.265C105.291 175.811 115.592 175.133 105.907 173.578C104.472 171.457 96.798 171.968 102.424 173.265ZM142.791 198.194C147.203 194.492 138.515 199.846 142.791 198.194V198.194ZM151.967 204.5C151.995 203.312 150.066 205.021 151.967 204.5V204.5ZM151.982 202.837C156.868 197.66 147.247 203.143 151.982 202.837H151.982ZM55.2036 141.545C51.039 135.603 52.6148 132.932 48.5987 128.081C47.8384 124.371 41.7091 115.951 45.4285 124.871C48.8352 130.087 49.8476 138.164 55.2036 141.545V141.545ZM150.449 201.191C159.438 195.381 146.759 198.66 150.449 201.191V201.191ZM157.311 203.88C161.813 200.014 154.464 203.071 157.311 203.88V203.88ZM66.3687 145.606C67.6571 143.689 63.0414 145.36 66.3687 145.606V145.606ZM155.878 202.044C160.237 199.234 154.874 199.665 155.088 202.303L155.878 202.044H155.878ZM96.7253 164.76C96.5755 162.862 94.4236 164.921 96.7253 164.76V164.76ZM100.381 166.863C99.2191 164.514 98.5947 167.232 100.381 166.863V166.863ZM162.872 203.943C168.456 199.915 159.487 203.172 161.7 204.706L162.872 203.943ZM160.734 202.91C165.283 199.098 155.931 204.599 160.734 202.91V202.91ZM171.659 210.185C174.713 208.14 167.948 209.523 171.659 210.185V210.185ZM69.1698 144.223C73.2638 145.141 85.5304 154.306 78.2936 144.857C74.5872 143.76 76.8101 134.7 73.0295 136.304C75.567 140.543 75.1172 142.347 69.7896 139.675C63.0937 136.406 66.0267 141.294 67.3353 142.642C65.552 143.047 69.6942 144.189 69.1698 144.223V144.223ZM50.5177 129.493C51.2506 126.462 43.7691 112.816 46.9848 122.656C48.1456 124.717 48.0276 128.623 50.5177 129.493ZM84.7523 150.599C82.6442 148.836 84.6521 150.35 84.7523 150.599V150.599ZM89.9437 151.808C89.941 148.596 84.2054 150.504 89.9437 151.808V151.808ZM134.931 180.168C134.073 177.974 131.539 180.117 134.931 180.168L134.931 180.168ZM137.091 181.746C136.772 180.518 135.845 181.983 137.091 181.746V181.746ZM154.922 192.977C156.637 191.71 152.782 192.816 154.922 192.977V192.977ZM59.8346 131.872C64.7399 129.972 54.5789 130.517 59.8346 131.872V131.872ZM130.97 176.688C130.916 173.512 127.843 177.475 130.97 176.688V176.688ZM57.8965 127.355C61.0474 126.291 54.9816 126.654 57.8965 127.355V127.355ZM67.0422 131.786C66.9851 130.742 66.0748 132.181 67.0422 131.786V131.786ZM178.593 200.19C182.645 199.369 191.878 202.252 193.371 199.116C188.45 198.996 176.347 195.644 175.774 199.916L176.852 200.085L178.593 200.19V200.19ZM69.949 132.518C70.0194 129.3 67.4396 132.398 69.949 132.518V132.518ZM45.9025 115.838C44.8104 109.706 41.749 114.91 45.9025 115.838V115.838ZM51.6367 117.279C51.7071 115.31 46.3882 115.507 51.6367 117.279V117.279ZM54.9136 118.888C53.9664 118.121 54.1722 119.858 54.9136 118.888V118.888ZM75.5326 132.115C76.5033 131.224 73.2345 131.455 75.5326 132.115V132.115ZM52.731 115.259C52.1768 110.628 46.0896 114.565 52.731 115.259V115.259ZM40.975 107.631C40.8078 105.493 39.8294 108.437 40.975 107.631V107.631ZM42.7237 106.31C42.4384 103.776 41.2223 106.632 42.7237 106.31V106.31ZM52.3855 112.077C56.4711 110.472 44.9437 108.758 51.5507 111.774L52.3855 112.077ZM181.694 191.949C184.309 189.552 178.371 191.208 181.694 191.949V191.949ZM197.316 200.047C198.364 196.947 194.677 200.455 197.316 200.047V200.047ZM53.3729 107.013C53.8033 104.015 50.1339 107.608 53.3729 107.013V107.013ZM39.6265 97.8031C38.888 93.5698 38.989 86.1392 46.0524 88.6503C36.6239 90.5222 52.5779 100.369 50.5632 92.5946C54.5277 92.7887 58.3186 90.2516 56.2381 94.1018C64.0492 93.2391 69.4646 86.4658 77.0096 87.4149C82.8868 86.6372 89.3127 86.0473 95.6461 83.6816C100.853 83.3064 105.866 77.7 103.012 74.3769C95.9106 73.7761 88.4772 74.6646 80.6283 76.2247C71.9308 78.0327 64.0306 81.468 55.255 82.9425C46.7013 84.0916 56.9755 86.1084 54.5253 86.5577C50.0619 88.1064 59.8484 89.1507 53.9467 90.7834C50.3019 90.0904 46.5082 88.838 48.0651 84.9971C39.8714 86.0604 32.6715 89.461 39.145 97.7992L39.6265 97.8029L39.6265 97.8026V97.8031ZM59.3703 87.7476C61.2914 80.6703 69.6628 93.5714 62.5192 88.6876C61.6659 88.0491 60.2626 87.5281 59.3703 87.7476ZM59.7441 84.3163C62.5168 82.2507 61.218 85.4744 59.7441 84.3163V84.3163ZM63.2648 84.3722C63.5151 81.1156 71.3244 86.0963 64.5525 85.5446L63.2648 84.3722ZM68.0809 82.4358C69.8396 80.3808 68.5864 84.2637 68.0809 82.4358V82.4358ZM69.3129 81.6108C72.2414 78.0921 85.8973 79.3651 75.9017 81.2677C73.2225 79.2507 71.1688 82.457 69.3129 81.6108ZM87.1342 78.8637C86.6887 69.2521 95.988 82.2793 87.1342 78.8637V78.8637ZM92.1909 78.836C94.0397 73.9917 99.3652 76.8921 93.0464 77.8626C93.1836 78.3781 92.8611 80.3635 92.1909 78.836ZM51.3789 104.527C56.9028 101.144 45.5148 101.592 51.3789 104.527V104.527ZM55.4632 105.661C57.3999 103.602 51.255 104.826 55.4632 105.661V105.661ZM43.429 97.1207C46.5853 94.696 39.6939 96.1988 43.429 97.1207V97.1207ZM206.536 199.161C206.628 196.348 204.124 200.428 206.536 199.161V199.161ZM189.963 187.85C190.434 184.612 187.833 188.133 189.963 187.85V187.85ZM211.094 200.251C215.507 200.266 224.465 198.881 214.863 198.885C213.356 199.12 206.084 199.07 211.094 200.251L211.094 200.251V200.251ZM59.0559 103.676C62.6273 103.431 64.6436 99.7368 58.3651 99.9491C48.6345 98.9417 66.9503 103.281 57.1169 102.04C55.7955 102.915 58.9791 103.918 59.0559 103.676ZM62.2013 105.268C61.8284 102.975 61.0969 106.487 62.2013 105.268V105.268ZM65.9324 95.3192C67.4823 93.3969 63.7878 94.8053 65.9324 95.3192V95.3192ZM54.0548 75.4651C60.4288 73.2967 69.1451 70.8601 72.1547 76.5327C69.0918 72.8463 70.9186 69.2172 73.8115 74.6071C77.9022 80.0605 79.95 72.1267 77.2894 70.2976C80.3214 74.0648 83.7699 75.845 79.3194 70.5357C84.1556 64.7182 69.6358 71.2975 66.3356 71.2312C64.7477 71.9439 49.942 75.0071 54.0548 75.4651V75.4651ZM57.7903 68.3109C61.4254 65.5672 70.3626 69.9429 64.6277 65.5842C64.067 65.0889 52.0682 68.8895 57.7903 68.3109V68.3109ZM71.0429 68.858C75.2974 68.9666 69.2078 63.1426 74.2775 65.7816C73.4449 63.0616 68.375 62.5524 65.8963 61.4656C64.4944 63.9525 68.7499 68.8914 71.0429 68.858ZM60.1141 56.8279C61.5859 54.8327 57.5346 57.8395 60.1141 56.8279V56.8279ZM65.5306 58.1244C72.3867 57.215 63.783 55.1719 64.1491 58.0513L65.5306 58.1244V58.1244V58.1244ZM55.4168 50.2106C50.5894 43.9088 64.4954 51.2699 59.5908 44.6717C55.4627 41.3845 51.4959 48.3709 55.4168 50.2106ZM117.369 83.5798C119.583 79.6548 108.228 78.2891 115.877 82.1887C116.582 82.4241 116.422 83.8513 117.369 83.5798Z" fill="white"/>
</svg>
