<svg xmlns="http://www.w3.org/2000/svg" width="256" height="256" fill="none" viewBox="0 0 256 256"><rect width="256" height="256" fill="#242938" rx="60"/><path fill="#44D1FD" d="M144.934 38.0615L200.709 38L107.134 131.526L82.7472 155.777L55 127.996L144.934 38.0615ZM144.415 121.569C145.139 120.613 146.471 121.085 147.482 120.962L200.661 120.975L152.194 169.395L124.303 141.675L144.415 121.569Z"/><path fill="#1FBCFD" d="M96.5013 169.442L124.303 141.675L152.194 169.395L152.31 169.518L124.31 197.258L96.5013 169.442V169.442Z"/><path fill="#08589C" d="M124.31 197.258L152.31 169.518L200.681 217.937C182.461 217.978 164.247 217.923 146.034 217.964C144.996 218.196 144.354 217.247 143.691 216.66L124.31 197.258V197.258Z"/></svg>