<svg width="256" height="256" viewBox="0 0 256 256" fill="none" xmlns="http://www.w3.org/2000/svg">
<rect width="256" height="256" rx="60" fill="#EE524F"/>
<path d="M73.8723 99.7308H50.0488V81.8632V63.9956H73.8723H97.6958V81.8632V99.7308H73.8723Z" fill="#B61B1B"/>
<path d="M74.0357 180.871H50.2122V163.004V145.136H74.0357H97.8592V163.004V180.871H74.0357Z" fill="#B61B1B"/>
<path d="M181.696 99.7308H157.872V81.8632V63.9956H181.696H205.519V81.8632V99.7308H181.696Z" fill="#B61B1B"/>
<path d="M167.205 206.66H153.019V201.34V196.021H160.112H167.205V187.154L168.028 177.48H160.935H153.842L153.019 157.009V135.73H181.391H209.763V157.009L210.586 177.48H203.493H196.4L195.577 185.381V192.474H188.484H181.391V199.567V206.66L167.205 206.66Z" fill="#B61B1B"/>
<path d="M166.451 203.313H151.019V197.527V191.74H158.735H166.451V182.095V172.451H158.735H151.019V149.304V126.157H181.882H212.745V149.304V172.451H205.029H197.313V180.166V187.882H189.598H181.882V195.598V203.313L166.451 203.313ZM73.8627 176.309H43V151.233V126.157H73.8627H104.725V151.233V176.309H73.8627ZM73.8627 95.294H43V72.147V49H73.8627H104.725V72.147V95.294H73.8627ZM181.882 95.294H151.019V72.147V49H181.882H212.745V72.147V95.294H181.882Z" fill="#414141"/>
</svg>
