<svg width="256" height="256" viewBox="0 0 256 256" fill="none" xmlns="http://www.w3.org/2000/svg" xmlns:xlink="http://www.w3.org/1999/xlink">
<rect width="256" height="256" rx="60" fill="#242938"/>
<defs>
<linearGradient xlink:href="#a" id="c" x1="221.64285" x2="223.35713" y1="179.13533" y2="157.17104" gradientTransform="translate(-64.467335 -17.815305) scale(.80023)" gradientUnits="userSpaceOnUse"/>
<linearGradient id="a">
<stop offset="0" stop-color="#ff0d00"/>
<stop offset=".5" stop-color="#ff0c00"/>
<stop offset="1" stop-color="#f1d3d3"/>
</linearGradient>
<linearGradient xlink:href="#b" id="d" x1="203.04065" x2="232.33508" y1="137.41652" y2="137.41652" gradientTransform="translate(-6.9939814 -5.6271766)" gradientUnits="userSpaceOnUse"/>
<linearGradient id="b">
<stop offset="0" stop-color="#0ff"/>
<stop offset="1" stop-color="#0ff" stop-opacity="0"/>
</linearGradient>
</defs>
<path fill="#000" fill-rule="evenodd" d="M238.00005293 138.93171007c-10.92478791-22.20814113-35.34679515-37.28742703-110.60452273-8.40546793l1.86592351 3.4796635c19.48799828-9.46353176 84.75253098-37.42160661 108.73859922 4.92580443z"/>
<g fill-rule="evenodd">
<g stroke-width="2" stroke="#000" fill="#3398C3" >
<path d="M608.21429 180.84433c.45333 1.22734-1.68964 2.08706-1.60714 3.39285.0631.99919 4.28993-2.31584 6.87499-.26786 1.38967 1.10095-1.31648 6.08104.44643 5.89286.96141-.10262 13.07122.48056 10.71429 3.03571-4.67504 5.06822-18.81135 5.56401-26.25 4.46429-7.37213-1.08989-20.44643-14.10714-20.44643-14.10714s8.83929-9.64286 9.64286-9.64286c5.46846 2.28166 13.69086 1.5449 20.625 7.23215z" transform="matrix(.14899 -.73653 .7441 .14313 -75.93564967 480.51111015)"/>
<path d="M575.71429 150.57647c-1.47891-2.41897 42.71436 4.51991 54.24332 27.5.69242 1.38017-13.93595.55964-17.10047-1.07143-.9943-.51249-.088-2.0563-1.07142-2.58929-1.6692-.90463-4.24235 1.31254-6.07143.80357-1.68032-.46757-1.12794-3.61135-2.85714-3.83928-1.38499-.18257-4.69089.32888-4.97617 1.69643-.95796 4.59214.24901 10.04697-2.88098 12.49999-11.72623 9.19003-46.45513 4.79602-50 .00001l-10.71428-25 41.42857-10z" transform="matrix(.14899 -.73653 .7441 .14313 -75.93564967 480.51111015)"/>
</g>
<path d="M145.29996698 70.09732565c4.91315014 3.13393432-6.90787325 37.90968271-8.8773065 37.06091254l3.50719028.40537849c7.69769987-12.56789019 11.81940197-31.51426403 5.37011622-37.46629103z" opacity=".8" fill="#FFFFFF"/>
<path d="M121.13782022 83.08404194c1.06113423-8.86774283 8.26630242-30.53114193 25.79216105-38.78804506-9.66318221 11.88337081-18.80115931 25.53291607-25.79216105 38.78804506z" opacity=".2" fill="#000000"/>
<path d="M160.71487737 53.94735185c.54529249.52806408-4.22912499 14.04153517-7.44966662 14.98981956-1.04659104.30815921.91483848 3.05977032 1.73285582 2.35250055 6.15248417-5.3195184 5.75025502-17.80482278 5.7168108-17.34232011z" opacity=".8" fill="#FFFFFF"/>
</g>
<g fill-rule="evenodd">
<path d="M528.57144 260.21933c7.24365-12.62405 28.10525-11.01646 38.57143-7.85715 18.05183 5.4491 20.0441 25.22645 18.21428 25.35715-14.21129-2.90177-29.38948-6.77044-40-6.07143 6.72326 8.3806 15.74104 16.60521 30.00001 25 0 0-21.72595 12.99212-30.00001 8.57143-14.07778-7.52152-24.32017-31.86914-16.78571-45z" transform="matrix(.75844 0 0 .73958 -334.14742564 -16.11706755)" stroke="#000000" stroke-width="2" fill="#3398C3"/>
<path d="M77.91678073 172.3078703c6.83093742-3.11332864 18.08045125-1.94896345 27.29037066 8.25424546-7.17871338-4.6598792-20.63151613-8.99443933-27.29037066-8.25424547z" opacity=".8" fill="#FFFFFF"/>
<path d="M65.65981334 190.07099956c7.19381396 11.93166657 16.49164438 19.34960235 30.87942398 15.84814212-17.89237282 10.36113143-25.90221719.37800674-30.87942398-15.84814212z" opacity=".2" fill="#000000"/>
</g>
<path d="M79.027891 90.299303C41.547416 91.362502 8.5477829 125.72764 11.416987 151.73569c2.869213 26.00805 28.434751 41.9462 34.577264 43.53031 9.629379 3.08729 15.652401-2.73169 10.496672-11.73157-3.16981-4.34519-8.696026-19.77543-1.543633-29.0202 7.152394-9.24478 33.740339-15.70039 37.355798-13.89266L79.027891 90.299303z" transform="matrix(.87739 0 0 .85557 21.18775667 20.10217)" fill-rule="evenodd" stroke="#000000" stroke-width="1.72886324" fill="#3398C3"/>
<path d="M227.31629228 159.9595267c-7.66939767-23.46826446-29.71752639-41.69683371-108.34883715-23.24393453l1.35436244 3.69789323c21.37212759-6.24207013 89.53649782-25.55842564 106.9944747 19.5460413z" fill-rule="evenodd" fill="#000000"/>
<path d="M179.7496 51.862965c9.60954 45.140498-60.74946 98.765965-88.990145 89.684775-14.078945-5.12548-26.810787-18.46444-21.302067-41.0605 5.50872-22.596058 40.975772-27.3718 54.335702-22.845688 13.35994 4.526103 32.5436-11.492394 32.41619-11.731573.19886 2.859177-.56981 5.032288-2.00672 6.869136l8.79868-7.486591c.42232 2.093316.0595 3.872576-.54027 5.557068l9.18459-9.879217c.58337 2.296665.59983 4.366564.15437 6.25169 3.14446-3.109395 5.82694-7.95845 7.94967-15.3591z" transform="matrix(.87739 0 0 .85557 21.18775667 20.10217)" fill-rule="evenodd" stroke="#000000" stroke-width="1.72886324" fill="#3398C3"/>
<path d="M99.4646562 89.5673555c-10.29672112 4.99584123-19.69571989 11.9652879-17.3358129 29.31906367.90322796 6.64200539 7.00556854 16.7738812 14.8979684 19.67811534-8.18605372-11.6511678-8.04286751-15.99241395-9.20964615-21.13085269-2.05801709-9.06343394 6.4901996-21.24871916 13.90154166-23.79302952 7.5792127-2.60193116 3.66137873-6.02177933-2.25405101-4.0732968zm-24.61189506 12.97745564c-.06898025-.60541275-42.17288169 18.65518368-40.98859039 44.63855284.94220504 20.67195168 30.07609732 38.10147175 29.49645883 35.67347244-.90946355.15905009-26.41438605-21.53991686-24.51653615-36.60734202 3.10675984-24.66528965 35.91693416-43.97304757 36.0086677-43.70468326z" opacity=".8" fill-rule="evenodd" fill="#FFFFFF"/>
<path d="M456.58895 142.71982c.96874 21.34672 9.16115 39.89434 34.34519 50.50762l.50507.50508m-56.56854-33.84011c4.74203 19.72056 14.88055 33.0875 44.44671 38.3858m-60.33867-8.01995c10.88905 12.1761 21.6539 19.4764 48.59936 15.59609m-44.05367 13.9942c13.43052 3.50422 28.46005 3.44529 40.70197-5.25997m-28.64141 20.64685c10.34998-.97094 20.04392.12748 29.08521-15.23895m-18.18274 25.75889c11.78511 1.01015 17.78475-2.61203 20.14177-13.72371" transform="matrix(.75844 0 0 .73958 -286.00014497 .72752549)" stroke-width="2" stroke="#000000"/>
<g fill-rule="evenodd" stroke="#000000" fill="#3398C3">
<path d="m475.78185 223.65828-5.80838 5.3033-13.13198-12.12183c-2.13308-4.24558 2.54504-6.67286 4.79822-5.55584l14.14214 12.37437z" transform="matrix(.75844 0 0 .73958 -282.56789963 -5.23416302)"/>
<path d="M469.21586 226.4362c-.73465-3.90418 5.98088-6.35818 8.46003-.50507.13866.32736.96435 11.67253-.50508 15.9099-1.45535 4.19679-5.52198 5.90751-7.3236 4.54569-1.42886-1.08006.29527-2.80818.52282-5.44666.34951-4.05255-.25737-9.73794-1.15417-14.50386zm19.06663-13.00571-5.68211 6.31346s-16.53023-8.77703-16.66752-8.96511c-1.47467-2.02019 1.24029-7.44363 5.3033-5.93464.0668.0248 17.04633 8.58629 17.04633 8.58629z" transform="matrix(.75844 0 0 .73958 -282.56789963 -5.23416302)"/>
<path d="M481.21142 218.22871c-1.65196-1.08274 2.91105-7.49648 6.56599-5.55583 2.54049 1.34892 5.97867 9.72861 6.31345 15.40482.20744 3.51713-4.11866 9.21323-5.55583 8.08122-1.1339-.89314-1.3237-5.26141-2.49859-9.1749-1.35093-4.49989-2.795-7.42478-4.82502-8.75531zm10.60661-24.4962 15.53109 7.44988-3.03046 6.81853-17.04632-7.19734c-3.17059-1.33869.9917-8.77583 4.54569-7.07107z" transform="matrix(.75844 0 0 .73958 -282.56789963 -5.23416302)"/>
<path d="M514.04138 203.83404c-.17601.35201-5.7262-2.72498-7.70242-3.40926-2.24713-.77809-5.32053 4.89445-3.91434 6.81853 2.00447 2.7427 8.29105 3.4004 7.95496 3.6618l3.6618-7.07107zm-36.11296-.25253c-1.34765-2.41151 2.29985-7.05066 6.18719-5.93465.37422.10743 15.15229 10.73287 15.15229 10.73287l-5.55584 6.43972s-15.29235-10.35882-15.78364-11.23794z" transform="matrix(.75844 0 0 .73958 -282.56789963 -5.23416302)"/>
<path d="M492.95445 212.42034c-1.52249-3.96635 5.32602-6.26125 7.95495-2.52538 1.22781 1.74481 2.14697 14.13908 1.64149 15.9099-1.63367 5.72316-4.23571 6.3339-5.3033 5.80838-.4388-.216-.16523-2.80542-.74607-5.75562-.95029-4.82675-2.70193-11.23554-3.54707-13.43728z" transform="matrix(.75844 0 0 .73958 -282.56789963 -5.23416302)"/>
</g>
<path d="M90.25501004 139.22487045c2.52360917 1.1753622 4.86820311 1.8270398 7.71985362 3.96203274-4.00545258.3086376-5.82104122-1.87403615-7.71985362-3.96203274z" opacity=".7" fill="#FFFFFF" fill-rule="evenodd"/>
<path d="M85.253426 149.5078c.204257-.14782 8.09663-22.14537 12.860158-24.77859 6.143216-3.39588 11.393726-2.42396 12.800696.41606 4.46617 9.01509-6.87631 28.04293-4.28886 28.40781l-21.371994-4.04528z" transform="matrix(.87739 0 0 .85557 21.18775667 20.10217)" fill-rule="evenodd" stroke="#000000" stroke-width="1.72886324" fill="#3398C3"/>
<path d="M97.625278 111.31193c.839657 9.08529 13.463302 22.9467 21.649092 20.00566 5.29608-1.9028 10.30104-1.85333 16.25724-18.00895-11.7112 4.75479-27.94479.71475-37.906332-1.99671z" transform="matrix(.87739 0 0 .85557 21.18775667 20.10217)" fill-rule="evenodd" stroke="#000000" stroke-width="1.72886324" fill="#666666"/>
<path d="M102.08313996 109.7755012c.81424765 2.18472712 3.17216912 3.26139956 5.12023457 4.31396209 3.26199786 1.43093748 6.6595074 2.58628795 10.2088314 3.09735294 3.434044.53619302 6.8914967.97361072 10.35312576 1.27721758 6.19048123.14859505 11.70334693-2.1355405 17.40149065-4.28429099.84027449-.48869188-.70923659.83863631.7447708.07905449.55102599-.4908308 2.7425131-1.68579408 2.67462958-1.11749159-4.36932205 2.75699088-9.4663848 4.12773915-14.45816099 5.38793092-4.30312312.99284389-8.79494609.97250704-13.13255056.20277818-4.6742407-.56573579-9.42359459-1.19729042-13.7545432-3.10554073-2.46099788-.90825388-4.81489389-2.29975823-6.55444808-4.23722619-.67529835-1.0861949.68744578-1.30809502 1.39662007-1.6137638z" fill-rule="evenodd" fill="#000000"/>
<path d="M101.24275 120.13781c2.17457-3.81772 18.27639-5.96114 20.17569 2.40668-3.79017-6.59628 1.9201-6.54159 11.26577-3.70133-3.32993 8.15989-7.64822 11.92332-12.55201 12.62022-7.51142 1.06748-14.85533-5.75896-18.88945-11.32557z" transform="matrix(.87739 0 0 .85557 21.18775667 20.10217)" fill="url(#c)" fill-rule="evenodd" stroke="#000000" stroke-width=".79655021"/>
<path d="M98.19314112 144.70467226c4.87394474-4.582927 10.22845068-4.92149236 19.5048915-4.97854163l-2.4281976 5.71940363c-12.46980677.82108005-13.64107324-3.2560608-17.0766939-.740862zm81.44966001-73.75888346c-1.95523284 28.63726323-28.97380845 55.02212393-60.675346 69.2035571 25.97687039-16.25616846 52.62230165-39.8026113 60.675346-69.2035571z" fill-rule="evenodd" opacity=".2" fill="#000000"/>
<path d="M66.6891273 152.6957886c1.46143449 2.55229624 4.73380043 4.83746703 7.99073137 6.33926266-1.33883881-2.7517548-5.22250204-4.63287506-7.99073137-6.33926265zm6.90725195-5.15063913c2.95790043 1.03367159 8.04384493 2.36943568 10.29313347 4.09409821-3.26098096-.63298343-8.1155556-1.43629333-10.29313347-4.09409821zm10.56400333-5.54685268 8.8033497 5.81098363c-3.86676473-.2187773-7.45974667-2.7803051-8.8033497-5.81098363zm11.51207195 7.92406548c3.39206273 3.8747648 2.33210257 12.36789422 2.16697464 13.07473028l-2.16697464-13.07473028zm-8.66791434 3.30170535c2.44027135 3.7853494 3.2243035 8.30463924 4.33395717 12.41437724.84300755-7.05221602-3.2013528-12.60879651-4.33395717-12.41437724z" fill-rule="evenodd" opacity=".7" fill="#FFFFFF"/>
<g fill-rule="evenodd">
<g stroke-width="2" stroke="#000000" fill="#3398C3">
<path d="M304.50438 437.17997s18.01616-10.21695 26.78572-10.35714c9.5437-.15257 27.64378 3.30218 34.64285 11.78572 3.20433 3.88395-11.86301 1.31812-15.35714 1.42857-2.31174.0731.2832 6.46602-1.78571 7.5-2.40366 1.20128-6.36598-4.39229-8.57143-2.85714-1.5853 1.10348 2.6243 5.42668.71428 5.71428-7.81146 1.17619-24.79841 5.1238-24.64285 5.35714l-11.78572-18.57143z" transform="matrix(.6548 .37318 -.3827 .63852 99.30931202 -226.04869633)"/>
<path d="M365.93295 457.71568c-5.51948-2.752-11.033-.4024-20.35714-1.07142-1.27142 1.09048-2.17973 2.36252-2.5 3.92857l-7.14286-3.92857c-1.266 1.02492-3.58118-.29405-3.57142 2.85714-3.66518-.33397-3.92217-1.10818-4.28572-2.85714-.71277-4.70111 1.45664-7.35756-2.14286-14.46428-1.52075-7.30017-34.02459-18.93338-51.42857-18.39286-37.87544 1.17632-24.15018 38.34474-9.28571 46.96429 36.33081 21.06736 96.39452 11.14844 100.71428-13.03573z" transform="matrix(.6548 .37318 -.3827 .63852 99.30931202 -226.04869633)"/>
</g>
<path d="M101.11785834 147.54852383c17.79519706 5.22843103 23.83322446 8.1521838 34.00061422 24.50815974-.27563793-13.80956142-24.77956407-29.05271007-34.00061422-24.50815974zm63.17261388 35.49033825s-11.8215746-13.8295711-19.7596152-13.09689446c-1.37291813.12672358-.20702658 4.21208903 1.16616887 4.33589075 4.50168402.40585723 18.61305135 8.6132206 18.59344633 8.7610037z" opacity=".8" fill="#FFFFFF" />
<path d="M93.86276638 174.11850844c23.21351238 25.84538602 44.98118553 26.57848292 66.13030167 30.95311073-9.11786746 8.89777005-51.92360472-2.8712272-66.13030167-30.95311073z" opacity=".2" fill="#000000" />
</g>
<path d="M78.065756 160.88400215c1.69125749 3.00573872 2.31870836 12.38596382.40632013 13.33884413.43375255-2.89780026-.99267152-9.82371734-.40632014-13.33884413z" opacity=".7" fill-rule="evenodd" fill="#FFFFFF" />
<g fill-rule="evenodd">
<path d="M131.60643663 92.10881537c0 10.1950845-7.7698178 18.45983862-17.35437583 18.45983862-9.58455014 0-17.35436793-8.26475412-17.35436793-18.45983862s7.7698178-18.45983165 17.35436793-18.45983165c9.58455804 0 17.35437583 8.26474715 17.35437583 18.45983165z" fill="#000000" />
<path d="M131.1995525 94.2184961c0 9.02151884-7.50035477 16.33490257-16.75249623 16.33490257-9.25214908 0-16.75249623-7.31338373-16.75249623-16.33490256 0-9.02151105 7.50034715-16.33489478 16.75249623-16.33489478 9.25214146 0 16.75249623 7.31338373 16.75249623 16.33489478z" fill="#FFFFFF" />
<path fill="url(#d)" d="M232.33508 137.41652c0 9.90258-6.55778 17.93021-14.64721 17.93021-8.08944 0-14.64722-8.02763-14.64722-17.93021 0-9.90258 6.55778-17.93021 14.64722-17.93021 8.08943 0 14.64721 8.02763 14.64721 17.93021z" transform="matrix(.78545 0 0 .72558 -57.50984594 -5.31226064)"/>
<path d="M121.46680266 94.39432362c0 5.24318575-3.57935726 9.49363271-7.99471264 9.49363271-4.41535539 0-7.99471265-4.25044696-7.99471265-9.4936327 0-5.24318576 3.57935726-9.49362534 7.99471265-9.49362534 4.41535538 0 7.99471264 4.25043958 7.99471264 9.49362533z" fill="#000000" />
<path d="M124.82578185 91.86202657c-2.62198327 3.32015493-6.6132855 4.81391434-8.91482617 3.33640807-2.30154068-1.47750626-2.0417724-5.36677615.58021086-8.68693108 2.62198327-3.32015494 6.6132855-4.81391434 8.91482617-3.33640808 2.30154068 1.47750627 2.0417724 5.36677616-.58021086 8.68693109zm-10.72985728 12.61547393c0 1.37314472-1.85194326 2.4862954-4.1364267 2.4862954-2.28449202 0-4.1364267-1.11315068-4.1364267-2.4862954 0-1.37314473 1.85193468-2.48630316 4.1364267-2.48630316 2.28448344 0 4.1364267 1.11315843 4.1364267 2.48630315z" fill="#FFFFFF" />
<path d="M104.30638314 77.50115554c.9960667 5.7379226-5.56476082 2.45223755-5.2029008.26695104.2008549 3.12124415.346178 3.44172323.93365521 3.85034363 1.84054831 1.28018287.79606116.24740275-.31869007.95759441-1.15136577.73352708-.58631902 1.0619494-3.42804555-.50747568.55529472 1.15637707 1.3898158 3.00311905 1.96687695 3.28406994 1.44774893-1.52285866 6.32486375-7.60285534 6.04910426-7.85148334z" fill="#000000"/>
</g>
<path d="M23.23901216 64.73608567c1.57340841-.33018166 3.1615135-.60512443 4.75632974-.82117417 2.34977123-.28811252 4.64521214-.79157237 7.0230898-.75669343.36344833.02022563.73181441-.00083846 1.09034586.06068544.4240188.0727575.83099962.22024288 1.24370012.33981877 1.54122064.44655431 3.00696748 1.00521113 4.45000402 1.69340265 1.32470058.62362095 2.68286737 1.18384174 4.04583436 1.72354173 1.2181304.46282379 2.47307425.68731884 3.7689193.80983276 1.9640655.13496927 3.93464034.13437123 5.90255933.13623551 1.42421393-.03803855 2.85767114.08437612 4.2780193-.06422748.85856802-.08982694 1.24984973-.20880394 2.10846338-.40525177 2.98092661-.81283922 5.85886015-1.9302923 8.7431258-3.01449716 1.51285732-.59229604 3.0397739-1.11865773 4.48564-1.85954026.43209868-.2214133 1.69874601-.93857607 1.2760582-.70051341-4.9773958 2.8033233-5.44795829 3.10564168-3.18832183 1.73332686 1.39940227-.89871857 2.60792353-2.0289701 3.71674542-3.24495639.4322838-.49138093.23343434-.24641556.60047733-.73184687l5.9643801-2.55000332c-.34662003.5752035-.14990701.29284724-.59613953.84306302-1.19862256 1.22589804-2.35423907 2.5003376-3.8085202 3.45824693-4.22794502 2.63035227-8.5418995 5.12813599-13.28260146 6.74981208-2.93688436 1.11897771-5.88252857 2.2512903-8.9340735 3.04082813-2.14849772.43443861-4.3136588.42555097-6.50215226.38390021-1.99800813-.01052349-3.9998022.0019678-5.9931549-.14871312-1.35393165-.14260094-2.67088226-.41315379-3.93226-.92979622-1.33157316-.5802659-2.674419-1.14361807-3.95693565-1.82284238-2.05767666-1.00150823-4.26470932-1.85701548-6.59619517-1.87589701-2.36636527.03619908-4.66124211.54759346-6.99981375.85397408-1.64501403.25653693-3.28031377.57172732-4.90252881.94147045l5.239005-3.84218136zm24.84494116-20.7981993c3.37454305-2.21976433 5.20072264-3.38691565 8.6331768-3.80478704.34334649-.04180305.68694128-.11633158 1.03267251-.10275885.46332316.01818938.91753201.13155214 1.37629802.1973282 4.22378882.8849097 8.12594739 2.77408342 12.22178233 4.06956395 1.09306664.34572819 2.2034538.6370354 3.30518114.9555531 6.92644042 1.941555 14.00820922 3.28005179 21.10524458 4.46793352 5.04289984.65717975 10.14473295 1.4065016 15.25010544 1.25892211.96965412-.0280284 1.93648306-.11658311 2.90472458-.17487467 5.58668913-.49225704 10.9069857-2.3508596 16.12941843-4.24319292 1.6322049-.73322007 3.31706185-1.36466946 4.90881916-2.18295438.35453494-.18225651 1.38960711-.77947292 1.04039791-.58768965-1.54514168.84858314-3.0855016 1.70541396-4.62824802 2.55812094l5.94109246-2.25640232c-3.92730275 2.24710914-7.66590566 4.57371937-11.9648261 6.0515146-5.22607388 1.81141798-10.53958825 3.58981531-16.10746617 4.0181888-2.63861982.14541918-3.17457316.24065245-5.78967197.13013617-4.12846061-.1744717-8.21808804-.87288983-12.30397604-1.4193086-7.09802943-1.29176737-14.21761278-2.5219116-21.15631558-4.50635708-4.10120807-1.16665338-2.56153865-.68256445-6.53369435-1.99139698-3.08893307-1.0178085-6.14939929-2.23580195-9.4134318-2.6068849-1.2774936-.03523228-2.1163476.00385006-3.35220124.28213297-2.38653748.53741049-5.71291455 2.64727369 3.52041933-2.41494763l-6.11950142 2.30216066z" fill-rule="evenodd" fill="#000000" />
<path d="M108.70945841 113.91876036c10.63695815 3.84985067 36.76305468-14.28233372 35.56261242-16.09674362-13.71432022 3.23691747-23.86826135 4.12501331-35.56261242 16.09674362z" fill-rule="evenodd" fill="#3398C3"/>
<path d="M113.78104796 112.29431907c1.40075872-.08333233 16.68727927-9.82187016 17.58718104-9.82430853-5.88510633 1.38902833-12.56889018 4.68699058-17.58718104 9.82430853z" opacity=".8" fill-rule="evenodd" fill="#FFFFFF"/>
</svg>