<svg width="256" height="256" viewBox="0 0 256 256" fill="none" xmlns="http://www.w3.org/2000/svg">
<g clip-path="url(#clip0_10_323)">
<path d="M196 0H60C26.8629 0 0 26.8629 0 60V196C0 229.137 26.8629 256 60 256H196C229.137 256 256 229.137 256 196V60C256 26.8629 229.137 0 196 0Z" fill="#242938"/>
<path d="M154.909 92.3225H161.009L178.394 74.9374L179.248 67.5563C169.289 58.7659 157.253 52.6594 144.278 49.8139C131.302 46.9683 117.816 47.4776 105.092 51.2936C92.3677 55.1095 80.8266 62.1062 71.5585 71.6227C62.2905 81.1391 55.6014 92.8612 52.1233 105.682C54.0601 104.888 56.2055 104.759 58.2233 105.316L92.9936 99.5816C92.9936 99.5816 94.7627 96.6535 95.6777 96.8365C103.128 88.6543 113.424 83.6293 124.458 82.7901C135.492 81.951 146.429 85.3611 155.031 92.3225H154.909Z" fill="#EA4335"/>
<path d="M203.16 105.682C199.164 90.9662 190.959 77.7371 179.553 67.6174L155.153 92.0176C160.238 96.1728 164.313 101.428 167.071 107.388C169.829 113.348 171.198 119.856 171.074 126.422V130.753C173.926 130.753 176.749 131.315 179.384 132.406C182.019 133.497 184.413 135.097 186.429 137.113C188.446 139.13 190.046 141.524 191.137 144.159C192.228 146.793 192.79 149.617 192.79 152.469C192.79 155.321 192.228 158.145 191.137 160.78C190.046 163.414 188.446 165.808 186.429 167.825C184.413 169.841 182.019 171.441 179.384 172.532C176.749 173.624 173.926 174.185 171.074 174.185H127.641L123.31 178.577V204.625L127.641 208.956H171.074C183.202 209.05 195.039 205.238 204.833 198.084C214.627 190.93 221.858 180.813 225.456 169.23C229.055 157.648 228.83 145.215 224.814 133.77C220.799 122.325 213.206 112.477 203.16 105.682Z" fill="#4285F4"/>
<path d="M84.1479 208.712H127.58V173.941H84.1479C81.0535 173.941 77.9954 173.275 75.1808 171.989L69.0807 173.88L51.5736 191.265L50.0486 197.365C59.8662 204.779 71.8458 208.765 84.1479 208.712Z" fill="#34A853"/>
<path d="M84.1491 95.9221C72.381 95.9924 60.9287 99.7365 51.3917 106.631C41.8548 113.526 34.7095 123.228 30.9538 134.381C27.1981 145.534 27.0195 157.581 30.4431 168.84C33.8666 180.1 40.7213 190.008 50.0498 197.183L75.243 171.99C72.0415 170.543 69.2386 168.342 67.075 165.574C64.9114 162.806 63.4516 159.555 62.8208 156.099C62.19 152.643 62.4072 149.085 63.4535 145.732C64.4999 142.378 66.3443 139.328 68.8284 136.844C71.3126 134.36 74.3623 132.515 77.716 131.469C81.0697 130.423 84.6271 130.206 88.0832 130.836C91.5392 131.467 94.7906 132.927 97.5584 135.091C100.326 137.254 102.528 140.057 103.974 143.259L129.167 118.065C123.88 111.152 117.064 105.557 109.255 101.715C101.445 97.8738 92.8524 95.8911 84.1491 95.9221Z" fill="#FBBC05"/>
</g>
<defs>
<clipPath id="clip0_10_323">
<rect width="256" height="256" fill="white"/>
</clipPath>
</defs>
</svg>
