<svg width="256" height="256" viewBox="0 0 256 256" fill="none" xmlns="http://www.w3.org/2000/svg">
<g clip-path="url(#clip0_24_627)">
<path d="M196 0H60C26.8629 0 0 26.8629 0 60V196C0 229.137 26.8629 256 60 256H196C229.137 256 256 229.137 256 196V60C256 26.8629 229.137 0 196 0Z" fill="#242938"/>
<mask id="mask0_24_627" style="mask-type:luminance" maskUnits="userSpaceOnUse" x="28" y="28" width="200" height="200">
<path d="M28 28H228V228H28V28Z" fill="white"/>
</mask>
<g mask="url(#mask0_24_627)">
<path d="M224.232 119.095L136.908 31.7765C135.712 30.5795 134.291 29.6299 132.728 28.9821C131.165 28.3342 129.489 28.0008 127.797 28.0008C126.104 28.0008 124.429 28.3342 122.865 28.9821C121.302 29.6299 119.882 30.5795 118.685 31.7765L100.559 49.9118L123.557 72.9096C126.26 71.9914 129.167 71.848 131.948 72.4958C134.729 73.1435 137.274 74.5565 139.293 76.575C141.324 78.6081 142.742 81.1717 143.385 83.9728C144.027 86.7738 143.868 89.699 142.926 92.414L165.099 114.58C167.815 113.637 170.741 113.478 173.543 114.122C176.345 114.766 178.908 116.186 180.94 118.22C182.363 119.643 183.492 121.332 184.263 123.191C185.033 125.05 185.429 127.043 185.429 129.056C185.429 131.068 185.033 133.061 184.263 134.92C183.492 136.78 182.363 138.469 180.94 139.892C178.063 142.766 174.162 144.381 170.095 144.381C166.028 144.381 162.128 142.766 159.25 139.892C157.113 137.751 155.657 135.026 155.065 132.059C154.473 129.092 154.772 126.016 155.925 123.219L135.247 102.548V156.956C137.43 158.034 139.324 159.617 140.773 161.573C142.222 163.529 143.184 165.802 143.58 168.204C143.976 170.606 143.793 173.067 143.048 175.385C142.303 177.702 141.017 179.809 139.296 181.53C137.873 182.953 136.183 184.082 134.324 184.852C132.465 185.623 130.472 186.019 128.459 186.019C126.447 186.019 124.454 185.623 122.595 184.852C120.736 184.082 119.046 182.953 117.623 181.53C116.2 180.107 115.07 178.418 114.3 176.558C113.53 174.699 113.133 172.706 113.133 170.693C113.133 168.68 113.53 166.687 114.3 164.827C115.07 162.968 116.2 161.279 117.623 159.856C119.057 158.419 120.762 157.28 122.638 156.506V101.597C120.769 100.827 119.071 99.6959 117.641 98.2678C116.211 96.8398 115.077 95.1432 114.304 93.2756C113.531 91.408 113.135 89.4062 113.139 87.3851C113.142 85.364 113.545 83.3634 114.324 81.4984L91.6479 58.8184L31.7656 118.685C29.3526 121.103 27.9973 124.38 27.9973 127.796C27.9973 131.211 29.3526 134.488 31.7656 136.906L119.095 224.235C121.512 226.647 124.788 228.002 128.204 228.002C131.619 228.002 134.895 226.647 137.313 224.235L224.232 137.315C226.645 134.897 228.001 131.621 228.001 128.205C228.001 124.789 226.645 121.512 224.232 119.095Z" fill="white"/>
</g>
</g>
<defs>
<clipPath id="clip0_24_627">
<rect width="256" height="256" fill="white"/>
</clipPath>
</defs>
</svg>
