<svg width="256" height="256" viewBox="0 0 256 256" fill="none" xmlns="http://www.w3.org/2000/svg">
<g clip-path="url(#clip0_24_635)">
<path d="M196 0H60C26.8629 0 0 26.8629 0 60V196C0 229.137 26.8629 256 60 256H196C229.137 256 256 229.137 256 196V60C256 26.8629 229.137 0 196 0Z" fill="#F4F2ED"/>
<mask id="mask0_24_635" style="mask-type:luminance" maskUnits="userSpaceOnUse" x="28" y="28" width="200" height="200">
<path d="M28 28H228V228H28V28Z" fill="white"/>
</mask>
<g mask="url(#mask0_24_635)">
<path d="M224.232 119.095L136.908 31.7764C135.711 30.5794 134.291 29.6299 132.728 28.982C131.164 28.3342 129.489 28.0007 127.796 28.0007C126.104 28.0007 124.429 28.3342 122.865 28.982C121.302 29.6299 119.882 30.5794 118.685 31.7764L100.559 49.9117L123.557 72.9096C126.26 71.9913 129.167 71.8479 131.948 72.4957C134.729 73.1435 137.273 74.5565 139.293 76.5749C141.324 78.608 142.742 81.1717 143.384 83.9727C144.027 86.7737 143.868 89.699 142.926 92.4139L165.099 114.58C167.814 113.637 170.741 113.478 173.543 114.122C176.345 114.766 178.908 116.186 180.94 118.22C182.363 119.642 183.492 121.332 184.262 123.191C185.033 125.05 185.429 127.043 185.429 129.056C185.429 131.068 185.033 133.061 184.262 134.92C183.492 136.78 182.363 138.469 180.94 139.892C178.063 142.766 174.162 144.381 170.095 144.381C166.028 144.381 162.128 142.766 159.25 139.892C157.113 137.751 155.657 135.025 155.065 132.059C154.473 129.092 154.772 126.016 155.925 123.219L135.247 102.548V156.956C137.429 158.034 139.324 159.617 140.773 161.573C142.222 163.529 143.184 165.802 143.58 168.204C143.976 170.606 143.793 173.067 143.048 175.385C142.303 177.702 141.017 179.809 139.295 181.53C137.872 182.953 136.183 184.082 134.324 184.852C132.465 185.623 130.472 186.019 128.459 186.019C126.447 186.019 124.454 185.623 122.595 184.852C120.735 184.082 119.046 182.953 117.623 181.53C116.2 180.107 115.07 178.417 114.3 176.558C113.53 174.699 113.133 172.705 113.133 170.693C113.133 168.68 113.53 166.687 114.3 164.827C115.07 162.968 116.2 161.278 117.623 159.855C119.057 158.419 120.762 157.28 122.638 156.506V101.597C120.769 100.827 119.071 99.6958 117.641 98.2678C116.21 96.8397 115.076 95.1432 114.304 93.2756C113.531 91.408 113.135 89.4061 113.139 87.385C113.142 85.3639 113.545 83.3634 114.323 81.4984L91.6478 58.8183L31.7655 118.685C29.3525 121.103 27.9972 124.38 27.9972 127.795C27.9972 131.211 29.3525 134.488 31.7655 136.906L119.095 224.235C121.512 226.647 124.788 228.002 128.204 228.002C131.619 228.002 134.895 226.647 137.313 224.235L224.232 137.315C226.645 134.897 228.001 131.621 228.001 128.205C228.001 124.789 226.645 121.512 224.232 119.095Z" fill="#F03C2E"/>
</g>
</g>
<defs>
<clipPath id="clip0_24_635">
<rect width="256" height="256" fill="white"/>
</clipPath>
</defs>
</svg>
