<?xml version="1.0" encoding="UTF-8" standalone="no"?>
<svg
   width="256"
   height="256"
   viewBox="0 0 256 256"
   fill="none"
   version="1.1"
   id="svg884"
   sodipodi:docname="Gitea-Dark.svg"
   inkscape:version="1.1 (c68e22c387, 2021-05-23)"
   xmlns:inkscape="http://www.inkscape.org/namespaces/inkscape"
   xmlns:sodipodi="http://sodipodi.sourceforge.net/DTD/sodipodi-0.dtd"
   xmlns="http://www.w3.org/2000/svg"
   xmlns:svg="http://www.w3.org/2000/svg">
  <defs
     id="defs888" />
  <sodipodi:namedview
     id="namedview886"
     pagecolor="#505050"
     bordercolor="#ffffff"
     borderopacity="1"
     inkscape:pageshadow="0"
     inkscape:pageopacity="0"
     inkscape:pagecheckerboard="1"
     showgrid="false"
     inkscape:zoom="4.5664062"
     inkscape:cx="131.28486"
     inkscape:cy="129.31394"
     inkscape:window-width="3440"
     inkscape:window-height="1377"
     inkscape:window-x="1016"
     inkscape:window-y="32"
     inkscape:window-maximized="1"
     inkscape:current-layer="svg884" />
  <rect
     width="256"
     height="256"
     rx="60"
     fill="#242938"
     id="rect868" />
  <g
     id="g1145"
     transform="matrix(0.39557384,0,0,0.39557384,1.3422251,-1.6307583)">
    <path
       style="fill:#ffffff"
       d="M 395.9,484.2 269,423.2 c -12.5,-6 -17.9,-21.2 -11.8,-33.8 l 61,-126.9 c 6,-12.5 21.2,-17.9 33.8,-11.8 17.2,8.3 27.1,13 27.1,13 l -0.1,-109.2 16.7,-0.1 0.1,117.1 c 0,0 57.4,24.2 83.1,40.1 3.7,2.3 10.2,6.8 12.9,14.4 2.1,6.1 2,13.1 -1,19.3 l -61,126.9 c -6.2,12.7 -21.4,18.1 -33.9,12 z"
       id="path1130" />
    <path
       style="fill:#609926"
       d="m 622.7,149.8 c -4.1,-4.1 -9.6,-4 -9.6,-4 0,0 -117.2,6.6 -177.9,8 -13.3,0.3 -26.5,0.6 -39.6,0.7 v 117.2 c -5.5,-2.6 -11.1,-5.3 -16.6,-7.9 0,-36.4 -0.1,-109.2 -0.1,-109.2 -29,0.4 -89.2,-2.2 -89.2,-2.2 0,0 -141.4,-7.1 -156.8,-8.5 -9.8,-0.6 -22.5,-2.1 -39,1.5 -8.7,1.8 -33.5,7.4 -53.8,26.9 -45,40.1 -33.5,103.9 -32.1,113.5 1.7,11.7 6.9,44.2 31.7,72.5 45.8,56.1 144.4,54.8 144.4,54.8 0,0 12.1,28.9 30.6,55.5 25,33.1 50.7,58.9 75.7,62 63,0 188.9,-0.1 188.9,-0.1 0,0 12,0.1 28.3,-10.3 14,-8.5 26.5,-23.4 26.5,-23.4 0,0 12.9,-13.8 30.9,-45.3 5.5,-9.7 10.1,-19.1 14.1,-28 0,0 55.2,-117.1 55.2,-231.1 -1.1,-34.5 -9.6,-40.6 -11.6,-42.6 z M 125.6,353.9 c -25.9,-8.5 -36.9,-18.7 -36.9,-18.7 0,0 -19.1,-13.4 -28.7,-39.8 -16.5,-44.2 -1.4,-71.2 -1.4,-71.2 0,0 8.4,-22.5 38.5,-30 13.8,-3.7 31,-3.1 31,-3.1 0,0 7.1,59.4 15.7,94.2 7.2,29.2 24.8,77.7 24.8,77.7 0,0 -26.1,-3.1 -43,-9.1 z m 300.3,107.6 c 0,0 -6.1,14.5 -19.6,15.4 -5.8,0.4 -10.3,-1.2 -10.3,-1.2 0,0 -0.3,-0.1 -5.3,-2.1 l -112.9,-55 c 0,0 -10.9,-5.7 -12.8,-15.6 -2.2,-8.1 2.7,-18.1 2.7,-18.1 L 322,273 c 0,0 4.8,-9.7 12.2,-13 0.6,-0.3 2.3,-1 4.5,-1.5 8.1,-2.1 18,2.8 18,2.8 L 467.4,315 c 0,0 12.6,5.7 15.3,16.2 1.9,7.4 -0.5,14 -1.8,17.2 -6.3,15.4 -55,113.1 -55,113.1 z"
       id="path1132" />
    <path
       style="fill:#609926"
       d="m 326.8,380.1 c -8.2,0.1 -15.4,5.8 -17.3,13.8 -1.9,8 2,16.3 9.1,20 7.7,4 17.5,1.8 22.7,-5.4 5.1,-7.1 4.3,-16.9 -1.8,-23.1 l 24,-49.1 c 1.5,0.1 3.7,0.2 6.2,-0.5 4.1,-0.9 7.1,-3.6 7.1,-3.6 4.2,1.8 8.6,3.8 13.2,6.1 4.8,2.4 9.3,4.9 13.4,7.3 0.9,0.5 1.8,1.1 2.8,1.9 1.6,1.3 3.4,3.1 4.7,5.5 1.9,5.5 -1.9,14.9 -1.9,14.9 -2.3,7.6 -18.4,40.6 -18.4,40.6 -8.1,-0.2 -15.3,5 -17.7,12.5 -2.6,8.1 1.1,17.3 8.9,21.3 7.8,4 17.4,1.7 22.5,-5.3 5,-6.8 4.6,-16.3 -1.1,-22.6 1.9,-3.7 3.7,-7.4 5.6,-11.3 5,-10.4 13.5,-30.4 13.5,-30.4 0.9,-1.7 5.7,-10.3 2.7,-21.3 -2.5,-11.4 -12.6,-16.7 -12.6,-16.7 -12.2,-7.9 -29.2,-15.2 -29.2,-15.2 0,0 0,-4.1 -1.1,-7.1 -1.1,-3.1 -2.8,-5.1 -3.9,-6.3 4.7,-9.7 9.4,-19.3 14.1,-29 -4.1,-2 -8.1,-4 -12.2,-6.1 -4.8,9.8 -9.7,19.7 -14.5,29.5 -6.7,-0.1 -12.9,3.5 -16.1,9.4 -3.4,6.3 -2.7,14.1 1.9,19.8 z"
       id="path1134" />
  </g>
</svg>
