<svg width="256" height="256" viewBox="0 0 256 256" fill="none" xmlns="http://www.w3.org/2000/svg">
<g clip-path="url(#clip0_10_342)">
<path d="M196 0H60C26.8629 0 0 26.8629 0 60V196C0 229.137 26.8629 256 60 256H196C229.137 256 256 229.137 256 196V60C256 26.8629 229.137 0 196 0Z" fill="#242938"/>
<path fill-rule="evenodd" clip-rule="evenodd" d="M128.083 30C72.7396 30 28 75.0694 28 130.826C28 175.396 56.6662 213.123 96.4338 226.476C101.406 227.48 103.227 224.306 103.227 221.637C103.227 219.3 103.063 211.288 103.063 202.939C75.2225 208.95 69.4249 190.92 69.4249 190.92C64.9508 179.235 58.3215 176.232 58.3215 176.232C49.2092 170.055 58.9852 170.055 58.9852 170.055C69.093 170.723 74.3969 180.405 74.3969 180.405C83.3432 195.761 97.7592 191.422 103.559 188.751C104.386 182.24 107.039 177.733 109.856 175.23C87.6514 172.893 64.2891 164.213 64.2891 125.484C64.2891 114.466 68.2634 105.452 74.5608 98.442C73.5672 95.9386 70.0866 85.587 75.5564 71.7322C75.5564 71.7322 84.0069 69.0608 103.061 82.0818C111.219 79.8747 119.632 78.752 128.083 78.7426C136.533 78.7426 145.148 79.9123 153.102 82.0818C172.159 69.0608 180.609 71.7322 180.609 71.7322C186.079 85.587 182.596 95.9386 181.603 98.442C188.066 105.452 191.876 114.466 191.876 125.484C191.876 164.213 168.514 172.725 146.143 175.23C149.79 178.401 152.936 184.41 152.936 193.926C152.936 207.446 152.773 218.298 152.773 221.635C152.773 224.306 154.596 227.48 159.566 226.478C199.333 213.121 228 175.396 228 130.826C228.163 75.0694 183.26 30 128.083 30Z" fill="white"/>
</g>
<defs>
<clipPath id="clip0_10_342">
<rect width="256" height="256" fill="white"/>
</clipPath>
</defs>
</svg>
