<svg width="256" height="256" viewBox="0 0 256 256" fill="none" xmlns="http://www.w3.org/2000/svg">
<g clip-path="url(#clip0_10_357)">
<path d="M196 0H60C26.8629 0 0 26.8629 0 60V196C0 229.137 26.8629 256 60 256H196C229.137 256 256 229.137 256 196V60C256 26.8629 229.137 0 196 0Z" fill="#F4F2ED"/>
<path d="M224.671 108.242L224.39 107.523L197.168 36.4808C196.614 35.0884 195.634 33.9072 194.367 33.1067C193.099 32.3198 191.621 31.9408 190.131 32.0209C188.641 32.101 187.212 32.6363 186.036 33.5545C184.873 34.4991 184.029 35.779 183.62 37.2201L165.24 93.4545H90.8124L72.4321 37.2201C72.0335 35.7712 71.1881 34.4848 70.0162 33.5441C68.8402 32.6259 67.4109 32.0906 65.9211 32.0105C64.4312 31.9304 62.9527 32.3094 61.6851 33.0963C60.4212 33.9 59.4414 35.0802 58.8838 36.4704L31.6102 107.482L31.3394 108.2C27.4208 118.439 26.9371 129.675 29.9613 140.212C32.9855 150.75 39.3537 160.019 48.1056 166.622L48.1993 166.694L48.4493 166.872L89.9169 197.925L110.432 213.452L122.928 222.887C124.39 223.997 126.175 224.598 128.01 224.598C129.846 224.598 131.631 223.997 133.092 222.887L145.589 213.452L166.104 197.925L207.821 166.684L207.926 166.601C216.658 159.997 223.011 150.738 226.031 140.214C229.05 129.69 228.573 118.471 224.671 108.242Z" fill="#E24329"/>
<path d="M224.671 108.242L224.39 107.523C211.126 110.246 198.627 115.864 187.785 123.977L128 169.183C148.359 184.585 166.083 197.967 166.083 197.967L207.801 166.726L207.905 166.642C216.65 160.039 223.013 150.773 226.037 140.241C229.06 129.708 228.581 118.479 224.671 108.242Z" fill="#FC6D26"/>
<path d="M89.917 197.967L110.432 213.494L122.929 222.929C124.39 224.039 126.175 224.639 128.011 224.639C129.846 224.639 131.631 224.039 133.092 222.929L145.589 213.494L166.104 197.967C166.104 197.967 148.359 184.544 128 169.183C107.641 184.544 89.917 197.967 89.917 197.967Z" fill="#FCA326"/>
<path d="M68.2042 123.977C57.3717 115.848 44.8753 110.215 31.6102 107.482L31.3394 108.2C27.4208 118.439 26.9371 129.674 29.9613 140.212C32.9855 150.75 39.3537 160.019 48.1056 166.621L48.1993 166.694L48.4493 166.871L89.9169 197.925C89.9169 197.925 107.62 184.544 128 169.142L68.2042 123.977Z" fill="#FC6D26"/>
</g>
<defs>
<clipPath id="clip0_10_357">
<rect width="256" height="256" fill="white"/>
</clipPath>
</defs>
</svg>
