<svg width="256" height="256" viewBox="0 0 256 256" fill="none" xmlns="http://www.w3.org/2000/svg">
<g clip-path="url(#clip0_10_348)">
<path d="M196 0H60C26.8629 0 0 26.8629 0 60V196C0 229.137 26.8629 256 60 256H196C229.137 256 256 229.137 256 196V60C256 26.8629 229.137 0 196 0Z" fill="#242938"/>
<path d="M224.678 108.245L224.397 107.526L197.175 36.4809C196.621 35.0885 195.64 33.9073 194.373 33.1068C193.106 32.3198 191.627 31.9408 190.137 32.0209C188.647 32.101 187.218 32.6363 186.042 33.5546C184.879 34.4992 184.035 35.7792 183.626 37.2203L165.245 93.4568H90.8148L72.4339 37.2203C72.0352 35.7713 71.1898 34.4849 70.0178 33.5442C68.8418 32.6259 67.4124 32.0906 65.9225 32.0105C64.4326 31.9304 62.9541 32.3094 61.6864 33.0963C60.4224 33.9001 59.4426 35.0803 58.885 36.4705L31.6103 107.485L31.3396 108.203C27.4208 118.443 26.937 129.678 29.9614 140.216C32.9857 150.755 39.3541 160.024 48.1064 166.627L48.2001 166.7L48.45 166.877L89.9192 197.932L110.435 213.459L122.932 222.894C124.394 224.004 126.179 224.605 128.014 224.605C129.85 224.605 131.635 224.004 133.096 222.894L145.593 213.459L166.109 197.932L207.828 166.689L207.933 166.606C216.665 160.002 223.019 150.742 226.038 140.218C229.058 129.694 228.581 118.474 224.678 108.245Z" fill="white"/>
</g>
<defs>
<clipPath id="clip0_10_348">
<rect width="256" height="256" fill="white"/>
</clipPath>
</defs>
</svg>
