<svg width="256" height="256" viewBox="0 0 256 256" fill="none" xmlns="http://www.w3.org/2000/svg">
<rect width="256" height="256" rx="60" fill="#242938"/>
<path d="M 128 220 L 165.562 106.808 L 90.442 106.808 L 128 219.996 L 128 220 Z" fill="#E24329"/>
<path d="M 128 220 L 90.442 106.808 L 37.801 106.808 L 128 219.996 L 128 220 Z" fill="#FC6D26"/>
<path d="M 37.801 106.805 L 26.383 141.205 C 25.34 144.341 26.477 147.779 29.205 149.718 L 128 220 L 37.801 106.808 L 37.801 106.805 Z" fill="#FCA326"/>
<path d="M 37.801 106.805 L 90.442 106.805 L 67.818 38.629 C 66.654 35.123 61.583 35.123 60.421 38.629 L 37.801 106.808 L 37.801 106.805 Z" fill="#E24329"/>
<path d="M 128 220 L 165.562 106.808 L 218.205 106.808 L 128 219.996 L 128 220 Z" fill="#FC6D26"/>
<path d="M 218.203 106.805 L 229.619 141.205 C 230.66 144.341 229.519 147.779 226.795 149.718 L 128 220 L 218.203 106.808 L 218.203 106.805 Z" fill="#FCA326"/>
<path d="M 218.203 106.805 L 165.563 106.805 L 188.185 38.63 C 189.35 35.124 194.42 35.124 195.582 38.63 L 218.206 106.808 L 218.203 106.805 Z" fill="#E24329"/>
</svg>