<svg width="256" height="256" viewBox="0 0 256 256" fill="none" xmlns="http://www.w3.org/2000/svg">
<rect width="256" height="256" rx="60" fill="#F4F2ED"/>
<path d="M41.6364 203.039H73.4545V125.766L28 91.6753V189.403C28 196.948 34.1136 203.039 41.6364 203.039Z" fill="#4285F4"/>
<path d="M182.545 203.039H214.364C221.909 203.039 228 196.925 228 189.403V91.6753L182.545 125.766" fill="#34A853"/>
<path d="M182.545 66.6751V125.766L228 91.6751V73.4932C228 56.6296 208.75 47.016 195.273 57.1296" fill="#FBBC04"/>
<path d="M73.4545 125.766V66.6753L128 107.584L182.545 66.6753V125.766L128 166.675" fill="#EA4335"/>
<path d="M28 73.4932V91.6751L73.4545 125.766V66.6751L60.7273 57.1296C47.2273 47.016 28 56.6296 28 73.4932Z" fill="#C5221F"/>
</svg>
