<svg width="256" height="256" viewBox="0 0 256 256" fill="none" xmlns="http://www.w3.org/2000/svg">
<path d="M196 0H60C26.8629 0 0 26.8629 0 60V196C0 229.137 26.8629 256 60 256H196C229.137 256 256 229.137 256 196V60C256 26.8629 229.137 0 196 0Z" fill="#242938"/>
<path d="M204.602 105.225L228.571 158.381L187.547 228.571L162.278 167.223L204.602 105.225Z" fill="url(#paint0_linear_1_5)"/>
<path d="M162.278 167.223L187.547 228.571L123.977 206.718L162.278 167.223Z" fill="#B74AF7"/>
<path d="M169.13 84.2305L156.097 27.4286H83.8324L27.4286 113.71L43.7505 153.352L27.4286 189.537L144.238 90.16L169.13 84.2305Z" fill="url(#paint1_linear_1_5)"/>
<path d="M228.571 70.1295L144.238 90.16L27.4286 189.537L102.773 228.571L162.278 167.223L228.571 70.1295Z" fill="url(#paint2_linear_1_5)"/>
<path d="M65.1429 65.1429H190.857V190.857H65.1429V65.1429Z" fill="black"/>
<path d="M76.939 167.286H124.082V175.143H76.939V167.286Z" fill="white"/>
<path d="M73.3981 107.697V107.55C73.3861 104.001 74.0844 100.485 75.4519 97.2092C76.8194 93.9336 78.8285 90.9647 81.3608 88.4773C83.8931 85.9899 86.8974 84.0343 90.197 82.7256C93.4965 81.417 97.0245 80.7817 100.573 80.8571C108.037 80.4638 115.357 83.0141 120.96 87.96L113.773 96.6343C110.13 93.15 105.258 91.245 100.217 91.3333C91.8362 91.3333 85.32 98.6667 85.32 107.467V107.613C85.32 117.105 91.8362 124.061 101.034 124.061C104.849 124.173 108.603 123.081 111.762 120.939V113.48H100.28V103.632H122.762V126.135C116.617 131.465 108.75 134.39 100.615 134.37C84.5029 134.37 73.3981 123.034 73.3981 107.697Z" fill="white"/>
<path d="M127.581 107.697V107.55C127.593 103.968 128.323 100.425 129.729 97.1303C131.134 93.8354 133.185 90.8556 135.761 88.3671C138.338 85.8785 141.387 83.9318 144.729 82.6419C148.07 81.352 151.637 80.7451 155.217 80.8571C171.204 80.8571 182.686 92.7791 182.686 107.509V107.655C182.69 111.246 181.973 114.801 180.577 118.109C179.18 121.417 177.134 124.411 174.558 126.913C171.982 129.415 168.929 131.373 165.582 132.672C162.234 133.971 158.66 134.584 155.07 134.474C139.063 134.37 127.581 122.448 127.581 107.697ZM170.764 107.697V107.55C170.828 105.447 170.47 103.353 169.711 101.391C168.952 99.4282 167.807 97.6382 166.344 96.1262C164.88 94.6142 163.129 93.411 161.193 92.5877C159.256 91.7645 157.175 91.3379 155.07 91.3333C152.982 91.3263 150.914 91.7411 148.99 92.5529C147.067 93.3647 145.326 94.5568 143.875 96.0576C142.423 97.5584 141.289 99.337 140.541 101.287C139.794 103.236 139.448 105.317 139.524 107.404V107.55C139.451 109.661 139.803 111.766 140.559 113.738C141.316 115.71 142.461 117.51 143.927 119.031C145.393 120.551 147.15 121.762 149.093 122.59C151.036 123.418 153.126 123.847 155.238 123.851C157.332 123.856 159.405 123.437 161.332 122.618C163.259 121.8 165.001 120.6 166.452 119.091C167.902 117.581 169.032 115.793 169.774 113.835C170.515 111.877 170.852 109.789 170.764 107.697Z" fill="white"/>
<defs>
<linearGradient id="paint0_linear_1_5" x1="219.226" y1="87.3922" x2="101.676" y2="272.504" gradientUnits="userSpaceOnUse">
<stop stop-color="#087CFA"/>
<stop offset="0.02" stop-color="#0D7BFA"/>
<stop offset="0.37" stop-color="#5566F9"/>
<stop offset="0.66" stop-color="#8A57F8"/>
<stop offset="0.88" stop-color="#AB4EF7"/>
<stop offset="1" stop-color="#B74AF7"/>
</linearGradient>
<linearGradient id="paint1_linear_1_5" x1="125.695" y1="104.797" x2="183.42" y2="29.6599" gradientUnits="userSpaceOnUse">
<stop stop-color="#087CFA"/>
<stop offset="0.02" stop-color="#0D7BFA"/>
<stop offset="0.37" stop-color="#5566F9"/>
<stop offset="0.66" stop-color="#8A57F8"/>
<stop offset="0.88" stop-color="#AB4EF7"/>
<stop offset="1" stop-color="#B74AF7"/>
</linearGradient>
<linearGradient id="paint2_linear_1_5" x1="55.3791" y1="196.28" x2="218.575" y2="113.673" gradientUnits="userSpaceOnUse">
<stop stop-color="#087CFA"/>
<stop offset="0.1" stop-color="#1598D3"/>
<stop offset="0.22" stop-color="#23B6AA"/>
<stop offset="0.35" stop-color="#2DCC8B"/>
<stop offset="0.46" stop-color="#35DD74"/>
<stop offset="0.57" stop-color="#39E767"/>
<stop offset="0.67" stop-color="#3BEA62"/>
</linearGradient>
</defs>
</svg>
