
<svg xmlns="http://www.w3.org/2000/svg" xmlns:xlink="http://www.w3.org/1999/xlink" width="256" zoomAndPan="magnify" viewBox="0 0 375 374.999991" height="256" preserveAspectRatio="xMidYMid meet" version="1.0">
<defs>
<clipPath id="cbd89a16d9">
<path d="M 75 0 L 300 0 C 341.421875 0 375 33.578125 375 75 L 375 304.027344 C 375 345.445312 341.421875 379.027344 300 379.027344 L 75 379.027344 C 33.578125 379.027344 0 345.445312 0 304.027344 L 0 75 C 0 33.578125 33.578125 0 75 0 " clip-rule="nonzero"/>
</clipPath>
<clipPath id="116211f51a">
<path d="M 237 64.5625 L 298.382812 64.5625 L 298.382812 310.5625 L 237 310.5625 Z M 237 64.5625 " clip-rule="nonzero"/>
</clipPath>
<clipPath id="caa561e4a8">
<path d="M 76.382812 157 L 218 157 L 218 310.5625 L 76.382812 310.5625 Z M 76.382812 157 " clip-rule="nonzero"/>
</clipPath>
</defs>
<g clip-path="url(#cbd89a16d9)">
<path fill="#242938" d="M 0 0 L 374.414062 0 L 374.414062 379.6875 L 0 379.6875 Z M 0 0 " fill-opacity="1" fill-rule="nonzero"/>
</g>
<g clip-path="url(#116211f51a)">
<path fill="#f9ab00" d="M 298.316406 279.777344 C 298.324219 280.777344 298.28125 281.777344 298.1875 282.773438 C 298.09375 283.769531 297.953125 284.761719 297.761719 285.742188 C 297.574219 286.726562 297.335938 287.699219 297.050781 288.65625 C 296.765625 289.617188 296.433594 290.5625 296.054688 291.488281 C 295.679688 292.414062 295.257812 293.320312 294.789062 294.207031 C 294.324219 295.09375 293.8125 295.953125 293.261719 296.789062 C 292.710938 297.625 292.121094 298.429688 291.492188 299.207031 C 290.859375 299.984375 290.195312 300.730469 289.492188 301.441406 C 288.789062 302.152344 288.050781 302.828125 287.28125 303.46875 C 286.511719 304.105469 285.714844 304.707031 284.886719 305.269531 C 284.058594 305.828125 283.203125 306.347656 282.324219 306.824219 C 281.445312 307.300781 280.542969 307.734375 279.621094 308.121094 C 278.703125 308.507812 277.761719 308.851562 276.808594 309.148438 C 275.851562 309.441406 274.886719 309.691406 273.90625 309.890625 C 272.925781 310.089844 271.941406 310.242188 270.945312 310.347656 C 269.949219 310.449219 268.953125 310.503906 267.953125 310.507812 C 266.695312 310.519531 265.445312 310.449219 264.195312 310.296875 C 263.261719 310.160156 262.335938 309.976562 261.417969 309.753906 C 260.496094 309.53125 259.589844 309.269531 258.695312 308.964844 C 257.800781 308.660156 256.921875 308.316406 256.058594 307.929688 C 255.195312 307.546875 254.351562 307.121094 253.523438 306.660156 C 252.699219 306.199219 251.898438 305.703125 251.117188 305.167969 C 250.335938 304.632812 249.582031 304.066406 248.851562 303.464844 C 248.125 302.859375 247.421875 302.226562 246.75 301.5625 C 246.078125 300.894531 245.441406 300.199219 244.832031 299.476562 C 244.222656 298.75 243.648438 298 243.105469 297.226562 C 242.566406 296.449219 242.0625 295.648438 241.59375 294.828125 C 241.125 294.003906 240.691406 293.164062 240.300781 292.304688 C 239.90625 291.441406 239.554688 290.566406 239.242188 289.671875 C 238.929688 288.777344 238.65625 287.871094 238.425781 286.957031 C 238.191406 286.039062 238.003906 285.109375 237.855469 284.175781 C 237.707031 283.242188 237.605469 282.300781 237.542969 281.355469 C 237.480469 280.410156 237.457031 279.464844 237.480469 278.519531 L 237.480469 96.550781 C 237.460938 95.601562 237.480469 94.65625 237.542969 93.710938 C 237.605469 92.765625 237.710938 91.824219 237.859375 90.886719 C 238.007812 89.953125 238.199219 89.027344 238.429688 88.105469 C 238.664062 87.1875 238.9375 86.28125 239.25 85.390625 C 239.5625 84.496094 239.917969 83.617188 240.3125 82.757812 C 240.707031 81.894531 241.136719 81.054688 241.605469 80.230469 C 242.078125 79.40625 242.582031 78.609375 243.125 77.832031 C 243.667969 77.054688 244.242188 76.304688 244.851562 75.582031 C 245.460938 74.855469 246.105469 74.160156 246.777344 73.496094 C 247.449219 72.832031 248.152344 72.195312 248.882812 71.59375 C 249.613281 70.992188 250.367188 70.421875 251.148438 69.890625 C 251.929688 69.355469 252.734375 68.859375 253.5625 68.398438 C 254.386719 67.9375 255.234375 67.515625 256.097656 67.132812 C 256.964844 66.746094 257.84375 66.402344 258.738281 66.097656 C 259.636719 65.796875 260.542969 65.53125 261.460938 65.3125 C 262.382812 65.089844 263.308594 64.910156 264.246094 64.773438 C 265.316406 64.644531 266.390625 64.574219 267.46875 64.5625 C 268.542969 64.550781 269.621094 64.59375 270.691406 64.695312 C 271.765625 64.796875 272.828125 64.953125 273.886719 65.167969 C 274.941406 65.382812 275.984375 65.652344 277.011719 65.976562 C 278.039062 66.304688 279.046875 66.683594 280.03125 67.113281 C 281.019531 67.546875 281.980469 68.027344 282.917969 68.5625 C 283.855469 69.097656 284.761719 69.679688 285.632812 70.308594 C 286.507812 70.941406 287.347656 71.613281 288.152344 72.332031 C 288.953125 73.054688 289.71875 73.8125 290.441406 74.613281 C 291.164062 75.414062 291.839844 76.25 292.476562 77.121094 C 293.109375 77.996094 293.695312 78.898438 294.234375 79.832031 C 294.773438 80.769531 295.261719 81.726562 295.699219 82.714844 C 296.132812 83.703125 296.519531 84.707031 296.847656 85.734375 C 297.179688 86.761719 297.453125 87.804688 297.675781 88.859375 C 297.894531 89.917969 298.058594 90.984375 298.164062 92.054688 C 298.273438 93.128906 298.320312 94.207031 298.316406 95.285156 Z M 298.316406 279.777344 " fill-opacity="1" fill-rule="nonzero"/>
</g>
<g clip-path="url(#caa561e4a8)">
<path fill="#e37400" d="M 106.871094 249.621094 C 107.867188 249.621094 108.859375 249.667969 109.851562 249.765625 C 110.84375 249.863281 111.828125 250.011719 112.804688 250.207031 C 113.78125 250.398438 114.75 250.640625 115.703125 250.933594 C 116.65625 251.222656 117.59375 251.558594 118.511719 251.9375 C 119.433594 252.320312 120.332031 252.746094 121.210938 253.21875 C 122.089844 253.6875 122.945312 254.199219 123.773438 254.753906 C 124.601562 255.308594 125.398438 255.902344 126.171875 256.535156 C 126.941406 257.167969 127.679688 257.839844 128.382812 258.542969 C 129.085938 259.25 129.753906 259.988281 130.386719 260.761719 C 131.019531 261.53125 131.613281 262.332031 132.167969 263.164062 C 132.71875 263.992188 133.230469 264.847656 133.699219 265.726562 C 134.171875 266.605469 134.597656 267.507812 134.976562 268.429688 C 135.359375 269.351562 135.695312 270.289062 135.984375 271.246094 C 136.273438 272.199219 136.515625 273.167969 136.707031 274.144531 C 136.902344 275.125 137.050781 276.109375 137.148438 277.105469 C 137.246094 278.097656 137.292969 279.09375 137.292969 280.089844 C 137.292969 281.089844 137.246094 282.085938 137.148438 283.078125 C 137.050781 284.070312 136.902344 285.058594 136.707031 286.035156 C 136.515625 287.015625 136.273438 287.980469 135.984375 288.9375 C 135.695312 289.890625 135.359375 290.828125 134.976562 291.75 C 134.597656 292.671875 134.171875 293.574219 133.699219 294.453125 C 133.230469 295.335938 132.71875 296.191406 132.167969 297.019531 C 131.613281 297.847656 131.019531 298.648438 130.386719 299.421875 C 129.753906 300.191406 129.085938 300.929688 128.382812 301.636719 C 127.679688 302.34375 126.941406 303.011719 126.171875 303.644531 C 125.398438 304.277344 124.601562 304.871094 123.773438 305.425781 C 122.945312 305.980469 122.089844 306.492188 121.210938 306.964844 C 120.332031 307.433594 119.433594 307.859375 118.511719 308.242188 C 117.59375 308.625 116.65625 308.960938 115.703125 309.25 C 114.75 309.539062 113.78125 309.78125 112.804688 309.976562 C 111.828125 310.171875 110.84375 310.316406 109.851562 310.414062 C 108.859375 310.511719 107.867188 310.5625 106.871094 310.5625 C 105.875 310.5625 104.878906 310.511719 103.886719 310.414062 C 102.898438 310.316406 101.914062 310.171875 100.933594 309.976562 C 99.957031 309.78125 98.992188 309.539062 98.039062 309.25 C 97.085938 308.960938 96.148438 308.625 95.226562 308.242188 C 94.308594 307.859375 93.40625 307.433594 92.53125 306.964844 C 91.652344 306.492188 90.796875 305.980469 89.96875 305.425781 C 89.140625 304.871094 88.339844 304.277344 87.570312 303.644531 C 86.800781 303.011719 86.0625 302.34375 85.359375 301.636719 C 84.652344 300.929688 83.984375 300.191406 83.351562 299.421875 C 82.722656 298.648438 82.128906 297.847656 81.574219 297.019531 C 81.019531 296.191406 80.507812 295.335938 80.039062 294.453125 C 79.570312 293.574219 79.144531 292.671875 78.761719 291.75 C 78.382812 290.828125 78.046875 289.890625 77.757812 288.9375 C 77.46875 287.980469 77.226562 287.015625 77.03125 286.035156 C 76.839844 285.058594 76.691406 284.070312 76.59375 283.078125 C 76.496094 282.085938 76.449219 281.089844 76.449219 280.089844 C 76.449219 279.09375 76.496094 278.097656 76.59375 277.105469 C 76.691406 276.109375 76.839844 275.125 77.03125 274.144531 C 77.226562 273.167969 77.46875 272.199219 77.757812 271.246094 C 78.046875 270.289062 78.382812 269.351562 78.761719 268.429688 C 79.144531 267.507812 79.570312 266.605469 80.039062 265.726562 C 80.507812 264.847656 81.019531 263.992188 81.574219 263.164062 C 82.128906 262.332031 82.722656 261.53125 83.351562 260.761719 C 83.984375 259.988281 84.652344 259.25 85.359375 258.542969 C 86.0625 257.839844 86.800781 257.167969 87.570312 256.535156 C 88.339844 255.902344 89.140625 255.308594 89.96875 254.753906 C 90.796875 254.199219 91.652344 253.6875 92.53125 253.21875 C 93.40625 252.746094 94.308594 252.320312 95.226562 251.941406 C 96.148438 251.558594 97.085938 251.222656 98.039062 250.933594 C 98.992188 250.640625 99.957031 250.398438 100.933594 250.207031 C 101.914062 250.011719 102.898438 249.863281 103.886719 249.765625 C 104.878906 249.667969 105.875 249.621094 106.871094 249.621094 Z M 186.914062 157.265625 C 185.910156 157.320312 184.914062 157.425781 183.917969 157.574219 C 182.925781 157.726562 181.941406 157.925781 180.96875 158.171875 C 179.992188 158.417969 179.035156 158.710938 178.085938 159.050781 C 177.140625 159.386719 176.214844 159.773438 175.304688 160.199219 C 174.394531 160.628906 173.507812 161.097656 172.644531 161.613281 C 171.78125 162.125 170.941406 162.679688 170.132812 163.277344 C 169.320312 163.871094 168.542969 164.503906 167.792969 165.171875 C 167.042969 165.839844 166.324219 166.546875 165.644531 167.285156 C 164.960938 168.023438 164.316406 168.792969 163.707031 169.59375 C 163.101562 170.394531 162.53125 171.222656 162.003906 172.078125 C 161.472656 172.9375 160.988281 173.816406 160.542969 174.71875 C 160.101562 175.621094 159.699219 176.542969 159.34375 177.484375 C 158.988281 178.425781 158.679688 179.382812 158.417969 180.351562 C 158.152344 181.324219 157.9375 182.304688 157.769531 183.296875 C 157.597656 184.289062 157.476562 185.285156 157.402344 186.289062 C 157.332031 187.292969 157.304688 188.300781 157.328125 189.304688 L 157.328125 271.148438 C 157.328125 293.359375 167.089844 306.839844 181.386719 309.703125 C 182.367188 309.902344 183.351562 310.050781 184.34375 310.152344 C 185.335938 310.253906 186.332031 310.308594 187.332031 310.3125 C 188.328125 310.316406 189.324219 310.269531 190.320312 310.175781 C 191.3125 310.082031 192.300781 309.9375 193.277344 309.746094 C 194.257812 309.558594 195.226562 309.316406 196.183594 309.03125 C 197.136719 308.746094 198.078125 308.410156 199.003906 308.03125 C 199.925781 307.652344 200.828125 307.230469 201.710938 306.761719 C 202.59375 306.292969 203.449219 305.78125 204.28125 305.230469 C 205.113281 304.679688 205.914062 304.085938 206.691406 303.453125 C 207.464844 302.824219 208.203125 302.15625 208.914062 301.449219 C 209.621094 300.746094 210.292969 300.007812 210.929688 299.238281 C 211.566406 298.46875 212.160156 297.667969 212.71875 296.839844 C 213.277344 296.007812 213.792969 295.15625 214.265625 294.273438 C 214.738281 293.394531 215.167969 292.492188 215.554688 291.570312 C 215.9375 290.648438 216.277344 289.710938 216.570312 288.753906 C 216.863281 287.796875 217.109375 286.832031 217.304688 285.851562 C 217.722656 283.820312 217.925781 281.773438 217.914062 279.699219 L 217.914062 187.898438 C 217.914062 186.898438 217.867188 185.898438 217.773438 184.902344 C 217.675781 183.90625 217.53125 182.917969 217.339844 181.933594 C 217.144531 180.953125 216.90625 179.980469 216.617188 179.023438 C 216.328125 178.0625 215.992188 177.121094 215.613281 176.195312 C 215.230469 175.269531 214.804688 174.363281 214.335938 173.480469 C 213.867188 172.59375 213.355469 171.738281 212.800781 170.902344 C 212.25 170.070312 211.65625 169.265625 211.023438 168.488281 C 210.390625 167.714844 209.71875 166.972656 209.015625 166.261719 C 208.308594 165.554688 207.570312 164.878906 206.796875 164.242188 C 206.027344 163.605469 205.226562 163.007812 204.394531 162.449219 C 203.566406 161.894531 202.710938 161.378906 201.828125 160.902344 C 200.949219 160.429688 200.046875 160 199.125 159.617188 C 198.199219 159.230469 197.261719 158.890625 196.304688 158.597656 C 195.347656 158.304688 194.378906 158.0625 193.398438 157.863281 C 192.417969 157.667969 191.433594 157.519531 190.4375 157.417969 C 189.441406 157.320312 188.445312 157.269531 187.445312 157.265625 Z M 186.914062 157.265625 " fill-opacity="1" fill-rule="nonzero"/>
</g>
</svg>