<svg xmlns="http://www.w3.org/2000/svg" xmlns:xlink="http://www.w3.org/1999/xlink" width="256" zoomAndPan="magnify" viewBox="0 0 375 374.999991" height="256" preserveAspectRatio="xMidYMid meet" version="1.0">
<defs>
<clipPath id="0b81156732">
<path d="M 75 0 L 300 0 C 341.421875 0 375 33.578125 375 75 L 375 304.027344 C 375 345.445312 341.421875 379.027344 300 379.027344 L 75 379.027344 C 33.578125 379.027344 0 345.445312 0 304.027344 L 0 75 C 0 33.578125 33.578125 0 75 0 " clip-rule="nonzero"/>
</clipPath>
<clipPath id="254355144f">
<path d="M 248 37.5 L 322.703125 37.5 L 322.703125 337.5 L 248 337.5 Z M 248 37.5 " clip-rule="nonzero"/>
</clipPath>
<clipPath id="17c96e6b69">
<path d="M 52 150 L 225 150 L 225 337.5 L 52 337.5 Z M 52 150 " clip-rule="nonzero"/>
</clipPath>
</defs>
<g clip-path="url(#0b81156732)">
<path fill="#f4f2ec" d="M 0 0 L 374.414062 0 L 374.414062 379.6875 L 0 379.6875 Z M 0 0 " fill-opacity="1" fill-rule="nonzero"/>
</g>
<g clip-path="url(#254355144f)">
<path fill="#f9ab00" d="M 322.660156 299.957031 C 322.667969 301.179688 322.613281 302.394531 322.5 303.613281 C 322.386719 304.828125 322.214844 306.035156 321.984375 307.234375 C 321.75 308.433594 321.460938 309.617188 321.113281 310.789062 C 320.765625 311.957031 320.363281 313.109375 319.902344 314.238281 C 319.441406 315.371094 318.925781 316.476562 318.355469 317.554688 C 317.785156 318.636719 317.164062 319.683594 316.492188 320.703125 C 315.820312 321.722656 315.101562 322.707031 314.332031 323.652344 C 313.5625 324.601562 312.75 325.511719 311.890625 326.378906 C 311.035156 327.246094 310.136719 328.070312 309.199219 328.847656 C 308.257812 329.628906 307.285156 330.359375 306.273438 331.042969 C 305.261719 331.726562 304.222656 332.359375 303.148438 332.941406 C 302.078125 333.523438 300.976562 334.050781 299.855469 334.523438 C 298.730469 334.996094 297.585938 335.414062 296.421875 335.773438 C 295.253906 336.136719 294.074219 336.4375 292.878906 336.683594 C 291.683594 336.925781 290.480469 337.113281 289.269531 337.238281 C 288.054688 337.363281 286.839844 337.429688 285.617188 337.4375 C 284.085938 337.449219 282.558594 337.363281 281.035156 337.175781 C 279.894531 337.007812 278.765625 336.789062 277.644531 336.515625 C 276.523438 336.246094 275.417969 335.921875 274.324219 335.550781 C 273.234375 335.179688 272.160156 334.757812 271.109375 334.289062 C 270.054688 333.820312 269.023438 333.304688 268.015625 332.742188 C 267.011719 332.179688 266.03125 331.574219 265.078125 330.921875 C 264.125 330.273438 263.207031 329.578125 262.316406 328.84375 C 261.425781 328.109375 260.574219 327.335938 259.753906 326.523438 C 258.933594 325.710938 258.152344 324.863281 257.410156 323.980469 C 256.667969 323.097656 255.96875 322.183594 255.308594 321.234375 C 254.648438 320.289062 254.03125 319.316406 253.460938 318.3125 C 252.886719 317.308594 252.363281 316.285156 251.882812 315.234375 C 251.40625 314.183594 250.972656 313.113281 250.59375 312.023438 C 250.210938 310.933594 249.878906 309.832031 249.597656 308.710938 C 249.3125 307.59375 249.082031 306.460938 248.902344 305.320312 C 248.722656 304.183594 248.59375 303.035156 248.519531 301.882812 C 248.441406 300.730469 248.417969 299.578125 248.445312 298.425781 L 248.445312 76.507812 C 248.417969 75.355469 248.441406 74.199219 248.519531 73.046875 C 248.597656 71.894531 248.726562 70.746094 248.90625 69.605469 C 249.089844 68.464844 249.320312 67.335938 249.601562 66.214844 C 249.886719 65.09375 250.21875 63.988281 250.601562 62.898438 C 250.988281 61.808594 251.417969 60.738281 251.898438 59.6875 C 252.378906 58.636719 252.90625 57.609375 253.476562 56.609375 C 254.050781 55.605469 254.667969 54.628906 255.328125 53.683594 C 255.992188 52.738281 256.691406 51.820312 257.4375 50.9375 C 258.179688 50.054688 258.964844 49.207031 259.785156 48.394531 C 260.605469 47.582031 261.460938 46.808594 262.351562 46.074219 C 263.242188 45.339844 264.164062 44.648438 265.117188 43.996094 C 266.070312 43.347656 267.054688 42.742188 268.0625 42.179688 C 269.070312 41.617188 270.101562 41.101562 271.15625 40.632812 C 272.210938 40.164062 273.285156 39.746094 274.378906 39.375 C 275.472656 39.003906 276.578125 38.683594 277.699219 38.414062 C 278.824219 38.144531 279.953125 37.925781 281.097656 37.757812 C 282.402344 37.601562 283.710938 37.515625 285.027344 37.5 C 286.339844 37.484375 287.652344 37.539062 288.960938 37.664062 C 290.269531 37.785156 291.566406 37.980469 292.855469 38.242188 C 294.144531 38.503906 295.414062 38.832031 296.667969 39.226562 C 297.921875 39.625 299.148438 40.085938 300.355469 40.613281 C 301.558594 41.140625 302.730469 41.726562 303.875 42.378906 C 305.015625 43.03125 306.121094 43.742188 307.1875 44.507812 C 308.253906 45.277344 309.277344 46.101562 310.257812 46.976562 C 311.238281 47.855469 312.167969 48.78125 313.050781 49.757812 C 313.933594 50.734375 314.757812 51.753906 315.53125 52.816406 C 316.308594 53.882812 317.023438 54.984375 317.679688 56.125 C 318.335938 57.261719 318.929688 58.433594 319.464844 59.636719 C 319.996094 60.839844 320.464844 62.070312 320.867188 63.320312 C 321.269531 64.574219 321.605469 65.84375 321.875 67.132812 C 322.144531 68.421875 322.34375 69.71875 322.472656 71.03125 C 322.605469 72.339844 322.664062 73.652344 322.65625 74.96875 Z M 322.660156 299.957031 " fill-opacity="1" fill-rule="nonzero"/>
</g>
<g clip-path="url(#17c96e6b69)">
<path fill="#e37400" d="M 89.113281 263.179688 C 90.328125 263.179688 91.539062 263.242188 92.75 263.359375 C 93.960938 263.480469 95.160156 263.65625 96.351562 263.894531 C 97.542969 264.132812 98.722656 264.425781 99.886719 264.78125 C 101.046875 265.132812 102.191406 265.542969 103.316406 266.007812 C 104.4375 266.476562 105.535156 266.996094 106.605469 267.570312 C 107.679688 268.140625 108.71875 268.765625 109.730469 269.441406 C 110.742188 270.121094 111.714844 270.84375 112.65625 271.617188 C 113.597656 272.386719 114.496094 273.203125 115.355469 274.066406 C 116.214844 274.925781 117.03125 275.824219 117.800781 276.765625 C 118.570312 277.707031 119.296875 278.683594 119.96875 279.695312 C 120.644531 280.707031 121.269531 281.75 121.84375 282.824219 C 122.414062 283.898438 122.933594 284.996094 123.398438 286.121094 C 123.863281 287.246094 124.273438 288.390625 124.625 289.554688 C 124.980469 290.71875 125.273438 291.898438 125.511719 293.089844 C 125.75 294.285156 125.925781 295.488281 126.046875 296.699219 C 126.164062 297.910156 126.226562 299.125 126.226562 300.339844 C 126.226562 301.558594 126.164062 302.769531 126.046875 303.984375 C 125.925781 305.195312 125.75 306.394531 125.511719 307.589844 C 125.273438 308.785156 124.980469 309.960938 124.625 311.128906 C 124.273438 312.292969 123.863281 313.4375 123.398438 314.5625 C 122.933594 315.683594 122.414062 316.785156 121.84375 317.855469 C 121.269531 318.929688 120.644531 319.972656 119.96875 320.984375 C 119.296875 321.996094 118.570312 322.972656 117.800781 323.914062 C 117.03125 324.855469 116.214844 325.753906 115.355469 326.617188 C 114.496094 327.476562 113.597656 328.292969 112.65625 329.066406 C 111.714844 329.835938 110.742188 330.5625 109.730469 331.238281 C 108.71875 331.914062 107.679688 332.539062 106.605469 333.113281 C 105.535156 333.6875 104.4375 334.207031 103.316406 334.671875 C 102.191406 335.136719 101.046875 335.546875 99.886719 335.898438 C 98.722656 336.253906 97.542969 336.546875 96.351562 336.785156 C 95.160156 337.023438 93.960938 337.203125 92.75 337.320312 C 91.539062 337.441406 90.328125 337.5 89.113281 337.5 C 87.894531 337.5 86.683594 337.441406 85.472656 337.320312 C 84.265625 337.203125 83.0625 337.023438 81.871094 336.785156 C 80.679688 336.546875 79.5 336.253906 78.339844 335.898438 C 77.175781 335.546875 76.03125 335.136719 74.910156 334.671875 C 73.785156 334.207031 72.6875 333.6875 71.617188 333.113281 C 70.546875 332.539062 69.503906 331.914062 68.492188 331.238281 C 67.484375 330.5625 66.507812 329.835938 65.566406 329.066406 C 64.628906 328.292969 63.730469 327.476562 62.867188 326.617188 C 62.007812 325.753906 61.195312 324.855469 60.421875 323.914062 C 59.652344 322.972656 58.929688 321.996094 58.253906 320.984375 C 57.578125 319.972656 56.953125 318.929688 56.382812 317.855469 C 55.808594 316.785156 55.289062 315.683594 54.824219 314.5625 C 54.359375 313.4375 53.949219 312.292969 53.597656 311.128906 C 53.246094 309.960938 52.949219 308.785156 52.710938 307.589844 C 52.476562 306.394531 52.296875 305.195312 52.175781 303.984375 C 52.058594 302.769531 52 301.558594 52 300.339844 C 52 299.125 52.058594 297.910156 52.175781 296.699219 C 52.296875 295.488281 52.476562 294.285156 52.710938 293.089844 C 52.949219 291.898438 53.246094 290.71875 53.597656 289.554688 C 53.949219 288.390625 54.359375 287.246094 54.824219 286.121094 C 55.289062 284.996094 55.808594 283.898438 56.382812 282.824219 C 56.953125 281.75 57.578125 280.707031 58.253906 279.695312 C 58.929688 278.683594 59.652344 277.707031 60.421875 276.765625 C 61.195312 275.824219 62.007812 274.925781 62.867188 274.066406 C 63.730469 273.203125 64.628906 272.386719 65.566406 271.617188 C 66.507812 270.84375 67.480469 270.121094 68.492188 269.441406 C 69.503906 268.765625 70.546875 268.140625 71.617188 267.570312 C 72.6875 266.996094 73.785156 266.476562 74.910156 266.007812 C 76.03125 265.542969 77.175781 265.132812 78.339844 264.78125 C 79.5 264.425781 80.679688 264.132812 81.871094 263.894531 C 83.0625 263.65625 84.265625 263.480469 85.472656 263.359375 C 86.683594 263.242188 87.894531 263.179688 89.113281 263.179688 Z M 186.757812 150.554688 C 185.535156 150.621094 184.316406 150.746094 183.105469 150.929688 C 181.890625 151.117188 180.691406 151.359375 179.503906 151.660156 C 178.316406 151.957031 177.144531 152.316406 175.988281 152.730469 C 174.835938 153.140625 173.703125 153.609375 172.59375 154.132812 C 171.484375 154.652344 170.402344 155.230469 169.351562 155.855469 C 168.296875 156.480469 167.273438 157.15625 166.285156 157.882812 C 165.296875 158.609375 164.34375 159.378906 163.429688 160.195312 C 162.515625 161.011719 161.640625 161.871094 160.808594 162.773438 C 159.976562 163.671875 159.191406 164.613281 158.449219 165.589844 C 157.707031 166.566406 157.011719 167.574219 156.367188 168.621094 C 155.722656 169.664062 155.128906 170.734375 154.589844 171.835938 C 154.046875 172.9375 153.558594 174.0625 153.125 175.210938 C 152.691406 176.359375 152.316406 177.523438 151.992188 178.707031 C 151.671875 179.890625 151.40625 181.089844 151.203125 182.300781 C 150.996094 183.507812 150.847656 184.726562 150.757812 185.949219 C 150.667969 187.171875 150.640625 188.398438 150.667969 189.625 L 150.667969 289.433594 C 150.667969 316.523438 162.574219 332.960938 180.015625 336.453125 C 181.210938 336.695312 182.410156 336.878906 183.621094 337.003906 C 184.835938 337.125 186.046875 337.191406 187.265625 337.195312 C 188.484375 337.199219 189.699219 337.144531 190.910156 337.03125 C 192.125 336.914062 193.328125 336.742188 194.523438 336.507812 C 195.71875 336.273438 196.898438 335.984375 198.0625 335.632812 C 199.230469 335.285156 200.378906 334.878906 201.503906 334.414062 C 202.628906 333.953125 203.730469 333.4375 204.808594 332.863281 C 205.882812 332.292969 206.929688 331.671875 207.945312 331 C 208.957031 330.324219 209.9375 329.601562 210.882812 328.832031 C 211.824219 328.0625 212.730469 327.246094 213.59375 326.390625 C 214.457031 325.53125 215.277344 324.628906 216.054688 323.691406 C 216.828125 322.75 217.558594 321.777344 218.238281 320.765625 C 218.917969 319.753906 219.546875 318.710938 220.125 317.636719 C 220.699219 316.5625 221.226562 315.464844 221.695312 314.339844 C 222.164062 313.214844 222.578125 312.070312 222.933594 310.90625 C 223.292969 309.738281 223.589844 308.558594 223.832031 307.363281 C 224.339844 304.890625 224.585938 302.390625 224.574219 299.863281 L 224.574219 187.914062 C 224.574219 186.691406 224.519531 185.472656 224.402344 184.257812 C 224.285156 183.042969 224.109375 181.835938 223.871094 180.636719 C 223.636719 179.4375 223.34375 178.253906 222.992188 177.085938 C 222.640625 175.914062 222.230469 174.765625 221.765625 173.636719 C 221.304688 172.507812 220.785156 171.40625 220.210938 170.328125 C 219.636719 169.25 219.015625 168.199219 218.339844 167.183594 C 217.664062 166.167969 216.9375 165.1875 216.167969 164.242188 C 215.394531 163.296875 214.578125 162.390625 213.71875 161.523438 C 212.855469 160.660156 211.957031 159.839844 211.015625 159.0625 C 210.074219 158.285156 209.097656 157.558594 208.082031 156.875 C 207.070312 156.195312 206.027344 155.566406 204.953125 154.988281 C 203.878906 154.410156 202.777344 153.886719 201.652344 153.417969 C 200.527344 152.949219 199.378906 152.535156 198.214844 152.179688 C 197.046875 151.824219 195.867188 151.523438 194.667969 151.285156 C 193.472656 151.042969 192.269531 150.863281 191.054688 150.738281 C 189.84375 150.617188 188.625 150.554688 187.40625 150.554688 Z M 186.757812 150.554688 " fill-opacity="1" fill-rule="nonzero"/>
</g>
</svg>