<svg width="256" height="256" viewBox="0 0 256 256" fill="none" xmlns="http://www.w3.org/2000/svg">
<path d="M196 0H60C26.8629 0 0 26.8629 0 60V196C0 229.137 26.8629 256 60 256H196C229.137 256 256 229.137 256 196V60C256 26.8629 229.137 0 196 0Z" fill="#242938"/>
<path d="M160.392 154.841H64.2783C53.6021 154.841 44.9473 163.496 44.9473 174.172C44.9473 184.848 53.6021 193.503 64.2783 193.503H160.392C171.068 193.503 179.723 184.848 179.723 174.172C179.723 163.496 171.068 154.841 160.392 154.841Z" fill="#EA4335"/>
<path d="M71.4156 133.4L149.173 189.894C157.81 196.169 169.899 194.255 176.175 185.617C182.45 176.98 180.535 164.891 171.898 158.616L94.1406 102.122C85.5033 95.8465 73.4143 97.7612 67.1389 106.398C60.8636 115.036 62.7783 127.125 71.4156 133.4Z" fill="#FBBC04"/>
<path d="M179.173 168.013L149.472 76.6034C146.173 66.4497 135.267 60.893 125.114 64.1921C114.96 67.4913 109.403 78.397 112.702 88.5507L142.403 179.96C145.702 190.114 156.608 195.67 166.761 192.371C176.915 189.072 182.472 178.166 179.173 168.013Z" fill="#34A853"/>
<path d="M172.035 76.6026L142.334 168.012C139.035 178.166 144.592 189.071 154.746 192.37C164.899 195.669 175.805 190.113 179.104 179.959L208.805 88.5499C212.104 78.3962 206.547 67.4905 196.394 64.1913C186.24 60.8922 175.334 66.4489 172.035 76.6026Z" fill="#4285F4"/>
<path d="M131.055 92.3599C136.383 92.3599 140.703 88.0405 140.703 82.7124C140.703 77.3843 136.383 73.0649 131.055 73.0649C125.727 73.0649 121.408 77.3843 121.408 82.7124C121.408 88.0405 125.727 92.3599 131.055 92.3599Z" fill="white"/>
<path d="M82.4927 127.105C87.8208 127.105 92.1401 122.786 92.1401 117.458C92.1401 112.13 87.8208 107.81 82.4927 107.81C77.1645 107.81 72.8452 112.13 72.8452 117.458C72.8452 122.786 77.1645 127.105 82.4927 127.105Z" fill="white"/>
<path d="M64.3975 183.892C69.7256 183.892 74.0449 179.572 74.0449 174.244C74.0449 168.916 69.7256 164.597 64.3975 164.597C59.0693 164.597 54.75 168.916 54.75 174.244C54.75 179.572 59.0693 183.892 64.3975 183.892Z" fill="white"/>
<path d="M160.821 183.545C166.149 183.545 170.469 179.225 170.469 173.897C170.469 168.569 166.149 164.25 160.821 164.25C155.493 164.25 151.174 168.569 151.174 173.897C151.174 179.225 155.493 183.545 160.821 183.545Z" fill="white"/>
<path d="M190.613 91.8577C195.941 91.8577 200.26 87.5384 200.26 82.2102C200.26 76.8821 195.941 72.5627 190.613 72.5627C185.285 72.5627 180.965 76.8821 180.965 82.2102C180.965 87.5384 185.285 91.8577 190.613 91.8577Z" fill="white"/>
</svg>
