<?xml version="1.0" encoding="utf-8"?>
<!-- Generator: Adobe Illustrator 27.0.0, SVG Export Plug-In . SVG Version: 6.00 Build 0)  -->
<svg version="1.1" id="Layer_1" xmlns="http://www.w3.org/2000/svg" xmlns:xlink="http://www.w3.org/1999/xlink" x="0px" y="0px"
	 viewBox="0 0 256 256" style="enable-background:new 0 0 256 256;" xml:space="preserve">
<style type="text/css">
	.st0{fill:#F4F2ED;}
	.st1{fill:#EA4335;}
	.st2{fill:#FBBC04;}
	.st3{fill:#34A853;}
	.st4{fill:#4285F4;}
	.st5{fill:#FFFFFF;}
</style>
<path class="st0" d="M60,0h136c33.1,0,60,26.9,60,60v136c0,33.1-26.9,60-60,60H60c-33.1,0-60-26.9-60-60V60C0,26.9,26.9,0,60,0z"/>
<g>
	<path class="st1" d="M59.1,156.9h105c11.7,0,21.1,9.5,21.1,21.1l0,0c0,11.7-9.5,21.1-21.1,21.1h-105c-11.7,0-21.1-9.5-21.1-21.1
		l0,0C38,166.3,47.5,156.9,59.1,156.9z"/>
	<path class="st2" d="M151.8,195.1l-84.9-61.7c-9.4-6.9-11.5-20.1-4.7-29.5l0,0c6.9-9.4,20.1-11.5,29.5-4.7l84.9,61.7
		c9.4,6.9,11.5,20.1,4.7,29.5l0,0C174.5,199.9,161.3,202,151.8,195.1z"/>
	<path class="st3" d="M152.2,71.4l32.4,99.8c3.6,11.1-2.5,23-13.6,26.6l0,0c-11.1,3.6-23-2.5-26.6-13.6L112,84.5
		c-3.6-11.1,2.5-23,13.6-26.6l0,0C136.6,54.3,148.6,60.3,152.2,71.4z"/>
	<path class="st4" d="M144.4,171.2l32.4-99.8c3.6-11.1,15.5-17.2,26.6-13.6l0,0c11.1,3.6,17.2,15.5,13.6,26.6l-32.4,99.8
		c-3.6,11.1-15.5,17.2-26.6,13.6l0,0C146.8,194.2,140.8,182.3,144.4,171.2z"/>
	<g>
		<circle class="st5" cx="132" cy="78.1" r="10.5"/>
		<circle class="st5" cx="79" cy="116" r="10.5"/>
		<circle class="st5" cx="59.2" cy="178.1" r="10.5"/>
		<circle class="st5" cx="164.6" cy="177.7" r="10.5"/>
		<circle class="st5" cx="197.1" cy="77.5" r="10.5"/>
	</g>
</g>
</svg>
