<svg width="256" height="256" fill="none" version="1.1" viewBox="0 0 256 256" xmlns="http://www.w3.org/2000/svg">
 <rect width="256" height="256" rx="60" fill="#f4f2ed"/>
 <g class="logo-guy" transform="matrix(.81535 0 0 .81535 30.39 15.005)">
  <g fill="none">
   <path class="st0" d="m112.28 175.01c-0.78-0.15-1.59-0.28-2.41-0.4 0.82 0.12 1.63 0.25 2.41 0.4z"/>
   <path class="st0" d="m114.62 175.54c-0.48-0.12-0.98-0.23-1.48-0.34 0.5 0.1 0.99 0.22 1.48 0.34z"/>
   <path class="st0" d="m116.83 176.17c-0.39-0.12-0.78-0.24-1.18-0.35 0.41 0.11 0.8 0.23 1.18 0.35z"/>
   <path class="st0" d="m109.08 174.52c-0.62-0.08-1.25-0.14-1.89-0.2 0.64 0.06 1.27 0.13 1.89 0.2z"/>
   <path class="st0" d="m218.89 118.28c-0.89-2.89-7.8-5.69-4.22-13.29-1.73-0.43-2.94-1.06-3.83-1.87-1.24 3.68-2.2 8.01-2.24 12.92-0.12 1.01-0.26 2.65-0.39 4.24 1.07-0.94 2.39-1.75 3.73-1.68 2.77 0.16 5.3 0.66 6.95-0.32z"/>
   <path class="st0" d="m106.21 174.25c-0.64-0.04-1.3-0.08-1.97-0.1 0.67 0.02 1.33 0.06 1.97 0.1z"/>
   <path class="st0" d="m121.64 178.07c-0.23-0.11-0.47-0.21-0.7-0.32 0.23 0.11 0.47 0.21 0.7 0.32z"/>
   <path class="st0" d="m131.58 185.51c-0.07-0.07-0.13-0.14-0.2-0.22 0.07 0.08 0.13 0.15 0.2 0.22z"/>
   <path class="st0" d="m128.99 182.98c-0.07-0.06-0.15-0.12-0.22-0.19 0.07 0.06 0.15 0.13 0.22 0.19z"/>
   <path class="st0" d="m135.02 189.77c-0.23-0.32-0.46-0.64-0.7-0.95 0.24 0.31 0.47 0.63 0.7 0.95z"/>
   <path class="st0" d="m123.43 179.02c-0.2-0.12-0.41-0.23-0.62-0.34 0.2 0.11 0.41 0.22 0.62 0.34z"/>
   <path class="st0" d="m97.84 174.15c-6.55-0.02-12.08-0.77-16.72-2.23 4.64 1.47 10.18 2.22 16.72 2.23z"/>
   <path class="st0" d="m133.72 188.02c-0.13-0.17-0.27-0.33-0.41-0.5 0.14 0.17 0.28 0.33 0.41 0.5z"/>
   <path class="st0" d="m125.04 180c-0.15-0.1-0.31-0.2-0.46-0.3 0.15 0.1 0.31 0.2 0.46 0.3z"/>
   <path class="st0" d="m118.92 176.9c-0.34-0.13-0.68-0.26-1.03-0.39 0.35 0.13 0.69 0.26 1.03 0.39z"/>
   <path class="st0" d="m59.79 137.69c-0.09-0.59-0.18-1.18-0.28-1.76 0.1 0.58 0.19 1.17 0.28 1.76z"/>
   <path class="st0" d="m100.35 174.12c1.02-0.03 2.01-0.02 2.99 0-0.98-0.02-1.97-0.02-2.99 0z"/>
   <path class="st0" d="m60.08 139.83c-0.07-0.59-0.15-1.19-0.23-1.78 0.08 0.6 0.15 1.19 0.23 1.78z"/>
   <path class="st0" d="m59.46 135.68c-0.11-0.63-0.22-1.25-0.35-1.87 0.13 0.62 0.24 1.25 0.35 1.87z"/>
   <path class="st0" d="m50.17 113.81c4.11 4.34 6.83 10.76 8.49 17.91-1.66-7.16-4.38-13.58-8.48-17.92 0 0.01 0 0.01-0.01 0.01z"/>
   <path class="st0" d="m59.09 133.71c-0.13-0.66-0.27-1.32-0.43-1.97 0.16 0.65 0.3 1.31 0.43 1.97z"/>
   <path class="st0" d="m130.06 183.97c0.11 0.1 0.21 0.2 0.32 0.31-0.11-0.11-0.22-0.21-0.32-0.31z"/>
   <path class="st0" d="m81.12 171.92c-2.32-0.73-4.42-1.64-6.31-2.72 1.89 1.08 3.99 1.99 6.31 2.72z"/>
   <path class="st0" d="m60.35 142.32c-0.07-0.71-0.14-1.42-0.23-2.12 0.09 0.71 0.17 1.41 0.23 2.12z"/>
  </g>
  <path class="st1" d="m145.98 133.86c0.3 0.12 1.94 1.44 2.63 1.99s2.08 0.58 2.08 0.58c-1.79-1.4-3.29-1.95-4.58-2.68-0.03 0.03-0.07 0.06-0.13 0.11z" fill="#001423"/>
  <path class="st2" d="m204.42 206.76c0.13-0.64 0.21-1.01 0.21-1.01-0.01 0-0.02 0-0.03 0.01-0.04 0.17-0.1 0.51-0.2 1h0.02z" opacity="0"/>
  <path class="st2" d="m201.34 226.83c0 0.05-0.01 0.1-0.01 0.14 0.1-1 0.22-2 0.33-2.97-0.01 0.06-0.02 0.11-0.03 0.17-0.1 0.88-0.2 1.77-0.29 2.66z" opacity="0"/>
  <path class="st2" d="m180.26 253.73c-1.74 2.32-3.16 6.13-2.79 8.47 0.07 0.46 0.21 0.87 0.44 1.2-1.09-2.15 0.27-6.9 2.35-9.67z" opacity="0"/>
  <path class="st2" d="m201.64 224.17c0.01-0.06 0.02-0.11 0.03-0.17 0.95-7.9 2.25-14.75 2.75-17.24-0.01 0-0.02 0-0.02-0.01-0.53 2.63-1.83 9.53-2.76 17.42z" opacity="0"/>
  <path class="st2" d="m200.61 239.41c0-4.01 0.3-8.3 0.72-12.43 0-0.05 0.01-0.1 0.01-0.14-0.43 4.17-0.73 8.51-0.73 12.57z" opacity="0"/>
  <path class="st2" d="m177.57 204.8c-1.48-0.38-2.31-0.67-2.31-0.67s0.83 0.29 2.3 0.69c0.01 0 0.01-0.01 0.01-0.02z" opacity="0"/>
  <path class="st2" d="m177.89 204.91c0.21 0.05 0.45 0.1 0.69 0.15-0.36-0.09-0.7-0.17-1.01-0.25 0 0.01 0 0.01-0.01 0.02 0.11 0.02 0.22 0.05 0.33 0.08z" opacity="0"/>
  <path class="st2" d="m178.39 264c-0.06-0.09-0.11-0.17-0.16-0.26-0.13-0.11-0.24-0.22-0.33-0.35 0.11 0.23 0.29 0.42 0.49 0.61z" opacity="0"/>
  <path class="st2" d="m178.58 205.06c-0.24-0.05-0.47-0.1-0.69-0.15 4.72 1.23 15.24 3.28 26.7 0.85 0.02-0.08 0.03-0.14 0.03-0.14-0.11 0.02-0.23 0.04-0.34 0.07-10.81 2.21-20.74 0.55-25.7-0.63z" opacity="0"/>
  <path class="st2" d="m201.33 248.84c-0.52-2.75-0.73-5.99-0.73-9.43 0 3.44 0.21 6.67 0.73 9.43z" opacity="0"/>
  <path class="st2" d="m193.99 265.1c-6.7 0-13.76 0.25-15.76-1.36 0.05 0.09 0.1 0.18 0.16 0.26 2.09 1.96 8.83 2.25 15.6 1.1z" opacity="0"/>
  <path class="st2" d="m201.34 226.83c0.09-0.9 0.19-1.78 0.3-2.66-0.01 0.06-0.02 0.13-0.03 0.19-0.11 0.66-0.2 1.51-0.27 2.47z" opacity="0"/>
  <path class="st2" d="m201.34 226.83c0.09-0.9 0.19-1.78 0.3-2.66-0.01 0.06-0.02 0.13-0.03 0.19-0.11 0.66-0.2 1.51-0.27 2.47z" opacity="0"/>
  <path class="st2" d="m177.57 204.83c0.11 0.03 0.21 0.05 0.33 0.08-0.12-0.03-0.23-0.06-0.33-0.08z" opacity="0"/>
  <path class="st2" d="m177.57 204.83c0.11 0.03 0.21 0.05 0.33 0.08-0.12-0.03-0.23-0.06-0.33-0.08z" opacity="0"/>
  <path class="st2" d="m216.22 258.22c4.06 3.11 13.12 4.88 15.42 6.44 0.35 0.24 0.61 0.48 0.8 0.72-1.12-3.54-8.38-5.39-8.38-5.39-18.06-6.64-22.02-10.34-22.64-11.03 0.01 0.13 0.03 0.26 0.04 0.38 0.15 1.22 10.94 5.95 14.76 8.88z" opacity="0"/>
  <path class="st2" d="m216.22 258.22c4.06 3.11 13.12 4.88 15.42 6.44 0.35 0.24 0.61 0.48 0.8 0.72-1.12-3.54-8.38-5.39-8.38-5.39-18.06-6.64-22.02-10.34-22.64-11.03 0.01 0.13 0.03 0.26 0.04 0.38 0.15 1.22 10.94 5.95 14.76 8.88z" opacity="0"/>
  <path class="st2" d="m177.9 263.4c0.09 0.12 0.2 0.24 0.33 0.35-1.09-2.01-0.18-4.94 1.32-8.08 0.46-0.97 0.84-1.8 1.14-2.57-0.13 0.21-0.28 0.42-0.44 0.64-2.07 2.76-3.43 7.51-2.35 9.66z" opacity="0"/>
  <path class="st2" d="m177.9 263.4c0.09 0.12 0.2 0.24 0.33 0.35-1.09-2.01-0.18-4.94 1.32-8.08 0.46-0.97 0.84-1.8 1.14-2.57-0.13 0.21-0.28 0.42-0.44 0.64-2.07 2.76-3.43 7.51-2.35 9.66z" opacity="0"/>
  <path class="st2" d="m177.89 204.91c-0.11-0.03-0.22-0.05-0.33-0.08v-0.01c-1.47-0.39-2.3-0.69-2.3-0.69-0.4 0.87-0.69 1.77-0.88 2.7 0.97 0.32 3.12 1.16 8.28 1.54 7.58 0.55 17.72-0.89 20.43-1.55 0.65-0.16 1.06-0.17 1.3-0.07 0.1-0.49 0.17-0.83 0.2-1-11.45 2.44-21.97 0.39-26.7-0.84z" opacity="0"/>
  <path class="st2" d="m177.89 204.91c-0.11-0.03-0.22-0.05-0.33-0.08v-0.01c-1.47-0.39-2.3-0.69-2.3-0.69-0.4 0.87-0.69 1.77-0.88 2.7 0.97 0.32 3.12 1.16 8.28 1.54 7.58 0.55 17.72-0.89 20.43-1.55 0.65-0.16 1.06-0.17 1.3-0.07 0.1-0.49 0.17-0.83 0.2-1-11.45 2.44-21.97 0.39-26.7-0.84z" opacity="0"/>
  <path class="st2" d="m181.16 237.79c-0.46-3.81-1.37-6.62-2.37-9.06 0.95 2.98 1.83 6.02 2.37 9.06z" opacity="0"/>
  <path class="st2" d="m181.16 237.79c-0.46-3.81-1.37-6.62-2.37-9.06 0.95 2.98 1.83 6.02 2.37 9.06z" opacity="0"/>
  <path class="st2" d="m200.61 239.41c0-4.05 0.3-8.4 0.73-12.57 0.07-0.97 0.16-1.81 0.27-2.47 0.01-0.06 0.02-0.13 0.03-0.19 0.93-7.89 2.23-14.79 2.76-17.42-0.24-0.1-0.64-0.09-1.3 0.07-2.71 0.67-12.85 2.11-20.43 1.55-5.16-0.38-7.3-1.22-8.28-1.54-1.29 6.26 1.83 13.88 4.4 21.9 1 2.44 1.91 5.24 2.37 9.06 0.31 1.75 0.51 3.5 0.56 5.25 0.12 5.11 0.67 7.39-1.02 10.06-0.31 0.77-0.68 1.6-1.14 2.57-1.5 3.14-2.41 6.07-1.32 8.08 1.99 1.61 9.06 1.36 15.76 1.36 7.04-1.19 17.4 1.88 28.15 2.16s10.47-0.68 10.47-0.68c0.04-0.42-0.03-0.82-0.15-1.2-0.19-0.24-0.45-0.48-0.8-0.72-2.3-1.55-11.37-3.33-15.42-6.44-3.82-2.92-14.61-7.66-14.75-8.88-0.01-0.12-0.03-0.25-0.04-0.38-0.07-0.08-0.1-0.12-0.1-0.12-0.55-2.78-0.76-6.01-0.75-9.45z" opacity="0"/>
  <g>
   <g fill="#efefef">
    <path class="st3" d="m185.45 50.38c1.57 0.32 4.32-1.31 6.33-2.5 0.33-0.2 0.65-0.38 0.95-0.56-0.45-1.22 0.03-3.12-0.06-6.18-0.05-1.46-0.14-3.15-0.26-4.83-1.88 1.79-4.12 3.57-5.9 4.46-1.14 0.57-3.65 0.3-6.57 0.29-3.11-0.02-6.64 0.17-8.1-1.07-1.5-1.28-3.32-3.12-5.03-4.84-0.02 0.36-0.05 0.71-0.08 1.07-0.16 2.05-0.38 3.28-0.68 4.85-0.09 0.48 1.36 1.74 3 4.01 4.07 2.4 13.35 4.67 16.4 5.3z"/>
    <path class="st3" d="m236.12 104.18c-1.47-4.76-5.4-5.63-11.81-1.98 2.53-4.21 5.9-4.23 6.45-5.77 2.49-6.92-1.63-12.92-3.37-14.91 2.08-5.12 3.99-12.49-2.8-19.09-2.88-2.8-6.64-3.36-10-3.08 5.11 4.84 9.37 12.38 6.99 20.12-0.27 0.86-2.43 1.99-4.71 2.84 0 0 1.25 5.46-0.97 9.78-0.88 1.72-2.24 4.13-3.54 7.14l0.13 0.13c2.74 2.55 4.48 2.85 8.31 3.57-2.55 0.21-3.36 1.05-3.47 1.52-2.11 9.36 3.92 9.68 4.15 14.93 0 0.11 0.02 0.21 0.02 0.33v0.05c-0.9 0.84-4.04 1.41-7.03 1.32-3.05-0.1-5.12 2.75-5.12 2.75-0.44 0.41-0.83 0.8-1.17 1.18 0.06 1.17 0.1 2.25 0.1 2.8 0 1.22 0.8 4.48 1.23 6.94 2.55 1.57 3.79 2.55 6.27 3.18 1.52 0.38 2.81 0.63 4.08 0.29 0.95-0.25 1.88-0.82 2.88-1.9 4.3-4.62 5.42-8.94 6.02-11.44 0.06-0.24 0.11-0.47 0.16-0.67 0.08 0.16 0.16 0.33 0.23 0.48 4.26-4.72 9.19-13.31 6.97-20.51z"/>
    <path class="st3" d="m207.43 139.12c-0.01 0-0.01 0.01-0.01 0.01-0.36-2.37-1.26-5-1.87-8.66-0.43-2.56-1.06-5.49-1.13-9.43 0.06-0.14 0.12-0.43 0.17-0.81l0.03-0.18c-3.06 0.39-17.8 2.01-29.39-1.05-8.54-2.26-10.89-3.43-11.49-3.97-0.08 0.58-0.17 1.23-0.25 1.9-0.09 0.71-0.17 1.44-0.23 2.11h0.02c-0.22 0.53-0.42 1.07-0.61 1.62 0.1 0.12 0.2 0.24 0.32 0.38 1.34 1.52 4.33 3.62 4.34 5.75 0 0.2-0.01 0.39-0.07 0.59-0.35 1.27-1.15 1.54-2.28 2.75-0.51 0.54-3.97 4.26-4.74 4.74-0.53 0.33-1.05 0.79-1.64 1.11-0.46 0.25-1.87 1.34-2.36 1.58-0.3 0.14-0.57 0.27-0.84 0.39-9.33 29.5-4.98 42.48-3.12 48.55-5.13 6.52-8.73 10.23-10.63 16.22-0.01 0-0.02-0.01-0.03-0.01-0.07 0.23-0.13 0.45-0.2 0.67-4.81 15.41-3.07 28.61-5.03 41.62 1.86 0.95 8.7 2.63 13.17 1.73 0.61-0.14 0.02-10.99 1.8-15.81 2.46-6.66 6.49-12.14 8.47-23.94h0.03c0.01-0.11 0.02-0.22 0.03-0.34 0.01-0.08 0.03-0.15 0.04-0.22h-0.02c0.14-1.66 0.23-3.5 0.29-5.62 0.01-0.45-1.82 0.91-3 2.56 0.97-4.97 3.62-5.88 5.71-8.89 0.93-1.34 1.72-3.19 1.79-5.67 11.04-7.53 15.16-16.87 17.6-26.54 1.71-6.81 4.01-17.72 6.9-20.77-0.72 2.66-1.26 5.13-1.69 7.48-1.82 9.84-1.77 17.3-5.44 25.62 2.77 7.31 5.43 10.98 5.7 21.29-5.58-0.11-8.85 4.51-10.2 8.93 0 0.01 0 0.01-0.01 0.02v0.01c0.11 0.03 0.21 0.05 0.33 0.08 0.21 0.05 0.45 0.1 0.69 0.15 3.83 0.78 11.17 1.53 22.85 0 0.34-1.53 0.75-3.02 1.27-4.28 0.89-2.17 1.45-4.22 1.78-6.13 0.63-3.63 0.39-6.72-0.09-9.01 9.46-10.5 5.76-30.77 3.04-46.53z"/>
    <path class="st3" d="m212.5 79.9c-11.86-5.85-25.55-5.04-38.45-1.82-2.68 0.67-5.17 1.3-8.12 0.3-6.29-2.13-10.84-5.3-12.91-7.82-0.15-0.19-0.28-0.37-0.4-0.55-0.35 0.53-0.72 1.07-1.13 1.61 0.69 6.31-1.25 11.01-3.96 14.39 2.65 3.39 7.22 7.89 9.95 9.39 2.94 1.62 4.79 1.92 9.59 1.15-1.78 1.85-3.03 2.71-5.31 3.9 0.18 2.09 0.67 5.61 1.43 9.52 0.8 0.79 3.36 2.24 6.5 3.72 4.01 1.89 8.97 3.84 12.44 4.51 6.28 1.23 19.07 0.13 22.72-0.35v-0.03c0.05 0 0.1 0.01 0.16 0.01-0.56-13.4 2.93-20.36 5.58-25.73 2.43-4.97 2.28-9.78 1.91-12.2z"/>
    <path class="st3" d="m168.92 29.13c0.33 3.45 1.31 5.78 3.08 8.5 0.74 0.49 1.46 0.91 2.18 1.07 3.1 0.69 8.76 0.73 11.78-0.06 1.78-0.4 3.98-3.56 4.49-6.15 0.63-3.36 1.29-5.79 1.39-7.85 0.27-2.06 0.53-6.69 0.67-7.95 0.28-2.07 0-5.16-0.25-7.11-0.12-0.95-0.24-1.63-0.28-1.79-0.42-1.48-3.91-4.04-12.13-4.03-8.71 0.02-11.25 2.66-11.44 4.07-0.02 0.15-0.1 0.79-0.19 1.65-0.2 1.8-0.49 4.58-0.54 5.96-0.01 0.06-0.01 2.58 0.16 6.41 0.11 2.53 0.76 3.98 1.08 7.28z"/>
    <path class="st3" d="m147.11 255.03c1.06 0.3 1.83 1.61 2.15 0.83 0.59-1.44-1.19-4.07-1.3-6.09-0.01-0.22-0.01 0.01-0.01-0.22-1.41-1.28-11.1-1.45-10.46-0.72-1.11 2.14-2.89 1.68-3.57 5.8-0.34 2.06 2.27 0.31 4.61 0.21-4.26 2.85-9.2 6.53-9.94 9.72-1.02 4.38 0.64 5.66 5.33 8.12h0.01c4.07 0.92 8.99 1.08 12.84 0.89h0.01c4.22-0.74 5.12-2.8 3.82-5.74-1.87-4.22-3.07-9.8-3.49-12.8z"/>
    <path class="st3" d="m143.25 123.6c-0.88 4.73 1.42 6.76 5.28 9.47 1.81 1.27-0.11 1.41 1.42 2.16 1.62 0.8 3.37 1.46 4.99 0.6 0.48-0.26 1.2-1.05 1.65-1.32 0.58-0.34 2.74-2.1 3.37-2.61s1.97-2.01 2.45-2.57c0.81-0.88 1.74-2.2 1.82-2.69 0.37-1.64-2.18-3.29-3.78-4.92-2.76-2.82-6.83-3.92-10.96-3.94h-0.07c-6.85-7.34-9.64-14.13-11.75-19.12-2.49-5.88-5.32-9.17-10.95-13.71 2.91 1.14 5.04 2.15 6.4 3.11 1.46 1.03 3.5 1.03 5.35 0.51 6.79-2.27 10.45-11.84 10.84-17.83 0.67-0.9 1.74-2.94 2.3-3.8 0.02-0.04 0.1 0.03 0.2 0.16 0.36 0.28 1.22 0.92 2.34 1.73 2.29 1.67 5.65 4.01 7.96 5.22 3.82 2 6.37 2.09 14.87-0.26 6.11-1.69 13.37-2.17 18.86-2.11 5.6 0.06 10.46 1.48 15.15 3.5 2.28 0.98 6.28 3.67 7.2-0.72 0.38-5.51-1.59-10.91-4.52-14.7-0.14-0.08-0.29-0.21-0.41-0.37-0.61-0.76-5.61-4.14-7.45-4.91-0.37-0.16-0.77-0.34-1.16-0.53-0.07-0.02-0.14-0.03-0.2-0.06-0.06-0.02-0.14-0.04-0.24-0.06-0.44-0.11-1.17-0.29-2.11-0.71l-0.33-0.15c-0.56-0.25-1.06-0.47-1.6-0.61-0.49-0.12-1.01-0.18-1.63-0.11-0.71 0.08-1.37 0.18-1.98 0.29-1.92 0.34-3.4 0.79-4.74 1.19-1.92 0.58-3.58 1.08-5.75 1.08-1.18 0-2.52-0.15-4.12-0.52-1.9-0.43-3.41-0.84-4.75-1.2-3.47-0.93-5.59-1.5-10.12-1.38-0.86 0.13-1.83 0.25-2.93 0.32-2.94 0.2-6.16 0.14-9.03-0.22-2.1-0.27-4.02-0.7-5.47-1.33-0.43-0.18-0.76-0.35-1.03-0.49-2.88-0.87-5.79-0.84-10.47 0.03-7.05 1.31-13.92 6.39-14.01 13.67 0 0.46 4.86 1.94 6.36 7.76-2.35-3.28-6.47-7.05-11.48-3.83-5.16 3.32-2.51 10.98-9.59 18.93-2.37 2.65-2.02 5.9 0.54 12.2 3.96 9.77 22.61 15.16 33.44 24.18-0.07 0.24-0.12 0.45-0.16 0.67z"/>
   </g>
   <g fill="#88ce02">
    <path class="st4" d="m142.62 90.45c-1.61 1.07-3.14 1.8-4.28 2.22 4.07 6.23 1.92 10.98 12.16 23.27 1.32 0.08 4.53 0.37 7.36 1.39 0.1-1.2 0.21-2.24 0.42-3.69h0.46c-0.98-5.18-1.32-7.95-2.24-11.83-4.66-2.95-9.46-6.22-13.88-11.36z"/>
    <path class="st4" d="m145.37 135.86c-0.06-0.34-0.09-0.71-0.03-1.05 0.04-0.23 0.4-0.8 0.38-0.91-0.07-0.37-1.29-1.16-1.56-1.42-1.73-1.68-3.1-3.37-3.39-5.84-0.06-0.48 0.17-1.62-0.03-2.04-0.17-0.37-0.89-0.73-1.22-0.99-1.02-0.8-2.09-1.54-3.18-2.25-2.01-1.29-4.12-2.44-6.25-3.51-7.83-3.92-17.21-6.87-22.8-14.02-1.64-2.09-2.68-4.47-3.67-6.91-1.02-2.5-2.42-5.76-1.54-8.49-2.47 0.99-5.01 1.78-7.46 2.84-3.01 1.3-5.98 2.69-8.94 4.11-7.66 3.68-15.22 7.57-22.73 11.54-4.27 2.26-8.53 4.55-12.76 6.89 4.15 4.39 6.49 10.27 8.01 16.03 1.54 5.86 1.79 11.84 2.88 17.77 1.02 5.58 2.98 11.11 6.59 15.55 3.83 4.71 9.23 7.66 15.03 9.22 6.29 1.7 12.69 1.72 19.16 1.72 6.23 0 12.53 0.83 18.29 3.29 5.83 2.5 10.67 6.65 14.41 11.73 0.86 1.17 1.68 2.26 2.87 3.12 0.58 0.42 1.21 0.78 1.86 1.06 0.2 0.08 0.56 0.28 0.75 0.28 0.58 0.02 0.59-0.2 0.95-0.66 0.98-1.29 2.03-2.53 3.06-3.79 0.53-0.65 1.06-1.3 1.58-1.96 0.23-0.29 0.65-0.68 0.79-1.03 0.21-0.55-0.08-1.2-0.21-1.81-3.3-15.51 0.49-31.02 5.6-45.67-2.32-0.06-4.86-1.1-6.44-2.8z"/>
    <path class="st4" d="m107 81.58c0.86-1.72 1.6-3.89 2.55-7.35 2.71-9.79 8.15-10.06 10.51-10.46 0.17-3.29 1.23-6.03 2.84-8.27-24.63 6.9-50.22 15.43-78.16 32.66-11.66 7.19-36.01 23.36-40.76 54.26 6.93-7.67 17.37-16.08 30.49-24.43v-0.01c0.15-0.09 0.29-0.18 0.44-0.27 3.68-2.33 7.56-4.66 11.64-6.96 0.04 0.03 0.09 0.06 0.13 0.09 6.34-3.52 13.08-7.02 19.67-10.31 19.29-9.63 37.36-17.52 40.65-18.95z"/>
    <path class="st4" d="m232.45 265.38c-0.19-0.24-0.45-0.48-0.8-0.72-2.3-1.55-11.37-3.33-15.42-6.44-3.82-2.92-14.61-7.66-14.75-8.88-0.01-0.12-0.03-0.25-0.04-0.38-0.39-4.11-0.56-15.66-0.1-21.98 0-0.05 0.01-0.1 0.01-0.14 0.07-0.97 0.16-1.81 0.27-2.47 0.01-0.06 0.02-0.13 0.03-0.19s0.02-0.11 0.03-0.17c0.8-5.08 1.85-12.01 2.24-13.96 0.3-1.5 1.22-2.94 0.51-3.28-0.01 0-0.02 0-0.02-0.01-0.24-0.1-0.64-0.09-1.3 0.07-2.71 0.67-12.85 2.11-20.43 1.55-5.16-0.38-7.3-1.22-8.28-1.54-0.12-0.04-0.22-0.07-0.31-0.09-0.25-0.06-0.38-0.05-0.48 0.08-1.12 1.53 0.14 7.55 1.76 13.43 0.85 3.07 2.2 5.5 3.43 8.48 1 2.44 1.91 5.24 2.37 9.06 0.06 0.47 0.11 0.94 0.15 1.45 0.67 7.91 0.88 10.11-0.61 13.86-0.31 0.77-0.68 1.6-1.14 2.57-1.5 3.14-2.41 6.07-1.32 8.08 0.05 0.09 0.1 0.18 0.16 0.26 0.74 1.12 2.17 1.91 4.58 2.25 0.75 0.1 1.59 0.17 2.54 0.18 9.47 0.11 14.48-0.11 23.95 1.22 7.11 1 10.79 1.56 14.41 1.45 1.2-0.04 2.4-0.15 3.72-0.34 3.36-0.49 5.01-1.39 5.18-2.38 0.03-0.35-0.08-0.69-0.34-1.02z"/>
    <path class="st4" d="m198.39 51c1.79-0.21 3.15 0.71 4.4 1.35 0.95 0.48 2.2 0.65 3.22 1.13 0.05 0.02 0.11 0.04 0.16 0.07 0 0 0.03 0.01 0.05 0.01 2.21 1.06 4.91 2.49 6.45 4.13 0.06 0.04 0.11 0.09 0.17 0.13 2.73-0.39 4.81-0.49 6.2-0.49-0.44-1.22-0.72-3.72-5.14-1.64-1.66-1.97-2.22-3.68-5.85-2.44-0.22-0.54-0.48-0.94-0.77-1.23-0.04-0.07-0.09-0.13-0.14-0.2-0.32-0.45-0.74-0.98-1.26-1.58-2.32-2.65-7.47-4.73-11.43-2.24-2.25 1.41-6.79 4.17-9.68 3.58-2.74-0.56-11.96-2.73-17.42-4.9-0.16-0.06-0.3-0.12-0.45-0.19-1.81-1.6-4.45-3.03-9.55-3.47-2.15-0.19-3.6 1.61-5.28 2.77 0.82 0.82 1.6 2.05 1.99 3.37-1.37-1.66-3.97-3.68-6.5-4.17-2.24-0.43-3.87 1.19-6.34 2.49 2.89-0.02 5.44 0.43 7.59 1.28h0.02c0.02 0.01 0.05 0.02 0.07 0.04 0.61 0.24 1.19 0.52 1.74 0.83 4.94 1.96 10.97 1.3 13.4 1.14 0.19-0.01 0.99-0.13 1.99-0.29 0.23-0.02 0.44-0.03 0.67-0.04 6.73-0.38 8.58 1.08 15.27 2.6 6.9 1.58 8.5-1.11 16.42-2.04z"/>
   </g>
  </g>
  <path d="m232.84 262.26c-4-2.07-8.41-3.29-12.49-5.22-2.85-1.35-5.58-2.92-8.19-4.69-1.36-0.93-2.7-1.85-4.12-2.7-1.05-0.63-2.35-1.27-3.14-2.24-1.02-1.26-0.79-3.5-0.84-5.02-0.1-3.04-0.08-6.09-0.04-9.14 0.08-6.15 0.9-12.06 2.11-18.08 0.55-2.74 1.54-5.76 1.47-8.58-0.06-2.2-1.44-2.41-3.3-2.05 0.36-1.59 0.66-3.21 1.08-4.79 0.43-1.61 1.37-3.09 1.85-4.72 0.71-2.41 1-4.96 0.82-7.47-0.05-0.66-0.25-1.35-0.26-2.01-0.01-0.6 0.05-0.62 0.46-1.2 1.25-1.77 2.19-3.73 2.91-5.77 3.14-8.95 2.54-19.11 1.3-28.35-0.54-4.02-1.27-8.01-2.19-11.96 2.59 1.23 5.41 2.22 8.29 2.38 0.59 0.03 2.22 0.23 2.74-0.19 4.07-2.24 6.59-6.69 8.31-10.9 0.23-0.58 0.41-1.19 0.66-1.76 0.29-0.66 0.77-1.06 1.28-1.61 2.04-2.22 3.83-4.69 5.22-7.37 2.57-4.97 3.75-10.94 1.51-16.25-0.55-1.3-1.28-2.52-2.15-3.63-0.43-0.54-0.89-1.06-1.37-1.55-0.27-0.27-0.74-0.58-0.95-0.89-0.41-0.17-0.46-0.43-0.17-0.8 0.1-0.33 0.2-0.66 0.28-1 0.74-3.08 0.5-6.33-0.67-9.28-0.42-1.05-0.94-2.07-1.59-3-0.14-0.21-0.65-0.65-0.69-0.89-0.07-0.45 0.54-1.51 0.67-1.99 0.66-2.43 0.84-5 0.49-7.49-0.43-3.09-1.7-6.02-3.62-8.49-0.98-1.26-2.11-2.42-3.39-3.38-1.36-1.01-3.58-1.51-4.48-2.89-1.29-1.97-2.39-3.91-5.04-3.64-0.22 0.02-0.5 0.12-0.71 0.11-0.62-0.03-0.34-0.01-0.79-0.42-0.34-0.3-0.56-0.75-0.88-1.08-0.78-0.83-1.61-1.12-2.75-0.97-0.32 0.04-1.44 0.5-1.64 0.39-0.23-0.13-0.5-0.89-0.65-1.11-0.92-1.34-2.34-2.33-3.71-3.18-1.34-0.83-2.83-1.45-4.4-1.7-0.84-0.13-1.7-0.16-2.55-0.07-0.54 0.05-1.93 0.55-2.2 0.3-0.56-0.54-0.31-2.72-0.33-3.35-0.05-1.76-0.12-3.52-0.19-5.28-0.12-2.92 0.09-5.66 0.39-8.56 0.58-5.6 1.44-11.28 1.23-16.91-0.09-2.39-0.24-5.3-1.7-7.31-1.05-1.43-2.73-2.31-4.35-2.92-4.24-1.6-9.08-1.81-13.55-1.42-3.54 0.31-8.26 0.93-10.91 3.59-1.05 1.05-1.24 2.64-1.48 4.05-0.43 2.64-0.62 5.32-0.69 7.99-0.14 4.9 0.32 9.88 1.27 14.69 0.26 1.33-0.03 2.67-0.2 4.01-0.13 1-0.27 2.01-0.43 3.01-0.12 0.74-0.13 2.2-0.53 2.83-0.55 0.88-2.31 1.06-3.21 1.29-0.97 0.25-1.46 0.4-2.4 0.11-0.96-0.3-1.87-0.54-2.87-0.31-1.33 0.3-2.43 1.23-3.52 1.98-0.62 0.43-1.19 1-1.88 0.86-0.5-0.1-1.06-0.48-1.54-0.65-1.15-0.39-2.56-0.76-3.76-0.4-1.53 0.46-2.84 1.77-4.22 2.54-0.32 0.18-0.68 0.42-1.03 0.52-0.68 0.19-0.39 0.08-0.99-0.03-0.57-0.1-1.09-0.37-1.68-0.41-1.49-0.12-2.93 0.52-4.25 1.15-1.46 0.69-2.84 1.55-4.09 2.56-1.45 1.17-3.53 1.35-5.34 1.84-13.27 3.56-26.3 8.06-39.1 13.04-7.27 2.82-14.26 5.85-21.16 9.47-10.64 5.58-21.59 11.27-31.17 18.58-10.28 7.86-19.11 18.35-25.06 29.84-2.71 5.23-4.76 10.81-5.89 16.59-0.26 1.32-2.05 10.28 1.2 9.92 1.22-0.13 2.11-1.65 2.88-2.46 1.2-1.27 2.5-2.45 3.81-3.62 3.66-3.27 7.48-6.38 11.35-9.4 3.96-3.09 7.99-6.1 12.18-8.87 2.62-1.73 5.41-3.09 8.1-4.7 0.62-0.37 1.22-0.77 1.83-1.16 0.6-0.38 1.19-0.76 1.79-1.14 0.35-0.22 1.96-1.57 2.38-1.49 0.73 0.13 2.06 2.18 2.51 2.77 0.84 1.1 1.59 2.27 2.25 3.48 2.87 5.3 4.15 11.35 5.08 17.25 0.97 6.14 1.36 12.22 4.02 17.93 2.16 4.64 5.43 8.68 9.49 11.8 4.06 3.11 8.8 5.26 13.72 6.58 5.76 1.55 11.51 1.65 17.41 1.92 9.7 0.44 19.58 2.08 26.86 9 3.57 3.39 5.96 8.46 10.76 10.24-4.5 8.34-4.41 17.95-4.53 27.16-0.06 4.41-0.07 8.81-0.18 13.22-0.08 3.08 0.07 6.38-0.53 9.42-0.37 1.86-1.66 3.4-2.21 5.23-0.64 2.13-1.1 4.05-2.32 5.95-1.2 1.87-2.4 3.69-2.96 5.88-0.93 3.6-0.31 7.47 2.88 9.67 2.88 1.99 6.43 3.05 9.87 3.47 3.88 0.47 8.06 0.12 11.87-0.79 1.95-0.47 3.6-1.33 3.97-3.45 0.43-2.54-0.23-5.4-0.93-7.84-0.46-1.59-0.92-3.21-1.07-4.87-0.14-1.55 0.52-2.91 0.42-4.43-0.06-0.86-0.27-1.7-0.49-2.52-0.15-0.54-0.55-1.32-0.51-1.9 0.03-0.32 0.2-0.45 0.35-0.75 0.35-0.73 0.48-1.63 0.61-2.42 0.47-2.81 0.17-5.74 0.41-8.58 0.15-1.82 0.38-3.66 0.9-5.41 0.49-1.65 1.29-3.22 1.95-4.81 0.99-2.39 1.85-4.88 3.13-7.13 1.11-1.96 2.09-4 2.85-6.12 1.11-3.08 1.72-6.45 2.06-9.7 0.11-1.06 0.17-2.12 0.2-3.19 0.01-0.58 0.01-1.16 0.01-1.74-0.01-0.59-0.28-1.81-0.1-2.36 0.11-0.34 0.58-0.72 0.8-0.99 0.49-0.61 0.96-1.24 1.35-1.92 0.44-0.76 0.8-1.58 1.05-2.42 0.16-0.55 0.15-1.78 0.45-2.2 0.26-0.37 1.14-0.7 1.51-0.95 2.61-1.79 4.95-3.98 6.99-6.39 1.5-1.77 2.84-3.67 4-5.68 0.81 2.76 1.77 5.48 2.48 8.28 0.29 1.15 0.54 2.32 0.66 3.5 0.05 0.53 0.08 1.06 0.08 1.59-0.01 1-0.3 1.08-1.08 1.72-3.35 2.77-6.63 6.08-7.73 10.43-3.97-1.86-3.89 2.9-3.81 5.45 0.14 4.4 0.83 8.89 2.04 13.12 0.67 2.33 1.72 4.52 2.57 6.79 0.98 2.61 1.76 5.29 2.32 8.02 0.63 3.06 1.01 6 0.58 9.11-0.39 2.83-1.2 5.59-2.14 8.28-1.07 3.06-2.38 5.88-1.43 9.19 1.21 4.22 5.15 5.19 8.99 5.65 9.36 1.12 18.8-0.15 28.17 0.91 6.14 0.69 12.97 2.07 19 0.05 1.85-0.62 4.27-1.78 4.77-3.89 0.49-1.98-1.16-3.51-2.74-4.34zm-82.89-127.04c-0.68-0.34-0.46-0.43-0.59-0.95-0.18-0.72-0.55-0.99-1.17-1.45-1.4-1.02-2.87-2.05-3.89-3.47-0.92-1.28-1.29-2.77-1.22-4.34 0.02-0.48 0.09-0.95 0.17-1.42 0.09-0.51 0.14-0.51-0.15-0.9-0.51-0.69-1.59-1.24-2.28-1.74-6.17-4.43-13.12-7.59-19.6-11.51-2.85-1.72-5.68-3.6-8.03-5.99-2.39-2.44-3.68-5.34-4.65-8.59-0.88-2.92-1.19-5.84 0.87-8.31 2.71-3.27 4.34-6.76 5.42-10.85 0.89-3.36 1.64-6.9 5.04-8.57 4.28-2.1 8.18 0.94 10.61 4.33-0.8-3.11-2.8-5.42-5.47-7.1-1.03-0.65-0.97-0.86-0.77-2.21 0.28-1.86 1.03-3.62 2.12-5.14 2.26-3.16 5.8-5.3 9.47-6.42 3.76-1.15 8.23-1.75 12.09-0.78 0.86 0.22 1.63 0.68 2.46 0.97 1.19 0.42 2.43 0.68 3.67 0.88 2.49 0.4 5.04 0.52 7.56 0.48 2.49-0.04 4.95-0.49 7.44-0.44 1.97 0.05 3.89 0.32 5.8 0.78 4.25 1.03 8.63 2.8 13.07 2.19 2.13-0.29 4.16-1.09 6.24-1.62 2.15-0.55 4.62-1.26 6.78-0.44 2.98 1.13 5.77 2.19 8.46 3.93 1.19 0.77 2.44 1.55 3.5 2.5 1.28 1.15 2.18 2.68 2.95 4.21 1.04 2.08 1.76 4.32 2.11 6.62 0.28 1.82 0.8 4.7-0.52 6.24-1.87 2.18-6.06-0.82-8.02-1.6-9.05-3.6-18.97-3.44-28.45-1.67-4.18 0.78-8.24 2.41-12.51 2.66-2.8 0.16-5.18-0.74-7.56-2.14-1.87-1.1-3.67-2.34-5.44-3.6-0.89-0.63-1.77-1.27-2.64-1.92-0.5-0.37-0.97-0.97-1.39-0.72-0.54 0.32-1.03 1.79-1.36 2.33-0.47 0.78-0.78 1.23-0.88 2.13-0.18 1.66-0.56 3.29-1.05 4.88-1.9 6.03-8.09 15.85-15.57 11.22-1.84-1.14-3.87-1.97-5.89-2.76 4.01 3.23 7.57 6.79 9.9 11.44 2.14 4.26 3.71 8.7 6.22 12.78 1.61 2.62 3.45 5.09 5.48 7.39 0.61 0.69 0.8 1.08 1.63 1.22 0.59 0.1 1.22 0.05 1.82 0.12 1.48 0.16 2.95 0.48 4.33 1.02 2.61 1.01 4.56 2.91 6.54 4.82 0.68 0.66 1.67 1.56 1.63 2.61-0.04 1.11-1.18 2.2-1.86 2.98-1.47 1.69-3.06 3.11-4.83 4.47-0.85 0.65-1.72 1.52-2.64 2.03-1.57 0.91-3.45 0.16-4.95-0.58zm0.75 1.21c-2.16-0.09-2.9-1.85-4.72-2.57 0.57-0.47 4.24 2.19 4.72 2.57zm7.58-22.78c-0.18 1.23-0.31 2.46-0.42 3.69-1.86-0.67-3.83-1.04-5.79-1.26-0.43-0.05-1.18 0.04-1.57-0.14-0.77-0.35-1.77-2.2-2.27-2.86-1.98-2.64-3.76-5.45-5.1-8.47-1.74-3.93-2.42-8.31-4.79-11.94 1.36-0.5 2.52-1.42 3.84-1.94 0.59-0.23 0.28-0.27 0.79 0.12 0.32 0.25 0.6 0.67 0.88 0.97 0.58 0.62 1.17 1.22 1.79 1.81 2.21 2.13 4.64 4.02 7.16 5.75 1.03 0.71 2.69 1.38 3.52 2.31 0.65 0.73 0.72 2.52 0.91 3.52 0.54 2.8 0.98 5.63 1.51 8.43-0.14 0.01-0.32 0.04-0.46 0.01zm4.9-3.68c-0.55-2.84-1.03-5.71-1.33-8.59-0.08-0.72-0.15-0.89 0.52-1.26 0.54-0.3 1.08-0.6 1.6-0.94 1.14-0.75 2.15-1.65 3.1-2.63-3.15 0.5-6.07 0.65-8.97-0.82-2.93-1.48-5.38-3.96-7.61-6.32-0.58-0.62-1.15-1.24-1.71-1.89-0.27-0.32-0.7-0.69-0.89-1.07-0.29-0.59-0.36-0.41 0.08-1 0.97-1.3 1.77-2.71 2.36-4.22 0.67-1.69 1.08-3.48 1.23-5.29 0.08-0.94 0.1-1.88 0.05-2.82-0.02-0.41-0.23-1.11-0.12-1.5 0.14-0.5 0.83-1.16 1.13-1.61 2.49 3.65 7.18 5.99 11.15 7.58 2.85 1.14 5.39 1.58 8.41 0.94 2.82-0.6 5.6-1.35 8.45-1.85 5.73-1 11.6-1.42 17.41-0.83 2.81 0.29 5.6 0.82 8.31 1.64 1.32 0.4 2.63 0.86 3.9 1.39 0.58 0.24 1.28 0.45 1.8 0.8 0.57 0.39 0.51 0.6 0.58 1.31 0.43 4.75-1.02 8.9-3.03 13.11-1.54 3.23-2.79 6.56-3.56 10.06-0.52 2.38-0.84 4.81-0.99 7.24-0.08 1.35-0.12 2.71-0.11 4.07 0 0.49 0.23 1.63 0.05 2.08-0.16 0.41-0.11 0.22-0.58 0.35-1.45 0.39-3.18 0.33-4.66 0.45-2.21 0.17-4.42 0.3-6.64 0.36-4.78 0.14-9.55 0.09-14.15-1.34-3.03-0.94-5.98-2.16-8.86-3.5-2.26-1.04-5.11-2.12-6.92-3.9zm55.71 8.31c-1.5 0.89-3.52 0.59-5.17 0.46-2.23-0.18-3.76 0.02-5.5 1.55 0.5-5.84 0.73-11.55 2.63-17.17 1.07 0.97 2.44 1.53 3.83 1.87-1.34 2.84-1.37 5.8 0.43 8.42 1.1 1.59 3.2 2.96 3.78 4.87zm8.5-36.76c2.7 3.1 4.42 7.32 4.11 11.46-0.15 2.05-0.46 3.74-2.27 4.79-2 1.16-3.7 2.4-4.92 4.42 2.39-1.36 5.61-2.92 8.42-1.99 2.59 0.86 3.57 3.75 3.86 6.21 0.76 6.65-3.13 13.51-7.44 18.28-0.08-0.16-0.16-0.32-0.23-0.48-0.54 2.24-1.16 4.42-2.21 6.48-1.32 2.61-3.47 6.23-6.32 7.35-2.73 1.08-6.21-0.42-8.56-1.84-0.62-0.37-1.33-0.72-1.88-1.18-0.64-0.53-0.59-1.14-0.77-2-0.3-1.47-0.67-2.95-0.84-4.45-0.05-0.46-0.06-0.9-0.07-1.36-0.02-0.6-0.3-1.7-0.09-2.21 0.23-0.57 1.24-1.31 1.72-1.8 0.68-0.71 1.5-1.32 2.41-1.7 1.48-0.62 3.08-0.36 4.64-0.49 1.29-0.11 2.76-0.26 3.93-0.85 0.93-0.48 0.63-1.31 0.38-2.22-0.42-1.5-1.44-2.68-2.33-3.93-1.28-1.79-2.03-3.69-2.03-5.92 0-1.13-0.06-3.01 0.6-3.97 0.65-0.94 2.31-1.12 3.31-1.2-1.63-0.31-3.32-0.57-4.86-1.22-0.67-0.28-1.3-0.65-1.9-1.07-0.37-0.26-0.72-0.55-1.07-0.85-0.62-0.53-0.65-0.49-0.29-1.3 1.59-3.54 4.04-6.85 4.45-10.79 0.15-1.48 0.11-3-0.1-4.47-0.02-0.15-0.22-0.73-0.15-0.88 0.18-0.4 2.24-0.99 2.72-1.24 1.87-1 2.26-2.09 2.53-4.18 0.26-2.02 0.1-4.08-0.4-6.06-1.12-4.44-3.85-8.4-7.14-11.52 6.09-0.51 11.29 2.63 13.68 8.31 1.9 4.56 0.9 9.46-0.89 13.87zm-61.34-40.45c0.37-1.97 0.62-3.92 0.76-5.92 1.04 1.05 2.07 2.09 3.14 3.11 0.76 0.73 1.55 1.63 2.5 2.11 1.98 1 4.68 0.69 6.82 0.69 2.17 0 4.93 0.55 7.01-0.19 2.29-0.81 4.41-2.92 6.13-4.56 0.17 2.41 0.34 4.83 0.23 7.24-0.04 0.83-0.13 1.67-0.1 2.5 0.01 0.26 0.09 0.55 0.07 0.81-0.04 0.59 0.13 0.45-0.5 0.82-1.62 0.95-3.28 2.07-5.12 2.56-1.29 0.35-2.51-0.07-3.77-0.37-3.37-0.8-6.72-1.72-9.97-2.92-1.32-0.49-3.11-0.97-4.2-1.89-0.76-0.64-1.38-1.76-2.04-2.54-0.25-0.29-1.05-0.99-0.96-1.45zm25.92-33.29c0.95 3.33 0.66 7.07 0.41 10.46-0.26 3.5-0.46 7-1.16 10.45-0.69 3.35-1.34 8.7-5.26 9.94-3.31 1.05-7.61 0.79-10.99 0.21-0.96-0.16-2-0.45-2.76-1.09-0.78-0.65-1.3-1.87-1.73-2.79-0.98-2.04-1.37-4.15-1.62-6.38-0.22-1.93-0.74-3.82-0.94-5.75-0.21-2-0.2-4.06-0.23-6.07-0.02-1.18 0.05-2.34 0.15-3.52 0.16-1.77 0.14-3.76 0.58-5.48 0.43-1.69 2.36-2.55 3.86-3.05 4.18-1.38 9.24-1.33 13.52-0.44 1.86 0.41 5.54 1.29 6.17 3.51zm-44.42 37.21c2.53 0.49 5.13 2.51 6.5 4.17-0.36-1.25-1.06-2.45-1.99-3.37 1.15-0.79 2.14-1.88 3.44-2.45 1.46-0.63 3.21-0.23 4.71 0.07 2.36 0.47 4.36 1.36 6.3 2.75 2.05 1.47 5.16 2.04 7.57 2.73 2.63 0.76 5.29 1.44 7.96 2.07 2.15 0.5 3.96 0.92 6.14 0.22 2.56-0.83 4.62-2.47 7.02-3.6 2.66-1.25 5.83-0.7 8.3 0.74 1.17 0.68 2.1 1.55 2.95 2.6 0.35 0.43 0.72 0.88 1.04 1.34 0.1 0.14 0.25 0.48 0.39 0.61 0.05 0.44 0.26 0.52 0.63 0.23 0.27-0.08 0.54-0.15 0.82-0.2 1.21-0.2 2.21 0.06 3.07 0.93 0.4 0.4 0.67 0.98 1.1 1.34 0.12 0.1 0.28 0.47 0.41 0.51 0.28 0.07 1.31-0.54 1.65-0.63 2.13-0.55 2.85 0.48 3.49 2.27-1.23 0-2.46 0.07-3.69 0.19-0.69 0.07-1.57 0.36-2.24 0.26-0.58-0.08-0.88-0.55-1.36-0.95-2.12-1.75-4.76-3.13-7.38-3.92-1.22-0.37-2.23-1-3.39-1.48-1.6-0.67-3.13-0.41-4.79-0.11-2.33 0.42-4.55 1.2-6.85 1.75-5.25 1.26-10.12-0.92-15.17-2.09-4.68-1.08-9.15-0.13-13.84 0-3.19 0.09-6.72-0.06-9.69-1.36-3.09-1.35-5.99-2.16-9.42-2.14 2.46-1.29 4.08-2.91 6.32-2.48zm-143.58 97.45c2.87-18.65 13.85-34.34 28.48-45.82 6.15-4.82 12.84-8.93 19.61-12.8 11.01-6.3 22.5-11.75 34.32-16.38 11.93-4.67 24.18-8.48 36.51-11.93-1.54 2.15-2.47 4.67-2.76 7.3-0.12 1.09-0.09 0.96-1.02 1.12-0.5 0.09-1 0.18-1.49 0.32-3.28 0.93-5.49 3.52-6.86 6.55-1.14 2.54-1.66 5.31-2.59 7.93-0.27 0.78-0.52 1.93-1.05 2.59-0.3 0.37-0.62 0.47-1.08 0.68-2.87 1.25-5.73 2.53-8.59 3.81-10.54 4.75-21.01 9.68-31.35 14.85-11.33 5.67-22.42 11.38-33.04 18.24-10.43 6.75-20.73 14.28-29.09 23.54zm131.28 47.64c-4.85-6.97-11.63-12.06-19.85-14.33-8.9-2.46-18.06-0.94-27.09-2.23-8.15-1.16-16.15-4.37-21.23-11.12-5.09-6.76-6-14.89-7.05-23.01-1.15-8.92-3.49-18.84-9.85-25.57 14.18-7.74 28.45-15.51 43.25-22.03 2.85-1.25 5.78-2.2 8.66-3.36-0.9 2.8 0.58 6.15 1.63 8.7 1 2.43 2.05 4.77 3.69 6.83 3.11 3.91 7.5 6.52 11.9 8.74 4.77 2.4 9.73 4.42 14.38 7.06 1.13 0.64 2.23 1.31 3.31 2.03 1.07 0.71 2.66 1.53 3.45 2.56 0.43 0.56 0.23 1.31 0.3 2.06 0.07 0.78 0.23 1.57 0.52 2.3 0.46 1.18 1.32 2.15 2.18 3.05 0.4 0.41 2.11 1.56 2.23 2.11 0.06 0.24-0.33 0.88-0.36 1.27-0.04 0.68 0.12 0.86 0.65 1.31 1.55 1.33 3.79 2.17 5.84 2.23-2.75 7.87-5.17 15.91-6.26 24.2-0.57 4.32-0.77 8.69-0.5 13.05 0.14 2.2 0.4 4.4 0.79 6.57 0.17 0.96 0.71 2.23 0.67 3.19-0.05 0.88-1.24 1.97-1.83 2.7-0.77 0.96-1.57 1.9-2.34 2.85-0.48 0.59-1.46 2.33-2.11 2.42-0.72 0.1-2.06-0.89-2.62-1.27-0.91-0.64-1.73-1.4-2.36-2.31zm2.24 58.76c-0.22-0.26 2.73-0.44 2.94-0.44 1.9 0 3.86 0.1 5.73 0.5 0.43 0.09 1.4 0.2 1.69 0.59 0.41 0.53 0.44 1.93 0.68 2.63 0.32 0.93 1.16 2.48 0.79 3.49-0.41 1.13-1.5-0.37-2.22-0.58 0.58 4.15 1.63 8.33 3.23 12.21 0.56 1.35 1.26 2.9 0.42 4.3-0.77 1.29-2.59 1.87-3.99 2.04-2.37 0.29-4.94 0.09-7.32-0.1-2.26-0.18-4.66-0.3-6.66-1.4-2.85-1.57-4.95-3.28-4.34-6.79 0.82-4.74 6.44-8 10.09-10.44-1.26 0.05-2.63 0.91-3.85 0.79-1.28-0.13-0.69-1.6-0.41-2.47 0.62-1.92 2.35-2.65 3.22-4.33zm50.28-52.97c-0.1-3.59-0.52-7.17-1.55-10.62-0.82-2.74-2-5.35-3.09-7.99-0.28-0.69-0.65-1.4-0.85-2.12-0.27-0.95 0.32-1.79 0.67-2.73 0.68-1.81 1.22-3.67 1.66-5.55 0.84-3.63 1.3-7.34 1.82-11.02 0.68-4.83 1.5-9.63 2.78-14.35-1.15 1.21-1.81 2.91-2.4 4.44-0.86 2.25-1.53 4.58-2.15 6.91-1.21 4.53-2.11 9.14-3.54 13.61-1.44 4.54-3.47 8.89-6.29 12.73-1.54 2.09-3.29 4.01-5.21 5.75-0.99 0.9-2.02 1.75-3.09 2.55-0.43 0.32-1.53 0.83-1.82 1.3-0.29 0.48-0.14 1.67-0.29 2.28-0.56 2.37-1.98 4.14-3.62 5.86-1.8 1.89-3.08 3.82-3.59 6.43 0.54-0.76 1.21-1.48 1.94-2.07 0.17-0.13 0.53-0.5 0.75-0.51 0.41-0.02 0.12-0.16 0.3 0.28 0.31 0.76-0.08 2.34-0.13 3.18-0.05 0.86-0.07 1.74-0.18 2.57-0.56 3.99-1.74 8.06-3.2 11.84-2.25 5.86-5.7 11.18-6.35 17.53-0.31 3.02-0.3 6.05-0.5 9.07-0.05 0.77 0.06 1.26-0.62 1.54-1.58 0.65-4.16 0.18-5.8-0.02-1.72-0.22-3.44-0.56-5.1-1.06-0.41-0.12-1.35-0.27-1.67-0.6-0.46-0.47 0.02-2.05 0.11-2.81 0.5-4.32 0.66-8.66 0.87-13 0.43-9.09 1.06-18.62 4.23-27.18 1.36-3.66 3.42-6.8 5.82-9.86 1.38-1.76 3.09-3.45 4.28-5.34 0.44-0.7 0.08-1.25-0.15-2.05-2.81-9.44-2.53-19.3-0.87-28.94 0.75-4.33 1.76-8.6 2.95-12.83 0.34-1.19 0.69-2.38 1.05-3.57 0.18-0.58 0.26-1.31 0.7-1.68 0.3-0.25 0.8-0.39 1.15-0.61 1.28-0.81 2.65-1.68 3.82-2.63 1.95-1.6 3.48-3.67 5.34-5.38 1.34-1.23 1.84-2.53 0.83-4.18-0.97-1.59-2.76-2.49-3.75-4.01-0.34-0.52-0.25-0.6-0.03-1.19 0.15-0.41 0.25-0.68 0.32-1.06 0.22-1.23 0.28-2.52 0.45-3.76 0.8 0.71 2.02 1.07 2.99 1.42 3.05 1.11 6.21 2.01 9.36 2.77 7.02 1.7 14.42 1.84 21.6 1.45 2.31-0.13 4.63-0.32 6.92-0.61-0.47 3.45 0.33 7.01 0.93 10.43 0.62 3.58 1.62 7.09 2.22 10.64 1.31 7.61 2.6 15.29 2.69 23.04 0.08 6.73-0.69 14.05-4.67 19.71-0.33 0.47-1.28 1.25-1.42 1.79-0.17 0.62 0.34 2 0.39 2.68 0.18 2.18 0.05 4.39-0.34 6.54-0.4 2.2-1.13 4.25-1.91 6.33-0.4 1.07-0.53 2.31-0.98 3.34-0.19 0.45 0.01 0.32-0.39 0.54-0.18 0.1-0.61 0.08-0.81 0.1-0.7 0.08-1.39 0.16-2.09 0.24-6.79 0.7-13.99 1-20.69-0.6 1.48-4.64 4.87-9.07 10.2-8.96zm-12.41 24.38c-0.68-2.46-1.31-4.95-1.76-7.47-0.29-1.62-0.74-3.61-0.3-5.24 0.35-1.3 1.4-0.57 2.35-0.29 1.55 0.46 3.15 0.73 4.75 0.92 4.47 0.53 8.99 0.38 13.46-0.03 1.97-0.18 3.93-0.41 5.88-0.7 1.26-0.19 2.53-0.57 3.79-0.71 2.11-0.23 0.58 2.35 0.33 3.48-0.31 1.46-0.51 2.96-0.75 4.44-0.64 4.04-1.48 8.11-1.79 12.19-0.54 7.12-0.53 14.47 0.05 21.59 0.09 1.07 0.29 1.34 1.17 1.94 1.1 0.75 2.29 1.37 3.45 2 2.92 1.58 5.92 3.06 8.73 4.84 1.23 0.78 2.36 1.69 3.67 2.36 1.64 0.84 3.38 1.49 5.12 2.09 1.71 0.6 3.45 1.13 5.16 1.72 1.14 0.4 2.51 0.78 3.41 1.63 3.26 3.08-6.24 3.99-7.55 4.06-3.43 0.18-6.85-0.28-10.24-0.74-4.76-0.65-9.5-1.36-14.3-1.63-4.47-0.25-8.95-0.21-13.42-0.25-3.53-0.03-8.99-0.29-8.82-5.06 0.14-3.95 3.01-7.22 3.78-11.04 0.66-3.28 0.14-6.77-0.14-10.06-0.39-4.56-1.39-8.8-3.23-12.99-1.01-2.33-2.13-4.6-2.8-7.05z" fill="#000"/>
  <g clip-rule="evenodd" fill-rule="evenodd">
   <path class="st5" d="m188.75 258.11c-3.11 0-7.04-1-9.74-2.22l-2.36 3.35 0.29 6.54s14.25 3.99 12.49 0.77c-1.76-3.23-0.68-8.44-0.68-8.44z" opacity=".3"/>
   <path class="st5" d="m222.04 259.77c-2.84 0.11-0.95 0.67 1.22 3.33s0.41 5.55-2.16 6.33l7.43 0.47 6.33-3.67s-9.98-6.57-12.82-6.46z" opacity=".3"/>
   <path class="st5" d="m203.62 212.14c-4.57 1.5-11.77 2.16-16.54 2.33s-10.35-0.25-14-1.5l-0.13 3.93s3.45 1.3 15.02 1.5c9.74 0.17 15.83-2.16 15.83-2.16l1.24-1.67c-0.01 0 3.14-3.93-1.42-2.43z" opacity=".3"/>
   <path class="st5" d="m203.12 220.63c-4.53 1.6-10.93 1.67-15.7 1.83-4.77 0.17-10.35-0.25-14-1.5l1.19 4.18s1.06 0.71 12.63 0.91c9.74 0.17 15.92-2.03 15.92-2.03l0.78-1.39c-0.01 0 1.02-2.65-0.82-2z" opacity=".3"/>
  </g>
  <g clip-rule="evenodd" fill-rule="evenodd">
   <path class="st6" d="m105.52 94.33c0.57-0.92-0.82-5.08 1.44-9.01 2.92-5.06 8.58-7.23 0.57-3.97-14.21 5.78-50.71 23.88-60.98 29.41l0.02 0.02c8.52 5.46 12.53 18.39 13.79 31.57 0.12 1.23 0.27 2.41 0.45 3.57 0.21 1.09 0.36 1.93 0.45 2.46 0.04 0.2 0.07 0.4 0.11 0.59 9.33-25.51 42.83-52.54 44.15-54.64z" opacity=".4"/>
   <path class="st6" d="m151.15 142.44c-9.55 10.68-33.57 30.57-50.8 31.69 24.26-0.61 33.89 11.47 41.09 27.08 7.38-14.61 7.39-28.62 7.28-44.99-0.05-6.88 4.91-16.56 2.43-13.78z" opacity=".4"/>
   <path class="st6" d="m165.93 78.39-14.33-11.47s-3.14 8.55-2.76 12.89-5.03 7.53-2.48 9.98 8.99 6.99 11.07 9.53 2.96 19.71 2.96 19.71l6.09 7.66s2.66-5.1 3.03-17.5c0.46-15.19-8.22-19.76-9.12-23.87-0.91-4.1 1.86-8.41 5.54-6.93z" opacity=".4"/>
   <path class="st6" d="m188.09 146.05-8.6 28.53s4.99 15.73 4.48 17.85c-0.5 2.12-9.27 13.17-9.27 13.17l10.94 0.96s3.4-6.02 5.87-9.7c2.56-3.8 1.05-4.46 0-12.85s-3.81-26.03-3.42-37.96z" opacity=".4"/>
   <path class="st6" d="m184.22 40.84-12.29-2.23-1.4-3.67-3.56-0.15c2.15 4.9 4.94 7.08 9.13 8.62 2.58 0.95 12.61 2.25 16.57-2.27 1.78-2.03 0.62-7.59 0.62-7.59z" opacity=".4"/>
   <path class="st6" d="m219.64 101.61c-2.43-2.22-3.8-6.76-4.22-9.18l-5.17 6.97 1.9 3.27s6.86 0.37 7.87 0.37c0.94-0.01 0.78-0.38-0.38-1.43z" opacity=".4"/>
  </g>
 </g>
</svg>
