<svg width="256" height="256" viewBox="0 0 256 256" fill="none" xmlns="http://www.w3.org/2000/svg">
<rect width="256" height="256" rx="60" fill="#242938"/>
<path d="M128 60.5006L76.7392 54.8235L38 37.9999H82.9984L128 60.5037" fill="#FBC707"/>
<path d="M128 60.5006L180.435 55.9974L218 37.9999H172.998L128 60.5037" fill="#FBC707"/>
<path d="M128 195.502L176.913 197.263L218 218.003H172.998L128 195.498" fill="#F68712"/>
<path d="M128 195.502H78.6957L38 218.002H82.9984L128 195.498" fill="#F25C19"/>
<path d="M60.4992 128.002V175.349L38 218.002V173.003L60.4992 128.001" fill="#FFF200"/>
<path d="M60.4992 128.002L56.7825 81.0417L38 37.9999V82.9994L60.4992 128.001" fill="#FFF200"/>
<path d="M195.497 128.002L200.391 78.6938L218 37.9999V82.9994L195.497 128.001" fill="#F1471D"/>
<path d="M195.497 128.002L199.609 180.827L218 218.002V173.003L195.497 128.001" fill="#F1471D"/>
<path d="M38 37.9999L128 60.5006L113.522 117.825L60.4992 128.002L38 38.0046" fill="#FAB20B"/>
<path d="M218 37.9999L195.497 128.002L135.043 117.04L128 60.4979L218 38.0046" fill="#F47216"/>
<path d="M218 218.002L128 195.502L138.174 135.83L195.497 128.006L218 217.997" fill="#F25C19"/>
<path d="M38 218.002L60.4992 128.002L114.696 140.13L128 195.502L38 217.997" fill="#F89C0E"/>
<path d="M128 60.5008L60.4992 128.002L128 195.502L195.497 128.002L128 60.5038" fill="#F68712"/>
</svg>
