<svg width="256" height="256" viewBox="0 0 256 256" fill="none" xmlns="http://www.w3.org/2000/svg">
<rect width="256" height="256" rx="60" fill="#F4F2ED"/>
<path d="M128 60.5008L76.7392 54.8236L38 38H82.9984L128 60.5038" fill="#FBC707"/>
<path d="M128 60.5008L180.435 55.9975L218 38H172.998L128 60.5038" fill="#FBC707"/>
<path d="M128 195.502L176.913 197.263L218 218.003H172.998L128 195.498" fill="#F68712"/>
<path d="M128 195.502H78.6957L38 218.003H82.9984L128 195.498" fill="#F25C19"/>
<path d="M60.4992 128.002V175.349L38 218.003V173.003L60.4992 128.001" fill="#FFF200"/>
<path d="M60.4992 128.002L56.7825 81.0418L38 38V82.9995L60.4992 128.001" fill="#FFF200"/>
<path d="M195.497 128.002L200.391 78.6939L218 38V82.9995L195.497 128.001" fill="#F1471D"/>
<path d="M195.497 128.002L199.609 180.828L218 218.003V173.003L195.497 128.001" fill="#F1471D"/>
<path d="M38 38L128 60.5008L113.522 117.826L60.4992 128.002L38 38.0048" fill="#FAB20B"/>
<path d="M218 38L195.497 128.002L135.043 117.04L128 60.498L218 38.0048" fill="#F47216"/>
<path d="M218 218.003L128 195.502L138.174 135.831L195.497 128.007L218 217.997" fill="#F25C19"/>
<path d="M38 218.003L60.4992 128.002L114.696 140.131L128 195.502L38 217.997" fill="#F89C0E"/>
<path d="M128 60.5008L60.4993 128.002L128 195.502L195.497 128.002L128 60.5038" fill="#F68712"/>
</svg>
