<?xml version="1.0" encoding="utf-8"?>
<!-- Generator: Adobe Illustrator 27.0.0, SVG Export Plug-In . SVG Version: 6.00 Build 0)  -->
<svg version="1.1" id="Layer_1" xmlns="http://www.w3.org/2000/svg" xmlns:xlink="http://www.w3.org/1999/xlink" x="0px" y="0px"
	 viewBox="0 0 256 256" style="enable-background:new 0 0 256 256;" xml:space="preserve">
<style type="text/css">
	.st0{fill:#242938;}
	.st1{fill:#FFD21E;}
	.st2{fill:#FF9D0B;}
	.st3{fill:#3A3B45;}
	.st4{fill:#FF323D;}
	.st5{fill-rule:evenodd;clip-rule:evenodd;fill:#3A3B45;}
</style>
<g>
	<path class="st0" d="M60,0h136c33.1,0,60,26.9,60,60v136c0,33.1-26.9,60-60,60H60c-33.1,0-60-26.9-60-60V60C0,26.9,26.9,0,60,0z"/>
	<circle class="st1" cx="127.4" cy="123.6" r="80.9"/>
	<path class="st2" d="M208.3,123.6c0-44.7-36.2-80.9-80.9-80.9s-80.9,36.2-80.9,80.9s36.2,80.9,80.9,80.9S208.3,168.3,208.3,123.6z
		 M37.2,123.6c0-49.8,40.4-90.2,90.2-90.2s90.2,40.4,90.2,90.2s-40.4,90.2-90.2,90.2S37.2,173.4,37.2,123.6z"/>
	<path class="st3" d="M153.7,101.6c3,1,4.1,7.1,7.1,5.5c5.7-3,7.8-10.1,4.8-15.7c-3-5.7-10.1-7.8-15.7-4.8c-5.7,3-7.8,10.1-4.8,15.7
		l0,0C146.5,105,151.1,100.6,153.7,101.6L153.7,101.6z M98.9,101.6c-3,1-4.2,7.1-7.1,5.5c-5.7-3-7.8-10.1-4.8-15.7
		s10.1-7.8,15.7-4.8c5.7,3,7.8,10.1,4.8,15.7l0,0C106,105,101.5,100.6,98.9,101.6L98.9,101.6z"/>
	<path class="st4" d="M126.8,157.5c22.9,0,30.3-20.4,30.3-30.9c0-5.4-3.7-3.7-9.5-0.8c-5.4,2.7-12.7,6.4-20.7,6.4
		c-16.7,0-30.3-16-30.3-5.5C96.6,137.1,103.9,157.5,126.8,157.5L126.8,157.5z"/>
	<path class="st5" d="M109.3,152.1c2.5-5,7-8.8,12.3-10.5c0.9-0.3,1.9,1.3,2.9,3c0.9,1.6,1.9,3.2,2.9,3.2c1,0,2.1-1.6,3.1-3.1
		c1-1.6,2.1-3.2,3.1-2.9c5,1.6,9.2,5.1,11.6,9.7c8.7-6.8,11.9-18,11.9-24.9c0-5.4-3.7-3.7-9.5-0.8l-0.3,0.2
		c-5.4,2.7-12.6,6.2-20.4,6.2s-15-3.5-20.4-6.2c-6.1-3-9.9-4.9-9.9,0.7C96.6,133.7,100,145.3,109.3,152.1z"/>
	<path class="st2" d="M182.1,112.5c4.2,0,7.6-3.4,7.6-7.6s-3.4-7.6-7.6-7.6s-7.6,3.4-7.6,7.6S178,112.5,182.1,112.5z M73.9,112.5
		c4.2,0,7.6-3.4,7.6-7.6s-3.4-7.6-7.6-7.6s-7.6,3.4-7.6,7.6S69.7,112.5,73.9,112.5z M58.3,138.2c-3.8,0-7.1,1.5-9.5,4.4
		c-2,2.5-3.1,5.6-3.1,8.8c-1.5-0.4-3-0.7-4.5-0.7c-3.6,0-6.9,1.4-9.2,3.9c-4.2,4.4-5,11.1-1.9,16.3c-2.1,1.7-3.5,4-4.2,6.6
		c-0.6,2.1-1.1,6.5,1.9,11c-2.3,3.5-2.6,7.9-0.9,11.7c2.4,5.4,8.3,9.6,19.8,14.2c7.1,2.8,13.7,4.7,13.8,4.7
		c8.3,2.3,16.8,3.6,25.5,3.7c13.6,0,23.4-4.2,29-12.4c9-13.3,7.8-25.4-4-37.1c-6.5-6.5-10.8-16-11.6-18.1
		c-1.8-6.2-6.6-13.1-14.6-13.1c-4.3,0.1-8.3,2.2-10.7,5.7c-2.3-2.9-4.6-5.2-6.7-6.6C64.8,139.3,61.6,138.2,58.3,138.2z M58.3,147.5
		c1.2,0,2.7,0.5,4.2,1.5c5,3.2,14.6,19.6,18.1,26c1.2,2.1,3.2,3.1,5,3.1c3.6,0,6.4-3.6,0.3-8.1c-9.1-6.8-5.9-18-1.6-18.7
		c0.2,0,0.4,0,0.6,0c4,0,5.7,6.8,5.7,6.8s5.1,12.9,13.9,21.7c8.8,8.8,9.2,15.8,2.8,25.2c-4.4,6.4-12.7,8.3-21.3,8.3
		c-8.9,0-18-2.1-23.1-3.4c-0.3-0.1-31.3-8.8-27.4-16.3c0.7-1.3,1.7-1.8,3.1-1.8c5.5,0,15.6,8.2,20,8.2c1,0,1.6-0.4,1.9-1.4
		c1.8-6.6-28.1-9.4-25.6-19c0.5-1.7,1.7-2.4,3.4-2.4c7.3,0,23.8,12.9,27.2,12.9c0.3,0,0.5-0.1,0.6-0.2c1.7-2.8,0.8-4.8-11.4-12.1
		C42.6,170.5,34,166,38.9,160.7c0.6-0.6,1.4-0.9,2.3-0.9c7.4,0,24.8,15.9,24.8,15.9s4.7,4.9,7.6,4.9c0.7,0,1.2-0.2,1.6-0.9
		c2-3.4-18.8-19.1-19.9-25.6C54.4,149.7,55.8,147.5,58.3,147.5L58.3,147.5z"/>
	<path class="st1" d="M107.4,205c6.4-9.4,5.9-16.5-2.8-25.2c-8.8-8.8-13.9-21.7-13.9-21.7s-1.9-7.5-6.3-6.8
		c-4.4,0.7-7.5,11.8,1.6,18.7c9.1,6.8-1.8,11.5-5.3,5.1c-3.5-6.4-13.1-22.9-18.1-26c-5-3.1-8.5-1.4-7.3,5.1
		c1.2,6.5,22,22.2,19.9,25.6c-2,3.4-9.2-4-9.2-4s-22.3-20.3-27.2-15c-4.8,5.3,3.7,9.7,15.8,17.1c12.2,7.4,13.1,9.3,11.4,12.1
		c-1.7,2.8-28.6-19.9-31.1-10.2c-2.5,9.6,27.4,12.3,25.6,19c-1.9,6.6-21.1-12.5-25-5.1c-4,7.5,27.1,16.3,27.4,16.3
		C72.9,212.5,98.4,218,107.4,205z"/>
	<path class="st2" d="M197.7,138.2c3.8,0,7.1,1.5,9.5,4.4c2,2.5,3.1,5.6,3.1,8.8c1.5-0.4,3-0.7,4.5-0.7c3.6,0,6.9,1.4,9.2,3.9
		c4.2,4.4,5,11.1,1.9,16.3c2.1,1.7,3.5,4,4.1,6.6c0.6,2.1,1.1,6.5-1.9,11c2.3,3.5,2.6,7.9,0.9,11.7c-2.4,5.4-8.3,9.6-19.8,14.2
		c-7.2,2.8-13.7,4.7-13.8,4.7c-8.3,2.3-16.8,3.6-25.5,3.7c-13.6,0-23.4-4.2-29-12.4c-9-13.3-7.8-25.4,4-37.1
		c6.5-6.5,10.8-16,11.7-18.1c1.8-6.2,6.6-13.1,14.5-13.1c4.3,0.1,8.3,2.2,10.7,5.7c2.3-2.9,4.6-5.2,6.7-6.6
		C191.2,139.3,194.4,138.2,197.7,138.2z M197.7,147.5c-1.2,0-2.6,0.5-4.2,1.5c-5,3.2-14.6,19.6-18.1,26c-1,1.9-2.9,3-5,3.1
		c-3.6,0-6.4-3.6-0.3-8.1c9.1-6.8,5.9-18,1.6-18.7c-0.2,0-0.4,0-0.6,0c-4,0-5.7,6.8-5.7,6.8s-5.1,12.9-13.9,21.7
		c-8.8,8.8-9.3,15.8-2.8,25.2c4.4,6.4,12.7,8.3,21.3,8.3c8.9,0,18-2.1,23.1-3.4c0.2-0.1,31.3-8.8,27.4-16.3
		c-0.7-1.3-1.7-1.8-3.1-1.8c-5.5,0-15.6,8.2-20,8.2c-1,0-1.7-0.4-1.9-1.4c-1.9-6.6,28.1-9.4,25.5-19c-0.4-1.7-1.6-2.4-3.4-2.4
		c-7.3,0-23.8,12.9-27.2,12.9c-0.2,0-0.4-0.1-0.5-0.2c-1.7-2.8-0.8-4.8,11.4-12.1c12.2-7.4,20.7-11.8,15.8-17.1
		c-0.5-0.6-1.3-0.9-2.3-0.9c-7.4,0-24.8,15.9-24.8,15.9s-4.7,4.9-7.5,4.9c-0.7,0-1.3-0.3-1.6-0.9c-2-3.4,18.7-19.1,19.9-25.6
		C201.6,149.7,200.2,147.5,197.7,147.5L197.7,147.5z"/>
	<path class="st1" d="M148.7,205c-6.4-9.4-6-16.5,2.8-25.2c8.8-8.8,13.9-21.7,13.9-21.7s1.9-7.5,6.3-6.8c4.3,0.7,7.5,11.8-1.6,18.7
		c-9.1,6.8,1.8,11.5,5.3,5.1c3.5-6.4,13.1-22.9,18.1-26c5-3.1,8.5-1.4,7.3,5.1c-1.2,6.5-21.9,22.2-19.9,25.6c2,3.4,9.1-4,9.1-4
		s22.3-20.3,27.2-15c4.8,5.3-3.7,9.7-15.8,17.1c-12.2,7.4-13.1,9.3-11.4,12.1c1.7,2.8,28.6-19.9,31.1-10.2
		c2.5,9.6-27.4,12.3-25.5,19c1.9,6.6,21.1-12.5,25-5.1c3.9,7.5-27.1,16.3-27.4,16.3C183.1,212.5,157.6,218,148.7,205L148.7,205z"/>
</g>
</svg>
