<svg width="256" height="256" viewBox="0 0 256 256" fill="none" xmlns="http://www.w3.org/2000/svg">
<rect width="256" height="256" rx="60" fill="#330000"/>
<path d="M123.733 152.333H84.0533L75.9466 177.4C75.7333 178.36 74.8799 179 73.9199 178.893H53.8666C52.6933 178.893 52.3733 178.253 52.6933 176.973L87.0399 78.0935C87.3599 77.0268 87.6799 75.8535 88.1066 74.5735C88.5333 72.3335 88.7466 69.9868 88.7466 67.6401C88.6399 67.1068 89.0666 66.5735 89.5999 66.4668H89.9199H117.227C118.08 66.4668 118.507 66.7868 118.613 67.3201L157.547 177.187C157.867 178.36 157.547 178.893 156.48 178.893H134.187C133.44 179 132.693 178.467 132.48 177.72L123.733 152.333V152.333ZM90.2399 130.68H117.333C116.693 128.44 115.84 125.773 114.88 123C113.92 120.12 112.96 117.027 112 113.827C110.933 110.52 109.973 107.32 108.907 104.013C107.84 100.707 106.88 97.6135 106.027 94.5201C105.173 91.5335 104.427 88.7601 103.68 86.2001H103.467C102.507 90.7868 101.333 95.3735 99.8399 99.9601C98.2399 105.08 96.6399 110.413 94.9333 115.747C93.4399 121.187 91.8399 126.2 90.2399 130.68V130.68Z" fill="#FF9A00"/>
<path d="M181.333 85.1334C177.813 85.2401 174.4 83.8534 171.84 81.4001C169.387 78.7334 168.107 75.2134 168.213 71.5868C168.107 67.9601 169.493 64.5468 172.053 62.0934C174.613 59.6401 178.027 58.3601 181.547 58.3601C185.707 58.3601 188.907 59.6401 191.253 62.0934C193.6 64.6534 194.88 68.0668 194.773 71.5868C194.88 75.2134 193.6 78.7334 191.04 81.4001C188.587 83.9601 184.96 85.3468 181.333 85.1334ZM169.387 177.72V95.5868C169.387 94.5201 169.813 94.0934 170.773 94.0934H191.893C192.853 94.0934 193.28 94.6268 193.28 95.5868V177.72C193.28 178.893 192.853 179.427 191.893 179.427H170.987C169.92 179.427 169.387 178.787 169.387 177.72V177.72Z" fill="#FF9A00"/>
</svg>
