<svg version="1.2" xmlns="http://www.w3.org/2000/svg" viewBox="0 0 256 256" width="256" height="256">
	<title>InDesign</title>
	<style>
		.s0 { fill: #49021f } 
		.s1 { fill: #ff3366 } 
	</style>
	<path id="Layer" class="s0" d="m0 60c0-33.1 26.9-60 60-60h136c33.1 0 60 26.9 60 60v136c0 33.1-26.9 60-60 60h-136c-33.1 0-60-26.9-60-60z"/>
	<path id="Layer" fill-rule="evenodd" class="s1" d="m94.1 80.8v101.9c0 1.1-0.5 1.6-1.4 1.6h-19.4c-0.9 0-1.3-0.5-1.3-1.6v-101.9c0-0.9 0.5-1.3 1.4-1.3h19.3c0.6-0.1 1.2 0.3 1.3 1 0.1 0.1 0.1 0.2 0.1 0.3zm57.1 104.7c-7.3 0.1-14.6-1.4-21.2-4.5-6.3-2.8-11.4-7.6-15-13.4-3.6-6.1-5.4-13.6-5.4-22.6-0.1-7.3 1.8-14.5 5.4-20.9 3.8-6.4 9.2-11.7 15.8-15.3 6.9-3.9 15.2-5.7 25-5.7 0.5 0 1.2 0 2.1 0.1 0.9 0.1 1.8 0.1 3 0.2v-31.3c0-0.7 0.3-1.1 1-1.1h20.1c0.5-0.1 0.9 0.3 1 0.7v94.4c0 1.8 0.1 3.7 0.2 5.9 0.2 2.1 0.3 4.1 0.4 5.8 0 0.6-0.3 1.2-1 1.5-5.1 2.2-10.6 3.8-16.1 4.8-5 0.9-10.1 1.4-15.3 1.4zm9.7-19.8v-43.5c-0.9-0.2-1.7-0.4-2.6-0.5-1.1-0.1-2.2-0.2-3.3-0.2-3.9 0-7.7 0.8-11.2 2.5-3.3 1.7-6.2 4.2-8.4 7.4-2.2 3.1-3.3 7.4-3.3 12.5-0.1 3.5 0.5 6.9 1.7 10.2 1 2.7 2.5 5.1 4.5 7 1.9 1.8 4.1 3.2 6.7 4 2.7 0.9 5.4 1.3 8.2 1.3 1.5 0 2.9-0.1 4.2-0.2 1.3 0.1 2.4-0.1 3.5-0.5z"/>
</svg>