<?xml version="1.0" encoding="UTF-8" standalone="no"?>
<svg
   version="1.1"
   width="256"
   height="256"
   viewBox="0 0 256 256"
   xml:space="preserve"
   id="svg21"
   sodipodi:docname="Inkscape.svg"
   inkscape:version="1.1.1 (3bf5ae0d25, 2021-09-20)"
   xmlns:inkscape="http://www.inkscape.org/namespaces/inkscape"
   xmlns:sodipodi="http://sodipodi.sourceforge.net/DTD/sodipodi-0.dtd"
   xmlns="http://www.w3.org/2000/svg"
   xmlns:svg="http://www.w3.org/2000/svg"><sodipodi:namedview
   id="namedview23"
   pagecolor="#ffffff"
   bordercolor="#666666"
   borderopacity="1.0"
   inkscape:pageshadow="2"
   inkscape:pageopacity="0"
   inkscape:pagecheckerboard="0"
   showgrid="false"
   width="256px"
   inkscape:zoom="1.438"
   inkscape:cx="42.767733"
   inkscape:cy="53.198887"
   inkscape:window-width="1920"
   inkscape:window-height="1111"
   inkscape:window-x="-9"
   inkscape:window-y="-9"
   inkscape:window-maximized="1"
   inkscape:current-layer="g850" />
<desc
   id="desc2">Created with Fabric.js 5.3.0</desc>
<defs
   id="defs4">
</defs>

<g
   id="g843"><g
     id="g850"
     transform="matrix(0.512,0,0,0.512,-3.4792096e-6,4.8311761e-6)"><g
       transform="matrix(1.7029479,0,0,1.7029479,250,250)"
       id="UhuPSDbp1_JIuZzl8hu3o"
       style="fill:#ffffff;fill-opacity:1">
<path
   style="opacity:1;fill:#ffffff;fill-rule:nonzero;stroke:#8f8980;stroke-width:0;stroke-linecap:butt;stroke-linejoin:miter;stroke-miterlimit:4;stroke-dasharray:none;stroke-dashoffset:0;fill-opacity:1"
   d="m -146.80426,-84.52048 c 0,-34.39838 27.8854,-62.28377 62.28377,-62.28377 H 84.52048 v 0 c 34.39838,0 62.28377,27.8854 62.28377,62.28377 v 169.04097 0 c 0,34.39838 -27.8854,62.28377 -62.28377,62.28377 H -84.52049 v 0 c -34.39838,0 -62.28377,-27.8854 -62.28377,-62.28377 z"
   stroke-linecap="round"
   id="path6" />
</g><g
       transform="matrix(1.2179487,0,0,1.2179487,250,250)"
       id="DUhSxgWP0Qla8oD-7hSY1">
<g
   id="g18">
		<g
   transform="translate(1.7167634,0.06418097)"
   id="MvwQlXUAx61GJ-3hUBl6Y">
<path
   style="opacity:1;fill:#000000;fill-rule:nonzero;stroke:none;stroke-width:1;stroke-linecap:butt;stroke-linejoin:miter;stroke-miterlimit:4;stroke-dasharray:none;stroke-dashoffset:0"
   transform="translate(-196.71676,-195.06418)"
   d="M 163.15,27.83 28.81,165.3 C -16.58,221.51 59.7,214.97 92.4,231.16 104.13,243.15 47.44,252 59.17,264 c 11.73,11.99 70.93,23.1 82.68,35.09 11.73,11.99 -24.01,24.71 -12.28,36.7 11.73,11.99 38.86,0.63 43.94,28.31 3.62,19.78 48.89,8.5 71.03,-7.7 11.73,-12 -22.44,-10.87 -10.71,-22.86 29.17,-29.83 56.33,-10.84 66.31,-40.73 4.93,-14.77 -42.94,-22.77 -31.19,-34.76 33.75,-19.71 150.4,-32.54 95.05,-87.89 L 224.75,27.83 c -17.03,-16.35 -45.45,-16.53 -61.6,0 z m 154.31,264.98 c 0,6.82 50.25,11.29 50.25,-1.61 -7.16,-20.72 -44.31,-19.32 -50.25,1.61 z M 91.1,329.05 c 11.9,10.29 30.28,-2.56 35.79,-16.92 -11.53,-15.32 -54.69,0.55 -35.79,16.92 z m 220.06,-22.23 c -15.34,13.76 1.72,27.72 16.84,18.83 3.37,-3.42 -0.09,-15.41 -16.84,-18.83 z"
   stroke-linecap="round"
   id="path9" />
</g>
		<g
   transform="translate(-28.746274,55.961287)"
   id="bdTCFsoOCs8igTbyEsLH-">
<path
   style="opacity:1;fill:#ffffff;fill-rule:nonzero;stroke:none;stroke-width:1;stroke-linecap:butt;stroke-linejoin:miter;stroke-miterlimit:4;stroke-dasharray:none;stroke-dashoffset:0"
   transform="translate(-166.25373,-250.96129)"
   d="m 131,238.6 c 3.59,2.23 57.89,13.26 71.16,15.46 4.6,0.97 1.34,5.71 -5,8.91 -14.3,3.8 -83.66,-24.37 -66.16,-24.37 z"
   stroke-linecap="round"
   id="path12" />
</g>
		<g
   transform="translate(-1.2859883,-115.57398)"
   id="41eHz7NjAMkRU5ac2598s">
<path
   style="opacity:1;fill:#ffffff;fill-rule:nonzero;stroke:none;stroke-width:1;stroke-linecap:butt;stroke-linejoin:miter;stroke-miterlimit:4;stroke-dasharray:none;stroke-dashoffset:0"
   transform="translate(-193.71401,-79.426021)"
   d="m 216.63,37.47 53.15,53.98 c 5.04,5.15 4.97,15.13 2.15,18 L 245.54,88.34 240.35,119.6 218.3,107.96 182.99,130.27 171.3,83.24 152.33,116.06 h -29 c -11.82,0 -13.21,-15 -2.47,-25.74 18.76,-20.25 40.29,-40.89 51.99,-52.85 11.76,-12.02 32.25,-11.68 43.78,0 z"
   stroke-linecap="round"
   id="path15" />
</g>
</g>
</g></g></g>
</svg>
