<svg xmlns="http://www.w3.org/2000/svg" xmlns:xlink="http://www.w3.org/1999/xlink" width="256" zoomAndPan="magnify" viewBox="0 0 375 374.999991" height="256" preserveAspectRatio="xMidYMid meet" version="1.0">
<defs>
<clipPath id="0e263374a6">
<path d="M 75 0 L 300 0 C 341.421875 0 375 33.578125 375 75 L 375 304.027344 C 375 345.445312 341.421875 379.027344 300 379.027344 L 75 379.027344 C 33.578125 379.027344 0 345.445312 0 304.027344 L 0 75 C 0 33.578125 33.578125 0 75 0 " clip-rule="nonzero"/>
</clipPath>
<clipPath id="34af35e3ea">
<path d="M 34.5 34.5 L 340.5 34.5 L 340.5 340.5 L 34.5 340.5 Z M 34.5 34.5 " clip-rule="nonzero"/>
</clipPath>
</defs>
<g clip-path="url(#0e263374a6)">
<path fill="#f4f2ec" d="M 0 0 L 374.414062 0 L 374.414062 379.6875 L 0 379.6875 Z M 0 0 " fill-opacity="1" fill-rule="nonzero"/>
</g>
<path fill="#4e8ff6" d="M 187.5 117.746094 C 186.359375 117.746094 185.21875 117.773438 184.078125 117.832031 C 182.9375 117.886719 181.800781 117.972656 180.664062 118.085938 C 179.53125 118.199219 178.398438 118.339844 177.269531 118.507812 C 176.140625 118.675781 175.015625 118.871094 173.898438 119.09375 C 172.777344 119.316406 171.664062 119.566406 170.558594 119.84375 C 169.449219 120.121094 168.351562 120.425781 167.257812 120.757812 C 166.167969 121.089844 165.082031 121.449219 164.007812 121.835938 C 162.933594 122.21875 161.871094 122.628906 160.816406 123.066406 C 159.761719 123.503906 158.71875 123.964844 157.6875 124.453125 C 156.65625 124.941406 155.636719 125.457031 154.632812 125.996094 C 153.625 126.53125 152.632812 127.09375 151.652344 127.683594 C 150.675781 128.269531 149.710938 128.878906 148.761719 129.511719 C 147.8125 130.148438 146.878906 130.804688 145.964844 131.484375 C 145.046875 132.164062 144.148438 132.867188 143.265625 133.589844 C 142.382812 134.316406 141.519531 135.058594 140.675781 135.824219 C 139.828125 136.59375 139.003906 137.378906 138.195312 138.1875 C 137.386719 138.992188 136.601562 139.820312 135.835938 140.664062 C 135.066406 141.511719 134.324219 142.375 133.597656 143.257812 C 132.875 144.136719 132.171875 145.039062 131.492188 145.953125 C 130.8125 146.871094 130.15625 147.804688 129.519531 148.75 C 128.886719 149.699219 128.277344 150.664062 127.6875 151.640625 C 127.101562 152.621094 126.539062 153.613281 126 154.621094 C 125.460938 155.625 124.949219 156.644531 124.460938 157.675781 C 123.972656 158.707031 123.507812 159.75 123.070312 160.804688 C 122.632812 161.859375 122.222656 162.921875 121.839844 163.996094 C 121.453125 165.070312 121.09375 166.15625 120.761719 167.246094 C 120.429688 168.339844 120.125 169.4375 119.847656 170.546875 C 119.570312 171.652344 119.320312 172.765625 119.09375 173.882812 C 118.871094 175.003906 118.675781 176.128906 118.507812 177.257812 C 118.339844 178.382812 118.199219 179.515625 118.085938 180.652344 C 117.972656 181.789062 117.890625 182.925781 117.832031 184.066406 C 117.773438 185.207031 117.746094 186.347656 117.746094 187.488281 C 117.746094 188.628906 117.773438 189.769531 117.832031 190.910156 C 117.890625 192.046875 117.972656 193.1875 118.085938 194.320312 C 118.199219 195.457031 118.339844 196.589844 118.507812 197.71875 C 118.675781 198.847656 118.871094 199.96875 119.09375 201.089844 C 119.320312 202.207031 119.570312 203.320312 119.847656 204.425781 C 120.125 205.535156 120.429688 206.632812 120.761719 207.726562 C 121.09375 208.816406 121.453125 209.898438 121.835938 210.972656 C 122.222656 212.046875 122.632812 213.113281 123.070312 214.167969 C 123.507812 215.222656 123.96875 216.261719 124.457031 217.292969 C 124.945312 218.324219 125.460938 219.34375 126 220.351562 C 126.535156 221.355469 127.097656 222.351562 127.6875 223.328125 C 128.273438 224.308594 128.882812 225.269531 129.519531 226.21875 C 130.152344 227.167969 130.808594 228.101562 131.488281 229.015625 C 132.167969 229.933594 132.871094 230.832031 133.59375 231.714844 C 134.320312 232.597656 135.0625 233.460938 135.832031 234.304688 C 136.597656 235.152344 137.382812 235.976562 138.191406 236.785156 C 138.996094 237.589844 139.824219 238.378906 140.667969 239.144531 C 141.515625 239.910156 142.378906 240.65625 143.261719 241.378906 C 144.140625 242.101562 145.042969 242.804688 145.957031 243.484375 C 146.875 244.164062 147.808594 244.824219 148.753906 245.457031 C 149.703125 246.089844 150.667969 246.703125 151.644531 247.289062 C 152.625 247.875 153.617188 248.4375 154.625 248.976562 C 155.628906 249.515625 156.648438 250.027344 157.679688 250.515625 C 158.710938 251.003906 159.753906 251.464844 160.808594 251.902344 C 161.863281 252.339844 162.925781 252.753906 164 253.136719 C 165.074219 253.523438 166.15625 253.878906 167.25 254.210938 C 168.339844 254.542969 169.441406 254.847656 170.546875 255.128906 C 171.652344 255.40625 172.765625 255.65625 173.886719 255.878906 C 175.003906 256.101562 176.128906 256.296875 177.257812 256.464844 C 178.386719 256.636719 179.519531 256.777344 180.652344 256.886719 C 181.789062 257 182.925781 257.085938 184.066406 257.144531 C 185.207031 257.199219 186.347656 257.230469 187.488281 257.230469 C 188.628906 257.230469 189.769531 257.199219 190.910156 257.144531 C 192.046875 257.085938 193.1875 257 194.320312 256.886719 C 195.457031 256.777344 196.589844 256.636719 197.71875 256.464844 C 198.847656 256.296875 199.96875 256.101562 201.089844 255.878906 C 202.207031 255.65625 203.320312 255.40625 204.425781 255.128906 C 205.535156 254.847656 206.632812 254.542969 207.726562 254.210938 C 208.816406 253.878906 209.898438 253.523438 210.972656 253.136719 C 212.046875 252.753906 213.113281 252.339844 214.167969 251.902344 C 215.222656 251.464844 216.261719 251.003906 217.292969 250.515625 C 218.324219 250.027344 219.34375 249.515625 220.351562 248.976562 C 221.355469 248.4375 222.351562 247.875 223.328125 247.289062 C 224.308594 246.703125 225.269531 246.089844 226.21875 245.457031 C 227.167969 244.824219 228.101562 244.164062 229.015625 243.484375 C 229.933594 242.804688 230.832031 242.101562 231.714844 241.378906 C 232.597656 240.65625 233.460938 239.910156 234.304688 239.144531 C 235.152344 238.378906 235.976562 237.589844 236.785156 236.785156 C 237.589844 235.976562 238.378906 235.152344 239.144531 234.304688 C 239.910156 233.460938 240.65625 232.597656 241.378906 231.714844 C 242.101562 230.832031 242.804688 229.933594 243.484375 229.015625 C 244.164062 228.101562 244.824219 227.167969 245.457031 226.21875 C 246.089844 225.269531 246.703125 224.308594 247.289062 223.328125 C 247.875 222.351562 248.4375 221.355469 248.976562 220.351562 C 249.515625 219.34375 250.027344 218.324219 250.515625 217.292969 C 251.003906 216.261719 251.464844 215.222656 251.902344 214.167969 C 252.339844 213.113281 252.753906 212.046875 253.136719 210.972656 C 253.523438 209.898438 253.878906 208.816406 254.210938 207.726562 C 254.542969 206.632812 254.847656 205.535156 255.128906 204.425781 C 255.40625 203.320312 255.65625 202.207031 255.878906 201.089844 C 256.101562 199.96875 256.296875 198.847656 256.464844 197.71875 C 256.636719 196.589844 256.777344 195.457031 256.886719 194.320312 C 257 193.1875 257.085938 192.046875 257.144531 190.910156 C 257.199219 189.769531 257.230469 188.628906 257.230469 187.488281 C 257.226562 186.347656 257.199219 185.207031 257.140625 184.066406 C 257.082031 182.929688 256.996094 181.789062 256.882812 180.65625 C 256.769531 179.519531 256.628906 178.390625 256.460938 177.261719 C 256.292969 176.132812 256.09375 175.007812 255.871094 173.890625 C 255.648438 172.773438 255.394531 171.660156 255.117188 170.554688 C 254.839844 169.445312 254.535156 168.347656 254.203125 167.257812 C 253.871094 166.164062 253.511719 165.082031 253.125 164.007812 C 252.742188 162.9375 252.328125 161.871094 251.890625 160.820312 C 251.453125 159.765625 250.992188 158.722656 250.503906 157.691406 C 250.015625 156.660156 249.5 155.644531 248.960938 154.636719 C 248.425781 153.632812 247.863281 152.640625 247.273438 151.660156 C 246.6875 150.683594 246.078125 149.71875 245.445312 148.769531 C 244.808594 147.824219 244.152344 146.890625 243.472656 145.976562 C 242.792969 145.058594 242.089844 144.160156 241.367188 143.277344 C 240.644531 142.394531 239.898438 141.53125 239.132812 140.6875 C 238.367188 139.84375 237.582031 139.015625 236.773438 138.210938 C 235.96875 137.402344 235.140625 136.617188 234.296875 135.851562 C 233.449219 135.085938 232.585938 134.339844 231.707031 133.613281 C 230.824219 132.890625 229.925781 132.1875 229.011719 131.507812 C 228.09375 130.828125 227.160156 130.171875 226.214844 129.539062 C 225.265625 128.902344 224.300781 128.292969 223.324219 127.707031 C 222.347656 127.117188 221.355469 126.554688 220.347656 126.019531 C 219.34375 125.480469 218.324219 124.964844 217.292969 124.476562 C 216.261719 123.988281 215.222656 123.523438 214.167969 123.085938 C 213.113281 122.648438 212.050781 122.238281 210.976562 121.851562 C 209.902344 121.46875 208.820312 121.109375 207.730469 120.777344 C 206.636719 120.445312 205.539062 120.136719 204.433594 119.859375 C 203.328125 119.582031 202.214844 119.328125 201.097656 119.105469 C 199.976562 118.882812 198.855469 118.683594 197.726562 118.515625 C 196.597656 118.347656 195.464844 118.207031 194.332031 118.09375 C 193.195312 117.976562 192.058594 117.894531 190.921875 117.835938 C 189.78125 117.777344 188.640625 117.746094 187.5 117.746094 Z M 187.5 117.746094 " fill-opacity="1" fill-rule="nonzero"/>
<path fill="#4e8ff6" d="M 319.386719 92.15625 C 319.386719 93.195312 319.335938 94.234375 319.234375 95.273438 C 319.128906 96.308594 318.976562 97.335938 318.773438 98.359375 C 318.570312 99.378906 318.320312 100.390625 318.015625 101.386719 C 317.714844 102.382812 317.363281 103.363281 316.964844 104.324219 C 316.566406 105.285156 316.121094 106.226562 315.632812 107.144531 C 315.140625 108.0625 314.605469 108.957031 314.027344 109.820312 C 313.449219 110.6875 312.828125 111.523438 312.167969 112.328125 C 311.507812 113.132812 310.808594 113.902344 310.074219 114.640625 C 309.335938 115.375 308.566406 116.074219 307.761719 116.734375 C 306.957031 117.398438 306.121094 118.015625 305.253906 118.59375 C 304.386719 119.171875 303.496094 119.707031 302.578125 120.199219 C 301.660156 120.691406 300.71875 121.136719 299.757812 121.535156 C 298.792969 121.933594 297.816406 122.28125 296.816406 122.585938 C 295.820312 122.886719 294.8125 123.140625 293.792969 123.34375 C 292.769531 123.546875 291.742188 123.699219 290.703125 123.800781 C 289.667969 123.902344 288.628906 123.953125 287.585938 123.953125 C 286.546875 123.953125 285.507812 123.902344 284.472656 123.800781 C 283.433594 123.699219 282.40625 123.546875 281.382812 123.34375 C 280.363281 123.140625 279.351562 122.886719 278.355469 122.585938 C 277.359375 122.28125 276.382812 121.933594 275.417969 121.535156 C 274.457031 121.136719 273.515625 120.691406 272.597656 120.199219 C 271.679688 119.707031 270.789062 119.171875 269.921875 118.59375 C 269.054688 118.015625 268.21875 117.398438 267.414062 116.734375 C 266.609375 116.074219 265.839844 115.375 265.101562 114.640625 C 264.367188 113.902344 263.667969 113.132812 263.007812 112.328125 C 262.347656 111.523438 261.726562 110.6875 261.148438 109.820312 C 260.570312 108.957031 260.035156 108.0625 259.542969 107.144531 C 259.054688 106.226562 258.609375 105.285156 258.210938 104.324219 C 257.8125 103.363281 257.460938 102.382812 257.160156 101.386719 C 256.855469 100.390625 256.601562 99.378906 256.398438 98.359375 C 256.195312 97.335938 256.042969 96.308594 255.941406 95.273438 C 255.839844 94.234375 255.789062 93.195312 255.789062 92.15625 C 255.789062 91.113281 255.839844 90.074219 255.941406 89.039062 C 256.042969 88.003906 256.195312 86.972656 256.398438 85.953125 C 256.601562 84.929688 256.855469 83.921875 257.160156 82.925781 C 257.460938 81.929688 257.8125 80.949219 258.210938 79.988281 C 258.609375 79.023438 259.054688 78.085938 259.542969 77.164062 C 260.035156 76.246094 260.570312 75.355469 261.148438 74.488281 C 261.726562 73.625 262.347656 72.789062 263.007812 71.984375 C 263.667969 71.175781 264.367188 70.40625 265.101562 69.671875 C 265.839844 68.933594 266.609375 68.234375 267.414062 67.574219 C 268.21875 66.914062 269.054688 66.292969 269.921875 65.714844 C 270.789062 65.136719 271.679688 64.601562 272.597656 64.113281 C 273.515625 63.621094 274.457031 63.175781 275.417969 62.777344 C 276.382812 62.378906 277.359375 62.027344 278.355469 61.726562 C 279.351562 61.425781 280.363281 61.171875 281.382812 60.96875 C 282.40625 60.765625 283.433594 60.613281 284.472656 60.511719 C 285.507812 60.40625 286.546875 60.355469 287.585938 60.355469 C 288.628906 60.355469 289.667969 60.40625 290.703125 60.511719 C 291.742188 60.613281 292.769531 60.765625 293.792969 60.96875 C 294.8125 61.171875 295.820312 61.425781 296.816406 61.726562 C 297.816406 62.027344 298.792969 62.378906 299.757812 62.777344 C 300.71875 63.175781 301.660156 63.621094 302.578125 64.113281 C 303.496094 64.601562 304.386719 65.136719 305.253906 65.714844 C 306.121094 66.292969 306.957031 66.914062 307.761719 67.574219 C 308.566406 68.234375 309.335938 68.933594 310.074219 69.671875 C 310.808594 70.40625 311.507812 71.175781 312.167969 71.984375 C 312.828125 72.789062 313.449219 73.625 314.027344 74.488281 C 314.605469 75.355469 315.140625 76.246094 315.632812 77.164062 C 316.121094 78.085938 316.566406 79.023438 316.964844 79.988281 C 317.363281 80.949219 317.714844 81.929688 318.015625 82.925781 C 318.320312 83.921875 318.570312 84.929688 318.773438 85.953125 C 318.976562 86.972656 319.128906 88.003906 319.234375 89.039062 C 319.335938 90.074219 319.386719 91.113281 319.386719 92.15625 Z M 319.386719 92.15625 " fill-opacity="1" fill-rule="nonzero"/>
<g clip-path="url(#34af35e3ea)">
<path fill="#4e8ff6" d="M 187.5 340.5 C 271.890625 340.5 340.5 271.890625 340.5 187.5 C 340.5 165.441406 335.898438 144.113281 326.753906 124.09375 L 326.742188 124.082031 L 325.429688 121.148438 L 323.273438 123.546875 C 318.074219 129.460938 311.441406 134 304.085938 136.753906 L 302.058594 137.53125 L 302.898438 139.507812 C 306.082031 147.074219 308.480469 154.878906 310.089844 162.925781 C 311.699219 170.976562 312.488281 179.101562 312.460938 187.308594 L 312.460938 187.4375 C 312.460938 256.351562 256.402344 312.460938 187.4375 312.460938 C 118.472656 312.460938 62.460938 256.402344 62.460938 187.488281 C 62.460938 118.574219 118.585938 62.460938 187.488281 62.460938 C 206.191406 62.460938 224.246094 66.527344 241.039062 74.535156 L 243.011719 75.492188 L 243.855469 73.515625 C 247.09375 66.09375 251.886719 59.871094 257.867188 55.066406 L 257.957031 54.988281 L 260.46875 52.960938 L 257.597656 51.46875 C 252.238281 48.671875 246.726562 46.210938 241.066406 44.082031 C 235.40625 41.953125 229.636719 40.175781 223.761719 38.746094 C 217.882812 37.316406 211.941406 36.246094 205.9375 35.535156 C 199.929688 34.824219 193.90625 34.480469 187.855469 34.5 L 187.5 34.5 C 103.109375 34.5 34.5 103.109375 34.5 187.5 C 34.5 271.890625 103.109375 340.5 187.5 340.5 Z M 187.5 340.5 " fill-opacity="1" fill-rule="nonzero"/>
</g>
</svg>