<svg width="256" height="256" viewBox="0 0 256 256" fill="none" xmlns="http://www.w3.org/2000/svg">
<path d="M0 58C8.5 0 57 0 57 0H197C197 0 248.5 1 255.5 57L256 196C256 196 255 249.5 195 255.5H58.5C58.5 255.5 6 255 0 196.5V58Z" fill="#357FEE"/>
<path d="M92.0655 128.633C92.0655 128.633 90.0656 92.1327 128.065 92.1327C166.065 92.1327 164.065 128.633 164.065 128.633C164.065 128.633 165.565 163.133 128.065 164.633C90.5655 166.133 92.0655 128.633 92.0655 128.633Z" fill="white"/>
<path d="M164.065 75.1327C164.065 75.1327 164.066 60.1327 181.566 60.1327C199.066 60.1327 198.566 75.1327 198.566 75.1327C198.566 75.1327 200.566 94.1327 181.566 94.1327C162.566 94.1327 164.065 75.1327 164.065 75.1327Z" fill="white"/>
<path d="M157.066 66.1327C159.066 59.1327 165.066 56.1327 165.066 56.1327C165.066 56.1327 130.066 33.1327 81.5657 60.1327C81.5657 60.1327 46.0657 83.1326 46.0657 127.133C46.0657 127.133 41.5657 185.133 107.066 207.133C107.066 207.133 174.566 226.133 205.066 155.133C205.066 155.133 216.566 128.633 201.566 94.6326C201.566 94.6326 199.066 99.6326 191.066 102.133C191.066 102.133 210.566 145.633 172.566 180.133C172.566 180.133 135.566 213.133 89.0656 184.633C89.0656 184.633 44.5655 152.133 63.5655 103.633C63.5655 103.633 78.0656 58.1326 133.566 60.1327C133.566 60.1327 143.566 60.1327 156.566 66.1327H157.066Z" fill="white"/>
</svg>
