<svg xmlns="http://www.w3.org/2000/svg" xmlns:xlink="http://www.w3.org/1999/xlink" width="256" zoomAndPan="magnify" viewBox="0 0 375 374.999991" height="256" preserveAspectRatio="xMidYMid meet" version="1.0">
<defs>
<clipPath id="2ff1f4c3cb">
<path d="M 75 0 L 300 0 C 341.421875 0 375 33.578125 375 75 L 375 304.027344 C 375 345.445312 341.421875 379.027344 300 379.027344 L 75 379.027344 C 33.578125 379.027344 0 345.445312 0 304.027344 L 0 75 C 0 33.578125 33.578125 0 75 0 " clip-rule="nonzero"/>
</clipPath>
<clipPath id="6d385b441e">
<path d="M 37.5 37.5 L 337.5 37.5 L 337.5 337.5 L 37.5 337.5 Z M 37.5 37.5 " clip-rule="nonzero"/>
</clipPath>
</defs>
<g clip-path="url(#2ff1f4c3cb)">
<path fill="#242938" d="M 0 0 L 374.414062 0 L 374.414062 379.6875 L 0 379.6875 Z M 0 0 " fill-opacity="1" fill-rule="nonzero"/>
</g>
<path fill="#7baeff" d="M 187.5 119.113281 C 186.382812 119.113281 185.261719 119.140625 184.144531 119.195312 C 183.027344 119.253906 181.914062 119.335938 180.800781 119.445312 C 179.6875 119.554688 178.574219 119.695312 177.46875 119.859375 C 176.363281 120.023438 175.261719 120.214844 174.164062 120.433594 C 173.066406 120.652344 171.976562 120.898438 170.890625 121.171875 C 169.804688 121.445312 168.726562 121.742188 167.65625 122.066406 C 166.585938 122.394531 165.523438 122.746094 164.46875 123.121094 C 163.417969 123.5 162.375 123.902344 161.339844 124.332031 C 160.304688 124.757812 159.285156 125.210938 158.273438 125.691406 C 157.261719 126.167969 156.261719 126.671875 155.277344 127.199219 C 154.289062 127.726562 153.316406 128.28125 152.355469 128.855469 C 151.398438 129.429688 150.453125 130.027344 149.523438 130.652344 C 148.589844 131.273438 147.675781 131.917969 146.777344 132.582031 C 145.878906 133.25 144.996094 133.9375 144.132812 134.648438 C 143.269531 135.355469 142.421875 136.089844 141.59375 136.839844 C 140.761719 137.589844 139.953125 138.363281 139.160156 139.152344 C 138.371094 139.945312 137.597656 140.753906 136.847656 141.582031 C 136.097656 142.410156 135.367188 143.257812 134.65625 144.125 C 133.945312 144.988281 133.257812 145.871094 132.589844 146.769531 C 131.921875 147.667969 131.28125 148.582031 130.65625 149.511719 C 130.035156 150.441406 129.4375 151.386719 128.863281 152.34375 C 128.285156 153.304688 127.734375 154.277344 127.207031 155.265625 C 126.679688 156.25 126.175781 157.25 125.695312 158.261719 C 125.21875 159.273438 124.765625 160.292969 124.335938 161.328125 C 123.90625 162.363281 123.503906 163.40625 123.125 164.457031 C 122.75 165.511719 122.398438 166.574219 122.070312 167.644531 C 121.746094 168.714844 121.445312 169.792969 121.175781 170.878906 C 120.902344 171.960938 120.65625 173.054688 120.4375 174.152344 C 120.21875 175.25 120.027344 176.351562 119.859375 177.457031 C 119.695312 178.5625 119.558594 179.671875 119.449219 180.785156 C 119.335938 181.898438 119.253906 183.015625 119.199219 184.132812 C 119.140625 185.25 119.113281 186.367188 119.113281 187.488281 C 119.113281 188.605469 119.140625 189.722656 119.199219 190.839844 C 119.253906 191.957031 119.335938 193.074219 119.449219 194.1875 C 119.558594 195.300781 119.695312 196.410156 119.859375 197.515625 C 120.027344 198.625 120.21875 199.726562 120.4375 200.824219 C 120.65625 201.917969 120.902344 203.011719 121.175781 204.09375 C 121.445312 205.179688 121.746094 206.257812 122.070312 207.328125 C 122.394531 208.398438 122.746094 209.460938 123.125 210.515625 C 123.503906 211.566406 123.90625 212.609375 124.332031 213.644531 C 124.761719 214.675781 125.214844 215.699219 125.695312 216.710938 C 126.171875 217.722656 126.675781 218.71875 127.203125 219.707031 C 127.730469 220.695312 128.285156 221.667969 128.859375 222.625 C 129.433594 223.585938 130.03125 224.53125 130.65625 225.460938 C 131.277344 226.390625 131.921875 227.304688 132.585938 228.203125 C 133.253906 229.101562 133.941406 229.984375 134.652344 230.847656 C 135.363281 231.710938 136.09375 232.558594 136.84375 233.386719 C 137.59375 234.214844 138.367188 235.027344 139.15625 235.816406 C 139.949219 236.609375 140.757812 237.378906 141.585938 238.132812 C 142.417969 238.882812 143.261719 239.613281 144.128906 240.324219 C 144.992188 241.03125 145.875 241.722656 146.773438 242.386719 C 147.671875 243.054688 148.585938 243.699219 149.515625 244.320312 C 150.445312 244.941406 151.390625 245.539062 152.347656 246.117188 C 153.308594 246.691406 154.28125 247.242188 155.269531 247.769531 C 156.253906 248.296875 157.253906 248.800781 158.265625 249.28125 C 159.277344 249.757812 160.296875 250.210938 161.332031 250.640625 C 162.363281 251.070312 163.40625 251.472656 164.460938 251.851562 C 165.515625 252.226562 166.574219 252.578125 167.644531 252.90625 C 168.714844 253.230469 169.792969 253.527344 170.878906 253.800781 C 171.964844 254.074219 173.054688 254.320312 174.152344 254.539062 C 175.25 254.757812 176.351562 254.949219 177.457031 255.113281 C 178.5625 255.28125 179.675781 255.417969 180.789062 255.527344 C 181.902344 255.636719 183.015625 255.722656 184.132812 255.777344 C 185.25 255.832031 186.367188 255.863281 187.488281 255.863281 C 188.605469 255.863281 189.722656 255.832031 190.839844 255.777344 C 191.957031 255.722656 193.074219 255.636719 194.1875 255.527344 C 195.300781 255.417969 196.410156 255.28125 197.515625 255.113281 C 198.625 254.949219 199.726562 254.757812 200.824219 254.539062 C 201.917969 254.320312 203.011719 254.074219 204.09375 253.800781 C 205.179688 253.527344 206.257812 253.230469 207.328125 252.90625 C 208.398438 252.578125 209.460938 252.226562 210.515625 251.851562 C 211.566406 251.472656 212.609375 251.070312 213.644531 250.640625 C 214.675781 250.210938 215.699219 249.757812 216.710938 249.28125 C 217.722656 248.800781 218.71875 248.296875 219.707031 247.769531 C 220.695312 247.242188 221.667969 246.691406 222.625 246.117188 C 223.585938 245.539062 224.53125 244.941406 225.460938 244.320312 C 226.390625 243.699219 227.304688 243.054688 228.203125 242.386719 C 229.101562 241.722656 229.984375 241.03125 230.847656 240.324219 C 231.710938 239.613281 232.558594 238.882812 233.386719 238.132812 C 234.214844 237.378906 235.027344 236.609375 235.816406 235.816406 C 236.609375 235.027344 237.378906 234.214844 238.132812 233.386719 C 238.882812 232.558594 239.613281 231.710938 240.324219 230.847656 C 241.03125 229.984375 241.722656 229.101562 242.386719 228.203125 C 243.054688 227.304688 243.699219 226.390625 244.320312 225.460938 C 244.941406 224.53125 245.539062 223.585938 246.117188 222.625 C 246.691406 221.667969 247.242188 220.695312 247.769531 219.707031 C 248.296875 218.71875 248.800781 217.722656 249.28125 216.710938 C 249.757812 215.699219 250.210938 214.675781 250.640625 213.644531 C 251.070312 212.609375 251.472656 211.566406 251.851562 210.515625 C 252.226562 209.460938 252.578125 208.398438 252.90625 207.328125 C 253.230469 206.257812 253.527344 205.179688 253.800781 204.09375 C 254.074219 203.011719 254.320312 201.917969 254.539062 200.824219 C 254.757812 199.726562 254.949219 198.625 255.113281 197.515625 C 255.28125 196.410156 255.417969 195.300781 255.527344 194.1875 C 255.636719 193.074219 255.722656 191.957031 255.777344 190.839844 C 255.832031 189.722656 255.863281 188.605469 255.863281 187.488281 C 255.859375 186.367188 255.832031 185.25 255.773438 184.132812 C 255.71875 183.015625 255.632812 181.902344 255.523438 180.789062 C 255.410156 179.675781 255.273438 178.566406 255.109375 177.460938 C 254.941406 176.355469 254.75 175.253906 254.53125 174.15625 C 254.3125 173.0625 254.066406 171.96875 253.792969 170.886719 C 253.519531 169.800781 253.21875 168.722656 252.894531 167.652344 C 252.566406 166.585938 252.214844 165.523438 251.839844 164.46875 C 251.460938 163.417969 251.058594 162.375 250.628906 161.34375 C 250.199219 160.308594 249.746094 159.285156 249.265625 158.277344 C 248.789062 157.265625 248.285156 156.265625 247.757812 155.28125 C 247.230469 154.296875 246.679688 153.324219 246.101562 152.363281 C 245.527344 151.40625 244.929688 150.460938 244.308594 149.53125 C 243.6875 148.601562 243.042969 147.6875 242.375 146.789062 C 241.707031 145.890625 241.019531 145.007812 240.3125 144.144531 C 239.601562 143.28125 238.871094 142.433594 238.121094 141.605469 C 237.371094 140.777344 236.597656 139.96875 235.808594 139.175781 C 235.015625 138.386719 234.207031 137.613281 233.378906 136.863281 C 232.550781 136.113281 231.703125 135.382812 230.839844 134.671875 C 229.976562 133.960938 229.09375 133.273438 228.195312 132.605469 C 227.296875 131.941406 226.382812 131.296875 225.453125 130.675781 C 224.523438 130.050781 223.582031 129.453125 222.621094 128.878906 C 221.664062 128.304688 220.691406 127.75 219.703125 127.222656 C 218.71875 126.695312 217.71875 126.191406 216.710938 125.710938 C 215.699219 125.234375 214.675781 124.78125 213.644531 124.351562 C 212.613281 123.921875 211.570312 123.519531 210.515625 123.140625 C 209.464844 122.761719 208.402344 122.410156 207.332031 122.085938 C 206.261719 121.757812 205.1875 121.460938 204.101562 121.1875 C 203.015625 120.914062 201.925781 120.667969 200.828125 120.445312 C 199.734375 120.226562 198.632812 120.035156 197.527344 119.867188 C 196.417969 119.703125 195.308594 119.5625 194.199219 119.453125 C 193.085938 119.339844 191.96875 119.257812 190.851562 119.199219 C 189.734375 119.144531 188.617188 119.113281 187.5 119.113281 Z M 187.5 119.113281 " fill-opacity="1" fill-rule="nonzero"/>
<path fill="#7baeff" d="M 316.800781 94.023438 C 316.800781 95.046875 316.75 96.066406 316.648438 97.082031 C 316.550781 98.097656 316.398438 99.105469 316.199219 100.105469 C 316 101.109375 315.753906 102.097656 315.457031 103.074219 C 315.160156 104.050781 314.816406 105.011719 314.425781 105.957031 C 314.035156 106.898438 313.601562 107.820312 313.117188 108.722656 C 312.636719 109.621094 312.113281 110.496094 311.546875 111.34375 C 310.980469 112.195312 310.371094 113.011719 309.722656 113.800781 C 309.074219 114.589844 308.390625 115.347656 307.667969 116.070312 C 306.945312 116.789062 306.191406 117.476562 305.402344 118.125 C 304.613281 118.769531 303.792969 119.378906 302.945312 119.945312 C 302.097656 120.511719 301.222656 121.039062 300.320312 121.519531 C 299.421875 122 298.5 122.4375 297.554688 122.828125 C 296.613281 123.21875 295.652344 123.5625 294.675781 123.859375 C 293.699219 124.152344 292.707031 124.402344 291.707031 124.601562 C 290.707031 124.800781 289.695312 124.949219 288.679688 125.050781 C 287.664062 125.148438 286.644531 125.199219 285.625 125.199219 C 284.605469 125.199219 283.585938 125.148438 282.570312 125.050781 C 281.554688 124.949219 280.542969 124.800781 279.542969 124.601562 C 278.542969 124.402344 277.550781 124.152344 276.574219 123.859375 C 275.597656 123.5625 274.636719 123.21875 273.695312 122.828125 C 272.75 122.4375 271.828125 122 270.929688 121.519531 C 270.027344 121.039062 269.152344 120.511719 268.304688 119.945312 C 267.457031 119.378906 266.636719 118.769531 265.847656 118.125 C 265.058594 117.476562 264.304688 116.789062 263.582031 116.070312 C 262.859375 115.347656 262.175781 114.589844 261.527344 113.800781 C 260.878906 113.011719 260.269531 112.195312 259.703125 111.34375 C 259.136719 110.496094 258.613281 109.621094 258.132812 108.722656 C 257.648438 107.820312 257.214844 106.898438 256.824219 105.957031 C 256.433594 105.011719 256.089844 104.050781 255.792969 103.074219 C 255.496094 102.097656 255.25 101.109375 255.050781 100.105469 C 254.851562 99.105469 254.699219 98.097656 254.601562 97.082031 C 254.5 96.066406 254.449219 95.046875 254.449219 94.023438 C 254.449219 93.003906 254.5 91.984375 254.601562 90.96875 C 254.699219 89.953125 254.851562 88.945312 255.050781 87.941406 C 255.25 86.941406 255.496094 85.953125 255.792969 84.976562 C 256.089844 84 256.433594 83.039062 256.824219 82.09375 C 257.214844 81.152344 257.648438 80.230469 258.132812 79.328125 C 258.613281 78.429688 259.136719 77.554688 259.703125 76.707031 C 260.269531 75.855469 260.878906 75.035156 261.527344 74.246094 C 262.175781 73.457031 262.859375 72.703125 263.582031 71.980469 C 264.304688 71.257812 265.058594 70.574219 265.847656 69.925781 C 266.636719 69.277344 267.457031 68.671875 268.304688 68.105469 C 269.152344 67.535156 270.027344 67.011719 270.929688 66.53125 C 271.828125 66.050781 272.75 65.613281 273.695312 65.222656 C 274.636719 64.832031 275.597656 64.488281 276.574219 64.191406 C 277.550781 63.894531 278.542969 63.648438 279.542969 63.449219 C 280.542969 63.25 281.554688 63.101562 282.570312 63 C 283.585938 62.898438 284.605469 62.851562 285.625 62.851562 C 286.644531 62.851562 287.664062 62.898438 288.679688 63 C 289.695312 63.101562 290.707031 63.25 291.707031 63.449219 C 292.707031 63.648438 293.699219 63.894531 294.675781 64.191406 C 295.652344 64.488281 296.613281 64.832031 297.554688 65.222656 C 298.5 65.613281 299.421875 66.050781 300.320312 66.53125 C 301.222656 67.011719 302.097656 67.535156 302.945312 68.105469 C 303.792969 68.671875 304.613281 69.277344 305.402344 69.925781 C 306.191406 70.574219 306.945312 71.257812 307.667969 71.980469 C 308.390625 72.703125 309.074219 73.457031 309.722656 74.246094 C 310.371094 75.035156 310.980469 75.855469 311.546875 76.707031 C 312.113281 77.554688 312.636719 78.429688 313.117188 79.328125 C 313.601562 80.230469 314.035156 81.152344 314.425781 82.09375 C 314.816406 83.039062 315.160156 84 315.457031 84.976562 C 315.753906 85.953125 316 86.941406 316.199219 87.941406 C 316.398438 88.945312 316.550781 89.953125 316.648438 90.96875 C 316.75 91.984375 316.800781 93.003906 316.800781 94.023438 Z M 316.800781 94.023438 " fill-opacity="1" fill-rule="nonzero"/>
<g clip-path="url(#6d385b441e)">
<path fill="#7baeff" d="M 187.5 337.5 C 270.238281 337.5 337.5 270.238281 337.5 187.5 C 337.5 165.875 332.988281 144.960938 324.023438 125.335938 L 324.011719 125.324219 L 322.726562 122.449219 L 320.613281 124.800781 C 315.511719 130.601562 309.011719 135.050781 301.800781 137.75 L 299.8125 138.511719 L 300.636719 140.449219 C 303.757812 147.867188 306.105469 155.519531 307.683594 163.410156 C 309.261719 171.296875 310.039062 179.265625 310.011719 187.3125 L 310.011719 187.4375 C 310.011719 255 255.050781 310.011719 187.4375 310.011719 C 119.824219 310.011719 64.914062 255.050781 64.914062 187.488281 C 64.914062 119.925781 119.9375 64.914062 187.488281 64.914062 C 205.824219 64.914062 223.523438 68.898438 239.988281 76.75 L 241.925781 77.6875 L 242.75 75.75 C 245.925781 68.476562 250.625 62.375 256.488281 57.664062 L 256.574219 57.585938 L 259.039062 55.601562 L 256.226562 54.136719 C 250.96875 51.394531 245.566406 48.980469 240.015625 46.894531 C 234.464844 44.808594 228.808594 43.0625 223.050781 41.660156 C 217.289062 40.257812 211.464844 39.210938 205.574219 38.515625 C 199.6875 37.820312 193.777344 37.480469 187.851562 37.5 L 187.5 37.5 C 104.761719 37.5 37.5 104.761719 37.5 187.5 C 37.5 270.238281 104.761719 337.5 187.5 337.5 Z M 187.5 337.5 " fill-opacity="1" fill-rule="nonzero"/>
</g>
</svg>