<?xml version="1.0" encoding="UTF-8" standalone="no"?>
<!-- Generator: Adobe Illustrator 22.0.1, SVG Export Plug-In . SVG Version: 6.00 Build 0)  -->

<svg
   xmlns:dc="http://purl.org/dc/elements/1.1/"
   xmlns:cc="http://creativecommons.org/ns#"
   xmlns:rdf="http://www.w3.org/1999/02/22-rdf-syntax-ns#"
   xmlns:svg="http://www.w3.org/2000/svg"
   xmlns="http://www.w3.org/2000/svg"
   xmlns:sodipodi="http://sodipodi.sourceforge.net/DTD/sodipodi-0.dtd"
   xmlns:inkscape="http://www.inkscape.org/namespaces/inkscape"
   version="1.1"
   id="Layer_1"
   x="0px"
   y="0px"
   viewBox="0 0 64 64"
   xml:space="preserve"
   sodipodi:docname="ionic-icon.svg"
   width="64"
   height="64"
   inkscape:version="0.92.4 (5da689c313, 2019-01-14)"><metadata
   id="metadata36"><rdf:RDF><cc:Work
       rdf:about=""><dc:format>image/svg+xml</dc:format><dc:type
         rdf:resource="http://purl.org/dc/dcmitype/StillImage" /><dc:title></dc:title></cc:Work></rdf:RDF></metadata><defs
   id="defs34">
	
	
</defs><sodipodi:namedview
   pagecolor="#ffffff"
   bordercolor="#666666"
   borderopacity="1"
   objecttolerance="10"
   gridtolerance="10"
   guidetolerance="10"
   inkscape:pageopacity="0"
   inkscape:pageshadow="2"
   inkscape:window-width="1850"
   inkscape:window-height="1016"
   id="namedview32"
   showgrid="false"
   fit-margin-top="0"
   fit-margin-left="0"
   fit-margin-right="0"
   fit-margin-bottom="0"
   inkscape:zoom="0.4609375"
   inkscape:cx="-479.69152"
   inkscape:cy="73.3"
   inkscape:window-x="70"
   inkscape:window-y="27"
   inkscape:window-maximized="1"
   inkscape:current-layer="Layer_1" />
<style
   type="text/css"
   id="style2">
	.st0{fill:#3880FF;}
</style>
<g
   id="g12"
   transform="matrix(0.43537415,0,0,0.43537415,-16.631293,-79.368707)">
		<path
   style="fill:#3880ff"
   inkscape:connector-curvature="0"
   id="path4"
   d="m 111.8,222.5 c -18.5,0 -33.5,15 -33.5,33.5 0,18.5 15,33.5 33.5,33.5 18.5,0 33.5,-15 33.5,-33.5 -0.1,-18.5 -15.1,-33.5 -33.5,-33.5 z"
   class="st0" />
		<g
   id="g8">
			<circle
   style="fill:#3880ff"
   id="circle6"
   r="15.3"
   cy="210.2"
   cx="159.8"
   class="st0" />
		</g>
		<path
   style="fill:#3880ff"
   inkscape:connector-curvature="0"
   id="path10"
   d="m 178.6,225.5 -0.6,-1.4 -1,1.2 c -2.5,2.8 -5.7,5 -9.2,6.3 l -1,0.4 0.4,1 c 3.1,7.3 4.6,15.1 4.6,23 0,33.1 -26.9,60.1 -60.1,60.1 -33.2,0 -60,-27 -60,-60.1 0,-33.1 26.9,-60.1 60.1,-60.1 9,0 17.6,2 25.7,5.8 l 0.9,0.4 0.4,-1 c 1.5,-3.5 3.8,-6.5 6.8,-8.9 l 1.2,-1 -1.4,-0.7 c -10.5,-5.4 -21.8,-8.2 -33.7,-8.2 -40.5,0 -73.5,33 -73.5,73.5 0,40.5 33,73.5 73.5,73.5 40.5,0 73.5,-33 73.5,-73.5 0,-10.4 -2.2,-20.6 -6.6,-30.3 z"
   class="st0" />
	</g>
</svg>