<svg width="258" height="257" viewBox="0 0 258 257" fill="none" xmlns="http://www.w3.org/2000/svg">
<path d="M197.5 1H59.5C22.785 9.39275 9.88139 21.7791 1 58V196C8 256 61.5 256 61.5 256H197.5C257 245.5 257 196 257 196V58C245 1 197.5 1 197.5 1Z" fill="black" stroke="black"/>
<path d="M187.603 77.7336C181.603 68.7336 170.103 71.2336 170.103 71.2336C170.103 71.2336 148.103 52.7335 111.603 61.2335C111.603 61.2335 88.6644 65.5 71.1644 89.5C71.1644 89.5 61.6644 104 60.1644 121C60.1644 121 57.6644 150 72.1644 167L75.1029 170.734C75.1029 170.734 92.1029 192.734 125.603 196.734C125.603 196.734 160.603 200.734 186.603 165.234C186.603 165.234 204.603 140.734 194.603 105.234C194.603 105.234 191.103 112.734 180.103 113.734C180.103 113.734 189.103 148.234 161.603 169.234C161.603 169.234 127.603 194.734 93.6029 166.234C93.6029 166.234 66.1029 145.734 80.6029 105.234C80.6029 105.234 96.1029 73.2335 129.603 75.7335C129.603 75.7335 139.603 76.2336 145.103 77.7336C150.603 79.2335 159.103 84.7336 159.103 84.7336C159.103 84.7336 159.103 94.7336 167.603 99.7336C176.103 104.734 182.103 100.234 184.103 98.2336C186.103 96.2336 193.603 86.7335 187.603 77.7336Z" fill="#D9D9D9" stroke="black"/>
<ellipse cx="129" cy="125.5" rx="29" ry="29.5" fill="#D9D9D9"/>
</svg>
