<?xml version="1.0" encoding="utf-8"?>
<!-- Generator: Adobe Illustrator 27.0.0, SVG Export Plug-In . SVG Version: 6.00 Build 0)  -->
<svg version="1.1" id="Layer_1" xmlns="http://www.w3.org/2000/svg" xmlns:xlink="http://www.w3.org/1999/xlink" x="0px" y="0px"
	 viewBox="0 0 256 256" style="enable-background:new 0 0 256 256;" xml:space="preserve">
<style type="text/css">
	.st0{fill:#242938;}
	.st1{fill:#3880FF;}
</style>
<path class="st0" d="M60,0h136c33.1,0,60,26.9,60,60v136c0,33.1-26.9,60-60,60H60c-33.1,0-60-26.9-60-60V60C0,26.9,26.9,0,60,0z"/>
<g>
	<path class="st1" d="M53.4,128c0-41.2,33.4-74.6,74.6-74.6c16.6,0,31.9,5.4,44.3,14.6c3.2-7.6,9.8-13.6,17.9-15.9
		c-16.9-13.9-38.6-22.2-62.2-22.2c-54.2,0-98.2,44-98.2,98.2c0,54.2,44,98.2,98.2,98.2c54.2,0,98.2-44,98.2-98.2
		c0-11.3-1.9-22.3-5.5-32.4c-4.8,6.5-12.4,10.9-21.1,11.3c2,6.7,3,13.7,3,21.1c0,41.2-33.4,74.6-74.6,74.6
		C86.8,202.6,53.4,169.2,53.4,128z"/>
	<path class="st1" d="M128,170.9c23.7,0,42.9-19.2,42.9-42.9c0-23.7-19.2-42.9-42.9-42.9S85.1,104.3,85.1,128S104.3,170.9,128,170.9
		z"/>
	<path class="st1" d="M192.4,91.2c11.9,0,21.5-9.6,21.5-21.5c0-11.9-9.6-21.5-21.5-21.5c-11.9,0-21.5,9.6-21.5,21.5
		C170.9,81.6,180.6,91.2,192.4,91.2z"/>
</g>
</svg>
