<svg width="256" height="256" viewBox="0 0 256 256" fill="none" xmlns="http://www.w3.org/2000/svg">
<path d="M128 76.95C117.903 76.95 108.033 79.944 99.6381 85.5535C91.243 91.1629 84.6998 99.1358 80.836 108.464C76.9721 117.792 75.9611 128.057 77.9309 137.959C79.9007 147.862 84.7627 156.958 91.9022 164.098C99.0417 171.237 108.138 176.099 118.041 178.069C127.943 180.039 138.208 179.028 147.536 175.164C156.864 171.3 164.837 164.757 170.447 156.362C176.056 147.967 179.05 138.097 179.05 128C179.033 114.466 173.649 101.491 164.079 91.9212C154.509 82.3512 141.534 76.9672 128 76.95Z" fill="#478AFF"/>
<path d="M201.295 81.485C214.141 81.485 224.555 71.0711 224.555 58.225C224.555 45.3789 214.141 34.965 201.295 34.965C188.449 34.965 178.035 45.3789 178.035 58.225C178.035 71.0711 188.449 81.485 201.295 81.485Z" fill="#478AFF"/>
<path d="M229.93 81.6L228.955 79.46L227.4 81.22C223.59 85.5463 218.771 88.8645 213.37 90.88L211.87 91.43L212.48 92.895C217.129 104.014 219.515 115.948 219.5 128C219.5 178.46 178.45 219.5 128 219.5C77.55 219.5 36.5 178.46 36.5 128C36.5 77.54 77.54 36.5 128 36.5C141.57 36.4716 154.972 39.4963 167.215 45.35L168.65 46L169.275 44.54C171.554 39.247 175.102 34.5967 179.605 31L181.44 29.535L179.355 28.5C163.496 20.2518 145.876 15.9631 128 16C66.245 16 16 66.245 16 128C16 189.755 66.245 240 128 240C189.755 240 240 189.755 240 128C240.026 111.988 236.591 96.1603 229.93 81.6Z" fill="#478AFF"/>
</svg>
