<svg width="256" height="256" viewBox="0 0 256 256" fill="none" xmlns="http://www.w3.org/2000/svg">
<g clip-path="url(#clip0_10_366)">
<path d="M196 0H60C26.8629 0 0 26.8629 0 60V196C0 229.137 26.8629 256 60 256H196C229.137 256 256 229.137 256 196V60C256 26.8629 229.137 0 196 0Z" fill="#F4F2ED"/>
<path d="M104.307 183.613C104.307 183.613 97.9501 189.023 110.504 189.824C126.734 190.859 136.396 191.204 146.734 188.098C146.734 188.098 149.52 190.514 155.373 193.274C129.15 208.111 65.6624 192.584 104.307 183.613ZM98.0962 161.185C98.0962 161.185 89.8153 166.706 103.962 168.776C110.518 171.536 152.267 171.191 156.408 166.361C156.408 166.361 162.619 171.191 164.344 171.191C126.734 187.063 51.1708 170.156 98.0962 161.185Z" fill="#007396"/>
<path d="M135.704 123.231C143.985 135.307 135.014 144.623 135.014 144.623C135.014 144.623 157.096 134.272 147.34 116.146C141.915 109.429 124.663 92.5223 168.138 68.7146C168.138 68.7146 106.721 86.3116 135.704 123.231Z" fill="#ED8B00"/>
<path d="M185.094 198.147C185.094 198.147 181.013 204.011 166.117 207.808C148.52 212.294 87.1028 215.744 70.1958 201.942C69.5057 196.077 75.3717 194.697 78.1321 192.971C81.2674 192.196 85.0325 190.556 85.0325 190.556C76.0241 189.503 42.593 200.217 61.9151 209.188C114.361 227.13 200.276 214.364 185.094 198.147ZM107.066 137.723C107.066 137.723 70.1466 144.278 97.7498 149.454C109.136 150.834 121.92 152.15 141.225 150.834C156.407 149.799 166.413 146.694 166.413 146.694C166.413 146.694 169.863 147.901 172.623 150.489C135.704 164.981 57.7252 153.594 78.0825 143.933C88.0887 138.413 107.066 137.723 107.066 137.723ZM169.863 174.642C206.092 153.249 187.46 137.033 180.904 138.413C179.179 138.413 176.764 138.068 176.764 138.068C176.764 138.068 178.834 136.835 181.594 136.342C200.917 132.892 216.098 161.53 170.898 174.987C170.898 174.987 169.243 175.008 169.863 174.642Z" fill="#007396"/>
<path d="M146.745 28C146.745 28 167.249 50.1851 126.733 82.1712C94.2437 107.829 118.107 128.752 125.008 138.068C111.896 129.442 92.2293 116.33 102.581 92.8675C116.382 71.82 155.371 58.0184 146.745 28Z" fill="#ED8B00"/>
<path d="M113.278 227.778C148.817 229.158 190.912 224.328 196.087 207.076C196.087 207.076 193.327 213.149 168.141 219.589C138.811 227.088 101.892 225.018 80.8442 221.567C81.5343 222.948 91.821 226.945 113.278 227.778Z" fill="#007396"/>
</g>
<defs>
<clipPath id="clip0_10_366">
<rect width="256" height="256" fill="white"/>
</clipPath>
</defs>
</svg>
