<svg width="256" height="256" viewBox="0 0 256 256" fill="none" xmlns="http://www.w3.org/2000/svg">
<g clip-path="url(#clip0_124_489)">
<path d="M196 0H60C26.8629 0 0 26.8629 0 60V196C0 229.137 26.8629 256 60 256H196C229.137 256 256 229.137 256 196V60C256 26.8629 229.137 0 196 0Z" fill="#242938"/>
<path d="M104.307 183.613C104.307 183.613 97.9504 189.023 110.505 189.824C126.735 190.859 136.396 191.204 146.734 188.098C146.734 188.098 149.52 190.514 155.373 193.274C129.15 208.111 65.6627 192.584 104.307 183.613ZM98.0965 161.185C98.0965 161.185 89.8156 166.706 103.962 168.776C110.518 171.536 152.267 171.191 156.408 166.361C156.408 166.361 162.619 171.191 164.344 171.191C126.735 187.063 51.1711 170.156 98.0965 161.185Z" fill="white"/>
<path d="M135.704 123.231C143.985 135.307 135.014 144.623 135.014 144.623C135.014 144.623 157.097 134.272 147.34 116.146C141.915 109.429 124.663 92.5224 168.138 68.7147C168.138 68.7147 106.721 86.3117 135.704 123.231Z" fill="white"/>
<path d="M185.095 198.147C185.095 198.147 181.013 204.011 166.117 207.808C148.52 212.294 87.103 215.744 70.1961 201.942C69.506 196.077 75.372 194.697 78.1323 192.971C81.2676 192.196 85.0328 190.556 85.0328 190.556C76.0243 189.503 42.5932 200.217 61.9153 209.188C114.361 227.13 200.276 214.364 185.095 198.147ZM107.066 137.723C107.066 137.723 70.1469 144.278 97.75 149.454C109.136 150.834 121.92 152.15 141.225 150.834C156.407 149.799 166.413 146.694 166.413 146.694C166.413 146.694 169.863 147.901 172.624 150.489C135.704 164.981 57.7254 153.595 78.0828 143.933C88.0889 138.413 107.066 137.723 107.066 137.723ZM169.863 174.642C206.092 153.249 187.46 137.033 180.905 138.413C179.179 138.413 176.764 138.068 176.764 138.068C176.764 138.068 178.834 136.835 181.595 136.343C200.917 132.892 216.099 161.53 170.898 174.987C170.898 174.987 169.243 175.008 169.863 174.642Z" fill="white"/>
<path d="M146.745 28C146.745 28 167.249 50.185 126.733 82.1712C94.2437 107.829 118.107 128.752 125.008 138.068C111.896 129.442 92.2293 116.33 102.581 92.8674C116.382 71.82 155.371 58.0184 146.745 28Z" fill="white"/>
<path d="M113.278 227.778C148.817 229.158 190.912 224.328 196.088 207.076C196.088 207.076 193.327 213.149 168.141 219.589C138.811 227.088 101.892 225.018 80.8445 221.567C81.5346 222.947 91.8212 226.945 113.278 227.778Z" fill="white"/>
</g>
<defs>
<clipPath id="clip0_124_489">
<rect width="256" height="256" fill="white"/>
</clipPath>
</defs>
</svg>
