<?xml version="1.0" encoding="utf-8"?>
<!-- Generator: Adobe Illustrator 27.0.0, SVG Export Plug-In . SVG Version: 6.00 Build 0)  -->
<svg version="1.1" id="Layer_1" xmlns="http://www.w3.org/2000/svg" xmlns:xlink="http://www.w3.org/1999/xlink" x="0px" y="0px"
	 viewBox="0 0 256 256" style="enable-background:new 0 0 256 256;" xml:space="preserve">
<style type="text/css">
	.st0{fill:#242938;}
	.st1{opacity:0.3;enable-background:new    ;}
	.st2{fill:url(#tube_00000130639949743388672200000001714666016290912425_);}
	.st3{fill:url(#liquid_00000085929995252702652500000004275761832997144508_);}
	.st4{fill:#333333;}
	.st5{opacity:0.3;fill:#FFFFFF;enable-background:new    ;}
	.st6{opacity:0.5;fill:#FFFFFF;enable-background:new    ;}
</style>
<g id="Layer_1_00000024699090999013545910000002929507817598565016_">
	<path class="st0" d="M60,0h136c33.1,0,60,26.9,60,60v136c0,33.1-26.9,60-60,60H60c-33.1,0-60-26.9-60-60V60C0,26.9,26.9,0,60,0z"/>
</g>
<g id="test-tube">
	<path id="shadow_2_" class="st1" d="M133.8,39.7c-0.1,0.3-0.1,0.7,0,1.1c0,0,1.1,7.5-0.2,10.8L79.4,192.7l0,0
		c-3.9,10.4,1.3,21.9,11.7,25.9c10.4,4,22-1.1,26-11.4l0,0L171.4,66c1.1-2.8,7.1-8.1,7.1-8.1c0.3-0.2,0.5-0.5,0.7-0.8l0-0.1
		c0-0.1,0.1-0.1,0.1-0.2c1.4-3.6-7.6-10.5-20.2-15.3c-12.5-4.8-23.8-5.8-25.2-2.1C133.9,39.5,133.9,39.6,133.8,39.7L133.8,39.7z"/>
	
		<linearGradient id="tube_00000059302641249150961570000011032734027105309350_" gradientUnits="userSpaceOnUse" x1="34.4942" y1="143.8503" x2="68.8959" y2="109.4487" gradientTransform="matrix(0.9138 -0.4062 -0.4062 -0.9138 127.7453 265.6307)">
		<stop  offset="0" style="stop-color:#919191"/>
		<stop  offset="1" style="stop-color:#FFFFFF"/>
	</linearGradient>
	<path id="tube_2_" style="fill:url(#tube_00000059302641249150961570000011032734027105309350_);" d="M132.3,38.5
		c-0.1,0.3-0.1,0.7,0,1.1c0,0,1.1,7.5-0.2,10.8L77.8,191.5l0,0c-3.9,10.4,1.3,21.9,11.7,25.9c10.4,4,22-1.1,26-11.4l0,0l54.3-141.2
		c1.1-2.8,7.1-8.1,7.1-8.1c0.3-0.2,0.5-0.5,0.7-0.8l0-0.1c0-0.1,0.1-0.1,0.1-0.2c1.4-3.6-7.6-10.5-20.2-15.3
		c-12.5-4.8-23.8-5.8-25.2-2.1C132.3,38.3,132.3,38.4,132.3,38.5L132.3,38.5z"/>
	
		<linearGradient id="liquid_00000127001914600980015990000010587093404011398829_" gradientUnits="userSpaceOnUse" x1="21.5588" y1="117.6066" x2="42.3856" y2="96.7799" gradientTransform="matrix(0.9138 -0.4062 -0.4062 -0.9138 127.7453 265.6307)">
		<stop  offset="0" style="stop-color:#990000"/>
		<stop  offset="1" style="stop-color:#E80000"/>
	</linearGradient>
	<path id="liquid" style="fill:url(#liquid_00000127001914600980015990000010587093404011398829_);" d="M149.3,102.3l-39.2,101.8
		l0,0c-2.9,7.3-11.3,11.1-18.7,8.2c-7.5-2.9-11.5-11.4-8.7-18.8l0,0l25-65.1c0,0,3.1-5,9.3-8.6c6.1-3.6,11.2-2.8,18-5.9
		C141.8,111,149.3,102.3,149.3,102.3z"/>
	
		<ellipse id="top" transform="matrix(0.359 -0.9333 0.9333 0.359 55.126 174.9293)" class="st4" cx="154.9" cy="47.3" rx="4" ry="15.1"/>
	<path id="side-reflection" class="st5" d="M132.3,39.5c0,0,1.1,7.5-0.2,10.8L77.8,191.5l0,0c-3.9,10.4,1.3,21.9,11.7,25.9
		c1.8,0.7,3.6,1.1,5.5,1.3c-7-5.3-10-14.6-6.8-23.2l0,0l53.2-138.4C141.4,57.1,134.1,50.3,132.3,39.5z"/>
	<g id="bubbles">
		<circle class="st6" cx="114.8" cy="130.6" r="1.6"/>
		<circle class="st6" cx="125.1" cy="142" r="2.4"/>
		<circle class="st6" cx="109.3" cy="155.6" r="4.4"/>
		<circle class="st6" cx="102.1" cy="163.8" r="2.4"/>
		<circle class="st6" cx="111.6" cy="181.4" r="1.6"/>
	</g>
</g>
</svg>
