<svg width="256" height="256" viewBox="0 0 256 256" fill="none" xmlns="http://www.w3.org/2000/svg">
<rect width="256" height="256" rx="60" fill="white"/>
<g clip-path="url(#clip0_137_139)">
<path fill-rule="evenodd" clip-rule="evenodd" d="M198.402 124.423C198.402 164.03 167.012 196.137 128.29 196.137C89.5687 196.137 58.1785 164.03 58.1785 124.423C58.1785 84.8157 89.5687 52.7076 128.29 52.7076C167.012 52.7076 198.402 84.8157 198.402 124.423Z" fill="#D33833"/>
<path d="M61.0355 142.184C61.0355 142.184 55.9599 67.3983 124.87 65.2612L120.063 57.2484L82.6701 69.8021L71.9862 82.0882L62.6381 99.984L57.2958 120.817L58.8983 134.706" fill="#EF3D3A"/>
<path d="M80.2695 75.5009C67.9682 88.0875 60.356 105.466 60.356 124.691C60.356 143.912 67.9682 161.292 80.2695 173.877C92.5767 186.461 109.538 194.226 128.289 194.226C147.041 194.226 164.003 186.461 176.309 173.877C188.61 161.292 196.224 143.912 196.224 124.691C196.224 105.466 188.61 88.0875 176.309 75.5009C164.003 62.9192 147.041 55.154 128.289 55.1524C109.538 55.154 92.5767 62.9192 80.2695 75.5009ZM77.1557 176.921C64.0823 163.551 56 145.073 56 124.691C56 104.305 64.0823 85.8295 77.1557 72.4585C90.226 59.0851 108.319 50.7958 128.289 50.7982C148.26 50.7958 166.354 59.0851 179.422 72.4585C192.497 85.8295 200.58 104.307 200.579 124.691C200.58 145.073 192.497 163.551 179.422 176.921C166.354 190.294 148.26 198.582 128.289 198.582C108.319 198.582 90.226 190.294 77.1557 176.921" fill="#231F20"/>
<path fill-rule="evenodd" clip-rule="evenodd" d="M157.804 124.821L147.119 126.423L132.696 128.026L123.347 128.292L114.267 128.026L107.322 125.889L101.179 119.212L96.3708 105.59L95.3026 102.651L88.8923 100.515L85.1529 94.3718L82.4821 85.5577L85.4205 77.8117L92.3644 75.4079L97.9734 78.0793L100.645 83.9551L103.85 83.4207L104.918 82.0858L103.85 75.9423L103.582 68.1963L105.185 57.5128L105.122 51.4103L109.993 43.6242L118.54 37.4808L133.497 31.0705L150.057 33.4744L164.48 43.891L171.158 54.5745L175.431 62.3205L176.499 81.5513L173.294 98.1114L167.418 112.801L161.809 120.547" fill="#F0D6B7"/>
<path fill-rule="evenodd" clip-rule="evenodd" d="M148.722 171.027L110.527 172.63V179.04L113.732 201.476L112.129 203.346L85.4205 194.264L83.5503 191.059L80.8795 160.878L74.7371 142.716L73.4012 138.442L94.7682 123.752L101.446 121.081L107.322 128.293L112.396 132.833L118.273 134.703L120.944 135.504L124.149 149.393L126.553 152.331L132.696 150.194L128.422 158.474L151.659 169.425L148.722 171.027" fill="#335061"/>
<path fill-rule="evenodd" clip-rule="evenodd" d="M85.4205 77.8119L92.3644 75.4081L97.9734 78.0795L100.645 83.9553L103.85 83.4209L104.651 80.2157L103.049 74.0731L104.651 59.3824L103.315 51.3696L108.123 45.7606L118.54 37.481L115.602 33.4746L100.911 40.6861L94.7682 45.4938L91.2961 52.9722L85.9541 60.1837L84.3516 68.731L85.4205 77.8119Z" fill="#6D6B6D"/>
<path fill-rule="evenodd" clip-rule="evenodd" d="M96.3708 52.7053C96.3708 52.7053 100.377 42.8231 116.403 38.0154C132.428 33.2077 117.204 34.5426 117.204 34.5426L99.8435 41.2205L93.1657 47.8976L90.2281 53.2397L96.3708 52.7053Z" fill="#DCD9D8"/>
<path fill-rule="evenodd" clip-rule="evenodd" d="M88.358 75.9424C88.358 75.9424 82.749 57.2453 104.117 54.5746L103.315 51.3695L88.6256 54.8422L84.3516 68.7308L85.4205 77.8118L88.358 75.9424Z" fill="#DCD9D8"/>
<path fill-rule="evenodd" clip-rule="evenodd" d="M96.9052 100.782L100.402 97.3934C100.402 97.3934 101.981 97.5769 102.247 99.4463C102.514 101.317 103.315 118.143 114.8 127.225C115.848 128.054 106.254 125.889 106.254 125.889L97.7064 112.534" fill="#F7E4CD"/>
<path fill-rule="evenodd" clip-rule="evenodd" d="M146.052 95.7075C146.052 95.7075 146.675 87.6114 148.855 88.234C151.035 88.8566 151.035 91.0368 151.035 91.0368C151.035 91.0368 145.74 94.4623 146.052 95.7075" fill="#F7E4CD"/>
<path d="M168.22 66.0602C168.22 66.0602 163.817 66.9897 163.412 70.8679C163.006 74.7469 168.22 71.6692 169.021 71.4023" fill="#F7E4CD"/>
<path d="M135.901 66.3278C135.901 66.3278 130.025 67.129 130.025 70.8678C130.025 74.6074 136.703 74.3406 138.572 72.738" fill="#F7E4CD"/>
<path fill-rule="evenodd" clip-rule="evenodd" d="M99.5759 83.6885C99.5759 83.6885 89.4259 77.545 88.358 83.4216C87.2897 89.2974 84.8852 93.5715 89.9605 99.7141L86.4884 98.646L83.2833 90.3664L82.2153 82.3535L88.358 75.9425L95.3025 76.4769L99.3089 79.6821L99.5759 83.6885Z" fill="#F7E4CD"/>
<path fill-rule="evenodd" clip-rule="evenodd" d="M104.384 66.8616C104.384 66.8616 108.924 43.3576 131.895 38.8167C150.806 35.0787 160.74 39.618 164.48 43.8912C164.48 43.8912 147.653 23.86 131.627 30.0026C115.602 36.146 103.85 47.364 104.117 54.5747C104.571 66.8568 104.384 66.8616 104.384 66.8616Z" fill="#F7E4CD"/>
<path fill-rule="evenodd" clip-rule="evenodd" d="M166.35 46.5619C166.35 46.5619 158.605 46.295 158.337 53.2398C158.337 53.2398 158.337 54.3079 158.871 55.376C158.871 55.376 165.015 48.4313 168.754 52.1708" fill="#F7E4CD"/>
<path fill-rule="evenodd" clip-rule="evenodd" d="M132.433 56.0995C132.433 56.0995 131.1 45.44 122.012 51.6371C116.136 55.6436 116.671 61.2525 117.738 62.3206C118.807 63.3895 118.516 65.541 119.33 64.0642C120.142 62.5875 119.875 57.7798 122.813 56.4448C125.751 55.1091 130.568 53.6171 132.433 56.0995Z" fill="#F7E4CD"/>
<path fill-rule="evenodd" clip-rule="evenodd" d="M107.322 128.293L82.2153 139.511C82.2153 139.511 92.632 180.91 87.2897 193.731L83.5503 192.396L83.2833 176.637L76.3397 146.723L73.4012 138.442L99.5759 120.815L107.322 128.293Z" fill="#49728B"/>
<path fill-rule="evenodd" clip-rule="evenodd" d="M109.903 151.191L113.465 155.537V171.562H109.191C109.191 171.562 108.658 160.345 108.658 159.009C108.658 157.673 109.191 152.865 109.191 152.865" fill="#49728B"/>
<path fill-rule="evenodd" clip-rule="evenodd" d="M109.993 173.966L97.9734 174.5L101.446 176.904L109.993 178.24" fill="#49728B"/>
<path fill-rule="evenodd" clip-rule="evenodd" d="M151.126 171.295L161.008 171.028L163.412 195.601L153.262 196.936L151.126 171.295" fill="#335061"/>
<path fill-rule="evenodd" clip-rule="evenodd" d="M153.797 171.295L168.754 170.494C168.754 170.494 174.897 155.002 174.897 154.201C174.897 153.4 180.239 131.765 180.239 131.765L168.22 119.212L165.816 117.075L159.405 123.486V148.325L153.797 171.295" fill="#335061"/>
<path fill-rule="evenodd" clip-rule="evenodd" d="M160.474 169.426L151.126 171.295L152.461 178.774C155.933 180.377 161.809 176.103 161.809 176.103" fill="#49728B"/>
<path fill-rule="evenodd" clip-rule="evenodd" d="M160.741 122.684L179.438 136.573L179.972 130.163L165.816 117.075L160.741 122.684Z" fill="#49728B"/>
<path fill-rule="evenodd" clip-rule="evenodd" d="M119.262 223.915L113.732 201.476L110.982 184.919L110.527 172.63L135.555 171.298L151.126 171.295L149.71 199.342L152.114 220.977L151.847 224.983L131.548 226.586L119.262 223.915" fill="white"/>
<path fill-rule="evenodd" clip-rule="evenodd" d="M147.653 171.028C147.653 171.028 146.318 198.806 150.325 218.571C150.325 218.571 142.312 223.646 130.559 224.981L152.995 224.18L155.666 222.577L152.461 178.774L151.659 169.425" fill="#DCD9D8"/>
<path fill-rule="evenodd" clip-rule="evenodd" d="M163.867 193.467L174.284 190.528L194.048 189.46L196.986 180.379L191.644 164.62L185.502 163.819L176.954 166.49L168.754 170.494L164.401 169.695L161.008 171.028" fill="white"/>
<path fill-rule="evenodd" clip-rule="evenodd" d="M163.679 188.122C163.679 188.122 170.623 184.917 171.692 185.184L168.754 170.494L172.226 169.159C172.226 169.159 174.63 183.047 174.63 184.65C174.63 184.65 189.587 185.451 190.922 185.451C190.922 185.451 194.127 179.308 193.326 172.898L196.264 181.445L196.531 186.252L192.258 192.663L187.45 193.731L179.438 193.464L176.767 189.992L167.418 191.327L164.48 192.396" fill="#DCD9D8"/>
<path d="M153.183 169.161L147.307 154.204L141.163 145.389C141.163 145.389 142.498 141.65 144.369 141.65C146.239 141.65 150.512 141.65 150.512 141.65L156.388 143.787L155.854 153.669L153.183 169.161Z" fill="white"/>
<path fill-rule="evenodd" clip-rule="evenodd" d="M154.331 164.083C154.331 164.083 146.852 149.661 146.852 147.524C146.852 147.524 148.187 144.319 150.057 145.12C151.927 145.922 155.933 148.058 155.933 148.058V142.983L146.852 141.113L140.709 141.914L151.126 166.487L153.262 166.755" fill="#DCD9D8"/>
<path d="M121.666 128.83L114.267 128.026L107.322 125.889V128.293L110.715 132.035L121.399 136.842" fill="white"/>
<path fill-rule="evenodd" clip-rule="evenodd" d="M109.727 129.631C109.727 129.631 118.007 133.104 120.678 132.302L120.944 135.504L113.466 133.905L108.925 130.7L109.727 129.631Z" fill="#DCD9D8"/>
<path fill-rule="evenodd" clip-rule="evenodd" d="M163.838 142.559C159.306 142.426 155.212 141.888 151.627 140.877C151.87 139.407 151.414 137.965 151.78 136.906C152.78 136.187 154.454 136.198 155.965 136.029C154.659 135.387 152.824 135.133 151.317 135.504C151.281 134.484 150.824 133.852 150.547 133.054C153.095 132.144 159.11 126.182 162.494 128.156C164.106 129.095 164.791 134.459 164.916 137.067C165.02 139.231 164.72 141.413 163.838 142.559Z" fill="#D33833"/>
<path d="M163.838 142.559C159.306 142.426 155.212 141.888 151.627 140.877C151.87 139.407 151.414 137.965 151.78 136.906C152.78 136.187 154.454 136.198 155.965 136.029C154.659 135.387 152.824 135.133 151.317 135.504C151.281 134.484 150.824 133.852 150.547 133.054C153.095 132.144 159.11 126.182 162.494 128.156C164.106 129.095 164.791 134.459 164.916 137.067C165.02 139.231 164.72 141.413 163.838 142.559Z" stroke="#D33833" stroke-width="2.5"/>
<path fill-rule="evenodd" clip-rule="evenodd" d="M142.166 135.151C142.154 135.494 142.139 135.839 142.126 136.185C140.711 137.115 138.426 137.104 136.873 137.885C139.163 137.985 140.965 138.536 142.524 139.313C142.49 140.177 142.457 141.04 142.423 141.904C139.829 143.68 137.46 146.324 134.406 147.989C132.962 148.777 127.895 150.803 126.359 150.445C125.489 150.243 125.411 149.164 125.064 148.148C124.323 145.971 122.619 142.505 122.47 139.228C122.281 135.088 121.863 128.151 126.324 129.003C129.923 129.69 134.109 131.348 136.895 132.87C138.598 133.801 139.583 134.952 142.166 135.151" fill="#D33833"/>
<path d="M142.166 135.151C142.154 135.494 142.139 135.839 142.126 136.185C140.711 137.115 138.426 137.104 136.873 137.885C139.163 137.985 140.965 138.536 142.524 139.313C142.49 140.177 142.457 141.04 142.423 141.904C139.829 143.68 137.46 146.324 134.406 147.989C132.962 148.777 127.895 150.803 126.359 150.445C125.489 150.243 125.411 149.164 125.064 148.148C124.323 145.971 122.619 142.505 122.47 139.228C122.281 135.088 121.863 128.151 126.324 129.003C129.923 129.69 134.109 131.348 136.895 132.87C138.598 133.801 139.583 134.952 142.166 135.151V135.151Z" stroke="#D33833" stroke-width="2.5"/>
<path fill-rule="evenodd" clip-rule="evenodd" d="M144.742 140.09C144.346 137.835 143.889 137.192 144.066 135.225C150.079 131.215 151.208 142.112 144.742 140.09Z" fill="#D33833"/>
<path d="M144.742 140.09C144.346 137.835 143.889 137.192 144.066 135.225C150.079 131.215 151.208 142.112 144.742 140.09Z" stroke="#D33833" stroke-width="2.5"/>
<path fill-rule="evenodd" clip-rule="evenodd" d="M153.45 141.917C153.45 141.917 151.579 139.246 152.915 138.445C154.251 137.643 155.587 138.446 156.388 137.11C157.189 135.774 156.388 134.973 156.655 133.37C156.921 131.768 158.258 131.5 159.593 131.233C160.928 130.966 164.668 130.432 165.202 131.768L163.599 126.96L160.394 125.892L150.244 131.768L149.71 134.706V140.582" fill="#EF3D3A"/>
<path fill-rule="evenodd" clip-rule="evenodd" d="M125.405 150.732C125.084 146.563 124.744 142.401 124.367 138.236C123.801 132.018 125.86 133.103 131.25 133.103C132.073 133.103 136.319 134.085 136.623 134.706C138.079 137.681 134.187 137.02 138.3 139.264C141.773 141.157 147.908 138.114 146.505 133.905C145.72 132.969 142.413 133.613 141.228 132.998C139.142 131.917 137.055 130.835 134.968 129.753C132.314 128.376 126.178 126.368 123.347 128.293C116.176 133.17 123.8 145.357 126.358 150.445" fill="#EF3D3A"/>
<path fill-rule="evenodd" clip-rule="evenodd" d="M132.433 56.0995C125.153 54.4039 121.536 59.1459 119.329 64.0642C117.359 63.5866 118.143 60.9072 118.641 59.5418C119.944 55.9584 125.195 51.1884 129.486 51.835C131.332 52.1131 133.831 53.8014 132.433 56.0995" fill="#231F20"/>
<path fill-rule="evenodd" clip-rule="evenodd" d="M167.903 64.3895C168.018 64.3944 168.134 64.3984 168.248 64.4032C169.893 67.8206 171.317 71.4408 173.393 74.4577C172.002 77.6956 162.865 80.561 163.006 74.7469C164.982 73.8831 168.393 74.5706 170.145 73.4673C169.132 70.6876 167.671 68.3214 167.903 64.3895" fill="#231F20"/>
<path fill-rule="evenodd" clip-rule="evenodd" d="M136.16 64.4786C137.721 67.3399 138.229 70.3464 140.448 72.509C141.447 73.4826 143.39 74.6693 142.427 77.3768C142.202 78.0154 140.557 79.4393 139.607 79.719C136.139 80.743 128.056 79.9305 130.793 75.606C133.662 75.7398 137.518 77.4689 139.662 75.3864C138.015 72.7542 135.08 67.5467 136.16 64.4786" fill="#231F20"/>
<path fill-rule="evenodd" clip-rule="evenodd" d="M166.601 93.5602C161.378 96.9152 155.554 100.563 146.997 99.7173C145.168 98.1275 144.471 94.5899 146.248 92.2533C147.172 93.8431 146.591 96.7669 149.168 97.2068C154.024 98.0378 159.675 94.2365 163.168 92.908C165.334 89.2565 162.982 87.9136 161.03 85.5634C157.036 80.7485 151.678 74.7805 151.873 67.5722C153.487 66.4015 153.627 69.3591 153.858 69.8975C155.944 74.779 161.193 81.0217 165.024 85.1996C165.965 86.2285 167.514 87.2156 167.686 87.8959C168.183 89.8743 166.393 92.2445 166.601 93.5602" fill="#231F20"/>
<path fill-rule="evenodd" clip-rule="evenodd" d="M97.7481 90.0281C96.1111 89.0938 95.7214 84.9784 93.7995 84.8614C91.053 84.6948 91.5538 90.2004 91.5648 93.4199C89.6742 91.7036 89.3418 86.4191 90.7306 83.7052C89.1478 82.9279 88.441 84.5625 87.563 85.1387C88.6914 76.9415 99.5541 81.3366 97.7481 90.0281Z" fill="#231F20"/>
<path fill-rule="evenodd" clip-rule="evenodd" d="M169.926 96.9737C167.495 101.601 164.056 106.697 156.922 106.845C156.777 105.351 156.666 103.077 156.93 102.177C162.384 101.653 165.751 98.8775 169.926 96.9737Z" fill="#231F20"/>
<path fill-rule="evenodd" clip-rule="evenodd" d="M135.749 99.9736C140.299 102.366 148.661 102.623 154.845 102.442C155.177 103.797 155.169 105.471 155.182 107.123C147.232 107.52 137.833 105.553 135.749 99.9736Z" fill="#231F20"/>
<path fill-rule="evenodd" clip-rule="evenodd" d="M134.884 104.435C138.03 112.335 148.845 111.426 157.964 111.208C157.562 112.233 156.692 113.445 155.611 113.883C152.688 115.072 144.628 115.975 140.571 113.82C137.998 112.452 136.345 109.362 134.936 107.55C134.255 106.675 130.865 104.44 134.884 104.435" fill="#231F20"/>
<path fill-rule="evenodd" clip-rule="evenodd" d="M166.221 148.011C162.529 154.335 158.996 160.83 154.615 166.408C156.452 161.008 157.238 151.97 157.515 145.08C161.357 143.282 164.647 145.485 166.221 148.011Z" fill="#81B0C4"/>
<path fill-rule="evenodd" clip-rule="evenodd" d="M186.09 170.74C181.956 171.567 179.051 175.585 175.018 175.327C177.235 172.203 181.119 170.886 186.09 170.74Z" fill="#231F20"/>
<path fill-rule="evenodd" clip-rule="evenodd" d="M187.913 177.209C184.544 177.565 180.587 178.111 177.169 177.83C178.787 175.358 185.02 176.211 187.913 177.209Z" fill="#231F20"/>
<path fill-rule="evenodd" clip-rule="evenodd" d="M189.081 182.787C185.294 182.869 180.587 182.793 176.988 182.491C179.117 180.204 186.625 181.643 189.081 182.787Z" fill="#231F20"/>
<path fill-rule="evenodd" clip-rule="evenodd" d="M159.096 198.051C159.639 202.806 161.525 207.625 161.289 212.833C159.195 213.54 157.992 214.157 155.187 214.153C154.989 209.727 154.397 202.96 154.574 198.741C155.954 198.832 157.988 197.755 159.096 198.051Z" fill="#DCD9D8"/>
<path fill-rule="evenodd" clip-rule="evenodd" d="M152.991 127.961C151.09 129.202 149.47 130.752 147.644 132.077C143.595 132.277 141.385 131.797 138.409 129.471C138.458 129.285 138.757 129.368 138.768 129.139C143.103 131.071 148.614 128.352 152.991 127.961" fill="#F0D6B7"/>
<path fill-rule="evenodd" clip-rule="evenodd" d="M130.234 157.51C131.425 152.349 136.092 149.676 140.33 146.834C144.704 152.386 147.365 159.525 150.294 166.414C143.373 164.328 136.3 160.942 130.234 157.51Z" fill="#81B0C4"/>
<path fill-rule="evenodd" clip-rule="evenodd" d="M154.574 198.74C154.397 202.96 154.989 209.727 155.187 214.153C157.992 214.157 159.195 213.539 161.288 212.833C161.525 207.625 159.639 202.806 159.096 198.051C157.988 197.755 155.954 198.832 154.574 198.74V198.74ZM110.893 174.743C112.742 191.749 115.422 206.044 120.336 221.103C131.242 224.414 144.39 224.703 154.03 221.715C152.26 213.215 153.034 202.868 151.999 193.798C151.22 186.981 151.617 180.122 150.548 173.167C138.867 170.737 122.356 172.599 110.893 174.743V174.743ZM153.31 173.274C153.212 180.577 153.637 187.781 154.195 195.094C156.999 194.673 158.902 194.392 161.508 193.821C160.662 186.781 160.766 178.859 159.043 172.632C157.051 172.651 155.297 172.608 153.31 173.274V173.274ZM167.537 172.096C166.206 171.791 164.656 172.084 163.385 172.109C163.982 178.063 165.433 184.632 165.943 190.882C167.944 190.944 169.013 190 170.659 189.683C170.747 184.197 170.18 176.64 167.537 172.096V172.096ZM189.079 191.778C193.249 190.765 195.872 185.657 194.705 180.411C193.922 176.886 192.528 170.247 191.036 167.991C189.934 166.323 186.944 164.139 184.557 165.668C180.674 168.154 173.833 168.876 171.002 171.886C172.422 176.613 172.862 183.107 173.448 189.097C178.299 189.399 184.268 187.762 188.302 189.499C185.486 190.412 181.831 190.419 179.397 191.749C181.386 192.709 186.043 192.515 189.079 191.778V191.778ZM150.294 166.414C147.365 159.525 144.704 152.386 140.33 146.834C136.092 149.676 131.425 152.349 130.234 157.51C136.301 160.942 143.373 164.328 150.294 166.414ZM157.515 145.08C157.238 151.97 156.452 161.008 154.615 166.408C158.996 160.83 162.529 154.335 166.221 148.011C164.647 145.485 161.357 143.282 157.515 145.08V145.08ZM149.329 142.172C147.67 141.993 146.261 144.079 144.103 143.177C143.609 143.724 143.159 144.316 142.655 144.849C147.422 150.593 149.587 158.742 153.268 165.492C155.244 159.008 155.016 151.905 155.451 144.828C152.737 145 151.232 142.374 149.329 142.172ZM144.066 135.224C143.889 137.192 144.346 137.835 144.742 140.09C151.208 142.111 150.079 131.215 144.066 135.224ZM136.895 132.87C134.109 131.348 129.923 129.69 126.324 129.003C121.863 128.15 122.281 135.088 122.47 139.228C122.619 142.505 124.323 145.97 125.064 148.148C125.411 149.164 125.489 150.243 126.359 150.445C127.895 150.803 132.962 148.776 134.406 147.989C137.46 146.324 139.829 143.68 142.423 141.904C142.457 141.04 142.49 140.177 142.524 139.313C140.965 138.536 139.163 137.985 136.873 137.885C138.426 137.103 140.711 137.115 142.126 136.185C142.139 135.839 142.154 135.494 142.166 135.151C139.583 134.952 138.598 133.801 136.895 132.87V132.87ZM110.282 128.036C107.969 130.384 116.768 133.584 119.569 133.757C119.553 132.271 120.416 130.87 120.242 129.805C116.915 129.22 112.542 129.606 110.282 128.036V128.036ZM138.768 129.139C138.757 129.368 138.458 129.285 138.409 129.471C141.385 131.797 143.595 132.277 147.644 132.077C149.47 130.752 151.09 129.202 152.991 127.961C148.614 128.352 143.103 131.071 138.768 129.139V129.139ZM164.916 137.067C164.791 134.459 164.106 129.095 162.494 128.156C159.11 126.181 153.095 132.144 150.547 133.054C150.824 133.852 151.281 134.484 151.317 135.504C152.824 135.133 154.659 135.387 155.965 136.029C154.454 136.198 152.78 136.187 151.78 136.906C151.414 137.965 151.87 139.407 151.627 140.877C155.212 141.888 159.306 142.426 163.838 142.559C164.72 141.414 165.02 139.231 164.916 137.067V137.067ZM106.388 130.307C105.662 129.789 100.75 123.398 100.077 123.663C91.1876 127.168 82.8758 133.23 75.4484 138.963C82.53 154.159 85.3887 172.776 85.8938 190.72C94.0061 194.514 101.132 199.983 112.14 200.555C110.866 191.542 109.703 183.501 108.98 175.015C106.214 173.849 102.246 175.068 99.6574 174.654C99.6355 171.534 103.611 173.288 103.942 171.19C104.191 169.604 101.755 169.483 102.548 166.985C104.572 167.721 105.634 169.345 107.792 169.955C109.764 165.641 107.765 158.008 108.049 154.402C108.103 153.725 108.387 150.652 109.903 151.191C111.246 151.668 109.827 159.366 109.974 162.778C110.108 165.922 109.594 168.965 110.868 170.938C121.505 169.491 132.314 168.555 143.824 168.239C141.292 167.152 138.284 166.124 134.986 164.265C133.198 163.257 127.562 161.16 127.047 159.462C126.223 156.756 129.206 155.315 129.716 152.995C124.347 155.924 123.299 150.188 122.029 146.125C120.878 142.445 120.223 139.696 119.941 137.573C115.315 135.368 110.37 133.135 106.388 130.307V130.307ZM160.218 124.436C167.624 120.845 168.959 137.858 166.056 143.339C166.505 144.974 168.048 145.599 168.678 147.069C164.545 154.473 159.954 161.384 155.737 168.701C158.874 166.748 163.355 168.351 167.047 166.89C168.396 166.356 169.373 163.267 170.394 160.796C173.204 153.997 176.155 145.426 177.467 138.938C177.764 137.459 178.571 134.238 178.39 132.922C178.067 130.567 174.871 128.82 173.245 127.363C170.25 124.672 168.364 122.305 165.24 119.789C163.973 121.659 161.254 122.915 160.218 124.436V124.436ZM89.4504 58.7565C85.9214 62.6395 86.6601 69.9152 87.0873 75.0915C93.4662 71.0786 101.933 75.4088 101.853 82.2341C104.899 82.1532 102.991 78.4304 102.44 76.0322C100.64 68.1988 105.473 59.6884 102.659 52.525C97.1956 52.9392 92.7072 55.1708 89.4504 58.7565V58.7565ZM114.702 36.2197C106.712 38.4841 96.4732 44.2894 93.1902 51.4665C95.7323 51.0971 97.4971 49.815 100.005 49.6564C100.953 49.5947 102.194 50.0538 103.284 49.783C105.454 49.2445 107.286 44.3775 108.924 42.5666C110.52 40.7982 112.439 40.0426 113.752 38.4304C114.595 38.0234 115.843 38.0514 115.891 36.7846C115.525 36.3935 115.14 36.0955 114.702 36.2197V36.2197ZM156.291 38.3495C147.998 33.6708 133.962 30.1516 125.141 34.549C118.024 38.0979 108.403 43.9697 105.122 51.4104C108.187 58.5907 104.215 65.17 103.961 72.46C103.827 76.3391 105.788 79.7253 105.938 83.948C104.889 85.678 101.686 85.8911 99.468 85.7725C98.7215 82.037 97.4147 77.8383 93.568 77.4168C88.1249 76.8214 84.1451 81.3262 83.8978 86.0338C83.6052 91.5698 88.1499 100.745 94.5915 100.108C97.0798 99.8623 97.6911 97.3679 100.402 97.3935C101.872 100.325 98.1356 101.246 97.7512 103.343C97.6511 103.885 98.0611 106.002 98.2996 106.995C99.4696 111.829 102.078 118.085 104.645 121.765C107.903 126.434 114.305 127.137 121.192 127.595C122.422 124.945 126.953 125.163 129.906 125.856C126.367 124.454 123.078 121.057 120.351 118.05C117.22 114.599 114.048 110.898 113.887 106.389C119.805 114.599 124.694 121.769 135.455 125.38C143.598 128.111 153.107 124.128 159.364 119.735C161.96 117.909 163.51 115.011 165.355 112.359C172.26 102.427 175.482 88.2509 174.773 74.5105C174.482 68.8439 174.494 63.1964 172.593 59.3839C170.606 55.3975 163.885 51.831 159.95 55.4368C159.221 51.5602 163.222 49.1628 167.922 50.5578C164.571 46.2333 161.054 41.037 156.291 38.3495V38.3495ZM171.74 166.208C178.22 162.986 190.328 157.537 194.39 166.22C195.889 169.42 197.648 174.83 198.425 178.134C199.522 182.795 197.236 192.592 192.445 194.156C188.213 195.537 183.276 195.453 178.179 194.429C177.579 193.93 176.91 193.059 176.443 192.152C172.804 192.011 169.396 192.348 166.521 193.844C166.793 196.535 164.973 196.967 163.266 197.522C162.001 202.538 165.797 209.09 164.889 213.664C164.24 216.923 160.231 217.427 157.284 218.037C157.188 219.848 157.413 221.36 157.614 222.892C156.94 225.375 153.918 226.788 151.054 227.135C141.631 228.268 127.325 228.777 118.262 225.518C115.733 219.314 113.741 211.769 111.634 204.686C102.795 205.63 95.6463 200.872 88.9068 197.755C86.5734 196.673 83.3454 196.077 82.4737 194.22C81.6286 192.422 81.9744 188.975 81.7647 185.72C81.231 177.405 80.7741 169.385 78.5783 160.871C77.5924 157.051 75.874 153.68 74.6752 149.998C73.5672 146.587 71.6313 142.37 71.1264 138.968C70.3778 133.926 75.1259 133.645 78.1621 131.46C82.8555 128.081 86.5395 126.212 91.6226 123.163C93.1282 122.26 97.6683 119.974 98.1847 118.921C99.2113 116.833 96.4226 113.89 95.677 112.254C94.4976 109.667 93.8825 107.469 93.7135 104.916C89.4495 104.242 86.2171 101.704 84.2646 98.8431C81.0348 94.1075 78.7949 85.3463 81.5894 78.682C81.8085 78.1572 82.9015 77.1251 83.0627 76.319C83.3807 74.7317 82.4642 72.6211 82.4072 70.9328C82.1137 62.2709 83.8728 54.8078 89.704 52.1956C92.0712 42.7653 100.544 39.6299 108.526 34.9432C111.51 33.1916 114.799 32.0722 118.196 30.8222C130.382 26.3374 149.079 27.182 159.193 34.831C163.482 38.0746 170.337 44.9232 172.788 49.8815C179.264 62.9721 178.805 84.8495 174.275 100.773C173.666 102.911 172.783 106.054 171.55 108.622C170.69 110.415 168.018 114.003 168.342 115.587C168.676 117.224 174.435 121.596 175.67 122.787C177.893 124.932 182.118 127.779 182.46 130.486C182.828 133.366 181.191 137.307 180.361 140.087C177.589 149.363 174.884 157.938 171.74 166.208" fill="#231F20"/>
<path fill-rule="evenodd" clip-rule="evenodd" d="M128.509 101.994C128.86 101.527 130.793 100.816 133.497 102.118C133.497 102.118 130.292 102.652 130.559 107.996L129.223 107.728C129.223 107.728 127.843 102.883 128.509 101.994" fill="#F7E4CD"/>
<path fill-rule="evenodd" clip-rule="evenodd" d="M151.927 147.925C151.927 148.736 151.269 149.393 150.458 149.393C149.647 149.393 148.989 148.736 148.989 147.925C148.989 147.114 149.647 146.455 150.458 146.455C151.269 146.455 151.927 147.114 151.927 147.925Z" fill="#1D1919"/>
<path fill-rule="evenodd" clip-rule="evenodd" d="M153.396 154.736C153.396 155.547 152.738 156.204 151.926 156.204C151.115 156.204 150.458 155.547 150.458 154.736C150.458 153.925 151.115 153.266 151.926 153.266C152.738 153.266 153.396 153.925 153.396 154.736Z" fill="#1D1919"/>
</g>
<defs>
<clipPath id="clip0_137_139">
<rect width="144.872" height="200" fill="white" transform="translate(56 28)"/>
</clipPath>
</defs>
</svg>
