<?xml version="1.0" encoding="UTF-8" standalone="no" ?>
<!DOCTYPE svg PUBLIC "-//W3C//DTD SVG 1.1//EN" "http://www.w3.org/Graphics/SVG/1.1/DTD/svg11.dtd">
<svg xmlns="http://www.w3.org/2000/svg" xmlns:xlink="http://www.w3.org/1999/xlink" version="1.1" width="256" height="256" viewBox="0 0 256 256" xml:space="preserve">
<rect width="256" height="256" rx="60" fill="#F4F2ED"/>

<g transform="matrix(0.4578184226 0 0 0.4578184226 128 128)" id="itKEusFoWg5J7p9a8dLCu"  >
<g style=""   >
		<g transform="matrix(1 0 0 1 83.0500700158 183.801252481)" id="L-rnIUPqlgGFTV9CteTRk"  >
<path style="stroke: none; stroke-width: 1; stroke-dasharray: none; stroke-linecap: butt; stroke-dashoffset: 0; stroke-linejoin: miter; stroke-miterlimit: 4; fill: rgb(73,80,97); fill-rule: evenodd; opacity: 1;"  transform=" translate(-284.0675700158, -438.449752481)" d="M 402.025 490.403 C 402.025 490.403 403.29999999999995 455.985 377.77599999999995 433.755 C 352.25299999999993 411.524 289.85499999999996 385.175 198.99199999999996 386.548 C 108.12999999999997 387.921 234.33799999999997 488.351 234.33799999999997 488.351 L 402.025 490.403 z" stroke-linecap="round" />
</g>
		<g transform="matrix(1 0 0 1 -83.019909298 183.7312485497)" id="jOMKm1rrIY0A7LKHKXR7L"  >
<path style="stroke: none; stroke-width: 1; stroke-dasharray: none; stroke-linecap: butt; stroke-dashoffset: 0; stroke-linejoin: miter; stroke-miterlimit: 4; fill: rgb(73,80,97); fill-rule: evenodd; opacity: 1;"  transform=" translate(-117.997590702, -438.3797485497)" d="M 0.011 490.403 C 0.011 490.403 -1.264 455.939 24.266 433.67900000000003 C 49.796 411.418 112.209 385.03400000000005 203.094 386.408 C 293.979 387.78200000000004 167.739 488.348 167.739 488.348 C 167.739 488.348 110.94300000000001 489.04400000000004 63.45100000000001 489.62600000000003 C 29.329 490.043 0.011 490.403 0.011 490.403 z" stroke-linecap="round" />
</g>
		<g transform="matrix(1 0 0 1 -119.191954022 -19.3134487638)" id="KpLNDg9k2eXPNHVRFq9_2"  >
<path style="stroke: none; stroke-width: 1; stroke-dasharray: none; stroke-linecap: butt; stroke-dashoffset: 0; stroke-linejoin: miter; stroke-miterlimit: 4; fill: rgb(235,207,194); fill-rule: evenodd; opacity: 1;"  transform=" translate(-81.825545978, -235.3350512362)" d="M 88.405 203.989 C 88.405 203.989 76.94200000000001 199.381 68.272 204.81300000000002 C 59.602000000000004 210.245 56.331 233.99900000000002 63.75200000000001 244.383 C 71.174 254.76600000000002 78.78300000000002 267.32 86.76100000000001 268.29 C 94.74000000000001 269.259 104.01800000000001 266.641 104.01800000000001 266.641 L 100.73100000000001 234.90300000000002 L 88.405 203.989 z" stroke-linecap="round" />
</g>
		<g transform="matrix(1 0 0 1 113.489398795 -19.4860050327)" id="KmPyx4xyWo6r_vun1GI-n"  >
<path style="stroke: none; stroke-width: 1; stroke-dasharray: none; stroke-linecap: butt; stroke-dashoffset: 0; stroke-linejoin: miter; stroke-miterlimit: 4; fill: rgb(235,207,194); fill-rule: evenodd; opacity: 1;"  transform=" translate(-314.506898795, -235.1624949673)" d="M 307.924 203.903 C 307.924 203.903 319.393 199.308 328.068 204.725 C 336.743 210.142 340.01599999999996 233.831 332.59 244.185 C 325.164 254.54 317.551 267.059 309.568 268.026 C 301.585 268.993 292.30199999999996 266.382 292.30199999999996 266.382 L 295.59099999999995 234.731 L 307.924 203.903 z" stroke-linecap="round" />
</g>
		<g transform="matrix(1 0 0 1 115.9505 12.9665)" id="GFOchvnXi5Czcv-Kt0AIJ"  >
<path style="stroke: none; stroke-width: 1; stroke-dasharray: none; stroke-linecap: butt; stroke-dashoffset: 0; stroke-linejoin: miter; stroke-miterlimit: 4; fill: rgb(65,137,198); fill-rule: evenodd; opacity: 1;"  transform=" translate(-316.968, -267.615)" d="M 316.968 260.216 C 321.055 260.216 324.368 263.529 324.368 267.615 C 324.368 271.701 321.055 275.014 316.968 275.014 C 312.88100000000003 275.014 309.56800000000004 271.701 309.56800000000004 267.615 C 309.569 263.529 312.882 260.216 316.968 260.216 z" stroke-linecap="round" />
</g>
		<g transform="matrix(1 0 0 1 -3.0595 147.6915)" id="NQN_z6HlJhbV8UyvvsQ3u"  >
<path style="stroke: none; stroke-width: 1; stroke-dasharray: none; stroke-linecap: butt; stroke-dashoffset: 0; stroke-linejoin: miter; stroke-miterlimit: 4; fill: rgb(245,224,212); fill-rule: evenodd; opacity: 1;"  transform=" translate(-197.958, -402.34)" d="M 253.253 348.185 L 142.66299999999998 348.185 L 142.66299999999998 431.495 L 198.033 456.495 L 253.253 431.495 L 253.253 348.185 z" stroke-linecap="round" />
</g>
		<g transform="matrix(1 0 0 1 -2.5478328446 -46.2207836609)" id="fmcDIoJXCm-0Z_73FCHHF"  >
<path style="stroke: none; stroke-width: 1; stroke-dasharray: none; stroke-linecap: butt; stroke-dashoffset: 0; stroke-linejoin: miter; stroke-miterlimit: 4; fill: rgb(245,224,212); fill-rule: evenodd; opacity: 1;"  transform=" translate(-198.4696671554, -208.4277163391)" d="M 192.816 45.238 C 262.579 44.166 302.169 79.588 318.613 131.969 C 338.82 196.33999999999997 309.2 269.652 284.903 311.18600000000004 C 274.946 328.20700000000005 266.06300000000005 344.83400000000006 250.37100000000004 355.99 C 239.80100000000004 363.505 224.84600000000003 368.099 209.67200000000003 370.788 C 190.53700000000003 374.178 164.39400000000003 366.788 153.76200000000003 360.512 C 115.78500000000003 338.093 86.01300000000003 264.512 74.83100000000003 213.768 C 69.80900000000003 190.978 70.81300000000003 158.389 76.88700000000003 137.724 C 88.81500000000003 97.13799999999999 111.22300000000003 68.66699999999999 148.829 53.86999999999999 C 158.086 50.22699999999999 168.526 48.49299999999999 179.25 46.47099999999999 C 183.772 46.061 188.295 45.649 192.816 45.238 z" stroke-linecap="round" />
</g>
		<g transform="matrix(1 0 0 1 -54.0385000361 -41.4975)" id="fzZqxu1T_bwrDnh0WD_3T"  >
<path style="stroke: none; stroke-width: 1; stroke-dasharray: none; stroke-linecap: butt; stroke-dashoffset: 0; stroke-linejoin: miter; stroke-miterlimit: 4; fill: rgb(255,255,255); fill-rule: evenodd; opacity: 1;"  transform=" translate(-146.9789999639, -213.151)" d="M 146.979 189.927 C 159.80700000000002 189.927 170.20600000000002 200.325 170.20600000000002 213.15099999999998 C 170.20600000000002 225.97699999999998 159.80700000000002 236.37499999999997 146.979 236.37499999999997 C 134.151 236.37499999999997 123.75200000000001 225.97699999999998 123.75200000000001 213.15099999999998 C 123.751 200.325 134.151 189.927 146.979 189.927 z" stroke-linecap="round" />
</g>
		<g transform="matrix(1 0 0 1 -54.4345 -41.6985)" id="uK9_OoSqg_tNTFrndyT7I"  >
<path style="stroke: none; stroke-width: 1; stroke-dasharray: none; stroke-linecap: butt; stroke-dashoffset: 0; stroke-linejoin: miter; stroke-miterlimit: 4; fill: rgb(51,51,51); fill-rule: evenodd; opacity: 1;"  transform=" translate(-146.583, -212.95)" d="M 156.233 212.945 C 156.233 218.39499999999998 151.81300000000002 222.815 146.363 222.815 C 142.323 222.815 138.853 220.385 137.333 216.915 C 137.933 217.265 138.633 217.465 139.373 217.465 C 141.643 217.465 143.483 215.625 143.483 213.355 C 143.483 211.08499999999998 141.643 209.24499999999998 139.373 209.24499999999998 C 138.463 209.24499999999998 137.623 209.545 136.933 210.05499999999998 C 138.16299999999998 206.015 141.923 203.08499999999998 146.363 203.08499999999998 C 151.813 203.085 156.233 207.495 156.233 212.945 z" stroke-linecap="round" />
</g>
		<g transform="matrix(1 0 0 1 50.9614999639 -41.4975)" id="q2byKfNc1Y5khIJq9VvQn"  >
<path style="stroke: none; stroke-width: 1; stroke-dasharray: none; stroke-linecap: butt; stroke-dashoffset: 0; stroke-linejoin: miter; stroke-miterlimit: 4; fill: rgb(255,255,255); fill-rule: evenodd; opacity: 1;"  transform=" translate(-251.9789999639, -213.151)" d="M 251.979 189.927 C 264.807 189.927 275.206 200.325 275.206 213.15099999999998 C 275.206 225.97699999999998 264.807 236.37499999999997 251.979 236.37499999999997 C 239.151 236.37499999999997 228.752 225.97699999999998 228.752 213.15099999999998 C 228.751 200.325 239.151 189.927 251.979 189.927 z" stroke-linecap="round" />
</g>
		<g transform="matrix(1 0 0 1 50.5655 -41.6985)" id="rG4zIQoJYETbjqRS7jMMw"  >
<path style="stroke: none; stroke-width: 1; stroke-dasharray: none; stroke-linecap: butt; stroke-dashoffset: 0; stroke-linejoin: miter; stroke-miterlimit: 4; fill: rgb(51,51,51); fill-rule: evenodd; opacity: 1;"  transform=" translate(-251.583, -212.95)" d="M 261.233 212.945 C 261.233 218.39499999999998 256.813 222.815 251.363 222.815 C 247.323 222.815 243.853 220.385 242.333 216.915 C 242.933 217.265 243.633 217.465 244.373 217.465 C 246.643 217.465 248.483 215.625 248.483 213.355 C 248.483 211.08499999999998 246.643 209.24499999999998 244.373 209.24499999999998 C 243.463 209.24499999999998 242.623 209.545 241.933 210.05499999999998 C 243.16299999999998 206.015 246.923 203.08499999999998 251.363 203.08499999999998 C 256.813 203.085 261.233 207.495 261.233 212.945 z" stroke-linecap="round" />
</g>
		<g transform="matrix(1 0 0 1 -0.596 -35.7425)" id="hX-XXNx0wCD5PQSrL-7PZ"  >
<path style="stroke: none; stroke-width: 1; stroke-dasharray: none; stroke-linecap: butt; stroke-dashoffset: 0; stroke-linejoin: miter; stroke-miterlimit: 4; fill: rgb(65,137,198); fill-rule: evenodd; opacity: 1;"  transform=" translate(-200.4215, -218.906)" d="M 187.883 213.768 L 212.96 213.768 L 212.96 224.044 L 187.883 224.044 L 187.883 213.768 z" stroke-linecap="round" />
</g>
		<g transform="matrix(1 0 0 1 -53.8345 -39.2385)" id="vaN879gECKmpM6bRYKhUl"  >
<path style="stroke: none; stroke-width: 1; stroke-dasharray: none; stroke-linecap: butt; stroke-dashoffset: 0; stroke-linejoin: miter; stroke-miterlimit: 4; fill: rgb(65,137,198); fill-rule: evenodd; opacity: 1;"  transform=" translate(-147.183, -215.41)" d="M 180.483 181.705 L 113.88300000000001 181.705 C 109.343 181.705 105.66300000000001 185.38500000000002 105.66300000000001 189.925 L 105.66300000000001 240.895 C 105.66300000000001 245.435 109.34300000000002 249.115 113.88300000000001 249.115 L 180.483 249.115 C 185.023 249.115 188.703 245.435 188.703 240.895 L 188.703 189.925 C 188.703 185.385 185.023 181.705 180.483 181.705 z M 178.763 233.835 C 178.763 237.19500000000002 175.983 239.925 172.553 239.925 L 122.203 239.925 C 118.763 239.925 115.983 237.19500000000002 115.983 233.835 L 115.983 196.095 C 115.983 192.73499999999999 118.763 190.005 122.203 190.005 L 172.553 190.005 C 175.983 190.005 178.763 192.73499999999999 178.763 196.095 L 178.763 233.835 z" stroke-linecap="round" />
</g>
		<g transform="matrix(1 0 0 1 50.1655 -39.2385)" id="sMNgm50QLNUGmGhJ8UROu"  >
<path style="stroke: none; stroke-width: 1; stroke-dasharray: none; stroke-linecap: butt; stroke-dashoffset: 0; stroke-linejoin: miter; stroke-miterlimit: 4; fill: rgb(65,137,198); fill-rule: evenodd; opacity: 1;"  transform=" translate(-251.183, -215.41)" d="M 284.483 181.705 L 217.883 181.705 C 213.34300000000002 181.705 209.663 185.38500000000002 209.663 189.925 L 209.663 240.895 C 209.663 245.435 213.34300000000002 249.115 217.883 249.115 L 284.483 249.115 C 289.023 249.115 292.70300000000003 245.435 292.70300000000003 240.895 L 292.70300000000003 189.925 C 292.703 185.385 289.023 181.705 284.483 181.705 z M 282.763 233.835 C 282.763 237.19500000000002 279.983 239.925 276.553 239.925 L 226.203 239.925 C 222.763 239.925 219.983 237.19500000000002 219.983 233.835 L 219.983 196.095 C 219.983 192.73499999999999 222.763 190.005 226.203 190.005 L 276.553 190.005 C 279.983 190.005 282.763 192.73499999999999 282.763 196.095 L 282.763 233.835 z" stroke-linecap="round" />
</g>
		<g transform="matrix(1 0 0 1 -56.7469487555 -92.2993429253)" id="OAx_fc27H9YT2skt1292s"  >
<path style="stroke: none; stroke-width: 1; stroke-dasharray: none; stroke-linecap: butt; stroke-dashoffset: 0; stroke-linejoin: miter; stroke-miterlimit: 4; fill: rgb(176,143,126); fill-rule: evenodd; opacity: 1;"  transform=" translate(-144.2705512445, -162.3491570747)" d="M 148.783 151.061 C 124.08499999999998 151.601 109.77499999999998 159.63500000000002 109.77499999999998 167.99800000000002 C 109.77499999999998 176.36200000000002 122.92599999999997 173.99 132.76999999999998 170.06400000000002 C 142.61299999999997 166.13800000000003 155.642 166.443 161.10199999999998 170.47700000000003 C 166.56199999999998 174.51100000000002 178.26599999999996 175.64200000000002 178.75799999999998 167.17200000000003 C 179.25 158.702 157.203 150.878 148.783 151.061 z" stroke-linecap="round" />
</g>
		<g transform="matrix(1 0 0 1 53.0489369371 -92.5385556791)" id="cebF0ceQOjlchJ4pY7yvY"  >
<path style="stroke: none; stroke-width: 1; stroke-dasharray: none; stroke-linecap: butt; stroke-dashoffset: 0; stroke-linejoin: miter; stroke-miterlimit: 4; fill: rgb(176,143,126); fill-rule: evenodd; opacity: 1;"  transform=" translate(-254.0664369371, -162.1099443209)" d="M 249.548 150.878 C 274.276 151.415 288.603 159.409 288.603 167.731 C 288.603 176.053 275.437 173.69299999999998 265.581 169.786 C 255.72600000000003 165.88 242.681 166.183 237.21500000000003 170.197 C 231.74900000000002 174.211 220.03100000000003 175.337 219.53800000000004 166.909 C 219.045 158.48 241.117 150.694 249.548 150.878 z" stroke-linecap="round" />
</g>
		<g transform="matrix(1 0 0 1 -0.9933514996 56.9630718803)" id="pTIUbHxpu_KBegB6IWGAx"  >
<path style="stroke: none; stroke-width: 1; stroke-dasharray: none; stroke-linecap: butt; stroke-dashoffset: 0; stroke-linejoin: miter; stroke-miterlimit: 4; fill: rgb(176,143,126); fill-rule: evenodd; opacity: 1;"  transform=" translate(-200.0241485004, -311.6115718803)" d="M 311.503 253.395 C 303.813 275.685 293.983 295.65500000000003 284.90299999999996 311.185 C 274.943 328.205 266.063 344.835 250.37299999999996 355.995 C 239.80299999999997 363.505 224.84299999999996 368.095 209.67299999999994 370.785 C 190.53299999999996 374.175 164.39299999999994 366.785 153.76299999999995 360.51500000000004 C 126.53299999999994 344.44500000000005 103.52299999999994 302.06500000000005 88.55299999999995 260.6650000000001 C 88.50299999999996 257.8250000000001 88.69299999999996 255.14500000000007 89.22299999999996 252.81500000000008 C 89.63299999999995 252.6850000000001 90.04299999999995 252.54500000000007 90.45299999999996 252.4050000000001 C 96.55299999999995 250.0550000000001 102.81299999999996 256.5650000000001 106.07299999999996 258.98500000000007 C 118.02299999999997 267.8450000000001 126.61299999999997 279.05500000000006 137.31299999999996 288.98500000000007 C 135.06299999999996 280.80500000000006 141.75299999999996 262.5350000000001 150.06299999999996 269.67500000000007 C 153.82299999999995 272.4050000000001 150.61299999999997 281.92500000000007 151.70299999999995 286.93500000000006 C 169.84299999999996 299.14500000000004 171.70299999999995 276.99500000000006 180.48299999999995 272.5450000000001 C 186.38299999999995 271.4150000000001 191.93299999999994 276.43500000000006 197.75299999999996 277.48500000000007 C 207.24299999999997 279.18500000000006 211.80299999999997 272.61500000000007 219.95299999999995 272.13500000000005 C 228.12299999999993 276.8550000000001 228.18299999999994 292.285 242.56299999999993 289.40500000000003 C 246.13299999999992 288.685 247.73299999999992 288.90500000000003 249.13299999999992 286.115 C 251.85299999999992 280.935 247.46299999999994 272.645 250.37299999999993 269.255 C 253.27299999999994 265.875 253.66299999999993 268.715 255.30299999999994 268.435 C 261.2629999999999 271.195 266.6929999999999 279.635 263.52299999999997 288.575 C 266.953 284.875 270.373 281.175 273.80299999999994 277.485 C 284.22299999999996 266.925 293.6929999999999 258.64500000000004 307.92299999999994 251.585 C 308.74299999999994 251.725 309.5729999999999 251.85500000000002 310.393 251.995 C 310.763 252.465 311.133 252.925 311.503 253.395 z" stroke-linecap="round" />
</g>
		<g transform="matrix(1 0 0 1 -1.829 53.6668795705)" id="dDAUH3-V17puAWhvsDIqQ"  >
<path style="stroke: none; stroke-width: 1; stroke-dasharray: none; stroke-linecap: butt; stroke-dashoffset: 0; stroke-linejoin: miter; stroke-miterlimit: 4; fill: rgb(235,207,194); fill-rule: evenodd; opacity: 1;"  transform=" translate(-199.1885, -308.3153795705)" d="M 167.739 303.787 C 167.739 303.787 176.091 318.265 199.394 317.763 C 222.697 317.26 230.638 303.787 230.638 303.787 C 230.638 303.787 215.40300000000002 298.85499999999996 203.094 298.85499999999996 C 197.80599999999998 298.85499999999996 192.357 301.78399999999993 185.417 302.96599999999995 C 178.476 304.147 167.739 303.787 167.739 303.787 z" stroke-linecap="round" />
</g>
		<g transform="matrix(1 0 0 1 35.45 133.072)" id="c_cPtwwa96rlT-p0inWoV"  >
<path style="stroke: none; stroke-width: 1; stroke-dasharray: none; stroke-linecap: butt; stroke-dashoffset: 0; stroke-linejoin: miter; stroke-miterlimit: 4; fill: rgb(151,154,155); fill-rule: evenodd; opacity: 1;"  transform=" translate(-236.4675, -387.7205)" d="M 238.36 367.185 C 232.13400000000001 369.42900000000003 225.90800000000002 371.684 219.68200000000002 373.928 C 220.716 382.51 221.76200000000003 391.092 222.79500000000002 399.674 C 228.187 402.531 233.591 405.399 238.983 408.256 C 243.74 405.58299999999997 248.497 402.91099999999994 253.25300000000001 400.226 L 253.25300000000001 371.93 C 248.284 370.348 243.328 368.766 238.36 367.185 z M 247.375 397.173 C 247.375 397.099 244.586 391.705 244.586 391.705 C 244.586 391.705 238.14800000000002 391.705 234.62400000000002 391.705 C 233.59000000000003 393.544 232.54500000000002 395.383 231.51100000000002 397.222 L 227.15300000000002 397.222 C 230.889 388.64 238.98300000000003 371.476 238.98300000000003 371.476 L 251.43500000000003 397.222 L 247.375 397.173 z" stroke-linecap="round" />
</g>
		<g transform="matrix(1 0 0 1 38.2705 128.473)" id="f5CLx2PYDfpOIMCzOtQUY"  >
<path style="stroke: none; stroke-width: 1; stroke-dasharray: none; stroke-linecap: butt; stroke-dashoffset: 0; stroke-linejoin: miter; stroke-miterlimit: 4; fill: rgb(151,154,155); fill-rule: nonzero; opacity: 1;"  transform=" translate(-239.288, -383.1215)" d="M 242.712 387.412 L 235.86399999999998 387.412 L 238.986 378.83099999999996 z" stroke-linecap="round" />
</g>
		<g transform="matrix(1 0 0 1 -39.7776585255 134.0475196744)" id="ZYFlUpqeW0UaMdqvpvCa3"  >
<path style="stroke: none; stroke-width: 1; stroke-dasharray: none; stroke-linecap: butt; stroke-dashoffset: 0; stroke-linejoin: miter; stroke-miterlimit: 4; fill: rgb(151,154,155); fill-rule: evenodd; opacity: 1;"  transform=" translate(-161.2398414745, -388.6960196744)" d="M 169.389 370.317 C 163.95100000000002 368.974 155.592 369.55400000000003 149.018 369.62600000000003 C 146.6 371.24800000000005 144.499 373.85200000000003 142.662 376.77900000000005 C 142.662 382.17400000000004 143.05100000000002 396.4390000000001 143.05100000000002 402.3430000000001 C 144.745 404.7940000000001 146.51800000000003 406.8350000000001 147.98100000000002 407.95200000000006 L 168.35200000000003 407.95200000000006 C 171.52500000000003 406.46000000000004 172.54400000000004 402.65900000000005 174.22200000000004 399.6650000000001 C 176.06200000000004 396.5570000000001 177.90600000000003 393.4500000000001 179.74600000000004 390.3420000000001 C 180.728 386.448 171.329 372.938 169.389 370.317 z M 157.304 376.187 L 159.03 376.187 C 159.261 376.53200000000004 159.489 376.878 159.721 377.223 C 159.835 381.135 159.952 385.05 160.066 388.963 C 158.961 389.64300000000003 158.978 389.89500000000004 157.649 389.654 C 155.65 388.195 156.21 378.313 157.304 376.187 z M 160.757 400.011 C 147.27 403.319 145.406 388.634 149.017 380.675 C 149.822 379.98400000000004 150.629 379.29400000000004 151.434 378.603 C 152.125 378.717 152.815 378.834 153.506 378.94800000000004 C 153.62 379.29300000000006 153.737 379.639 153.851 379.98400000000004 C 150.377 385.187 146.093 394.29200000000003 155.923 396.903 C 167.49 399.976 169.24 385.084 162.829 380.675 L 162.829 379.29400000000004 C 163.288 378.949 163.751 378.60300000000007 164.21 378.25800000000004 C 173.629 383.141 170.18 397.701 160.757 400.011 z" stroke-linecap="round" />
</g>
		<g transform="matrix(1 0 0 1 31.676 174.508)" id="3DpFwS3tHagB5_5h4UrZA"  >
<path style="stroke: none; stroke-width: 1; stroke-dasharray: none; stroke-linecap: butt; stroke-dashoffset: 0; stroke-linejoin: miter; stroke-miterlimit: 4; fill: rgb(255,255,255); fill-rule: evenodd; opacity: 1;"  transform=" translate(-232.6935, -429.1565)" d="M 253.659 389.696 L 194.04999999999998 459.574 L 230.63799999999998 468.617 L 271.337 423.40200000000004 C 271.337 423.40200000000004 271.292 410.28900000000004 268.048 404.083 C 264.804 397.877 253.659 389.696 253.659 389.696 z" stroke-linecap="round" />
</g>
		<g transform="matrix(1 0 0 1 -37.39 174.508)" id="Ya_rSsmeZfz7fLkcEh3y2"  >
<path style="stroke: none; stroke-width: 1; stroke-dasharray: none; stroke-linecap: butt; stroke-dashoffset: 0; stroke-linejoin: miter; stroke-miterlimit: 4; fill: rgb(255,255,255); fill-rule: evenodd; opacity: 1;"  transform=" translate(-163.6275, -429.1565)" d="M 142.662 389.696 L 202.27100000000002 459.574 L 165.68300000000002 468.617 L 124.98400000000002 423.40200000000004 C 124.98400000000002 423.40200000000004 125.02900000000002 410.28900000000004 128.27300000000002 404.083 C 131.517 397.877 142.662 389.696 142.662 389.696 z" stroke-linecap="round" />
</g>
		<g transform="matrix(1 0 0 1 -3.932031878 -155.3695059879)" id="Fq5jWbRaCLJxHburJZrEY"  >
<path style="stroke: none; stroke-width: 1; stroke-dasharray: none; stroke-linecap: butt; stroke-dashoffset: 0; stroke-linejoin: miter; stroke-miterlimit: 4; fill: rgb(176,143,126); fill-rule: evenodd; opacity: 1;"  transform=" translate(-197.085468122, -99.2789940121)" d="M 72.364 195.682 C 72.364 195.682 78.497 178.66199999999998 78.94200000000001 171.84099999999998 C 79.387 165.01999999999998 84.11300000000001 124.89799999999998 98.67500000000001 104.83999999999997 C 108.043 90.40199999999997 121.751 87.40799999999997 135.263 90.45299999999997 C 148.775 93.49899999999998 164.429 101.62799999999997 180.484 99.49599999999998 C 196.53900000000002 97.36399999999998 237.30100000000002 76.88399999999999 254.07100000000003 84.69799999999998 C 270.841 92.51299999999998 299.01700000000005 106.16699999999997 302.17 131.968 C 305.322 157.76899999999998 323.547 198.558 323.547 198.558 C 323.547 198.558 332.988 132.69099999999997 333.002 115.115 C 333.016 97.53899999999999 287.253 45.95599999999999 277.915 35.783 C 268.57700000000006 25.610000000000014 238.363 -0.89 220.36 0.023 C 202.35700000000003 0.937 178.113 15.551 168.561 16.465 C 159.00900000000001 17.379 152.731 12.873 142.251 14.821 C 131.77100000000002 16.769 120.659 16.192 88.808 49.349 C 56.958000000000006 82.506 60.27400000000001 132.201 62.498000000000005 159.921 C 64.722 187.641 72.364 195.682 72.364 195.682 z" stroke-linecap="round" />
</g>
		<g transform="matrix(1 0 0 1 -37.7348012053 -199.1345)" id="x310-CvSCrjt0NK3PqQGD"  >
<path style="stroke: none; stroke-width: 1; stroke-dasharray: none; stroke-linecap: butt; stroke-dashoffset: 0; stroke-linejoin: miter; stroke-miterlimit: 4; fill: rgb(213,173,152); fill-rule: evenodd; opacity: 1;"  transform=" translate(-163.2826987947, -55.514)" d="M 159.106 87.987 C 159.106 87.987 151.274 76.253 161.162 54.69199999999999 C 171.049 33.13099999999999 171.439 23.040999999999993 171.439 23.040999999999993 C 171.439 23.040999999999993 165.839 36.998999999999995 158.284 54.69199999999999 C 150.728 72.385 159.106 87.987 159.106 87.987 z" stroke-linecap="round" />
</g>
		<g transform="matrix(1 0 0 1 21.1925 -193.9955)" id="9anno4zpWkFvhPSLhb1d6"  >
<path style="stroke: none; stroke-width: 1; stroke-dasharray: none; stroke-linecap: butt; stroke-dashoffset: 0; stroke-linejoin: miter; stroke-miterlimit: 4; fill: rgb(213,173,152); fill-rule: evenodd; opacity: 1;"  transform=" translate(-222.21, -60.653)" d="M 187.883 91.276 C 187.883 91.276 210.08700000000002 65.64699999999999 224.471 54.282 C 238.85500000000002 42.916999999999994 256.53700000000003 30.029999999999998 256.53700000000003 30.029999999999998 C 256.53700000000003 30.029999999999998 242.56900000000005 33.467999999999996 221.59400000000005 51.405 C 200.618 69.341 187.883 91.276 187.883 91.276 z" stroke-linecap="round" />
</g>
		<g transform="matrix(1 0 0 1 -5.3248984575 -207.355)" id="z_y0fCzo45ciAx8UxdZF6"  >
<path style="stroke: none; stroke-width: 1; stroke-dasharray: none; stroke-linecap: butt; stroke-dashoffset: 0; stroke-linejoin: miter; stroke-miterlimit: 4; fill: rgb(213,173,152); fill-rule: evenodd; opacity: 1;"  transform=" translate(-195.6926015425, -47.2935)" d="M 172.672 87.576 C 172.672 87.576 172.19299999999998 63.74699999999999 183.772 37.42799999999999 C 195.35 11.11 218.716 7.011 218.716 7.011 C 218.716 7.011 201.609 14.795 189.52800000000002 38.251 C 177.447 61.706 172.672 87.576 172.672 87.576 z" stroke-linecap="round" />
</g>
		<g transform="matrix(1 0 0 1 -39.4832023616 219.2282320767)" id="uXS2C4ZZ2IkdqNfyYfxUT"  >
<path style="stroke: none; stroke-width: 1; stroke-dasharray: none; stroke-linecap: butt; stroke-dashoffset: 0; stroke-linejoin: miter; stroke-miterlimit: 4; fill: rgb(51,115,170); fill-rule: evenodd; opacity: 1;"  transform=" translate(-161.5342976384, -473.8767320767)" d="M 212.889 468.099 C 212.889 468.099 125.65500000000002 417.485 118.11500000000001 448.957 C 110.575 480.429 102.10100000000001 504.376 125.33200000000001 508.802 C 148.563 513.2280000000001 212.889 468.099 212.889 468.099 z" stroke-linecap="round" />
</g>
		<g transform="matrix(1 0 0 1 40.8112906707 219.2735586944)" id="xiOfOsLMSnnQczUkyCTcU"  >
<path style="stroke: none; stroke-width: 1; stroke-dasharray: none; stroke-linecap: butt; stroke-dashoffset: 0; stroke-linejoin: miter; stroke-miterlimit: 4; fill: rgb(65,137,198); fill-rule: evenodd; opacity: 1;"  transform=" translate(-241.8287906707, -473.9220586944)" d="M 197.809 460.493 C 222.85 447.549 272.283 425.39 277.94100000000003 448.856 C 285.557 480.442 294.08400000000006 504.469 270.90900000000005 508.98 C 254.62300000000005 512.15 218.00900000000004 490.797 197.68100000000004 477.824 C 197.66 462.481 197.831 475.611 197.809 460.493 z" stroke-linecap="round" />
</g>
</g>
</g>
</svg>