<svg version="1.2" xmlns="http://www.w3.org/2000/svg" viewBox="0 0 256 256" width="256" height="256">
	<title>Jira-Light</title>
	<defs>
		<linearGradient id="g1" x2="1" gradientUnits="userSpaceOnUse" gradientTransform="matrix(-38.877,38.869,-21.158,-21.162,122.822,71.991)">
			<stop offset=".18" stop-color="#0052cc"/>
			<stop offset="1" stop-color="#2684ff"/>
		</linearGradient>
		<linearGradient id="g2" x2="1" gradientUnits="userSpaceOnUse" gradientTransform="matrix(38.802,38.793,-71.432,71.447,133.119,105.951)">
			<stop offset=".18" stop-color="#0052cc"/>
			<stop offset="1" stop-color="#2684ff"/>
		</linearGradient>
	</defs>
	<style>
		.s0 { fill: #f4f2ed } 
		.s1 { fill: #2684ff } 
		.s2 { fill: url(#g1) } 
		.s3 { fill: url(#g2) } 
	</style>
	<path id="Layer" class="s0" d="m0 60c0-33.1 26.9-60 60-60h136c33.1 0 60 26.9 60 60v136c0 33.1-26.9 60-60 60h-136c-33.1 0-60-26.9-60-60z"/>
	<g id="Layer">
		<path id="Layer" fill-rule="evenodd" class="s1" d="m218.3 125.2q0.6 1.3 0.6 2.8 0 1.5-0.6 2.9-0.6 1.4-1.6 2.4l-27 26.9-0.9 1-61 60.9-33.2-33.1-55.7-55.7q-1-1.1-1.6-2.4-0.6-1.4-0.6-2.9 0-1.5 0.6-2.9 0.6-1.3 1.6-2.4l27.9-27.9 61-60.9 88.9 88.8q1 1.1 1.6 2.5zm-62.7 2.8l-27.8-27.8-27.8 27.8 27.8 27.8z"/>
		<path id="Layer" class="s2" d="m127.8 100.2c-4.3-4.4-7.8-9.5-10.1-15.2-2.4-5.6-3.6-11.7-3.6-17.8 0-6.2 1.1-12.2 3.5-17.9 2.3-5.7 5.7-10.9 10-15.2l-60.9 60.9 33.1 33.1z"/>
		<path id="Layer" class="s3" d="m155.7 127.9l-27.9 27.9c4.4 4.4 7.8 9.6 10.2 15.2 2.3 5.7 3.5 11.8 3.5 18 0 6.1-1.2 12.2-3.5 17.9-2.4 5.7-5.8 10.9-10.2 15.2l61.1-61z"/>
	</g>
</svg>