<svg width="256" height="256" viewBox="0 0 256 256" fill="none" xmlns="http://www.w3.org/2000/svg">
<rect width="256" height="256" rx="60" fill="#F4F2ED"/>
<path d="M118.509 182.431C118.509 208.866 97.3497 230.282 71.2544 230.282C45.1484 230.282 24 208.866 24 182.431C24 156.006 45.1484 134.58 71.2544 134.58C97.3497 134.58 118.509 156.006 118.509 182.431Z" fill="#CB3C33"/>
<path d="M232.046 182.431C232.046 208.866 210.887 230.282 184.791 230.282C158.696 230.282 137.537 208.866 137.537 182.431C137.537 156.006 158.696 134.58 184.791 134.58C210.887 134.58 232.046 156.006 232.046 182.431Z" fill="#9558B2"/>
<path d="M175.288 82.8511C175.288 109.276 154.129 130.702 128.033 130.702C101.927 130.702 80.7791 109.276 80.7791 82.8511C80.7791 56.4262 101.927 35 128.033 35C154.129 35 175.288 56.4262 175.288 82.8511Z" fill="#389826"/>
</svg>
