<svg width="256" height="256" viewBox="0 0 256 256" fill="none" xmlns="http://www.w3.org/2000/svg">
<g clip-path="url(#clip0_221_598)">
<path d="M196 0H60C26.8629 0 0 26.8629 0 60V196C0 229.137 26.8629 256 60 256H196C229.137 256 256 229.137 256 196V60C256 26.8629 229.137 0 196 0Z" fill="#F4F2ED"/>
<path d="M50.727 132.674C50.727 139.006 50.3313 140.984 49.1442 142.171C47.5613 143.358 45.9785 144.15 44 144.15L44.3957 147.711C47.1656 147.711 50.3313 146.524 52.3098 144.941C53.4969 143.358 54.2883 141.776 55.0797 139.797C55.4754 137.818 55.8711 136.236 55.4754 134.257V110.911H50.727V132.674Z" fill="#4E4E4E"/>
<path d="M85.9449 129.904C85.9449 132.674 85.9449 135.048 86.3406 137.027H81.9878L81.5921 132.674C80.8007 134.257 79.6136 135.444 78.0308 136.236C76.448 137.027 74.8652 137.423 73.2824 137.423C69.3253 137.423 64.1812 135.048 64.1812 126.343V111.306H68.9296V125.552C68.9296 130.3 70.5124 133.861 74.8652 133.861C75.6566 133.861 76.448 133.861 77.2394 133.466C78.0308 133.07 78.8222 132.674 79.2179 131.883C80.0093 131.091 80.405 130.696 80.8007 129.904C81.1964 129.113 81.1964 128.322 81.1964 127.53V111.702H85.9449V129.904Z" fill="#4E4E4E"/>
<path d="M94.6501 119.616C94.6501 116.45 94.6501 113.681 94.2544 111.306H98.6071L99.0028 115.659C99.7943 114.076 101.377 112.889 102.96 111.702C104.543 110.911 106.521 110.515 108.104 110.515C114.435 110.515 119.184 115.659 119.184 123.573C119.184 132.674 113.644 137.423 107.313 137.423C105.73 137.423 104.147 137.027 102.96 136.631C101.377 135.84 100.19 135.048 99.3986 133.466V147.711H94.6501V119.616ZM99.3986 126.739C99.3986 127.53 99.3985 127.926 99.7943 128.717C100.19 130.3 100.981 131.487 102.564 132.674C103.751 133.466 105.334 134.257 106.917 134.257C112.061 134.257 114.831 130.3 114.831 124.365C114.831 119.22 112.061 114.868 107.313 114.868C105.334 114.868 103.356 116.055 102.168 117.242C100.981 118.429 100.19 120.407 99.7943 122.386V126.739H99.3986Z" fill="#4E4E4E"/>
<path d="M127.493 111.306L133.033 126.343C133.825 127.926 134.22 129.904 134.616 131.487C135.012 129.904 135.803 127.926 136.199 125.947L141.343 110.911H146.487L139.76 129.509C136.199 138.214 134.22 142.963 130.659 145.733C129.076 147.315 127.098 148.107 124.724 148.898L123.536 144.941C125.119 144.545 126.306 143.754 127.493 142.567C129.076 140.984 130.659 139.401 131.451 137.423C131.451 137.027 131.846 136.631 131.846 136.236C131.846 135.84 131.846 135.444 131.451 135.049L121.954 111.306H127.493Z" fill="#4E4E4E"/>
<path d="M159.15 103.788V111.306H165.877V114.868H159.15V128.717C159.15 131.883 159.942 133.861 162.712 133.861C163.503 133.861 164.69 133.861 165.482 133.466L165.877 137.027C164.294 137.423 163.107 137.818 161.525 137.423C160.733 137.423 159.546 137.423 158.755 137.027C157.963 136.631 157.172 136.236 156.38 135.444C154.798 133.466 154.402 131.091 154.402 128.717V114.472H150.445V110.911H154.402V104.579L159.15 103.788Z" fill="#4E4E4E"/>
<path d="M174.582 125.156C174.582 126.343 174.582 127.53 174.978 128.717C175.374 129.904 176.165 130.696 176.957 131.883C177.748 132.674 178.935 133.466 180.122 133.861C181.309 134.257 182.497 134.257 183.684 134.257C186.058 134.257 188.432 133.861 190.806 133.07L191.598 136.631C188.828 137.818 186.058 138.214 182.892 138.214C181.309 138.214 179.331 138.214 177.748 137.423C176.165 136.631 174.582 135.84 173.395 134.653C172.208 133.466 171.417 131.883 170.625 130.3C170.23 128.717 169.834 127.134 169.834 125.156C169.834 117.242 174.582 111.306 182.101 111.306C190.411 111.306 192.785 118.825 192.785 123.573C192.785 124.364 192.785 125.156 192.785 125.947L174.582 125.156ZM188.432 121.595C188.432 120.803 188.432 119.616 188.036 118.825C187.641 118.033 187.245 117.242 186.849 116.45C186.058 115.659 185.266 115.263 184.475 114.868C183.684 114.472 182.497 114.076 181.705 114.076C179.727 114.076 178.144 115.263 176.561 116.45C175.374 118.033 174.582 119.616 174.582 121.595H188.432Z" fill="#4E4E4E"/>
<path d="M199.907 119.22C199.907 116.055 199.907 113.681 199.512 111.306H203.864V116.45H204.26C204.656 114.868 205.447 113.681 207.03 112.493C208.217 111.306 209.8 110.911 211.383 110.911C211.779 110.911 212.174 110.911 212.57 110.911V115.263C212.174 115.263 211.383 115.263 210.987 115.263C209.404 115.263 207.822 116.055 206.634 117.242C205.447 118.429 204.656 120.012 204.656 121.595C204.656 122.386 204.26 123.177 204.26 123.969V137.818H199.907V119.22Z" fill="#4E4E4E"/>
<path d="M197.929 40.4754C197.929 42.8496 197.533 45.2238 196.346 47.2023C195.159 49.1809 193.18 50.7637 191.202 51.9508C189.223 53.1379 186.849 53.5336 184.475 53.1379C182.101 52.7422 180.122 51.9508 178.144 50.368C176.165 48.7852 174.978 46.4109 174.582 44.0367C174.186 41.6625 174.186 39.2883 174.978 36.9141C175.769 34.5398 177.352 32.5613 179.331 31.3742C181.309 29.7914 183.683 29 186.058 29C187.64 29 189.223 29 190.806 29.7914C192.389 30.1871 193.576 30.9785 194.763 32.1656C195.95 33.3527 196.742 34.5398 197.533 35.727C198.324 36.9141 197.929 38.8926 197.929 40.4754Z" fill="#767677"/>
<path d="M128.285 178.576C96.6284 178.576 68.5334 167.1 54.2881 150.481C59.8279 165.518 70.1163 178.576 83.1745 187.677C96.2327 196.778 112.061 201.922 128.285 201.922C144.509 201.922 159.941 197.174 173.395 187.677C186.453 178.576 196.742 165.518 202.281 150.481C188.036 167.1 160.337 178.576 128.285 178.576Z" fill="#F37726"/>
<path d="M128.285 69.3618C159.941 69.3618 188.036 80.8371 202.281 97.4567C196.742 82.42 186.453 69.3617 173.395 60.2606C160.337 50.7637 144.509 46.0153 128.285 46.0153C112.061 46.0153 96.6284 50.7637 83.1745 60.2606C70.1163 69.3617 59.8279 82.42 54.2881 97.4567C68.9291 80.4414 96.6284 69.3618 128.285 69.3618Z" fill="#F37726"/>
<path d="M84.7576 211.419C84.7576 214.585 84.3619 217.355 82.7791 220.125C81.1963 222.499 78.8221 224.477 76.0521 225.665C73.2822 226.852 70.5123 227.247 67.3467 226.852C64.5767 226.456 61.8068 225.269 59.4326 223.29C57.0583 221.312 55.4755 218.542 55.0798 215.772C54.2884 213.002 54.6841 209.836 55.4755 207.066C56.6626 204.297 58.2455 201.922 60.6197 199.944C62.9939 198.361 65.7638 197.174 68.9295 197.174C70.908 197.174 72.8865 197.174 74.865 197.965C76.8436 198.757 78.4264 199.548 80.0092 201.131C81.592 202.714 82.7791 203.901 83.5705 205.879C83.9662 207.462 84.3619 209.441 84.7576 211.419Z" fill="#9E9E9E"/>
<path d="M57.8491 65.4039C56.2663 65.4039 54.2879 65.0082 53.1008 64.2168C51.5181 63.4255 50.3311 61.8427 49.9354 60.26C49.144 58.6773 48.7483 57.0945 49.144 55.5118C49.5397 53.9291 50.3311 52.3463 51.5181 51.1593C52.7052 49.9722 54.2879 49.1809 55.8706 48.7852C57.4534 47.9938 59.0361 47.9938 60.6188 48.7852C62.2016 49.5765 63.7843 50.3679 64.5757 51.9506C65.7627 53.1377 66.1584 55.1161 66.1584 56.6988C66.1584 59.0729 65.3671 61.447 63.7843 63.0298C62.5973 64.2168 60.2232 65.4039 57.8491 65.4039Z" fill="#616262"/>
</g>
<defs>
<clipPath id="clip0_221_598">
<rect width="256" height="256" fill="white"/>
</clipPath>
</defs>
</svg>
