<svg xmlns="http://www.w3.org/2000/svg" width="256" height="256" viewBox="0 0 256 256">
<rect width="256" height="256" rx="60" fill="#F7F7F7"/>
<polygon fill="#242938" points="116.832 ,169.45066666666665 130.704 ,154.92266666666666 144.57066666666665 ,169.45066666666665 144.57066666666665 ,229.33333333333334 116.832 ,229.33333333333334"></polygon>
<polygon fill="#FB015B" points="94.59733333333332 ,154.976 114.35733333333333 ,151.376 117.04 ,171.28 81.84 ,219.72799999999998 59.40266666666667 ,203.41866666666667"></polygon>
<polygon fill="#D63AFF" points="85.13066666666667 ,130.18133333333333 103.22666666666667 ,138.88533333333334 93.70133333333332 ,156.56533333333334 36.74666666666666 ,175.0666666666667 28.176000000000002 ,148.68800000000002"></polygon>
<polygon fill="#00B9F1" points="92.032 ,104.57066666666667 101.55733333333335 ,122.25066666666667 83.46133333333333 ,130.95466666666667 26.506666666666664 ,112.448 35.077333333333335 ,86.06400000000001 "></polygon>
<polygon fill="#00F2E6" points="112.67200000000001 ,87.904 109.98933333333333 ,107.80799999999999 90.22933333333333 ,104.20800000000001 55.029333333333334 ,55.76 77.472 ,39.455999999999996"></polygon>
<polygon fill="#242938" points="139.168 ,86.54933333333334 125.29599999999999 ,101.07733333333334 111.42933333333333 ,86.54933333333334 111.42933333333333 ,26.666666666666668 139.168 ,26.666666666666668 "></polygon>
<polygon fill="#FB015B" points="161.39733333333334 ,101.02933333333334 141.64266666666666 ,104.62933333333332 138.96 ,84.72533333333332 174.15466666666669 ,36.27733333333333 196.59733333333335 ,52.58133333333333"></polygon>
<polygon fill="#D63AFF" points="170.87466666666668 ,125.81333333333333 152.77333333333334 ,117.10933333333332 162.29866666666666 ,99.42933333333333 219.25333333333333 ,80.928 227.82399999999998 ,107.30666666666667"></polygon>
<polygon fill="#00B9F1" points="163.968 ,151.42933333333335 154.44266666666667 ,133.74933333333334 172.53866666666667 ,125.05066666666666 229.49333333333334 ,143.552 220.9226666666667 ,169.936"></polygon>
<polygon fill="#00F2E6" points="143.328 ,168.096 146.016 ,148.192 165.77066666666667 ,151.792 200.9706666666667 ,200.24 
178.528 ,216.54399999999998"></polygon>
</svg>