<svg xmlns="http://www.w3.org/2000/svg" width="257" height="256" viewBox="0 0 32 32"><path d="m.85064.33893c-.68445.022529-.89401.56436-.84345.97214.056812.45861.34593.67626.92457.75695 3.0669.33729 6.7851 1.1526 9.0714 1.7556-3.1969-.45322-6.1005.088932-9.022.65732-.60032.13029-.85651.58321-.81695 1.0084.061128.49391.51118.8447 1.0051.78357.00637-.000807.012664-.0017.019019-.0027 2.242-.28925 6.1135-.83745 9.4626-.57208-3.8533.47142-7.057 1.9003-8.9101 2.82-.40546.17221-.64763.59234-.59361 1.0296.20793.77595.89414.79657 1.5305.53606 3.6272-1.4843 7.1813-2.0256 9.6157-2.3921l.3465.74901c-.0076.0043-.01557.0085-.02318.01285v-.000125c-2.3397 1.6673-3.2609 4.2383-2.8012 6.5788.48184 2.4538 2.3708 4.6245 5.2629 5.1083.74088.12108 1.5767.19397 2.5281.23175 4.9112-.20098 7.617 4.0913 9.1507 7.8595.1797.49104.33524.96732.44159 1.3578.1053.3864.15719.74488.15731.78932.000375.21666.02483.42759.09106.62644.03073.09246.0846.21843.17672.33667.1073.13763.32011.32017.63744.32017.24888 0 .41371-.09122.55469-.2373.10226-.10597.16031-.22968.1849-.29535.05471-.14629.06674-.28263.07469-.39184.01695-.23628.0039-.50239-.02494-.80588-.05882-.60933-.19005-1.3757-.38088-2.1416-.46807-1.8787-1.5347-4.2869-2.8509-5.8866 2.104.60556 4.0087 2.8929 4.5398 4.4542.04941.14526.1283.3168.265.46363.05722.06133.20306.19156.39738.24283.151.03987.27054.02347.38919-.0079.11869-.03166.23587-.07883.34763-.19044.25879-.25879.24489-.6552.24019-.72576-.0093-.15611-.04064-.30442-.08011-.45544-.08014-.30625-.20433-.65632-.35871-1.0294-.30853-.74545-.72126-1.5638-1.1425-2.1362-1.5296-2.0778-4.6323-3.6859-8.1157-4.4018-.84382-.17341-2.6893-.45809-4.2639-.45809.04742 0-.11377-.0039-.27596-.0165-.16222-.01192-.37262-.03397-.5989-.05252-.45254-.03709-.95976-.0787-1.2281-.10215-2.5241-.22041-3.607-2.0677-3.5104-3.894.09657-1.8261 1.3737-3.5767 3.9602-3.5767.77676 0 1.197.03133 1.8931.23175.6937.19968 1.6646.58604 3.3475 1.2998.72982.30961 1.1416.51444 1.2889.6154.18485.12676.07411-.01801.13515.18767.05073.17078.03741.64245.42232 1.0018.24028.22442.50992.30691.82514.44159.3117.13319.6367.26897.80038.35884.69013.40419.96132.58138 1.551 1.3523.1592.20945.47381.21075.63476.0026.61926-.7992.7162-.72176 1.5068-.98526.41123-.13363.34738-.73413-.08275-.77826-.46126-.05153-1.1035-.3521-1.4738-.63201-.09657-.07312-.10185-.09041-.15178-.14623.12717-.16562.10563-.40127-.04962-.54096-.27587-.24736-.47471-.62776-.64032-.99632-.03947-.08783-.07826-.16695-.11587-.25115-.000437-.0027-.0026-.0027-.0026-.0053-.02172-.0673-.04795-.12631-.07179-.17381-.0093-.01934-.02543-.03886-.0359-.05806-.0066-.01192-.01067-.02662-.01663-.03867-.03722-.0706-.08061-.1423-.1296-.20971-.000437-.0011-.0026-.0014-.0026-.0028l-.0026-.0053c-.01324-.02609-.02357-.05244-.03867-.07721-.04782-.07869-.10793-.16383-.18225-.25933-.08412-.10225-.18376-.1922-.27042-.29258-1.4893-1.9568-3.3698-3.6423-5.4343-4.8901-.17287-.10385-.32415-.18895-.48302-.25115-.05987-.023445-.18515-.070057-.3339-.074563-.07007-.00265-.23024.0092-.3781.091064-.20343.11326-.29947.25096-.34498.46917-.0066.03219.004.06085.0026.09384-.0027.0106-.01531.01805-.0165.02758-.008.06067.0092.07102.01927.10203.01643.10942.04133.19752.0359.1849l.0026.0028c.02371.05351.05671.10474.06625.11865.0302.04385.06145.07952.07456.09384h.0026c.03841.04212.07507.08024.116.11865.08412.07855.1916.17284.32282.28427l.0081.0053.0052.0053c1.4355 1.0964 2.974 2.4523 4.0294 3.5767-1.7951-1.2641-3.3925-1.786-4.7527-2.0805-.39774-.10657-.82157-.18465-1.2571-.23326l.001-.00025c-1.2916-.19492-3.5722-.14438-3.7905-3.2515l.0029-1.4164c.0005-.14954-.09083-.28418-.22999-.33906l-1.2253-.48367c-4.4643-1.4695-7.7895-1.836-11.115-1.872z" fill="#fff" stroke-width=".065038"/></svg>