<svg width="256" height="256" viewBox="0 0 256 256" fill="none" xmlns="http://www.w3.org/2000/svg">
<g clip-path="url(#clip0_10_388)">
<path d="M196 0H60C26.8629 0 0 26.8629 0 60V196C0 229.137 26.8629 256 60 256H196C229.137 256 256 229.137 256 196V60C256 26.8629 229.137 0 196 0Z" fill="#242938"/>
<path d="M166.112 203.383L171.737 195.172C172.599 193.858 173.995 192.544 177.649 192.503V191.271H167.878V192.503C169.52 192.544 170.423 193.447 170.423 194.392C170.423 194.802 170.341 194.884 170.054 195.336L165.373 202.233L160.118 194.351C160.036 194.227 159.831 193.899 159.831 193.735C159.831 193.242 160.734 192.544 162.458 192.503V191.271C161.063 191.395 158.066 191.395 156.506 191.395C155.233 191.395 152.687 191.354 151.168 191.271V192.503H151.948C154.206 192.503 154.986 192.79 155.767 193.94L163.279 205.312L156.588 215.206C156.013 216.027 154.781 217.916 150.676 217.916V219.189H160.447V217.916C158.558 217.875 157.86 216.766 157.86 216.027C157.86 215.658 157.983 215.494 158.271 215.042L164.06 206.462L170.546 216.233C170.628 216.397 170.751 216.561 170.751 216.684C170.751 217.177 169.848 217.875 168.083 217.916V219.189C169.52 219.065 172.517 219.065 174.036 219.065C175.76 219.065 177.649 219.106 179.373 219.189V217.916H178.593C176.458 217.916 175.596 217.711 174.734 216.438L166.112 203.383ZM153.755 217.875H152.728C151.702 224.156 150.758 227.153 143.737 227.153H138.318C136.389 227.153 136.307 226.866 136.307 225.511V214.59H139.96C143.943 214.59 144.394 215.904 144.394 219.394H145.421V208.555H144.394C144.394 212.045 143.943 213.318 139.96 213.318H136.307V203.506C136.307 202.151 136.389 201.864 138.318 201.864H143.573C149.855 201.864 150.922 204.122 151.579 209.828H152.605L151.456 200.632H128.465V201.864H129.409C132.571 201.864 132.653 202.315 132.653 203.793V225.224C132.653 226.702 132.571 227.153 129.409 227.153H128.465V228.426H152.031L153.755 217.875ZM131.749 191.518H106.747L106.008 200.714H106.993C107.568 194.104 108.184 192.749 114.383 192.749C115.122 192.749 116.19 192.749 116.6 192.832C117.462 192.996 117.462 193.447 117.462 194.392V215.945C117.462 217.341 117.462 217.916 113.152 217.916H111.509V219.189C113.193 219.065 117.339 219.065 119.228 219.065C121.116 219.065 125.345 219.065 127.028 219.189V217.916H125.386C121.075 217.916 121.075 217.341 121.075 215.945V194.392C121.075 193.57 121.075 192.996 121.814 192.831C122.266 192.749 123.374 192.749 124.154 192.749C130.313 192.749 130.928 194.104 131.503 200.714H132.53L131.749 191.518ZM98.8647 191.23C98.7004 190.738 98.6183 190.573 98.0846 190.573C97.5509 190.573 97.4278 190.738 97.2636 191.23L90.6537 207.981C90.3663 208.679 89.8737 209.951 87.3283 209.951V210.978H93.6918V209.951C92.4191 209.951 91.639 209.377 91.639 208.555C91.639 208.35 91.6801 208.268 91.7622 207.981L93.1581 204.45H101.287L102.929 208.638C103.011 208.802 103.093 209.007 103.093 209.13C103.093 209.951 101.533 209.951 100.753 209.951V210.978H108.841V209.951H108.266C106.337 209.951 106.131 209.664 105.844 208.843L98.8647 191.23ZM97.2225 194.145L100.876 203.424H93.5686L97.2225 194.145ZM99.5626 208.638H98.5362C98.1257 212.825 97.5509 217.916 90.3253 217.916H86.9999C85.0703 217.916 84.9882 217.629 84.9882 216.274V194.474C84.9882 193.078 84.9882 192.503 88.8473 192.503H90.2021V191.271C88.7242 191.395 85.0292 191.395 83.346 191.395C81.7449 191.395 78.5426 191.395 77.1467 191.271V192.503H78.091C81.2522 192.503 81.3343 192.955 81.3343 194.433V215.986C81.3343 217.464 81.2522 217.916 78.091 217.916H77.1467V219.189H98.4541L99.5626 208.638Z" fill="white"/>
<path d="M46.4349 29.382C48.3618 32.8535 50.366 35.8422 52.4567 38.4147L52.482 38.44C52.4892 38.4491 52.5 38.4563 52.5073 38.4653C51.5443 38.3247 50.5522 38.2267 49.5218 38.2375C47.4863 38.2589 45.3005 38.6087 42.9434 39.3508C46.9916 42.7408 50.4386 45.2191 53.4685 47.1437C53.3945 47.1193 53.3147 47.0918 53.2408 47.0678L53.4685 47.1944C48.7743 45.7252 43.7102 45.5455 37.7818 48.3583C42.0387 51.0221 45.6111 52.9657 48.7631 54.4307C48.6709 54.417 48.5769 54.393 48.4848 54.3801L48.7126 54.5066C43.8003 53.6606 38.7024 54.1362 33.1518 57.7958C36.7708 59.4084 39.9148 60.6257 42.7158 61.5658H42.7411L42.9183 61.667C38.2341 61.8491 33.5919 63.3075 29.053 67.6128C33.0181 68.5964 36.4128 69.2532 39.4014 69.6876C39.3175 69.7045 39.2323 69.7202 39.1484 69.7381C39.0318 69.7361 38.9104 69.7402 38.7942 69.7381L38.9207 69.7887C35.4289 70.5816 32.0241 72.3323 28.6993 75.6841C31.3933 76.2662 33.8174 76.7183 36.0367 77.0504C33.3045 78.3711 30.7093 80.4177 28.3451 83.5529C31.4495 83.794 34.1998 83.897 36.6693 83.9072C33.6815 85.2896 30.8661 87.4602 28.3704 90.9664C32.8044 91.188 36.5107 91.1784 39.7052 90.9917C39.6454 91.0162 39.5877 91.0426 39.5281 91.0676C39.3339 91.085 39.139 91.0973 38.9461 91.1181L39.2244 91.2193C35.9032 92.6775 32.8293 95.0404 30.1918 99.0375C35.7023 99.1179 40.0673 98.8578 43.7279 98.405C43.6164 98.4352 43.5101 98.4743 43.3989 98.5061C43.2577 98.5143 43.1084 98.5211 42.9688 98.5314L43.1459 98.582C38.8288 99.8681 34.8424 102.345 31.5328 107.362C35.9842 107.427 39.701 107.258 42.893 106.957C42.8237 106.995 42.7595 107.045 42.6905 107.083C38.8768 109.211 35.5982 112.407 33.4301 117.812C37.345 117.07 40.6265 116.288 43.4749 115.459C43.4277 115.496 43.37 115.522 43.3231 115.56L43.5002 115.535C40.5681 117.723 38.1032 120.788 36.441 125.326C39.1364 124.731 41.5445 124.104 43.7026 123.479C41.7654 125.821 40.2691 128.745 39.4267 132.588C42.3536 131.51 44.8923 130.473 47.1437 129.45C47.1165 129.482 47.0948 129.519 47.0678 129.552C47.0218 129.588 46.9607 129.616 46.916 129.653L46.9919 129.627C44.9266 132.102 43.3507 135.215 42.5641 139.343C46.6849 137.696 50.0368 136.114 52.8618 134.612C52.7819 134.689 52.6839 134.762 52.6087 134.84L52.6846 134.814C50.1861 137.555 48.3208 141.075 47.5737 145.922C52.4378 143.774 56.1856 141.778 59.263 139.9C59.2305 139.933 59.194 139.968 59.1619 140.001L59.3643 139.9C55.8702 142.892 53.1897 146.863 52.2546 152.93C58.8101 150.036 63.3954 147.415 66.9549 144.985C65.4262 148.077 64.6185 151.679 65.0067 156.194C71.3425 151.333 75.3541 147.414 78.3407 143.948C78.3356 143.998 78.3447 144.05 78.3407 144.1C78.1595 146.297 78.2965 148.678 78.9479 151.311C82.7042 144.857 86.4609 142.182 90.2827 139.976C85.5028 143.074 86.361 145.585 86.361 148.452C92.0449 142.466 99.952 136.109 102.377 132.133C99.1353 137.001 97.8409 141.624 96.9876 145.694C80.4019 154.466 70.28 156.762 58.9594 160.267C63.351 161.878 68.0648 163.443 66.1198 165.682L60.9329 170.869C64.2493 169.838 67.6368 168.351 70.5729 170.363C70.2847 173.083 66.8537 174.47 63.9185 176.056C69.086 174.194 70.2009 174.632 71.5596 175.069C72.2384 178.328 69.881 180.076 68.3463 182.229C81.3624 172.332 98.3361 164.519 110.297 161.254C127.12 155.589 148.827 149.683 154.727 135.32L160.622 111.637C167.538 104.152 173.899 96.4025 176.916 86.9683C196.175 83.2424 211.755 84.5779 228 84.9948C226.519 84.7481 178.408 76.5947 178.408 76.5947C164.345 57.3526 143.365 70.4395 136.458 89.4482C134.715 94.2458 124.767 94.2353 121.885 89.4229C110.489 64.8882 75.8853 38.9421 46.4349 29.382Z" fill="black"/>
<path d="M46.0997 28.0001C48.0402 31.4959 50.0577 34.4787 52.1641 37.0636C51.201 36.9231 50.2088 36.8404 49.1783 36.8513C47.1429 36.8727 44.9669 37.2106 42.6097 37.9528C46.7231 41.3974 50.1995 43.9112 53.2659 45.8485C48.5287 44.3354 43.4274 44.1199 37.435 46.9632C41.812 49.7022 45.4861 51.6817 48.7017 53.1604C43.6886 52.2364 38.4904 52.6574 32.8169 56.3983C36.5628 58.0675 39.8021 59.3207 42.6766 60.2732C37.9582 60.4382 33.2879 61.8954 28.7169 66.2315C32.6819 67.2151 36.079 67.8673 39.0673 68.3017C35.4099 69.0406 31.8222 70.795 28.3451 74.2997C31.0391 74.8818 33.4641 75.3211 35.6834 75.6533C32.9512 76.9739 30.3643 79.0206 28 82.1557C31.1044 82.3967 33.851 82.5038 36.3204 82.514C33.3325 83.8964 30.5356 86.0809 28.0398 89.587C32.4738 89.8086 36.1776 89.787 39.3726 89.6002C35.8614 91.0356 32.6253 93.4611 29.8579 97.6552C35.3684 97.7357 39.7327 97.4711 43.393 97.0182C38.8499 98.2517 34.6445 100.732 31.1846 105.976C35.636 106.04 39.3516 105.879 42.5438 105.577C38.6412 107.704 35.2894 110.93 33.0823 116.433C37.1 115.672 40.4673 114.857 43.3667 114.004C40.3465 116.202 37.8079 119.289 36.1079 123.93C38.8032 123.335 41.1953 122.711 43.3534 122.086C41.4161 124.428 39.9228 127.36 39.0804 131.202C42.0073 130.125 44.539 129.08 46.7904 128.057C44.6514 130.56 43.0177 133.729 42.2122 137.957C46.333 136.309 49.6847 134.735 52.5098 133.233C49.92 136.001 47.9933 139.563 47.2283 144.526C52.2454 142.311 56.0946 140.259 59.2245 138.329C55.63 141.341 52.8661 145.347 51.9126 151.533C58.4683 148.639 63.0432 146.014 66.6027 143.584C65.0741 146.676 64.2639 150.296 64.652 154.81C70.9878 149.949 75.0014 146.014 77.988 142.549C77.7866 144.787 77.9455 147.221 78.6118 149.914C83.1603 142.099 87.6804 139.817 92.3582 137.209C84.9075 140.96 86.012 143.784 86.012 147.061C91.6959 141.075 99.6223 134.728 102.047 130.752C98.8056 135.62 97.4861 140.23 96.633 144.3C80.0473 153.071 69.9488 155.364 58.6272 158.87C63.0187 160.481 67.7248 162.058 65.7798 164.298L60.5912 169.473C63.9076 168.442 67.2892 166.971 70.2253 168.982C69.9371 171.702 66.4987 173.076 63.5636 174.662C68.731 172.8 69.8485 173.23 71.2072 173.666C71.886 176.926 69.5304 178.679 67.9959 180.832C81.0119 170.936 97.9958 163.117 109.956 159.852C126.78 154.186 148.472 148.298 154.371 133.936L160.29 110.248C167.206 102.763 173.568 95.0005 176.586 85.5663C195.844 81.8404 211.417 83.1855 227.663 83.6023C226.182 83.3556 178.059 75.2022 178.059 75.2022C163.996 55.9601 143.032 69.0393 136.125 88.0476C134.382 92.8452 124.436 92.8467 121.555 88.0344C110.159 63.4997 75.5501 37.5602 46.0997 28.0001Z" fill="#008080"/>
<path d="M159.722 78.2136L159.596 78.416C159.096 79.3458 158.252 79.9805 157.065 80.3643C155.878 80.7481 154.358 80.871 152.587 80.7944L151.474 80.7438L152.283 81.5282C152.694 81.9235 152.809 82.2391 152.815 82.5149C152.821 82.7908 152.702 83.0886 152.435 83.4258C151.902 84.1002 150.843 84.8325 149.854 85.5765L149.525 85.8042L149.753 86.1331C150.578 87.3979 150.955 88.3714 151.044 89.1187C151.132 89.866 150.958 90.402 150.613 90.8644C149.924 91.7895 148.409 92.4163 147.046 93.1921L146.793 93.3187L146.844 93.6223C146.961 94.3337 146.769 94.915 146.262 95.4946C145.754 96.0742 144.9 96.6269 143.757 97.114L143.453 97.2405L143.504 97.5694C143.732 99.0926 144.19 100.418 145.148 101.263C146.025 102.037 147.352 102.241 149.045 101.896C149.34 103.52 149.763 104.996 150.74 105.97C151.731 106.956 153.299 107.248 155.395 106.703C155.867 107.84 156.557 108.651 157.344 109.183C158.208 109.767 159.337 110.003 160.265 110.291L160.816 109.699C159.894 109.413 158.533 108.97 157.799 108.474C157.065 107.978 156.469 107.298 156.053 106.121L155.927 105.717L155.522 105.843C153.366 106.506 152.17 106.207 151.347 105.388C150.524 104.568 150.061 103.086 149.779 101.365L149.703 100.909L149.247 101.036C147.47 101.499 146.421 101.262 145.705 100.631C145.036 100.041 144.64 98.9955 144.415 97.6959C145.444 97.2199 146.327 96.6993 146.894 96.0513C147.449 95.4183 147.689 94.6368 147.653 93.8248C148.909 93.1339 150.424 92.5402 151.297 91.3705C151.753 90.759 151.99 89.9551 151.879 89.0175C151.778 88.1644 151.36 87.1787 150.639 86.0065C151.524 85.3546 152.485 84.7013 153.093 83.9318C153.431 83.504 153.686 83.0306 153.675 82.4897C153.669 82.1914 153.382 81.9196 153.22 81.6294C154.759 81.6495 156.161 81.5481 157.318 81.174C158.538 80.7797 159.496 80.0612 160.127 79.0739C161.949 79.0831 163.835 79.4838 165.744 79.7318C167.704 79.9866 169.7 80.0549 171.589 79.2258L171.234 78.4415C169.563 79.1751 167.778 79.1446 165.87 78.8969C163.963 78.649 161.976 78.1992 159.975 78.2137L159.722 78.2136Z" fill="white"/>
<path d="M166.803 77.8987C166.803 79.8843 165.193 81.4939 163.207 81.4939C161.222 81.4939 159.612 79.8843 159.612 77.8987C159.612 75.9133 161.222 74.3036 163.207 74.3036C165.193 74.3036 166.803 75.9132 166.803 77.8987Z" fill="white" stroke="white" stroke-width="0.915699"/>
<path d="M177.54 74.526C174.312 78.7248 173.501 77.6404 171.536 78.3442L171.207 78.4707L171.258 78.8249C172.014 83.0423 174.513 84.3823 176.464 85.9153L176.573 85.5742L177.092 85.4753C175.137 83.9386 172.997 82.637 172.219 79.0527C173.65 78.7141 175.015 79.147 178.064 75.1815L177.54 74.526Z" fill="white"/>
<path d="M53.2614 45.8387C59.3603 49.6204 69.3981 53.5201 75.8447 57.5941C79.3911 59.8522 82.5765 62.1022 85.0545 64.0459C87.5326 65.9897 89.365 67.9979 90.039 68.6508C90.713 69.3037 91.1705 68.9953 90.7221 68.1448C90.2737 67.2944 88.0664 65.3284 85.5606 63.3628C83.0549 61.3972 79.8676 59.1571 76.3001 56.8856C69.1653 52.3426 60.7909 48.281 53.2614 45.8387Z" fill="white"/>
<path d="M52.1643 37.0617C54.721 37.6521 58.4945 39.8327 62.6905 42.1657C66.8867 44.4986 71.46 47.3695 75.6446 50.161C79.8295 52.9524 83.0561 55.3955 85.6354 57.3636C88.0848 59.4597 89.2942 60.817 89.7629 60.8129C89.8272 60.8258 89.8905 60.8269 89.9907 60.8129C90.0908 60.799 90.2598 60.7218 90.3449 60.5599C90.4299 60.3981 90.397 60.2622 90.3702 60.1804C90.3433 60.0986 90.3289 60.0553 90.2943 60.0033C90.1559 59.7954 89.9447 59.6008 89.6364 59.3202C89.0199 58.7589 88.0012 57.9335 86.7015 56.9418C84.1018 54.9582 80.3242 52.2532 76.1255 49.4524C71.9266 46.6517 67.321 43.756 63.0952 41.4066C61.5931 40.8499 54.227 36.9542 52.1643 37.0617Z" fill="white"/>
<path d="M48.6698 53.1628C56.4977 56.358 67.6336 60.111 75.0665 64.7831C79.0603 67.3192 82.5389 69.8455 85.1366 71.9182C86.4355 72.9544 87.5203 73.886 88.3246 74.6254C89.129 75.3649 89.5826 76.0362 89.8427 76.2195C90.3871 76.603 90.8039 76.3482 90.5512 75.7387C90.3604 75.2785 89.7307 74.7506 88.9065 73.9929C88.0824 73.2352 86.9793 72.3065 85.6679 71.2602C83.0453 69.1678 79.5438 66.6031 75.522 64.0491C67.4784 58.9415 57.8622 54.4513 48.6698 53.1628Z" fill="white"/>
<path d="M42.6458 60.2636C48.7465 60.2677 61.3485 65.8518 66.6604 68.6503C75.273 73.2436 83.1049 79.1481 87.4334 83.2744C87.9134 83.7321 88.6145 83.3282 88.066 82.6926C84.0455 78.0338 75.7418 72.5436 67.0654 67.9161C58.389 63.2888 49.4052 60.2568 42.6458 60.2636Z" fill="white"/>
<path d="M39.1209 68.2988C48.2925 69.6408 59.2865 73.3428 67.2964 77.3542C71.7664 79.6238 75.7523 82.0547 78.809 84.211C81.8654 86.3672 84.1221 88.7949 84.679 89.4231C85.2359 90.0513 85.8992 90.0774 85.3874 88.9676C84.8756 87.8578 82.3863 85.6872 79.2897 83.5025C76.1931 81.3178 72.1812 78.8824 67.6765 76.5951C58.6666 72.0204 48.4057 68.4216 39.1209 68.2988Z" fill="white"/>
<path d="M42.1481 75.1253C39.8698 74.9265 37.8189 75.3937 35.7294 75.6549C43.8787 74.8912 55.2742 78.6335 62.8707 82.1339C71.819 86.329 79.2492 92.0884 82.8087 95.7463C83.3659 96.3189 83.7597 95.5892 83.4666 95.2149C80.1523 90.9836 72.2598 85.585 63.2249 81.3496C56.4491 78.1731 48.9837 75.7218 42.1481 75.1253Z" fill="white"/>
<path d="M36.3578 82.4698C44.3774 83.0643 55.1143 84.9845 62.6357 88.4371C70.2 91.9751 75.9402 96.5625 78.8282 99.1655C79.2727 99.5659 80.0586 99.2822 79.4355 98.5582C76.7997 95.4956 70.671 91.2596 63.0143 87.6785C55.3581 84.0975 46.0581 81.8035 36.3578 82.4698Z" fill="white"/>
<path d="M43.5601 89.144C41.8681 89.0867 41.0744 89.4034 39.4421 89.5796C44.8851 89.8195 53.5349 91.2671 58.3114 92.8886C64.5099 95.0392 69.6066 98.2785 72.5058 100.808C73.0656 101.297 73.4829 100.641 73.1131 100.226C70.3979 97.1793 64.8796 94.2612 58.5895 92.079C53.8722 90.4424 48.6362 89.3157 43.5601 89.144Z" fill="white"/>
<path d="M43.3264 97.0372C54.9619 97.8224 61.9977 99.8725 67.3908 104.704C67.7949 105.066 68.4329 104.567 67.9981 104.096C62.4635 98.1001 51.567 96.4292 43.3264 97.0372Z" fill="white"/>
<path d="M52.2862 104.026C48.759 103.743 45.8076 104.513 42.593 105.584C52.0003 104.084 55.9118 104.803 63.0389 108.15C63.8514 108.532 63.8038 107.633 63.4438 107.417C59.6576 105.141 55.8133 104.31 52.2862 104.026Z" fill="white"/>
<path d="M51.951 110.578C48.6161 110.874 45.7843 112.019 43.4496 113.918C52.7655 110.328 55.3401 111.042 62.4652 113.062C63.4022 113.327 63.1111 112.425 62.7435 112.277C58.4771 110.567 55.2861 110.283 51.951 110.578Z" fill="white"/>
<path d="M70.409 116.348C65.4386 115.811 59.8391 116.413 54.9244 117.31C50.0101 118.206 45.7835 120.026 43.3976 121.967C51.5686 118.516 53.0577 118.524 55.0768 118.145C59.9184 117.262 64.7177 116.917 70.3592 117.183C70.8707 117.207 70.8438 116.395 70.409 116.348Z" fill="white"/>
<path d="M73.2939 120.371C67.9075 120.168 62.3441 121.501 57.531 122.876C52.7183 124.252 49.1461 126.128 46.7905 128.044C51.5569 125.752 55.9924 124.2 57.7585 123.686C62.504 122.33 67.2911 121.155 73.3447 121.231C73.8149 121.238 74.1187 120.402 73.2939 120.371Z" fill="white"/>
<path d="M77.6925 123.683C72.6194 124.432 67.3004 125.93 62.6631 127.503C58.0262 129.076 54.7257 130.945 52.5726 133.182C58.0879 130.016 61.1211 128.906 62.9159 128.288C67.4958 126.734 71.7724 125.652 77.8438 124.518C78.5724 124.382 77.9878 123.639 77.6925 123.683Z" fill="white"/>
<path d="M80.2728 127.909C70.0991 129.529 63.5062 133.919 59.3159 138.271C65.81 133.378 70.3276 130.749 80.4495 128.743C81.0902 128.616 80.897 127.809 80.2728 127.909Z" fill="white"/>
<path d="M85.2301 131.626C74.9975 133.203 69.0965 139.423 66.6392 143.529C73.1132 137.062 78.1517 133.542 85.4069 132.461C86.1412 132.352 85.9541 131.515 85.2301 131.626Z" fill="white"/>
<path d="M88.3182 134.867C86.7223 135.066 84.5507 136.196 82.4989 137.498C80.447 138.8 78.8989 140.384 77.9757 142.425C80.4473 139.875 81.4367 139.184 82.9543 138.207C84.9242 136.957 86.9094 136.17 88.5206 135.702C89.2759 135.483 88.7052 134.819 88.3182 134.867Z" fill="white"/>
<path d="M166.803 77.8987C166.803 79.8843 165.193 81.4939 163.207 81.4939C161.222 81.4939 159.612 79.8843 159.612 77.8987C159.612 75.9133 161.222 74.3036 163.207 74.3036C165.193 74.3036 166.803 75.9132 166.803 77.8987Z" fill="white" stroke="white" stroke-width="0.915699"/>
<path d="M166.803 77.8987C166.803 79.8843 165.193 81.4939 163.207 81.4939C161.222 81.4939 159.612 79.8843 159.612 77.8987C159.612 75.9133 161.222 74.3036 163.207 74.3036C165.193 74.3036 166.803 75.9132 166.803 77.8987Z" fill="#37C871" stroke="white" stroke-width="0.915699"/>
</g>
<defs>
<clipPath id="clip0_10_388">
<rect width="256" height="256" fill="white"/>
</clipPath>
</defs>
</svg>
