<svg width="256" height="256" viewBox="0 0 256 256" fill="none" xmlns="http://www.w3.org/2000/svg">
<g clip-path="url(#clip0_125_902)">
<path d="M196 0H60C26.8629 0 0 26.8629 0 60V196C0 229.137 26.8629 256 60 256H196C229.137 256 256 229.137 256 196V60C256 26.8629 229.137 0 196 0Z" fill="#F4F2ED"/>
<path d="M46.435 52.3821C48.3618 55.8537 50.3661 58.8424 52.4568 61.4148L52.4821 61.4401C52.4892 61.4492 52.5001 61.4565 52.5074 61.4654C51.5443 61.3249 50.5523 61.2268 49.5218 61.2376C47.4864 61.2591 45.3006 61.6088 42.9434 62.3509C46.9916 65.7409 50.4386 68.2192 53.4686 70.1439C53.3945 70.1195 53.3147 70.0919 53.2408 70.068L53.4686 70.1945C48.7743 68.7253 43.7102 68.5456 37.7819 71.3584C42.0388 74.0222 45.6111 75.9659 48.7632 77.4308C48.6709 77.4171 48.577 77.3931 48.4848 77.3802L48.7126 77.5067C43.8004 76.6608 38.7024 77.1363 33.1519 80.7959C36.7708 82.4086 39.9149 83.6258 42.7158 84.5659H42.7411L42.9183 84.6671C38.2341 84.8492 33.5919 86.3077 29.053 90.6129C33.0181 91.5965 36.4128 92.2533 39.4015 92.6877C39.3175 92.7047 39.2323 92.7203 39.1485 92.7383C39.0318 92.7362 38.9104 92.7403 38.7942 92.7383L38.9207 92.7889C35.429 93.5818 32.0242 95.3325 28.6993 98.6842C31.3933 99.2663 33.8175 99.7185 36.0368 100.051C33.3046 101.371 30.7094 103.418 28.3451 106.553C31.4495 106.794 34.1998 106.897 36.6693 106.907C33.6815 108.29 30.8661 110.46 28.3704 113.967C32.8045 114.188 36.5108 114.179 39.7052 113.992C39.6455 114.016 39.5877 114.043 39.5281 114.068C39.334 114.085 39.1391 114.097 38.9461 114.118L39.2245 114.219C35.9033 115.678 32.8293 118.041 30.1918 122.038C35.7023 122.118 40.0673 121.858 43.7279 121.405C43.6164 121.435 43.5101 121.474 43.399 121.506C43.2577 121.514 43.1084 121.521 42.9689 121.532L43.146 121.582C38.8288 122.868 34.8424 125.346 31.5328 130.362C35.9842 130.427 39.701 130.258 42.893 129.957C42.8237 129.995 42.7596 130.045 42.6906 130.084C38.8768 132.211 35.5983 135.407 33.4301 140.812C37.345 140.07 40.6265 139.288 43.4749 138.459C43.4277 138.496 43.37 138.522 43.3231 138.56L43.5002 138.535C40.5682 140.723 38.1032 143.789 36.4411 148.326C39.1364 147.731 41.5446 147.104 43.7026 146.479C41.7654 148.822 40.2691 151.745 39.4267 155.588C42.3536 154.51 44.8923 153.473 47.1437 152.451C47.1165 152.482 47.0949 152.52 47.0678 152.552C47.0218 152.588 46.9607 152.617 46.9161 152.653L46.9919 152.628C44.9266 155.102 43.3507 158.215 42.5642 162.343C46.6849 160.696 50.0368 159.114 52.8618 157.612C52.7819 157.689 52.6839 157.762 52.6088 157.84L52.6847 157.814C50.1862 160.555 48.3208 164.075 47.5737 168.922C52.4378 166.774 56.1857 164.779 59.2631 162.9C59.2306 162.933 59.194 162.968 59.1619 163.001L59.3643 162.9C55.8702 165.892 53.1897 169.863 52.2546 175.93C58.8102 173.036 63.3954 170.415 66.9549 167.985C65.4263 171.077 64.6186 174.679 65.0067 179.194C71.3426 174.333 75.3541 170.414 78.3407 166.948C78.3356 166.998 78.3448 167.05 78.3407 167.1C78.1596 169.297 78.2965 171.679 78.9479 174.311C82.7042 167.857 86.4609 165.182 90.2828 162.976C85.5028 166.074 86.3611 168.585 86.3611 171.452C92.0449 165.466 99.9521 159.109 102.377 155.133C99.1353 160.001 97.8409 164.624 96.9876 168.694C80.4019 177.466 70.28 179.762 58.9595 183.268C63.3511 184.878 68.0648 186.443 66.1199 188.682L60.9329 193.869C64.2494 192.838 67.6368 191.352 70.5729 193.363C70.2847 196.083 66.8537 197.47 63.9185 199.056C69.086 197.194 70.2009 197.632 71.5596 198.069C72.2384 201.329 69.881 203.076 68.3464 205.229C81.3624 195.333 98.3362 187.519 110.297 184.254C127.12 178.589 148.827 172.683 154.727 158.32L160.622 134.637C167.538 127.152 173.899 119.403 176.916 109.968C196.175 106.243 211.755 107.578 228 107.995C226.519 107.748 178.408 99.5949 178.408 99.5949C164.345 80.3527 143.365 93.4396 136.458 112.448C134.715 117.246 124.767 117.235 121.885 112.423C110.489 87.8883 75.8853 61.9422 46.435 52.3821Z" fill="black"/>
<path d="M46.0997 51.0005C48.0402 54.4963 50.0577 57.479 52.1641 60.0639C51.201 59.9235 50.2088 59.8408 49.1783 59.8517C47.1429 59.8731 44.9669 60.211 42.6097 60.9532C46.7231 64.3978 50.1995 66.9116 53.2659 68.8489C48.5287 67.3358 43.4274 67.1203 37.435 69.9636C41.812 72.7026 45.4861 74.6821 48.7017 76.1608C43.6886 75.2368 38.4904 75.6578 32.8169 79.3986C36.5628 81.0679 39.8021 82.321 42.6766 83.2736C37.9582 83.4385 33.2879 84.8958 28.7169 89.2318C32.6819 90.2155 36.079 90.8677 39.0673 91.302C35.4099 92.041 31.8222 93.7953 28.3451 97.3001C31.0391 97.8822 33.4641 98.3214 35.6834 98.6537C32.9512 99.9743 30.3643 102.021 28 105.156C31.1044 105.397 33.851 105.504 36.3204 105.514C33.3325 106.897 30.5356 109.081 28.0398 112.587C32.4738 112.809 36.1776 112.787 39.3726 112.601C35.8614 114.036 32.6253 116.461 29.8579 120.656C35.3684 120.736 39.7327 120.471 43.393 120.019C38.8499 121.252 34.6445 123.732 31.1846 128.976C35.636 129.041 39.3516 128.879 42.5438 128.578C38.6412 130.704 35.2894 133.93 33.0823 139.433C37.1 138.672 40.4673 137.858 43.3667 137.005C40.3465 139.203 37.8079 142.29 36.1079 146.931C38.8032 146.335 41.1953 145.711 43.3534 145.086C41.4161 147.428 39.9228 150.36 39.0804 154.203C42.0073 153.125 44.539 152.08 46.7904 151.058C44.6514 153.561 43.0177 156.729 42.2122 160.957C46.333 159.31 49.6847 157.735 52.5098 156.233C49.92 159.002 47.9933 162.563 47.2283 167.526C52.2454 165.311 56.0946 163.26 59.2245 161.329C55.63 164.341 52.8661 168.347 51.9126 174.533C58.4683 171.639 63.0432 169.014 66.6027 166.584C65.0741 169.676 64.2639 173.296 64.652 177.81C70.9878 172.949 75.0014 169.015 77.988 165.549C77.7866 167.787 77.9455 170.221 78.6118 172.914C83.1603 165.099 87.6804 162.818 92.3582 160.21C84.9075 163.961 86.012 166.785 86.012 170.061C91.6959 164.076 99.6223 157.728 102.047 153.752C98.8056 158.62 97.4861 163.23 96.633 167.3C80.0473 176.072 69.9488 178.364 58.6272 181.871C63.0187 183.481 67.7248 185.059 65.7798 187.298L60.5912 192.473C63.9076 191.443 67.2892 189.971 70.2253 191.982C69.9371 194.703 66.4987 196.076 63.5636 197.662C68.731 195.8 69.8485 196.23 71.2072 196.667C71.886 199.926 69.5304 201.68 67.9959 203.833C81.0119 193.936 97.9958 186.117 109.956 182.852C126.78 177.187 148.472 171.298 154.371 156.936L160.29 133.249C167.206 125.763 173.568 118.001 176.586 108.567C195.844 104.841 211.417 106.186 227.663 106.603C226.182 106.356 178.059 98.2026 178.059 98.2026C163.996 78.9605 143.032 92.0397 136.125 111.048C134.382 115.846 124.436 115.847 121.555 111.035C110.159 86.5001 75.5501 60.5606 46.0997 51.0005Z" fill="#008080"/>
<path d="M159.722 101.214L159.596 101.416C159.096 102.346 158.252 102.981 157.065 103.364C155.878 103.748 154.358 103.871 152.587 103.795L151.474 103.744L152.283 104.528C152.694 104.924 152.809 105.239 152.815 105.515C152.821 105.791 152.702 106.089 152.435 106.426C151.902 107.1 150.843 107.833 149.854 108.577L149.525 108.804L149.753 109.133C150.578 110.398 150.955 111.372 151.044 112.119C151.132 112.866 150.958 113.402 150.613 113.865C149.924 114.79 148.409 115.417 147.046 116.192L146.793 116.319L146.844 116.623C146.961 117.334 146.769 117.915 146.262 118.495C145.754 119.074 144.9 119.627 143.757 120.114L143.453 120.241L143.504 120.57C143.732 122.093 144.19 123.418 145.148 124.264C146.025 125.037 147.352 125.241 149.045 124.896C149.34 126.52 149.763 127.996 150.74 128.97C151.731 129.956 153.299 130.248 155.395 129.703C155.867 130.841 156.557 131.651 157.344 132.183C158.208 132.767 159.337 133.003 160.265 133.291L160.816 132.699C159.894 132.413 158.533 131.971 157.799 131.475C157.065 130.979 156.469 130.298 156.053 129.122L155.927 128.717L155.522 128.843C153.366 129.506 152.17 129.207 151.347 128.388C150.524 127.568 150.061 126.086 149.779 124.365L149.703 123.909L149.247 124.036C147.47 124.5 146.421 124.262 145.705 123.631C145.036 123.041 144.64 121.996 144.415 120.696C145.444 120.22 146.327 119.699 146.894 119.052C147.449 118.418 147.689 117.637 147.653 116.825C148.909 116.134 150.424 115.54 151.297 114.371C151.753 113.759 151.99 112.955 151.879 112.018C151.778 111.165 151.36 110.179 150.639 109.007C151.524 108.355 152.485 107.701 153.093 106.932C153.431 106.504 153.686 106.031 153.675 105.49C153.669 105.192 153.382 104.92 153.22 104.63C154.759 104.65 156.161 104.548 157.318 104.174C158.538 103.78 159.496 103.061 160.127 102.074C161.949 102.083 163.835 102.484 165.744 102.732C167.704 102.987 169.7 103.055 171.589 102.226L171.234 101.442C169.563 102.175 167.778 102.145 165.87 101.897C163.963 101.649 161.976 101.199 159.975 101.214L159.722 101.214Z" fill="white"/>
<path d="M166.802 100.899C166.802 102.884 165.193 104.494 163.207 104.494C161.222 104.494 159.612 102.884 159.612 100.899C159.612 98.9133 161.222 97.3036 163.207 97.3036C165.193 97.3036 166.802 98.9132 166.802 100.899Z" fill="white" stroke="white" stroke-width="1.22093"/>
<path d="M177.54 97.5262C174.312 101.725 173.501 100.641 171.536 101.344L171.207 101.471L171.258 101.825C172.014 106.043 174.513 107.383 176.464 108.916L176.573 108.574L177.092 108.475C175.137 106.939 172.997 105.637 172.219 102.053C173.65 101.714 175.015 102.147 178.064 98.1817L177.54 97.5262Z" fill="white"/>
<path d="M53.2614 68.8386C59.3603 72.6203 69.3981 76.52 75.8446 80.594C79.391 82.8521 82.5764 85.1021 85.0545 87.0459C87.5325 88.9897 89.3649 90.9979 90.0389 91.6508C90.713 92.3037 91.1705 91.9952 90.7221 91.1447C90.2737 90.2944 88.0663 88.3283 85.5605 86.3627C83.0548 84.3972 79.8675 82.1571 76.3001 79.8855C69.1652 75.3426 60.7908 71.2809 53.2614 68.8386Z" fill="white"/>
<path d="M52.1643 60.0618C54.721 60.6522 58.4944 62.8328 62.6905 65.1658C66.8866 67.4988 71.46 70.3697 75.6445 73.1611C79.8294 75.9525 83.056 78.3956 85.6354 80.3637C88.0848 82.4598 89.2942 83.8171 89.7629 83.8131C89.8272 83.826 89.8905 83.827 89.9906 83.8131C90.0908 83.7991 90.2598 83.7219 90.3448 83.56C90.4299 83.3983 90.397 83.2623 90.3701 83.1805C90.3432 83.0988 90.3289 83.0554 90.2942 83.0034C90.1559 82.7956 89.9446 82.6009 89.6364 82.3203C89.0198 81.759 88.0012 80.9337 86.7014 79.9419C84.1018 77.9583 80.3241 75.2534 76.1254 72.4526C71.9265 69.6518 67.3209 66.7561 63.0952 64.4067C61.5931 63.8501 54.227 59.9543 52.1643 60.0618Z" fill="white"/>
<path d="M48.6698 76.1628C56.4977 79.3579 67.6336 83.111 75.0665 87.783C79.0603 90.3191 82.5389 92.8455 85.1366 94.9181C86.4355 95.9544 87.5203 96.8859 88.3246 97.6253C89.129 98.3649 89.5826 99.0362 89.8427 99.2194C90.3871 99.6029 90.8039 99.3481 90.5512 98.7386C90.3604 98.2784 89.7307 97.7505 88.9065 96.9928C88.0824 96.2351 86.9793 95.3065 85.6679 94.2602C83.0453 92.1677 79.5438 89.603 75.522 87.0491C67.4784 81.9414 57.8622 77.4512 48.6698 76.1628Z" fill="white"/>
<path d="M42.6458 83.2638C48.7465 83.2678 61.3485 88.8519 66.6604 91.6505C75.273 96.2437 83.1049 102.148 87.4334 106.275C87.9134 106.732 88.6145 106.328 88.066 105.693C84.0455 101.034 75.7418 95.5437 67.0654 90.9162C58.389 86.2889 49.4052 83.2569 42.6458 83.2638Z" fill="white"/>
<path d="M39.1208 91.299C48.2924 92.6411 59.2864 96.3431 67.2964 100.354C71.7664 102.624 75.7522 105.055 78.8089 107.211C81.8653 109.367 84.122 111.795 84.6789 112.423C85.2358 113.052 85.8991 113.078 85.3874 111.968C84.8755 110.858 82.3862 108.687 79.2896 106.503C76.193 104.318 72.1812 101.883 67.6765 99.5953C58.6665 95.0206 48.4057 91.4218 39.1208 91.299Z" fill="white"/>
<path d="M42.1481 98.1255C39.8698 97.9268 37.8189 98.3939 35.7294 98.6551C43.8787 97.8914 55.2742 101.634 62.8707 105.134C71.819 109.329 79.2492 115.089 82.8087 118.747C83.3659 119.319 83.7597 118.589 83.4666 118.215C80.1523 113.984 72.2598 108.585 63.2249 104.35C56.4491 101.173 48.9837 98.722 42.1481 98.1255Z" fill="white"/>
<path d="M36.3578 105.47C44.3774 106.065 55.1143 107.985 62.6357 111.437C70.2 114.975 75.9402 119.563 78.8282 122.166C79.2727 122.566 80.0586 122.282 79.4355 121.558C76.7997 118.496 70.671 114.26 63.0143 110.679C55.3581 107.098 46.0581 104.804 36.3578 105.47Z" fill="white"/>
<path d="M43.5602 112.144C41.8682 112.087 41.0745 112.403 39.4421 112.58C44.8851 112.82 53.535 114.267 58.3115 115.889C64.51 118.039 69.6067 121.279 72.5059 123.808C73.0657 124.297 73.483 123.641 73.1131 123.226C70.398 120.179 64.8797 117.261 58.5896 115.079C53.8723 113.442 48.6363 112.316 43.5602 112.144Z" fill="white"/>
<path d="M43.3264 120.037C54.9619 120.822 61.9976 122.872 67.3908 127.704C67.7949 128.066 68.4328 127.567 67.998 127.096C62.4635 121.1 51.5669 119.429 43.3264 120.037Z" fill="white"/>
<path d="M52.2862 127.026C48.759 126.743 45.8076 127.513 42.593 128.584C52.0003 127.084 55.9118 127.803 63.0389 131.15C63.8514 131.532 63.8038 130.633 63.4438 130.417C59.6576 128.141 55.8133 127.31 52.2862 127.026Z" fill="white"/>
<path d="M51.951 133.578C48.6161 133.874 45.7843 135.019 43.4496 136.918C52.7655 133.328 55.3401 134.042 62.4652 136.062C63.4022 136.328 63.1111 135.425 62.7435 135.278C58.4771 133.567 55.2861 133.283 51.951 133.578Z" fill="white"/>
<path d="M70.4089 139.348C65.4386 138.811 59.839 139.414 54.9244 140.31C50.01 141.206 45.7834 143.027 43.3976 144.967C51.5685 141.516 53.0577 141.524 55.0768 141.145C59.9184 140.262 64.7176 139.918 70.3591 140.183C70.8707 140.208 70.8437 139.395 70.4089 139.348Z" fill="white"/>
<path d="M73.2939 143.371C67.9075 143.168 62.3441 144.501 57.5311 145.876C52.7184 147.252 49.1462 149.128 46.7905 151.044C51.557 148.752 55.9925 147.2 57.7586 146.686C62.504 145.33 67.2912 144.155 73.3447 144.231C73.815 144.238 74.1187 143.402 73.2939 143.371Z" fill="white"/>
<path d="M77.6924 146.683C72.6193 147.432 67.3003 148.93 62.663 150.503C58.0262 152.076 54.7256 153.945 52.5725 156.182C58.0878 153.016 61.121 151.906 62.9158 151.288C67.4958 149.734 71.7723 148.652 77.8437 147.518C78.5724 147.382 77.9877 146.639 77.6924 146.683Z" fill="white"/>
<path d="M80.2728 150.909C70.0991 152.529 63.5063 156.919 59.3159 161.271C65.81 156.379 70.3277 153.749 80.4496 151.743C81.0902 151.616 80.8971 150.809 80.2728 150.909Z" fill="white"/>
<path d="M85.23 154.627C74.9974 156.203 69.0964 162.423 66.639 166.53C73.1131 160.062 78.1516 156.542 85.4068 155.462C86.1411 155.353 85.954 154.515 85.23 154.627Z" fill="white"/>
<path d="M88.3182 157.867C86.7223 158.066 84.5507 159.197 82.4989 160.499C80.447 161.8 78.8989 163.385 77.9757 165.426C80.4473 162.875 81.4367 162.185 82.9543 161.207C84.9242 159.957 86.9094 159.17 88.5206 158.702C89.2759 158.483 88.7052 157.819 88.3182 157.867Z" fill="white"/>
<path d="M166.802 100.899C166.802 102.884 165.193 104.494 163.207 104.494C161.222 104.494 159.612 102.884 159.612 100.899C159.612 98.9133 161.222 97.3036 163.207 97.3036C165.193 97.3036 166.802 98.9132 166.802 100.899Z" fill="white" stroke="white" stroke-width="1.22093"/>
<path d="M166.802 100.899C166.802 102.884 165.193 104.494 163.207 104.494C161.222 104.494 159.612 102.884 159.612 100.899C159.612 98.9133 161.222 97.3036 163.207 97.3036C165.193 97.3036 166.802 98.9132 166.802 100.899Z" fill="#37C871" stroke="white" stroke-width="1.22093"/>
</g>
<defs>
<clipPath id="clip0_125_902">
<rect width="256" height="256" fill="white"/>
</clipPath>
</defs>
</svg>
