<svg width="256" height="256" viewBox="0 0 256 256" fill="none" xmlns="http://www.w3.org/2000/svg">
<rect width="256" height="256" rx="60" fill="#F4F2ED"/>
<path d="M67.8948 193.68H65.7476C64.8888 202.533 63.6863 213.294 48.57 213.294H41.6131C37.5764 213.294 37.4046 212.687 37.4046 209.823V163.738C37.4046 160.787 37.4046 159.572 45.4781 159.572H48.3124V156.968C45.2204 157.229 37.4905 157.229 33.9691 157.229C30.6195 157.229 23.9202 157.229 21 156.968V159.572H22.9754C29.5888 159.572 29.7606 160.527 29.7606 163.651V209.215C29.7606 212.34 29.5888 213.294 22.9754 213.294H21V215.985H65.5759L67.8948 193.68V193.68Z" fill="#9F393D"/>
<path d="M66.4347 156.881C66.0912 155.84 65.9194 155.493 64.8028 155.493C63.6863 155.493 63.4286 155.84 63.0851 156.881L49.2571 192.291C48.6559 193.767 47.6253 196.457 42.3002 196.457V198.627H55.6128V196.457C52.9503 196.457 51.3184 195.242 51.3184 193.506C51.3184 193.072 51.4043 192.899 51.5761 192.291L54.4963 184.827H71.5021L74.9376 193.68C75.1094 194.027 75.2812 194.461 75.2812 194.721C75.2812 196.457 72.0174 196.457 70.3856 196.457V198.627H87.3055V196.457H86.1031C82.0663 196.457 81.6369 195.85 81.0357 194.114L66.4347 156.881V156.881ZM62.9992 163.043L70.6432 182.658H55.3552L62.9992 163.043V163.043Z" fill="#9F393D"/>
<path d="M135.231 157.489H82.9252L81.3792 176.93H83.4406C84.643 162.956 85.9313 160.092 98.9004 160.092C100.446 160.092 102.679 160.092 103.538 160.266C105.342 160.613 105.342 161.568 105.342 163.564V209.128C105.342 212.079 105.342 213.294 96.3237 213.294H92.8882V215.985C96.4096 215.724 105.084 215.724 109.035 215.724C112.986 215.724 121.832 215.724 125.354 215.985V213.294H121.918C112.9 213.294 112.9 212.079 112.9 209.128V163.564C112.9 161.828 112.9 160.613 114.446 160.266C115.391 160.092 117.71 160.092 119.342 160.092C132.225 160.092 133.513 162.956 134.716 176.93H136.863C136.863 176.93 135.231 157.489 135.231 157.489Z" fill="#9F393D"/>
<path d="M181.267 213.207H179.12C176.973 226.486 174.997 232.822 160.31 232.822H148.973C144.936 232.822 144.765 232.214 144.765 229.35V206.264H152.409C160.74 206.264 161.684 209.041 161.684 216.419H163.832V193.506H161.684C161.684 200.883 160.74 203.574 152.409 203.574H144.765V182.831C144.765 179.967 144.936 179.36 148.973 179.36H159.967C173.108 179.36 175.341 184.133 176.715 196.197H178.862C178.862 196.197 176.457 176.756 176.457 176.756H128.36V179.36H130.335C136.949 179.36 137.121 180.314 137.121 183.439V228.743C137.121 231.867 136.949 232.822 130.335 232.822H128.36V235.512H177.66L181.267 213.207V213.207Z" fill="#9F393D"/>
<path d="M207.119 182.571L218.886 165.213C220.689 162.436 223.61 159.659 231.254 159.572V156.968H210.812V159.572C214.248 159.659 216.137 161.568 216.137 163.564C216.137 164.432 215.966 164.606 215.364 165.56L205.573 180.141C205.573 180.141 194.58 163.477 194.58 163.477C194.408 163.217 193.978 162.523 193.978 162.176C193.978 161.134 195.868 159.659 199.475 159.572V156.968C196.555 157.229 190.285 157.229 187.021 157.229C184.359 157.229 179.034 157.142 175.856 156.968V159.572H177.488C182.212 159.572 183.844 160.179 185.475 162.61L201.193 186.65L187.193 207.566C185.991 209.302 183.414 213.294 174.825 213.294V215.985H195.267V213.294C191.316 213.208 189.856 210.864 189.856 209.302C189.856 208.521 190.113 208.174 190.715 207.219L202.825 189.08L216.395 209.736C216.567 210.083 216.825 210.43 216.825 210.691C216.825 211.732 214.935 213.208 211.242 213.294V215.985C214.248 215.725 220.518 215.725 223.696 215.725C227.303 215.725 231.254 215.811 234.861 215.985V213.294H233.229C228.763 213.294 226.959 212.861 225.156 210.17L207.119 182.571V182.571Z" fill="#9F393D"/>
<path d="M67.0328 21.0751C68.532 23.7762 70.0914 26.1016 71.7181 28.1031L71.7378 28.1228C71.7433 28.1299 71.7518 28.1355 71.7575 28.1425C71.0082 28.0331 70.2363 27.9568 69.4345 27.9653C67.8508 27.9819 66.1501 28.2541 64.3161 28.8315C67.4659 31.4691 70.1479 33.3974 72.5054 34.8949C72.4477 34.8759 72.3857 34.8545 72.3282 34.8358L72.5054 34.9343C68.853 33.7911 64.9128 33.6513 60.3001 35.8399C63.6123 37.9125 66.3918 39.4248 68.8443 40.5646C68.7725 40.5539 68.6994 40.5353 68.6277 40.5252L68.8049 40.6236C64.9829 39.9655 61.0164 40.3354 56.6977 43.1829C59.5134 44.4376 61.9597 45.3847 64.1391 46.1161H64.1587L64.2966 46.1949C60.652 46.3366 57.0401 47.4714 53.5085 50.8211C56.5936 51.5864 59.2349 52.0975 61.5603 52.4354C61.495 52.4486 61.4287 52.4608 61.3634 52.4748C61.2726 52.4732 61.1782 52.4763 61.0878 52.4748L61.1862 52.5141C58.4694 53.1311 55.8203 54.4932 53.2333 57.1011C55.3294 57.554 57.2155 57.9058 58.9423 58.1642C56.8165 59.1918 54.7973 60.7842 52.9577 63.2236C55.3731 63.4111 57.513 63.4912 59.4345 63.4992C57.1098 64.5748 54.9192 66.2637 52.9774 68.9917C56.4274 69.1641 59.3111 69.1567 61.7966 69.0114C61.7501 69.0304 61.7052 69.051 61.6588 69.0704C61.5077 69.0839 61.3561 69.0936 61.206 69.1098L61.4226 69.1885C58.8384 70.323 56.4467 72.1616 54.3945 75.2715C58.6821 75.3341 62.0783 75.1317 64.9265 74.7794C64.8398 74.8029 64.7571 74.8334 64.6706 74.8581C64.5606 74.8644 64.4445 74.8697 64.3359 74.8778L64.4737 74.9172C61.1147 75.9178 58.013 77.8453 55.4379 81.7483C58.9014 81.7988 61.7933 81.6677 64.2769 81.4333C64.223 81.4627 64.1731 81.5018 64.1194 81.5318C61.152 83.1871 58.6011 85.6735 56.9142 89.8791C59.9602 89.3022 62.5134 88.6933 64.7297 88.0482C64.6929 88.0774 64.648 88.0973 64.6115 88.1269L64.7493 88.1073C62.468 89.8097 60.5501 92.1951 59.2569 95.7259C61.354 95.2623 63.2277 94.7751 64.9069 94.2888C63.3996 96.1112 62.2353 98.3861 61.5799 101.376C63.8572 100.537 65.8325 99.7303 67.5842 98.9347C67.563 98.9595 67.5462 98.9884 67.5252 99.0134C67.4894 99.0416 67.4419 99.0639 67.4071 99.0921L67.4661 99.0725C65.8592 100.998 64.6331 103.42 64.0211 106.632C67.2273 105.35 69.8353 104.12 72.0333 102.951C71.9711 103.011 71.8948 103.067 71.8364 103.128L71.8954 103.108C69.9515 105.24 68.5001 107.979 67.9188 111.75C71.7034 110.079 74.6194 108.527 77.0138 107.065C76.9886 107.091 76.9601 107.118 76.9351 107.144L77.0926 107.065C74.374 109.393 72.2884 112.483 71.5608 117.203C76.6615 114.952 80.2291 112.912 82.9986 111.022C81.8092 113.427 81.1808 116.23 81.4828 119.743C86.4125 115.961 89.5337 112.912 91.8575 110.215C91.8535 110.254 91.8606 110.294 91.8575 110.333C91.7165 112.042 91.8231 113.895 92.3299 115.943C95.2526 110.922 98.1755 108.841 101.149 107.124C97.43 109.535 98.0978 111.488 98.0978 113.719C102.52 109.062 108.672 104.115 110.559 101.022C108.037 104.809 107.03 108.407 106.366 111.573C93.4612 118.398 85.5858 120.185 76.7776 122.912C80.1946 124.166 83.8622 125.383 82.3489 127.125L78.3131 131.161C80.8935 130.359 83.5292 129.202 85.8136 130.767C85.5894 132.884 82.9198 133.963 80.6361 135.196C84.6567 133.748 85.5242 134.089 86.5813 134.429C87.1095 136.965 85.2753 138.325 84.0812 140C94.2085 132.3 107.415 126.22 116.721 123.68C129.811 119.272 146.7 114.677 151.291 103.501L155.878 85.0748C161.259 79.2508 166.208 73.2213 168.555 65.881C183.54 62.982 195.662 64.0211 208.302 64.3454C207.15 64.1534 169.717 57.8096 169.717 57.8096C158.774 42.838 142.45 53.0205 137.077 67.8105C135.72 71.5433 127.98 71.5351 125.738 67.7908C116.871 48.7012 89.947 28.5138 67.0327 21.0754V21.0753L67.0328 21.0751Z" fill="black"/>
<path d="M66.7719 20.0004C68.2817 22.7204 69.8514 25.0411 71.4904 27.0524C70.7411 26.9431 69.969 26.8787 69.1673 26.8872C67.5836 26.9039 65.8905 27.1668 64.0564 27.7442C67.257 30.4244 69.9618 32.3803 72.3477 33.8876C68.6618 32.7103 64.6927 32.5427 60.0302 34.7549C63.4358 36.886 66.2944 38.4262 68.7964 39.5767C64.8959 38.8578 60.8514 39.1854 56.4371 42.096C59.3515 43.3948 61.872 44.3698 64.1085 45.111C60.4373 45.2393 56.8035 46.3731 53.2469 49.7468C56.332 50.5122 58.9752 51.0196 61.3003 51.3576C58.4545 51.9326 55.6631 53.2975 52.9577 56.0245C55.0538 56.4774 56.9406 56.8191 58.6674 57.0777C56.5416 58.1052 54.5287 59.6976 52.6892 62.1369C55.1046 62.3244 57.2416 62.4077 59.163 62.4157C56.8382 63.4913 54.662 65.1909 52.7202 67.9189C56.1701 68.0913 59.0519 68.0746 61.5378 67.9292C58.8059 69.046 56.288 70.9332 54.1347 74.1965C58.4223 74.2591 61.818 74.0532 64.6659 73.7009C61.1311 74.6606 57.859 76.5904 55.167 80.6703C58.6305 80.7208 61.5214 80.5949 64.0051 80.3605C60.9687 82.0152 58.3608 84.5251 56.6435 88.8067C59.7696 88.2146 62.3895 87.5808 64.6454 86.9172C62.2955 88.6273 60.3203 91.0292 58.9976 94.6403C61.0948 94.1767 62.956 93.6914 64.6351 93.2051C63.1277 95.0275 61.9659 97.3085 61.3105 100.298C63.5877 99.4597 65.5576 98.647 67.3093 97.8513C65.6451 99.7988 64.3739 102.264 63.7472 105.554C66.9534 104.272 69.5613 103.047 71.7594 101.878C69.7443 104.032 68.2452 106.803 67.65 110.665C71.5536 108.942 74.5486 107.345 76.9838 105.843C74.1871 108.187 72.0366 111.304 71.2947 116.117C76.3954 113.865 79.955 111.822 82.7246 109.932C81.5352 112.337 80.9048 115.154 81.2068 118.666C86.1364 114.884 89.2593 111.823 91.583 109.126C91.4263 110.868 91.5499 112.762 92.0684 114.857C95.6074 108.777 99.1243 107.001 102.764 104.972C96.9668 107.891 97.8262 110.088 97.8262 112.637C102.249 107.98 108.416 103.041 110.303 99.9476C107.78 103.735 106.754 107.322 106.09 110.489C93.1853 117.314 85.328 119.097 76.519 121.826C79.9359 123.079 83.5976 124.306 82.0843 126.049L78.0472 130.075C80.6276 129.273 83.2586 128.128 85.5431 129.693C85.3189 131.81 82.6436 132.879 80.3599 134.112C84.3805 132.664 85.25 132.998 86.3071 133.338C86.8353 135.874 85.0025 137.238 83.8085 138.914C93.9358 131.213 107.15 125.13 116.456 122.59C129.546 118.181 146.424 113.6 151.014 102.425L155.619 83.9947C161 78.1706 165.95 72.1309 168.298 64.7906C183.283 61.8916 195.399 62.9381 208.039 63.2624C206.887 63.0705 169.445 56.7267 169.445 56.7267C158.502 41.7551 142.191 51.9315 136.817 66.7212C135.461 70.454 127.723 70.4552 125.481 66.7109C116.614 47.6213 89.6868 27.4387 66.7726 20.0003V20.0002L66.7719 20.0004Z" fill="#008080"/>
<path d="M155.177 59.0691L155.079 59.2265C154.691 59.95 154.034 60.4438 153.11 60.7424C152.187 61.0411 151.004 61.1367 149.626 61.0771L148.76 61.0377L149.39 61.648C149.709 61.9556 149.799 62.2012 149.803 62.4158C149.808 62.6304 149.715 62.8622 149.508 63.1245C149.093 63.6492 148.269 64.219 147.5 64.7979L147.244 64.975L147.421 65.231C148.062 66.215 148.356 66.9725 148.425 67.5539C148.494 68.1354 148.359 68.5524 148.09 68.9122C147.553 69.632 146.375 70.1197 145.314 70.7233L145.118 70.8218L145.157 71.058C145.248 71.6115 145.099 72.0638 144.704 72.5148C144.309 72.9657 143.645 73.3958 142.755 73.7748L142.519 73.8732L142.558 74.1291C142.736 75.3142 143.092 76.3455 143.838 77.0033C144.52 77.605 145.553 77.7637 146.87 77.4954C147.099 78.7588 147.428 79.9077 148.189 80.665C148.959 81.4324 150.18 81.6595 151.811 81.2358C152.178 82.1207 152.715 82.7512 153.327 83.1651C153.999 83.6196 154.878 83.8029 155.6 84.0273L156.028 83.5669C155.311 83.3441 154.252 82.9999 153.681 82.6139C153.11 82.2279 152.646 81.6985 152.323 80.7831L152.224 80.4681L151.909 80.5665C150.232 81.0821 149.302 80.85 148.661 80.2122C148.021 79.5745 147.661 78.4216 147.441 77.0821L147.382 76.7277L147.027 76.8261C145.645 77.1869 144.828 77.0024 144.271 76.5111C143.751 76.0523 143.443 75.2387 143.267 74.2275C144.068 73.8572 144.755 73.4521 145.196 72.948C145.628 72.4554 145.814 71.8473 145.787 71.2156C146.764 70.678 147.943 70.2161 148.622 69.306C148.977 68.8302 149.161 68.2047 149.075 67.4752C148.996 66.8114 148.671 66.0445 148.11 65.1325C148.799 64.6252 149.546 64.1169 150.02 63.5182C150.283 63.1854 150.481 62.817 150.472 62.3961C150.468 62.164 150.245 61.9526 150.118 61.7268C151.316 61.7424 152.407 61.6635 153.307 61.3724C154.256 61.0657 155.001 60.5066 155.492 59.7385C156.91 59.7456 158.378 60.0574 159.863 60.2503C161.388 60.4486 162.94 60.5017 164.41 59.8566L164.135 59.2464C162.834 59.8172 161.445 59.7935 159.961 59.6007C158.477 59.4079 156.931 59.0579 155.374 59.0691H155.177L155.177 59.0691Z" fill="white"/>
<path d="M160.686 58.8243C160.686 60.3692 159.434 61.6216 157.889 61.6216C156.344 61.6216 155.092 60.3692 155.092 58.8243C155.092 57.2795 156.344 56.027 157.889 56.027C159.434 56.027 160.686 57.2794 160.686 58.8243Z" fill="white" stroke="white" stroke-width="0.660673"/>
<path d="M169.041 56.2004C166.529 59.4673 165.898 58.6236 164.369 59.1713L164.113 59.2697L164.153 59.5452C164.741 62.8266 166.686 63.8692 168.204 65.062L168.288 64.7966L168.692 64.7196C167.171 63.524 165.506 62.5113 164.901 59.7224C166.014 59.4591 167.077 59.7959 169.448 56.7104L169.041 56.2004V56.2004Z" fill="white"/>
<path d="M72.3442 33.8794C77.0895 36.8218 84.8996 39.856 89.9154 43.0258C92.6747 44.7827 95.1532 46.5334 97.0813 48.0457C99.0093 49.5582 100.435 51.1207 100.959 51.6287C101.484 52.1367 101.84 51.8966 101.491 51.2349C101.142 50.5733 99.4247 49.0436 97.475 47.5142C95.5254 45.9849 93.0455 44.2419 90.2698 42.4745C84.7184 38.9398 78.2029 35.7793 72.3445 33.879L72.3442 33.8794Z" fill="white"/>
<path d="M71.4905 27.0507C73.4798 27.5101 76.4158 29.2068 79.6806 31.022C82.9455 32.8372 86.5038 35.0709 89.7597 37.2428C93.0158 39.4148 95.5263 41.3157 97.5332 42.847C99.439 44.4779 100.38 45.5339 100.745 45.5307C100.795 45.5408 100.844 45.5416 100.922 45.5307C101 45.5199 101.131 45.4598 101.197 45.3339C101.264 45.208 101.238 45.1022 101.217 45.0386C101.196 44.975 101.185 44.9412 101.158 44.9008C101.05 44.7391 100.886 44.5876 100.646 44.3693C100.167 43.9326 99.3739 43.2904 98.3626 42.5187C96.3399 40.9754 93.4007 38.8708 90.1338 36.6916C86.8668 34.5124 83.2834 32.2594 79.9955 30.4314C78.8267 29.9983 73.095 26.967 71.4901 27.0507H71.49L71.4905 27.0507Z" fill="white"/>
<path d="M68.7716 39.5785C74.8622 42.0645 83.5267 44.9846 89.31 48.6198C92.4174 50.593 95.1239 52.5587 97.1451 54.1713C98.1557 54.9776 98.9998 55.7024 99.6256 56.2777C100.251 56.8532 100.604 57.3755 100.807 57.518C101.23 57.8164 101.555 57.6182 101.358 57.1439C101.21 56.7859 100.72 56.3752 100.078 55.7856C99.4371 55.1961 98.5788 54.4735 97.5585 53.6594C95.5179 52.0314 92.7935 50.0359 89.6643 48.0487C83.4059 44.0747 75.9241 40.5806 68.7718 39.5781L68.7716 39.5785Z" fill="white"/>
<path d="M64.0846 45.1031C68.8313 45.1062 78.6365 49.451 82.7695 51.6285C89.4706 55.2023 95.5643 59.7964 98.9322 63.007C99.3056 63.363 99.8512 63.0488 99.4244 62.5542C96.2962 58.9294 89.8353 54.6577 83.0846 51.0572C76.3338 47.4569 69.3436 45.0974 64.0844 45.1027L64.0846 45.1031Z" fill="white"/>
<path d="M61.3419 51.3551C68.478 52.3993 77.032 55.2797 83.2643 58.4008C86.7422 60.1667 89.8435 62.0581 92.2218 63.7358C94.5998 65.4135 96.3557 67.3024 96.789 67.7912C97.2223 68.2799 97.7384 68.3003 97.3402 67.4368C96.942 66.5733 95.0051 64.8844 92.5958 63.1846C90.1864 61.4848 87.0649 59.5899 83.56 57.8101C76.5497 54.2508 68.5663 51.4506 61.3421 51.355L61.3419 51.3551Z" fill="white"/>
<path d="M63.6973 56.6663C61.9246 56.5117 60.3289 56.8751 58.7031 57.0784C65.0438 56.4842 73.9103 59.3959 79.8208 62.1195C86.7832 65.3835 92.5643 69.8647 95.3339 72.7107C95.7674 73.1563 96.0738 72.5885 95.8457 72.2973C93.267 69.0051 87.1261 64.8046 80.0964 61.5093C74.8244 59.0377 69.0159 57.1306 63.6973 56.6664V56.6663Z" fill="white"/>
<path d="M59.192 62.381C65.4318 62.8435 73.7858 64.3376 79.6379 67.0239C85.5234 69.7767 89.9897 73.346 92.2368 75.3712C92.5826 75.6828 93.1941 75.4621 92.7093 74.8987C90.6584 72.5159 85.8899 69.2199 79.9326 66.4336C73.9755 63.6474 66.7393 61.8629 59.1919 62.3813L59.192 62.381Z" fill="white"/>
<path d="M64.796 67.5742C63.4795 67.5296 62.8619 67.776 61.5919 67.9131C65.8269 68.0998 72.557 69.2261 76.2734 70.4877C81.0962 72.161 85.0618 74.6814 87.3176 76.6497C87.7531 77.0297 88.0778 76.5198 87.79 76.1968C85.6775 73.8261 81.3839 71.5557 76.4898 69.8578C72.8194 68.5844 68.7454 67.7078 64.7959 67.5742H64.796Z" fill="white"/>
<path d="M64.6141 73.7152C73.6673 74.3261 79.1415 75.9212 83.3377 79.6802C83.6522 79.9618 84.1485 79.5741 83.8102 79.2077C79.504 74.5422 71.0256 73.2422 64.614 73.7153L64.6141 73.7152Z" fill="white"/>
<path d="M71.5854 79.1532C68.841 78.9325 66.5446 79.5322 64.0435 80.365C71.3629 79.1984 74.4063 79.7578 79.9517 82.362C80.5839 82.6589 80.5468 81.9595 80.2667 81.7911C77.3208 80.0204 74.3293 79.3739 71.585 79.1532L71.5854 79.1532Z" fill="white"/>
<path d="M71.3246 84.251C68.7298 84.4811 66.5265 85.3721 64.7099 86.8496C71.9583 84.0558 73.9615 84.6117 79.5053 86.1833C80.2344 86.39 80.0078 85.6877 79.7218 85.573C76.4023 84.2421 73.9196 84.021 71.3247 84.251L71.3246 84.251Z" fill="white"/>
<path d="M85.686 88.7404C81.8188 88.3223 77.462 88.7912 73.638 89.4885C69.8144 90.1858 66.5258 91.6024 64.6695 93.1123C71.027 90.4273 72.1856 90.433 73.7566 90.1381C77.5237 89.4512 81.2578 89.1833 85.6473 89.39C86.0453 89.4089 86.0249 88.777 85.6866 88.7404H85.686Z" fill="white"/>
<path d="M87.9307 91.8706C83.7397 91.7123 79.4111 92.7494 75.6662 93.8196C71.9216 94.8898 69.1422 96.3501 67.3094 97.8408C71.018 96.0569 74.469 94.8494 75.8432 94.4495C79.5355 93.3942 83.2602 92.4807 87.9702 92.5399C88.3361 92.5446 88.5726 91.8948 87.9309 91.8706L87.9307 91.8706Z" fill="white"/>
<path d="M91.3531 94.4472C87.4059 95.0299 83.2674 96.1957 79.6593 97.4197C76.0515 98.6438 73.4835 100.098 71.8082 101.838C76.0995 99.3746 78.4595 98.5109 79.856 98.0301C83.4195 96.821 86.7469 95.9797 91.4708 95.0968C92.0378 94.9908 91.5825 94.4132 91.3527 94.4472H91.3531Z" fill="white"/>
<path d="M93.3607 97.7356C85.4449 98.9965 80.3153 102.412 77.0549 105.798C82.1077 101.991 85.6228 99.9455 93.4982 98.3849C93.9967 98.2862 93.8461 97.6579 93.3604 97.7353L93.3607 97.7356Z" fill="white"/>
<path d="M97.2178 100.628C89.2562 101.855 84.6648 106.694 82.7528 109.889C87.7901 104.857 91.7104 102.119 97.3553 101.278C97.9266 101.193 97.7809 100.541 97.2176 100.628L97.2178 100.628Z" fill="white"/>
<path d="M99.6206 103.149C98.3789 103.304 96.6892 104.184 95.0928 105.197C93.4963 106.21 92.2918 107.442 91.5735 109.03C93.4965 107.046 94.2663 106.509 95.4471 105.748C96.9798 104.775 98.5244 104.163 99.7781 103.799C100.366 103.629 99.9216 103.112 99.6206 103.149H99.6206Z" fill="white"/>
<path d="M160.686 58.8243C160.686 60.3692 159.434 61.6216 157.889 61.6216C156.344 61.6216 155.092 60.3692 155.092 58.8243C155.092 57.2795 156.344 56.027 157.889 56.027C159.434 56.027 160.686 57.2794 160.686 58.8243Z" fill="white" stroke="white" stroke-width="0.660673"/>
<path d="M160.686 58.8243C160.686 60.3692 159.434 61.6216 157.889 61.6216C156.344 61.6216 155.092 60.3692 155.092 58.8243C155.092 57.2795 156.344 56.027 157.889 56.027C159.434 56.027 160.686 57.2794 160.686 58.8243Z" fill="#37C871" stroke="white" stroke-width="0.660673"/>
</svg>
