<?xml version="1.0" encoding="UTF-8"?>
<svg xmlns="http://www.w3.org/2000/svg" viewBox="0 0 256 256">
  <defs>
    <style>
      .cls-1 {
        fill: #e7a41f;
      }

      .cls-2 {
        fill: #070706;
      }

      .cls-3 {
        fill: #242938;
      }

      .cls-4 {
        fill: #b3b1b0;
      }
    </style>
  </defs>
  <g id="Layer_1" data-name="Layer 1">
    <path class="cls-3" d="M60,0H196c33.1,0,60,26.9,60,60V196c0,33.1-26.9,60-60,60H60c-33.1,0-60-26.9-60-60V60C0,26.9,26.9,0,60,0Z"/>
  </g>
  <g id="logo">
    <path class="cls-4" d="M211.96,147.69c0-6.2-4.72-11.26-10.54-11.26H117.27c-5.82,0-10.54,5.05-10.54,11.26s4.71,11.26,10.54,11.26h84.15c5.82,0,10.54-5.04,10.54-11.26Z"/>
    <path class="cls-1" d="M57.12,179.73l36.07,36.47c8.14,8.19,19.38,12.14,31.8,12.14s23.66-4.28,31.82-12.49l21.64-22.05c4.26-4.3,4.11-11.41-.33-15.89-4.44-4.47-11.5-4.62-15.75-.33l-22.38,21.8c-3.86,3.91-9.21,5.54-15.13,5.54s-11.26-1.63-15.14-5.54l-35.94-36.48c-3.87-3.91-5.82-9.62-5.82-15.58s1.95-11.35,5.82-15.25l35.83-36.63c3.87-3.91,9.33-5.39,15.24-5.39s11.26,1.63,15.13,5.54l22.38,21.79c4.26,4.31,11.32,4.16,15.76-.32,4.44-4.48,4.59-11.6,.33-15.9l-21.64-22.04c-5.5-5.5-12.43-9.35-20-11.12l-.28-.06,20.46-20.93c4.28-4.3,4.13-11.42-.31-15.9-4.44-4.47-11.51-4.62-15.78-.32L57.12,115.25c-8.14,8.21-12.39,19.54-12.39,32.07s4.26,24.22,12.39,32.41Z"/>
    <path class="cls-2" d="M95.86,218.42c-1.46-.81-2.79-1.83-3.96-3.02-11.1-11.15-22.24-22.24-33.31-33.42-16.63-16.79-19.25-41.28-6.57-61.21,2.03-3.05,4.38-5.86,7.02-8.4L139.49,31.74c5.23-5.23,12.53-5.45,17.38-.56,4.68,4.71,4.41,12.17-.65,17.28-6.43,6.49-12.87,12.96-19.31,19.44-.34,1.02-1.17,1.67-1.88,2.4-7.22,7.33-14.63,14.46-21.75,21.89-.93,.97-2.19,1.56-3.11,2.55-11.9,11.9-23.94,23.66-35.67,35.72-9.49,9.76-9.17,24.57,.57,34.51,10.94,11.17,22.07,22.16,33.12,33.23,.56,.56,1.14,1.1,1.71,1.66,3.91,2.53,3.96,10.45,1.53,13.97-2.68,3.89-6.19,6.27-11.15,6.09-1.66-.05-3.04-.72-4.42-1.5Z"/>
  </g>
</svg>