<svg width="256" height="256" viewBox="0 0 256 256" fill="none" xmlns="http://www.w3.org/2000/svg">
<rect width="256" height="256" rx="60" fill="#F4F2ED"/>
<path d="M85.9492 199.926L110.48 213.546H147.576L182.278 187.491L197.834 146.632L161.935 103.405L151.764 79.1267L102.104 80.9032L102.702 94.5227L93.129 112.287L78.1711 141.303L75.1796 165.581L85.9492 199.926Z" fill="#ECEFF1"/>
<path d="M187.064 114.656C177.491 101.036 169.713 92.7463 165.525 75.5738C161.337 58.4013 166.722 63.1386 163.132 48.3347C161.337 40.6367 158.345 35.3073 155.354 31.1622C151.764 27.0171 147.576 24.6485 145.182 24.0563C139.798 21.0956 127.233 16.3583 111.677 24.6485C95.5223 32.9387 97.3172 50.7033 100.309 86.8248C100.309 89.1934 99.7105 92.1542 98.5139 94.5228C96.1206 99.8522 91.9324 104.589 88.3425 108.735C84.1543 114.656 79.9661 120.578 76.9746 127.091C69.7948 140.711 63.2134 157.883 65.0083 164.397C67.9999 163.805 105.694 220.652 105.694 221.836C108.087 221.244 118.258 221.244 127.233 221.244C139.798 220.652 146.977 220.06 157.149 222.428C157.149 220.652 156.55 218.875 156.55 217.099C156.55 213.546 157.149 210.585 157.747 206.44C158.345 203.479 158.944 200.519 159.542 196.966C153.559 202.295 142.789 208.217 132.618 209.993C123.643 211.769 108.685 208.809 101.505 199.926C102.104 199.926 103.3 199.926 103.899 199.334C105.694 198.742 107.489 198.15 108.087 196.966C109.882 194.005 108.685 191.044 107.489 189.268C106.292 187.491 97.3173 180.977 93.1291 177.425C88.9409 173.872 86.5476 172.095 84.1544 169.727C84.1544 169.727 80.5645 166.174 79.3678 164.989C78.1712 163.805 77.5729 162.621 76.9746 162.028C75.778 159.068 75.1796 155.515 75.778 150.778C76.3763 144.264 78.7695 138.934 81.7611 133.013C82.9577 130.644 85.9493 125.907 85.9493 125.907C85.9493 125.907 75.778 150.778 81.1628 158.476C81.1628 158.476 81.7611 150.778 84.1544 143.08C85.9493 137.75 88.9409 130.052 92.5307 125.907C96.1206 121.762 105.095 106.366 105.694 96.8914C105.694 92.7463 106.292 88.6012 106.292 85.6405C103.899 83.2718 145.781 77.3503 148.174 83.864C148.772 86.2326 157.149 107.55 161.935 118.801C164.328 124.131 167.32 128.868 169.115 134.789C170.91 141.303 172.106 150.185 172.106 159.068C172.106 160.844 172.106 163.805 171.508 166.766C172.705 166.766 196.039 141.895 168.517 121.17C168.517 121.17 185.269 128.868 185.868 144.264C186.466 156.699 181.081 166.766 179.885 168.542C180.483 168.542 192.449 173.872 193.047 173.872C195.441 173.872 200.227 172.095 200.227 172.095C200.826 170.319 202.62 165.581 202.62 163.805C206.809 150.185 196.637 128.276 187.064 114.656V114.656Z" fill="#263238"/>
<path d="M111.078 75.5739C115.374 75.5739 118.856 70.2716 118.856 63.7308C118.856 57.19 115.374 51.8877 111.078 51.8877C106.783 51.8877 103.3 57.19 103.3 63.7308C103.3 70.2716 106.783 75.5739 111.078 75.5739Z" fill="#ECEFF1"/>
<path d="M138.003 76.7582C143.62 76.7582 148.174 70.6605 148.174 63.1386C148.174 55.6167 143.62 49.519 138.003 49.519C132.385 49.519 127.831 55.6167 127.831 63.1386C127.831 70.6605 132.385 76.7582 138.003 76.7582Z" fill="#ECEFF1"/>
<path d="M115.424 64.5411C114.926 60.6476 112.663 57.7241 110.368 58.0111C108.073 58.2982 106.616 61.6872 107.113 65.5807C107.611 69.4741 109.874 72.3977 112.169 72.1106C114.464 71.8235 115.921 68.4345 115.424 64.5411Z" fill="#212121"/>
<path d="M137.404 73.2054C140.709 73.2054 143.387 69.7588 143.387 65.5073C143.387 61.2558 140.709 57.8093 137.404 57.8093C134.1 57.8093 131.421 61.2558 131.421 65.5073C131.421 69.7588 134.1 73.2054 137.404 73.2054Z" fill="#212121"/>
<path d="M216.98 195.781C214.587 194.597 210.398 192.82 206.809 187.491C205.014 184.53 205.612 176.24 202.62 172.687C200.825 170.318 198.432 171.503 197.834 171.503C192.449 172.687 179.885 180.977 171.508 171.503C170.311 170.318 168.517 168.542 165.525 168.542C162.533 168.542 161.337 169.726 160.14 172.095C158.944 174.464 158.944 176.24 158.944 182.162C158.944 186.899 158.944 192.228 158.345 196.373C157.149 206.44 155.354 212.361 155.354 218.283C155.354 224.797 157.149 228.942 159.542 230.718C161.337 232.495 164.328 233.679 170.91 233.679C177.491 233.679 181.679 231.31 185.868 227.165C188.859 224.205 191.252 223.02 199.629 217.099C206.21 212.954 216.382 207.624 218.177 205.848C219.373 204.663 221.168 204.071 221.168 200.518C221.168 197.558 218.775 196.373 216.98 195.781V195.781Z" fill="#FFC107"/>
<path d="M96.7189 197.558C90.7357 188.083 90.1374 186.307 85.9492 180.385C82.3593 174.464 74.5813 163.213 69.7948 163.213C66.2049 163.213 64.4099 164.989 62.0167 167.358C59.6234 169.726 57.2302 175.056 53.042 178.017C49.4521 180.977 39.2808 180.385 36.8875 183.938C34.4942 187.491 39.2808 192.82 39.2808 201.703C39.2808 205.256 36.2892 207.624 35.6909 209.993C35.0926 212.954 34.4942 214.73 35.6909 217.099C38.0841 220.652 41.0757 221.836 61.4184 225.981C72.188 228.35 82.3593 234.271 88.9408 234.863C95.5222 235.456 106.89 234.863 106.89 218.875C107.489 209.401 102.104 207.032 96.7189 197.558Z" fill="#FFC107"/>
<path d="M108.087 90.3776C104.497 88.009 101.505 85.6404 101.505 82.0875C101.505 78.5345 103.899 77.3502 107.489 74.3894C108.087 73.7973 114.668 67.8757 121.25 67.8757C127.831 67.8757 135.609 72.0208 138.601 73.2051C143.986 74.3894 149.37 75.5737 148.772 79.7188C148.174 85.6404 147.576 86.8247 141.592 89.7855C137.404 90.9698 129.626 97.4835 124.241 97.4835C121.848 97.4835 118.258 97.4835 115.865 96.8913C114.07 96.2992 111.078 93.3384 108.087 90.3776V90.3776Z" fill="#FFC107"/>
<path d="M106.89 85.6406C108.087 86.8249 109.882 88.0092 111.677 88.6014C112.873 89.1935 114.668 89.7857 114.668 89.7857C117.062 89.7857 118.857 89.7857 120.053 89.7857C123.045 89.7857 127.233 88.6014 131.421 86.2328C135.609 84.4563 136.208 83.272 139.199 82.0877C142.191 80.3112 145.182 78.5347 143.986 77.9426C142.789 77.3504 141.592 77.9426 137.404 80.3112C133.814 82.6798 130.823 83.8641 127.233 85.6406C125.438 86.2328 123.045 87.4171 121.25 87.4171C119.455 87.4171 117.66 87.4171 115.865 87.4171C114.07 87.4171 112.873 86.8249 111.078 86.2328C109.882 85.6406 109.283 85.0484 108.685 85.0484C107.489 84.4563 105.095 82.0877 103.899 81.4955C103.899 81.4955 102.702 81.4955 103.3 82.0877C105.095 83.8641 105.694 84.4563 106.89 85.6406Z" fill="#634703"/>
<path d="M124.84 72.6131C125.438 73.7974 126.635 73.7974 127.233 74.3896C127.831 74.9817 128.429 74.9817 128.429 74.9817C129.028 74.3896 128.429 73.2052 127.831 73.2052C127.831 72.0209 124.84 72.0209 124.84 72.6131V72.6131Z" fill="#634703"/>
<path d="M115.267 73.7975C115.267 74.3896 116.463 74.9818 116.463 74.3896C117.062 73.7975 117.66 73.2053 118.258 73.2053C119.455 72.6131 118.856 72.021 117.062 72.021C115.865 72.6132 115.865 73.2053 115.267 73.7975V73.7975Z" fill="#634703"/>
<path d="M173.303 178.609C173.303 179.201 173.303 179.793 173.303 180.385C174.5 182.754 177.491 183.346 179.884 183.346C183.474 183.346 187.064 180.978 188.859 178.609C188.859 178.017 189.458 177.425 190.056 176.832C191.252 175.056 191.851 173.872 192.449 173.28C192.449 173.28 191.851 172.687 191.851 172.095C191.252 170.911 189.458 169.727 187.064 169.134C185.269 168.542 182.278 167.95 181.081 167.95C175.696 167.358 172.705 169.134 170.91 170.911C170.91 170.911 171.508 170.911 171.508 171.503C172.705 172.687 173.303 173.872 173.303 175.648C173.901 176.832 173.303 177.425 173.303 178.609V178.609Z" fill="#455A64"/>
</svg>
