<svg width="256" height="256" viewBox="0 0 256 256" fill="none" xmlns="http://www.w3.org/2000/svg">
<g clip-path="url(#clip0_164_576)">
<path d="M196 0H60C26.8629 0 0 26.8629 0 60V196C0 229.137 26.8629 256 60 256H196C229.137 256 256 229.137 256 196V60C256 26.8629 229.137 0 196 0Z" fill="#F4F2ED"/>
<g clip-path="url(#clip1_164_576)">
<path d="M40 128.459C40 136.995 41.2298 145.243 43.5089 153.042L91.7843 137.229C91.1745 134.596 90.8498 131.854 90.8498 129.035C90.8498 125.772 91.2935 122.615 92.1021 119.608L43.4829 103.965C41.2195 111.738 40 119.955 40 128.459Z" fill="#6A7A55"/>
<path d="M103.982 101.121L73.459 59.6464C60.6389 69.7273 50.7076 83.3131 45.1035 98.9585L93.8362 114.638C96.1235 109.366 99.6174 104.74 103.982 101.121Z" fill="#A09440"/>
<path d="M124.91 92.841V41C107.391 41.5093 91.1654 47.1708 77.6904 56.5176L108.264 98.0609C113.169 95.0702 118.836 93.2061 124.91 92.841Z" fill="#AFA148"/>
<path d="M93.3505 142.254L45.1353 158.046C50.82 173.868 60.929 187.58 73.9768 197.682L103.734 156.74C99.1651 152.882 95.5715 147.913 93.3505 142.254Z" fill="#4C5C59"/>
<path d="M78.2363 200.773C91.6033 209.896 107.626 215.415 124.91 215.918V165.228C118.722 164.856 112.957 162.926 107.99 159.836L78.2363 200.773Z" fill="#48555D"/>
<path d="M176.82 56.184C163.463 47.0525 147.449 41.5216 130.172 41.0034V92.906C136.042 93.3961 141.513 95.2862 146.255 98.2366L176.82 56.184Z" fill="#E3B23B"/>
<path d="M130.172 165.163V215.915C147.584 215.392 163.715 209.779 177.135 200.519L146.889 159.422C142.003 162.605 136.307 164.651 130.172 165.163Z" fill="#903024"/>
<path d="M151.081 156.238L181.375 197.402C194.386 187.222 204.436 173.437 210.037 157.553L161.058 141.795C158.946 147.4 155.495 152.349 151.081 156.238Z" fill="#D65841"/>
<path d="M215 128.459C215 119.817 213.742 111.47 211.409 103.586L162.16 119.716C162.95 122.691 163.383 125.811 163.383 129.035C163.383 131.682 163.094 134.262 162.555 136.748L211.635 152.539C213.821 144.888 215 136.812 215 128.459Z" fill="#E6703E"/>
<path d="M160.441 114.742L209.765 98.5859C204.069 82.9063 194.021 69.3158 181.077 59.2786L150.508 101.337C154.782 104.947 158.2 109.532 160.441 114.742Z" fill="#F4A83A"/>
</g>
</g>
<defs>
<clipPath id="clip0_164_576">
<rect width="256" height="256" fill="white"/>
</clipPath>
<clipPath id="clip1_164_576">
<rect width="175" height="175" fill="white" transform="translate(40 41)"/>
</clipPath>
</defs>
</svg>
