<svg width="256" height="256" fill="none" version="1.1" viewBox="0 0 256 256" xmlns="http://www.w3.org/2000/svg">
 <rect width="256" height="256" rx="60" fill="#f4f2ed"/>
 <g transform="matrix(4.0261 0 0 4.0261 30.972 30.972)" clip-rule="evenodd" fill-rule="evenodd">
  <circle cx="24.1" cy="24.1" r="23.5" fill="#457eff"/>
  <path d="m18.2 10.8c-0.4 1.9-2.4 12.5-2.8 14.7s1.4 4.1 3.1 4.1h2.7c0.7 0 1.8 0.5 1.4 2.4-0.4 1.8-0.8 3.7-1.2 5.5s1.7 2.5 2.6 1.1 7.6-12.1 8.3-13.5-0.5-3.6-2.4-3.6h-3.7c-1 0-1.1-0.7-0.8-2.2 0.4-1.5 0.8-3.4 1.5-6.2s-2-4.3-3.4-4.3h-3.4c-0.4 0-1.5 0.1-1.9 2z" fill="#fff"/>
 </g>
</svg>
