<?xml version="1.0" encoding="utf-8"?>
<!-- Uploaded to: SVG Repo, www.svgrepo.com, Generator: SVG Repo Mixer Tools -->
<svg fill="#000000" width="256" height="256" viewBox="0 0 32 32" version="1.1" xmlns="http://www.w3.org/2000/svg">
<title>Mailchimp</title>
<path d="M7.337 17.762c-0.004-0-0.008-0-0.013-0-0.412 0-0.784 0.175-1.045 0.454l-0.001 0.001c-0.297 0.316-0.479 0.742-0.479 1.21 0 0.098 0.008 0.194 0.023 0.287l-0.001-0.010c0.034 0.091 0.087 0.117 0.125 0.122 0.080 0.010 0.2-0.049 0.275-0.25l0.021-0.065c0.050-0.176 0.117-0.329 0.201-0.471l-0.005 0.009c0.156-0.236 0.42-0.39 0.721-0.39 0.176 0 0.34 0.053 0.476 0.143l-0.003-0.002c0.229 0.152 0.378 0.409 0.378 0.701 0 0.112-0.022 0.219-0.062 0.316l0.002-0.006c-0.105 0.259-0.166 0.56-0.166 0.875 0 0.009 0 0.018 0 0.027v-0.001c-0 0.010-0.001 0.022-0.001 0.034 0 0.461 0.349 0.84 0.796 0.888l0.004 0c0.019 0.002 0.041 0.003 0.063 0.003 0.244 0 0.458-0.128 0.579-0.32l0.002-0.003c0.011-0.020 0.018-0.043 0.018-0.068 0-0.034-0.012-0.064-0.032-0.088l0 0c-0.054-0.066-0.141-0.046-0.225-0.026-0.060 0.017-0.129 0.027-0.2 0.027h-0c-0.004 0-0.008 0-0.012 0-0.146 0-0.276-0.073-0.354-0.184l-0.001-0.001c-0.044-0.087-0.069-0.19-0.069-0.299 0-0.121 0.032-0.235 0.087-0.334l-0.002 0.003c0.014-0.035 0.031-0.072 0.050-0.115 0.168-0.274 0.268-0.606 0.268-0.962 0-0.246-0.048-0.482-0.135-0.697l0.004 0.012c-0.213-0.434-0.623-0.742-1.109-0.811l-0.008-0.001c-0.051-0.007-0.111-0.012-0.172-0.012h-0.001zM7.425 16.604c0.060 0 0.122 0 0.186 0.004 1.402 0.168 2.489 1.315 2.564 2.729l0 0.007c0.271 1.762-0.16 3.553-1.811 3.835-0.123 0.021-0.264 0.033-0.409 0.033-0.021 0-0.041-0-0.062-0.001l0.003 0c-1.693-0.124-3.057-1.388-3.334-3.021l-0.003-0.021c-0.034-0.169-0.053-0.364-0.053-0.563 0-1.453 1.030-2.666 2.401-2.947l0.019-0.003c0.149-0.031 0.32-0.050 0.496-0.052h0.002zM21.965 16.574c-0.009-0.001-0.019-0.001-0.030-0.001-0.137 0-0.258 0.074-0.323 0.184l-0.001 0.002c-0.004 0.024-0.006 0.051-0.006 0.079 0 0.31 0.251 0.561 0.561 0.561 0.158 0 0.3-0.065 0.402-0.17l0-0c0.011-0.039 0.018-0.084 0.018-0.13 0-0.21-0.135-0.388-0.322-0.453l-0.003-0.001c-0.086-0.044-0.188-0.071-0.296-0.072h-0zM19.14 16.074c-0.002 0-0.005-0-0.008-0-0.065 0-0.13 0.004-0.193 0.011l0.008-0.001c-0.284 0.032-0.538 0.143-0.744 0.311l0.003-0.002c-0.097 0.070-0.165 0.174-0.189 0.293l-0.001 0.003c0 0 0 0.001 0 0.001 0 0.052 0.042 0.094 0.094 0.094v0c0.107-0.016 0.203-0.043 0.293-0.082l-0.008 0.003c0.259-0.101 0.559-0.159 0.873-0.159 0.133 0 0.264 0.011 0.392 0.031l-0.014-0.002c0.196 0.022 0.287 0.034 0.331-0.032 0.009-0.015 0.014-0.034 0.014-0.053 0-0.027-0.010-0.052-0.026-0.072l0 0c-0.194-0.212-0.473-0.345-0.782-0.345-0.015 0-0.030 0-0.045 0.001l0.002-0zM23.614 15.859c-0.214-0.004-0.391 0.232-0.396 0.525-0.005 0.295 0.164 0.537 0.379 0.54 0.215 0.004 0.392-0.231 0.397-0.525 0.005-0.295-0.165-0.536-0.38-0.54zM18.513 14.847c-0.003 0-0.006-0-0.009-0-0.474 0-0.911 0.153-1.267 0.412l0.006-0.004c-0.2 0.146-0.389 0.35-0.362 0.472 0.010 0.040 0.039 0.070 0.11 0.079 0.371-0.111 0.844-0.22 1.326-0.302l0.076-0.011c0.024-0.001 0.051-0.001 0.079-0.001 0.391 0 0.761 0.093 1.088 0.258l-0.014-0.006c0.299 0.13 0.482 0.216 0.554 0.141 0.046-0.047 0.032-0.137-0.039-0.255-0.192-0.274-0.454-0.488-0.761-0.617l-0.012-0.004c-0.229-0.101-0.495-0.16-0.775-0.161h-0.001zM23.087 12.915c-0.027 0-0.053 0.003-0.078 0.007l0.003-0c-0.419 0.067-0.434 0.585-0.285 1.3 0.068 0.363 0.208 0.685 0.405 0.964l-0.005-0.008c0.093-0.013 0.201-0.020 0.311-0.020s0.218 0.007 0.324 0.021l-0.012-0.001c0.063-0.192 0.099-0.412 0.099-0.641 0-0.191-0.025-0.375-0.072-0.551l0.003 0.015c-0.14-0.669-0.326-1.090-0.692-1.085zM23.059 10.19l0.070 0.001c0.213 0.009 0.409 0.076 0.574 0.185l-0.004-0.003c0.667 0.444 0.762 1.52 0.797 2.306 0.019 0.45 0.074 1.536 0.092 1.847 0.042 0.714 0.23 0.814 0.609 0.938 0.212 0.071 0.412 0.122 0.704 0.205 0.669 0.137 1.255 0.425 1.744 0.828l-0.007-0.006c0.165 0.162 0.279 0.376 0.315 0.615l0.001 0.006c0.104 0.76-0.59 1.7-2.427 2.551-1.458 0.655-3.16 1.037-4.951 1.037-0.415 0-0.824-0.020-1.229-0.060l0.051 0.004-0.589-0.066c-1.347-0.181-2.116 1.558-1.307 2.75 0.778 0.79 1.859 1.279 3.055 1.279 0.107 0 0.213-0.004 0.318-0.012l-0.014 0.001c0.126 0.006 0.273 0.010 0.42 0.010 2.447 0 4.663-0.993 6.265-2.599l0-0c0.024-0.031 0.049-0.065 0.072-0.101l0.003-0.005c0.045-0.069 0.008-0.106-0.050-0.067-1.825 1.269-4.087 2.028-6.527 2.028-0.43 0-0.855-0.024-1.272-0.070l0.052 0.005c-0.32-0.057-0.602-0.136-0.872-0.238l0.033 0.011c-0.319-0.125-0.985-0.43-1.066-1.113 0.726 0.277 1.566 0.437 2.443 0.437 0.826 0 1.619-0.142 2.356-0.403l-0.049 0.015c0.031-0.015 0.053-0.046 0.053-0.082 0-0.003-0-0.006-0-0.008l0 0c-0.004-0.043-0.040-0.075-0.083-0.075-0.003 0-0.006 0-0.009 0.001l0-0c-0.381 0.048-0.822 0.076-1.269 0.076-1.208 0-2.37-0.201-3.453-0.57l0.075 0.022c0.246-0.8 0.9-0.51 1.887-0.431 0.244 0.015 0.529 0.024 0.817 0.024 1.332 0 2.62-0.189 3.838-0.541l-0.097 0.024c1.303-0.378 2.438-0.958 3.434-1.713l-0.026 0.019c0.209 0.469 0.374 1.014 0.469 1.583l0.006 0.040c0.035-0.006 0.076-0.009 0.117-0.009 0.141 0 0.273 0.037 0.387 0.102l-0.004-0.002c0.216 0.132 0.374 0.407 0.266 1.118-0.22 1.339-0.841 2.505-1.733 3.399l0-0c-0.583 0.629-1.272 1.15-2.041 1.536l-0.041 0.019c-0.381 0.206-0.83 0.401-1.297 0.557l-0.062 0.018c-0.767 0.332-1.659 0.525-2.597 0.525-2.485 0-4.653-1.355-5.807-3.366l-0.017-0.033c-0.085-0.181-0.165-0.397-0.229-0.621l-0.008-0.031c-0.134-0.462-0.212-0.993-0.212-1.542 0-1.475 0.559-2.82 1.476-3.835l-0.004 0.005c0.091-0.080 0.152-0.192 0.165-0.318l0-0.002c-0.012-0.117-0.058-0.221-0.128-0.305l0.001 0.001c-1.084-0.916-1.768-2.277-1.768-3.798 0-0.095 0.003-0.188 0.008-0.282l-0.001 0.013c0.19-1.486 1.429-2.629 2.941-2.668l0.004-0c0.111 0.005 0.221 0.012 0.332 0.019 0.566 0.034 1.062 0.106 1.528 0.125 0.082 0.008 0.177 0.012 0.274 0.012 0.787 0 1.504-0.298 2.045-0.787l-0.003 0.002c0.235-0.242 0.536-0.419 0.875-0.499l0.012-0.002c0.080-0.022 0.171-0.035 0.265-0.035 0.001 0 0.002 0 0.004 0h-0zM19.282 6.185c0.001-0 0.002-0 0.002-0 0.029 0 0.052 0.023 0.052 0.052 0 0.016-0.008 0.031-0.019 0.040l-0 0c-0.196 0.151-0.365 0.321-0.511 0.511l-0.005 0.007c-0.006 0.008-0.010 0.019-0.010 0.030 0 0.027 0.022 0.049 0.049 0.050h0c1.006 0.035 1.944 0.296 2.774 0.734l-0.035-0.017c0.051 0.029 0.015 0.129-0.043 0.115-0.737-0.174-1.584-0.273-2.453-0.273-0.889 0-1.754 0.104-2.584 0.301l0.076-0.015c-1.533 0.353-2.882 0.97-4.065 1.806l0.036-0.024c-0.008 0.006-0.019 0.010-0.030 0.010-0.028 0-0.051-0.023-0.051-0.051 0-0.013 0.005-0.024 0.012-0.033l-0 0c1.041-1.221 2.276-2.239 3.665-3.015l0.067-0.035c0.007-0.004 0.014-0.006 0.023-0.006 0.026 0 0.048 0.021 0.048 0.048 0 0.008-0.002 0.016-0.006 0.023l0-0c-0.141 0.244-0.26 0.525-0.341 0.822l-0.006 0.025c-0.001 0.003-0.001 0.007-0.001 0.010 0 0.028 0.023 0.051 0.051 0.051 0.010 0 0.020-0.003 0.028-0.009l-0 0c0.929-0.618 2.044-1.033 3.246-1.155l0.031-0.003zM15.175 2.095c0.006-0 0.013-0 0.020-0 0.2 0 0.393 0.026 0.577 0.076l-0.015-0.004c0.603 0.451 1.128 0.954 1.587 1.514l0.013 0.016c-1.67 0.964-3.108 1.966-4.454 3.075l0.055-0.044c-2.826 2.286-4.996 5.278-6.25 8.711l-0.044 0.139c-1.018 0.194-1.876 0.763-2.445 1.554l-0.008 0.012c-0.388-0.302-0.73-0.632-1.034-0.994l-0.008-0.010c-0.872-1.657 0.951-4.876 2.226-6.694 2.902-4.143 7.32-7.358 9.782-7.35zM15.084 1.004c-5.593-0.019-16.354 12.804-12.334 16.2l0.987 0.836c-0.194 0.503-0.306 1.086-0.306 1.694 0 0.192 0.011 0.382 0.033 0.568l-0.002-0.023c0.142 1.141 0.702 2.13 1.518 2.827l0.006 0.005c0.789 0.719 1.833 1.171 2.982 1.204l0.007 0c1.855 3.971 5.815 6.673 10.407 6.673 0.026 0 0.051-0 0.077-0l-0.004 0c0.295 0.028 0.637 0.044 0.983 0.044 4.462 0 8.307-2.644 10.053-6.451l0.028-0.069c0.339-0.835 0.558-1.801 0.609-2.812l0.001-0.021c0-1.195-0.675-1.69-1.106-1.69-0.012-0.046-0.097-0.357-0.215-0.732-0.079-0.257-0.16-0.469-0.252-0.673l0.015 0.036c0.274-0.376 0.438-0.847 0.438-1.357 0-0.116-0.009-0.231-0.025-0.343l0.002 0.013c-0.075-0.476-0.298-0.891-0.619-1.204l-0-0c-0.605-0.517-1.344-0.896-2.157-1.078l-0.034-0.006-0.557-0.155c-0.003-0.024-0.030-1.316-0.054-1.871-0.012-0.589-0.101-1.154-0.258-1.689l0.011 0.045c-0.202-0.799-0.6-1.486-1.139-2.034l0.001 0.001c1.229-1.105 2.057-2.634 2.251-4.356l0.003-0.032c-0.004-2.618-3.219-3.41-7.18-1.769l-0.84 0.356q-0.769-0.755-1.54-1.508c-0.46-0.392-1.061-0.631-1.717-0.631-0.026 0-0.052 0-0.077 0.001l0.004-0z"></path>
</svg>