<?xml version="1.0" encoding="UTF-8" standalone="no" ?>
<!DOCTYPE svg PUBLIC "-//W3C//DTD SVG 1.1//EN" "http://www.w3.org/Graphics/SVG/1.1/DTD/svg11.dtd">
<svg xmlns="http://www.w3.org/2000/svg" xmlns:xlink="http://www.w3.org/1999/xlink" version="1.1" width="256" height="256" viewBox="0 0 256 256" xml:space="preserve">
<rect width="256" height="256" rx="60" fill="#F4F2ED"/>
<g transform="matrix(0.6960497172 0 0 0.6960497172 128 124.9441562417)" id="jsYjmZbUueRmr4tI1E09q"  >
<g style=""   >
		<g transform="matrix(1 0 0 1 -121.23 103.925)" id="Pw2helqaIau7D3zqKh6Wn"  >
<path style="stroke: none; stroke-width: 1; stroke-dasharray: none; stroke-linecap: butt; stroke-dashoffset: 0; stroke-linejoin: miter; stroke-miterlimit: 4; fill: rgb(0,53,69); fill-rule: nonzero; opacity: 1;"  transform=" translate(-39.29, -236.685)" d="M 61.74 214.91 L 73 258.46 L 64.5 258.46 L 57 227.09 L 42.86 258.46 L 35.68 258.46 L 21.62 227.27 L 13.9 258.46 L 5.58 258.46 L 16.740000000000002 214.90999999999997 L 24.1 214.90999999999997 L 39.3 248.62999999999997 L 54.44 214.90999999999997 Z" stroke-linecap="round" />
</g>
		<g transform="matrix(1 0 0 1 -66.175 109.77)" id="IJMwbWZUyV9BLk30SdTpk"  >
<path style="stroke: none; stroke-width: 1; stroke-dasharray: none; stroke-linecap: butt; stroke-dashoffset: 0; stroke-linejoin: miter; stroke-miterlimit: 4; fill: rgb(0,53,69); fill-rule: nonzero; opacity: 1;"  transform=" translate(-94.345, -242.53)" d="M 105.11 231.74 L 105.11 226.67000000000002 L 113.32 226.67000000000002 L 113.32 258.46000000000004 L 105.10999999999999 258.46000000000004 L 105.10999999999999 253.34000000000003 C 102.93999999999998 257.02000000000004 98.47999999999999 259.13000000000005 93.04999999999998 259.13000000000005 C 81.69999999999999 259.13000000000005 75.36999999999998 251.13000000000005 75.36999999999998 241.93000000000006 C 75.36999999999998 233.06000000000006 81.36999999999998 225.93000000000006 91.83999999999997 225.93000000000006 C 97.81 226 102.76 228 105.11 231.74 Z M 84.11 242.36 C 84.11 248.21 87.79 253.22000000000003 94.91 253.22000000000003 C 101.78 253.22000000000003 105.52 248.33000000000004 105.52 242.54000000000002 C 105.52 236.75 101.66 231.8 94.52 231.8 C 87.68 231.8 84.12 236.74 84.12 242.36 Z" stroke-linecap="round" />
</g>
		<g transform="matrix(1 0 0 1 -24.495 109.4692984423)" id="iIF1PRWduOP61r-7WkmeC"  >
<path style="stroke: none; stroke-width: 1; stroke-dasharray: none; stroke-linecap: butt; stroke-dashoffset: 0; stroke-linejoin: miter; stroke-miterlimit: 4; fill: rgb(0,53,69); fill-rule: nonzero; opacity: 1;"  transform=" translate(-136.025, -242.2292984423)" d="M 131.83 258.46 L 123.63000000000001 258.46 L 123.63000000000001 226.67 L 131.83 226.67 L 131.83 233.79 C 133.74675626945776 229.13386048214235 138.2552406036926 226.0691926842637 143.29 226 C 145.03610365824642 225.9759876103551 146.77274174323134 226.26034940204855 148.42 226.84 L 146.67 232.84 C 145.25316141022117 232.46402681778486 143.79570106598874 232.2625346042965 142.32999999999998 232.24 C 136.41 232.24 131.82999999999998 236.70000000000002 131.82999999999998 243.24 Z" stroke-linecap="round" />
</g>
		<g transform="matrix(1 0 0 1 -1.5460643988 103.8322380854)" id="ohIIB14Zo270WRxUqr-R8"  >
<path style="stroke: none; stroke-width: 1; stroke-dasharray: none; stroke-linecap: butt; stroke-dashoffset: 0; stroke-linejoin: miter; stroke-miterlimit: 4; fill: rgb(0,53,69); fill-rule: nonzero; opacity: 1;"  transform=" translate(-158.9739356012, -236.5922380854)" d="M 152.52 218.28 C 152.48743062749446 217.1140451403046 152.94468244191972 215.98774395154666 153.78078116214036 215.17444792369568 C 154.616879882361 214.36115189584473 155.75539111063193 213.9352108521618 156.92000000000002 214 C 158.10646462317226 213.96140387534066 159.25674399227438 214.41161080069082 160.1017972965425 215.2453211075862 C 160.9468506008106 216.07903141448156 161.4125600269324 217.22312215958726 161.39000000000001 218.41 C 161.4132509952011 219.5805122772871 160.94101553535043 220.7063932742587 160.08971141167967 221.51008531047583 C 159.2384072880089 222.31377734669297 158.08723966296498 222.72050507863756 156.92000000000002 222.63 C 155.74700233423906 222.68067119557637 154.60592188471205 222.24037551410194 153.770983335037 221.41492490249135 C 152.9360447853619 220.58947429088076 152.48273736334116 219.45350014480232 152.52 218.28 Z M 152.88000000000002 226.67000000000002 L 161.09000000000003 226.67000000000002 L 161.09000000000003 249.9 C 161.09000000000003 251.34 161.39000000000004 252.37 162.59000000000003 252.37 C 163.1176538716791 252.35693758289412 163.6430813594652 252.29669748875304 164.16000000000003 252.19 L 165.43000000000004 258.19 C 163.70172554627752 258.8714368620416 161.85764523776078 259.2110464952859 160.00000000000003 259.19 C 156.56000000000003 259.19 152.88000000000002 258.19 152.88000000000002 250.38 Z" stroke-linecap="round" />
</g>
		<g transform="matrix(1 0 0 1 26.505 109.77)" id="166wzkt7GuMo6M6lTHojk"  >
<path style="stroke: none; stroke-width: 1; stroke-dasharray: none; stroke-linecap: butt; stroke-dashoffset: 0; stroke-linejoin: miter; stroke-miterlimit: 4; fill: rgb(0,53,69); fill-rule: nonzero; opacity: 1;"  transform=" translate(-187.025, -242.53)" d="M 197.76 231.74 L 197.76 226.67000000000002 L 206 226.67000000000002 L 206 258.46000000000004 L 197.79 258.46000000000004 L 197.79 253.34000000000003 C 195.62 257.02000000000004 191.16 259.13000000000005 185.73 259.13000000000005 C 174.39 259.13000000000005 168.04999999999998 251.13000000000005 168.04999999999998 241.93000000000006 C 168.04999999999998 233.06000000000006 174.04999999999998 225.93000000000006 184.51999999999998 225.93000000000006 C 190.46 226 195.41 228 197.76 231.74 Z M 176.76 242.36 C 176.76 248.21 180.44 253.22000000000003 187.56 253.22000000000003 C 194.44 253.22000000000003 198.18 248.33000000000004 198.18 242.54000000000002 C 198.18 236.75 194.31 231.8 187.18 231.8 C 180.33 231.8 176.77 236.74 176.77 242.36 Z" stroke-linecap="round" />
</g>
		<g transform="matrix(1 0 0 1 80.2206444116 103.925)" id="kkBN8SQvmC_n5V4_B_9PX"  >
<path style="stroke: none; stroke-width: 1; stroke-dasharray: none; stroke-linecap: butt; stroke-dashoffset: 0; stroke-linejoin: miter; stroke-miterlimit: 4; fill: rgb(0,53,69); fill-rule: nonzero; opacity: 1;"  transform=" translate(-240.7406444116, -236.685)" d="M 218.57 214.91 L 238.24 214.91 C 254.77 214.91 263.03000000000003 224.01999999999998 262.91 236.68 C 263.03000000000003 249.84 253.91000000000003 258.46000000000004 239.69000000000003 258.46000000000004 L 218.57 258.46000000000004 Z M 224 218.77 L 224 254.66000000000003 L 239 254.66000000000003 C 252.15 254.66000000000003 257.16 245.79000000000002 257.16 236.56000000000003 C 257.16 226.13000000000002 250.89000000000001 218.77000000000004 239.00000000000003 218.77000000000004 Z" stroke-linecap="round" />
</g>
		<g transform="matrix(1 0 0 1 131.2850697492 103.925)" id="LM_1SkQDahYrAPb_t_Gni"  >
<path style="stroke: none; stroke-width: 1; stroke-dasharray: none; stroke-linecap: butt; stroke-dashoffset: 0; stroke-linejoin: miter; stroke-miterlimit: 4; fill: rgb(0,53,69); fill-rule: nonzero; opacity: 1;"  transform=" translate(-291.8050697492, -236.685)" d="M 296.45 258.46 L 271.45 258.46 L 271.45 214.91 L 294 214.91 C 302.62 214.91 310.83 216.53 310.71 226.19 C 310.71 233 306.47999999999996 234.88 302.02 235.6 C 308.34999999999997 236.14 312.15999999999997 240.18 312.15999999999997 246.7 C 312.2 256.47 303.63 258.46 296.45 258.46 Z M 294.58 233.90999999999997 C 303.21 233.90999999999997 305.14 230.58999999999997 305.14 226.36999999999998 C 305.14 220.02999999999997 301.28 218.58999999999997 294.58 218.58999999999997 L 276.66 218.58999999999997 L 276.66 233.90999999999997 Z M 294.82 237.58999999999997 L 276.66 237.58999999999997 L 276.66 254.77999999999997 L 295.6 254.77999999999997 C 300.91 254.77999999999997 306.52000000000004 253.02999999999997 306.52000000000004 246.33999999999997 C 306.52 238.62 300.07 237.59 294.82 237.59 Z" stroke-linecap="round" />
</g>
		<g transform="matrix(1 0 0 1 8.2752699425 -30.9253023651)" id="38UjMEu9TSQZfbqwe1Vuf"  >
<path style="stroke: none; stroke-width: 1; stroke-dasharray: none; stroke-linecap: butt; stroke-dashoffset: 0; stroke-linejoin: miter; stroke-miterlimit: 4; fill: rgb(0,53,69); fill-rule: nonzero; opacity: 1;"  transform=" translate(-168.7952699425, -101.8346976349)" d="M 314.08 7.35 C 313.2831499556664 6.693452747222579 312.271505617528 6.355050591859385 311.24 6.3999999999999995 C 308.41 6.3999999999999995 304.75 8.32 302.78000000000003 9.35 L 302.00000000000006 9.75 C 298.69548540929964 11.34973088531123 295.09809774194355 12.255033741996863 291.43000000000006 12.41 C 287.6700000000001 12.53 284.43000000000006 12.75 280.21000000000004 13.19 C 255.21000000000004 15.76 244.06000000000003 34.92 233.32000000000005 53.449999999999996 C 227.47 63.53 221.43 74 213.15 82 C 211.43684930582094 83.66119756496263 209.6162500124909 85.20787182700266 207.70000000000002 86.63 C 199.13 93 188.37 97.55 180 100.77 C 171.94 103.85 163.14 106.61999999999999 154.64 109.3 C 146.85 111.75 139.5 114.07 132.73999999999998 116.58 C 129.68999999999997 117.71 127.09999999999998 118.58 124.80999999999997 119.34 C 118.64999999999998 121.34 114.20999999999998 122.87 107.71999999999997 127.34 C 105.18999999999997 129.07 102.64999999999998 130.94 100.92999999999996 132.34 C 95.77826473586825 136.45055401265108 91.21856898949763 141.25253617506502 87.37999999999998 146.61 C 84.0790715861449 151.55196099067598 80.26450368515553 156.13078326901652 76 160.27 C 74.63 161.61 72.2 162.27 68.56 162.27 C 64.3 162.27 59.13 161.39000000000001 53.660000000000004 160.46 C 48.02 159.46 42.190000000000005 158.51000000000002 37.190000000000005 158.51000000000002 C 33.13 158.51000000000002 30.020000000000003 159.17000000000002 27.700000000000003 160.51000000000002 C 27.700000000000003 160.51000000000002 23.790000000000003 162.79000000000002 22.140000000000004 165.74 L 23.760000000000005 166.47 C 26.272178447028875 167.8320009944655 28.598058929689312 169.51255047615655 30.680000000000007 171.47 C 32.852183283140455 173.47630099216227 35.271767030550706 175.19689387920957 37.88000000000001 176.59 C 38.71259263805271 176.89527768402596 39.469734324189616 177.376164971167 40.1 178 C 39.42 179 38.42 180.29 37.370000000000005 181.67 C 31.600000000000005 189.22 28.230000000000004 193.98999999999998 30.160000000000004 196.58999999999997 C 31.08502521514206 197.07049550069036 32.11820120480919 197.30468205834825 33.160000000000004 197.26999999999998 C 45.74 197.26999999999998 52.5 193.99999999999997 61.050000000000004 189.85999999999999 C 63.53 188.66 66.05000000000001 187.42999999999998 69.05000000000001 186.16 C 74.05000000000001 183.99 79.43 180.53 85.14000000000001 176.87 C 92.61 172 100.42 167 108 164.59 C 114.22947257075836 162.69040783659653 120.71827718837821 161.77934322569826 127.23000000000002 161.89000000000001 C 135.23000000000002 161.89000000000001 143.65 162.96 151.77 164.00000000000003 C 157.82000000000002 164.78000000000003 164.09 165.58000000000004 170.24 165.95000000000002 C 172.63 166.09 174.84 166.16000000000003 176.99 166.16000000000003 C 179.8660909989383 166.16842665787877 182.74045735171504 166.01819845128765 185.60000000000002 165.71000000000004 L 186.29000000000002 165.47000000000003 C 190.60000000000002 162.82000000000002 192.62000000000003 157.13000000000002 194.58 151.63000000000002 C 195.84 148.09000000000003 196.9 144.91000000000003 198.58 142.89000000000001 C 198.67908522195563 142.7913804699627 198.7861125565423 142.7010761564052 198.9 142.62 C 199.062121942304 142.5298083267379 199.26498226883288 142.56292838004876 199.39000000000001 142.70000000000002 C 199.39000000000001 142.70000000000002 199.39000000000001 142.75000000000003 199.39000000000001 142.86 C 198.39000000000001 164.37 189.73000000000002 178.03000000000003 180.97000000000003 190.17000000000002 L 175.12000000000003 196.44000000000003 C 175.12000000000003 196.44000000000003 183.31000000000003 196.44000000000003 187.97000000000003 194.64000000000001 C 204.97000000000003 189.56 217.8 178.36 227.14000000000004 160.5 C 229.44332111496078 155.9152475102181 231.5028570404521 151.21202851667312 233.31000000000006 146.41000000000003 C 233.47000000000003 146.01 234.94000000000003 145.27 234.80000000000004 147.34 C 234.75000000000003 147.95000000000002 234.71000000000004 148.63 234.66000000000005 149.34 L 234.66000000000005 149.34 C 234.66000000000005 149.76 234.66000000000005 150.19 234.58000000000004 150.62 C 234.34000000000003 153.62 233.63000000000005 159.96 233.63000000000005 159.96 L 238.88000000000005 157.15 C 251.54000000000005 149.15 261.30000000000007 133.01 268.70000000000005 107.9 C 271.78000000000003 97.44 274.04 87.05000000000001 276.03000000000003 77.9 C 278.41 66.9 280.46000000000004 57.470000000000006 282.81 53.81 C 286.5 48.07 292.13 44.190000000000005 297.58 40.42 C 298.32 39.910000000000004 299.07 39.42 299.8 38.88 C 306.65000000000003 34.07 313.46000000000004 28.520000000000003 314.96000000000004 18.17 L 314.96000000000004 17.94 C 316.05 10.22 315.13 8.25 314.08 7.35 Z" stroke-linecap="round" />
</g>
</g>
</g>
</svg>