<svg xmlns="http://www.w3.org/2000/svg" width="256" height="256" fill="none"><path fill="#003545" d="M60 0h136c33.1 0 60 26.9 60 60v136c0 33.1-26.9 60-60 60H60c-33.1 0-60-26.9-60-60V60C0 26.9 26.9 0 60 0z"/><path fill="#FFF" d="M227.1 63.6c-.5-.5-1.2-.7-1.9-.7-1.9 0-4.4 1.3-5.8 2-.2.1-.4.2-.5.3-2.2 1.1-4.7 1.7-7.2 1.8-2.6.1-4.8.2-7.7.5-17.1 1.8-24.7 14.8-32 27.5-4 6.9-8.1 14-13.8 19.5-1.2 1.1-2.4 2.2-3.7 3.2-5.8 4.4-13.2 7.4-18.9 9.6-5.5 2.1-11.5 4-17.3 5.8-5.3 1.7-10.3 3.3-14.9 5-2.1.8-3.9 1.3-5.4 1.9-4.2 1.4-7.2 2.4-11.7 5.4-1.7 1.2-3.5 2.5-4.7 3.4-3.5 2.8-6.6 6.1-9.2 9.7-2.2 3.4-4.8 6.5-7.7 9.3-.9.9-2.6 1.3-5.1 1.3-2.9 0-6.4-.6-10.2-1.2-3.8-.7-7.8-1.3-11.2-1.3-2.8 0-4.9.4-6.5 1.4 0 0-2.7 1.6-3.8 3.6l1.1.5c1.7.9 3.3 2.1 4.7 3.4 1.5 1.4 3.1 2.5 4.9 3.5.6.2 1.1.6 1.5 1-.5.7-1.2 1.6-1.9 2.5-3.9 5.2-6.2 8.4-4.9 10.2.6.3 1.3.5 2 .5 8.6 0 13.2-2.2 19-5.1 1.7-.8 3.4-1.7 5.4-2.5 3.4-1.5 7.1-3.8 11-6.3 5.2-3.3 10.5-6.7 15.6-8.4 4.2-1.3 8.7-1.9 13.1-1.8 5.5 0 11.2.7 16.7 1.4 4.1.5 8.4 1.1 12.6 1.3 1.6.1 3.1.1 4.6.1 2 0 3.9-.1 5.9-.3l.5-.2c2.9-1.8 4.3-5.7 5.7-9.4.9-2.4 1.6-4.6 2.7-6l.2-.2c.1-.1.3 0 .3.1v.1c-.7 14.7-6.6 24-12.6 32.3l-4 4.3s5.6 0 8.8-1.2c11.6-3.5 20.3-11.1 26.7-23.3 1.6-3.1 3-6.3 4.2-9.6.1-.3 1.1-.8 1 .6 0 .4-.1.9-.1 1.3 0 .3 0 .6-.1.9-.2 2-.7 6.4-.7 6.4l3.6-1.9c8.6-5.5 15.3-16.5 20.3-33.6 2.1-7.1 3.6-14.2 5-20.5 1.6-7.5 3-13.9 4.7-16.4 2.5-3.9 6.4-6.6 10.1-9.1l1.5-1.1c4.7-3.3 9.3-7.1 10.3-14.1v-.2c1.1-5.3.5-6.6-.2-7.2z"/></svg>