<svg xmlns="http://www.w3.org/2000/svg" xmlns:xlink="http://www.w3.org/1999/xlink" width="256" zoomAndPan="magnify" viewBox="0 0 375 374.999991" height="256" preserveAspectRatio="xMidYMid meet" version="1.0">
<defs>
<clipPath id="48fed318e0">
<path d="M 75 0 L 300 0 C 341.421875 0 375 33.578125 375 75 L 375 304.027344 C 375 345.445312 341.421875 379.027344 300 379.027344 L 75 379.027344 C 33.578125 379.027344 0 345.445312 0 304.027344 L 0 75 C 0 33.578125 33.578125 0 75 0 " clip-rule="nonzero"/>
</clipPath>
<clipPath id="70c0d5570a">
<path d="M 37.5 87 L 337.5 87 L 337.5 287 L 37.5 287 Z M 37.5 87 " clip-rule="nonzero"/>
</clipPath>
</defs>
<g clip-path="url(#48fed318e0)">
<path fill="#f4f2ec" d="M 0 0 L 374.414062 0 L 374.414062 379.6875 L 0 379.6875 Z M 0 0 " fill-opacity="1" fill-rule="nonzero"/>
</g>
<g clip-path="url(#70c0d5570a)">
<path fill="#000000" d="M 330.929688 87.894531 C 326.300781 88.042969 327.761719 89.378906 317.761719 91.839844 C 307.660156 94.324219 295.324219 93.5625 284.445312 98.125 C 251.980469 111.742188 245.464844 158.277344 215.949219 174.949219 C 193.886719 187.410156 171.625 188.40625 151.613281 194.675781 C 138.460938 198.800781 124.074219 207.257812 112.160156 217.527344 C 102.910156 225.5 102.667969 232.511719 93.003906 242.511719 C 82.667969 253.207031 51.921875 242.691406 37.988281 259.0625 C 42.476562 263.601562 44.445312 264.875 53.289062 263.695312 C 51.460938 267.167969 40.664062 270.09375 42.777344 275.199219 C 45 280.574219 71.101562 284.214844 94.828125 269.890625 C 105.875 263.21875 114.679688 253.601562 131.886719 251.308594 C 154.15625 248.339844 179.808594 253.210938 205.589844 256.929688 C 201.769531 268.328125 194.09375 275.90625 187.945312 284.984375 C 186.039062 287.035156 191.769531 287.265625 198.304688 286.027344 C 210.058594 283.121094 218.527344 280.777344 227.398438 275.617188 C 238.296875 269.269531 239.949219 253.007812 253.320312 249.484375 C 260.769531 260.9375 281.035156 263.640625 293.605469 254.484375 C 282.574219 251.359375 279.523438 227.875 283.25 217.527344 C 286.777344 207.730469 290.261719 192.0625 293.816406 179.113281 C 297.628906 165.207031 299.035156 147.679688 303.652344 140.597656 C 310.597656 129.941406 318.273438 126.28125 324.933594 120.269531 C 331.597656 114.261719 337.695312 108.410156 337.496094 94.660156 C 337.429688 90.230469 335.140625 87.761719 330.929688 87.894531 Z M 330.929688 87.894531 " fill-opacity="1" fill-rule="nonzero"/>
</g>
<path fill="#ffffff" d="M 47.570312 274.21875 C 64.46875 276.640625 74.742188 274.21875 88.308594 268.335938 C 99.855469 263.328125 111.003906 253.007812 124.636719 248.628906 C 144.660156 242.207031 166.617188 248.640625 188.019531 249.921875 C 193.230469 250.234375 198.410156 250.238281 203.523438 249.683594 C 211.492188 244.78125 211.328125 226.453125 219.089844 224.773438 C 218.863281 250.488281 208.316406 265.898438 197.292969 280.820312 C 220.53125 276.714844 234.4375 263.273438 243.828125 245.320312 C 246.679688 239.878906 249.113281 234.023438 251.265625 227.882812 C 254.589844 230.4375 252.707031 238.207031 254.378906 242.414062 C 270.382812 233.5 279.550781 213.148438 285.621094 192.570312 C 292.640625 168.75 295.515625 144.632812 300.046875 137.585938 C 304.464844 130.707031 311.34375 126.464844 317.625 122.0625 C 324.761719 117.054688 331.125 111.835938 332.222656 102.296875 C 324.699219 101.601562 322.957031 99.859375 321.84375 96.066406 C 318.078125 98.191406 314.613281 98.644531 310.699219 98.761719 C 307.304688 98.867188 303.570312 98.714844 299.015625 99.179688 C 261.328125 103.050781 256.539062 144.589844 232.382812 168.140625 C 230.597656 169.867188 228.710938 171.46875 226.714844 172.949219 C 218.253906 179.253906 207.875 183.757812 198.332031 187.40625 C 182.882812 193.308594 168.195312 193.726562 153.703125 198.824219 C 143.0625 202.5625 132.25 207.988281 123.511719 213.96875 C 121.402344 215.40625 119.355469 216.929688 117.375 218.542969 C 112.246094 222.738281 108.878906 227.394531 105.625 232.183594 C 102.265625 237.117188 99.023438 242.195312 94.078125 247.046875 C 86.070312 254.910156 56.144531 249.339844 45.609375 256.632812 C 44.4375 257.441406 43.503906 258.414062 42.867188 259.585938 C 48.617188 262.199219 52.457031 260.59375 59.070312 261.324219 C 59.9375 267.601562 45.425781 271.328125 47.570312 274.21875 Z M 275.898438 229.015625 C 276.351562 236.214844 280.527344 250.496094 284.21875 253.96875 C 276.992188 255.726562 264.546875 252.820312 261.351562 247.726562 C 262.992188 240.367188 271.53125 233.640625 275.898438 229.015625 Z M 275.898438 229.015625 " fill-opacity="1" fill-rule="nonzero"/>
<path fill="#000000" d="M 286.484375 114.765625 C 291.820312 119.398438 303.015625 115.679688 301.015625 106.464844 C 292.726562 105.777344 287.921875 108.59375 286.484375 114.765625 Z M 323.679688 103.996094 C 322.261719 106.972656 319.542969 110.8125 319.542969 118.386719 C 319.53125 119.6875 318.554688 120.578125 318.539062 118.574219 C 318.613281 111.167969 320.574219 107.96875 322.65625 103.761719 C 323.625 102.039062 324.207031 102.75 323.679688 103.996094 Z M 323.679688 103.996094 " fill-opacity="1" fill-rule="nonzero"/>
<path fill="#000000" d="M 322.25 102.875 C 320.578125 105.714844 316.546875 110.898438 315.878906 118.445312 C 315.757812 119.738281 314.703125 120.539062 314.863281 118.539062 C 315.589844 111.171875 318.8125 106.558594 321.257812 102.550781 C 322.367188 100.917969 322.886719 101.679688 322.25 102.875 Z M 320.949219 101.390625 C 319.042969 104.078125 312.835938 110.300781 311.539062 117.765625 C 311.304688 119.042969 310.191406 119.757812 310.519531 117.777344 C 311.863281 110.492188 317.210938 104.769531 319.984375 100.984375 C 321.226562 99.449219 321.679688 100.25 320.949219 101.390625 Z M 319.785156 99.734375 C 317.519531 102.125 310.125 110.058594 307.792969 117.269531 C 307.378906 118.5 306.175781 119.050781 306.777344 117.136719 C 309.132812 110.113281 315.609375 102.550781 318.886719 99.191406 C 320.335938 97.847656 320.671875 98.707031 319.785156 99.734375 Z M 319.785156 99.734375 " fill-opacity="1" fill-rule="nonzero"/>
</svg>
