<?xml version="1.0" encoding="UTF-8" standalone="no" ?>
<!DOCTYPE svg PUBLIC "-//W3C//DTD SVG 1.1//EN" "http://www.w3.org/Graphics/SVG/1.1/DTD/svg11.dtd">
<svg xmlns="http://www.w3.org/2000/svg" xmlns:xlink="http://www.w3.org/1999/xlink" version="1.1" width="256" height="256" viewBox="0 0 256 256" xml:space="preserve">
<rect width="256" height="256" fill="#242938" rx="60"/>
<g transform="matrix(0.7434065622 0 0 0.7434065622 128 128)" id="M5rjT0lnHSIB6JbwSqELk"  >
<g style=""   >
		<g transform="matrix(1 0 0 1 -121.215 103.935)" id="rbDI1dxD6GgZXDQf894tY"  >
<path style="stroke: none; stroke-width: 1; stroke-dasharray: none; stroke-linecap: butt; stroke-dashoffset: 0; stroke-linejoin: miter; stroke-miterlimit: 4; fill: rgb(255,255,255); fill-rule: nonzero; opacity: 1;"  transform=" translate(-41.175, -239.395)" d="M 63.62 217.6 L 74.9 261.16 L 66.39 261.16 L 58.85 229.79000000000002 L 44.73 261.16 L 37.55 261.16 L 23.5 230 L 15.780000000000001 261.19 L 7.45 261.19 L 18.61 217.6 L 26 217.6 L 41.21 251.32999999999998 L 56.32 217.6 Z" stroke-linecap="round" />
</g>
		<g transform="matrix(1 0 0 1 -66.165 109.74)" id="Ozx2jykyqNGxdmeTkmekD"  >
<path style="stroke: none; stroke-width: 1; stroke-dasharray: none; stroke-linecap: butt; stroke-dashoffset: 0; stroke-linejoin: miter; stroke-miterlimit: 4; fill: rgb(255,255,255); fill-rule: nonzero; opacity: 1;"  transform=" translate(-96.225, -245.2)" d="M 107 234.44 L 107 229.37 L 115.2 229.37 L 115.2 261.16 L 107 261.16 L 107 256 C 104.82 259.69 100.36 261.8 94.93 261.8 C 83.59 261.8 77.25 253.8 77.25 244.60000000000002 C 77.25 235.73000000000002 83.25 228.60000000000002 93.72 228.60000000000002 C 99.68 228.65 104.63 230.7 107 234.44 Z M 86 245.06 C 86 250.91 89.68 255.91 96.8 255.91 C 103.67999999999999 255.91 107.42 251.03 107.42 245.24 C 107.42 239.45000000000002 103.56 234.5 96.42 234.5 C 89.55 234.5 86 239.44 86 245.06 Z" stroke-linecap="round" />
</g>
		<g transform="matrix(1 0 0 1 -24.495 109.4442579564)" id="lQUUobQnv75iXxNqbDh_e"  >
<path style="stroke: none; stroke-width: 1; stroke-dasharray: none; stroke-linecap: butt; stroke-dashoffset: 0; stroke-linejoin: miter; stroke-miterlimit: 4; fill: rgb(255,255,255); fill-rule: nonzero; opacity: 1;"  transform=" translate(-137.895, -244.9042579564)" d="M 133.7 261.16 L 125.49999999999999 261.16 L 125.49999999999999 229.37 L 133.7 229.37 L 133.7 236.49 C 135.60697545494398 231.81442701387184 140.1211080191948 228.72891704842053 145.17 228.65 C 146.91289328439848 228.62527467787376 148.64637299843002 228.90967369345708 150.29 229.49 L 148.54 235.49 C 147.12328016733102 235.1134363713771 145.66574695859086 234.91193408445451 144.2 234.89000000000001 C 138.29 234.89000000000001 133.7 239.35000000000002 133.7 245.89000000000001 Z" stroke-linecap="round" />
</g>
		<g transform="matrix(1 0 0 1 -1.5259088801 103.842064232)" id="tjfLhn6mquixicO4RDKEU"  >
<path style="stroke: none; stroke-width: 1; stroke-dasharray: none; stroke-linecap: butt; stroke-dashoffset: 0; stroke-linejoin: miter; stroke-miterlimit: 4; fill: rgb(255,255,255); fill-rule: nonzero; opacity: 1;"  transform=" translate(-160.8640911199, -239.302064232)" d="M 154.39 221 C 154.3602856447655 219.83310996285388 154.8198442276169 218.7069501808532 155.65748134650403 217.89400531263618 C 156.4951184653912 217.0810604444192 157.63452096860595 216.6553940476527 158.79999999999998 216.72 C 159.98381234525203 216.6814003921021 161.13155017627363 217.13055236858952 161.9747291761726 217.9623881532432 C 162.81790817607157 218.7942239378969 163.28256322718158 219.93577345947654 163.26 221.12 C 163.2858586316386 222.29035637144935 162.81621798866794 223.41719891775782 161.96683780894472 224.2227769805895 C 161.1174576292215 225.02835504342116 159.9673499667303 225.43773118144082 158.79999999999998 225.35 C 157.62614032888908 225.40050188696878 156.48416230749442 224.9604890929213 155.64767949288014 224.13538699687322 C 154.81119667826587 223.31028490082514 154.35558236633787 222.17444131166317 154.39 221 Z M 154.75 229.39 L 163 229.39 L 163 252.6 C 163 254.04 163.3 255.07 164.51 255.07 C 165.03759880757312 255.05615025655868 165.56295680358198 254.99591812962774 166.07999999999998 254.89 L 167.33999999999997 260.89 C 165.61034696520437 261.5666095361613 163.76721367934815 261.90604476375916 161.90999999999997 261.89 C 158.46999999999997 261.89 154.78999999999996 260.89 154.78999999999996 253.07999999999998 Z" stroke-linecap="round" />
</g>
		<g transform="matrix(1 0 0 1 26.475 109.74)" id="sw4Wg5T2EtKIPrvR5KzzN"  >
<path style="stroke: none; stroke-width: 1; stroke-dasharray: none; stroke-linecap: butt; stroke-dashoffset: 0; stroke-linejoin: miter; stroke-miterlimit: 4; fill: rgb(255,255,255); fill-rule: nonzero; opacity: 1;"  transform=" translate(-188.865, -245.2)" d="M 199.64 234.44 L 199.64 229.37 L 207.83999999999997 229.37 L 207.83999999999997 261.16 L 199.64 261.16 L 199.64 256 C 197.45999999999998 259.69 193 261.8 187.57 261.8 C 176.23 261.8 169.89 253.8 169.89 244.60000000000002 C 169.89 235.73000000000002 175.89 228.60000000000002 186.35999999999999 228.60000000000002 C 192.34 228.65 197.28 230.7 199.64 234.44 Z M 178.64 245.06 C 178.64 250.91 182.32 255.91 189.44 255.91 C 196.32 255.91 200.06 251.03 200.06 245.24 C 200.06 239.45000000000002 196.2 234.5 189.06 234.5 C 182.2 234.5 178.64 239.44 178.64 245.06 Z" stroke-linecap="round" />
</g>
		<g transform="matrix(1 0 0 1 80.2256436471 103.92)" id="o7xA8OsQeE9HWMs_XMKqA"  >
<path style="stroke: none; stroke-width: 1; stroke-dasharray: none; stroke-linecap: butt; stroke-dashoffset: 0; stroke-linejoin: miter; stroke-miterlimit: 4; fill: rgb(255,255,255); fill-rule: nonzero; opacity: 1;"  transform=" translate(-242.6156436471, -239.38)" d="M 220.44 217.6 L 240.11 217.6 C 256.64 217.6 264.91 226.72 264.79 239.38 C 264.91 252.54 255.79000000000002 261.15999999999997 241.56000000000003 261.15999999999997 L 220.44 261.15999999999997 Z M 225.87 221.47 L 225.87 257.36 L 240.87 257.36 C 254.02 257.36 259.03000000000003 248.49 259.03000000000003 239.26000000000002 C 259.03000000000003 228.83 252.75000000000003 221.47000000000003 240.87000000000003 221.47000000000003 Z" stroke-linecap="round" />
</g>
		<g transform="matrix(1 0 0 1 131.2603514588 103.92)" id="CLiFpFkXBZjTPX4UeF5LB"  >
<path style="stroke: none; stroke-width: 1; stroke-dasharray: none; stroke-linecap: butt; stroke-dashoffset: 0; stroke-linejoin: miter; stroke-miterlimit: 4; fill: rgb(255,255,255); fill-rule: nonzero; opacity: 1;"  transform=" translate(-293.6503514588, -239.38)" d="M 298.32 261.16 L 273.32 261.16 L 273.32 217.6 L 295.82 217.6 C 304.45 217.6 312.65 219.23 312.53 228.89 C 312.53 235.7 308.30999999999995 237.57 303.84 238.29999999999998 C 310.17999999999995 238.83999999999997 313.97999999999996 242.88 313.97999999999996 249.39999999999998 C 314.07 259.17 305.5 261.16 298.32 261.16 Z M 296.45 236.61 C 305.08 236.61 307.01 233.29000000000002 307.01 229.07000000000002 C 307.01 222.73000000000002 303.15 221.28000000000003 296.45 221.28000000000003 L 278.54 221.28000000000003 L 278.54 236.61000000000004 Z M 296.69 240.29000000000002 L 278.54 240.29000000000002 L 278.54 257.48 L 297.48 257.48 C 302.79 257.48 308.40000000000003 255.73000000000002 308.40000000000003 249.04000000000002 C 308.4 241.31 301.94 240.29 296.69 240.29 Z" stroke-linecap="round" />
</g>
		<g transform="matrix(1 0 0 1 8.2771212396 -30.9388458633)" id="bhhCfo2hpcSl0YZXCEahf"  >
<path style="stroke: none; stroke-width: 1; stroke-dasharray: none; stroke-linecap: butt; stroke-dashoffset: 0; stroke-linejoin: miter; stroke-miterlimit: 4; fill: rgb(255,255,255); fill-rule: nonzero; opacity: 1;"  transform=" translate(-170.6671212396, -104.5211541367)" d="M 316 10.05 C 315.2094530192749 9.377135582213171 314.1977204641767 9.020891724784235 313.16 9.05 C 310.32000000000005 9.05 306.66 10.97 304.70000000000005 12.05 L 303.91 12.450000000000001 C 300.6059728545306 14.051071280037636 297.0083028152404 14.956445197209998 293.34000000000003 15.110000000000001 C 289.58000000000004 15.23 286.34000000000003 15.450000000000001 282.12 15.88 C 257.12 18.46 245.97 37.62 235.23000000000002 56.150000000000006 C 229.39000000000001 66.23 223.35000000000002 76.65 215.07000000000002 84.72 C 213.3511448880695 86.37879434962501 211.5273805029452 87.92531982638795 209.61 89.35 C 201.04000000000002 95.74 190.28000000000003 100.25 181.87 103.47 C 173.8 106.55 165.01 109.32 156.5 112 C 148.72 114.45 141.36 116.76 134.6 119.28 C 131.54999999999998 120.41 128.96 121.28 126.66999999999999 122.04 C 120.51999999999998 124.04 116.07 125.57000000000001 109.58999999999999 130.04000000000002 C 107.05999999999999 131.77 104.51999999999998 133.64000000000001 102.78999999999999 135.04000000000002 C 97.63867082951575 139.1478420690975 93.08193110587636 143.9502553524309 89.25 149.31000000000006 C 85.9505792708683 154.2594384814004 82.13960466967285 158.8480261938336 77.88 163 C 76.52 164.34 74.08 165 70.44999999999999 165 C 66.17999999999999 165 61.01999999999999 164.12 55.53999999999999 163.19 C 50.059999999999995 162.26 44.07999999999999 161.19 39.07999999999999 161.19 C 35.00999999999999 161.19 31.90999999999999 161.85 29.57999999999999 163.19 C 29.57999999999999 163.19 25.679999999999993 165.47 24.019999999999992 168.42 L 25.639999999999993 169.14999999999998 C 28.1536229501845 170.51455555858598 30.482498103034544 172.1948406616524 32.57000000000001 174.14999999999998 C 34.73168333617279 176.1646901345716 37.14910498277803 177.88613642533917 39.75999999999998 179.26999999999998 C 40.600661144271086 179.58977238956496 41.36407455734068 180.08394625070375 42 180.72 C 41.31 181.72 40.31 183.01 39.26 184.39 C 33.489999999999995 191.94 30.129999999999995 196.70999999999998 32.059999999999995 199.30999999999997 C 32.983917867226054 199.79351265525628 34.0178993895127 200.0278818003079 35.059999999999995 199.98999999999998 C 47.64999999999999 199.98999999999998 54.39999999999999 196.71999999999997 62.959999999999994 192.57999999999998 C 65.42999999999999 191.38 67.96 190.14 70.96 188.88 C 75.96 186.71 81.33999999999999 183.25 87.03999999999999 179.59 C 94.58999999999999 174.74 102.39999999999999 169.72 109.96 167.29 C 116.18947257075835 165.39040783659652 122.6782771883782 164.47934322569824 129.19000000000003 164.59 C 137.19 164.59 145.61 165.66 153.73 166.70000000000002 C 159.79 167.48000000000002 166.04999999999998 168.28000000000003 172.2 168.70000000000002 C 174.58999999999997 168.84 176.79999999999998 168.91000000000003 178.95999999999998 168.91000000000003 C 181.83607750831214 168.91788039467488 184.71041382370817 168.76765375798172 187.57 168.46000000000004 L 188.25 168.22000000000003 C 192.57 165.57000000000002 194.59 159.88000000000002 196.54 154.38000000000002 C 197.79999999999998 150.84000000000003 198.85999999999999 147.66000000000003 200.54 145.64000000000001 C 200.64036467807506 145.53882769916987 200.75095691738926 145.44834313973098 200.87 145.37 C 201.032121942304 145.2798083267379 201.23498226883288 145.31292838004876 201.36 145.45000000000002 C 201.37752748580462 145.50189327352726 201.37752748580462 145.55810672647277 201.36 145.61 C 200.36 167.12 191.69000000000003 180.77 182.94 192.91000000000003 L 177 199.14 C 177 199.14 185.18 199.14 189.84 197.33999999999997 C 206.84 192.25999999999996 219.68 181.05999999999997 229.02 163.2 C 231.32215340108826 158.61608636312945 233.3784021098425 153.9127512484627 235.18 149.11 C 235.34 148.70999999999998 236.82 147.97 236.67000000000002 150.04 C 236.67000000000002 150.65 236.59 151.32999999999998 236.54000000000002 152.04 L 236.54000000000002 152.04 C 236.54000000000002 152.45999999999998 236.48000000000002 152.89 236.46 153.32 C 236.21 156.32 235.46 162.66 235.46 162.66 L 240.71 159.85 C 253.37 151.85 263.13 135.70999999999998 270.53000000000003 110.6 C 273.62 100.13999999999999 275.87 89.75 277.86 80.6 C 280.24 69.6 282.29 60.169999999999995 284.64 56.50999999999999 C 288.33 50.76999999999999 293.96 46.88999999999999 299.40999999999997 43.11999999999999 C 300.15999999999997 42.60999999999999 300.9 42.11999999999999 301.63 41.57999999999999 C 308.49 36.76999999999999 315.3 31.21999999999999 316.79 20.86999999999999 L 316.79 20.63999999999999 C 317.93 12.92 317 11 316 10.05 Z" stroke-linecap="round" />
</g>
</g>
</g>
</svg>