<svg xmlns="http://www.w3.org/2000/svg" xmlns:xlink="http://www.w3.org/1999/xlink" width="256" zoomAndPan="magnify" viewBox="0 0 375 374.999991" height="256" preserveAspectRatio="xMidYMid meet" version="1.0">
<defs>
<clipPath id="feea8ad4f1">
<path d="M 75 0 L 300 0 C 341.421875 0 375 33.578125 375 75 L 375 304.027344 C 375 345.445312 341.421875 379.027344 300 379.027344 L 75 379.027344 C 33.578125 379.027344 0 345.445312 0 304.027344 L 0 75 C 0 33.578125 33.578125 0 75 0 " clip-rule="nonzero"/>
</clipPath>
<clipPath id="4b3ea025e6">
<path d="M 32.003906 84 L 343.253906 84 L 343.253906 291 L 32.003906 291 Z M 32.003906 84 " clip-rule="nonzero"/>
</clipPath>
</defs>
<g clip-path="url(#feea8ad4f1)">
<path fill="#242938" d="M 0 0 L 374.414062 0 L 374.414062 379.6875 L 0 379.6875 Z M 0 0 " fill-opacity="1" fill-rule="nonzero"/>
</g>
<g clip-path="url(#4b3ea025e6)">
<path fill="#002b64" d="M 336.4375 84.289062 C 331.636719 84.445312 333.152344 85.828125 322.777344 88.382812 C 312.296875 90.960938 299.496094 90.167969 288.214844 94.902344 C 254.527344 109.03125 247.769531 157.3125 217.144531 174.609375 C 194.253906 187.539062 171.160156 188.570312 150.398438 195.078125 C 136.753906 199.355469 121.828125 208.128906 109.464844 218.785156 C 99.871094 227.054688 99.617188 234.332031 89.59375 244.707031 C 78.867188 255.804688 46.96875 244.894531 32.511719 261.878906 C 37.167969 266.585938 39.210938 267.90625 48.386719 266.683594 C 46.488281 270.285156 35.289062 273.320312 37.480469 278.617188 C 39.785156 284.195312 66.867188 287.972656 91.480469 273.113281 C 102.945312 266.191406 112.078125 256.210938 129.929688 253.832031 C 153.035156 250.753906 179.652344 255.804688 206.398438 259.664062 C 202.433594 271.488281 194.472656 279.351562 188.09375 288.769531 C 186.117188 290.898438 192.058594 291.136719 198.839844 289.851562 C 211.035156 286.835938 219.820312 284.40625 229.027344 279.050781 C 240.332031 272.46875 242.046875 255.59375 255.917969 251.941406 C 263.648438 263.824219 284.671875 266.628906 297.71875 257.125 C 286.269531 253.886719 283.105469 229.519531 286.96875 218.785156 C 290.628906 208.621094 294.246094 192.363281 297.933594 178.929688 C 301.890625 164.503906 303.351562 146.316406 308.140625 138.96875 C 315.34375 127.910156 323.304688 124.113281 330.21875 117.878906 C 337.132812 111.644531 343.457031 105.578125 343.25 91.308594 C 343.183594 86.710938 340.808594 84.152344 336.4375 84.289062 Z M 336.4375 84.289062 " fill-opacity="1" fill-rule="nonzero"/>
</g>
<path fill="#ffffff" d="M 42.453125 277.601562 C 59.984375 280.113281 70.644531 277.601562 84.722656 271.496094 C 96.699219 266.304688 108.265625 255.59375 122.410156 251.054688 C 143.183594 244.390625 165.964844 251.0625 188.167969 252.394531 C 193.578125 252.71875 198.949219 252.722656 204.253906 252.144531 C 212.523438 247.058594 212.355469 228.042969 220.40625 226.300781 C 220.167969 252.980469 209.230469 268.96875 197.789062 284.449219 C 221.898438 280.191406 236.328125 266.246094 246.074219 247.621094 C 249.03125 241.972656 251.554688 235.898438 253.785156 229.527344 C 257.238281 232.179688 255.28125 240.238281 257.015625 244.605469 C 273.625 235.355469 283.132812 214.242188 289.429688 192.890625 C 296.714844 168.179688 299.699219 143.15625 304.398438 135.84375 C 308.984375 128.707031 316.121094 124.308594 322.632812 119.738281 C 330.039062 114.542969 336.640625 109.128906 337.78125 99.230469 C 329.972656 98.511719 328.167969 96.703125 327.011719 92.769531 C 323.105469 94.972656 319.511719 95.445312 315.449219 95.566406 C 311.925781 95.671875 308.054688 95.515625 303.328125 96 C 264.226562 100.015625 259.257812 143.113281 234.195312 167.542969 C 232.34375 169.335938 230.386719 171 228.316406 172.535156 C 219.539062 179.074219 208.769531 183.75 198.871094 187.535156 C 182.839844 193.65625 167.605469 194.09375 152.566406 199.378906 C 141.527344 203.257812 130.308594 208.886719 121.242188 215.09375 C 119.050781 216.582031 116.929688 218.164062 114.875 219.835938 C 109.554688 224.191406 106.0625 229.019531 102.683594 233.988281 C 99.199219 239.109375 95.835938 244.375 90.707031 249.410156 C 82.398438 257.566406 51.351562 251.789062 40.421875 259.355469 C 39.203125 260.195312 38.234375 261.207031 37.574219 262.417969 C 43.539062 265.128906 47.523438 263.464844 54.382812 264.226562 C 55.285156 270.734375 40.230469 274.605469 42.453125 277.601562 Z M 279.347656 230.703125 C 279.8125 238.171875 284.148438 252.988281 287.976562 256.589844 C 280.480469 258.414062 267.566406 255.402344 264.253906 250.113281 C 265.953125 242.480469 274.8125 235.5 279.347656 230.703125 Z M 279.347656 230.703125 " fill-opacity="1" fill-rule="nonzero"/>
<path fill="#002b64" d="M 290.328125 112.171875 C 295.863281 116.976562 307.476562 113.117188 305.402344 103.558594 C 296.800781 102.84375 291.820312 105.765625 290.328125 112.171875 Z M 328.917969 100.996094 C 327.445312 104.085938 324.625 108.066406 324.625 115.925781 C 324.613281 117.277344 323.601562 118.203125 323.585938 116.121094 C 323.660156 108.4375 325.695312 105.117188 327.855469 100.75 C 328.859375 98.964844 329.464844 99.703125 328.917969 100.996094 Z M 328.917969 100.996094 " fill-opacity="1" fill-rule="nonzero"/>
<path fill="#002b64" d="M 327.433594 99.832031 C 325.699219 102.78125 321.515625 108.15625 320.824219 115.984375 C 320.699219 117.328125 319.605469 118.160156 319.769531 116.085938 C 320.523438 108.4375 323.867188 103.652344 326.402344 99.496094 C 327.554688 97.804688 328.09375 98.589844 327.433594 99.832031 Z M 326.082031 98.292969 C 324.105469 101.082031 317.667969 107.535156 316.320312 115.285156 C 316.078125 116.609375 314.921875 117.347656 315.261719 115.292969 C 316.65625 107.738281 322.203125 101.796875 325.082031 97.867188 C 326.371094 96.277344 326.84375 97.109375 326.082031 98.292969 Z M 324.878906 96.574219 C 322.527344 99.054688 314.851562 107.285156 312.433594 114.765625 C 312.003906 116.042969 310.753906 116.613281 311.382812 114.628906 C 313.824219 107.34375 320.542969 99.496094 323.945312 96.011719 C 325.445312 94.617188 325.796875 95.507812 324.878906 96.574219 Z M 324.878906 96.574219 " fill-opacity="1" fill-rule="nonzero"/>
</svg>