<svg width="256" height="256" viewBox="0 0 256 256" fill="none" xmlns="http://www.w3.org/2000/svg">
<g clip-path="url(#clip0_10_459)">
<path d="M196 0H60C26.8629 0 0 26.8629 0 60V196C0 229.137 26.8629 256 60 256H196C229.137 256 256 229.137 256 196V60C256 26.8629 229.137 0 196 0Z" fill="#242938"/>
<path fill-rule="evenodd" clip-rule="evenodd" d="M42.4231 75.6154C39.7679 75.6154 37.6154 77.7679 37.6154 80.4231V174.654C37.6154 177.309 39.7679 179.462 42.4231 179.462H213.577C216.232 179.462 218.385 177.309 218.385 174.654V80.4231C218.385 77.7679 216.232 75.6154 213.577 75.6154H42.4231ZM28 80.4231C28 72.4574 34.4574 66 42.4231 66H213.577C221.542 66 228 72.4574 228 80.4231V174.654C228 182.619 221.542 189.077 213.577 189.077H42.4231C34.4574 189.077 28 182.619 28 174.654V80.4231Z" fill="white"/>
<path d="M56.8462 160.231V94.8462H76.077L95.3077 118.885L114.539 94.8462H133.769V160.231H114.539V122.731L95.3077 146.769L76.077 122.731V160.231H56.8462ZM177.039 160.231L148.192 128.5H167.423V94.8462H186.654V128.5H205.885L177.039 160.231Z" fill="white"/>
</g>
<defs>
<clipPath id="clip0_10_459">
<rect width="256" height="256" fill="white"/>
</clipPath>
</defs>
</svg>
