<?xml version="1.0" encoding="UTF-8" standalone="no" ?>
<!DOCTYPE svg PUBLIC "-//W3C//DTD SVG 1.1//EN" "http://www.w3.org/Graphics/SVG/1.1/DTD/svg11.dtd">
<svg xmlns="http://www.w3.org/2000/svg" xmlns:xlink="http://www.w3.org/1999/xlink" version="1.1" width="256" height="256" viewBox="0 0 256 256" xml:space="preserve">
<rect width="256" height="256" rx="60" fill="#F4F2ED"/>
<g transform="matrix(0.2803698272 0 0 0.2803698272 128 128)" id="kFUmqls5xPoCnvvX6-wpn"  >
<g style=""   >
		<g transform="matrix(3.125 0 0 3.125 -192.0868523437 0.282548696)" id="NTswgZwTloOLYCd-HfOcw"  >
<path style="stroke: rgb(235,112,119); stroke-width: 0.09375; stroke-dasharray: none; stroke-linecap: butt; stroke-dashoffset: 0; stroke-linejoin: miter; stroke-miterlimit: 4; fill: rgb(235,112,119); fill-rule: nonzero; opacity: 1;"  transform=" translate(-66.53220725, -65.5904155827)" d="M 63.1816647 4.19975875 C 64.108082 2.62484922 65.3124246 1.11170084 67.041737 0.370566948 C 67.7519903 0.247044632 68.4622437 0.30880579 69.172497 0.30880579 L 104.129312 0.30880579 C 103.110253 1.173462 102.122075 2.06899879 101.442702 3.2424608 C 99.6516285 6.1761158 98.4472859 9.44945718 97.335585 12.7227986 C 94.185766 22.6045838 91.9932449 32.7642943 89.8624849 42.9240048 C 88.905187 47.5252111 87.9787696 52.1572979 87.1141134 56.7585042 C 84.4583836 71.8282268 81.7100121 86.8670688 78.2822678 101.782388 C 76.6455971 108.668758 74.9780458 115.555127 72.4458384 122.194451 C 71.2723764 124.942823 70.1297949 127.876478 67.8755127 129.914596 C 67.3505428 130.377805 66.825573 130.964536 66.0844391 130.871894 L 35.2038601 130.871894 C 33.1039807 130.810133 31.0349819 130.995416 28.9351025 130.779252 C 30.3247286 129.698432 31.5599517 128.401448 32.3628468 126.857419 C 34.6788902 122.441496 36.1302774 117.655006 37.5199035 112.899397 C 39.681544 105.241013 41.4108565 97.4899879 43.0475271 89.7389626 C 44.0665862 84.6436671 45.2709288 79.5792521 46.0120627 74.453076 C 46.8458384 68.7401689 48.1119421 63.0890229 49.1310012 57.4069964 C 50.7367913 49.0383595 52.4352232 40.6697226 54.3189385 32.3628468 C 55.8320869 25.8779252 57.3761158 19.4238842 59.4451146 13.0933655 C 60.4641737 10.0361882 61.5758745 7.00989144 63.1816647 4.19975875 Z" stroke-linecap="round" />
</g>
		<g transform="matrix(3.125 0 0 3.125 -64.607961875 0.2188745883)" id="D1Luu4m4HDENH0yL7kE0I"  >
<path style="stroke: rgb(246,162,173); stroke-width: 0.09375; stroke-dasharray: none; stroke-linecap: butt; stroke-dashoffset: 0; stroke-linejoin: miter; stroke-miterlimit: 4; fill: rgb(246,162,173); fill-rule: nonzero; opacity: 1;"  transform=" translate(-107.3254522, -65.5700398683)" d="M 104.129312 0.30880579 C 105.024849 0.30880579 105.920386 0.277925211 106.815923 0.30880579 C 108.79228 1.35874548 110.459831 3.02629674 111.386248 5.09529554 C 112.621472 7.44221954 113.640531 9.91266586 114.566948 12.4448733 C 117.655006 21.9869723 119.754885 31.8069964 121.854765 41.5961399 C 123.645838 50.3662244 125.34427 59.1671894 126.95006 67.999035 C 127.073583 68.4622437 126.91918 69.1107358 127.536791 69.2342581 C 125.31339 80.8453559 123.120869 92.4873341 120.341616 104.00579 C 118.828468 110.212786 117.222678 116.388902 114.937515 122.379735 C 113.702292 125.375151 112.436188 128.648492 109.811339 130.779252 C 108.143788 131.149819 106.939445 129.883715 105.920386 128.741134 C 104.160193 126.486852 103.079373 123.831122 102.029433 121.175392 C 98.5399276 111.664174 96.4091677 101.751508 94.2475271 91.8697226 C 92.6108565 84.1804584 91.1594692 76.4294331 89.6463209 68.7092883 C 88.9669481 64.7874548 88.0405308 60.9273824 87.5155609 57.0055489 C 87.4229192 56.9437877 87.2067551 56.8202654 87.1141134 56.7585042 C 87.9787696 52.1572979 88.905187 47.5252111 89.8624849 42.9240048 C 91.9932449 32.7642943 94.185766 22.6045838 97.335585 12.7227986 C 98.4472859 9.44945718 99.6516285 6.1761158 101.442702 3.2424608 C 102.122075 2.06899879 103.110253 1.173462 104.129312 0.30880579 Z" stroke-linecap="round" />
</g>
		<g transform="matrix(3.125 0 0 3.125 59.7346203125 0.2883231333)" id="2YmmGNgEtb2G9WKhUVRnH"  >
<path style="stroke: rgb(235,112,119); stroke-width: 0.09375; stroke-dasharray: none; stroke-linecap: butt; stroke-dashoffset: 0; stroke-linejoin: miter; stroke-miterlimit: 4; fill: rgb(235,112,119); fill-rule: nonzero; opacity: 1;"  transform=" translate(-147.1150785, -65.5922634027)" d="M 142.760917 5.65114596 C 143.872618 3.52038601 145.231363 1.14258142 147.640048 0.339686369 C 159.899638 0.277925211 172.159228 0.30880579 184.418818 0.30880579 C 183.276236 1.45138721 182.071894 2.59396864 181.299879 4.04535585 C 178.922075 8.30687575 177.532449 13.0316043 176.111942 17.6945718 C 172.468034 30.5408926 169.904946 43.6651387 167.46538 56.7893848 C 165.211098 69.7283474 162.802413 82.66731 160.054041 95.5445115 C 158.633534 102.029433 157.151267 108.483474 155.267551 114.875754 C 154.063209 118.828468 152.797105 122.812063 150.820748 126.486852 C 149.86345 128.154403 148.751749 129.976357 146.929795 130.841013 C 135.226055 130.933655 123.491435 130.841013 111.787696 130.871894 C 111.139204 130.871894 110.459831 130.871894 109.811339 130.779252 C 112.436188 128.648492 113.702292 125.375151 114.937515 122.379735 C 117.222678 116.388902 118.828468 110.212786 120.341616 104.00579 C 123.120869 92.4873341 125.31339 80.8453559 127.536791 69.2342581 C 130.223402 54.2571773 133.033534 39.2800965 136.615682 24.4882992 C 138.283233 18.0960193 139.889023 11.6110977 142.760917 5.65114596 Z" stroke-linecap="round" />
</g>
		<g transform="matrix(3.125 0 0 3.125 188.805790625 0.1015510912)" id="zmSVSGofb3owhpmCwNsza"  >
<path style="stroke: rgb(246,162,173); stroke-width: 0.09375; stroke-dasharray: none; stroke-linecap: butt; stroke-dashoffset: 0; stroke-linejoin: miter; stroke-miterlimit: 4; fill: rgb(246,162,173); fill-rule: nonzero; opacity: 1;"  transform=" translate(-188.417853, -65.5324963492)" d="M 184.418818 0.30880579 C 185.406996 0.30880579 186.426055 0.277925211 187.414234 0.30880579 C 189.020024 1.14258142 190.162606 2.56308806 191.181665 4.01447527 C 192.849216 6.67020507 193.899156 9.66562123 194.979976 12.5992762 C 197.543064 20.4738239 199.45766 28.5645356 201.217853 36.6552473 C 203.564777 47.5560917 205.602895 58.5186972 207.610133 69.4813028 C 208.104222 72.106152 208.598311 74.7618818 208.907117 77.4176116 C 209.030639 77.5411339 209.277684 77.7881785 209.370326 77.8808203 C 208.258625 79.4248492 207.826297 81.277684 207.208685 83.037877 C 205.263209 89.3066345 203.997105 95.7915561 202.916285 102.245597 C 202.082509 107.310012 200.939928 112.343546 199.365018 117.222678 C 198.191556 120.835706 196.771049 124.417853 194.424125 127.44415 C 193.312425 128.895537 191.799276 130.007238 190.131725 130.748372 C 187.568637 131.026297 186.055489 128.55585 184.820265 126.733896 C 182.257177 122.256212 180.867551 117.253559 179.385283 112.374427 C 174.506152 94.3092883 171.325452 75.8118215 167.897708 57.437877 C 167.866828 57.1599517 167.712425 56.9129071 167.46538 56.7893848 C 169.904946 43.6651387 172.468034 30.5408926 176.111942 17.6945718 C 177.532449 13.0316043 178.922075 8.30687575 181.299879 4.04535585 C 182.071894 2.59396864 183.276236 1.45138721 184.418818 0.30880579 Z" stroke-linecap="round" />
</g>
		<g transform="matrix(3.125 0 0 3.125 -328.0579011266 109.6415637671)" id="HutnTuFJjGAqrAUttxIy4"  >
<path style="stroke: rgb(246,162,173); stroke-width: 0.09375; stroke-dasharray: none; stroke-linecap: butt; stroke-dashoffset: 0; stroke-linejoin: miter; stroke-miterlimit: 4; fill: rgb(246,162,173); fill-rule: nonzero; opacity: 1;"  transform=" translate(-23.0214716395, -100.5853004055)" d="M 0.030880579 70.562123 C 0.833775633 70.5003619 1.63667069 70.3768396 2.47044632 70.3768396 L 36.1302774 70.3768396 C 37.5507841 70.562123 39.0330519 70.4386007 40.3917973 71.0562123 C 42.3681544 71.8591074 44.1283474 73.2178528 45.4253317 74.9162847 C 45.5797346 74.8236429 45.8576598 74.5765983 46.0120627 74.453076 C 45.2709288 79.5792521 44.0665862 84.6436671 43.0475271 89.7389626 C 41.4108565 97.4899879 39.681544 105.241013 37.5199035 112.899397 C 36.1302774 117.655006 34.6788902 122.441496 32.3628468 126.857419 C 31.5599517 128.401448 30.3247286 129.698432 28.9351025 130.779252 C 28.4101327 130.871894 28.0086852 130.501327 27.5763571 130.223402 C 26.1249698 129.296984 25.2911942 127.691194 24.3956574 126.239807 C 20.1650181 116.605066 19.7018094 105.951267 17.0769602 95.8841978 C 15.7490953 90.8506634 14.1124246 85.8480097 11.7037394 81.2159228 C 10.2214717 78.4366707 8.39951749 75.7809409 6.02171291 73.6501809 C 4.2615199 72.2296743 2.22340169 71.0870929 0.030880579 70.562123 Z" stroke-linecap="round" />
</g>
		<g transform="matrix(3.125 0 0 3.125 296.7430640625 109.6501348107)" id="1s2UkThnOM0JmbNlh6D65"  >
<path style="stroke: rgb(235,112,119); stroke-width: 0.09375; stroke-dasharray: none; stroke-linecap: butt; stroke-dashoffset: 0; stroke-linejoin: miter; stroke-miterlimit: 4; fill: rgb(235,112,119); fill-rule: nonzero; opacity: 1;"  transform=" translate(-222.9577805, -100.5880431394)" d="M 212.087817 73.7737033 C 214.033293 71.5811821 216.936068 70.1915561 219.869723 70.3150784 L 245.191797 70.3150784 C 248.712183 70.3768396 252.26345 70.1915561 255.783836 70.4077201 C 254.733896 71.1179735 253.467793 71.3958987 252.356092 71.9826297 C 248.496019 73.7428227 245.191797 76.6764777 243.091918 80.3512666 C 239.725935 86.2185766 238.552473 92.9505428 237.564294 99.5589867 C 236.576116 106.043908 236.606996 112.744994 234.507117 119.044632 C 233.08661 123.460555 230.92497 127.907358 227.18842 130.810133 C 215.577322 130.933655 203.966224 130.841013 192.386007 130.871894 C 191.613993 130.871894 190.872859 130.902774 190.131725 130.748372 C 191.799276 130.007238 193.312425 128.895537 194.424125 127.44415 C 196.771049 124.417853 198.191556 120.835706 199.365018 117.222678 C 200.939928 112.343546 202.082509 107.310012 202.916285 102.245597 C 203.997105 95.7915561 205.263209 89.3066345 207.208685 83.037877 C 207.826297 81.277684 208.258625 79.4248492 209.370326 77.8808203 C 210.296743 76.5220748 210.914355 74.9471653 212.087817 73.7737033 Z" stroke-linecap="round" />
</g>
</g>
</g>
</svg>