<svg width="256" height="256" fill="none" version="1.1" viewBox="0 0 256 256" xmlns="http://www.w3.org/2000/svg">
 <rect width="256" height="256" rx="60" fill="#f4f2ed"/>
 <g transform="matrix(.86117 0 0 .8655 17.794 71.232)">
  <g stroke-width=".09375">
   <path d="m63.182 4.1998c0.92642-1.5749 2.1308-3.0881 3.8601-3.8292 0.71025-0.12352 1.4205-0.061761 2.1308-0.061761h34.957c-1.0191 0.86466-2.0072 1.7602-2.6866 2.9337-1.7911 2.9337-2.9954 6.207-4.1071 9.4803-3.1498 9.8818-5.3423 20.041-7.4731 30.201-0.9573 4.6012-1.8837 9.2333-2.7484 13.834-2.6557 15.07-5.4041 30.109-8.8318 45.024-1.6367 6.8864-3.3042 13.773-5.8364 20.412-1.1735 2.7484-2.316 5.682-4.5703 7.7202-0.52497 0.4632-1.0499 1.0499-1.7911 0.95729h-30.881c-2.0999-0.0618-4.1689 0.12353-6.2688-0.0926 1.3896-1.0808 2.6248-2.3778 3.4277-3.9218 2.316-4.4159 3.7674-9.2024 5.1571-13.958 2.1616-7.6584 3.891-15.409 5.5276-23.16 1.0191-5.0953 2.2234-10.16 2.9645-15.286 0.83378-5.7129 2.0999-11.364 3.1189-17.046 1.6058-8.3686 3.3042-16.737 5.1879-25.044 1.5131-6.4849 3.0572-12.939 5.1262-19.269 1.0191-3.0572 2.1308-6.0835 3.7366-8.8936z" fill="#eb7077" stroke="#eb7077"/>
   <path d="m104.13 0.30881c0.89554 0 1.7911-0.030881 2.6866 0 1.9764 1.0499 3.6439 2.7175 4.5703 4.7865 1.2352 2.3469 2.2543 4.8174 3.1807 7.3496 3.0881 9.5421 5.1879 19.362 7.2878 29.151 1.7911 8.7701 3.4895 17.571 5.0953 26.403 0.12352 0.46321-0.0309 1.1117 0.58673 1.2352-2.2234 11.611-4.4159 23.253-7.1952 34.772-1.5132 6.207-3.1189 12.383-5.4041 18.374-1.2352 2.9954-2.5013 6.2688-5.1262 8.3995-1.6676 0.37057-2.8719-0.89554-3.891-2.0381-1.7602-2.2543-2.841-4.91-3.891-7.5657-3.4895-9.5112-5.6203-19.424-7.7819-29.306-1.6367-7.6893-3.0881-15.44-4.6012-23.16-0.67937-3.9218-1.6058-7.7819-2.1308-11.704-0.09264-0.06176-0.30881-0.18528-0.40145-0.24704 0.86466-4.6012 1.7911-9.2333 2.7484-13.834 2.1308-10.16 4.3233-20.319 7.4731-30.201 1.1117-3.2733 2.316-6.5467 4.1071-9.4803 0.67937-1.1735 1.6676-2.069 2.6866-2.9337z" fill="#f6a2ad" stroke="#f6a2ad"/>
   <path d="m142.76 5.6511c1.1117-2.1308 2.4704-4.5086 4.8791-5.3115 12.26-0.061761 24.519-0.030881 36.779-0.030881-1.1426 1.1426-2.3469 2.2852-3.1189 3.7366-2.3778 4.2615-3.7674 8.9862-5.1879 13.649-3.6439 12.846-6.207 25.971-8.6466 39.095-2.2543 12.939-4.663 25.878-7.4113 38.755-1.4205 6.4849-2.9028 12.939-4.7865 19.331-1.2043 3.9527-2.4704 7.9363-4.4468 11.611-0.9573 1.6676-2.069 3.4895-3.891 4.3542-11.704 0.0926-23.438 0-35.142 0.0309-0.6485 0-1.3279 0-1.9764-0.0926 2.6248-2.1308 3.891-5.4041 5.1262-8.3995 2.2852-5.9908 3.891-12.167 5.4041-18.374 2.7792-11.518 4.9718-23.16 7.1952-34.772 2.6866-14.977 5.4967-29.954 9.0789-44.746 1.6676-6.3923 3.2733-12.877 6.1452-18.837z" fill="#eb7077" stroke="#eb7077"/>
   <path d="m184.42 0.30881c0.98818 0 2.0072-0.030881 2.9954 0 1.6058 0.83378 2.7484 2.2543 3.7674 3.7057 1.6676 2.6557 2.7175 5.6511 3.7983 8.5848 2.5631 7.8745 4.4777 15.965 6.2379 24.056 2.3469 10.901 4.385 21.863 6.3923 32.826 0.49409 2.6248 0.98818 5.2806 1.297 7.9363 0.12352 0.12352 0.37056 0.37057 0.46321 0.46321-1.1117 1.544-1.544 3.3969-2.1616 5.1571-1.9455 6.2688-3.2116 12.754-4.2924 19.208-0.83377 5.0644-1.9764 10.098-3.5513 14.977-1.1735 3.613-2.594 7.1952-4.9409 10.221-1.1117 1.4514-2.6248 2.5631-4.2924 3.3042-2.5631 0.27793-4.0762-2.1925-5.3115-4.0145-2.5631-4.4777-3.9527-9.4803-5.435-14.359-4.8791-18.065-8.0598-36.563-11.488-54.937-0.0309-0.27792-0.18529-0.52497-0.43233-0.64849 2.4396-13.124 5.0026-26.248 8.6466-39.095 1.4205-4.663 2.8101-9.3877 5.1879-13.649 0.77201-1.4514 1.9764-2.594 3.1189-3.7366z" fill="#f6a2ad" stroke="#f6a2ad"/>
   <path d="m0.030881 70.562c0.8029-0.061761 1.6058-0.18528 2.4396-0.18528h33.66c1.4205 0.18528 2.9028 0.06176 4.2615 0.67937 1.9764 0.8029 3.7366 2.1616 5.0335 3.8601 0.1544-0.09264 0.43233-0.33969 0.58673-0.46321-0.74113 5.1262-1.9455 10.191-2.9645 15.286-1.6367 7.751-3.366 15.502-5.5276 23.16-1.3896 4.7556-2.841 9.5421-5.1571 13.958-0.8029 1.544-2.0381 2.841-3.4277 3.9218-0.52497 0.0926-0.92642-0.27792-1.3587-0.55585-1.4514-0.92642-2.2852-2.5322-3.1807-3.9836-4.2306-9.6347-4.6938-20.289-7.3187-30.356-1.3279-5.0335-2.9645-10.036-5.3732-14.668-1.4823-2.7793-3.3042-5.435-5.682-7.5657-1.7602-1.4205-3.7983-2.5631-5.9908-3.0881z" fill="#f6a2ad" stroke="#f6a2ad"/>
   <path d="m212.09 73.774c1.9455-2.1925 4.8482-3.5821 7.7819-3.4586h25.322c3.5204 0.06176 7.0716-0.12352 10.592 0.09264-1.0499 0.71025-2.316 0.98818-3.4278 1.5749-3.8601 1.7602-7.1643 4.6938-9.2642 8.3686-3.366 5.8673-4.5394 12.599-5.5276 19.208-0.98817 6.4849-0.95729 13.186-3.0572 19.486-1.4205 4.4159-3.5822 8.8627-7.3187 11.766-11.611 0.12352-23.222 0.0309-34.802 0.0618-0.77202 0-1.5132 0.0309-2.2543-0.12352 1.6676-0.74113 3.1807-1.8528 4.2924-3.3042 2.3469-3.0263 3.7674-6.6084 4.9409-10.221 1.5749-4.8791 2.7175-9.9127 3.5513-14.977 1.0808-6.454 2.3469-12.939 4.2924-19.208 0.61762-1.7602 1.0499-3.613 2.1616-5.1571 0.92641-1.3587 1.544-2.9337 2.7175-4.1071z" fill="#eb7077" stroke="#eb7077"/>
  </g>
 </g>
</svg>
