<svg width="256" height="256" viewBox="0 0 256 256" fill="none" xmlns="http://www.w3.org/2000/svg">
<g clip-path="url(#clip0_93_2)">
<path d="M196 0H60C26.8629 0 0 26.8629 0 60V196C0 229.137 26.8629 256 60 256H196C229.137 256 256 229.137 256 196V60C256 26.8629 229.137 0 196 0Z" fill="#242938"/>
<path d="M63.9454 163.58C54.6149 156.696 41.9193 147.519 28 137.729C44.3666 130.999 59.8155 125.799 76.4881 118.915L96.9846 134.211C81.0769 151.19 71.8993 157.614 63.9454 163.58ZM197.785 111.267C194.114 101.325 191.055 91.0769 187.536 81.1345C183.713 70.2744 179.736 59.8732 174.382 50.6956C172.241 46.8716 166.734 38 160.769 38C158.933 38 157.709 38.7648 156.486 39.5296C152.662 41.9769 148.073 49.7779 145.626 54.0607C142.108 60.3321 135.071 70.8862 129.871 77.0046C128.188 78.9931 126.506 81.4404 124.364 83.123C121.152 85.8763 117.175 89.3943 113.045 91.0769C111.822 91.5357 110.139 91.8417 108.762 92.3005C105.55 93.3713 103.103 94.7479 100.656 96.8893C96.3728 100.407 92.5488 105.149 89.0307 109.432C88.2659 110.35 87.1952 111.726 86.2775 113.103L104.48 127.328C118.705 110.35 134.613 94.1361 145.932 63.5442C145.932 63.5442 141.955 97.5012 112.586 132.835C94.6902 154.249 79.0884 165.568 76.947 167.862C76.947 167.862 82.4535 166.945 86.4304 168.627C95.9139 172.451 100.962 186.37 105.091 196.16C107.998 203.043 111.363 210.079 114.116 217.268C123.6 215.127 130.024 210.538 136.295 205.184C143.025 199.525 149.144 191.877 154.803 184.994C165.816 171.839 179.889 153.943 196.561 162.203C199.314 163.58 202.221 165.568 204.515 167.251C207.88 170.004 210.633 172.757 213.845 175.51C219.658 180.405 222.564 184.229 227 186.829C215.834 162.509 207.268 137.576 197.785 111.267Z" fill="white"/>
</g>
<defs>
<clipPath id="clip0_93_2">
<rect width="256" height="256" fill="white"/>
</clipPath>
</defs>
</svg>
