<svg width="256" height="256" viewBox="0 0 256 256" fill="none" xmlns="http://www.w3.org/2000/svg">
<path d="M196 0H60C26.8629 0 0 26.8629 0 60V196C0 229.137 26.8629 256 60 256H196C229.137 256 256 229.137 256 196V60C256 26.8629 229.137 0 196 0Z" fill="#242938"/>
<path d="M127.5 216C175.825 216 215 176.825 215 128.5C215 80.1751 175.825 41 127.5 41C79.1751 41 40 80.1751 40 128.5C40 176.825 79.1751 216 127.5 216Z" fill="white" stroke="white" stroke-width="6.06754" stroke-miterlimit="100" stroke-linecap="round" stroke-linejoin="round"/>
<path opacity="0.05" d="M126.895 210.974C148.919 210.974 170.044 202.224 185.617 186.651C201.191 171.078 209.941 149.953 209.941 127.929C209.941 105.905 201.191 84.7802 185.617 69.207C170.044 53.6337 148.919 44.8835 126.895 44.8835C104.872 44.8835 83.7468 53.6337 68.1735 69.207C52.6003 84.7802 43.8501 105.905 43.8501 127.929C43.8501 149.953 52.6003 171.078 68.1735 186.651C83.7468 202.224 104.872 210.974 126.895 210.974Z" fill="white"/>
<mask id="mask0_120_2359" style="mask-type:luminance" maskUnits="userSpaceOnUse" x="43" y="44" width="167" height="167">
<path d="M126.895 210.974C148.919 210.974 170.044 202.224 185.617 186.651C201.191 171.078 209.941 149.953 209.941 127.929C209.941 105.905 201.191 84.7802 185.617 69.207C170.044 53.6337 148.919 44.8835 126.895 44.8835C104.872 44.8835 83.7468 53.6337 68.1735 69.207C52.6003 84.7802 43.8501 105.905 43.8501 127.929C43.8501 149.953 52.6003 171.078 68.1735 186.651C83.7468 202.224 104.872 210.974 126.895 210.974Z" fill="white"/>
</mask>
<g mask="url(#mask0_120_2359)">
<path opacity="0.9" d="M126.896 127.929H209.941" stroke="#858585" stroke-width="0.542618" stroke-linecap="round" stroke-linejoin="round" stroke-dasharray="0.54 1.09"/>
</g>
<mask id="mask1_120_2359" style="mask-type:luminance" maskUnits="userSpaceOnUse" x="43" y="44" width="167" height="167">
<path d="M126.895 210.974C148.919 210.974 170.044 202.224 185.617 186.651C201.191 171.078 209.941 149.953 209.941 127.929C209.941 105.905 201.191 84.7802 185.617 69.207C170.044 53.6337 148.919 44.8835 126.895 44.8835C104.872 44.8835 83.7468 53.6337 68.1735 69.207C52.6003 84.7802 43.8501 105.905 43.8501 127.929C43.8501 149.953 52.6003 171.078 68.1735 186.651C83.7468 202.224 104.872 210.974 126.895 210.974Z" fill="white"/>
</mask>
<g mask="url(#mask1_120_2359)">
<path opacity="0.9" d="M126.896 127.929L185.617 69.207" stroke="#858585" stroke-width="0.542618" stroke-linecap="round" stroke-linejoin="round" stroke-dasharray="0.54 1.09"/>
</g>
<mask id="mask2_120_2359" style="mask-type:luminance" maskUnits="userSpaceOnUse" x="43" y="44" width="167" height="167">
<path d="M126.895 210.974C148.919 210.974 170.044 202.224 185.617 186.651C201.191 171.078 209.941 149.953 209.941 127.929C209.941 105.905 201.191 84.7802 185.617 69.207C170.044 53.6337 148.919 44.8835 126.895 44.8835C104.872 44.8835 83.7468 53.6337 68.1735 69.207C52.6003 84.7802 43.8501 105.905 43.8501 127.929C43.8501 149.953 52.6003 171.078 68.1735 186.651C83.7468 202.224 104.872 210.974 126.895 210.974Z" fill="white"/>
</mask>
<g mask="url(#mask2_120_2359)">
<path opacity="0.9" d="M126.896 127.929V44.8835" stroke="#858585" stroke-width="0.542618" stroke-linecap="round" stroke-linejoin="round" stroke-dasharray="0.54 1.09"/>
</g>
<mask id="mask3_120_2359" style="mask-type:luminance" maskUnits="userSpaceOnUse" x="43" y="44" width="167" height="167">
<path d="M126.895 210.974C148.919 210.974 170.044 202.224 185.617 186.651C201.191 171.078 209.941 149.953 209.941 127.929C209.941 105.905 201.191 84.7802 185.617 69.207C170.044 53.6337 148.919 44.8835 126.895 44.8835C104.872 44.8835 83.7468 53.6337 68.1735 69.207C52.6003 84.7802 43.8501 105.905 43.8501 127.929C43.8501 149.953 52.6003 171.078 68.1735 186.651C83.7468 202.224 104.872 210.974 126.895 210.974Z" fill="white"/>
</mask>
<g mask="url(#mask3_120_2359)">
<path opacity="0.9" d="M126.896 127.929L68.1738 69.207" stroke="#858585" stroke-width="0.542618" stroke-linecap="round" stroke-linejoin="round" stroke-dasharray="0.54 1.09"/>
</g>
<mask id="mask4_120_2359" style="mask-type:luminance" maskUnits="userSpaceOnUse" x="43" y="44" width="167" height="167">
<path d="M126.895 210.974C148.919 210.974 170.044 202.224 185.617 186.651C201.191 171.078 209.941 149.953 209.941 127.929C209.941 105.905 201.191 84.7802 185.617 69.207C170.044 53.6337 148.919 44.8835 126.895 44.8835C104.872 44.8835 83.7468 53.6337 68.1735 69.207C52.6003 84.7802 43.8501 105.905 43.8501 127.929C43.8501 149.953 52.6003 171.078 68.1735 186.651C83.7468 202.224 104.872 210.974 126.895 210.974Z" fill="white"/>
</mask>
<g mask="url(#mask4_120_2359)">
<path opacity="0.9" d="M126.895 127.929H43.8501" stroke="#858585" stroke-width="0.542618" stroke-linecap="round" stroke-linejoin="round" stroke-dasharray="0.54 1.09"/>
</g>
<mask id="mask5_120_2359" style="mask-type:luminance" maskUnits="userSpaceOnUse" x="43" y="44" width="167" height="167">
<path d="M126.895 210.974C148.919 210.974 170.044 202.224 185.617 186.651C201.191 171.078 209.941 149.953 209.941 127.929C209.941 105.905 201.191 84.7802 185.617 69.207C170.044 53.6337 148.919 44.8835 126.895 44.8835C104.872 44.8835 83.7468 53.6337 68.1735 69.207C52.6003 84.7802 43.8501 105.905 43.8501 127.929C43.8501 149.953 52.6003 171.078 68.1735 186.651C83.7468 202.224 104.872 210.974 126.895 210.974Z" fill="white"/>
</mask>
<g mask="url(#mask5_120_2359)">
<path opacity="0.9" d="M126.896 127.929L68.1738 186.651" stroke="#858585" stroke-width="0.542618" stroke-linecap="round" stroke-linejoin="round" stroke-dasharray="0.54 1.09"/>
</g>
<mask id="mask6_120_2359" style="mask-type:luminance" maskUnits="userSpaceOnUse" x="43" y="44" width="167" height="167">
<path d="M126.895 210.974C148.919 210.974 170.044 202.224 185.617 186.651C201.191 171.078 209.941 149.953 209.941 127.929C209.941 105.905 201.191 84.7802 185.617 69.207C170.044 53.6337 148.919 44.8835 126.895 44.8835C104.872 44.8835 83.7468 53.6337 68.1735 69.207C52.6003 84.7802 43.8501 105.905 43.8501 127.929C43.8501 149.953 52.6003 171.078 68.1735 186.651C83.7468 202.224 104.872 210.974 126.895 210.974Z" fill="white"/>
</mask>
<g mask="url(#mask6_120_2359)">
<path opacity="0.9" d="M126.896 127.929V210.974" stroke="#858585" stroke-width="0.542618" stroke-linecap="round" stroke-linejoin="round" stroke-dasharray="0.54 1.09"/>
</g>
<mask id="mask7_120_2359" style="mask-type:luminance" maskUnits="userSpaceOnUse" x="43" y="44" width="167" height="167">
<path d="M126.895 210.974C148.919 210.974 170.044 202.224 185.617 186.651C201.191 171.078 209.941 149.953 209.941 127.929C209.941 105.905 201.191 84.7802 185.617 69.207C170.044 53.6337 148.919 44.8835 126.895 44.8835C104.872 44.8835 83.7468 53.6337 68.1735 69.207C52.6003 84.7802 43.8501 105.905 43.8501 127.929C43.8501 149.953 52.6003 171.078 68.1735 186.651C83.7468 202.224 104.872 210.974 126.895 210.974Z" fill="white"/>
</mask>
<g mask="url(#mask7_120_2359)">
<path opacity="0.9" d="M126.896 127.929L185.617 186.651" stroke="#858585" stroke-width="0.542618" stroke-linecap="round" stroke-linejoin="round" stroke-dasharray="0.54 1.09"/>
</g>
<mask id="mask8_120_2359" style="mask-type:luminance" maskUnits="userSpaceOnUse" x="43" y="44" width="167" height="167">
<path d="M126.895 210.974C148.919 210.974 170.044 202.224 185.617 186.651C201.191 171.078 209.941 149.953 209.941 127.929C209.941 105.905 201.191 84.7802 185.617 69.207C170.044 53.6337 148.919 44.8835 126.895 44.8835C104.872 44.8835 83.7468 53.6337 68.1735 69.207C52.6003 84.7802 43.8501 105.905 43.8501 127.929C43.8501 149.953 52.6003 171.078 68.1735 186.651C83.7468 202.224 104.872 210.974 126.895 210.974Z" fill="white"/>
</mask>
<g mask="url(#mask8_120_2359)">
<path opacity="0.9" d="M136.123 127.929L135.849 125.697L135.043 123.597L133.753 121.755L132.055 120.279L130.051 119.258L127.86 118.752L125.611 118.792L123.439 119.374L121.472 120.464L119.827 121.998L118.602 123.884L117.87 126.011L117.674 128.251L118.026 130.473L118.904 132.543L120.258 134.339L122.006 135.754L124.044 136.705L126.252 137.134L128.498 137.016L130.649 136.359L132.576 135.2L134.167 133.61L135.325 131.682L135.983 129.531L136.123 127.929Z" stroke="#818181" stroke-width="0.542618" stroke-miterlimit="100" stroke-linecap="square" stroke-linejoin="round" stroke-dasharray="0.54 1.09"/>
</g>
<mask id="mask9_120_2359" style="mask-type:luminance" maskUnits="userSpaceOnUse" x="43" y="44" width="167" height="167">
<path d="M126.895 210.974C148.919 210.974 170.044 202.224 185.617 186.651C201.191 171.078 209.941 149.953 209.941 127.929C209.941 105.905 201.191 84.7802 185.617 69.207C170.044 53.6337 148.919 44.8835 126.895 44.8835C104.872 44.8835 83.7468 53.6337 68.1735 69.207C52.6003 84.7802 43.8501 105.905 43.8501 127.929C43.8501 149.953 52.6003 171.078 68.1735 186.651C83.7468 202.224 104.872 210.974 126.895 210.974Z" fill="white"/>
</mask>
<g mask="url(#mask9_120_2359)">
<path opacity="0.9" d="M154.578 127.929L154.308 124.076L153.506 120.299L152.185 116.67L150.372 113.26L148.102 110.135L145.419 107.357L142.376 104.98L139.031 103.049L135.45 101.602L131.703 100.668L127.862 100.264L124.003 100.399L120.199 101.069L116.526 102.263L113.055 103.956L109.853 106.115L106.983 108.699L104.501 111.658L102.455 114.933L100.884 118.461L99.8192 122.173L99.2817 125.998V129.86L99.8192 133.684L100.884 137.397L102.455 140.925L104.501 144.2L106.983 147.158L109.853 149.742L113.055 151.902L116.526 153.595L120.199 154.788L124.003 155.459L127.862 155.594L131.703 155.19L135.45 154.256L139.031 152.809L142.376 150.878L145.419 148.5L148.102 145.722L150.372 142.598L152.185 139.188L153.506 135.559L154.308 131.781L154.578 127.929Z" stroke="#818181" stroke-width="0.542618" stroke-miterlimit="100" stroke-linecap="square" stroke-linejoin="round" stroke-dasharray="0.54 1.09"/>
</g>
<mask id="mask10_120_2359" style="mask-type:luminance" maskUnits="userSpaceOnUse" x="43" y="44" width="167" height="167">
<path d="M126.895 210.974C148.919 210.974 170.044 202.224 185.617 186.651C201.191 171.078 209.941 149.953 209.941 127.929C209.941 105.905 201.191 84.7802 185.617 69.207C170.044 53.6337 148.919 44.8835 126.895 44.8835C104.872 44.8835 83.7468 53.6337 68.1735 69.207C52.6003 84.7802 43.8501 105.905 43.8501 127.929C43.8501 149.953 52.6003 171.078 68.1735 186.651C83.7468 202.224 104.872 210.974 126.895 210.974Z" fill="white"/>
</mask>
<g mask="url(#mask10_120_2359)">
<path opacity="0.9" d="M173.032 127.929L172.779 123.107L172.024 118.337L170.774 113.672L169.043 109.164L166.851 104.861L164.221 100.811L161.182 97.0581L157.767 93.6433L154.014 90.6042L149.964 87.9741L145.661 85.7817L141.152 84.051L136.488 82.8012L131.718 82.0457L126.896 81.793L122.073 82.0457L117.303 82.8012L112.639 84.051L108.13 85.7817L103.827 87.9741L99.7773 90.6042L96.0244 93.6433L92.6096 97.0581L89.5705 100.811L86.9404 104.861L84.748 109.164L83.0174 113.672L81.7675 118.337L81.012 123.107L80.7593 127.929L81.012 132.752L81.7675 137.522L83.0174 142.186L84.748 146.695L86.9404 150.997L89.5705 155.048L92.6096 158.8L96.0244 162.215L99.7773 165.254L103.827 167.884L108.13 170.077L112.639 171.808L117.303 173.057L122.073 173.813L126.896 174.066L131.718 173.813L136.488 173.057L141.152 171.808L145.661 170.077L149.964 167.884L154.014 165.254L157.767 162.215L161.182 158.8L164.221 155.048L166.851 150.997L169.043 146.695L170.774 142.186L172.024 137.522L172.779 132.752L173.032 127.929Z" stroke="#818181" stroke-width="0.542618" stroke-miterlimit="100" stroke-linecap="square" stroke-linejoin="round" stroke-dasharray="0.54 1.09"/>
</g>
<mask id="mask11_120_2359" style="mask-type:luminance" maskUnits="userSpaceOnUse" x="43" y="44" width="167" height="167">
<path d="M126.895 210.974C148.919 210.974 170.044 202.224 185.617 186.651C201.191 171.078 209.941 149.953 209.941 127.929C209.941 105.905 201.191 84.7802 185.617 69.207C170.044 53.6337 148.919 44.8835 126.895 44.8835C104.872 44.8835 83.7468 53.6337 68.1735 69.207C52.6003 84.7802 43.8501 105.905 43.8501 127.929C43.8501 149.953 52.6003 171.078 68.1735 186.651C83.7468 202.224 104.872 210.974 126.895 210.974Z" fill="white"/>
</mask>
<g mask="url(#mask11_120_2359)">
<path opacity="0.9" d="M191.486 127.929L191.132 121.178L190.075 114.5L188.325 107.97L185.902 101.658L182.833 95.6338L179.151 89.9637L174.896 84.7095L170.115 79.9289L164.861 75.6741L159.191 71.9919L153.167 68.9225L146.855 66.4997L140.325 64.7498L133.647 63.6922L126.896 63.3384L120.144 63.6922L113.466 64.7498L106.936 66.4997L100.624 68.9225L94.6001 71.9919L88.93 75.6741L83.6758 79.9289L78.8952 84.7095L74.6404 89.9637L70.9582 95.6338L67.8889 101.658L65.466 107.97L63.7162 114.5L62.6585 121.178L62.3047 127.929L62.6585 134.681L63.7162 141.358L65.466 147.889L67.8889 154.201L70.9582 160.225L74.6404 165.895L78.8952 171.149L83.6758 175.93L88.93 180.184L94.6001 183.866L100.624 186.936L106.936 189.359L113.466 191.109L120.144 192.166L126.896 192.52L133.647 192.166L140.325 191.109L146.855 189.359L153.167 186.936L159.191 183.866L164.861 180.184L170.115 175.93L174.896 171.149L179.151 165.895L182.833 160.225L185.902 154.201L188.325 147.889L190.075 141.358L191.132 134.681L191.486 127.929Z" stroke="#818181" stroke-width="0.542618" stroke-miterlimit="100" stroke-linecap="square" stroke-linejoin="round" stroke-dasharray="0.54 1.09"/>
</g>
<g opacity="0.938">
<mask id="mask12_120_2359" style="mask-type:luminance" maskUnits="userSpaceOnUse" x="43" y="44" width="167" height="167">
<path d="M126.895 210.974C148.919 210.974 170.044 202.224 185.617 186.651C201.191 171.078 209.941 149.953 209.941 127.929C209.941 105.905 201.191 84.7802 185.617 69.207C170.044 53.6337 148.919 44.8835 126.895 44.8835C104.872 44.8835 83.7468 53.6337 68.1735 69.207C52.6003 84.7802 43.8501 105.905 43.8501 127.929C43.8501 149.953 52.6003 171.078 68.1735 186.651C83.7468 202.224 104.872 210.974 126.895 210.974Z" fill="white"/>
</mask>
<g mask="url(#mask12_120_2359)">
<path opacity="0.6" d="M126.896 127.929L127.071 127.872L127.247 127.815L127.422 127.758L127.598 127.701L127.773 127.644L127.949 127.587L128.124 127.53L128.3 127.473L128.475 127.416L128.651 127.359L128.826 127.302L129.002 127.245L129.177 127.188L129.353 127.131L129.528 127.074L129.704 127.017L129.879 126.96L130.055 126.903L130.23 126.846L130.406 126.789L130.581 126.732L130.757 126.675L130.932 126.618L131.108 126.561L131.283 126.504L131.459 126.447L131.634 126.39L131.81 126.333L131.985 126.276L132.161 126.219L132.336 126.162L132.512 126.104L132.688 126.047L132.863 125.99L133.039 125.933L133.214 125.876L133.39 125.819L133.565 125.762L133.741 125.705L133.916 125.648L134.092 125.591L134.267 125.534L134.443 125.477L134.618 125.42L134.794 125.363L134.969 125.306L135.145 125.249L135.32 125.192L135.496 125.135L135.671 125.078L135.847 125.021L136.022 124.964L136.198 124.907L136.373 124.85L136.549 124.793L136.724 124.736L136.9 124.679L137.075 124.622L137.251 124.565L137.426 124.508L137.602 124.451L137.777 124.394L137.953 124.337L138.128 124.28L138.304 124.223L138.48 124.166L138.655 124.109L138.831 124.052L139.006 123.995L139.182 123.938L139.357 123.881L139.533 123.824L139.708 123.767L139.884 123.71L140.059 123.653L140.235 123.596L140.41 123.539L140.586 123.482L140.761 123.425L140.937 123.367L141.112 123.31L141.288 123.253L141.463 123.196L141.639 123.139L141.814 123.082L141.99 123.025L142.165 122.968L142.341 122.911L142.516 122.854L142.692 122.797L142.867 122.74L143.043 122.683L143.218 122.626L143.394 122.569L143.569 122.512L143.745 122.455L143.92 122.398L144.096 122.341L144.272 122.284L144.447 122.227L144.465 122.282L144.483 122.337L144.5 122.393L144.517 122.448L144.534 122.503L144.551 122.559L144.568 122.614L144.585 122.67L144.601 122.726L144.618 122.781L144.634 122.837L144.65 122.893L144.665 122.948L144.681 123.004L144.696 123.06L144.712 123.116L144.727 123.172L144.741 123.228L144.756 123.284L144.771 123.34L144.785 123.397L144.799 123.453L144.813 123.509L144.827 123.565L144.841 123.622L144.854 123.678L144.867 123.735L144.88 123.791L144.893 123.848L144.906 123.904L144.919 123.961L144.931 124.017L144.943 124.074L144.955 124.131L144.967 124.188L144.978 124.244L144.99 124.301L145.001 124.358L145.013 124.415L145.023 124.472L145.034 124.529L145.045 124.586L145.055 124.643L145.065 124.7L145.075 124.757L145.085 124.814L145.095 124.871L145.105 124.929L145.114 124.986L145.123 125.043L145.132 125.1L145.141 125.158L145.149 125.215L145.158 125.272L145.166 125.33L145.174 125.387L145.182 125.445L145.19 125.502L145.197 125.559L145.205 125.617L145.212 125.674L145.219 125.732L145.226 125.79L145.232 125.847L145.239 125.905L145.245 125.962L145.251 126.02L145.257 126.078L145.263 126.135L145.268 126.193L145.274 126.251L145.279 126.309L145.284 126.366L145.289 126.424L145.293 126.482L145.298 126.54L145.302 126.598L145.306 126.655L145.31 126.713L145.314 126.771L145.317 126.829L145.321 126.887L145.324 126.945L145.327 127.003L145.33 127.061L145.332 127.118L145.335 127.176L145.337 127.234L145.339 127.292L145.341 127.35L145.343 127.408L145.344 127.466L145.346 127.524L145.347 127.582L145.348 127.64L145.349 127.698L145.349 127.756L145.35 127.814L145.35 127.872L145.35 127.93H145.166H144.981H144.796H144.612H144.427H144.243H144.058H143.874H143.689H143.505H143.32H143.136H142.951H142.766H142.582H142.397H142.213H142.028H141.844H141.659H141.475H141.29H141.106H140.921H140.736H140.552H140.367H140.183H139.998H139.814H139.629H139.445H139.26H139.076H138.891H138.706H138.522H138.337H138.153H137.968H137.784H137.599H137.415H137.23H137.046H136.861H136.676H136.492H136.307H136.123H135.938H135.754H135.569H135.385H135.2H135.016H134.831H134.646H134.462H134.277H134.093H133.908H133.724H133.539H133.355H133.17H132.986H132.801H132.616H132.432H132.247H132.063H131.878H131.694H131.509H131.325H131.14H130.956H130.771H130.586H130.402H130.217H130.033H129.848H129.664H129.479H129.295H129.11H128.926H128.741H128.556H128.372H128.187H128.003H127.818H127.634H127.449H127.265H127.08L126.896 127.929Z" fill="#004CFF" stroke="black" stroke-width="1.21185" stroke-miterlimit="100" stroke-linejoin="round"/>
</g>
</g>
<g opacity="0.938">
<mask id="mask13_120_2359" style="mask-type:luminance" maskUnits="userSpaceOnUse" x="43" y="44" width="167" height="167">
<path d="M126.895 210.974C148.919 210.974 170.044 202.224 185.617 186.651C201.191 171.078 209.941 149.953 209.941 127.929C209.941 105.905 201.191 84.7802 185.617 69.207C170.044 53.6337 148.919 44.8835 126.895 44.8835C104.872 44.8835 83.7468 53.6337 68.1735 69.207C52.6003 84.7802 43.8501 105.905 43.8501 127.929C43.8501 149.953 52.6003 171.078 68.1735 186.651C83.7468 202.224 104.872 210.974 126.895 210.974Z" fill="white"/>
</mask>
<g mask="url(#mask13_120_2359)">
<path opacity="0.6" d="M126.896 127.929L127.09 127.41L127.285 126.892L127.479 126.374L127.674 125.855L127.868 125.337L128.063 124.819L128.257 124.3L128.452 123.782L128.646 123.264L128.841 122.745L129.035 122.227L129.23 121.709L129.424 121.19L129.619 120.672L129.814 120.154L130.008 119.635L130.203 119.117L130.397 118.599L130.592 118.08L130.786 117.562L130.981 117.044L131.175 116.525L131.37 116.007L131.564 115.489L131.759 114.97L131.953 114.452L132.148 113.934L132.343 113.415L132.537 112.897L132.732 112.379L132.926 111.86L133.121 111.342L133.315 110.824L133.51 110.305L133.704 109.787L133.899 109.269L134.093 108.75L134.288 108.232L134.482 107.714L134.677 107.195L134.872 106.677L135.066 106.159L135.261 105.64L135.455 105.122L135.65 104.604L135.844 104.085L136.039 103.567L136.233 103.049L136.428 102.53L136.622 102.012L136.817 101.494L137.011 100.975L137.206 100.457L137.401 99.9388L137.595 99.4204L137.79 98.9021L137.984 98.3838L138.179 97.8654L138.373 97.3471L138.568 96.8288L138.762 96.3104L138.957 95.7921L139.151 95.2738L139.346 94.7554L139.54 94.2371L139.735 93.7188L139.93 93.2004L140.124 92.6821L140.319 92.1638L140.513 91.6454L140.708 91.1271L140.902 90.6088L141.097 90.0904L141.291 89.5721L141.486 89.0538L141.68 88.5354L141.875 88.0171L142.069 87.4988L142.264 86.9805L142.458 86.4621L142.653 85.9438L142.848 85.4254L143.042 84.9071L143.237 84.3888L143.431 83.8705L143.626 83.3521L143.82 82.8338L144.015 82.3155L144.209 81.7971L144.404 81.2788L144.598 80.7604L144.793 80.2421L144.987 79.7238L145.182 79.2055L145.377 78.6871L145.571 78.1688L145.766 77.6505L145.96 77.1321L146.155 76.6138L146.349 76.0955L146.512 76.1568L146.675 76.2187L146.837 76.2811L146.999 76.344L147.161 76.4074L147.323 76.4713L147.484 76.5358L147.646 76.6007L147.807 76.6661L147.968 76.7321L148.128 76.7985L148.289 76.8655L148.449 76.9329L148.609 77.0009L148.769 77.0694L148.929 77.1383L149.088 77.2078L149.248 77.2778L149.407 77.3482L149.565 77.4192L149.724 77.4907L149.882 77.5626L150.041 77.6351L150.198 77.7081L150.356 77.7815L150.513 77.8554L150.671 77.9299L150.828 78.0048L150.984 78.0802L151.141 78.1561L151.297 78.2326L151.453 78.3095L151.609 78.3869L151.764 78.4647L151.92 78.5431L152.075 78.622L152.229 78.7013L152.384 78.7812L152.538 78.8615L152.692 78.9423L152.846 79.0236L153 79.1053L153.153 79.1876L153.306 79.2703L153.459 79.3535L153.611 79.4372L153.763 79.5214L153.915 79.606L154.067 79.6911L154.218 79.7767L154.369 79.8628L154.52 79.9493L154.671 80.0364L154.821 80.1238L154.971 80.2118L155.121 80.3002L155.27 80.3892L155.42 80.4785L155.569 80.5684L155.717 80.6587L155.866 80.7495L156.014 80.8407L156.161 80.9324L156.309 81.0246L156.456 81.1172L156.603 81.2103L156.75 81.3039L156.896 81.3979L157.042 81.4924L157.188 81.5873L157.333 81.6827L157.478 81.7786L157.623 81.8749L157.768 81.9716L157.912 82.0688L158.056 82.1665L158.2 82.2646L158.343 82.3632L158.486 82.4622L158.628 82.5617L158.771 82.6616L158.913 82.762L159.055 82.8628L159.196 82.964L159.337 83.0657L159.478 83.1679L159.618 83.2704L159.759 83.3735L159.898 83.4769L160.038 83.5808L160.177 83.6852L160.316 83.79L160.454 83.8952L160.592 84.0008L160.73 84.1069L160.868 84.2134L161.005 84.3204L161.142 84.4277L161.278 84.5355L161.414 84.6438L161.069 85.0766L160.724 85.5094L160.379 85.9423L160.034 86.3751L159.689 86.808L159.343 87.2408L158.998 87.6737L158.653 88.1065L158.308 88.5394L157.963 88.9722L157.617 89.4051L157.272 89.8379L156.927 90.2708L156.582 90.7036L156.237 91.1365L155.892 91.5693L155.546 92.0022L155.201 92.435L154.856 92.8679L154.511 93.3007L154.166 93.7336L153.82 94.1664L153.475 94.5993L153.13 95.0321L152.785 95.465L152.44 95.8978L152.094 96.3307L151.749 96.7635L151.404 97.1964L151.059 97.6292L150.714 98.0621L150.369 98.4949L150.023 98.9278L149.678 99.3606L149.333 99.7935L148.988 100.226L148.643 100.659L148.297 101.092L147.952 101.525L147.607 101.958L147.262 102.391L146.917 102.823L146.571 103.256L146.226 103.689L145.881 104.122L145.536 104.555L145.191 104.988L144.846 105.421L144.5 105.853L144.155 106.286L143.81 106.719L143.465 107.152L143.12 107.585L142.774 108.018L142.429 108.45L142.084 108.883L141.739 109.316L141.394 109.749L141.049 110.182L140.703 110.615L140.358 111.048L140.013 111.48L139.668 111.913L139.323 112.346L138.977 112.779L138.632 113.212L138.287 113.645L137.942 114.078L137.597 114.51L137.251 114.943L136.906 115.376L136.561 115.809L136.216 116.242L135.871 116.675L135.526 117.107L135.18 117.54L134.835 117.973L134.49 118.406L134.145 118.839L133.8 119.272L133.454 119.705L133.109 120.137L132.764 120.57L132.419 121.003L132.074 121.436L131.728 121.869L131.383 122.302L131.038 122.735L130.693 123.167L130.348 123.6L130.003 124.033L129.657 124.466L129.312 124.899L128.967 125.332L128.622 125.764L128.277 126.197L127.931 126.63L127.586 127.063L127.241 127.496L126.896 127.929Z" fill="#CEFF29" stroke="black" stroke-width="1.21185" stroke-miterlimit="100" stroke-linejoin="round"/>
</g>
</g>
<g opacity="0.938">
<mask id="mask14_120_2359" style="mask-type:luminance" maskUnits="userSpaceOnUse" x="43" y="44" width="167" height="167">
<path d="M126.895 210.974C148.919 210.974 170.044 202.224 185.617 186.651C201.191 171.078 209.941 149.953 209.941 127.929C209.941 105.905 201.191 84.7802 185.617 69.207C170.044 53.6337 148.919 44.8835 126.895 44.8835C104.872 44.8835 83.7468 53.6337 68.1735 69.207C52.6003 84.7802 43.8501 105.905 43.8501 127.929C43.8501 149.953 52.6003 171.078 68.1735 186.651C83.7468 202.224 104.872 210.974 126.895 210.974Z" fill="white"/>
</mask>
<g mask="url(#mask14_120_2359)">
<path opacity="0.6" d="M126.896 127.929L126.423 127.362L125.949 126.796L125.476 126.229L125.003 125.662L124.53 125.096L124.057 124.529L123.584 123.962L123.111 123.396L122.638 122.829L122.165 122.262L121.692 121.696L121.219 121.129L120.746 120.562L120.272 119.996L119.799 119.429L119.326 118.862L118.853 118.296L118.38 117.729L117.907 117.162L117.434 116.596L116.961 116.029L116.488 115.462L116.015 114.896L115.542 114.329L115.069 113.762L114.595 113.196L114.122 112.629L113.649 112.062L113.176 111.496L112.703 110.929L112.23 110.362L111.757 109.796L111.284 109.229L110.811 108.662L110.338 108.096L109.865 107.529L109.392 106.962L108.918 106.396L108.445 105.829L107.972 105.263L107.499 104.696L107.026 104.129L106.553 103.563L106.08 102.996L105.607 102.429L105.134 101.863L104.661 101.296L104.188 100.729L103.715 100.163L103.242 99.5959L102.768 99.0292L102.295 98.4626L101.822 97.8959L101.349 97.3293L100.876 96.7626L100.403 96.1959L99.9299 95.6293L99.4569 95.0626L98.9838 94.4959L98.5107 93.9293L98.0376 93.3626L97.5645 92.796L97.0914 92.2293L96.6184 91.6626L96.1453 91.096L95.6722 90.5293L95.1991 89.9627L94.726 89.396L94.253 88.8293L93.7799 88.2627L93.3068 87.696L92.8337 87.1294L92.3606 86.5627L91.8875 85.996L91.4145 85.4294L90.9414 84.8627L90.4683 84.2961L89.9952 83.7294L89.5221 83.1627L89.049 82.5961L88.576 82.0294L88.1029 81.4628L87.6298 80.8961L87.1567 80.3294L86.6836 79.7628L86.2106 79.1961L85.7375 78.6295L85.2644 78.0628L84.7913 77.4961L84.3182 76.9295L83.8451 76.3628L83.3721 75.7961L82.899 75.2295L82.4259 74.6628L81.9528 74.0962L81.4797 73.5295L81.0067 72.9628L80.5336 72.3962L80.0605 71.8295L79.5874 71.2629L79.855 71.0406L80.1236 70.8195L80.3932 70.5998L80.6639 70.3813L80.9356 70.1641L81.2083 69.9481L81.482 69.7335L81.7568 69.5201L82.0325 69.308L82.3093 69.0973L82.587 68.8878L82.8657 68.6797L83.1454 68.4728L83.4261 68.2673L83.7077 68.0631L83.9903 67.8603L84.2738 67.6588L84.5583 67.4586L84.8437 67.2598L85.1301 67.0623L85.4174 66.8661L85.7056 66.6713L85.9947 66.4779L86.2848 66.2859L86.5757 66.0952L86.8675 65.9059L87.1603 65.7179L87.4539 65.5314L87.7483 65.3462L88.0437 65.1624L88.3399 64.98L88.637 64.799L88.9349 64.6195L89.2336 64.4413L89.5332 64.2645L89.8337 64.0891L90.1349 63.9152L90.437 63.7427L90.7398 63.5716L91.0435 63.4019L91.348 63.2337L91.6533 63.0669L91.9593 62.9015L92.2661 62.7376L92.5737 62.5751L92.8821 62.4141L93.1912 62.2546L93.501 62.0965L93.8116 61.9399L94.123 61.7847L94.435 61.631L94.7478 61.4788L95.0613 61.328L95.3755 61.1787L95.6904 61.0309L96.006 60.8846L96.3223 60.7398L96.6392 60.5965L96.9569 60.4547L97.2752 60.3143L97.5941 60.1755L97.9137 60.0382L98.234 59.9024L98.5549 59.768L98.8764 59.6353L99.1985 59.504L99.5213 59.3742L99.8446 59.246L100.169 59.1193L100.493 58.9941L100.818 58.8704L101.144 58.7483L101.47 58.6277L101.797 58.5087L102.125 58.3912L102.453 58.2752L102.781 58.1608L103.11 58.0479L103.44 57.9366L103.77 57.8269L104.1 57.7186L104.431 57.612L104.763 57.5069L105.095 57.4034L105.428 57.3015L105.761 57.2011L106.094 57.1023L106.428 57.005L106.763 56.9094L107.098 56.8153L107.433 56.7228L107.769 56.6319L108.105 56.5426L108.442 56.4548L108.779 56.3686L109.116 56.2841L109.454 56.2011L109.792 56.1197L110.131 56.0399L110.47 55.9617L110.634 56.6813L110.798 57.401L110.962 58.1207L111.127 58.8404L111.291 59.56L111.455 60.2797L111.619 60.9994L111.784 61.7191L111.948 62.4387L112.112 63.1584L112.276 63.8781L112.441 64.5977L112.605 65.3174L112.769 66.0371L112.934 66.7568L113.098 67.4764L113.262 68.1961L113.426 68.9158L113.591 69.6355L113.755 70.3551L113.919 71.0748L114.083 71.7945L114.248 72.5142L114.412 73.2338L114.576 73.9535L114.74 74.6732L114.905 75.3928L115.069 76.1125L115.233 76.8322L115.397 77.5519L115.562 78.2715L115.726 78.9912L115.89 79.7109L116.055 80.4306L116.219 81.1502L116.383 81.8699L116.547 82.5896L116.712 83.3092L116.876 84.0289L117.04 84.7486L117.204 85.4683L117.369 86.1879L117.533 86.9076L117.697 87.6273L117.861 88.347L118.026 89.0666L118.19 89.7863L118.354 90.506L118.519 91.2257L118.683 91.9453L118.847 92.665L119.011 93.3847L119.176 94.1043L119.34 94.824L119.504 95.5437L119.668 96.2634L119.833 96.983L119.997 97.7027L120.161 98.4224L120.325 99.1421L120.49 99.8617L120.654 100.581L120.818 101.301L120.983 102.021L121.147 102.74L121.311 103.46L121.475 104.18L121.64 104.899L121.804 105.619L121.968 106.339L122.132 107.058L122.297 107.778L122.461 108.498L122.625 109.217L122.789 109.937L122.954 110.657L123.118 111.376L123.282 112.096L123.446 112.816L123.611 113.536L123.775 114.255L123.939 114.975L124.104 115.695L124.268 116.414L124.432 117.134L124.596 117.854L124.761 118.573L124.925 119.293L125.089 120.013L125.253 120.732L125.418 121.452L125.582 122.172L125.746 122.891L125.91 123.611L126.075 124.331L126.239 125.05L126.403 125.77L126.568 126.49L126.732 127.209L126.896 127.929Z" fill="#FF6800" stroke="black" stroke-width="1.21185" stroke-miterlimit="100" stroke-linejoin="round"/>
</g>
</g>
<g opacity="0.938">
<mask id="mask15_120_2359" style="mask-type:luminance" maskUnits="userSpaceOnUse" x="43" y="44" width="167" height="167">
<path d="M126.895 210.974C148.919 210.974 170.044 202.224 185.617 186.651C201.191 171.078 209.941 149.953 209.941 127.929C209.941 105.905 201.191 84.7802 185.617 69.207C170.044 53.6337 148.919 44.8835 126.895 44.8835C104.872 44.8835 83.7468 53.6337 68.1735 69.207C52.6003 84.7802 43.8501 105.905 43.8501 127.929C43.8501 149.953 52.6003 171.078 68.1735 186.651C83.7468 202.224 104.872 210.974 126.895 210.974Z" fill="white"/>
</mask>
<g mask="url(#mask15_120_2359)">
<path opacity="0.6" d="M126.896 127.929L126.26 128.045L125.624 128.16L124.989 128.275L124.353 128.391L123.718 128.506L123.082 128.621L122.447 128.737L121.811 128.852L121.176 128.967L120.54 129.083L119.905 129.198L119.269 129.313L118.634 129.429L117.998 129.544L117.363 129.659L116.727 129.775L116.092 129.89L115.456 130.005L114.82 130.121L114.185 130.236L113.549 130.351L112.914 130.467L112.278 130.582L111.643 130.697L111.007 130.813L110.372 130.928L109.736 131.043L109.101 131.159L108.465 131.274L107.83 131.389L107.194 131.505L106.559 131.62L105.923 131.735L105.288 131.851L104.652 131.966L104.016 132.082L103.381 132.197L102.745 132.312L102.11 132.428L101.474 132.543L100.839 132.658L100.203 132.774L99.5678 132.889L98.9323 133.004L98.2967 133.12L97.6612 133.235L97.0257 133.35L96.3902 133.466L95.7546 133.581L95.1191 133.696L94.4836 133.812L93.848 133.927L93.2125 134.042L92.577 134.158L91.9415 134.273L91.3059 134.388L90.6704 134.504L90.0349 134.619L89.3993 134.734L88.7638 134.85L88.1283 134.965L87.4928 135.08L86.8572 135.196L86.2217 135.311L85.5862 135.426L84.9506 135.542L84.3151 135.657L83.6796 135.772L83.0441 135.888L82.4085 136.003L81.773 136.118L81.1375 136.234L80.502 136.349L79.8664 136.464L79.2309 136.58L78.5954 136.695L77.9598 136.81L77.3243 136.926L76.6888 137.041L76.0533 137.157L75.4177 137.272L74.7822 137.387L74.1467 137.503L73.5111 137.618L72.8756 137.733L72.2401 137.849L71.6046 137.964L70.969 138.079L70.3335 138.195L69.698 138.31L69.0624 138.425L68.4269 138.541L67.7914 138.656L67.1559 138.771L66.5203 138.887L65.8848 139.002L65.2493 139.117L64.6137 139.233L63.9782 139.348L63.3427 139.463L63.2715 139.064L63.2028 138.664L63.1366 138.263L63.073 137.863L63.0118 137.461L62.9532 137.06L62.8971 136.658L62.8435 136.256L62.7925 135.853L62.744 135.45L62.698 135.047L62.6545 134.643L62.6136 134.24L62.5753 133.836L62.5394 133.431L62.5062 133.027L62.4754 132.622L62.4472 132.217L62.4216 131.812L62.3984 131.407L62.3779 131.002L62.3599 130.596L62.3443 130.191L62.3315 129.785L62.3212 129.379L62.3133 128.974L62.3081 128.568L62.3054 128.162L62.3052 127.756L62.3075 127.35L62.3125 126.945L62.3199 126.539L62.33 126.133L62.3426 125.727L62.3576 125.322L62.3754 124.916L62.3956 124.511L62.4183 124.106L62.4436 123.701L62.4715 123.296L62.5019 122.891L62.5348 122.487L62.5703 122.083L62.6083 121.679L62.6489 121.275L62.6919 120.871L62.7376 120.468L62.7857 120.065L62.8364 119.662L62.8896 119.26L62.9453 118.858L63.0036 118.456L63.0644 118.055L63.1277 117.654L63.1935 117.254L63.2619 116.854L63.3327 116.454L63.4061 116.055L63.4819 115.656L63.5603 115.258L63.6412 114.86L63.7246 114.463L63.8104 114.067L63.8988 113.67L63.9896 113.275L64.083 112.88L64.1788 112.486L64.277 112.092L64.3778 111.699L64.481 111.306L64.5867 110.914L64.6948 110.523L64.8054 110.133L64.9185 109.743L65.034 109.354L65.1519 108.966L65.2723 108.578L65.3951 108.191L65.5203 107.805L65.648 107.42L65.7781 107.036L65.9105 106.652L66.0454 106.269L66.1827 105.887L66.3224 105.506L66.4645 105.126L66.609 104.747L66.7559 104.368L66.9051 103.991L67.0567 103.615L67.2107 103.239L67.367 102.865L67.5256 102.491L67.6866 102.119L67.85 101.747L68.0157 101.377L68.1837 101.007L68.354 100.639L68.5266 100.271L68.7015 99.9053L69.2835 100.186L69.8654 100.466L70.4474 100.746L71.0293 101.026L71.6113 101.307L72.1932 101.587L72.7752 101.867L73.3571 102.147L73.939 102.428L74.521 102.708L75.1029 102.988L75.6849 103.268L76.2668 103.549L76.8488 103.829L77.4307 104.109L78.0126 104.389L78.5946 104.67L79.1765 104.95L79.7585 105.23L80.3404 105.51L80.9224 105.791L81.5043 106.071L82.0862 106.351L82.6682 106.631L83.2501 106.912L83.8321 107.192L84.414 107.472L84.996 107.752L85.5779 108.032L86.1598 108.313L86.7418 108.593L87.3237 108.873L87.9057 109.153L88.4876 109.434L89.0696 109.714L89.6515 109.994L90.2334 110.274L90.8154 110.555L91.3973 110.835L91.9793 111.115L92.5612 111.395L93.1432 111.676L93.7251 111.956L94.307 112.236L94.889 112.516L95.4709 112.797L96.0529 113.077L96.6348 113.357L97.2168 113.637L97.7987 113.918L98.3806 114.198L98.9626 114.478L99.5445 114.758L100.126 115.039L100.708 115.319L101.29 115.599L101.872 115.879L102.454 116.16L103.036 116.44L103.618 116.72L104.2 117L104.782 117.281L105.364 117.561L105.946 117.841L106.528 118.121L107.11 118.402L107.692 118.682L108.274 118.962L108.856 119.242L109.438 119.523L110.02 119.803L110.601 120.083L111.183 120.363L111.765 120.644L112.347 120.924L112.929 121.204L113.511 121.484L114.093 121.765L114.675 122.045L115.257 122.325L115.839 122.605L116.421 122.886L117.003 123.166L117.585 123.446L118.167 123.726L118.749 124.007L119.331 124.287L119.913 124.567L120.494 124.847L121.076 125.128L121.658 125.408L122.24 125.688L122.822 125.968L123.404 126.249L123.986 126.529L124.568 126.809L125.15 127.089L125.732 127.37L126.314 127.65L126.896 127.929Z" fill="#FFC400" stroke="black" stroke-width="1.21185" stroke-miterlimit="100" stroke-linejoin="round"/>
</g>
</g>
<mask id="mask16_120_2359" style="mask-type:luminance" maskUnits="userSpaceOnUse" x="43" y="44" width="167" height="167">
<path d="M126.895 210.974C148.919 210.974 170.044 202.224 185.617 186.651C201.191 171.078 209.941 149.953 209.941 127.929C209.941 105.905 201.191 84.7802 185.617 69.207C170.044 53.6337 148.919 44.8835 126.895 44.8835C104.872 44.8835 83.7468 53.6337 68.1735 69.207C52.6003 84.7802 43.8501 105.905 43.8501 127.929C43.8501 149.953 52.6003 171.078 68.1735 186.651C83.7468 202.224 104.872 210.974 126.895 210.974Z" fill="white"/>
</mask>
<g mask="url(#mask16_120_2359)">
<path opacity="0.6" d="M126.895 127.929L126.592 128.139L126.289 128.349L125.985 128.56L125.682 128.77L125.378 128.98L125.075 129.19L124.772 129.4L124.468 129.61L124.165 129.821L123.862 130.031L123.558 130.241L123.255 130.451L122.951 130.661L122.648 130.871L122.345 131.082L122.041 131.292L121.738 131.502L121.434 131.712L121.131 131.922L120.828 132.133L120.524 132.343L120.221 132.553L119.917 132.763L119.614 132.973L119.311 133.184L119.007 133.394L118.704 133.604L118.4 133.814L118.097 134.024L117.794 134.234L117.49 134.445L117.187 134.655L116.883 134.865L116.58 135.075L116.277 135.285L115.973 135.496L115.67 135.706L115.367 135.916L115.063 136.126L114.76 136.336L114.456 136.546L114.153 136.757L113.85 136.967L113.546 137.177L113.243 137.387L112.939 137.597L112.636 137.808L112.333 138.018L112.029 138.228L111.726 138.438L111.422 138.648L111.119 138.858L110.816 139.069L110.512 139.279L110.209 139.489L109.905 139.699L109.602 139.909L109.299 140.12L108.995 140.33L108.692 140.54L108.388 140.75L108.085 140.96L107.782 141.171L107.478 141.381L107.175 141.591L106.871 141.801L106.568 142.011L106.265 142.221L105.961 142.432L105.658 142.642L105.355 142.852L105.051 143.062L104.748 143.272L104.444 143.483L104.141 143.693L103.838 143.903L103.534 144.113L103.231 144.323L102.927 144.533L102.624 144.744L102.321 144.954L102.017 145.164L101.714 145.374L101.41 145.584L101.107 145.795L100.804 146.005L100.5 146.215L100.197 146.425L99.8935 146.635L99.5901 146.845L99.2867 147.056L98.9833 147.266L98.6799 147.476L98.3765 147.686L98.0731 147.896L97.7697 148.107L97.4663 148.317L97.1629 148.527L96.8595 148.737L96.5561 148.947L96.5231 148.9L96.4902 148.852L96.4574 148.804L96.4246 148.756L96.3919 148.708L96.3593 148.66L96.3268 148.612L96.2944 148.564L96.262 148.516L96.2297 148.468L96.1975 148.42L96.1654 148.372L96.1333 148.323L96.1013 148.275L96.0694 148.227L96.0375 148.178L96.0057 148.13L95.974 148.081L95.9424 148.032L95.9109 147.984L95.8794 147.935L95.848 147.886L95.8167 147.838L95.7855 147.789L95.7543 147.74L95.7232 147.691L95.6922 147.642L95.6613 147.593L95.6304 147.544L95.5997 147.495L95.569 147.445L95.5384 147.396L95.5078 147.347L95.4774 147.298L95.447 147.248L95.4167 147.199L95.3864 147.149L95.3563 147.1L95.3262 147.05L95.2962 147.001L95.2663 146.951L95.2364 146.901L95.2067 146.852L95.177 146.802L95.1474 146.752L95.1179 146.702L95.0884 146.652L95.059 146.602L95.0298 146.552L95.0005 146.502L94.9714 146.452L94.9423 146.402L94.9134 146.351L94.8845 146.301L94.8557 146.251L94.8269 146.201L94.7983 146.15L94.7697 146.1L94.7412 146.049L94.7127 145.999L94.6844 145.948L94.6561 145.897L94.6279 145.847L94.5998 145.796L94.5718 145.745L94.5438 145.695L94.516 145.644L94.4882 145.593L94.4605 145.542L94.4328 145.491L94.4053 145.44L94.3778 145.389L94.3504 145.338L94.3231 145.287L94.2959 145.235L94.2688 145.184L94.2417 145.133L94.2147 145.082L94.1878 145.03L94.161 144.979L94.1342 144.927L94.1076 144.876L94.081 144.824L94.0545 144.773L94.0281 144.721L94.0018 144.67L93.9755 144.618L93.9493 144.566L93.9232 144.514L93.8972 144.463L93.8713 144.411L93.8454 144.359L93.8197 144.307L93.794 144.255L93.7684 144.203L93.7429 144.151L93.7174 144.099L93.6921 144.047L93.6668 143.994L93.6416 143.942L93.9741 143.782L94.3067 143.622L94.6392 143.462L94.9718 143.302L95.3043 143.142L95.6368 142.981L95.9694 142.821L96.3019 142.661L96.6344 142.501L96.967 142.341L97.2995 142.181L97.6321 142.021L97.9646 141.86L98.2971 141.7L98.6297 141.54L98.9622 141.38L99.2948 141.22L99.6273 141.06L99.9598 140.9L100.292 140.739L100.625 140.579L100.957 140.419L101.29 140.259L101.623 140.099L101.955 139.939L102.288 139.779L102.62 139.618L102.953 139.458L103.285 139.298L103.618 139.138L103.95 138.978L104.283 138.818L104.615 138.658L104.948 138.497L105.28 138.337L105.613 138.177L105.946 138.017L106.278 137.857L106.611 137.697L106.943 137.536L107.276 137.376L107.608 137.216L107.941 137.056L108.273 136.896L108.606 136.736L108.938 136.576L109.271 136.415L109.603 136.255L109.936 136.095L110.269 135.935L110.601 135.775L110.934 135.615L111.266 135.455L111.599 135.294L111.931 135.134L112.264 134.974L112.596 134.814L112.929 134.654L113.261 134.494L113.594 134.334L113.926 134.173L114.259 134.013L114.592 133.853L114.924 133.693L115.257 133.533L115.589 133.373L115.922 133.213L116.254 133.052L116.587 132.892L116.919 132.732L117.252 132.572L117.584 132.412L117.917 132.252L118.249 132.092L118.582 131.931L118.915 131.771L119.247 131.611L119.58 131.451L119.912 131.291L120.245 131.131L120.577 130.971L120.91 130.81L121.242 130.65L121.575 130.49L121.907 130.33L122.24 130.17L122.572 130.01L122.905 129.85L123.238 129.689L123.57 129.529L123.903 129.369L124.235 129.209L124.568 129.049L124.9 128.889L125.233 128.729L125.565 128.568L125.898 128.408L126.23 128.248L126.563 128.088L126.895 127.929Z" fill="#29FFCE" stroke="black" stroke-width="1.21185" stroke-miterlimit="100" stroke-linejoin="round"/>
</g>
<g opacity="0.938">
<mask id="mask17_120_2359" style="mask-type:luminance" maskUnits="userSpaceOnUse" x="43" y="44" width="167" height="167">
<path d="M126.895 210.974C148.919 210.974 170.044 202.224 185.617 186.651C201.191 171.078 209.941 149.953 209.941 127.929C209.941 105.905 201.191 84.7802 185.617 69.207C170.044 53.6337 148.919 44.8835 126.895 44.8835C104.872 44.8835 83.7468 53.6337 68.1735 69.207C52.6003 84.7802 43.8501 105.905 43.8501 127.929C43.8501 149.953 52.6003 171.078 68.1735 186.651C83.7468 202.224 104.872 210.974 126.895 210.974Z" fill="white"/>
</mask>
<g mask="url(#mask17_120_2359)">
<path opacity="0.6" d="M126.896 127.929L126.973 128.384L127.05 128.839L127.127 129.293L127.205 129.748L127.282 130.203L127.359 130.658L127.436 131.113L127.514 131.568L127.591 132.023L127.668 132.477L127.746 132.932L127.823 133.387L127.9 133.842L127.977 134.297L128.055 134.752L128.132 135.206L128.209 135.661L128.286 136.116L128.364 136.571L128.441 137.026L128.518 137.481L128.596 137.936L128.673 138.39L128.75 138.845L128.827 139.3L128.905 139.755L128.982 140.21L129.059 140.665L129.136 141.119L129.214 141.574L129.291 142.029L129.368 142.484L129.446 142.939L129.523 143.394L129.6 143.849L129.677 144.303L129.755 144.758L129.832 145.213L129.909 145.668L129.986 146.123L130.064 146.578L130.141 147.032L130.218 147.487L130.295 147.942L130.373 148.397L130.45 148.852L130.527 149.307L130.605 149.761L130.682 150.216L130.759 150.671L130.836 151.126L130.914 151.581L130.991 152.036L131.068 152.491L131.145 152.945L131.223 153.4L131.3 153.855L131.377 154.31L131.455 154.765L131.532 155.22L131.609 155.674L131.686 156.129L131.764 156.584L131.841 157.039L131.918 157.494L131.995 157.949L132.073 158.404L132.15 158.858L132.227 159.313L132.305 159.768L132.382 160.223L132.459 160.678L132.536 161.133L132.614 161.587L132.691 162.042L132.768 162.497L132.845 162.952L132.923 163.407L133 163.862L133.077 164.317L133.155 164.771L133.232 165.226L133.309 165.681L133.386 166.136L133.464 166.591L133.541 167.046L133.618 167.5L133.695 167.955L133.773 168.41L133.85 168.865L133.927 169.32L134.005 169.775L134.082 170.229L134.159 170.684L134.236 171.139L134.314 171.594L134.391 172.049L134.468 172.504L134.545 172.959L134.623 173.413L134.444 173.443L134.265 173.473L134.086 173.501L133.907 173.529L133.728 173.556L133.549 173.583L133.37 173.609L133.19 173.634L133.011 173.658L132.831 173.682L132.651 173.705L132.472 173.727L132.292 173.748L132.112 173.769L131.932 173.789L131.751 173.809L131.571 173.828L131.391 173.846L131.211 173.863L131.03 173.879L130.85 173.895L130.669 173.911L130.489 173.925L130.308 173.939L130.127 173.952L129.947 173.964L129.766 173.976L129.585 173.987L129.404 173.997L129.223 174.006L129.042 174.015L128.861 174.023L128.68 174.031L128.499 174.037L128.318 174.043L128.137 174.048L127.956 174.053L127.775 174.057L127.593 174.06L127.412 174.062L127.231 174.064L127.05 174.065L126.869 174.065L126.688 174.065L126.506 174.063L126.325 174.062L126.144 174.059L125.963 174.056L125.782 174.052L125.601 174.047L125.42 174.042L125.239 174.035L125.058 174.029L124.876 174.021L124.696 174.012L124.515 174.004L124.334 173.994L124.153 173.984L123.972 173.973L123.791 173.961L123.61 173.948L123.43 173.935L123.249 173.921L123.068 173.906L122.888 173.891L122.707 173.875L122.527 173.858L122.347 173.841L122.167 173.822L121.986 173.803L121.806 173.784L121.626 173.763L121.446 173.742L121.266 173.721L121.087 173.698L120.907 173.675L120.727 173.651L120.548 173.626L120.368 173.601L120.189 173.575L120.01 173.548L119.831 173.521L119.652 173.493L119.473 173.464L119.294 173.435L119.116 173.404L118.937 173.374L118.759 173.342L118.58 173.31L118.402 173.277L118.224 173.243L118.046 173.209L117.869 173.173L117.691 173.138L117.513 173.101L117.336 173.064L117.159 173.026L116.982 172.988L116.805 172.948L116.628 172.908L116.731 172.458L116.834 172.009L116.936 171.559L117.039 171.109L117.142 170.659L117.244 170.209L117.347 169.76L117.45 169.31L117.552 168.86L117.655 168.41L117.758 167.961L117.86 167.511L117.963 167.061L118.066 166.611L118.168 166.161L118.271 165.712L118.374 165.262L118.476 164.812L118.579 164.362L118.682 163.912L118.784 163.463L118.887 163.013L118.99 162.563L119.092 162.113L119.195 161.663L119.298 161.214L119.4 160.764L119.503 160.314L119.606 159.864L119.708 159.414L119.811 158.965L119.914 158.515L120.016 158.065L120.119 157.615L120.221 157.165L120.324 156.716L120.427 156.266L120.529 155.816L120.632 155.366L120.735 154.916L120.837 154.467L120.94 154.017L121.043 153.567L121.145 153.117L121.248 152.667L121.351 152.218L121.453 151.768L121.556 151.318L121.659 150.868L121.761 150.418L121.864 149.969L121.967 149.519L122.069 149.069L122.172 148.619L122.275 148.17L122.377 147.72L122.48 147.27L122.583 146.82L122.685 146.37L122.788 145.921L122.891 145.471L122.993 145.021L123.096 144.571L123.199 144.121L123.301 143.672L123.404 143.222L123.507 142.772L123.609 142.322L123.712 141.872L123.815 141.423L123.917 140.973L124.02 140.523L124.123 140.073L124.225 139.623L124.328 139.174L124.431 138.724L124.533 138.274L124.636 137.824L124.739 137.374L124.841 136.925L124.944 136.475L125.046 136.025L125.149 135.575L125.252 135.125L125.354 134.676L125.457 134.226L125.56 133.776L125.662 133.326L125.765 132.876L125.868 132.427L125.97 131.977L126.073 131.527L126.176 131.077L126.278 130.627L126.381 130.178L126.484 129.728L126.586 129.278L126.689 128.828L126.792 128.378L126.896 127.929Z" fill="#7DFF7A" stroke="black" stroke-width="1.21185" stroke-miterlimit="100" stroke-linejoin="round"/>
</g>
</g>
<g opacity="0.938">
<mask id="mask18_120_2359" style="mask-type:luminance" maskUnits="userSpaceOnUse" x="43" y="44" width="167" height="167">
<path d="M126.895 210.974C148.919 210.974 170.044 202.224 185.617 186.651C201.191 171.078 209.941 149.953 209.941 127.929C209.941 105.905 201.191 84.7802 185.617 69.207C170.044 53.6337 148.919 44.8835 126.895 44.8835C104.872 44.8835 83.7468 53.6337 68.1735 69.207C52.6003 84.7802 43.8501 105.905 43.8501 127.929C43.8501 149.953 52.6003 171.078 68.1735 186.651C83.7468 202.224 104.872 210.974 126.895 210.974Z" fill="white"/>
</mask>
<g mask="url(#mask18_120_2359)">
<path opacity="0.6" d="M126.896 127.929L127.478 128.383L128.06 128.836L128.642 129.29L129.225 129.744L129.807 130.198L130.389 130.651L130.971 131.105L131.554 131.559L132.136 132.013L132.718 132.466L133.3 132.92L133.883 133.374L134.465 133.828L135.047 134.281L135.629 134.735L136.212 135.189L136.794 135.643L137.376 136.096L137.958 136.55L138.541 137.004L139.123 137.458L139.705 137.911L140.287 138.365L140.87 138.819L141.452 139.273L142.034 139.726L142.617 140.18L143.199 140.634L143.781 141.088L144.363 141.541L144.946 141.995L145.528 142.449L146.11 142.903L146.692 143.356L147.275 143.81L147.857 144.264L148.439 144.717L149.021 145.171L149.604 145.625L150.186 146.079L150.768 146.532L151.35 146.986L151.933 147.44L152.515 147.894L153.097 148.347L153.679 148.801L154.262 149.255L154.844 149.709L155.426 150.162L156.009 150.616L156.591 151.07L157.173 151.524L157.755 151.977L158.338 152.431L158.92 152.885L159.502 153.339L160.084 153.792L160.667 154.246L161.249 154.7L161.831 155.154L162.413 155.607L162.996 156.061L163.578 156.515L164.16 156.969L164.742 157.422L165.325 157.876L165.907 158.33L166.489 158.784L167.071 159.237L167.654 159.691L168.236 160.145L168.818 160.599L169.401 161.052L169.983 161.506L170.565 161.96L171.147 162.414L171.73 162.867L172.312 163.321L172.894 163.775L173.476 164.228L174.059 164.682L174.641 165.136L175.223 165.59L175.805 166.043L176.388 166.497L176.97 166.951L177.552 167.405L178.134 167.858L178.717 168.312L179.299 168.766L179.881 169.22L180.463 169.673L181.046 170.127L181.628 170.581L182.21 171.035L182.793 171.488L183.375 171.942L183.957 172.396L184.539 172.85L185.122 173.303L185.014 173.44L184.907 173.577L184.799 173.714L184.691 173.85L184.583 173.986L184.474 174.122L184.365 174.257L184.256 174.393L184.146 174.528L184.036 174.663L183.926 174.797L183.815 174.931L183.705 175.065L183.593 175.199L183.482 175.332L183.37 175.466L183.258 175.599L183.145 175.731L183.033 175.864L182.919 175.996L182.806 176.128L182.692 176.259L182.578 176.391L182.464 176.522L182.349 176.652L182.234 176.783L182.119 176.913L182.004 177.043L181.888 177.173L181.771 177.302L181.655 177.431L181.538 177.56L181.421 177.689L181.304 177.817L181.186 177.945L181.068 178.073L180.95 178.201L180.831 178.328L180.712 178.455L180.593 178.581L180.474 178.708L180.354 178.834L180.234 178.96L180.113 179.085L179.993 179.211L179.872 179.336L179.75 179.46L179.629 179.585L179.507 179.709L179.385 179.833L179.262 179.956L179.14 180.079L179.017 180.202L178.893 180.325L178.77 180.447L178.646 180.569L178.522 180.691L178.397 180.813L178.272 180.934L178.147 181.055L178.022 181.175L177.896 181.296L177.771 181.416L177.644 181.535L177.518 181.655L177.391 181.774L177.264 181.893L177.137 182.011L177.009 182.13L176.882 182.248L176.753 182.365L176.625 182.482L176.496 182.599L176.367 182.716L176.238 182.833L176.109 182.949L175.979 183.065L175.849 183.18L175.719 183.295L175.588 183.41L175.457 183.525L175.326 183.639L175.195 183.753L175.063 183.866L174.931 183.98L174.799 184.093L174.666 184.206L174.534 184.318L174.401 184.43L174.267 184.542L174.134 184.653L174 184.764L173.866 184.875L173.732 184.986L173.597 185.096L173.462 185.206L173.327 185.315L173.192 185.425L173.056 185.534L172.92 185.642L172.46 185.065L172 184.488L171.54 183.911L171.079 183.334L170.619 182.757L170.159 182.179L169.699 181.602L169.238 181.025L168.778 180.448L168.318 179.871L167.858 179.294L167.397 178.717L166.937 178.14L166.477 177.562L166.017 176.985L165.556 176.408L165.096 175.831L164.636 175.254L164.176 174.677L163.715 174.1L163.255 173.522L162.795 172.945L162.335 172.368L161.874 171.791L161.414 171.214L160.954 170.637L160.494 170.06L160.033 169.483L159.573 168.905L159.113 168.328L158.653 167.751L158.192 167.174L157.732 166.597L157.272 166.02L156.812 165.443L156.351 164.865L155.891 164.288L155.431 163.711L154.971 163.134L154.51 162.557L154.05 161.98L153.59 161.403L153.13 160.826L152.669 160.248L152.209 159.671L151.749 159.094L151.289 158.517L150.828 157.94L150.368 157.363L149.908 156.786L149.448 156.208L148.987 155.631L148.527 155.054L148.067 154.477L147.607 153.9L147.146 153.323L146.686 152.746L146.226 152.169L145.766 151.591L145.305 151.014L144.845 150.437L144.385 149.86L143.925 149.283L143.464 148.706L143.004 148.129L142.544 147.551L142.084 146.974L141.623 146.397L141.163 145.82L140.703 145.243L140.243 144.666L139.782 144.089L139.322 143.512L138.862 142.934L138.402 142.357L137.941 141.78L137.481 141.203L137.021 140.626L136.561 140.049L136.1 139.472L135.64 138.894L135.18 138.317L134.72 137.74L134.259 137.163L133.799 136.586L133.339 136.009L132.879 135.432L132.418 134.855L131.958 134.277L131.498 133.7L131.038 133.123L130.577 132.546L130.117 131.969L129.657 131.392L129.197 130.815L128.737 130.237L128.276 129.66L127.816 129.083L127.356 128.506L126.896 127.929Z" fill="#FF6800" stroke="black" stroke-width="1.21185" stroke-miterlimit="100" stroke-linejoin="round"/>
</g>
</g>
<path d="M126.895 210.974C148.919 210.974 170.044 202.224 185.617 186.651C201.191 171.078 209.941 149.953 209.941 127.929C209.941 105.905 201.191 84.7802 185.617 69.207C170.044 53.6337 148.919 44.8835 126.895 44.8835C104.872 44.8835 83.7468 53.6337 68.1735 69.207C52.6003 84.7802 43.8501 105.905 43.8501 127.929C43.8501 149.953 52.6003 171.078 68.1735 186.651C83.7468 202.224 104.872 210.974 126.895 210.974Z" stroke="#11557C" stroke-width="2.65878" stroke-miterlimit="100000" stroke-linecap="square"/>
<mask id="mask19_120_2359" style="mask-type:luminance" maskUnits="userSpaceOnUse" x="43" y="44" width="167" height="167">
<path d="M126.895 210.974C148.919 210.974 170.044 202.224 185.617 186.651C201.191 171.078 209.941 149.953 209.941 127.929C209.941 105.905 201.191 84.7802 185.617 69.207C170.044 53.6337 148.919 44.8835 126.895 44.8835C104.872 44.8835 83.7468 53.6337 68.1735 69.207C52.6003 84.7802 43.8501 105.905 43.8501 127.929C43.8501 149.953 52.6003 171.078 68.1735 186.651C83.7468 202.224 104.872 210.974 126.895 210.974Z" fill="white"/>
</mask>
<g mask="url(#mask19_120_2359)">
<path opacity="0.6" d="M126.896 127.929L127.071 127.872L127.247 127.815L127.422 127.758L127.598 127.701L127.773 127.644L127.949 127.587L128.124 127.53L128.3 127.473L128.475 127.416L128.651 127.359L128.826 127.302L129.002 127.245L129.177 127.188L129.353 127.131L129.528 127.074L129.704 127.017L129.879 126.96L130.055 126.903L130.23 126.846L130.406 126.789L130.581 126.732L130.757 126.675L130.932 126.618L131.108 126.561L131.283 126.504L131.459 126.447L131.634 126.39L131.81 126.333L131.985 126.276L132.161 126.219L132.336 126.162L132.512 126.104L132.688 126.047L132.863 125.99L133.039 125.933L133.214 125.876L133.39 125.819L133.565 125.762L133.741 125.705L133.916 125.648L134.092 125.591L134.267 125.534L134.443 125.477L134.618 125.42L134.794 125.363L134.969 125.306L135.145 125.249L135.32 125.192L135.496 125.135L135.671 125.078L135.847 125.021L136.022 124.964L136.198 124.907L136.373 124.85L136.549 124.793L136.724 124.736L136.9 124.679L137.075 124.622L137.251 124.565L137.426 124.508L137.602 124.451L137.777 124.394L137.953 124.337L138.128 124.28L138.304 124.223L138.48 124.166L138.655 124.109L138.831 124.052L139.006 123.995L139.182 123.938L139.357 123.881L139.533 123.824L139.708 123.767L139.884 123.71L140.059 123.653L140.235 123.596L140.41 123.539L140.586 123.482L140.761 123.425L140.937 123.367L141.112 123.31L141.288 123.253L141.463 123.196L141.639 123.139L141.814 123.082L141.99 123.025L142.165 122.968L142.341 122.911L142.516 122.854L142.692 122.797L142.867 122.74L143.043 122.683L143.218 122.626L143.394 122.569L143.569 122.512L143.745 122.455L143.92 122.398L144.096 122.341L144.272 122.284L144.447 122.227L144.465 122.282L144.483 122.337L144.5 122.393L144.517 122.448L144.534 122.503L144.551 122.559L144.568 122.614L144.585 122.67L144.601 122.726L144.618 122.781L144.634 122.837L144.65 122.893L144.665 122.948L144.681 123.004L144.696 123.06L144.712 123.116L144.727 123.172L144.741 123.228L144.756 123.284L144.771 123.34L144.785 123.397L144.799 123.453L144.813 123.509L144.827 123.565L144.841 123.622L144.854 123.678L144.867 123.735L144.88 123.791L144.893 123.848L144.906 123.904L144.919 123.961L144.931 124.017L144.943 124.074L144.955 124.131L144.967 124.188L144.978 124.244L144.99 124.301L145.001 124.358L145.013 124.415L145.023 124.472L145.034 124.529L145.045 124.586L145.055 124.643L145.065 124.7L145.075 124.757L145.085 124.814L145.095 124.871L145.105 124.929L145.114 124.986L145.123 125.043L145.132 125.1L145.141 125.158L145.149 125.215L145.158 125.272L145.166 125.33L145.174 125.387L145.182 125.445L145.19 125.502L145.197 125.559L145.205 125.617L145.212 125.674L145.219 125.732L145.226 125.79L145.232 125.847L145.239 125.905L145.245 125.962L145.251 126.02L145.257 126.078L145.263 126.135L145.268 126.193L145.274 126.251L145.279 126.309L145.284 126.366L145.289 126.424L145.293 126.482L145.298 126.54L145.302 126.598L145.306 126.655L145.31 126.713L145.314 126.771L145.317 126.829L145.321 126.887L145.324 126.945L145.327 127.003L145.33 127.061L145.332 127.118L145.335 127.176L145.337 127.234L145.339 127.292L145.341 127.35L145.343 127.408L145.344 127.466L145.346 127.524L145.347 127.582L145.348 127.64L145.349 127.698L145.349 127.756L145.35 127.814L145.35 127.872L145.35 127.93H145.166H144.981H144.796H144.612H144.427H144.243H144.058H143.874H143.689H143.505H143.32H143.136H142.951H142.766H142.582H142.397H142.213H142.028H141.844H141.659H141.475H141.29H141.106H140.921H140.736H140.552H140.367H140.183H139.998H139.814H139.629H139.445H139.26H139.076H138.891H138.706H138.522H138.337H138.153H137.968H137.784H137.599H137.415H137.23H137.046H136.861H136.676H136.492H136.307H136.123H135.938H135.754H135.569H135.385H135.2H135.016H134.831H134.646H134.462H134.277H134.093H133.908H133.724H133.539H133.355H133.17H132.986H132.801H132.616H132.432H132.247H132.063H131.878H131.694H131.509H131.325H131.14H130.956H130.771H130.586H130.402H130.217H130.033H129.848H129.664H129.479H129.295H129.11H128.926H128.741H128.556H128.372H128.187H128.003H127.818H127.634H127.449H127.265H127.08L126.896 127.929Z" stroke="black" stroke-width="1.21185" stroke-miterlimit="100" stroke-linejoin="round"/>
</g>
<mask id="mask20_120_2359" style="mask-type:luminance" maskUnits="userSpaceOnUse" x="43" y="44" width="167" height="167">
<path d="M126.895 210.974C148.919 210.974 170.044 202.224 185.617 186.651C201.191 171.078 209.941 149.953 209.941 127.929C209.941 105.905 201.191 84.7802 185.617 69.207C170.044 53.6337 148.919 44.8835 126.895 44.8835C104.872 44.8835 83.7468 53.6337 68.1735 69.207C52.6003 84.7802 43.8501 105.905 43.8501 127.929C43.8501 149.953 52.6003 171.078 68.1735 186.651C83.7468 202.224 104.872 210.974 126.895 210.974Z" fill="white"/>
</mask>
<g mask="url(#mask20_120_2359)">
<path opacity="0.6" d="M126.896 127.929L127.09 127.41L127.285 126.892L127.479 126.374L127.674 125.855L127.868 125.337L128.063 124.819L128.257 124.3L128.452 123.782L128.646 123.264L128.841 122.745L129.035 122.227L129.23 121.709L129.424 121.19L129.619 120.672L129.814 120.154L130.008 119.635L130.203 119.117L130.397 118.599L130.592 118.08L130.786 117.562L130.981 117.044L131.175 116.525L131.37 116.007L131.564 115.489L131.759 114.97L131.953 114.452L132.148 113.934L132.343 113.415L132.537 112.897L132.732 112.379L132.926 111.86L133.121 111.342L133.315 110.824L133.51 110.305L133.704 109.787L133.899 109.269L134.093 108.75L134.288 108.232L134.482 107.714L134.677 107.195L134.872 106.677L135.066 106.159L135.261 105.64L135.455 105.122L135.65 104.604L135.844 104.085L136.039 103.567L136.233 103.049L136.428 102.53L136.622 102.012L136.817 101.494L137.011 100.975L137.206 100.457L137.401 99.9388L137.595 99.4204L137.79 98.9021L137.984 98.3838L138.179 97.8654L138.373 97.3471L138.568 96.8288L138.762 96.3104L138.957 95.7921L139.151 95.2738L139.346 94.7554L139.54 94.2371L139.735 93.7188L139.93 93.2004L140.124 92.6821L140.319 92.1638L140.513 91.6454L140.708 91.1271L140.902 90.6088L141.097 90.0904L141.291 89.5721L141.486 89.0538L141.68 88.5354L141.875 88.0171L142.069 87.4988L142.264 86.9805L142.458 86.4621L142.653 85.9438L142.848 85.4254L143.042 84.9071L143.237 84.3888L143.431 83.8705L143.626 83.3521L143.82 82.8338L144.015 82.3155L144.209 81.7971L144.404 81.2788L144.598 80.7605L144.793 80.2421L144.987 79.7238L145.182 79.2055L145.377 78.6871L145.571 78.1688L145.766 77.6505L145.96 77.1321L146.155 76.6138L146.349 76.0955L146.512 76.1568L146.675 76.2187L146.837 76.2811L146.999 76.344L147.161 76.4074L147.323 76.4713L147.484 76.5358L147.646 76.6007L147.807 76.6661L147.968 76.7321L148.128 76.7985L148.289 76.8655L148.449 76.9329L148.609 77.0009L148.769 77.0694L148.929 77.1383L149.088 77.2078L149.248 77.2778L149.407 77.3482L149.565 77.4192L149.724 77.4907L149.882 77.5626L150.041 77.6351L150.198 77.7081L150.356 77.7815L150.513 77.8554L150.671 77.9299L150.828 78.0048L150.984 78.0802L151.141 78.1561L151.297 78.2326L151.453 78.3095L151.609 78.3869L151.764 78.4647L151.92 78.5431L152.075 78.622L152.229 78.7013L152.384 78.7812L152.538 78.8615L152.692 78.9423L152.846 79.0236L153 79.1053L153.153 79.1876L153.306 79.2703L153.459 79.3535L153.611 79.4372L153.763 79.5214L153.915 79.606L154.067 79.6911L154.218 79.7767L154.369 79.8628L154.52 79.9493L154.671 80.0364L154.821 80.1238L154.971 80.2118L155.121 80.3002L155.27 80.3892L155.42 80.4785L155.569 80.5684L155.717 80.6587L155.866 80.7495L156.014 80.8407L156.161 80.9324L156.309 81.0246L156.456 81.1172L156.603 81.2103L156.75 81.3039L156.896 81.3979L157.042 81.4924L157.188 81.5873L157.333 81.6827L157.478 81.7786L157.623 81.8749L157.768 81.9716L157.912 82.0688L158.056 82.1665L158.2 82.2646L158.343 82.3632L158.486 82.4622L158.628 82.5617L158.771 82.6616L158.913 82.762L159.055 82.8628L159.196 82.964L159.337 83.0657L159.478 83.1679L159.618 83.2704L159.759 83.3735L159.898 83.4769L160.038 83.5808L160.177 83.6852L160.316 83.79L160.454 83.8952L160.592 84.0008L160.73 84.1069L160.868 84.2134L161.005 84.3204L161.142 84.4277L161.278 84.5355L161.414 84.6438L161.069 85.0766L160.724 85.5094L160.379 85.9423L160.034 86.3751L159.689 86.808L159.343 87.2408L158.998 87.6737L158.653 88.1065L158.308 88.5394L157.963 88.9722L157.617 89.4051L157.272 89.8379L156.927 90.2708L156.582 90.7036L156.237 91.1365L155.892 91.5693L155.546 92.0022L155.201 92.435L154.856 92.8679L154.511 93.3007L154.166 93.7336L153.82 94.1664L153.475 94.5993L153.13 95.0321L152.785 95.465L152.44 95.8978L152.094 96.3307L151.749 96.7635L151.404 97.1964L151.059 97.6292L150.714 98.0621L150.369 98.4949L150.023 98.9278L149.678 99.3606L149.333 99.7935L148.988 100.226L148.643 100.659L148.297 101.092L147.952 101.525L147.607 101.958L147.262 102.391L146.917 102.823L146.571 103.256L146.226 103.689L145.881 104.122L145.536 104.555L145.191 104.988L144.846 105.421L144.5 105.853L144.155 106.286L143.81 106.719L143.465 107.152L143.12 107.585L142.774 108.018L142.429 108.45L142.084 108.883L141.739 109.316L141.394 109.749L141.049 110.182L140.703 110.615L140.358 111.048L140.013 111.48L139.668 111.913L139.323 112.346L138.977 112.779L138.632 113.212L138.287 113.645L137.942 114.078L137.597 114.51L137.251 114.943L136.906 115.376L136.561 115.809L136.216 116.242L135.871 116.675L135.526 117.107L135.18 117.54L134.835 117.973L134.49 118.406L134.145 118.839L133.8 119.272L133.454 119.705L133.109 120.137L132.764 120.57L132.419 121.003L132.074 121.436L131.728 121.869L131.383 122.302L131.038 122.735L130.693 123.167L130.348 123.6L130.003 124.033L129.657 124.466L129.312 124.899L128.967 125.332L128.622 125.764L128.277 126.197L127.931 126.63L127.586 127.063L127.241 127.496L126.896 127.929Z" stroke="black" stroke-width="1.21185" stroke-miterlimit="100" stroke-linejoin="round"/>
</g>
<mask id="mask21_120_2359" style="mask-type:luminance" maskUnits="userSpaceOnUse" x="43" y="44" width="167" height="167">
<path d="M126.895 210.974C148.919 210.974 170.044 202.224 185.617 186.651C201.191 171.078 209.941 149.953 209.941 127.929C209.941 105.905 201.191 84.7802 185.617 69.207C170.044 53.6337 148.919 44.8835 126.895 44.8835C104.872 44.8835 83.7468 53.6337 68.1735 69.207C52.6003 84.7802 43.8501 105.905 43.8501 127.929C43.8501 149.953 52.6003 171.078 68.1735 186.651C83.7468 202.224 104.872 210.974 126.895 210.974Z" fill="white"/>
</mask>
<g mask="url(#mask21_120_2359)">
<path opacity="0.6" d="M126.896 127.929L126.423 127.362L125.949 126.796L125.476 126.229L125.003 125.662L124.53 125.096L124.057 124.529L123.584 123.962L123.111 123.396L122.638 122.829L122.165 122.262L121.692 121.696L121.219 121.129L120.746 120.562L120.272 119.996L119.799 119.429L119.326 118.862L118.853 118.296L118.38 117.729L117.907 117.162L117.434 116.596L116.961 116.029L116.488 115.462L116.015 114.896L115.542 114.329L115.069 113.762L114.595 113.196L114.122 112.629L113.649 112.062L113.176 111.496L112.703 110.929L112.23 110.362L111.757 109.796L111.284 109.229L110.811 108.662L110.338 108.096L109.865 107.529L109.392 106.962L108.918 106.396L108.445 105.829L107.972 105.263L107.499 104.696L107.026 104.129L106.553 103.563L106.08 102.996L105.607 102.429L105.134 101.863L104.661 101.296L104.188 100.729L103.715 100.163L103.242 99.5959L102.768 99.0292L102.295 98.4626L101.822 97.8959L101.349 97.3293L100.876 96.7626L100.403 96.1959L99.9299 95.6293L99.4569 95.0626L98.9838 94.496L98.5107 93.9293L98.0376 93.3626L97.5645 92.796L97.0914 92.2293L96.6184 91.6626L96.1453 91.096L95.6722 90.5293L95.1991 89.9627L94.726 89.396L94.253 88.8293L93.7799 88.2627L93.3068 87.696L92.8337 87.1294L92.3606 86.5627L91.8875 85.996L91.4145 85.4294L90.9414 84.8627L90.4683 84.2961L89.9952 83.7294L89.5221 83.1627L89.049 82.5961L88.576 82.0294L88.1029 81.4628L87.6298 80.8961L87.1567 80.3294L86.6836 79.7628L86.2106 79.1961L85.7375 78.6295L85.2644 78.0628L84.7913 77.4961L84.3182 76.9295L83.8451 76.3628L83.3721 75.7961L82.899 75.2295L82.4259 74.6628L81.9528 74.0962L81.4797 73.5295L81.0067 72.9628L80.5336 72.3962L80.0605 71.8295L79.5874 71.2629L79.855 71.0406L80.1236 70.8195L80.3932 70.5998L80.6639 70.3813L80.9356 70.1641L81.2083 69.9481L81.482 69.7335L81.7568 69.5201L82.0325 69.308L82.3093 69.0973L82.587 68.8878L82.8657 68.6797L83.1454 68.4728L83.4261 68.2673L83.7077 68.0631L83.9903 67.8603L84.2738 67.6588L84.5583 67.4586L84.8437 67.2598L85.1301 67.0623L85.4174 66.8661L85.7056 66.6713L85.9947 66.4779L86.2848 66.2859L86.5757 66.0952L86.8675 65.9059L87.1603 65.7179L87.4539 65.5314L87.7483 65.3462L88.0437 65.1624L88.3399 64.98L88.637 64.799L88.9349 64.6195L89.2336 64.4413L89.5332 64.2645L89.8337 64.0891L90.1349 63.9152L90.437 63.7427L90.7398 63.5716L91.0435 63.4019L91.348 63.2337L91.6533 63.0669L91.9593 62.9015L92.2661 62.7376L92.5737 62.5751L92.8821 62.4141L93.1912 62.2546L93.501 62.0965L93.8116 61.9399L94.123 61.7847L94.435 61.631L94.7478 61.4788L95.0613 61.328L95.3755 61.1787L95.6904 61.0309L96.006 60.8846L96.3223 60.7398L96.6392 60.5965L96.9569 60.4547L97.2752 60.3143L97.5941 60.1755L97.9137 60.0382L98.234 59.9024L98.5549 59.768L98.8764 59.6353L99.1985 59.504L99.5213 59.3742L99.8446 59.246L100.169 59.1193L100.493 58.9941L100.818 58.8704L101.144 58.7483L101.47 58.6277L101.797 58.5087L102.125 58.3912L102.453 58.2752L102.781 58.1608L103.11 58.0479L103.44 57.9366L103.77 57.8269L104.1 57.7186L104.431 57.612L104.763 57.5069L105.095 57.4034L105.428 57.3015L105.761 57.2011L106.094 57.1023L106.428 57.005L106.763 56.9094L107.098 56.8153L107.433 56.7228L107.769 56.6319L108.105 56.5426L108.442 56.4548L108.779 56.3686L109.116 56.2841L109.454 56.2011L109.792 56.1197L110.131 56.0399L110.47 55.9617L110.634 56.6813L110.798 57.401L110.962 58.1207L111.127 58.8404L111.291 59.56L111.455 60.2797L111.619 60.9994L111.784 61.7191L111.948 62.4387L112.112 63.1584L112.276 63.8781L112.441 64.5977L112.605 65.3174L112.769 66.0371L112.934 66.7568L113.098 67.4764L113.262 68.1961L113.426 68.9158L113.591 69.6355L113.755 70.3551L113.919 71.0748L114.083 71.7945L114.248 72.5142L114.412 73.2338L114.576 73.9535L114.74 74.6732L114.905 75.3928L115.069 76.1125L115.233 76.8322L115.397 77.5519L115.562 78.2715L115.726 78.9912L115.89 79.7109L116.055 80.4306L116.219 81.1502L116.383 81.8699L116.547 82.5896L116.712 83.3092L116.876 84.0289L117.04 84.7486L117.204 85.4683L117.369 86.1879L117.533 86.9076L117.697 87.6273L117.861 88.347L118.026 89.0666L118.19 89.7863L118.354 90.506L118.519 91.2257L118.683 91.9453L118.847 92.665L119.011 93.3847L119.176 94.1043L119.34 94.824L119.504 95.5437L119.668 96.2634L119.833 96.983L119.997 97.7027L120.161 98.4224L120.325 99.1421L120.49 99.8617L120.654 100.581L120.818 101.301L120.983 102.021L121.147 102.74L121.311 103.46L121.475 104.18L121.64 104.899L121.804 105.619L121.968 106.339L122.132 107.058L122.297 107.778L122.461 108.498L122.625 109.217L122.789 109.937L122.954 110.657L123.118 111.376L123.282 112.096L123.446 112.816L123.611 113.536L123.775 114.255L123.939 114.975L124.104 115.695L124.268 116.414L124.432 117.134L124.596 117.854L124.761 118.573L124.925 119.293L125.089 120.013L125.253 120.732L125.418 121.452L125.582 122.172L125.746 122.891L125.91 123.611L126.075 124.331L126.239 125.05L126.403 125.77L126.568 126.49L126.732 127.209L126.896 127.929Z" stroke="black" stroke-width="1.21185" stroke-miterlimit="100" stroke-linejoin="round"/>
</g>
<mask id="mask22_120_2359" style="mask-type:luminance" maskUnits="userSpaceOnUse" x="43" y="44" width="167" height="167">
<path d="M126.895 210.974C148.919 210.974 170.044 202.224 185.617 186.651C201.191 171.078 209.941 149.953 209.941 127.929C209.941 105.905 201.191 84.7802 185.617 69.207C170.044 53.6337 148.919 44.8835 126.895 44.8835C104.872 44.8835 83.7468 53.6337 68.1735 69.207C52.6003 84.7802 43.8501 105.905 43.8501 127.929C43.8501 149.953 52.6003 171.078 68.1735 186.651C83.7468 202.224 104.872 210.974 126.895 210.974Z" fill="white"/>
</mask>
<g mask="url(#mask22_120_2359)">
<path opacity="0.6" d="M126.896 127.929L126.26 128.045L125.624 128.16L124.989 128.275L124.353 128.391L123.718 128.506L123.082 128.621L122.447 128.737L121.811 128.852L121.176 128.967L120.54 129.083L119.905 129.198L119.269 129.313L118.634 129.429L117.998 129.544L117.363 129.659L116.727 129.775L116.092 129.89L115.456 130.005L114.82 130.121L114.185 130.236L113.549 130.351L112.914 130.467L112.278 130.582L111.643 130.697L111.007 130.813L110.372 130.928L109.736 131.043L109.101 131.159L108.465 131.274L107.83 131.389L107.194 131.505L106.559 131.62L105.923 131.735L105.288 131.851L104.652 131.966L104.016 132.082L103.381 132.197L102.745 132.312L102.11 132.428L101.474 132.543L100.839 132.658L100.203 132.774L99.5678 132.889L98.9323 133.004L98.2967 133.12L97.6612 133.235L97.0257 133.35L96.3902 133.466L95.7546 133.581L95.1191 133.696L94.4836 133.812L93.848 133.927L93.2125 134.042L92.577 134.158L91.9415 134.273L91.3059 134.388L90.6704 134.504L90.0349 134.619L89.3993 134.734L88.7638 134.85L88.1283 134.965L87.4928 135.08L86.8572 135.196L86.2217 135.311L85.5862 135.426L84.9507 135.542L84.3151 135.657L83.6796 135.772L83.0441 135.888L82.4085 136.003L81.773 136.118L81.1375 136.234L80.502 136.349L79.8664 136.464L79.2309 136.58L78.5954 136.695L77.9598 136.81L77.3243 136.926L76.6888 137.041L76.0533 137.157L75.4177 137.272L74.7822 137.387L74.1467 137.503L73.5111 137.618L72.8756 137.733L72.2401 137.849L71.6046 137.964L70.969 138.079L70.3335 138.195L69.698 138.31L69.0624 138.425L68.4269 138.541L67.7914 138.656L67.1559 138.771L66.5203 138.887L65.8848 139.002L65.2493 139.117L64.6137 139.233L63.9782 139.348L63.3427 139.463L63.2715 139.064L63.2028 138.664L63.1366 138.263L63.073 137.863L63.0118 137.461L62.9532 137.06L62.8971 136.658L62.8435 136.256L62.7925 135.853L62.744 135.45L62.698 135.047L62.6545 134.643L62.6136 134.24L62.5753 133.836L62.5394 133.431L62.5062 133.027L62.4754 132.622L62.4472 132.217L62.4216 131.812L62.3984 131.407L62.3779 131.002L62.3599 130.596L62.3443 130.191L62.3315 129.785L62.3212 129.379L62.3133 128.974L62.3081 128.568L62.3054 128.162L62.3052 127.756L62.3075 127.35L62.3125 126.945L62.3199 126.539L62.33 126.133L62.3426 125.727L62.3576 125.322L62.3754 124.916L62.3956 124.511L62.4183 124.106L62.4436 123.701L62.4715 123.296L62.5019 122.891L62.5348 122.487L62.5703 122.083L62.6083 121.679L62.6489 121.275L62.6919 120.871L62.7376 120.468L62.7857 120.065L62.8364 119.662L62.8896 119.26L62.9453 118.858L63.0036 118.456L63.0644 118.055L63.1277 117.654L63.1935 117.254L63.2619 116.854L63.3327 116.454L63.4061 116.055L63.4819 115.656L63.5603 115.258L63.6412 114.86L63.7246 114.463L63.8104 114.067L63.8988 113.67L63.9896 113.275L64.083 112.88L64.1788 112.486L64.277 112.092L64.3778 111.699L64.481 111.306L64.5867 110.914L64.6948 110.523L64.8054 110.133L64.9185 109.743L65.034 109.354L65.1519 108.966L65.2723 108.578L65.3951 108.191L65.5203 107.805L65.648 107.42L65.7781 107.036L65.9105 106.652L66.0454 106.269L66.1827 105.887L66.3224 105.506L66.4645 105.126L66.609 104.747L66.7559 104.368L66.9051 103.991L67.0567 103.615L67.2107 103.239L67.367 102.865L67.5256 102.491L67.6866 102.119L67.85 101.747L68.0157 101.377L68.1837 101.007L68.354 100.639L68.5266 100.271L68.7015 99.9053L69.2835 100.186L69.8654 100.466L70.4474 100.746L71.0293 101.026L71.6113 101.307L72.1932 101.587L72.7752 101.867L73.3571 102.147L73.939 102.428L74.521 102.708L75.1029 102.988L75.6849 103.268L76.2668 103.549L76.8488 103.829L77.4307 104.109L78.0126 104.389L78.5946 104.67L79.1765 104.95L79.7585 105.23L80.3404 105.51L80.9224 105.791L81.5043 106.071L82.0862 106.351L82.6682 106.631L83.2501 106.912L83.8321 107.192L84.414 107.472L84.996 107.752L85.5779 108.032L86.1598 108.313L86.7418 108.593L87.3237 108.873L87.9057 109.153L88.4876 109.434L89.0696 109.714L89.6515 109.994L90.2334 110.274L90.8154 110.555L91.3973 110.835L91.9793 111.115L92.5612 111.395L93.1432 111.676L93.7251 111.956L94.3071 112.236L94.889 112.516L95.4709 112.797L96.0529 113.077L96.6348 113.357L97.2168 113.637L97.7987 113.918L98.3806 114.198L98.9626 114.478L99.5445 114.758L100.126 115.039L100.708 115.319L101.29 115.599L101.872 115.879L102.454 116.16L103.036 116.44L103.618 116.72L104.2 117L104.782 117.281L105.364 117.561L105.946 117.841L106.528 118.121L107.11 118.402L107.692 118.682L108.274 118.962L108.856 119.242L109.438 119.523L110.02 119.803L110.601 120.083L111.183 120.363L111.765 120.644L112.347 120.924L112.929 121.204L113.511 121.484L114.093 121.765L114.675 122.045L115.257 122.325L115.839 122.605L116.421 122.886L117.003 123.166L117.585 123.446L118.167 123.726L118.749 124.007L119.331 124.287L119.913 124.567L120.494 124.847L121.076 125.128L121.658 125.408L122.24 125.688L122.822 125.968L123.404 126.249L123.986 126.529L124.568 126.809L125.15 127.089L125.732 127.37L126.314 127.65L126.896 127.929Z" stroke="black" stroke-width="1.21185" stroke-miterlimit="100" stroke-linejoin="round"/>
</g>
<g opacity="0.938">
<mask id="mask23_120_2359" style="mask-type:luminance" maskUnits="userSpaceOnUse" x="43" y="44" width="167" height="167">
<path d="M126.895 210.974C148.919 210.974 170.044 202.224 185.617 186.651C201.191 171.078 209.941 149.953 209.941 127.929C209.941 105.905 201.191 84.7802 185.617 69.207C170.044 53.6337 148.919 44.8835 126.895 44.8835C104.872 44.8835 83.7468 53.6337 68.1735 69.207C52.6003 84.7802 43.8501 105.905 43.8501 127.929C43.8501 149.953 52.6003 171.078 68.1735 186.651C83.7468 202.224 104.872 210.974 126.895 210.974Z" fill="white"/>
</mask>
<g mask="url(#mask23_120_2359)">
<path opacity="0.6" d="M126.895 127.929L126.592 128.139L126.289 128.349L125.985 128.56L125.682 128.77L125.378 128.98L125.075 129.19L124.772 129.4L124.468 129.61L124.165 129.821L123.862 130.031L123.558 130.241L123.255 130.451L122.951 130.661L122.648 130.871L122.345 131.082L122.041 131.292L121.738 131.502L121.434 131.712L121.131 131.922L120.828 132.133L120.524 132.343L120.221 132.553L119.917 132.763L119.614 132.973L119.311 133.184L119.007 133.394L118.704 133.604L118.4 133.814L118.097 134.024L117.794 134.234L117.49 134.445L117.187 134.655L116.883 134.865L116.58 135.075L116.277 135.285L115.973 135.496L115.67 135.706L115.367 135.916L115.063 136.126L114.76 136.336L114.456 136.546L114.153 136.757L113.85 136.967L113.546 137.177L113.243 137.387L112.939 137.597L112.636 137.808L112.333 138.018L112.029 138.228L111.726 138.438L111.422 138.648L111.119 138.858L110.816 139.069L110.512 139.279L110.209 139.489L109.905 139.699L109.602 139.909L109.299 140.12L108.995 140.33L108.692 140.54L108.388 140.75L108.085 140.96L107.782 141.171L107.478 141.381L107.175 141.591L106.871 141.801L106.568 142.011L106.265 142.221L105.961 142.432L105.658 142.642L105.355 142.852L105.051 143.062L104.748 143.272L104.444 143.483L104.141 143.693L103.838 143.903L103.534 144.113L103.231 144.323L102.927 144.533L102.624 144.744L102.321 144.954L102.017 145.164L101.714 145.374L101.41 145.584L101.107 145.795L100.804 146.005L100.5 146.215L100.197 146.425L99.8935 146.635L99.5901 146.845L99.2867 147.056L98.9833 147.266L98.6799 147.476L98.3765 147.686L98.0731 147.896L97.7697 148.107L97.4663 148.317L97.1629 148.527L96.8595 148.737L96.5561 148.947L96.5231 148.9L96.4902 148.852L96.4574 148.804L96.4246 148.756L96.3919 148.708L96.3593 148.66L96.3268 148.612L96.2944 148.564L96.262 148.516L96.2297 148.468L96.1975 148.42L96.1654 148.372L96.1333 148.323L96.1013 148.275L96.0694 148.227L96.0375 148.178L96.0057 148.13L95.974 148.081L95.9424 148.032L95.9109 147.984L95.8794 147.935L95.848 147.886L95.8167 147.838L95.7855 147.789L95.7543 147.74L95.7232 147.691L95.6922 147.642L95.6613 147.593L95.6304 147.544L95.5997 147.495L95.569 147.445L95.5384 147.396L95.5078 147.347L95.4774 147.298L95.447 147.248L95.4167 147.199L95.3864 147.149L95.3563 147.1L95.3262 147.05L95.2962 147.001L95.2663 146.951L95.2364 146.901L95.2067 146.852L95.177 146.802L95.1474 146.752L95.1179 146.702L95.0884 146.652L95.059 146.602L95.0298 146.552L95.0005 146.502L94.9714 146.452L94.9423 146.402L94.9134 146.351L94.8845 146.301L94.8557 146.251L94.8269 146.201L94.7983 146.15L94.7697 146.1L94.7412 146.049L94.7127 145.999L94.6844 145.948L94.6561 145.897L94.6279 145.847L94.5998 145.796L94.5718 145.745L94.5438 145.695L94.516 145.644L94.4882 145.593L94.4605 145.542L94.4328 145.491L94.4053 145.44L94.3778 145.389L94.3504 145.338L94.3231 145.287L94.2959 145.235L94.2688 145.184L94.2417 145.133L94.2147 145.082L94.1878 145.03L94.161 144.979L94.1342 144.927L94.1076 144.876L94.081 144.824L94.0545 144.773L94.0281 144.721L94.0018 144.67L93.9755 144.618L93.9493 144.566L93.9232 144.514L93.8972 144.463L93.8713 144.411L93.8454 144.359L93.8197 144.307L93.794 144.255L93.7684 144.203L93.7429 144.151L93.7174 144.099L93.6921 144.047L93.6668 143.994L93.6416 143.942L93.9741 143.782L94.3067 143.622L94.6392 143.462L94.9718 143.302L95.3043 143.142L95.6368 142.981L95.9694 142.821L96.3019 142.661L96.6344 142.501L96.967 142.341L97.2995 142.181L97.6321 142.021L97.9646 141.86L98.2971 141.7L98.6297 141.54L98.9622 141.38L99.2948 141.22L99.6273 141.06L99.9598 140.9L100.292 140.739L100.625 140.579L100.957 140.419L101.29 140.259L101.623 140.099L101.955 139.939L102.288 139.779L102.62 139.618L102.953 139.458L103.285 139.298L103.618 139.138L103.95 138.978L104.283 138.818L104.615 138.658L104.948 138.497L105.28 138.337L105.613 138.177L105.946 138.017L106.278 137.857L106.611 137.697L106.943 137.536L107.276 137.376L107.608 137.216L107.941 137.056L108.273 136.896L108.606 136.736L108.938 136.576L109.271 136.415L109.603 136.255L109.936 136.095L110.269 135.935L110.601 135.775L110.934 135.615L111.266 135.455L111.599 135.294L111.931 135.134L112.264 134.974L112.596 134.814L112.929 134.654L113.261 134.494L113.594 134.334L113.926 134.173L114.259 134.013L114.592 133.853L114.924 133.693L115.257 133.533L115.589 133.373L115.922 133.213L116.254 133.052L116.587 132.892L116.919 132.732L117.252 132.572L117.584 132.412L117.917 132.252L118.249 132.092L118.582 131.931L118.915 131.771L119.247 131.611L119.58 131.451L119.912 131.291L120.245 131.131L120.577 130.971L120.91 130.81L121.242 130.65L121.575 130.49L121.907 130.33L122.24 130.17L122.572 130.01L122.905 129.85L123.238 129.689L123.57 129.529L123.903 129.369L124.235 129.209L124.568 129.049L124.9 128.889L125.233 128.729L125.565 128.568L125.898 128.408L126.23 128.248L126.563 128.088L126.895 127.929Z" stroke="black" stroke-width="1.21185" stroke-miterlimit="100" stroke-linejoin="round"/>
</g>
</g>
<mask id="mask24_120_2359" style="mask-type:luminance" maskUnits="userSpaceOnUse" x="43" y="44" width="167" height="167">
<path d="M126.895 210.974C148.919 210.974 170.044 202.224 185.617 186.651C201.191 171.078 209.941 149.953 209.941 127.929C209.941 105.905 201.191 84.7802 185.617 69.207C170.044 53.6337 148.919 44.8835 126.895 44.8835C104.872 44.8835 83.7468 53.6337 68.1735 69.207C52.6003 84.7802 43.8501 105.905 43.8501 127.929C43.8501 149.953 52.6003 171.078 68.1735 186.651C83.7468 202.224 104.872 210.974 126.895 210.974Z" fill="white"/>
</mask>
<g mask="url(#mask24_120_2359)">
<path opacity="0.6" d="M126.896 127.929L126.973 128.384L127.05 128.839L127.127 129.293L127.205 129.748L127.282 130.203L127.359 130.658L127.436 131.113L127.514 131.568L127.591 132.023L127.668 132.477L127.746 132.932L127.823 133.387L127.9 133.842L127.977 134.297L128.055 134.752L128.132 135.206L128.209 135.661L128.286 136.116L128.364 136.571L128.441 137.026L128.518 137.481L128.596 137.936L128.673 138.39L128.75 138.845L128.827 139.3L128.905 139.755L128.982 140.21L129.059 140.665L129.136 141.119L129.214 141.574L129.291 142.029L129.368 142.484L129.446 142.939L129.523 143.394L129.6 143.849L129.677 144.303L129.755 144.758L129.832 145.213L129.909 145.668L129.986 146.123L130.064 146.578L130.141 147.032L130.218 147.487L130.295 147.942L130.373 148.397L130.45 148.852L130.527 149.307L130.605 149.761L130.682 150.216L130.759 150.671L130.836 151.126L130.914 151.581L130.991 152.036L131.068 152.491L131.145 152.945L131.223 153.4L131.3 153.855L131.377 154.31L131.455 154.765L131.532 155.22L131.609 155.674L131.686 156.129L131.764 156.584L131.841 157.039L131.918 157.494L131.995 157.949L132.073 158.404L132.15 158.858L132.227 159.313L132.305 159.768L132.382 160.223L132.459 160.678L132.536 161.133L132.614 161.587L132.691 162.042L132.768 162.497L132.845 162.952L132.923 163.407L133 163.862L133.077 164.317L133.155 164.771L133.232 165.226L133.309 165.681L133.386 166.136L133.464 166.591L133.541 167.046L133.618 167.5L133.695 167.955L133.773 168.41L133.85 168.865L133.927 169.32L134.005 169.775L134.082 170.229L134.159 170.684L134.236 171.139L134.314 171.594L134.391 172.049L134.468 172.504L134.545 172.959L134.623 173.413L134.444 173.443L134.265 173.473L134.086 173.501L133.907 173.529L133.728 173.556L133.549 173.583L133.37 173.609L133.19 173.634L133.011 173.658L132.831 173.682L132.651 173.705L132.472 173.727L132.292 173.748L132.112 173.769L131.932 173.789L131.751 173.809L131.571 173.828L131.391 173.846L131.211 173.863L131.03 173.879L130.85 173.895L130.669 173.911L130.489 173.925L130.308 173.939L130.127 173.952L129.947 173.964L129.766 173.976L129.585 173.987L129.404 173.997L129.223 174.006L129.042 174.015L128.861 174.023L128.68 174.031L128.499 174.037L128.318 174.043L128.137 174.048L127.956 174.053L127.775 174.057L127.593 174.06L127.412 174.062L127.231 174.064L127.05 174.065L126.869 174.065L126.688 174.065L126.506 174.063L126.325 174.062L126.144 174.059L125.963 174.056L125.782 174.052L125.601 174.047L125.42 174.042L125.239 174.035L125.058 174.029L124.876 174.021L124.696 174.012L124.515 174.004L124.334 173.994L124.153 173.984L123.972 173.973L123.791 173.961L123.61 173.948L123.43 173.935L123.249 173.921L123.068 173.906L122.888 173.891L122.707 173.875L122.527 173.858L122.347 173.841L122.167 173.822L121.986 173.803L121.806 173.784L121.626 173.763L121.446 173.742L121.266 173.721L121.087 173.698L120.907 173.675L120.727 173.651L120.548 173.626L120.368 173.601L120.189 173.575L120.01 173.548L119.831 173.521L119.652 173.493L119.473 173.464L119.294 173.435L119.116 173.404L118.937 173.374L118.759 173.342L118.58 173.31L118.402 173.277L118.224 173.243L118.046 173.209L117.869 173.173L117.691 173.138L117.513 173.101L117.336 173.064L117.159 173.026L116.982 172.988L116.805 172.948L116.628 172.908L116.731 172.458L116.834 172.009L116.936 171.559L117.039 171.109L117.142 170.659L117.244 170.209L117.347 169.76L117.45 169.31L117.552 168.86L117.655 168.41L117.758 167.961L117.86 167.511L117.963 167.061L118.066 166.611L118.168 166.161L118.271 165.712L118.374 165.262L118.476 164.812L118.579 164.362L118.682 163.912L118.784 163.463L118.887 163.013L118.99 162.563L119.092 162.113L119.195 161.663L119.298 161.214L119.4 160.764L119.503 160.314L119.606 159.864L119.708 159.414L119.811 158.965L119.914 158.515L120.016 158.065L120.119 157.615L120.221 157.165L120.324 156.716L120.427 156.266L120.529 155.816L120.632 155.366L120.735 154.916L120.837 154.467L120.94 154.017L121.043 153.567L121.145 153.117L121.248 152.667L121.351 152.218L121.453 151.768L121.556 151.318L121.659 150.868L121.761 150.418L121.864 149.969L121.967 149.519L122.069 149.069L122.172 148.619L122.275 148.17L122.377 147.72L122.48 147.27L122.583 146.82L122.685 146.37L122.788 145.921L122.891 145.471L122.993 145.021L123.096 144.571L123.199 144.121L123.301 143.672L123.404 143.222L123.507 142.772L123.609 142.322L123.712 141.872L123.815 141.423L123.917 140.973L124.02 140.523L124.123 140.073L124.225 139.623L124.328 139.174L124.431 138.724L124.533 138.274L124.636 137.824L124.739 137.374L124.841 136.925L124.944 136.475L125.046 136.025L125.149 135.575L125.252 135.125L125.354 134.676L125.457 134.226L125.56 133.776L125.662 133.326L125.765 132.876L125.868 132.427L125.97 131.977L126.073 131.527L126.176 131.077L126.278 130.627L126.381 130.178L126.484 129.728L126.586 129.278L126.689 128.828L126.792 128.378L126.896 127.929Z" stroke="black" stroke-width="1.21185" stroke-miterlimit="100" stroke-linejoin="round"/>
</g>
<mask id="mask25_120_2359" style="mask-type:luminance" maskUnits="userSpaceOnUse" x="43" y="44" width="167" height="167">
<path d="M126.895 210.974C148.919 210.974 170.044 202.224 185.617 186.651C201.191 171.078 209.941 149.953 209.941 127.929C209.941 105.905 201.191 84.7802 185.617 69.207C170.044 53.6337 148.919 44.8835 126.895 44.8835C104.872 44.8835 83.7468 53.6337 68.1735 69.207C52.6003 84.7802 43.8501 105.905 43.8501 127.929C43.8501 149.953 52.6003 171.078 68.1735 186.651C83.7468 202.224 104.872 210.974 126.895 210.974Z" fill="white"/>
</mask>
<g mask="url(#mask25_120_2359)">
<path opacity="0.6" d="M126.896 127.929L127.478 128.383L128.06 128.836L128.642 129.29L129.225 129.744L129.807 130.198L130.389 130.651L130.971 131.105L131.554 131.559L132.136 132.013L132.718 132.466L133.3 132.92L133.883 133.374L134.465 133.828L135.047 134.281L135.629 134.735L136.212 135.189L136.794 135.643L137.376 136.096L137.958 136.55L138.541 137.004L139.123 137.458L139.705 137.911L140.287 138.365L140.87 138.819L141.452 139.273L142.034 139.726L142.617 140.18L143.199 140.634L143.781 141.088L144.363 141.541L144.946 141.995L145.528 142.449L146.11 142.903L146.692 143.356L147.275 143.81L147.857 144.264L148.439 144.717L149.021 145.171L149.604 145.625L150.186 146.079L150.768 146.532L151.35 146.986L151.933 147.44L152.515 147.894L153.097 148.347L153.679 148.801L154.262 149.255L154.844 149.709L155.426 150.162L156.009 150.616L156.591 151.07L157.173 151.524L157.755 151.977L158.338 152.431L158.92 152.885L159.502 153.339L160.084 153.792L160.667 154.246L161.249 154.7L161.831 155.154L162.413 155.607L162.996 156.061L163.578 156.515L164.16 156.969L164.742 157.422L165.325 157.876L165.907 158.33L166.489 158.784L167.071 159.237L167.654 159.691L168.236 160.145L168.818 160.599L169.401 161.052L169.983 161.506L170.565 161.96L171.147 162.414L171.73 162.867L172.312 163.321L172.894 163.775L173.476 164.228L174.059 164.682L174.641 165.136L175.223 165.59L175.805 166.043L176.388 166.497L176.97 166.951L177.552 167.405L178.134 167.858L178.717 168.312L179.299 168.766L179.881 169.22L180.463 169.673L181.046 170.127L181.628 170.581L182.21 171.035L182.793 171.488L183.375 171.942L183.957 172.396L184.539 172.85L185.122 173.303L185.014 173.44L184.907 173.577L184.799 173.714L184.691 173.85L184.583 173.986L184.474 174.122L184.365 174.257L184.256 174.393L184.146 174.528L184.036 174.663L183.926 174.797L183.815 174.931L183.705 175.065L183.593 175.199L183.482 175.332L183.37 175.466L183.258 175.599L183.145 175.731L183.033 175.864L182.919 175.996L182.806 176.128L182.692 176.259L182.578 176.391L182.464 176.522L182.349 176.652L182.234 176.783L182.119 176.913L182.004 177.043L181.888 177.173L181.771 177.302L181.655 177.431L181.538 177.56L181.421 177.689L181.304 177.817L181.186 177.945L181.068 178.073L180.95 178.201L180.831 178.328L180.712 178.455L180.593 178.581L180.474 178.708L180.354 178.834L180.234 178.96L180.113 179.085L179.993 179.211L179.872 179.336L179.75 179.46L179.629 179.585L179.507 179.709L179.385 179.833L179.262 179.956L179.14 180.079L179.017 180.202L178.893 180.325L178.77 180.447L178.646 180.569L178.522 180.691L178.397 180.813L178.272 180.934L178.147 181.055L178.022 181.175L177.896 181.296L177.771 181.416L177.644 181.535L177.518 181.655L177.391 181.774L177.264 181.893L177.137 182.011L177.009 182.13L176.882 182.248L176.753 182.365L176.625 182.482L176.496 182.599L176.367 182.716L176.238 182.833L176.109 182.949L175.979 183.065L175.849 183.18L175.719 183.295L175.588 183.41L175.457 183.525L175.326 183.639L175.195 183.753L175.063 183.866L174.931 183.98L174.799 184.093L174.666 184.206L174.534 184.318L174.401 184.43L174.267 184.542L174.134 184.653L174 184.764L173.866 184.875L173.732 184.986L173.597 185.096L173.462 185.206L173.327 185.315L173.192 185.425L173.056 185.534L172.92 185.642L172.46 185.065L172 184.488L171.54 183.911L171.079 183.334L170.619 182.757L170.159 182.179L169.699 181.602L169.238 181.025L168.778 180.448L168.318 179.871L167.858 179.294L167.397 178.717L166.937 178.14L166.477 177.562L166.017 176.985L165.556 176.408L165.096 175.831L164.636 175.254L164.176 174.677L163.715 174.1L163.255 173.522L162.795 172.945L162.335 172.368L161.874 171.791L161.414 171.214L160.954 170.637L160.494 170.06L160.033 169.483L159.573 168.905L159.113 168.328L158.653 167.751L158.192 167.174L157.732 166.597L157.272 166.02L156.812 165.443L156.351 164.865L155.891 164.288L155.431 163.711L154.971 163.134L154.51 162.557L154.05 161.98L153.59 161.403L153.13 160.826L152.669 160.248L152.209 159.671L151.749 159.094L151.289 158.517L150.828 157.94L150.368 157.363L149.908 156.786L149.448 156.208L148.987 155.631L148.527 155.054L148.067 154.477L147.607 153.9L147.146 153.323L146.686 152.746L146.226 152.169L145.766 151.591L145.305 151.014L144.845 150.437L144.385 149.86L143.925 149.283L143.464 148.706L143.004 148.129L142.544 147.551L142.084 146.974L141.623 146.397L141.163 145.82L140.703 145.243L140.243 144.666L139.782 144.089L139.322 143.512L138.862 142.934L138.402 142.357L137.941 141.78L137.481 141.203L137.021 140.626L136.561 140.049L136.1 139.472L135.64 138.894L135.18 138.317L134.72 137.74L134.259 137.163L133.799 136.586L133.339 136.009L132.879 135.432L132.418 134.855L131.958 134.277L131.498 133.7L131.038 133.123L130.577 132.546L130.117 131.969L129.657 131.392L129.197 130.815L128.737 130.237L128.276 129.66L127.816 129.083L127.356 128.506L126.896 127.929Z" stroke="black" stroke-width="1.21185" stroke-miterlimit="100" stroke-linejoin="round"/>
</g>
</svg>
