<svg width="256" height="256" viewBox="0 0 256 256" fill="none" xmlns="http://www.w3.org/2000/svg">
<g clip-path="url(#clip0_225_1387)">
<path d="M196 0H60C26.8629 0 0 26.8629 0 60V196C0 229.137 26.8629 256 60 256H196C229.137 256 256 229.137 256 196V60C256 26.8629 229.137 0 196 0Z" fill="#F4F2ED"/>
<path d="M221.946 128C221.946 115.663 219.516 103.446 214.795 92.0486C210.074 80.6508 203.154 70.2938 194.43 61.5704C185.707 52.8469 175.35 45.9266 163.952 41.2055C152.554 36.4844 140.337 34.0543 128 34.0543C115.664 34.0543 103.447 36.4844 92.0489 41.2055C80.6512 45.9266 70.2942 52.8469 61.5707 61.5704C52.8473 70.2938 45.927 80.6508 41.2059 92.0486C36.4848 103.446 34.0547 115.663 34.0547 128C34.0547 140.337 36.4848 152.554 41.2059 163.951C45.927 175.349 52.8473 185.706 61.5707 194.43C70.2942 203.153 80.6512 210.073 92.0489 214.795C103.447 219.516 115.664 221.946 128 221.946C140.337 221.946 152.554 219.516 163.952 214.795C175.35 210.073 185.707 203.153 194.43 194.43C203.154 185.706 210.074 175.349 214.795 163.951C219.516 152.554 221.946 140.337 221.946 128Z" fill="white"/>
<path d="M228 128C228 141.132 225.413 154.136 220.388 166.268C215.363 178.401 207.996 189.425 198.711 198.711C189.425 207.996 178.401 215.363 166.268 220.388C154.136 225.413 141.132 228 128 228C114.868 228 101.864 225.413 89.7317 220.388C77.5994 215.363 66.575 207.996 57.2893 198.711C48.0037 189.425 40.6374 178.401 35.612 166.268C30.5867 154.136 28 141.132 28 128C28 114.868 30.5867 101.864 35.612 89.7317C40.6374 77.5994 48.0037 66.575 57.2893 57.2893C66.575 48.0037 77.5994 40.6374 89.7317 35.612C101.864 30.5867 114.868 28 128 28C141.132 28 154.136 30.5867 166.268 35.612C178.401 40.6374 189.425 48.0037 198.711 57.2893C207.996 66.575 215.363 77.5994 220.388 89.7317C225.413 101.864 228 114.868 228 128Z" fill="white"/>
<mask id="mask0_225_1387" style="mask-type:luminance" maskUnits="userSpaceOnUse" x="34" y="34" width="188" height="188">
<path d="M221.946 128C221.946 115.663 219.516 103.446 214.795 92.0486C210.074 80.6508 203.154 70.2938 194.43 61.5704C185.707 52.8469 175.35 45.9266 163.952 41.2055C152.554 36.4844 140.337 34.0543 128 34.0543C115.664 34.0543 103.447 36.4844 92.0489 41.2055C80.6512 45.9266 70.2942 52.8469 61.5707 61.5704C52.8473 70.2938 45.927 80.6508 41.2059 92.0486C36.4848 103.446 34.0547 115.663 34.0547 128C34.0547 140.337 36.4848 152.554 41.2059 163.951C45.927 175.349 52.8473 185.706 61.5707 194.43C70.2942 203.153 80.6512 210.073 92.0489 214.795C103.447 219.516 115.664 221.946 128 221.946C140.337 221.946 152.554 219.516 163.952 214.795C175.35 210.073 185.707 203.153 194.43 194.43C203.154 185.706 210.074 175.349 214.795 163.951C219.516 152.554 221.946 140.337 221.946 128Z" fill="white"/>
</mask>
<g mask="url(#mask0_225_1387)">
<path d="M128 128H221.946" stroke="#E6E6E6" stroke-width="0.666667" stroke-linecap="square"/>
</g>
<mask id="mask1_225_1387" style="mask-type:luminance" maskUnits="userSpaceOnUse" x="34" y="34" width="188" height="188">
<path d="M221.946 128C221.946 115.663 219.516 103.446 214.795 92.0486C210.074 80.6508 203.154 70.2938 194.43 61.5704C185.707 52.8469 175.35 45.9266 163.952 41.2055C152.554 36.4844 140.337 34.0543 128 34.0543C115.664 34.0543 103.447 36.4844 92.0489 41.2055C80.6512 45.9266 70.2942 52.8469 61.5707 61.5704C52.8473 70.2938 45.927 80.6508 41.2059 92.0486C36.4848 103.446 34.0547 115.663 34.0547 128C34.0547 140.337 36.4848 152.554 41.2059 163.951C45.927 175.349 52.8473 185.706 61.5707 194.43C70.2942 203.153 80.6512 210.073 92.0489 214.795C103.447 219.516 115.664 221.946 128 221.946C140.337 221.946 152.554 219.516 163.952 214.795C175.35 210.073 185.707 203.153 194.43 194.43C203.154 185.706 210.074 175.349 214.795 163.951C219.516 152.554 221.946 140.337 221.946 128Z" fill="white"/>
</mask>
<g mask="url(#mask1_225_1387)">
<path d="M128 128L194.43 61.5704" stroke="#E6E6E6" stroke-width="0.666667" stroke-linecap="square"/>
</g>
<mask id="mask2_225_1387" style="mask-type:luminance" maskUnits="userSpaceOnUse" x="34" y="34" width="188" height="188">
<path d="M221.946 128C221.946 115.663 219.516 103.446 214.795 92.0486C210.074 80.6508 203.154 70.2938 194.43 61.5704C185.707 52.8469 175.35 45.9266 163.952 41.2055C152.554 36.4844 140.337 34.0543 128 34.0543C115.664 34.0543 103.447 36.4844 92.0489 41.2055C80.6512 45.9266 70.2942 52.8469 61.5707 61.5704C52.8473 70.2938 45.927 80.6508 41.2059 92.0486C36.4848 103.446 34.0547 115.663 34.0547 128C34.0547 140.337 36.4848 152.554 41.2059 163.951C45.927 175.349 52.8473 185.706 61.5707 194.43C70.2942 203.153 80.6512 210.073 92.0489 214.795C103.447 219.516 115.664 221.946 128 221.946C140.337 221.946 152.554 219.516 163.952 214.795C175.35 210.073 185.707 203.153 194.43 194.43C203.154 185.706 210.074 175.349 214.795 163.951C219.516 152.554 221.946 140.337 221.946 128Z" fill="white"/>
</mask>
<g mask="url(#mask2_225_1387)">
<path d="M128 128V34.0543" stroke="#E6E6E6" stroke-width="0.666667" stroke-linecap="square"/>
</g>
<mask id="mask3_225_1387" style="mask-type:luminance" maskUnits="userSpaceOnUse" x="34" y="34" width="188" height="188">
<path d="M221.946 128C221.946 115.663 219.516 103.446 214.795 92.0486C210.074 80.6508 203.154 70.2938 194.43 61.5704C185.707 52.8469 175.35 45.9266 163.952 41.2055C152.554 36.4844 140.337 34.0543 128 34.0543C115.664 34.0543 103.447 36.4844 92.0489 41.2055C80.6512 45.9266 70.2942 52.8469 61.5707 61.5704C52.8473 70.2938 45.927 80.6508 41.2059 92.0486C36.4848 103.446 34.0547 115.663 34.0547 128C34.0547 140.337 36.4848 152.554 41.2059 163.951C45.927 175.349 52.8473 185.706 61.5707 194.43C70.2942 203.153 80.6512 210.073 92.0489 214.795C103.447 219.516 115.664 221.946 128 221.946C140.337 221.946 152.554 219.516 163.952 214.795C175.35 210.073 185.707 203.153 194.43 194.43C203.154 185.706 210.074 175.349 214.795 163.951C219.516 152.554 221.946 140.337 221.946 128Z" fill="white"/>
</mask>
<g mask="url(#mask3_225_1387)">
<path d="M128.001 128L61.5713 61.5704" stroke="#E6E6E6" stroke-width="0.666667" stroke-linecap="square"/>
</g>
<mask id="mask4_225_1387" style="mask-type:luminance" maskUnits="userSpaceOnUse" x="34" y="34" width="188" height="188">
<path d="M221.946 128C221.946 115.663 219.516 103.446 214.795 92.0486C210.074 80.6508 203.154 70.2938 194.43 61.5704C185.707 52.8469 175.35 45.9266 163.952 41.2055C152.554 36.4844 140.337 34.0543 128 34.0543C115.664 34.0543 103.447 36.4844 92.0489 41.2055C80.6512 45.9266 70.2942 52.8469 61.5707 61.5704C52.8473 70.2938 45.927 80.6508 41.2059 92.0486C36.4848 103.446 34.0547 115.663 34.0547 128C34.0547 140.337 36.4848 152.554 41.2059 163.951C45.927 175.349 52.8473 185.706 61.5707 194.43C70.2942 203.153 80.6512 210.073 92.0489 214.795C103.447 219.516 115.664 221.946 128 221.946C140.337 221.946 152.554 219.516 163.952 214.795C175.35 210.073 185.707 203.153 194.43 194.43C203.154 185.706 210.074 175.349 214.795 163.951C219.516 152.554 221.946 140.337 221.946 128Z" fill="white"/>
</mask>
<g mask="url(#mask4_225_1387)">
<path d="M128 128H34.0547" stroke="#E6E6E6" stroke-width="0.666667" stroke-linecap="square"/>
</g>
<mask id="mask5_225_1387" style="mask-type:luminance" maskUnits="userSpaceOnUse" x="34" y="34" width="188" height="188">
<path d="M221.946 128C221.946 115.663 219.516 103.446 214.795 92.0486C210.074 80.6508 203.154 70.2938 194.43 61.5704C185.707 52.8469 175.35 45.9266 163.952 41.2055C152.554 36.4844 140.337 34.0543 128 34.0543C115.664 34.0543 103.447 36.4844 92.0489 41.2055C80.6512 45.9266 70.2942 52.8469 61.5707 61.5704C52.8473 70.2938 45.927 80.6508 41.2059 92.0486C36.4848 103.446 34.0547 115.663 34.0547 128C34.0547 140.337 36.4848 152.554 41.2059 163.951C45.927 175.349 52.8473 185.706 61.5707 194.43C70.2942 203.153 80.6512 210.073 92.0489 214.795C103.447 219.516 115.664 221.946 128 221.946C140.337 221.946 152.554 219.516 163.952 214.795C175.35 210.073 185.707 203.153 194.43 194.43C203.154 185.706 210.074 175.349 214.795 163.951C219.516 152.554 221.946 140.337 221.946 128Z" fill="white"/>
</mask>
<g mask="url(#mask5_225_1387)">
<path d="M128.001 128L61.5713 194.43" stroke="#E6E6E6" stroke-width="0.666667" stroke-linecap="square"/>
</g>
<mask id="mask6_225_1387" style="mask-type:luminance" maskUnits="userSpaceOnUse" x="34" y="34" width="188" height="188">
<path d="M221.946 128C221.946 115.663 219.516 103.446 214.795 92.0486C210.074 80.6508 203.154 70.2938 194.43 61.5704C185.707 52.8469 175.35 45.9266 163.952 41.2055C152.554 36.4844 140.337 34.0543 128 34.0543C115.664 34.0543 103.447 36.4844 92.0489 41.2055C80.6512 45.9266 70.2942 52.8469 61.5707 61.5704C52.8473 70.2938 45.927 80.6508 41.2059 92.0486C36.4848 103.446 34.0547 115.663 34.0547 128C34.0547 140.337 36.4848 152.554 41.2059 163.951C45.927 175.349 52.8473 185.706 61.5707 194.43C70.2942 203.153 80.6512 210.073 92.0489 214.795C103.447 219.516 115.664 221.946 128 221.946C140.337 221.946 152.554 219.516 163.952 214.795C175.35 210.073 185.707 203.153 194.43 194.43C203.154 185.706 210.074 175.349 214.795 163.951C219.516 152.554 221.946 140.337 221.946 128Z" fill="white"/>
</mask>
<g mask="url(#mask6_225_1387)">
<path d="M128 128V221.946" stroke="#E6E6E6" stroke-width="0.666667" stroke-linecap="square"/>
</g>
<mask id="mask7_225_1387" style="mask-type:luminance" maskUnits="userSpaceOnUse" x="34" y="34" width="188" height="188">
<path d="M221.946 128C221.946 115.663 219.516 103.446 214.795 92.0486C210.074 80.6508 203.154 70.2938 194.43 61.5704C185.707 52.8469 175.35 45.9266 163.952 41.2055C152.554 36.4844 140.337 34.0543 128 34.0543C115.664 34.0543 103.447 36.4844 92.0489 41.2055C80.6512 45.9266 70.2942 52.8469 61.5707 61.5704C52.8473 70.2938 45.927 80.6508 41.2059 92.0486C36.4848 103.446 34.0547 115.663 34.0547 128C34.0547 140.337 36.4848 152.554 41.2059 163.951C45.927 175.349 52.8473 185.706 61.5707 194.43C70.2942 203.153 80.6512 210.073 92.0489 214.795C103.447 219.516 115.664 221.946 128 221.946C140.337 221.946 152.554 219.516 163.952 214.795C175.35 210.073 185.707 203.153 194.43 194.43C203.154 185.706 210.074 175.349 214.795 163.951C219.516 152.554 221.946 140.337 221.946 128Z" fill="white"/>
</mask>
<g mask="url(#mask7_225_1387)">
<path d="M128 128L194.43 194.43" stroke="#E6E6E6" stroke-width="0.666667" stroke-linecap="square"/>
</g>
<mask id="mask8_225_1387" style="mask-type:luminance" maskUnits="userSpaceOnUse" x="34" y="34" width="188" height="188">
<path d="M221.946 128C221.946 115.663 219.516 103.446 214.795 92.0486C210.074 80.6508 203.154 70.2938 194.43 61.5704C185.707 52.8469 175.35 45.9266 163.952 41.2055C152.554 36.4844 140.337 34.0543 128 34.0543C115.664 34.0543 103.447 36.4844 92.0489 41.2055C80.6512 45.9266 70.2942 52.8469 61.5707 61.5704C52.8473 70.2938 45.927 80.6508 41.2059 92.0486C36.4848 103.446 34.0547 115.663 34.0547 128C34.0547 140.337 36.4848 152.554 41.2059 163.951C45.927 175.349 52.8473 185.706 61.5707 194.43C70.2942 203.153 80.6512 210.073 92.0489 214.795C103.447 219.516 115.664 221.946 128 221.946C140.337 221.946 152.554 219.516 163.952 214.795C175.35 210.073 185.707 203.153 194.43 194.43C203.154 185.706 210.074 175.349 214.795 163.951C219.516 152.554 221.946 140.337 221.946 128Z" fill="white"/>
</mask>
<g mask="url(#mask8_225_1387)">
<path d="M138.438 128C138.438 126.629 138.168 125.272 137.644 124.005C137.119 122.739 136.35 121.588 135.381 120.619C134.412 119.65 133.261 118.881 131.995 118.356C130.728 117.832 129.371 117.562 128 117.562C126.629 117.562 125.272 117.832 124.005 118.356C122.739 118.881 121.588 119.65 120.619 120.619C119.65 121.588 118.881 122.739 118.356 124.005C117.832 125.272 117.562 126.629 117.562 128C117.562 129.371 117.832 130.728 118.356 131.995C118.881 133.261 119.65 134.412 120.619 135.381C121.588 136.35 122.739 137.119 124.005 137.644C125.272 138.168 126.629 138.438 128 138.438C129.371 138.438 130.728 138.168 131.995 137.644C133.261 137.119 134.412 136.35 135.381 135.381C136.35 134.412 137.119 133.261 137.644 131.995C138.168 130.728 138.438 129.371 138.438 128Z" stroke="#E6E6E6" stroke-width="0.666667" stroke-linecap="square"/>
</g>
<mask id="mask9_225_1387" style="mask-type:luminance" maskUnits="userSpaceOnUse" x="34" y="34" width="188" height="188">
<path d="M221.946 128C221.946 115.663 219.516 103.446 214.795 92.0486C210.074 80.6508 203.154 70.2938 194.43 61.5704C185.707 52.8469 175.35 45.9266 163.952 41.2055C152.554 36.4844 140.337 34.0543 128 34.0543C115.664 34.0543 103.447 36.4844 92.0489 41.2055C80.6512 45.9266 70.2942 52.8469 61.5707 61.5704C52.8473 70.2938 45.927 80.6508 41.2059 92.0486C36.4848 103.446 34.0547 115.663 34.0547 128C34.0547 140.337 36.4848 152.554 41.2059 163.951C45.927 175.349 52.8473 185.706 61.5707 194.43C70.2942 203.153 80.6512 210.073 92.0489 214.795C103.447 219.516 115.664 221.946 128 221.946C140.337 221.946 152.554 219.516 163.952 214.795C175.35 210.073 185.707 203.153 194.43 194.43C203.154 185.706 210.074 175.349 214.795 163.951C219.516 152.554 221.946 140.337 221.946 128Z" fill="white"/>
</mask>
<g mask="url(#mask9_225_1387)">
<path d="M159.316 128C159.316 123.888 158.506 119.815 156.932 116.016C155.358 112.217 153.051 108.765 150.144 105.857C147.236 102.949 143.783 100.642 139.984 99.0685C136.185 97.4948 132.113 96.6848 128 96.6848C123.888 96.6848 119.816 97.4948 116.016 99.0685C112.217 100.642 108.765 102.949 105.857 105.857C102.949 108.765 100.642 112.217 99.0688 116.016C97.4951 119.815 96.6851 123.888 96.6851 128C96.6851 132.112 97.4951 136.185 99.0688 139.984C100.642 143.783 102.949 147.235 105.857 150.143C108.765 153.051 112.217 155.358 116.016 156.932C119.816 158.505 123.888 159.315 128 159.315C132.113 159.315 136.185 158.505 139.984 156.932C143.783 155.358 147.236 153.051 150.144 150.143C153.051 147.235 155.358 143.783 156.932 139.984C158.506 136.185 159.316 132.112 159.316 128Z" stroke="#E6E6E6" stroke-width="0.666667" stroke-linecap="square"/>
</g>
<mask id="mask10_225_1387" style="mask-type:luminance" maskUnits="userSpaceOnUse" x="34" y="34" width="188" height="188">
<path d="M221.946 128C221.946 115.663 219.516 103.446 214.795 92.0486C210.074 80.6508 203.154 70.2938 194.43 61.5704C185.707 52.8469 175.35 45.9266 163.952 41.2055C152.554 36.4844 140.337 34.0543 128 34.0543C115.664 34.0543 103.447 36.4844 92.0489 41.2055C80.6512 45.9266 70.2942 52.8469 61.5707 61.5704C52.8473 70.2938 45.927 80.6508 41.2059 92.0486C36.4848 103.446 34.0547 115.663 34.0547 128C34.0547 140.337 36.4848 152.554 41.2059 163.951C45.927 175.349 52.8473 185.706 61.5707 194.43C70.2942 203.153 80.6512 210.073 92.0489 214.795C103.447 219.516 115.664 221.946 128 221.946C140.337 221.946 152.554 219.516 163.952 214.795C175.35 210.073 185.707 203.153 194.43 194.43C203.154 185.706 210.074 175.349 214.795 163.951C219.516 152.554 221.946 140.337 221.946 128Z" fill="white"/>
</mask>
<g mask="url(#mask10_225_1387)">
<path d="M180.192 128C180.192 121.146 178.842 114.359 176.219 108.027C173.597 101.695 169.752 95.9411 164.906 91.0947C160.059 86.2483 154.305 82.4037 147.973 79.7809C141.641 77.158 134.854 75.808 128 75.808C121.146 75.808 114.359 77.158 108.027 79.7809C101.695 82.4037 95.9412 86.2483 91.0948 91.0947C86.2484 95.9411 82.4038 101.695 79.781 108.027C77.1582 114.359 75.8081 121.146 75.8081 128C75.8081 134.854 77.1582 141.641 79.781 147.973C82.4038 154.305 86.2484 160.059 91.0948 164.905C95.9412 169.752 101.695 173.596 108.027 176.219C114.359 178.842 121.146 180.192 128 180.192C134.854 180.192 141.641 178.842 147.973 176.219C154.305 173.596 160.059 169.752 164.906 164.905C169.752 160.059 173.597 154.305 176.219 147.973C178.842 141.641 180.192 134.854 180.192 128Z" stroke="#E6E6E6" stroke-width="0.666667" stroke-linecap="square"/>
</g>
<mask id="mask11_225_1387" style="mask-type:luminance" maskUnits="userSpaceOnUse" x="34" y="34" width="188" height="188">
<path d="M221.946 128C221.946 115.663 219.516 103.446 214.795 92.0486C210.074 80.6508 203.154 70.2938 194.43 61.5704C185.707 52.8469 175.35 45.9266 163.952 41.2055C152.554 36.4844 140.337 34.0543 128 34.0543C115.664 34.0543 103.447 36.4844 92.0489 41.2055C80.6512 45.9266 70.2942 52.8469 61.5707 61.5704C52.8473 70.2938 45.927 80.6508 41.2059 92.0486C36.4848 103.446 34.0547 115.663 34.0547 128C34.0547 140.337 36.4848 152.554 41.2059 163.951C45.927 175.349 52.8473 185.706 61.5707 194.43C70.2942 203.153 80.6512 210.073 92.0489 214.795C103.447 219.516 115.664 221.946 128 221.946C140.337 221.946 152.554 219.516 163.952 214.795C175.35 210.073 185.707 203.153 194.43 194.43C203.154 185.706 210.074 175.349 214.795 163.951C219.516 152.554 221.946 140.337 221.946 128Z" fill="white"/>
</mask>
<g mask="url(#mask11_225_1387)">
<path d="M201.069 128C201.069 118.405 199.179 108.903 195.507 100.038C191.835 91.1729 186.453 83.1174 179.668 76.3325C172.883 69.5476 164.828 64.1652 155.963 60.4932C147.098 56.8212 137.596 54.9312 128.001 54.9312C118.405 54.9312 108.903 56.8212 100.038 60.4932C91.1734 64.1652 83.1179 69.5476 76.333 76.3325C69.5481 83.1174 64.1656 91.1729 60.4937 100.038C56.8217 108.903 54.9316 118.405 54.9316 128C54.9316 137.595 56.8217 147.097 60.4937 155.962C64.1656 164.827 69.5481 172.883 76.333 179.668C83.1179 186.452 91.1734 191.835 100.038 195.507C108.903 199.179 118.405 201.069 128.001 201.069C137.596 201.069 147.098 199.179 155.963 195.507C164.828 191.835 172.883 186.452 179.668 179.668C186.453 172.883 191.835 164.827 195.507 155.962C199.179 147.097 201.069 137.595 201.069 128Z" stroke="#E6E6E6" stroke-width="0.666667" stroke-linecap="square"/>
</g>
<mask id="mask12_225_1387" style="mask-type:luminance" maskUnits="userSpaceOnUse" x="34" y="34" width="188" height="188">
<path d="M221.946 128C221.946 115.663 219.516 103.446 214.795 92.0486C210.074 80.6508 203.154 70.2938 194.43 61.5704C185.707 52.8469 175.35 45.9266 163.952 41.2055C152.554 36.4844 140.337 34.0543 128 34.0543C115.664 34.0543 103.447 36.4844 92.0489 41.2055C80.6512 45.9266 70.2942 52.8469 61.5707 61.5704C52.8473 70.2938 45.927 80.6508 41.2059 92.0486C36.4848 103.446 34.0547 115.663 34.0547 128C34.0547 140.337 36.4848 152.554 41.2059 163.951C45.927 175.349 52.8473 185.706 61.5707 194.43C70.2942 203.153 80.6512 210.073 92.0489 214.795C103.447 219.516 115.664 221.946 128 221.946C140.337 221.946 152.554 219.516 163.952 214.795C175.35 210.073 185.707 203.153 194.43 194.43C203.154 185.706 210.074 175.349 214.795 163.951C219.516 152.554 221.946 140.337 221.946 128Z" fill="white"/>
</mask>
<g mask="url(#mask12_225_1387)">
<path d="M128 128L147.855 121.549C148.193 122.589 148.449 123.654 148.62 124.734C148.791 125.814 148.877 126.906 148.877 128H128Z" fill="#004CFF" fill-opacity="0.6" stroke="#4C4C4C" stroke-width="0.933333"/>
</g>
<mask id="mask13_225_1387" style="mask-type:luminance" maskUnits="userSpaceOnUse" x="34" y="34" width="188" height="188">
<path d="M221.946 128C221.946 115.663 219.516 103.446 214.795 92.0486C210.074 80.6508 203.154 70.2938 194.43 61.5704C185.707 52.8469 175.35 45.9266 163.952 41.2055C152.554 36.4844 140.337 34.0543 128 34.0543C115.664 34.0543 103.447 36.4844 92.0489 41.2055C80.6512 45.9266 70.2942 52.8469 61.5707 61.5704C52.8473 70.2938 45.927 80.6508 41.2059 92.0486C36.4848 103.446 34.0547 115.663 34.0547 128C34.0547 140.337 36.4848 152.554 41.2059 163.951C45.927 175.349 52.8473 185.706 61.5707 194.43C70.2942 203.153 80.6512 210.073 92.0489 214.795C103.447 219.516 115.664 221.946 128 221.946C140.337 221.946 152.554 219.516 163.952 214.795C175.35 210.073 185.707 203.153 194.43 194.43C203.154 185.706 210.074 175.349 214.795 163.951C219.516 152.554 221.946 140.337 221.946 128Z" fill="white"/>
</mask>
<g mask="url(#mask13_225_1387)">
<path d="M128 128L150.007 69.3632C153.079 70.516 156.055 71.9085 158.909 73.5277C161.762 75.1469 164.484 76.9878 167.049 79.0335L128 128Z" fill="#CEFF29" fill-opacity="0.6" stroke="#4C4C4C" stroke-width="0.933333"/>
</g>
<mask id="mask14_225_1387" style="mask-type:luminance" maskUnits="userSpaceOnUse" x="34" y="34" width="188" height="188">
<path d="M221.946 128C221.946 115.663 219.516 103.446 214.795 92.0486C210.074 80.6508 203.154 70.2938 194.43 61.5704C185.707 52.8469 175.35 45.9266 163.952 41.2055C152.554 36.4844 140.337 34.0543 128 34.0543C115.664 34.0543 103.447 36.4844 92.0489 41.2055C80.6512 45.9266 70.2942 52.8469 61.5707 61.5704C52.8473 70.2938 45.927 80.6508 41.2059 92.0486C36.4848 103.446 34.0547 115.663 34.0547 128C34.0547 140.337 36.4848 152.554 41.2059 163.951C45.927 175.349 52.8473 185.706 61.5707 194.43C70.2942 203.153 80.6512 210.073 92.0489 214.795C103.447 219.516 115.664 221.946 128 221.946C140.337 221.946 152.554 219.516 163.952 214.795C175.35 210.073 185.707 203.153 194.43 194.43C203.154 185.706 210.074 175.349 214.795 163.951C219.516 152.554 221.946 140.337 221.946 128Z" fill="white"/>
</mask>
<g mask="url(#mask14_225_1387)">
<path d="M128.001 128L74.4829 63.8961C79.5234 59.688 85.0427 56.089 90.9264 53.1738C96.81 50.2586 103.017 48.0475 109.419 46.5864L128.001 128Z" fill="#FF6800" fill-opacity="0.6" stroke="#4C4C4C" stroke-width="0.933333"/>
</g>
<mask id="mask15_225_1387" style="mask-type:luminance" maskUnits="userSpaceOnUse" x="34" y="34" width="188" height="188">
<path d="M221.946 128C221.946 115.663 219.516 103.446 214.795 92.0486C210.074 80.6508 203.154 70.2938 194.43 61.5704C185.707 52.8469 175.35 45.9266 163.952 41.2055C152.554 36.4844 140.337 34.0543 128 34.0543C115.664 34.0543 103.447 36.4844 92.0489 41.2055C80.6512 45.9266 70.2942 52.8469 61.5707 61.5704C52.8473 70.2938 45.927 80.6508 41.2059 92.0486C36.4848 103.446 34.0547 115.663 34.0547 128C34.0547 140.337 36.4848 152.554 41.2059 163.951C45.927 175.349 52.8473 185.706 61.5707 194.43C70.2942 203.153 80.6512 210.073 92.0489 214.795C103.447 219.516 115.664 221.946 128 221.946C140.337 221.946 152.554 219.516 163.952 214.795C175.35 210.073 185.707 203.153 194.43 194.43C203.154 185.706 210.074 175.349 214.795 163.951C219.516 152.554 221.946 140.337 221.946 128Z" fill="white"/>
</mask>
<g mask="url(#mask15_225_1387)">
<path d="M128.001 128L56.1059 141.047C54.7368 133.503 54.5637 125.79 55.5929 118.192C56.6222 110.594 58.8409 103.205 62.1677 96.2966L128.001 128Z" fill="#FFC400" fill-opacity="0.6" stroke="#4C4C4C" stroke-width="0.933333"/>
</g>
<mask id="mask16_225_1387" style="mask-type:luminance" maskUnits="userSpaceOnUse" x="34" y="34" width="188" height="188">
<path d="M221.946 128C221.946 115.663 219.516 103.446 214.795 92.0486C210.074 80.6508 203.154 70.2938 194.43 61.5704C185.707 52.8469 175.35 45.9266 163.952 41.2055C152.554 36.4844 140.337 34.0543 128 34.0543C115.664 34.0543 103.447 36.4844 92.0489 41.2055C80.6512 45.9266 70.2942 52.8469 61.5707 61.5704C52.8473 70.2938 45.927 80.6508 41.2059 92.0486C36.4848 103.446 34.0547 115.663 34.0547 128C34.0547 140.337 36.4848 152.554 41.2059 163.951C45.927 175.349 52.8473 185.706 61.5707 194.43C70.2942 203.153 80.6512 210.073 92.0489 214.795C103.447 219.516 115.664 221.946 128 221.946C140.337 221.946 152.554 219.516 163.952 214.795C175.35 210.073 185.707 203.153 194.43 194.43C203.154 185.706 210.074 175.349 214.795 163.951C219.516 152.554 221.946 140.337 221.946 128Z" fill="white"/>
</mask>
<g mask="url(#mask16_225_1387)">
<path d="M128.001 128L93.679 151.778C93.0564 150.879 92.4693 149.957 91.9192 149.012C91.369 148.067 90.8562 147.101 90.3818 146.116L128.001 128Z" fill="#29FFCE" fill-opacity="0.6" stroke="#4C4C4C" stroke-width="0.933333"/>
</g>
<mask id="mask17_225_1387" style="mask-type:luminance" maskUnits="userSpaceOnUse" x="34" y="34" width="188" height="188">
<path d="M221.946 128C221.946 115.663 219.516 103.446 214.795 92.0486C210.074 80.6508 203.154 70.2938 194.43 61.5704C185.707 52.8469 175.35 45.9266 163.952 41.2055C152.554 36.4844 140.337 34.0543 128 34.0543C115.664 34.0543 103.447 36.4844 92.0489 41.2055C80.6512 45.9266 70.2942 52.8469 61.5707 61.5704C52.8473 70.2938 45.927 80.6508 41.2059 92.0486C36.4848 103.446 34.0547 115.663 34.0547 128C34.0547 140.337 36.4848 152.554 41.2059 163.951C45.927 175.349 52.8473 185.706 61.5707 194.43C70.2942 203.153 80.6512 210.073 92.0489 214.795C103.447 219.516 115.664 221.946 128 221.946C140.337 221.946 152.554 219.516 163.952 214.795C175.35 210.073 185.707 203.153 194.43 194.43C203.154 185.706 210.074 175.349 214.795 163.951C219.516 152.554 221.946 140.337 221.946 128Z" fill="white"/>
</mask>
<g mask="url(#mask17_225_1387)">
<path d="M128.001 128L136.744 179.455C133.373 180.027 129.955 180.267 126.537 180.172C123.12 180.076 119.72 179.644 116.387 178.884L128.001 128Z" fill="#7DFF7A" fill-opacity="0.6" stroke="#4C4C4C" stroke-width="0.933333"/>
</g>
<mask id="mask18_225_1387" style="mask-type:luminance" maskUnits="userSpaceOnUse" x="34" y="34" width="188" height="188">
<path d="M221.946 128C221.946 115.663 219.516 103.446 214.795 92.0486C210.074 80.6508 203.154 70.2938 194.43 61.5704C185.707 52.8469 175.35 45.9266 163.952 41.2055C152.554 36.4844 140.337 34.0543 128 34.0543C115.664 34.0543 103.447 36.4844 92.0489 41.2055C80.6512 45.9266 70.2942 52.8469 61.5707 61.5704C52.8473 70.2938 45.927 80.6508 41.2059 92.0486C36.4848 103.446 34.0547 115.663 34.0547 128C34.0547 140.337 36.4848 152.554 41.2059 163.951C45.927 175.349 52.8473 185.706 61.5707 194.43C70.2942 203.153 80.6512 210.073 92.0489 214.795C103.447 219.516 115.664 221.946 128 221.946C140.337 221.946 152.554 219.516 163.952 214.795C175.35 210.073 185.707 203.153 194.43 194.43C203.154 185.706 210.074 175.349 214.795 163.951C219.516 152.554 221.946 140.337 221.946 128Z" fill="white"/>
</mask>
<g mask="url(#mask18_225_1387)">
<path d="M128 128L193.869 179.33C191.852 181.918 189.685 184.384 187.379 186.716C185.072 189.049 182.631 191.243 180.066 193.289L128 128Z" fill="#FF6800" fill-opacity="0.6" stroke="#4C4C4C" stroke-width="0.933333"/>
</g>
<path d="M221.946 128C221.946 115.663 219.516 103.446 214.795 92.0486C210.074 80.6508 203.154 70.2938 194.43 61.5704C185.707 52.8469 175.35 45.9266 163.952 41.2055C152.554 36.4844 140.337 34.0543 128 34.0543C115.664 34.0543 103.447 36.4844 92.0489 41.2055C80.6512 45.9266 70.2942 52.8469 61.5707 61.5704C52.8473 70.2938 45.927 80.6508 41.2059 92.0486C36.4848 103.446 34.0547 115.663 34.0547 128C34.0547 140.337 36.4848 152.554 41.2059 163.951C45.927 175.349 52.8473 185.706 61.5707 194.43C70.2942 203.153 80.6512 210.073 92.0489 214.795C103.447 219.516 115.664 221.946 128 221.946C140.337 221.946 152.554 219.516 163.952 214.795C175.35 210.073 185.707 203.153 194.43 194.43C203.154 185.706 210.074 175.349 214.795 163.951C219.516 152.554 221.946 140.337 221.946 128Z" stroke="#11557C" stroke-width="1.33333" stroke-linecap="square"/>
</g>
<defs>
<clipPath id="clip0_225_1387">
<rect width="256" height="256" fill="white"/>
</clipPath>
</defs>
</svg>
