<svg width="256" height="256" viewBox="0 0 256 256" fill="none" xmlns="http://www.w3.org/2000/svg">
<rect width="256" height="256" rx="60" fill="#F4F2ED"/>
<path d="M53.3286 26.9992C52.9819 27.8175 52.6536 28.8761 52.3484 30.1524L52.1239 31.1502C52.0506 31.4961 51.9787 31.8553 51.9085 32.2275L51.7027 33.3822L51.5068 34.6123L51.3213 35.9157L51.1466 37.2901L50.9833 38.7336L50.8317 40.2441C50.8074 40.5013 50.7836 40.7612 50.7604 41.0237L50.6271 42.6306L50.5067 44.2992L50.3996 46.0273C50.3828 46.3202 50.3667 46.6154 50.3511 46.913L61.0553 52.0937C60.8933 45.8444 61.0945 39.9351 61.6575 34.5058L61.7679 33.5381L61.6916 34.4247L61.5964 35.8905L61.5616 36.5898L61.5029 38.1853L61.481 39.0826L61.4571 41.0791L61.4604 42.7553L61.4856 44.5869L61.5163 45.8953L61.5854 47.9902L61.6484 49.4758L61.7261 51.0333C61.7404 51.2989 61.7552 51.5676 61.7708 51.8392C63.7646 50.2134 66.1526 48.0792 68.6359 45.7462L70.3022 44.1648C70.5812 43.8974 70.8605 43.6285 71.1398 43.3584L72.8116 41.7269L74.4625 40.0875L76.0727 38.4606L77.6226 36.8666C75.91 33.3676 74.0631 30.7968 72.3451 28.9191L71.7775 28.3185C71.4029 27.9348 71.036 27.584 70.6798 27.2636L70.1539 26.8054L69.6463 26.3908C69.4803 26.2596 69.3178 26.1354 69.159 26.0178L68.6943 25.6846L68.2543 25.3891L67.6455 25.0126L67.1044 24.7101L66.5011 24.4109L66.0487 24.2163L65.2231 23.9179L64.6218 23.725L64.0347 23.5592L63.5878 23.4467L63.102 23.338C63.0181 23.3204 62.9328 23.3031 62.8461 23.2863L62.3115 23.1912L61.7503 23.1106C58.791 22.7397 54.9679 23.1286 53.3286 26.9992Z" fill="url(#paint0_linear_404_120)"/>
<path d="M63.8523 83.6904C63.3582 80.1284 62.9071 76.625 62.4991 73.1803C62.1679 70.3197 61.8968 67.5017 61.6748 64.7112L61.4844 62.2096C61.4811 62.1435 61.4793 62.0797 61.4799 62.0191C61.2459 58.6271 61.0765 55.323 61.0009 52.0854L50.3182 46.9341L50.289 47.5887L50.2173 48.9479C50.1108 51.5071 50.0317 54.2267 50.0094 57.0851C49.9833 60.3071 50.014 63.6679 50.0721 67.189C50.1476 70.4266 50.28 73.803 50.4554 77.238C50.5853 79.4433 50.7273 81.6651 50.8905 83.9157L51.0866 86.5186L65.3774 93.7585L64.8735 90.3858L63.8523 83.6904Z" fill="url(#paint1_linear_404_120)"/>
<path d="M84.5229 166.679L84.7442 167.441L86.1635 172.264C86.3674 172.949 86.5739 173.637 86.7841 174.329L87.4615 176.521L87.6931 177.31C87.734 177.439 87.778 177.567 87.8275 177.696L90.1297 185.074C92.1686 184.652 94.6539 185.413 97.2792 186.558L98.336 187.035C96.4034 184.71 93.7282 183.154 90.5315 182.794C99.2841 176.956 105.043 169.437 104.234 160.467C104.147 159.673 104.04 158.85 103.881 158.02C103.749 161.326 102.429 163.753 98.6035 166.347L98.1324 166.659C102.089 159.696 103.178 154.972 102.71 148.864C102.594 147.416 102.414 145.879 102.147 144.225C100.882 153.319 95.9983 159.204 88.8558 162.686L84.5229 166.679Z" fill="url(#paint2_linear_404_120)"/>
<path d="M79.4023 156.008L78.4934 152.6L76.665 145.701C75.7976 142.368 74.9595 139.014 74.1291 135.608C73.2988 132.203 72.4978 128.776 71.6968 125.349C70.8821 121.842 70.1182 118.342 69.3837 114.822L68.6584 111.341L67.266 104.376C67.0172 103.115 66.79 101.884 66.5705 100.601C66.1708 98.4587 65.8004 96.2945 65.43 94.1304L65.3536 93.7805L51.1431 86.5269L51.1896 86.9772C51.195 87.0551 51.1974 87.1336 51.1942 87.2111C51.4809 90.4291 51.7598 93.6979 52.1404 96.9823C52.5132 100.318 52.9369 103.661 53.4328 107.041C53.8543 109.889 54.3051 112.716 54.7774 115.572L55.087 117.285C55.7414 120.819 56.4408 124.231 57.2006 127.417C58.0506 131.034 58.961 134.426 59.8812 137.585C60.4998 139.657 61.1047 141.649 61.7253 143.539L62.2759 145.132L63.4144 148.299C64.7727 151.994 66.2776 155.581 67.8998 159.082L82.2629 166.359C81.4974 163.718 80.7905 161.034 80.0113 158.312L79.6133 156.787L79.4023 156.008Z" fill="url(#paint3_linear_404_120)"/>
<path d="M68.1068 159.56C69.8378 163.263 71.726 166.85 73.8105 170.294L74.9664 172.163C73.6055 171.615 71.8842 171.343 70.2118 171.221L69.3816 171.172C69.2445 171.166 69.1083 171.161 68.9731 171.156L68.1763 171.139L67.0533 171.143L66.0508 171.172L65.2073 171.216L64.0264 171.313C64.0165 171.314 64.0122 171.315 64.0134 171.315C71.2759 173.834 77.6449 176.919 81.6625 181.594C80.0659 183.352 77.0771 184.689 73.3198 185.777C76.1171 186.08 78.2481 185.957 79.7847 185.706L80.4071 185.592C80.5049 185.572 80.5996 185.551 80.6914 185.531L81.207 185.403L81.6529 185.272L82.194 185.084L82.4713 184.97C80.1638 186.894 78.7199 190.172 77.5196 193.846L77.1051 195.158C77.0374 195.379 76.9703 195.6 76.9036 195.823C79.9594 190.828 82.9904 187.521 85.9421 186.257C89.2386 197.188 93.051 208.821 97.235 220.961L99.1919 226.599C99.8527 228.49 100.522 230.392 101.198 232.305C102.172 231.05 102.281 229.661 101.873 228.246L100.535 224.467L99.0111 220.05L96.6501 213.045L94.7154 207.171L92.5775 200.544L90.5362 194.078L88.6625 188.019L87.2842 183.481L86.1624 179.735C86.0123 179.243 85.8752 178.743 85.7275 178.236L85.3049 176.845L84.0935 172.66L82.8615 168.354L82.3075 166.369L82.2859 166.34L67.9229 159.063C67.9555 159.189 67.9916 159.293 68.0352 159.398L68.1068 159.56Z" fill="url(#paint4_linear_404_120)"/>
<path d="M67.0471 94.0647L67.3018 95.4566C67.486 96.4041 67.6571 97.3611 67.8389 98.3237L69.3927 106.296L69.9635 109.072L70.7948 112.995C70.9366 113.658 71.0797 114.326 71.2237 114.998C71.6527 116.984 72.1049 119.001 72.5786 121.062L73.5543 125.242L74.5254 129.32C74.6915 130.009 74.8597 130.702 75.0298 131.399L76.0727 135.619L77.1155 139.72C77.6448 141.793 78.1895 143.899 78.7651 146.048C79.1851 147.634 79.6213 149.243 80.0672 150.872L81.5611 156.311L82.6898 160.308L83.8553 164.391C84.0528 165.078 84.252 165.767 84.4528 166.459C84.4666 166.539 84.4803 166.619 84.5233 166.678L88.8562 162.686L88.7512 162.729L88.5199 162.842C93.6619 157.986 98.0687 148.255 99.076 139.486C99.5397 135.447 99.4969 131.148 98.9417 126.458C98.5415 122.962 97.8304 119.289 96.8532 115.314C96.0013 111.88 94.948 108.232 93.664 104.393C92.8689 106.014 91.7395 107.609 90.3559 109.166L89.6055 109.988L89.3487 110.255L88.8042 110.801C92.5967 104.905 93.0477 98.5745 91.9229 92.0019C91.2335 93.9514 89.8798 96.8396 87.6344 99.4349C87.3472 99.7811 87.0091 100.119 86.671 100.458C86.6123 100.501 86.5633 100.557 86.5023 100.615L86.3993 100.702C87.6576 98.6059 88.5874 96.6153 89.1829 94.5993C89.2779 94.3191 89.3504 94.0353 89.4153 93.7505L89.5089 93.3225C89.6611 92.6695 89.7625 92.0086 89.8639 91.3478L90.0081 90.0691C90.065 89.3168 90.0812 88.5437 90.0443 87.7588L89.9454 86.3141C89.9357 86.2076 89.9231 86.1016 89.9048 85.9947L89.7538 85.0696C89.7284 84.9212 89.7016 84.7754 89.6716 84.6321C89.3777 82.9145 89.0551 81.3837 88.7223 80.026L88.4105 78.8073L88.1286 77.7779L87.7622 76.5602L87.286 75.1335C87.2356 74.99 87.1852 74.8522 87.1339 74.7208L86.8463 74.0012C86.754 73.7798 86.6656 73.5774 86.5818 73.395L86.3452 72.9087C86.2997 73.0925 86.2411 73.2858 86.1631 73.4801L86.0308 73.771C85.1362 75.8711 83.0552 78.7518 81.1576 80.7761C81.1283 80.7976 81.0989 80.8191 81.0911 80.87L80.6997 81.2609C80.633 81.3316 80.5667 81.4052 80.5029 81.4822L80.5771 81.3375L66.9258 93.8379C67.0412 93.9337 67.0549 94.0138 67.0471 94.0647Z" fill="url(#paint5_linear_404_120)"/>
<path d="M61.7725 51.8426C61.8276 52.8397 61.8936 53.8789 61.9697 54.9592L62.1351 57.1742C62.1649 57.5523 62.1956 57.935 62.2275 58.3221L62.4305 60.6976C62.4664 61.1023 62.5032 61.5114 62.5409 61.9248L62.5729 62.319C62.5806 62.3818 62.5913 62.4441 62.6076 62.5074C62.7232 63.7251 62.8517 64.9777 62.9939 66.2695L63.2967 68.9065C63.4039 69.8038 63.5173 70.7196 63.6372 71.6554L64.2053 75.9446C64.4709 77.8918 64.7584 79.9092 65.08 82.0132L65.3278 83.6076C65.5728 85.2322 65.8447 86.8934 66.1326 88.5994L67.0328 93.8595L80.6841 81.359C83.5307 76.2023 84.153 72.9937 84.1143 69.0073C84.1008 68.2052 84.0631 67.3702 84.0102 66.5145L83.9527 65.6524C83.7342 62.1587 83.3144 58.4521 82.7186 54.8745C82.1581 51.4064 81.4725 48.0751 80.6873 45.223C80.19 43.3776 79.6615 41.7355 79.1233 40.3261C78.634 39.1063 78.1291 37.9882 77.6165 36.9209L76.0687 38.5011C75.8051 38.768 75.539 39.0364 75.2708 39.3059L73.6393 40.9318L71.9766 42.5623L70.3026 44.1766C70.0237 44.4432 69.7452 44.7083 69.4674 44.9713L67.8132 46.5227C65.6285 48.5506 63.5448 50.3975 61.7725 51.8426Z" fill="url(#paint6_linear_404_120)"/>
<path d="M193.196 29.6763C192.759 29.8566 192.282 30.0831 191.769 30.3541L190.972 30.7939C190.423 31.1091 189.838 31.4681 189.22 31.8695L188.268 32.5031L187.268 33.1991L186.221 33.9563L185.129 34.7736C184.943 34.9148 184.756 35.0584 184.567 35.2044L183.411 36.1098L182.214 37.0725L180.977 38.0914L179.704 39.1653L178.395 40.2932L177.052 41.4739L175.676 42.7063C175.445 42.9159 175.211 43.1277 174.977 43.3415L179.478 56.0168C184.347 50.8212 189.238 46.1958 194.037 42.2545L195.725 40.8847L195.847 40.7913L194.686 41.736L193.548 42.7204L192.313 43.8367L191.142 44.934L190.158 45.8808L189.452 46.5729L187.922 48.107L186.671 49.3926L184.868 51.2925L183.909 52.3242L182.912 53.4117L181.347 55.1495L180.256 56.3804C181.376 56.4868 182.603 56.5789 183.91 56.6572L185.926 56.7646L188.041 56.852L190.234 56.9199L192.482 56.9688L194.766 56.9993C195.148 57.0028 195.531 57.0057 195.914 57.0077L198.211 57.0115C198.593 57.0107 198.975 57.0091 199.355 57.0069L201.617 56.9851C201.991 56.9801 202.363 56.9744 202.732 56.968L204.913 56.9218C206.704 51.584 207.114 47.2918 206.975 44.0869L206.927 43.2755L206.857 42.5136C206.844 42.3907 206.83 42.2699 206.815 42.1512L206.719 41.4638L206.61 40.8264C206.591 40.7243 206.571 40.6243 206.551 40.5264L206.428 39.9641L206.3 39.452L206.169 38.9905L206.04 38.5796L205.799 37.9103L205.604 37.4454L205.139 36.4866L204.868 35.9748L204.641 35.5727L204.378 35.131L204.08 34.6576L203.747 34.1604L203.379 33.6471C201.325 30.8814 197.818 27.7691 193.196 29.6763Z" fill="url(#paint7_linear_404_120)"/>
<path d="M156.631 83.6828C159.063 80.4228 161.484 77.2442 163.892 74.1469C166.4 70.9395 168.93 67.8602 171.49 64.8683C171.642 64.6827 171.794 64.4971 171.94 64.3522C174.446 61.4357 176.935 58.6413 179.446 55.9749L174.939 43.3403L174.396 43.8441L173.258 44.8813C171.139 46.8569 168.915 48.9834 166.626 51.2667C165.335 52.5532 164.029 53.8789 162.701 55.2431L160.015 58.0226C159.562 58.4943 159.107 58.9702 158.648 59.4503C156.137 62.1167 153.561 64.9399 150.973 67.8445C149.325 69.723 147.674 71.6244 146.018 73.5659L144.107 75.8171L149.859 92.9995L152.133 89.8841L156.631 83.6828Z" fill="url(#paint8_linear_404_120)"/>
<path d="M107.328 166.912L106.473 168.491L104.212 172.712C103.832 173.425 103.451 174.143 103.07 174.867L101.874 177.17C101.645 177.594 101.423 177.977 101.235 178.407L99.9768 180.835L97.2266 186.175C99.4665 187.626 100.961 190.756 102.274 194.274C102.566 190.867 101.648 187.489 99.3614 184.659C111.045 186.914 121.656 185.436 128.131 177.572C128.692 176.865 129.259 176.117 129.792 175.322C127.05 177.886 124.05 178.789 118.883 177.824L118.299 177.71C127.017 175.247 131.647 172.31 136.123 167.021C137.181 165.763 138.256 164.383 139.356 162.839C131.112 169.155 122.505 170.012 113.988 167.141L107.328 166.912Z" fill="url(#paint9_linear_404_120)"/>
<path d="M111.235 155.045L113.66 150.785L117.669 143.779C119.619 140.406 121.609 137.04 123.647 133.639C125.684 130.238 127.762 126.843 129.84 123.447C131.971 119.977 134.136 116.553 136.342 113.135C138.501 109.752 140.742 106.38 142.936 103.044C143.738 101.831 144.533 100.659 145.376 99.4523C146.756 97.4099 148.177 95.3734 149.599 93.337L149.815 92.9946L144.139 75.8647L143.818 76.2643C143.761 76.3313 143.7 76.3963 143.636 76.4562C141.31 79.2745 138.938 82.1276 136.635 85.074C134.285 88.0551 131.97 91.0829 129.683 94.198C127.759 96.8259 125.876 99.4598 123.987 102.134L122.876 103.759C120.594 107.124 118.447 110.426 116.527 113.595C114.338 117.182 112.376 120.635 110.607 123.91C109.458 126.069 108.363 128.153 107.36 130.168C106.528 131.875 105.73 133.629 104.938 135.342C103.096 139.396 101.458 143.479 99.9819 147.586L105.763 164.856L106.888 162.806L109.188 158.682C109.574 157.989 109.959 157.292 110.343 156.59L111.235 155.045Z" fill="url(#paint10_linear_404_120)"/>
<path d="M99.7812 148.136C98.2326 152.492 96.9021 156.881 95.8442 161.309L95.2894 163.732C94.7688 162.532 93.9322 161.292 92.9892 160.122L92.4123 159.429C92.3146 159.315 92.2162 159.202 92.1174 159.091L91.521 158.433L90.9242 157.805L90.337 157.213L89.4964 156.403L88.734 155.701L87.8979 154.967L87.146 154.348C90.9907 162.146 93.667 169.689 93.1869 176.644C90.5047 176.791 87.0367 175.493 83.1472 173.384C84.8214 175.437 86.3588 176.886 87.6554 177.901L88.2364 178.34C88.3303 178.408 88.4226 178.474 88.5134 178.537L89.0389 178.891L89.5245 179.192L89.9679 179.445L90.367 179.654L90.7195 179.822L91.0229 179.952C91.0693 179.971 91.1136 179.989 91.1556 180.005C87.8964 179.731 84.2844 181.103 80.5532 182.993L79.3053 183.641L78.0506 184.318C84.4788 182.725 89.5465 182.471 92.9271 183.799C91.2668 186.942 89.5956 190.16 87.9144 193.445L85.3852 198.425C81.5805 205.968 77.7271 213.842 73.8347 221.983L71.2341 227.449C70.3654 229.284 69.4948 231.131 68.6226 232.99C70.4035 232.752 71.5941 231.721 72.3908 230.258L75.3357 224.014L78.0459 218.4L81.5092 211.35L84.5682 205.221L87.599 199.232L90.4783 193.615L94.4742 185.933L97.3114 180.556L98.2865 178.723L99.1271 177.171L99.8918 175.716L101.057 173.564L103.447 169.175C103.852 168.434 104.26 167.689 104.672 166.938L105.802 164.901L105.808 164.86L100.028 147.59C99.9534 147.718 99.9 147.83 99.8517 147.949L99.7812 148.136Z" fill="url(#paint11_linear_404_120)"/>
<path d="M150.959 94.578L150.059 95.9009C149.454 96.81 148.831 97.7164 148.213 98.6357L145.247 103.108L143.13 106.288L142.593 107.111C141.789 108.344 140.981 109.598 140.166 110.871L137.69 114.748C136.046 117.334 134.392 119.998 132.701 122.758L131.427 124.846C129.402 128.166 127.312 131.643 125.21 135.201L122.79 139.331C121.57 141.42 120.335 143.548 119.091 145.736C118.353 147.024 117.612 148.332 116.866 149.657L113.187 156.219L112.06 158.263L109.771 162.429C109.002 163.833 108.228 165.253 107.453 166.686C107.4 166.761 107.347 166.836 107.335 166.918L113.995 167.147C113.879 167.088 113.757 167.07 113.6 167.006C121.598 167.181 132.877 162.85 140.655 156.591C144.237 153.707 147.619 150.212 150.898 145.996C153.353 142.864 155.699 139.342 158.07 135.366C160.114 131.924 162.164 128.151 164.181 124.04C162.253 124.713 160.075 125.1 157.725 125.254L156.468 125.319C156.189 125.334 155.912 125.33 155.623 125.331L155.177 125.338C162.914 123.605 168.307 118.867 172.624 112.682C170.52 113.703 167.135 114.953 163.266 115.258C162.759 115.309 162.218 115.312 161.677 115.316C161.596 115.304 161.512 115.31 161.417 115.309L161.264 115.297C163.943 114.609 166.273 113.746 168.354 112.596C168.653 112.446 168.937 112.275 169.216 112.097L169.631 111.827C170.273 111.422 170.879 110.971 171.486 110.519L172.618 109.604C173.476 108.857 174.305 108.023 175.065 107.095L175.551 106.532C175.628 106.438 175.702 106.343 175.772 106.242L176.385 105.378C176.483 105.238 176.577 105.1 176.667 104.96C177.818 103.31 178.791 101.793 179.613 100.413L179.956 99.8303C180.401 99.0642 180.793 98.3734 181.139 97.7174L181.543 96.9452L182.156 95.7032C182.282 95.4456 182.398 95.1998 182.499 94.9652L182.678 94.5482L182.982 93.7941C183.072 93.5613 183.149 93.3475 183.215 93.1542L183.304 92.8799C183.121 92.9917 182.92 93.1008 182.703 93.1952L182.365 93.3242C179.976 94.3041 176.012 94.9697 172.877 95.0916C172.836 95.0856 172.795 95.0796 172.748 95.1144L172.123 95.118C172.013 95.1219 171.901 95.1286 171.789 95.1398L171.963 95.0823L151.042 94.2991C151.059 94.4678 151.006 94.5433 150.959 94.578Z" fill="url(#paint12_linear_404_120)"/>
<path d="M180.257 56.3804C179.51 57.2268 178.737 58.1159 177.94 59.046L176.313 60.9605L174.622 62.9818L172.578 65.45C172.534 65.5067 172.494 65.5653 172.456 65.6292C171.29 67.0587 170.094 68.5564 168.86 70.1319L166.98 72.5544C166.661 72.9683 166.34 73.3873 166.017 73.8116L163.316 77.3831L161.55 79.749C160.656 80.9547 159.745 82.1959 158.816 83.479L157.882 84.7764C156.944 86.0643 156.002 87.3895 155.044 88.7507L153.105 91.5206L151.109 94.384L172.03 95.1672C178.419 93.2776 181.469 91.1891 184.605 87.9492C185.232 87.2928 185.865 86.5906 186.502 85.8598L187.141 85.1201C189.741 82.1341 192.348 78.8165 194.711 75.4632C197.015 72.2259 199.11 68.9995 200.744 66.0797C201.81 64.1989 202.689 62.4571 203.375 60.8949C203.951 59.5242 204.432 58.223 204.868 56.9565L202.698 56.9944L200.466 57.0176L198.194 57.0255L195.903 57.0174C195.52 57.0146 195.138 57.0112 194.757 57.0071L192.477 56.9737L190.231 56.9227C189.861 56.9127 189.493 56.902 189.128 56.8904L186.973 56.8117C186.62 56.797 186.272 56.7815 185.927 56.7652L183.911 56.6574C182.604 56.5789 181.377 56.4868 180.257 56.3804Z" fill="url(#paint13_linear_404_120)"/>
<defs>
<linearGradient id="paint0_linear_404_120" x1="55.9915" y1="41.4914" x2="90.6865" y2="30.1775" gradientUnits="userSpaceOnUse">
<stop stop-color="#F69923"/>
<stop offset="0.3123" stop-color="#F79A23"/>
<stop offset="0.8383" stop-color="#E97826"/>
</linearGradient>
<linearGradient id="paint1_linear_404_120" x1="53.2537" y1="231.877" x2="95.8234" y2="62.8714" gradientUnits="userSpaceOnUse">
<stop offset="0.3233" stop-color="#9E2064"/>
<stop offset="0.6302" stop-color="#C92037"/>
<stop offset="0.7514" stop-color="#CD2335"/>
<stop offset="1" stop-color="#E97826"/>
</linearGradient>
<linearGradient id="paint2_linear_404_120" x1="91.4313" y1="226.554" x2="119.396" y2="90.357" gradientUnits="userSpaceOnUse">
<stop stop-color="#282662"/>
<stop offset="0.0954839" stop-color="#662E8D"/>
<stop offset="0.7882" stop-color="#9F2064"/>
<stop offset="0.9487" stop-color="#CD2032"/>
</linearGradient>
<linearGradient id="paint3_linear_404_120" x1="60.5529" y1="222.638" x2="122.45" y2="72.1246" gradientUnits="userSpaceOnUse">
<stop offset="0.3233" stop-color="#9E2064"/>
<stop offset="0.6302" stop-color="#C92037"/>
<stop offset="0.7514" stop-color="#CD2335"/>
<stop offset="1" stop-color="#E97826"/>
</linearGradient>
<linearGradient id="paint4_linear_404_120" x1="76.0204" y1="215.683" x2="125.862" y2="153.584" gradientUnits="userSpaceOnUse">
<stop stop-color="#282662"/>
<stop offset="0.0954839" stop-color="#662E8D"/>
<stop offset="0.7882" stop-color="#9F2064"/>
<stop offset="0.9487" stop-color="#CD2032"/>
</linearGradient>
<linearGradient id="paint5_linear_404_120" x1="79.8609" y1="248.894" x2="125.369" y2="33.4761" gradientUnits="userSpaceOnUse">
<stop offset="0.3233" stop-color="#9E2064"/>
<stop offset="0.6302" stop-color="#C92037"/>
<stop offset="0.7514" stop-color="#CD2335"/>
<stop offset="1" stop-color="#E97826"/>
</linearGradient>
<linearGradient id="paint6_linear_404_120" x1="66.7557" y1="302.142" x2="109.583" y2="52.8396" gradientUnits="userSpaceOnUse">
<stop offset="0.3233" stop-color="#9E2064"/>
<stop offset="0.6302" stop-color="#C92037"/>
<stop offset="0.7514" stop-color="#CD2335"/>
<stop offset="1" stop-color="#E97826"/>
</linearGradient>
<linearGradient id="paint7_linear_404_120" x1="180.304" y1="45.9286" x2="225.334" y2="33.9264" gradientUnits="userSpaceOnUse">
<stop stop-color="#F69923"/>
<stop offset="0.3123" stop-color="#F79A23"/>
<stop offset="0.8383" stop-color="#E97826"/>
</linearGradient>
<linearGradient id="paint8_linear_404_120" x1="113.92" y1="239.48" x2="205.543" y2="71.6141" gradientUnits="userSpaceOnUse">
<stop offset="0.3233" stop-color="#9E2064"/>
<stop offset="0.6302" stop-color="#C92037"/>
<stop offset="0.7514" stop-color="#CD2335"/>
<stop offset="1" stop-color="#E97826"/>
</linearGradient>
<linearGradient id="paint9_linear_404_120" x1="88.5401" y1="203.463" x2="129.915" y2="133.972" gradientUnits="userSpaceOnUse">
<stop stop-color="#282662"/>
<stop offset="0.0954839" stop-color="#662E8D"/>
<stop offset="0.7882" stop-color="#9F2064"/>
<stop offset="0.9487" stop-color="#CD2032"/>
</linearGradient>
<linearGradient id="paint10_linear_404_120" x1="104.576" y1="227.592" x2="197.49" y2="70.3108" gradientUnits="userSpaceOnUse">
<stop offset="0.3233" stop-color="#9E2064"/>
<stop offset="0.6302" stop-color="#C92037"/>
<stop offset="0.7514" stop-color="#CD2335"/>
<stop offset="1" stop-color="#E97826"/>
</linearGradient>
<linearGradient id="paint11_linear_404_120" x1="82.3985" y1="213.608" x2="133.362" y2="137.786" gradientUnits="userSpaceOnUse">
<stop stop-color="#282662"/>
<stop offset="0.0954839" stop-color="#662E8D"/>
<stop offset="0.7882" stop-color="#9F2064"/>
<stop offset="0.9487" stop-color="#CD2032"/>
</linearGradient>
<linearGradient id="paint12_linear_404_120" x1="80.9401" y1="227.736" x2="188.052" y2="56.1049" gradientUnits="userSpaceOnUse">
<stop offset="0.3233" stop-color="#9E2064"/>
<stop offset="0.6302" stop-color="#C92037"/>
<stop offset="0.7514" stop-color="#CD2335"/>
<stop offset="1" stop-color="#E97826"/>
</linearGradient>
<linearGradient id="paint13_linear_404_120" x1="81.2953" y1="159.727" x2="149.893" y2="46.6716" gradientUnits="userSpaceOnUse">
<stop offset="0.3233" stop-color="#9E2064"/>
<stop offset="0.6302" stop-color="#C92037"/>
<stop offset="0.7514" stop-color="#CD2335"/>
<stop offset="1" stop-color="#E97826"/>
</linearGradient>
</defs>
</svg>
