<svg xmlns="http://www.w3.org/2000/svg" xmlns:xlink="http://www.w3.org/1999/xlink" width="256" zoomAndPan="magnify" viewBox="0 0 375 374.999991" height="256" preserveAspectRatio="xMidYMid meet" version="1.0">
<defs>
<clipPath id="9fde73391f">
<path d="M 75 0 L 300 0 C 341.421875 0 375 33.578125 375 75 L 375 304.027344 C 375 345.445312 341.421875 379.027344 300 379.027344 L 75 379.027344 C 33.578125 379.027344 0 345.445312 0 304.027344 L 0 75 C 0 33.578125 33.578125 0 75 0 " clip-rule="nonzero"/>
</clipPath>
</defs>
<g clip-path="url(#9fde73391f)">
<path fill="#242938" d="M 0 0 L 374.414062 0 L 374.414062 379.6875 L 0 379.6875 Z M 0 0 " fill-opacity="1" fill-rule="nonzero"/>
</g>
<path fill="#df5052" d="M 324.546875 193.0625 C 327.464844 193.0625 329.652344 190.875 329.652344 187.957031 C 329.652344 186.742188 329.167969 185.523438 328.4375 184.796875 C 328.195312 184.308594 260.351562 122.058594 260.351562 122.058594 L 320.171875 190.386719 C 320.898438 192.089844 322.601562 193.0625 324.546875 193.0625 Z M 338.40625 227.835938 L 337.921875 227.347656 L 190.078125 92.394531 L 325.519531 239.75 L 326.007812 240.238281 C 327.464844 241.695312 329.652344 242.667969 332.085938 242.667969 C 336.949219 242.667969 340.839844 238.777344 340.839844 233.914062 C 340.839844 231.726562 339.867188 229.539062 338.40625 227.835938 Z M 272.996094 319.265625 L 59.011719 121.085938 L 256.21875 336.285156 C 258.40625 338.71875 261.566406 340.421875 265.214844 340.421875 C 271.78125 340.421875 277.128906 335.070312 277.128906 328.503906 C 277.128906 324.859375 275.671875 321.453125 272.996094 319.265625 Z M 34.453125 38.898438 L 296.097656 317.5625 L 296.339844 317.804688 C 298.527344 319.996094 301.445312 321.210938 304.609375 321.210938 C 311.171875 321.210938 316.523438 315.859375 316.523438 309.296875 C 316.523438 306.863281 315.792969 304.433594 314.335938 302.488281 C 313.605469 301.269531 34.453125 38.898438 34.453125 38.898438 Z M 332.085938 264.554688 L 118.101562 66.375 L 315.308594 281.574219 C 317.496094 284.007812 320.65625 285.707031 324.304688 285.707031 C 330.871094 285.707031 336.21875 280.359375 336.21875 273.792969 C 336.21875 269.902344 334.515625 266.742188 332.085938 264.554688 Z M 228.742188 324.859375 L 228.253906 324.371094 L 80.410156 189.414062 L 215.851562 336.773438 L 216.339844 337.257812 C 217.796875 338.71875 219.988281 339.691406 222.417969 339.691406 C 227.28125 339.691406 231.171875 335.800781 231.171875 330.9375 C 231.171875 328.503906 230.199219 326.558594 228.742188 324.859375 Z M 114.941406 257.015625 L 174.757812 325.34375 C 175.730469 326.804688 177.191406 328.019531 179.136719 328.019531 C 182.054688 328.019531 184.242188 325.832031 184.242188 322.914062 C 184.242188 321.695312 183.753906 320.480469 183.027344 319.75 C 182.539062 319.507812 114.941406 257.015625 114.941406 257.015625 Z M 114.941406 257.015625 " fill-opacity="1" fill-rule="nonzero"/>
</svg>