<svg xmlns="http://www.w3.org/2000/svg" xmlns:xlink="http://www.w3.org/1999/xlink" width="256" zoomAndPan="magnify" viewBox="0 0 375 374.999991" height="256" preserveAspectRatio="xMidYMid meet" version="1.0">
<defs>
<clipPath id="71506b6fa7">
<path d="M 75 0 L 300 0 C 341.421875 0 375 33.578125 375 75 L 375 304.027344 C 375 345.445312 341.421875 379.027344 300 379.027344 L 75 379.027344 C 33.578125 379.027344 0 345.445312 0 304.027344 L 0 75 C 0 33.578125 33.578125 0 75 0 " clip-rule="nonzero"/>
</clipPath>
</defs>
<g clip-path="url(#71506b6fa7)">
<path fill="#f4f2ec" d="M 0 0 L 374.414062 0 L 374.414062 379.6875 L 0 379.6875 Z M 0 0 " fill-opacity="1" fill-rule="nonzero"/>
</g>
<path fill="#df5052" d="M 329.144531 191.144531 C 332.160156 191.144531 334.421875 188.882812 334.421875 185.867188 C 334.421875 184.609375 333.921875 183.351562 333.167969 182.597656 C 332.914062 182.09375 262.785156 117.746094 262.785156 117.746094 L 324.621094 188.378906 C 325.375 190.136719 327.132812 191.144531 329.144531 191.144531 Z M 343.472656 227.089844 L 342.96875 226.585938 L 190.136719 87.078125 L 330.148438 239.40625 L 330.652344 239.910156 C 332.160156 241.417969 334.421875 242.421875 336.9375 242.421875 C 341.964844 242.421875 345.984375 238.402344 345.984375 233.375 C 345.984375 231.113281 344.980469 228.847656 343.472656 227.089844 Z M 275.855469 321.605469 L 54.652344 116.738281 L 258.511719 339.199219 C 260.773438 341.714844 264.039062 343.472656 267.8125 343.472656 C 274.597656 343.472656 280.128906 337.941406 280.128906 331.15625 C 280.128906 327.386719 278.621094 323.867188 275.855469 321.605469 Z M 29.265625 31.777344 L 299.734375 319.84375 L 299.984375 320.09375 C 302.25 322.359375 305.265625 323.613281 308.53125 323.613281 C 315.320312 323.613281 320.847656 318.085938 320.847656 311.296875 C 320.847656 308.785156 320.09375 306.269531 318.585938 304.257812 C 317.832031 303.003906 29.265625 31.777344 29.265625 31.777344 Z M 336.9375 265.046875 L 115.734375 60.183594 L 319.59375 282.640625 C 321.855469 285.15625 325.121094 286.914062 328.894531 286.914062 C 335.679688 286.914062 341.210938 281.386719 341.210938 274.597656 C 341.210938 270.574219 339.449219 267.308594 336.9375 265.046875 Z M 230.105469 327.386719 L 229.601562 326.882812 L 76.773438 187.375 L 216.785156 339.703125 L 217.285156 340.203125 C 218.792969 341.714844 221.058594 342.71875 223.570312 342.71875 C 228.597656 342.71875 232.621094 338.695312 232.621094 333.667969 C 232.621094 331.15625 231.613281 329.144531 230.105469 327.386719 Z M 112.464844 257.253906 L 174.300781 327.886719 C 175.308594 329.394531 176.816406 330.652344 178.828125 330.652344 C 181.84375 330.652344 184.105469 328.390625 184.105469 325.375 C 184.105469 324.117188 183.601562 322.859375 182.847656 322.105469 C 182.347656 321.855469 112.464844 257.253906 112.464844 257.253906 Z M 112.464844 257.253906 " fill-opacity="1" fill-rule="nonzero"/>
</svg>