<svg width="256" height="256" viewBox="0 0 256 256" fill="none" xmlns="http://www.w3.org/2000/svg">
<path d="M196 0H60C26.8629 0 0 26.8629 0 60V196C0 229.137 26.8629 256 60 256H196C229.137 256 256 229.137 256 196V60C256 26.8629 229.137 0 196 0Z" fill="#242938"/>
<path d="M60.2351 57.7895C63.8739 56.891 67.6333 56.5826 71.3698 56.8761C94.0131 56.903 116.647 56.903 139.271 56.8761C143.116 56.7967 146.899 57.8587 150.141 59.9279C153.383 61.9972 155.94 64.9809 157.487 68.5021C158.692 71.4435 159.142 74.6391 158.798 77.7987C158.453 80.9583 157.325 83.9818 155.515 86.5946C153.705 89.2073 151.271 91.3265 148.434 92.7597C145.598 94.1929 142.448 94.8946 139.271 94.8011C114.893 94.7741 90.5154 94.7741 66.1378 94.8011C61.3731 94.9136 56.7388 93.2387 53.147 90.1059C49.5552 86.9731 47.2661 82.6094 46.7301 77.8736C46.2264 73.467 47.309 69.025 49.784 65.3444C52.2589 61.6639 55.9641 58.9854 60.2351 57.7895Z" fill="#F75D3C"/>
<path d="M184.214 57.6566C188.855 56.4483 193.779 57.0111 198.027 59.2351C202.275 61.4592 205.543 65.1853 207.195 69.6874C208.017 72.0145 208.367 74.4822 208.226 76.9463C208.084 79.4104 207.453 81.8215 206.369 84.0389C205.285 86.2563 203.77 88.2355 201.912 89.861C200.055 91.4865 197.893 92.7257 195.551 93.5062C192.831 94.5055 189.919 94.8736 187.035 94.5829C184.152 94.2921 181.372 93.35 178.906 91.8277C176.44 90.3054 174.352 88.2427 172.8 85.7953C171.248 83.348 170.272 80.5799 169.946 77.7002C169.488 73.197 170.683 68.6807 173.308 64.9931C175.933 61.3055 179.809 58.698 184.214 57.6566Z" fill="#F75D3C"/>
<path d="M109.815 111.347C113.501 110.735 117.241 110.52 120.973 110.705C143.653 110.757 166.35 110.705 189.03 110.746C191.534 110.689 194.024 111.134 196.354 112.055C198.684 112.975 200.806 114.353 202.595 116.106C204.384 117.859 205.804 119.952 206.772 122.263C207.74 124.573 208.236 127.054 208.231 129.559C208.225 132.064 207.719 134.542 206.741 136.849C205.763 139.155 204.334 141.242 202.537 142.987C200.74 144.733 198.612 146.101 196.279 147.012C193.945 147.922 191.453 148.356 188.949 148.289C164.089 148.289 139.23 148.341 114.371 148.289C109.741 148.264 105.289 146.503 101.894 143.356C98.4985 140.208 96.4071 135.901 96.0324 131.286C95.5942 126.869 96.7393 122.439 99.2636 118.787C101.788 115.135 105.527 112.498 109.815 111.347Z" fill="#F75D3C"/>
<path d="M61.2411 162.933C63.7622 162.553 66.3124 162.4 68.8608 162.476C92.8067 162.569 116.741 162.436 140.675 162.54C143.18 162.598 145.648 163.156 147.934 164.181C150.22 165.205 152.279 166.676 153.989 168.507C155.699 170.338 157.027 172.492 157.894 174.843C158.76 177.193 159.149 179.693 159.037 182.196C158.74 186.948 156.678 191.416 153.255 194.725C149.832 198.033 145.295 199.943 140.537 200.078C115.311 200.105 90.0857 200.105 64.8602 200.078C60.2862 199.951 55.9157 198.159 52.5687 195.039C49.2216 191.919 47.1282 187.685 46.6812 183.131C46.2342 178.577 47.4643 174.017 50.1408 170.306C52.8172 166.594 56.756 163.987 61.218 162.974L61.2411 162.933Z" fill="#F75D3C"/>
<path d="M182.936 163.367C187.62 161.836 192.711 162.14 197.178 164.219C201.646 166.298 205.158 169.996 207.004 174.565C207.94 177.19 208.29 179.989 208.03 182.764C207.77 185.539 206.907 188.223 205.499 190.629C204.092 193.035 202.175 195.104 199.884 196.691C197.592 198.278 194.981 199.344 192.234 199.815C189.487 200.286 186.67 200.15 183.981 199.417C181.292 198.683 178.796 197.371 176.668 195.571C174.539 193.771 172.831 191.527 171.662 188.997C170.492 186.467 169.891 183.712 169.9 180.924C169.906 176.988 171.177 173.157 173.523 169.996C175.87 166.836 179.17 164.512 182.936 163.367Z" fill="#F75D3C"/>
<path d="M60.212 111.156C63.6654 110.113 67.3428 110.063 70.8233 111.012C74.3037 111.962 77.4463 113.872 79.8911 116.525C82.3359 119.178 83.9841 122.466 84.6468 126.012C85.3096 129.558 84.9601 133.22 83.6384 136.576C82.3167 139.933 80.0763 142.85 77.1737 144.992C74.2712 147.135 70.8239 148.416 67.2267 148.69C63.6295 148.964 60.0278 148.219 56.8343 146.541C53.6408 144.863 50.9846 142.319 49.1698 139.201C47.729 136.691 46.8713 133.889 46.6603 131.002C46.4492 128.115 46.8902 125.218 47.9506 122.525C49.011 119.832 50.6636 117.412 52.7861 115.444C54.9086 113.476 57.4465 112.01 60.212 111.156Z" fill="#F93748"/>
</svg>
