<svg width="256" height="256" viewBox="0 0 256 256" fill="none" xmlns="http://www.w3.org/2000/svg">
<g clip-path="url(#clip0_85_110)">
<path d="M196 0H60C26.8629 0 0 26.8629 0 60V196C0 229.137 26.8629 256 60 256H196C229.137 256 256 229.137 256 196V60C256 26.8629 229.137 0 196 0Z" fill="#F4F2ED"/>
<path fill-rule="evenodd" clip-rule="evenodd" d="M197.831 109.147C197.389 109.248 196.623 109.477 196.129 109.655C195.636 109.834 194.554 110.354 193.724 110.811C192.895 111.269 191.635 112.011 190.924 112.46C190.213 112.91 189.039 113.682 188.315 114.177C187.59 114.672 186.162 115.718 185.141 116.5C184.119 117.283 182.698 118.422 181.983 119.032C181.268 119.642 180.043 120.714 179.26 121.415C178.476 122.116 176.302 124.258 174.426 126.176C172.551 128.094 170.374 130.404 169.588 131.309C168.803 132.215 167.616 133.605 166.95 134.4C166.285 135.194 164.976 136.818 164.042 138.009C163.108 139.2 161.672 141.086 160.853 142.2C160.033 143.314 158.842 144.967 158.207 145.872C157.571 146.778 156.179 148.858 155.113 150.495C154.047 152.131 152.723 154.249 152.171 155.201C151.618 156.153 150.794 157.692 150.338 158.62C149.883 159.549 149.319 160.765 149.084 161.322C148.85 161.879 148.38 163.124 148.041 164.089C147.701 165.054 147.209 166.351 146.945 166.971C146.682 167.592 146.211 168.493 145.898 168.974C145.4 169.742 145.094 170.023 143.415 171.26C142.362 172.036 140.995 172.976 140.377 173.349C139.76 173.723 138.892 174.176 138.45 174.357C138.008 174.538 137.106 174.831 136.445 175.009C135.785 175.186 134.771 175.36 134.192 175.395C133.291 175.451 133.085 175.425 132.759 175.213C132.549 175.077 132.284 174.765 132.17 174.52C132.057 174.275 131.964 173.883 131.964 173.65C131.964 173.417 132.099 172.656 132.265 171.959C132.43 171.263 132.74 170.16 132.954 169.509C133.167 168.858 133.666 167.547 134.061 166.596C134.456 165.646 135.197 163.956 135.707 162.842C136.217 161.727 136.695 160.616 136.769 160.372C136.842 160.129 136.938 159.669 136.982 159.351C137.025 159.034 137.003 158.45 136.931 158.055C136.86 157.659 136.651 157.021 136.467 156.637C136.276 156.24 135.823 155.637 135.414 155.238C135.012 154.845 134.387 154.397 133.995 154.22C133.609 154.045 132.841 153.843 132.288 153.771C131.735 153.699 130.893 153.676 130.416 153.722C129.939 153.767 129.104 153.919 128.559 154.059C128.014 154.2 127.107 154.51 126.543 154.748C125.98 154.987 124.798 155.58 123.917 156.066C123.037 156.552 121.492 157.443 120.485 158.046C119.478 158.649 118.125 159.469 117.478 159.869C116.831 160.269 115.048 161.375 113.516 162.326C111.118 163.815 110.713 164.027 110.606 163.851C110.538 163.738 110.262 163.294 109.993 162.864C109.724 162.434 109.139 161.707 108.693 161.25C108.2 160.743 107.591 160.272 107.139 160.046C106.449 159.702 106.296 159.676 104.973 159.677C103.721 159.678 103.429 159.722 102.558 160.041C102.014 160.24 100.482 160.844 99.1536 161.384C97.8258 161.923 93.9536 163.62 90.5488 165.155C87.1439 166.689 83.5782 168.328 82.6248 168.795C81.6715 169.263 80.1185 170.01 79.1738 170.454C78.2292 170.899 77.436 171.263 77.4113 171.263C77.3866 171.263 77.8754 170.479 78.4976 169.522C79.1197 168.564 79.8931 167.211 80.2161 166.514C80.5391 165.818 80.872 164.943 80.9557 164.57C81.0403 164.194 81.0823 163.48 81.0501 162.967C81.0049 162.247 80.893 161.829 80.5437 161.077C80.2538 160.453 79.864 159.875 79.441 159.442C79.0811 159.074 78.5211 158.614 78.1965 158.42C77.8718 158.225 77.2033 157.924 76.7107 157.751C76.0696 157.525 75.4458 157.417 74.5152 157.37C73.5535 157.322 72.7317 157.376 71.358 157.579C70.3366 157.729 68.6372 158.024 67.5818 158.234C66.5263 158.444 64.6598 158.871 63.4341 159.184C62.2083 159.497 60.443 159.978 59.5111 160.253C58.5792 160.528 56.9634 161.06 55.9206 161.436C54.8777 161.811 52.9101 162.546 51.5482 163.069C50.1863 163.592 48.2362 164.362 47.2148 164.78C46.1933 165.198 44.3096 166.003 43.0285 166.569C41.7475 167.136 39.6389 168.106 38.3427 168.727C37.0467 169.347 34.8354 170.479 33.4289 171.242C32.0224 172.005 29.9245 173.197 28.7669 173.89C27.0931 174.892 26.5571 175.281 26.1491 175.791C25.867 176.143 25.5114 176.764 25.3589 177.171C25.2006 177.594 25.0558 178.322 25.0216 178.868C24.9686 179.713 24.9984 179.898 25.2789 180.464C25.4533 180.816 25.8724 181.359 26.2102 181.669C26.5804 182.01 27.0805 182.319 27.4693 182.447C27.8241 182.564 28.3588 182.66 28.6577 182.66C28.9737 182.66 29.7319 182.464 30.4697 182.191C31.1675 181.933 35.3598 179.865 39.7861 177.595C44.2346 175.314 49.0798 172.926 50.6196 172.256C52.1518 171.589 54.8539 170.489 56.6244 169.812C58.395 169.135 60.5678 168.306 61.4531 167.971C62.3383 167.635 63.7034 167.157 64.4865 166.909C65.2696 166.661 66.6625 166.264 67.5818 166.026C68.5011 165.788 69.5289 165.553 69.8658 165.504C70.3681 165.431 70.4553 165.445 70.3502 165.585C70.2796 165.678 68.8035 167.635 67.07 169.933C65.3366 172.232 63.194 175.081 62.3089 176.265C61.4237 177.449 60.0747 179.281 59.311 180.335C58.5474 181.39 57.7984 182.53 57.6468 182.868C57.4363 183.337 57.3726 183.709 57.378 184.433C57.3832 185.154 57.4535 185.529 57.67 185.988C57.8269 186.321 58.1955 186.867 58.4893 187.201C58.783 187.535 59.3516 187.988 59.753 188.206C60.1544 188.425 60.8125 188.693 61.2155 188.802C61.6602 188.921 62.4724 188.999 63.2809 189C64.0139 189.001 64.8496 188.938 65.1381 188.862C65.4266 188.785 65.9691 188.608 66.3436 188.469C66.7182 188.33 67.4425 187.983 67.9532 187.699C68.4639 187.414 69.4111 186.838 70.058 186.419C70.7049 185.999 73.4906 184.136 76.2485 182.279C79.0064 180.421 82.2379 178.302 83.4296 177.569C84.6213 176.836 86.2927 175.848 87.1439 175.375C87.9951 174.901 89.2209 174.261 89.8678 173.953C90.5147 173.644 91.7404 173.077 92.5916 172.691C93.4428 172.306 94.6329 171.738 95.2361 171.429C95.8395 171.12 96.4118 170.898 96.508 170.935C96.6043 170.973 96.7151 171.089 96.7542 171.194C96.7945 171.301 96.4475 172.057 95.9532 172.938C95.306 174.091 94.9699 174.87 94.6503 175.957C94.4133 176.762 94.1317 177.894 94.0246 178.472C93.9174 179.05 93.8298 179.851 93.8298 180.254C93.8298 180.656 93.9248 181.291 94.041 181.664C94.2011 182.179 94.4332 182.528 95.0005 183.105C95.4158 183.528 96.0584 184.019 96.4444 184.209C96.827 184.397 97.412 184.614 97.7444 184.691C98.0769 184.768 98.6402 184.795 98.9963 184.75C99.3524 184.705 99.9694 184.502 100.367 184.299C100.79 184.083 101.639 183.415 102.409 182.693C103.134 182.013 104.69 180.544 105.866 179.428C107.043 178.311 108.619 176.856 109.368 176.194C110.117 175.532 111.176 174.618 111.721 174.163C112.265 173.708 113.519 172.711 114.506 171.947C115.494 171.183 117.277 169.894 118.468 169.083C119.66 168.272 121.469 167.123 122.488 166.53C123.507 165.936 124.362 165.472 124.388 165.499C124.414 165.525 124.29 166.363 124.113 167.36C123.936 168.357 123.705 169.829 123.599 170.63C123.494 171.431 123.375 172.83 123.335 173.74C123.278 175.035 123.307 175.601 123.468 176.342C123.581 176.863 123.838 177.644 124.039 178.078C124.239 178.513 124.584 179.137 124.805 179.466C125.025 179.795 125.459 180.342 125.768 180.682C126.077 181.022 126.641 181.544 127.02 181.843C127.399 182.142 128.079 182.595 128.531 182.849C128.983 183.103 129.822 183.474 130.397 183.674C130.971 183.874 131.796 184.106 132.229 184.19C132.662 184.275 133.657 184.341 134.44 184.338C135.25 184.335 136.243 184.247 136.745 184.135C137.229 184.026 137.981 183.8 138.416 183.633C138.851 183.465 139.736 183.057 140.383 182.725C141.03 182.394 142.45 181.625 143.54 181.016C144.63 180.408 146.635 179.327 147.997 178.615C149.436 177.862 150.682 177.293 150.971 177.255C151.397 177.199 151.783 177.33 153.621 178.157C154.805 178.689 156.314 179.317 156.976 179.552C157.637 179.788 158.813 180.124 159.588 180.298C160.363 180.473 161.582 180.675 162.297 180.748C163.012 180.82 164.517 180.915 165.64 180.959C166.764 181.003 168.798 180.976 170.159 180.899C171.521 180.821 173.388 180.67 174.307 180.562C175.226 180.453 176.769 180.226 177.736 180.057C178.702 179.887 180.234 179.554 181.141 179.316C182.047 179.078 183.15 178.757 183.593 178.602C184.036 178.446 184.723 178.153 185.12 177.95C185.517 177.747 186.086 177.351 186.383 177.071C186.68 176.791 186.988 176.36 187.067 176.115C187.147 175.869 187.185 175.347 187.154 174.954C187.122 174.561 186.972 173.911 186.821 173.51C186.67 173.109 186.368 172.587 186.15 172.351C185.909 172.09 185.536 171.861 185.2 171.767C184.848 171.669 184.238 171.639 183.531 171.684C182.918 171.723 181.665 171.902 180.745 172.082C179.826 172.262 178.127 172.548 176.969 172.719C175.811 172.89 173.834 173.124 172.574 173.24C171.214 173.365 169.075 173.451 167.312 173.452C165.677 173.452 163.954 173.39 163.482 173.314C162.99 173.234 162.276 172.997 161.81 172.757C161.295 172.492 160.897 172.184 160.722 171.914C160.57 171.679 160.41 171.288 160.365 171.043C160.308 170.736 160.356 170.418 160.52 170.013C160.702 169.564 160.916 169.32 161.435 168.968C161.807 168.716 163.087 167.852 164.278 167.049C165.47 166.245 167.281 164.948 168.302 164.166C169.324 163.384 170.744 162.253 171.459 161.653C172.173 161.053 173.455 159.936 174.307 159.17C175.158 158.404 177.559 156.039 179.641 153.915C181.723 151.79 184.232 149.14 185.217 148.025C186.201 146.911 187.591 145.315 188.305 144.479C189.019 143.644 190.051 142.418 190.598 141.757C191.146 141.095 192.297 139.658 193.156 138.563C194.016 137.468 195.272 135.815 195.947 134.89C196.621 133.966 197.736 132.381 198.424 131.369C199.112 130.357 200.214 128.618 200.872 127.506C201.53 126.394 202.446 124.686 202.908 123.711C203.37 122.736 203.998 121.254 204.304 120.419C204.61 119.583 204.987 118.358 205.141 117.696C205.33 116.884 205.423 116.081 205.428 115.227C205.434 114.229 205.373 113.763 205.143 113.032C204.983 112.522 204.641 111.772 204.384 111.365C204.127 110.958 203.634 110.397 203.289 110.117C202.943 109.838 202.34 109.485 201.948 109.334C201.43 109.133 200.882 109.044 199.936 109.01C199.083 108.978 198.359 109.025 197.831 109.147ZM192.67 121.142C192.138 121.574 191.006 122.553 190.155 123.318C189.304 124.082 187.66 125.603 186.503 126.697C185.345 127.79 183.172 129.96 181.674 131.518C180.176 133.075 178.25 135.119 177.395 136.059C176.54 136.999 175.096 138.623 174.186 139.667C173.277 140.712 171.66 142.621 170.594 143.91C169.527 145.198 167.874 147.25 166.919 148.469C165.965 149.687 164.515 151.596 163.697 152.711C162.878 153.825 161.922 155.186 161.572 155.735C161.137 156.417 160.936 156.862 160.936 157.144C160.936 157.37 161.01 157.619 161.102 157.697C161.194 157.774 161.438 157.873 161.644 157.915C161.89 157.965 162.206 157.906 162.561 157.743C162.865 157.603 164.026 156.645 165.207 155.559C166.365 154.495 168.426 152.556 169.788 151.25C171.15 149.945 173.825 147.26 175.733 145.285C177.641 143.31 179.929 140.867 180.816 139.857C181.704 138.847 182.957 137.394 183.601 136.628C184.246 135.862 185.419 134.409 186.208 133.399C186.998 132.389 188.255 130.708 189.002 129.663C189.749 128.618 190.704 127.239 191.124 126.597C191.544 125.956 192.445 124.478 193.126 123.313C193.88 122.024 194.365 121.06 194.365 120.852C194.365 120.656 194.281 120.476 194.169 120.432C194.061 120.39 193.898 120.355 193.805 120.355C193.713 120.355 193.202 120.709 192.67 121.142ZM209.036 144.241C208.832 144.271 208.116 144.412 207.446 144.554C206.776 144.697 205.666 145.012 204.981 145.257C204.296 145.501 203.254 145.947 202.665 146.25C202.077 146.552 201.074 147.156 200.435 147.593C199.797 148.03 198.698 148.955 197.993 149.649C197.289 150.343 196.329 151.43 195.86 152.064C195.391 152.699 194.722 153.73 194.374 154.356C194.026 154.982 193.524 156.064 193.258 156.762C192.992 157.459 192.657 158.501 192.513 159.078C192.37 159.655 192.171 160.681 192.071 161.358C191.971 162.035 191.889 163.245 191.889 164.048C191.889 164.851 191.945 165.991 192.015 166.581C192.085 167.171 192.284 168.242 192.457 168.961C192.631 169.68 192.999 170.848 193.277 171.557C193.554 172.266 194.055 173.344 194.39 173.954C194.725 174.563 195.337 175.532 195.75 176.106C196.163 176.681 197.066 177.721 197.758 178.418C198.449 179.114 199.502 180.036 200.098 180.467C200.694 180.897 201.778 181.561 202.509 181.943C203.239 182.324 204.406 182.839 205.103 183.086C205.8 183.334 206.97 183.657 207.703 183.804C208.436 183.951 209.788 184.103 210.708 184.141C211.683 184.182 212.869 184.149 213.555 184.063C214.202 183.981 215.145 183.828 215.65 183.721C216.155 183.615 217.074 183.354 217.693 183.142C218.311 182.93 219.33 182.507 219.957 182.201C220.584 181.896 221.677 181.249 222.386 180.764C223.096 180.279 224.237 179.336 224.924 178.668C225.61 178.001 226.559 176.931 227.033 176.29C227.506 175.65 228.179 174.613 228.527 173.987C228.875 173.361 229.378 172.278 229.644 171.581C229.911 170.884 230.241 169.899 230.378 169.393C230.515 168.887 230.721 167.861 230.835 167.114C230.999 166.05 231.029 165.259 230.976 163.475C230.923 161.664 230.846 160.922 230.601 159.866C230.432 159.134 230.173 158.166 230.026 157.713C229.878 157.26 229.399 156.149 228.962 155.244C228.524 154.338 227.795 153.069 227.342 152.424C226.889 151.778 226.029 150.743 225.43 150.124C224.832 149.505 223.907 148.664 223.375 148.255C222.843 147.847 222.179 147.362 221.9 147.178C221.62 146.994 220.84 146.56 220.166 146.215C219.492 145.87 218.431 145.409 217.808 145.19C217.185 144.972 216.154 144.675 215.518 144.531C214.611 144.325 213.823 144.259 211.884 144.227C210.522 144.204 209.241 144.21 209.036 144.241ZM216.217 152.907C215.536 152.957 212.834 153.004 210.212 153.013C205.444 153.027 205.444 153.027 204.722 158.948C204.324 162.204 203.971 164.972 203.937 165.1C203.878 165.321 203.962 165.328 205.588 165.24C207.302 165.147 207.302 165.147 207.86 164.668C208.166 164.405 208.698 164.046 209.042 163.87C209.386 163.695 209.943 163.488 210.28 163.41C210.617 163.333 211.172 163.307 211.512 163.352C211.853 163.397 212.41 163.563 212.751 163.722C213.091 163.88 213.622 164.239 213.931 164.52C214.24 164.801 214.658 165.336 214.86 165.709C215.198 166.334 215.227 166.487 215.227 167.654C215.227 168.756 215.185 169.01 214.904 169.617C214.726 170 214.337 170.558 214.039 170.856C213.741 171.155 213.189 171.551 212.814 171.736C212.256 172.011 211.951 172.074 211.141 172.079C210.268 172.085 210.072 172.042 209.487 171.71C209.122 171.503 208.643 171.118 208.421 170.854C208.2 170.589 207.749 169.882 207.42 169.281C207.045 168.598 206.679 168.102 206.443 167.954C206.235 167.824 205.889 167.684 205.675 167.643C205.417 167.593 205.094 167.654 204.719 167.824C204.37 167.981 204.056 168.241 203.902 168.5C203.764 168.731 203.651 169.136 203.651 169.399C203.651 169.691 203.819 170.226 204.085 170.776C204.324 171.271 204.717 171.95 204.958 172.286C205.199 172.622 205.676 173.155 206.018 173.469C206.36 173.784 206.928 174.208 207.281 174.413C207.633 174.617 208.312 174.911 208.789 175.065C209.463 175.284 209.958 175.347 211.017 175.348C211.766 175.35 212.713 175.281 213.122 175.197C213.531 175.112 214.385 174.787 215.02 174.475C215.894 174.045 216.365 173.713 216.954 173.11C217.478 172.574 217.881 172.005 218.181 171.376C218.428 170.861 218.72 170.071 218.83 169.62C218.982 169.003 219.016 168.439 218.97 167.341C218.925 166.279 218.832 165.662 218.63 165.076C218.477 164.633 218.078 163.851 217.743 163.339C217.408 162.827 216.872 162.175 216.552 161.89C216.232 161.605 215.468 161.122 214.855 160.815C214.174 160.475 213.407 160.2 212.88 160.108C212.366 160.018 211.536 159.987 210.82 160.032C210.115 160.076 209.304 160.216 208.85 160.372C208.426 160.519 208.057 160.616 208.031 160.59C208.005 160.563 208.063 159.948 208.159 159.222C208.254 158.497 208.37 157.518 208.416 157.048C208.498 156.198 208.501 156.194 208.829 156.281C209.011 156.329 210.887 156.371 212.998 156.376C216.316 156.382 216.931 156.353 217.535 156.162C218.013 156.011 218.353 155.802 218.612 155.5C218.821 155.257 219.028 154.855 219.074 154.605C219.12 154.355 219.128 153.925 219.091 153.648C219.055 153.371 218.958 153.061 218.875 152.959C218.774 152.835 218.516 152.781 218.09 152.795C217.741 152.807 216.898 152.857 216.217 152.907Z" fill="#A256F6"/>
</g>
<defs>
<clipPath id="clip0_85_110">
<rect width="256" height="256" fill="white"/>
</clipPath>
</defs>
</svg>
