<svg width="256" height="256" fill="none" version="1.1" viewBox="0 0 256 256" xmlns="http://www.w3.org/2000/svg">
 <rect width="256" height="256" rx="60" fill="#f4f2ed"/>
 <g transform="matrix(1.0335 0 0 1.0335 -4.292 -4.292)" stroke-width=".71922">
  <path d="m214.45 184.36-80.833 46.704a11.156 11.156 0 0 1-11.227 0l-80.833-46.704c-3.4802-2.021-5.6134-5.725-5.6134-9.6547v-93.408c0-4.0413 2.1332-7.6338 5.6134-9.6547l80.833-46.704a11.156 11.156 0 0 1 11.227 0l80.833 46.704c3.481 2.0209 5.6135 5.7256 5.6135 9.6547v93.408c-0.1122 3.929-2.2454 7.6337-5.6135 9.6547z" fill="#8d6748"/>
  <path d="m128 37.737c-1.6837 0-3.368 0.4488-4.8273 1.347l-69.831 40.304c-3.0315 1.6844-4.8274 4.9396-4.8274 8.307v80.609c0 3.4803 1.7959 6.624 4.8274 8.3084l69.831 40.304c1.4593 0.8983 3.1429 1.3471 4.8273 1.3471 1.683 0 3.3681-0.4488 4.8274-1.3471l69.831-40.305c3.0315-1.6836 4.8274-4.9395 4.8274-8.3069v-80.61c0-3.4796-1.7959-6.6226-4.8274-8.307l-69.831-40.305c-1.46-0.89751-3.1437-1.3463-4.8274-1.3463zm0 3.368c1.122 0 2.1332 0.3366 3.143 0.8983l69.831 40.304c1.9088 1.122 3.143 3.2559 3.143 5.5013v80.608c0 2.2454-1.2342 4.3779-3.143 5.5006l-69.83 40.304c-1.0105 0.56099-2.021 0.8983-3.1437 0.8983a6.0335 6.0335 0 0 1-3.1437-0.89902l-69.831-40.303c-1.9088-1.1227-3.1437-3.2552-3.1437-5.5006v-80.609c0-2.2454 1.2349-4.3786 3.1429-5.502l69.831-40.303c1.0105-0.56171 2.1332-0.89902 3.143-0.89902zm-6.4557 70.28h9.4304c0.33731 0 0.5617-0.11291 0.7861-0.33731 5.6134-6.2866 6.1751-19.422 6.1751-23.351 0-0.561-0.44951-1.1227-1.1227-1.1227h-21.107c-0.561 0-1.1227 0.4488-1.1227 1.1227 0 3.8168 0.5617 16.953 6.1751 23.351 0.2244 0.2244 0.4488 0.33731 0.7854 0.33731zm-2.582-21.331h14.819c0.56099 0 1.1227 0.44872 1.1227 1.1226 0 3.1437-0.56171 12.012-4.3785 16.615-0.3366 0.22511-0.56099 0.33731-0.8983 0.33731h-6.6233c-0.33731 0-0.56171-0.1122-0.78611-0.33731-3.8176-4.49-4.2664-13.472-4.3786-16.615 0-0.56092 0.4488-1.1226 1.1227-1.1226zm9.4304-5.725s4.042-2.3583 1.5715-6.624c-1.4593-2.2461-2.1325-4.1542-1.5715-4.9402-1.4593 1.7965-3.9291 3.7046-1.2349 7.7466 0.89901 1.0105 1.3471 3.143 1.2349 3.8169zm-4.4908 0.33588s2.6942-1.5715 1.0105-4.4908c-1.0105-1.4593-1.4593-2.8064-1.0105-3.2559-1.0105 1.2349-2.582 2.4698-0.78611 5.2769 0.56171 0.56099 0.78611 2.021 0.78611 2.4698zm-0.3366 22.117h5.6135c0.2244 0 0.4488-0.11219 0.67319-0.33659 1.9088-2.2454 2.8071-5.7257 3.2558-8.7572 0 0-0.11212 1.0105-2.8063 2.021-3.704 1.3471-10.217 0.4488-10.217 0.4488 0.56099 2.3576 1.46 4.603 2.8064 6.2874 0.1122 0.2244 0.4495 0.33659 0.6739 0.33659zm-42.213 31.547v-22.453h-4.1534l-6.8484 10.553-6.8483-10.553h-4.1542v22.565h3.9291v-16.054l6.9605 10.441h0.1122l7.0735-10.553v16.054zm25.149-22.004c-1.46-0.56099-3.0315-0.8983-4.7152-0.8983-1.6844 0-3.2558 0.2244-4.7158 0.89902-1.46 0.56099-2.6942 1.4586-3.7047 2.4691a11.283 11.283 0 0 0-2.4698 3.7047c-0.561 1.46-0.89902 2.9185-0.89902 4.4907v0.11219c0 1.5715 0.33802 3.1437 0.89902 4.4908 0.561 1.46 1.3471 2.6942 2.3576 3.7047s2.2454 1.9088 3.704 2.4698c1.46 0.56171 3.0321 0.89902 4.7158 0.89902 1.6844 0 3.2559-0.22511 4.7159-0.89902 1.4593-0.56099 2.6942-1.4593 3.704-2.4698a11.283 11.283 0 0 0 2.4705-3.704c0.561-1.46 0.89831-2.92 0.89831-4.4915v-0.11219c0-1.5722-0.33802-3.1429-0.89902-4.4907-0.56099-1.4593-1.3464-2.6942-2.3569-3.704-1.0105-1.0112-2.2454-1.9095-3.7047-2.4705zm2.6942 10.89c0 1.0105-0.2244 2.021-0.56171 3.0315-0.44879 0.89758-0.89759 1.7959-1.5715 2.4698a8.983 8.983 0 0 1-2.3576 1.6837c-0.89902 0.4495-1.9088 0.6739-3.0315 0.6739-1.0098 0-2.1324-0.2244-3.0307-0.6739a8.983 8.983 0 0 1-2.3576-1.683c-0.67391-0.78682-1.2349-1.5729-1.5722-2.582-0.3366-1.0112-0.56099-2.021-0.56099-3.1444v-0.1122c0-1.0105 0.2244-2.021 0.56099-3.0314 0.44951-0.89831 0.8983-1.7959 1.5722-2.4698a8.9852 8.9852 0 0 1 2.3576-1.6844c0.8983-0.4488 1.908-0.6732 3.0307-0.6732 1.122 0 2.1332 0.2244 3.0315 0.6732a8.9852 8.9852 0 0 1 2.3576 1.6844c0.67391 0.7861 1.2349 1.5715 1.5715 2.5819 0.33731 1.0105 0.561 2.021 0.561 3.1437v0.1122zm16.615-3.368c0.44879-0.89831 0.8983-1.7966 1.5715-2.4698a9.0089 9.0089 0 0 1 2.3576-1.6844c0.8983-0.4488 1.7966-0.67319 2.9193-0.67319 1.347 0 2.4697 0.22439 3.4802 0.78539 1.0105 0.56171 1.9088 1.2356 2.8064 2.021l2.5827-2.9186c-0.56171-0.561-1.1227-1.0105-1.6844-1.46-0.56099-0.4488-1.2349-0.7854-1.9081-1.122-0.78611-0.22511-1.46-0.44951-2.3583-0.67391-0.89759-0.1122-1.7959-0.2244-2.8063-0.2244-1.7966 0-3.2559 0.3366-4.7152 0.89759-1.4593 0.56171-2.6942 1.46-3.7047 2.4705a12.955 12.955 0 0 0-2.3576 3.7047 11.859 11.859 0 0 0-0.8983 4.4907v0.1122c0 1.5715 0.3366 3.0308 0.8983 4.4908 0.561 1.46 1.3471 2.6942 2.3576 3.7047 1.0105 1.0105 2.2454 1.9088 3.5925 2.4698a11.433 11.433 0 0 0 4.4908 0.89902c1.0105 0 2.0202 0 3.0307-0.22511 0.78611-0.1122 1.6844-0.44951 2.3576-0.78611 0.6739-0.33659 1.3478-0.6739 2.021-1.2349 0.67391-0.56099 1.2349-1.0105 1.7966-1.6844l-2.582-2.582c-1.0105 0.89902-2.021 1.5722-2.9193 2.1332-0.8983 0.56171-2.1332 0.7861-3.4802 0.7861-1.0105 0-2.021-0.33731-2.9193-0.6739-0.8976-0.3366-1.6837-1.0105-2.3576-1.683-0.67319-0.78681-1.2349-1.5729-1.5715-2.5834-0.3366-1.0098-0.56171-2.0203-0.56171-3.143v-0.1122c0-1.0105 0.22511-2.021 0.56171-3.0314zm23.689-7.9704v22.453h3.929v-9.4304h10.778v9.4304h3.929v-22.454h-3.929v9.3189h-10.778v-9.3189h-3.929zm43.111 17.065 2.2454 5.3891h4.1535l-9.8792-22.566h-3.5932l-9.8791 22.565h4.042l2.3569-5.3891h10.554zm-5.2769-12.462 3.8169 8.9815h-7.6337zm-130.79 26.157h143.14v-1.2349h-143.14zm82.293-43.448c0 0.4488-0.11291 0.78611-0.11291 1.2356h60.962v-1.2356h-60.849zm-25.036 0h-57.257v1.2356h57.369c0-0.4488-0.11291-0.78611-0.11291-1.2356z" fill="#fff"/>
 </g>
</svg>
