<?xml version="1.0" encoding="UTF-8" standalone="no"?>
<svg
   width="256"
   height="256"
   fill="none"
   viewBox="0 0 256 256"
   version="1.1"
   id="svg8"
   sodipodi:docname="Mocha-Dark.svg"
   inkscape:version="1.2.2 (1:1.2.2+202212051552+b0a8486541)"
   xmlns:inkscape="http://www.inkscape.org/namespaces/inkscape"
   xmlns:sodipodi="http://sodipodi.sourceforge.net/DTD/sodipodi-0.dtd"
   xmlns="http://www.w3.org/2000/svg"
   xmlns:svg="http://www.w3.org/2000/svg">
  <defs
     id="defs12" />
  <sodipodi:namedview
     id="namedview10"
     pagecolor="#ffffff"
     bordercolor="#000000"
     borderopacity="0.25"
     inkscape:showpageshadow="2"
     inkscape:pageopacity="0.0"
     inkscape:pagecheckerboard="0"
     inkscape:deskcolor="#d1d1d1"
     showgrid="false"
     inkscape:zoom="1.9077568"
     inkscape:cx="128.42308"
     inkscape:cy="128.42308"
     inkscape:window-width="1366"
     inkscape:window-height="716"
     inkscape:window-x="0"
     inkscape:window-y="26"
     inkscape:window-maximized="1"
     inkscape:current-layer="svg8" />
  <rect
     width="256"
     height="256"
     fill="#242938"
     rx="60"
     id="rect2" />
  <g
     id="g5895"
     transform="matrix(1.0335314,0,0,1.0335314,-4.2920192,-4.2920202)">
    <path
       d="m 214.44618,184.35852 -80.83271,46.70377 a 11.155766,11.155766 0 0 1 -11.22694,0 L 41.55374,184.35852 c -3.480225,-2.021 -5.61343,-5.72498 -5.61343,-9.65473 V 81.29625 c 0,-4.041298 2.133205,-7.633802 5.61343,-9.654729 l 80.83279,-46.703809 a 11.155766,11.155766 0 0 1 11.22694,0 l 80.83271,46.703809 c 3.48101,2.020927 5.61351,5.725629 5.61351,9.654729 v 93.40754 c -0.1122,3.92903 -2.24541,7.63373 -5.61351,9.65473 z"
       fill="#8d6748"
       id="path137"
       style="display:inline;stroke-width:0.719216" />
    <path
       d="m 127.99996,37.736557 c -1.6837,0 -3.36803,0.448795 -4.82732,1.34702 L 53.341754,79.387773 c -3.031509,1.684409 -4.827404,4.939603 -4.827404,8.306995 v 80.609022 c 0,3.48031 1.795895,6.62401 4.827404,8.30842 l 69.830886,40.30413 c 1.45929,0.8983 3.14291,1.3471 4.82732,1.3471 1.68298,0 3.36811,-0.4488 4.8274,-1.3471 l 69.83089,-40.30492 c 3.0315,-1.68362 4.8274,-4.93952 4.8274,-8.30692 V 87.694768 c 0,-3.479591 -1.7959,-6.622586 -4.8274,-8.306995 L 132.82736,39.082864 c -1.46001,-0.897512 -3.1437,-1.346307 -4.8274,-1.346307 z m 0,3.368026 c 1.12199,0 2.1332,0.336597 3.14299,0.898304 l 69.83089,40.304195 c 1.9088,1.12199 3.14299,3.255907 3.14299,5.501311 V 168.4167 c 0,2.24541 -1.23419,4.3779 -3.14299,5.5006 l -69.83017,40.30414 c -1.01051,0.56099 -2.02101,0.8983 -3.14371,0.8983 a 6.0335066,6.0335066 0 0 1 -3.14371,-0.89902 l -69.8308,-40.30271 c -1.908807,-1.1227 -3.143707,-3.25519 -3.143707,-5.50059 V 87.808393 c 0,-2.245404 1.2349,-4.378609 3.142915,-5.502023 L 124.85554,42.002887 c 1.0105,-0.561707 2.1332,-0.899017 3.14299,-0.899017 z m -6.45567,70.279677 h 9.43041 c 0.33731,0 0.5617,-0.11291 0.7861,-0.33731 5.61343,-6.28663 6.17514,-19.422448 6.17514,-23.351469 0,-0.560995 -0.44951,-1.122702 -1.1227,-1.122702 h -21.10678 c -0.561,0 -1.1227,0.448796 -1.1227,1.122702 0,3.816822 0.5617,16.952649 6.17513,23.351469 0.2244,0.2244 0.4488,0.33731 0.7854,0.33731 z m -2.582,-21.331176 h 14.81944 c 0.56099,0 1.1227,0.448716 1.1227,1.122622 0,3.143708 -0.56171,12.012404 -4.37853,16.615334 -0.3366,0.22511 -0.56099,0.33731 -0.8983,0.33731 h -6.6233 c -0.33731,0 -0.56171,-0.1122 -0.78611,-0.33731 -3.81761,-4.49001 -4.26641,-13.471626 -4.37861,-16.615334 0,-0.560915 0.4488,-1.122622 1.12271,-1.122622 z m 9.43041,-5.724996 c 0,0 4.04201,-2.358315 1.57149,-6.624012 -1.4593,-2.246116 -2.13249,-4.15421 -1.57149,-4.940236 -1.4593,1.796529 -3.9291,3.704623 -1.2349,7.746634 0.89901,1.010503 1.34709,3.142995 1.2349,3.816902 z m -4.49081,0.335884 c 0,0 2.6942,-1.571497 1.0105,-4.490807 -1.0105,-1.459298 -1.4593,-2.806398 -1.0105,-3.255906 -1.0105,1.2349 -2.582,2.469801 -0.78611,5.276912 0.56171,0.560994 0.78611,2.021006 0.78611,2.469801 z m -0.3366,22.117358 h 5.61351 c 0.2244,0 0.4488,-0.11219 0.67319,-0.33659 1.90881,-2.24541 2.80712,-5.72571 3.25583,-8.757221 0,0 -0.11212,1.010503 -2.80632,2.021006 -3.70399,1.347095 -10.21651,0.448795 -10.21651,0.448795 0.56099,2.3576 1.46001,4.603 2.8064,6.28742 0.1122,0.2244 0.4495,0.33659 0.6739,0.33659 z m -42.213001,31.54698 v -22.45324 h -4.153418 l -6.84841,10.55303 -6.848331,-10.55303 h -4.15421 v 22.56545 h 3.9291 v -16.05435 l 6.960529,10.44084 h 0.112199 l 7.07352,-10.55304 v 16.05434 z m 25.148871,-22.00445 c -1.46001,-0.56099 -3.03151,-0.8983 -4.71521,-0.8983 -1.68441,0 -3.255824,0.2244 -4.715835,0.89902 -1.460011,0.56099 -2.6942,1.45858 -3.704702,2.46909 a 11.283067,11.283067 0 0 0 -2.469802,3.7047 c -0.560995,1.46001 -0.899017,2.91852 -0.899017,4.49073 v 0.11219 c 0,1.5715 0.338022,3.14371 0.899017,4.49081 0.560995,1.46001 1.3471,2.6942 2.357603,3.7047 1.010503,1.0105 2.245403,1.90881 3.703989,2.4698 1.460011,0.56171 3.032142,0.89902 4.715837,0.89902 1.68441,0 3.25591,-0.22511 4.71592,-0.89902 1.4593,-0.56099 2.6942,-1.4593 3.70399,-2.4698 a 11.283067,11.283067 0 0 0 2.47051,-3.70399 c 0.561,-1.46001 0.89831,-2.92002 0.89831,-4.49152 v -0.11219 c 0,-1.57221 -0.33802,-3.14292 -0.89902,-4.49073 -0.56099,-1.4593 -1.34639,-2.6942 -2.35689,-3.70399 -1.0105,-1.01122 -2.2454,-1.90952 -3.7047,-2.47052 z m 2.6942,10.88963 c 0,1.01051 -0.2244,2.02101 -0.56171,3.03152 -0.44879,0.89758 -0.89759,1.79589 -1.5715,2.4698 a 8.9830129,8.9830129 0 0 1 -2.3576,1.6837 c -0.89902,0.4495 -1.90881,0.6739 -3.03151,0.6739 -1.00979,0 -2.132411,-0.2244 -3.030715,-0.6739 a 8.9830129,8.9830129 0 0 1 -2.357603,-1.68299 c -0.673906,-0.78682 -1.2349,-1.57292 -1.57221,-2.582 -0.336597,-1.01121 -0.560994,-2.021 -0.560994,-3.14442 v -0.1122 c 0,-1.01051 0.224397,-2.02101 0.560994,-3.03143 0.449508,-0.89831 0.898304,-1.7959 1.57221,-2.4698 a 8.9851706,8.9851706 0 0 1 2.357603,-1.68441 c 0.898304,-0.4488 1.908015,-0.6732 3.030715,-0.6732 1.12199,0 2.13321,0.2244 3.03151,0.6732 a 8.9851706,8.9851706 0 0 1 2.3576,1.68441 c 0.67391,0.7861 1.2349,1.57149 1.5715,2.58192 0.33731,1.0105 0.561,2.021 0.561,3.1437 v 0.1122 z m 16.61534,-3.36802 c 0.44879,-0.89831 0.8983,-1.79661 1.57149,-2.46981 a 9.0089042,9.0089042 0 0 1 2.35761,-1.68441 c 0.8983,-0.4488 1.7966,-0.67319 2.91931,-0.67319 1.34702,0 2.46972,0.22439 3.48022,0.78539 1.0105,0.56171 1.90881,1.23561 2.8064,2.021 l 2.58271,-2.91859 c -0.56171,-0.561 -1.1227,-1.01051 -1.68441,-1.46001 -0.56099,-0.4488 -1.2349,-0.7854 -1.90809,-1.12199 -0.78611,-0.22511 -1.46001,-0.44951 -2.35832,-0.67391 -0.89759,-0.1122 -1.79589,-0.2244 -2.80632,-0.2244 -1.7966,0 -3.2559,0.3366 -4.7152,0.89759 -1.4593,0.56171 -2.6942,1.46001 -3.7047,2.47052 a 12.955246,12.955246 0 0 0 -2.35761,3.7047 11.859159,11.859159 0 0 0 -0.8983,4.49073 v 0.1122 c 0,1.5715 0.3366,3.0308 0.8983,4.49081 0.561,1.46001 1.3471,2.6942 2.35761,3.7047 1.0105,1.0105 2.2454,1.90881 3.5925,2.4698 a 11.433383,11.433383 0 0 0 4.49081,0.89902 c 1.0105,0 2.02021,0 3.03071,-0.22511 0.78611,-0.1122 1.68441,-0.44951 2.35761,-0.78611 0.6739,-0.33659 1.34781,-0.6739 2.021,-1.2349 0.67391,-0.56099 1.2349,-1.0105 1.79661,-1.68441 l -2.582,-2.582 c -1.0105,0.89902 -2.02101,1.57221 -2.91931,2.13321 -0.8983,0.56171 -2.1332,0.7861 -3.48022,0.7861 -1.01051,0 -2.02101,-0.33731 -2.91931,-0.6739 -0.8976,-0.3366 -1.6837,-1.01051 -2.35761,-1.68299 -0.67319,-0.78681 -1.2349,-1.57292 -1.57149,-2.58342 -0.3366,-1.00979 -0.56171,-2.0203 -0.56171,-3.143 v -0.1122 c 0,-1.0105 0.22511,-2.02101 0.56171,-3.03142 z m 23.68885,-7.9704 v 22.45324 h 3.92902 v -9.43041 h 10.77823 v 9.43041 h 3.92902 v -22.45395 h -3.92902 v 9.31891 h -10.77823 v -9.31891 h -3.92902 z m 43.11052,17.06484 2.2454,5.38911 h 4.1535 l -9.87921,-22.56616 h -3.59321 l -9.87913,22.56545 h 4.04201 l 2.35689,-5.38911 h 10.55375 z m -5.27691,-12.46184 3.8169,8.98154 h -7.63373 z M 56.541521,146.63523 H 199.68288 v -1.2349 H 56.541521 Z M 138.83424,103.1874 c 0,0.4488 -0.11291,0.78611 -0.11291,1.23562 h 60.96155 v -1.23562 h -60.84935 z m -25.03588,0 H 56.541521 v 1.23562 h 57.369039 c 0,-0.4488 -0.11291,-0.78611 -0.11291,-1.23562 z"
       fill="#ffffff"
       id="path139"
       style="display:inline;stroke-width:0.719216" />
  </g>
</svg>
