<svg width="335" height="331" viewBox="0 0 335 331" fill="none" xmlns="http://www.w3.org/2000/svg">
<rect x="11" y="30" width="312" height="271" rx="60" fill="#FFFCFC"/>
<path fill-rule="evenodd" clip-rule="evenodd" d="M125.969 73.1714C142.148 74.186 157.285 81.4065 168.152 93.2928C174.739 86.3339 182.865 80.975 191.896 77.6355C200.927 74.2959 210.618 73.0662 220.21 74.0425C232.042 75.0662 243.393 79.1516 253.12 85.8874C262.847 92.6232 270.606 101.772 275.617 112.412C282.08 125.698 284.835 140.448 283.595 155.137C280.642 186.408 261.864 220.249 241.235 242.983C239.208 245.161 237.136 247.338 234.976 249.429C232.306 252.278 229.035 254.511 225.394 255.972C221.753 257.432 217.831 258.084 213.907 257.88C209.983 257.676 206.152 256.623 202.686 254.793C199.22 252.964 196.204 250.404 193.85 247.295C189.517 241.485 187.659 234.23 188.672 227.083C189.685 219.936 193.49 213.465 199.272 209.056C201.697 207.139 204.385 204.7 206.721 202.828C216.439 194.755 224.35 184.773 229.951 173.517C233.992 164.869 235.809 155.369 235.241 145.861C235.137 141.375 233.866 136.991 231.55 133.131C229.234 129.271 225.951 126.066 222.017 123.823C218.588 122.161 214.855 121.198 211.041 120.992C207.753 120.764 204.455 121.281 201.399 122.503C198.343 123.726 195.611 125.623 193.41 128.048C190.125 131.429 187.588 135.448 185.96 139.851C185.462 141.277 185.049 142.731 184.726 144.206V144.728L184.329 146.427C183.465 150.1 181.418 153.397 178.495 155.823C175.572 158.248 171.931 159.671 168.12 159.877C164.309 160.083 160.533 159.062 157.359 156.966C154.186 154.871 151.786 151.814 150.521 148.256L149.948 146.95C149.639 146.209 149.375 145.469 149.066 144.685C147.382 139.073 144.563 133.858 140.779 129.354C137.619 125.854 133.435 123.411 128.806 122.365C124.178 121.319 119.335 121.722 114.949 123.518C109.032 126.071 104.309 130.738 101.725 136.584C98.8332 142.684 97.617 149.428 98.1991 156.139C99.2412 167.784 102.533 179.124 107.896 189.544C109.721 193.177 111.767 196.696 114.023 200.084C116.42 203.688 119.087 207.109 122.002 210.319C124.09 212.742 125.279 215.796 125.373 218.977C125.467 222.158 124.459 225.276 122.517 227.814C120.574 230.353 117.813 232.161 114.69 232.939C111.567 233.718 108.269 233.42 105.34 232.095C87.2879 222.174 72.7031 207.08 63.509 188.804C53.2101 170.352 49.6756 148.952 53.5031 128.222C56.6661 111.871 65.7907 97.2355 79.1471 87.089C92.5035 76.9424 109.163 71.9903 125.969 73.1714Z" fill="url(#paint0_radial_2104_9)"/>
<path fill-rule="evenodd" clip-rule="evenodd" d="M125.969 73.1714C142.148 74.186 157.285 81.4065 168.152 93.2928C174.739 86.3339 182.865 80.975 191.896 77.6355C200.927 74.2959 210.618 73.0662 220.21 74.0425C232.042 75.0662 243.393 79.1516 253.12 85.8874C262.847 92.6232 270.606 101.772 275.617 112.412C282.08 125.698 284.835 140.448 283.595 155.137C280.642 186.408 261.864 220.249 241.235 242.983C239.208 245.161 237.136 247.338 234.976 249.429C232.306 252.278 229.035 254.511 225.394 255.972C221.753 257.432 217.831 258.084 213.907 257.88C209.983 257.676 206.152 256.623 202.686 254.793C199.22 252.964 196.204 250.404 193.85 247.295C189.517 241.485 187.659 234.23 188.672 227.083C189.685 219.936 193.49 213.465 199.272 209.056C201.697 207.139 204.385 204.7 206.721 202.828C216.439 194.755 224.35 184.773 229.951 173.517C233.992 164.869 235.809 155.369 235.241 145.861C235.137 141.375 233.866 136.991 231.55 133.131C229.234 129.271 225.951 126.066 222.017 123.823C218.588 122.161 214.855 121.198 211.041 120.992C207.753 120.764 204.455 121.281 201.399 122.503C198.343 123.726 195.611 125.623 193.41 128.048C190.125 131.429 187.588 135.448 185.96 139.851C185.462 141.277 185.049 142.731 184.726 144.206V144.728L184.329 146.427C183.465 150.1 181.418 153.397 178.495 155.823C175.572 158.248 171.931 159.671 168.12 159.877C164.309 160.083 160.533 159.062 157.359 156.966C154.186 154.871 151.786 151.814 150.521 148.256L149.948 146.95C149.639 146.209 149.375 145.469 149.066 144.685C147.382 139.073 144.563 133.858 140.779 129.354C137.619 125.854 133.435 123.411 128.806 122.365C124.178 121.319 119.335 121.722 114.949 123.518C109.032 126.071 104.309 130.738 101.725 136.584C98.8332 142.684 97.617 149.428 98.1991 156.139C99.2412 167.784 102.533 179.124 107.896 189.544C109.721 193.177 111.767 196.696 114.023 200.084C116.42 203.688 119.087 207.109 122.002 210.319C124.09 212.742 125.279 215.796 125.373 218.977C125.467 222.158 124.459 225.276 122.517 227.814C120.574 230.353 117.813 232.161 114.69 232.939C111.567 233.718 108.269 233.42 105.34 232.095C87.2879 222.174 72.7031 207.08 63.509 188.804C53.2101 170.352 49.6756 148.952 53.5031 128.222C56.6661 111.871 65.7907 97.2355 79.1471 87.089C92.5035 76.9424 109.163 71.9903 125.969 73.1714Z" fill="url(#paint1_radial_2104_9)"/>
<defs>
<radialGradient id="paint0_radial_2104_9" cx="0" cy="0" r="1" gradientUnits="userSpaceOnUse" gradientTransform="translate(210.414 251.287) rotate(-125.54) scale(199.589 304.269)">
<stop stop-color="#09FFD0"/>
<stop offset="1" stop-color="#009EFF"/>
</radialGradient>
<radialGradient id="paint1_radial_2104_9" cx="0" cy="0" r="1" gradientUnits="userSpaceOnUse" gradientTransform="translate(210.414 251.287) rotate(-125.54) scale(199.589 304.269)">
<stop stop-color="#00FFCE"/>
<stop offset="1" stop-color="#56BEFF"/>
</radialGradient>
</defs>
</svg>
