<svg width="256" height="256" viewBox="0 0 256 256" fill="none" xmlns="http://www.w3.org/2000/svg">
<g clip-path="url(#clip0_10_381)">
<path d="M196 0H60C26.8629 0 0 26.8629 0 60V196C0 229.137 26.8629 256 60 256H196C229.137 256 256 229.137 256 196V60C256 26.8629 229.137 0 196 0Z" fill="#242938"/>
<path d="M76.0834 183.738H68.3663C68.0934 170.712 67.3418 158.466 66.113 146.991H66.0444L54.295 183.738H48.4195L36.7402 146.991H36.6731C35.8066 158.009 35.2609 170.258 35.0342 183.738H28C28.4534 167.345 29.5927 151.977 31.4135 137.631H40.9783L52.1103 171.51H52.1789L63.3796 137.631H72.5313C74.5355 154.434 75.7196 169.804 76.0834 183.738ZM109.551 149.72C106.409 166.771 102.264 179.16 97.1188 186.894C93.1103 192.847 88.7187 195.826 83.9363 195.826C82.6613 195.826 81.088 195.442 79.224 194.678V190.567C80.1351 190.698 81.2043 190.773 82.4331 190.773C84.667 190.773 86.4624 190.158 87.8314 188.926C89.4687 187.426 90.2874 185.74 90.2874 183.874C90.2874 182.595 89.6492 179.979 88.3757 176.018L79.9069 149.719H87.4884L93.5667 169.388C94.9326 173.854 95.5023 176.973 95.2741 178.749C98.5981 169.871 100.92 160.192 102.243 149.717H109.551V149.72Z" fill="white"/>
<path d="M212.275 183.738H190.354V137.631H197.728V178.063H212.275V183.738ZM184.615 184.852L176.139 180.669C176.891 180.052 177.61 179.384 178.257 178.61C181.86 174.378 183.657 168.119 183.657 159.829C183.657 144.575 177.671 136.945 165.695 136.945C159.822 136.945 155.241 138.88 151.965 142.753C148.365 146.988 146.568 153.225 146.568 161.47C146.568 169.575 148.161 175.52 151.348 179.291C154.263 182.708 158.658 184.418 164.535 184.418C166.727 184.418 168.738 184.15 170.571 183.609L181.606 190.033L184.615 184.852ZM157.157 174.512C155.29 171.509 154.357 166.686 154.357 160.037C154.357 148.427 157.884 142.616 164.945 142.616C168.635 142.616 171.341 144.006 173.07 146.78C174.934 149.787 175.872 154.567 175.872 161.124C175.872 172.828 172.343 178.682 165.286 178.682C161.594 178.683 158.889 177.298 157.157 174.512ZM143.354 170.958C143.354 174.868 141.92 178.076 139.054 180.589C136.185 183.091 132.337 184.345 127.516 184.345C123.007 184.345 118.634 182.905 114.402 180.039L116.384 176.079C120.026 177.903 123.323 178.81 126.283 178.81C129.061 178.81 131.232 178.194 132.807 176.973C134.38 175.747 135.318 174.027 135.318 171.853C135.318 169.114 133.408 166.773 129.904 164.812C126.672 163.037 120.209 159.327 120.209 159.327C116.706 156.774 114.952 154.033 114.952 149.517C114.952 145.78 116.26 142.764 118.877 140.469C121.497 138.165 124.878 137.016 129.022 137.016C133.302 137.016 137.193 138.163 140.697 140.433L138.92 144.394C135.922 143.12 132.964 142.483 130.045 142.483C127.682 142.483 125.856 143.051 124.587 144.192C123.308 145.329 122.519 146.783 122.519 148.566C122.519 151.292 124.469 153.663 128.069 155.663C131.344 157.44 137.968 161.215 137.968 161.215C141.561 163.763 143.354 166.479 143.354 170.958Z" fill="#F29111"/>
<path d="M221.533 122.188C217.074 122.074 213.622 122.523 210.724 123.749C209.887 124.083 208.557 124.083 208.441 125.14C208.893 125.588 208.945 126.309 209.337 126.927C210.005 128.041 211.17 129.539 212.233 130.321C213.401 131.215 214.573 132.101 215.802 132.881C217.968 134.222 220.425 135.002 222.536 136.338C223.766 137.115 224.989 138.12 226.221 138.956C226.826 139.402 227.214 140.126 228 140.404V140.234C227.606 139.733 227.494 139.009 227.108 138.451L225.435 136.837C223.819 134.666 221.81 132.771 219.643 131.214C217.86 129.985 213.959 128.315 213.235 126.26L213.122 126.147C214.348 126.032 215.802 125.588 216.966 125.246C218.862 124.746 220.59 124.86 222.535 124.36C223.429 124.137 224.317 123.856 225.214 123.58V123.078C224.206 122.074 223.488 120.741 222.427 119.793C219.591 117.343 216.465 114.946 213.235 112.94C211.505 111.823 209.281 111.105 207.439 110.155C206.775 109.819 205.657 109.654 205.266 109.096C204.267 107.87 203.705 106.257 202.98 104.806C201.37 101.744 199.805 98.3471 198.415 95.1097C197.41 92.9384 196.799 90.7702 195.573 88.7615C189.832 79.2921 183.597 73.5569 174.014 67.9274C171.955 66.7553 169.505 66.2558 166.888 65.6414L162.708 65.4207C161.816 65.03 160.923 63.9697 160.144 63.4687C156.965 61.4644 148.78 57.1205 146.441 62.8558C144.935 66.4809 148.669 70.045 149.952 71.8837C150.899 73.1602 152.126 74.6126 152.788 76.0621C153.18 77.0091 153.291 78.0142 153.683 79.0148C154.575 81.4664 155.408 84.1938 156.58 86.4814C157.192 87.6475 157.858 88.8733 158.64 89.9291C159.087 90.5465 159.865 90.8194 160.035 91.826C159.259 92.9355 159.197 94.6101 158.752 96.0029C156.747 102.297 157.53 110.095 160.371 114.721C161.26 116.114 163.38 119.18 166.217 118.005C168.728 117.002 168.172 113.828 168.893 111.044C169.059 110.371 168.95 109.93 169.284 109.488V109.597C170.061 111.155 170.845 112.657 171.566 114.22C173.294 116.947 176.303 119.79 178.81 121.679C180.145 122.687 181.202 124.411 182.874 125.027V124.86H182.763C182.425 124.36 181.93 124.137 181.485 123.749C180.48 122.745 179.368 121.519 178.588 120.407C176.253 117.286 174.186 113.831 172.352 110.265C171.454 108.535 170.68 106.644 169.957 104.918C169.62 104.251 169.62 103.246 169.06 102.91C168.222 104.135 167.001 105.195 166.39 106.695C165.329 109.094 165.219 112.046 164.825 115.115L164.606 115.222C162.832 114.776 162.214 112.94 161.54 111.382C159.871 107.424 159.591 101.072 161.039 96.5055C161.427 95.3378 163.104 91.6604 162.435 90.548C162.099 89.4818 160.984 88.8748 160.372 88.0353C159.654 86.9795 158.866 85.6433 158.365 84.4712C157.029 81.353 156.357 77.8978 154.918 74.7812C154.245 73.3287 153.077 71.8255 152.132 70.4879C151.07 68.9847 149.903 67.926 149.063 66.1439C148.786 65.531 148.396 64.5289 148.842 63.8623C148.951 63.415 149.178 63.2479 149.622 63.1361C150.344 62.5262 152.406 63.3016 153.13 63.6372C155.195 64.4723 156.922 65.2522 158.646 66.4213C159.426 66.9805 160.262 68.0393 161.263 68.3181H162.435C164.214 68.7059 166.22 68.4255 167.894 68.9296C170.845 69.878 173.519 71.2693 175.917 72.771C183.214 77.3983 189.231 83.9731 193.293 91.826C193.96 93.1055 194.243 94.2776 194.851 95.6122C196.025 98.3442 197.476 101.13 198.641 103.804C199.811 106.421 200.927 109.093 202.598 111.267C203.432 112.436 206.781 113.049 208.283 113.662C209.394 114.162 211.124 114.606 212.126 115.219C214.021 116.387 215.909 117.727 217.691 119.011C218.578 119.679 221.367 121.072 221.533 122.188ZM164.708 73.7761C163.938 73.7681 163.172 73.8624 162.427 74.0564V74.1683H162.535C162.984 75.0585 163.764 75.6759 164.32 76.4528C164.769 77.3461 165.158 78.2319 165.598 79.1236L165.705 79.0133C166.491 78.4571 166.882 77.5653 166.882 76.2277C166.543 75.834 166.491 75.4492 166.209 75.0585C165.881 74.5008 165.158 74.2234 164.708 73.7761Z" fill="white"/>
<path d="M226.838 183.731H227.993V178.082H226.261L224.849 181.937L223.315 178.082H221.647V183.731H222.737V179.433H222.799L224.406 183.731H225.237L226.838 179.433V183.731ZM217.54 183.731H218.762V179.039H220.36V178.081H215.875V179.039H217.537L217.54 183.731Z" fill="#F29111"/>
</g>
<defs>
<clipPath id="clip0_10_381">
<rect width="256" height="256" fill="white"/>
</clipPath>
</defs>
</svg>
