<svg width="256" height="256" viewBox="0 0 256 256" fill="none" xmlns="http://www.w3.org/2000/svg">
<g clip-path="url(#clip0_139_5285)">
<path d="M196 0H60C26.8629 0 0 26.8629 0 60V196C0 229.137 26.8629 256 60 256H196C229.137 256 256 229.137 256 196V60C256 26.8629 229.137 0 196 0Z" fill="#242938"/>
<path d="M76.8439 183.447H69.1658C68.8958 170.452 68.1473 158.233 66.9239 146.787H66.8563L55.1658 183.447H49.3197L37.7001 146.787H37.6316C36.7694 157.779 36.227 169.999 36.0008 183.447H29C29.4524 167.092 30.5846 151.76 32.3966 137.449H41.9133L52.9907 171.247H53.0587L64.2041 137.449H73.31C75.3039 154.21 76.4813 169.546 76.843 183.447" fill="white"/>
<path d="M110.15 149.51C107.024 166.52 102.899 178.882 97.7802 186.593C93.7915 192.535 89.422 195.506 84.6639 195.506C83.3955 195.506 81.8314 195.123 79.9753 194.362V190.262C80.8821 190.395 81.946 190.466 83.1697 190.466C85.3894 190.466 87.1783 189.851 88.5393 188.623C90.1692 187.127 90.9848 185.445 90.9848 183.582C90.9848 182.309 90.3486 179.698 89.082 175.747L80.6554 149.51H88.1984L94.2463 169.133C95.6049 173.588 96.1716 176.698 95.945 178.471C99.2527 169.613 101.564 159.959 102.878 149.51H110.15" fill="white"/>
<path d="M143.785 170.697C143.785 174.598 142.355 177.8 139.506 180.306C136.654 182.801 132.823 184.051 128.025 184.051C123.538 184.051 119.189 182.612 114.976 179.756L116.947 175.805C120.572 177.622 123.853 178.529 126.798 178.529C129.561 178.529 131.724 177.913 133.288 176.695C134.849 175.468 135.785 173.757 135.785 171.586C135.785 168.855 133.885 166.521 130.4 164.562C127.182 162.792 120.751 159.095 120.751 159.095C117.267 156.547 115.52 153.812 115.52 149.307C115.52 145.581 116.823 142.569 119.425 140.278C122.033 137.982 125.397 136.834 129.517 136.834C133.776 136.834 137.649 137.973 141.137 140.244L139.365 144.192C136.38 142.923 133.437 142.286 130.536 142.286C128.182 142.286 126.367 142.853 125.102 143.993C123.83 145.123 123.044 146.578 123.044 148.351C123.044 151.075 124.985 153.438 128.569 155.435C131.827 157.206 138.415 160.974 138.415 160.974C141.999 163.518 143.785 166.23 143.785 170.697Z" fill="#F29111"/>
<path fill-rule="evenodd" clip-rule="evenodd" d="M157.511 174.245C155.653 171.247 154.722 166.435 154.722 159.801C154.722 148.218 158.235 142.423 165.256 142.423C168.928 142.423 171.622 143.809 173.345 146.578C175.201 149.578 176.132 154.348 176.132 160.89C176.132 172.565 172.619 178.405 165.597 178.405C161.927 178.405 159.232 177.02 157.511 174.245M184.831 184.556L176.398 180.387C177.149 179.769 177.862 179.103 178.508 178.332C182.088 174.112 183.88 167.866 183.88 159.597C183.88 144.379 177.921 136.766 166.006 136.766C160.161 136.766 155.607 138.696 152.345 142.561C148.764 146.786 146.975 153.009 146.975 161.231C146.975 169.317 148.56 175.248 151.732 179.016C154.621 182.422 158.991 184.127 164.842 184.127C167.025 184.127 169.027 183.857 170.848 183.318L181.828 189.726L184.822 184.556" fill="#F29111"/>
<path d="M212.356 183.447H190.543V137.449H197.883V177.788H212.356V183.446" fill="#F29111"/>
<path fill-rule="evenodd" clip-rule="evenodd" d="M221.57 122.041C217.134 121.93 213.698 122.374 210.817 123.598C209.985 123.931 208.657 123.931 208.543 124.987C208.989 125.431 209.043 126.153 209.434 126.767C210.097 127.878 211.259 129.376 212.314 130.157C213.478 131.046 214.642 131.932 215.863 132.71C218.023 134.05 220.463 134.824 222.566 136.159C223.79 136.936 225.005 137.935 226.228 138.771C226.836 139.216 227.221 139.939 228 140.214V140.046C227.609 139.547 227.5 138.825 227.114 138.266C226.561 137.714 226.006 137.211 225.45 136.658C223.842 134.49 221.844 132.603 219.687 131.046C217.912 129.82 214.03 128.153 213.312 126.103C213.312 126.103 213.254 126.044 213.2 125.989C214.419 125.876 215.863 125.431 217.026 125.094C218.908 124.595 220.626 124.708 222.566 124.209C223.455 123.985 224.342 123.705 225.232 123.432V122.928C224.229 121.93 223.511 120.594 222.459 119.65C219.634 117.206 216.526 114.818 213.312 112.814C211.591 111.702 209.374 110.983 207.545 110.036C206.883 109.702 205.775 109.537 205.386 108.978C204.387 107.756 203.831 106.147 203.112 104.699C201.506 101.646 199.951 98.2569 198.567 95.0282C197.57 92.8623 196.96 90.6963 195.741 88.6942C190.029 79.2444 183.823 73.5231 174.289 67.9088C172.238 66.7403 169.799 66.2404 167.196 65.6289C165.808 65.5707 164.424 65.4626 163.038 65.408C162.15 65.0173 161.262 63.9605 160.487 63.4605C157.326 61.4608 149.182 57.1266 146.852 62.8502C145.355 66.4648 149.069 70.0201 150.345 71.8548C151.286 73.1313 152.507 74.5788 153.169 76.0216C153.558 76.9668 153.669 77.969 154.059 78.9677C154.945 81.4127 155.775 84.1367 156.941 86.4167C157.549 87.584 158.213 88.8082 158.989 89.8592C159.437 90.4743 160.21 90.7486 160.377 91.752C159.604 92.8623 159.543 94.5295 159.1 95.92C157.106 102.201 157.88 109.981 160.709 114.593C161.593 115.982 163.703 119.04 166.529 117.87C169.024 116.871 168.469 113.703 169.189 110.926C169.355 110.254 169.244 109.814 169.576 109.37V109.482C170.351 111.036 171.129 112.533 171.849 114.094C173.57 116.815 176.561 119.65 179.057 121.538C180.384 122.542 181.438 124.262 183.1 124.875V124.707H182.991C182.657 124.209 182.16 123.985 181.716 123.597C180.719 122.596 179.613 121.373 178.833 120.262C176.506 117.151 174.453 113.703 172.627 110.147C171.738 108.42 170.964 106.532 170.242 104.81C169.911 104.146 169.911 103.143 169.355 102.811C168.521 104.032 167.305 105.089 166.696 106.585C165.642 108.978 165.532 111.923 165.141 114.981C164.921 115.039 165.032 114.981 164.921 115.092C163.149 114.647 162.54 112.814 161.873 111.262C160.21 107.311 159.93 100.976 161.374 96.4179C161.76 95.253 163.428 91.5849 162.76 90.4734C162.425 89.413 161.317 88.8074 160.709 87.9703C159.99 86.9146 159.209 85.5834 158.715 84.4138C157.384 81.3026 156.715 77.8554 155.278 74.7442C154.613 73.2967 153.446 71.7957 152.507 70.4646C151.452 68.9636 150.289 67.908 149.456 66.1315C149.182 65.5188 148.793 64.5177 149.235 63.8528C149.344 63.4075 149.569 63.24 150.013 63.1284C150.73 62.5169 152.783 63.2935 153.502 63.6271C155.554 64.4584 157.273 65.2409 158.989 66.4058C159.766 66.9627 160.597 68.0184 161.593 68.2986H162.76C164.533 68.6846 166.529 68.4067 168.193 68.909C171.129 69.853 173.789 71.2424 176.174 72.7433C183.433 77.3566 189.42 83.9162 193.464 91.7511C194.131 93.0277 194.41 94.1961 195.019 95.5273C196.183 98.2561 197.626 101.035 198.788 103.7C199.951 106.312 201.062 108.978 202.727 111.148C203.556 112.314 206.882 112.925 208.379 113.537C209.486 114.035 211.206 114.481 212.205 115.091C214.089 116.256 215.97 117.592 217.746 118.873C218.631 119.54 221.403 120.927 221.57 122.041" fill="white"/>
<path fill-rule="evenodd" clip-rule="evenodd" d="M165.031 73.7388C164.091 73.7388 163.428 73.8528 162.759 74.0179V74.1295H162.866C163.314 75.0165 164.091 75.6328 164.641 76.4094C165.087 77.2989 165.475 78.1847 165.918 79.0753C165.973 79.0207 166.026 78.9625 166.026 78.9625C166.808 78.4091 167.195 77.5209 167.195 76.185C166.86 75.7931 166.808 75.4072 166.528 75.0165C166.197 74.462 165.475 74.1841 165.031 73.7388Z" fill="white"/>
</g>
<defs>
<clipPath id="clip0_139_5285">
<rect width="256" height="256" fill="white"/>
</clipPath>
</defs>
</svg>
