<svg xmlns="http://www.w3.org/2000/svg" xmlns:xlink="http://www.w3.org/1999/xlink" width="256" zoomAndPan="magnify" viewBox="0 0 375 374.999991" height="256" preserveAspectRatio="xMidYMid meet" version="1.0">
<defs>
<clipPath id="7be46354c1">
<path d="M 75 0 L 300 0 C 341.421875 0 375 33.578125 375 75 L 375 304.027344 C 375 345.445312 341.421875 379.027344 300 379.027344 L 75 379.027344 C 33.578125 379.027344 0 345.445312 0 304.027344 L 0 75 C 0 33.578125 33.578125 0 75 0 " clip-rule="nonzero"/>
</clipPath>
<clipPath id="f0d7c81d95">
<path d="M 32.5 34.511719 L 342.25 34.511719 L 342.25 344.261719 L 32.5 344.261719 Z M 32.5 34.511719 " clip-rule="nonzero"/>
</clipPath>
</defs>
<g clip-path="url(#7be46354c1)">
<path fill="#f4f2ec" d="M 0 0 L 374.414062 0 L 374.414062 379.6875 L 0 379.6875 Z M 0 0 " fill-opacity="1" fill-rule="nonzero"/>
</g>
<g clip-path="url(#f0d7c81d95)">
<path fill="#3c5afd" d="M 319.5625 57.203125 C 334.128906 71.769531 341.691406 90.019531 342.246094 111.949219 L 342.246094 266.824219 C 341.691406 288.75 334.128906 307.003906 319.5625 321.574219 C 304.992188 336.140625 286.738281 343.703125 264.808594 344.261719 L 109.9375 344.261719 C 88.003906 343.703125 69.757812 336.140625 55.1875 321.574219 C 40.621094 307.003906 33.054688 288.75 32.5 266.828125 L 32.5 111.949219 C 33.054688 90.019531 40.621094 71.769531 55.1875 57.203125 C 69.757812 42.632812 88.003906 35.070312 109.9375 34.511719 L 264.808594 34.511719 C 286.738281 35.070312 304.992188 42.632812 319.5625 57.203125 Z M 298.199219 181.828125 C 293.332031 176.984375 290.800781 170.910156 290.601562 163.597656 L 290.601562 111.949219 C 290.445312 104.640625 287.9375 98.554688 283.074219 93.691406 C 278.210938 88.824219 272.117188 86.320312 264.808594 86.164062 L 239.023438 86.164062 L 239.023438 215.179688 L 135.726562 86.164062 L 109.9375 86.164062 C 102.625 86.316406 96.539062 88.820312 91.675781 93.691406 C 86.808594 98.554688 84.304688 104.640625 84.152344 111.949219 L 84.152344 163.597656 C 83.949219 170.910156 81.417969 176.984375 76.550781 181.828125 C 71.6875 186.664062 65.601562 189.183594 58.292969 189.386719 C 65.601562 189.589844 71.6875 192.113281 76.550781 196.949219 C 81.417969 201.789062 83.949219 207.867188 84.148438 215.175781 L 84.148438 266.824219 C 84.304688 274.128906 86.808594 280.222656 91.675781 285.085938 C 96.539062 289.949219 102.625 292.457031 109.933594 292.609375 L 135.726562 292.609375 L 135.726562 163.601562 L 239.023438 292.613281 L 264.808594 292.613281 C 272.117188 292.460938 278.210938 289.949219 283.074219 285.085938 C 287.9375 280.222656 290.445312 274.132812 290.597656 266.828125 L 290.597656 215.179688 C 290.800781 207.867188 293.332031 201.792969 298.199219 196.949219 C 303.0625 192.113281 309.148438 189.59375 316.457031 189.386719 C 309.148438 189.183594 303.0625 186.664062 298.199219 181.828125 Z M 298.199219 181.828125 " fill-opacity="1" fill-rule="nonzero"/>
</g>
</svg>