<svg xmlns="http://www.w3.org/2000/svg" xmlns:xlink="http://www.w3.org/1999/xlink" width="256" zoomAndPan="magnify" viewBox="0 0 375 374.999991" height="256" preserveAspectRatio="xMidYMid meet" version="1.0">
<defs>
<clipPath id="06e46379e9">
<path d="M 75 0 L 300 0 C 341.421875 0 375 33.578125 375 75 L 375 304.027344 C 375 345.445312 341.421875 379.027344 300 379.027344 L 75 379.027344 C 33.578125 379.027344 0 345.445312 0 304.027344 L 0 75 C 0 33.578125 33.578125 0 75 0 " clip-rule="nonzero"/>
</clipPath>
<clipPath id="d67a542508">
<path d="M 34.328125 34.328125 L 340.328125 34.328125 L 340.328125 340.328125 L 34.328125 340.328125 Z M 34.328125 34.328125 " clip-rule="nonzero"/>
</clipPath>
</defs>
<g clip-path="url(#06e46379e9)">
<path fill="#242938" d="M 0 0 L 374.414062 0 L 374.414062 379.6875 L 0 379.6875 Z M 0 0 " fill-opacity="1" fill-rule="nonzero"/>
</g>
<g clip-path="url(#d67a542508)">
<path fill="#6a81ff" d="M 317.914062 56.742188 C 332.304688 71.136719 339.777344 89.164062 340.324219 110.828125 L 340.324219 263.828125 C 339.777344 285.488281 332.308594 303.523438 317.914062 317.914062 C 303.523438 332.304688 285.488281 339.777344 263.824219 340.328125 L 110.828125 340.328125 C 89.164062 339.777344 71.136719 332.304688 56.742188 317.914062 C 42.351562 303.523438 34.878906 285.488281 34.328125 263.832031 L 34.328125 110.828125 C 34.878906 89.164062 42.351562 71.136719 56.742188 56.746094 C 71.136719 42.351562 89.164062 34.878906 110.828125 34.328125 L 263.824219 34.328125 C 285.488281 34.878906 303.523438 42.351562 317.914062 56.742188 Z M 296.8125 179.859375 C 292.003906 175.078125 289.503906 169.074219 289.304688 161.851562 L 289.304688 110.828125 C 289.152344 103.605469 286.671875 97.59375 281.867188 92.789062 C 277.0625 87.980469 271.046875 85.507812 263.824219 85.355469 L 238.351562 85.355469 L 238.351562 212.808594 L 136.308594 85.351562 L 110.828125 85.351562 C 103.605469 85.507812 97.59375 87.980469 92.789062 92.789062 C 87.980469 97.59375 85.507812 103.605469 85.355469 110.828125 L 85.355469 161.851562 C 85.15625 169.074219 82.65625 175.078125 77.847656 179.859375 C 73.042969 184.636719 67.027344 187.128906 59.808594 187.328125 C 67.027344 187.53125 73.042969 190.019531 77.84375 194.796875 C 82.65625 199.582031 85.15625 205.582031 85.351562 212.804688 L 85.351562 263.828125 C 85.507812 271.046875 87.980469 277.0625 92.789062 281.867188 C 97.59375 286.671875 103.605469 289.152344 110.828125 289.300781 L 136.308594 289.300781 L 136.308594 161.851562 L 238.351562 289.304688 L 263.824219 289.304688 C 271.046875 289.152344 277.066406 286.671875 281.867188 281.871094 C 286.671875 277.066406 289.152344 271.046875 289.304688 263.832031 L 289.304688 212.808594 C 289.503906 205.585938 292.003906 199.582031 296.8125 194.796875 C 301.617188 190.019531 307.628906 187.53125 314.851562 187.328125 C 307.628906 187.128906 301.613281 184.640625 296.8125 179.863281 Z M 296.8125 179.859375 " fill-opacity="1" fill-rule="nonzero"/>
</g>
</svg>