<svg width="256" height="256" fill="none" version="1.1" viewBox="0 0 256 256" xmlns="http://www.w3.org/2000/svg">
 <rect width="256" height="256" rx="60" fill="#242938"/>
 <g transform="matrix(.08163 0 0 .08163 117.55 117.55)" stroke-width="8.6207">
  <path d="m1124.7 12.918c0 579.21-469.47 1048.7-1048.7 1048.7-579.2 0-1048.7-469.46-1048.7-1048.7 0-579.19 469.47-1048.7 1048.7-1048.7 579.2-0.5087 1048.7 469.46 1048.7 1048.7" fill="#008cc1"/>
  <path d="m-507.71-331.05c0 46.241-37.595 83.836-83.828 83.836-46.241 0-83.836-37.586-83.836-83.836 0-46.233 37.586-83.828 83.836-83.828a83.586 83.586 0 0 1 83.828 83.828m14.224 230.16c0 46.233-37.595 83.836-83.828 83.836-46.233 0-83.836-37.603-83.836-83.836 0-46.241 37.603-83.828 83.836-83.828a83.586 83.586 0 0 1 83.828 83.828m51.319 243.88c0 46.233-37.603 83.828-83.836 83.828s-83.836-37.595-83.836-83.828c0-46.25 37.603-83.836 83.836-83.836 46.233-0.50862 83.828 37.086 83.828 83.836m114.84 218.47c0 46.233-37.612 83.836-83.845 83.836-46.233 0-83.828-37.603-83.828-83.836 0-46.241 37.595-83.828 83.828-83.828 46.233-0.51724 83.836 37.086 83.836 83.828m897.77 305.35c0 46.233-37.595 83.828-83.836 83.828-46.233 0-83.828-37.595-83.828-83.828s37.586-83.836 83.828-83.836 83.836 37.603 83.836 83.836m152.41-180.37c0 46.233-37.586 83.828-83.836 83.828-46.233 0-83.828-37.586-83.828-83.828 0-46.233 37.595-83.836 83.828-83.836 46.25 0 83.845 37.603 83.845 83.836m-442.03-1275.3c0 46.233-37.603 83.828-83.836 83.828s-83.828-37.586-83.828-83.828c0-46.233 37.595-83.828 83.828-83.828s83.836 37.586 83.836 83.828m-220.5-77.224c0 46.233-37.603 83.828-83.836 83.828s-83.828-37.586-83.828-83.828c0-46.233 37.586-83.836 83.828-83.836 46.233 0 83.836 37.603 83.836 83.836" fill="#fff"/>
  <path d="m654.75-795.93c308.66 0 558.88 250.22 558.88 558.88 0 308.66-250.22 558.88-558.88 558.88-308.66 0-558.88-250.22-558.88-558.88 0-308.66 250.22-558.88 558.88-558.88" fill="#66b245"/>
  <path d="m654.75 336.8c-316.42 0-573.85-257.43-573.85-573.84 0-316.42 257.43-573.84 573.85-573.84 316.41 0 573.84 257.41 573.84 573.84 0 316.41-257.43 573.84-573.84 573.84zm0-1117.8c-299.91 0-543.91 244.01-543.91 543.91 0 299.91 244 543.91 543.91 543.91 299.91 0 543.91-243.99 543.91-543.91 0-299.91-243.99-543.91-543.91-543.91z" fill="#fff"/>
  <path d="m-110.91 445.3c252.53 0 457.27 204.72 457.27 457.26 0 252.53-204.73 457.27-457.27 457.27-252.54 0-457.27-204.73-457.27-457.27 0-252.54 204.72-457.26 457.27-457.26" fill="#66b245"/>
  <path d="m-110.91 1374.8c-260.4 0-472.23-211.84-472.23-472.23 0-260.4 211.84-472.23 472.24-472.23 260.39 0 472.22 211.84 472.22 472.24 0 260.38-211.84 472.22-472.23 472.22zm0-914.53c-243.88 0-442.29 198.41-442.29 442.29 0 243.88 198.41 442.29 442.29 442.29s442.29-198.41 442.29-442.29c0-243.88-198.41-442.29-442.29-442.29z" fill="#fff"/>
  <path d="m-487.39-1103.8c168.36 0 304.84 136.49 304.84 304.84 0 168.36-136.48 304.84-304.84 304.84s-304.84-136.48-304.84-304.84 136.48-304.84 304.84-304.84" fill="#66b245"/>
  <path d="m-487.39-479.17c-176.34 0-319.81-143.47-319.81-319.81s143.47-319.81 319.81-319.81 319.81 143.47 319.81 319.81-143.47 319.81-319.81 319.81zm0-609.68c-159.83 0-289.87 130.03-289.87 289.87s130.03 289.88 289.87 289.88 289.88-130.04 289.88-289.88c0-159.83-130.04-289.87-289.88-289.87z" fill="#fff"/>
 </g>
</svg>
