<?xml version="1.0" encoding="utf-8"?>
<!-- Generator: Adobe Illustrator 27.0.0, SVG Export Plug-In . SVG Version: 6.00 Build 0)  -->
<svg version="1.1" id="Layer_1" xmlns="http://www.w3.org/2000/svg" xmlns:xlink="http://www.w3.org/1999/xlink" x="0px" y="0px"
	 viewBox="0 0 256 256" style="enable-background:new 0 0 256 256;" xml:space="preserve">
<style type="text/css">
	.st0{fill:#8F0000;}
	.st1{fill:#FFFFFF;}
</style>
<path class="st0" d="M256,60v136c0,5.1-0.6,10.1-1.9,14.9c-6.6,26-30.1,45.1-58.1,45.1H60c-33.1,0-60-26.9-60-60V60
	C0,26.9,26.9,0,60,0h136C229.1,0,256,26.9,256,60z"/>
<g transform="matrix(8.545 0 0 8.545 -786.19 -1949.8)">
	<path class="st1" d="M118.3,247.1h3.7v-1.6h-3.7c-1.4,0-2.5,1.1-2.5,2.4v0.6c-4.8,0-6.1-1.3-7.9-2.9c-1.5-1.3-3.2-2.7-7.1-3.2
		c0,0,0.1-0.1,0.1-0.1c0.7-0.7,1.1-1.5,1.5-2.2c0.4-0.7,0.8-1.3,1.4-1.7c0.5-0.3,1.2-0.6,2.2-0.6v0.6c0,1.4,1.1,2.5,2.5,2.5h9.9
		c1.4,0,2.5-1.2,2.5-2.5v-2.4c0-1.4-1.1-2.5-2.5-2.5h-9.9c-1.4,0-2.5,1.1-2.5,2.5v0.6c-1.3,0.1-2.3,0.4-3,0.9
		c-0.9,0.6-1.4,1.4-1.8,2.1c-0.4,0.7-0.7,1.4-1.3,1.9c-0.5,0.4-1.1,0.7-2.1,0.9v0c0-1.4-1.1-2.4-2.5-2.4H92v1.7h3.6
		c0.5,0,0.8,0.3,0.8,0.8v2.4c0,0.5-0.4,0.9-0.8,0.9H92v1.6h3.6c1.4,0,2.5-1.1,2.5-2.5v-1.1c5.6,0.1,7.3,1.5,9.1,3.1
		c1.7,1.5,3.7,3.1,8.7,3.2v0.6c0,1.4,1.1,2.5,2.5,2.5h3.5c0.1-0.6,0.2-1.1,0.2-1.7h-3.7c-0.5,0-0.8-0.3-0.8-0.8v-2.4
		C117.5,247.5,117.8,247.1,118.3,247.1z M107.7,235.9c0-0.5,0.4-0.8,0.9-0.8h9.9c0.5,0,0.8,0.3,0.8,0.8v2.4c0,0.5-0.3,0.8-0.8,0.8
		h-9.9c-0.5,0-0.9-0.3-0.9-0.8V235.9z"/>
</g>
</svg>
