
<svg xmlns="http://www.w3.org/2000/svg" xmlns:xlink="http://www.w3.org/1999/xlink" width="256" zoomAndPan="magnify" viewBox="0 0 375 374.999991" height="256" preserveAspectRatio="xMidYMid meet" version="1.0">
<defs>
<clipPath id="8ad68d5790">
<path d="M 75 0 L 300 0 C 341.421875 0 375 33.578125 375 75 L 375 304.027344 C 375 345.445312 341.421875 379.027344 300 379.027344 L 75 379.027344 C 33.578125 379.027344 0 345.445312 0 304.027344 L 0 75 C 0 33.578125 33.578125 0 75 0 " clip-rule="nonzero"/>
</clipPath>
<clipPath id="00d9c0fab2">
<path d="M 71.007812 68.398438 L 304 68.398438 L 304 310.648438 L 71.007812 310.648438 Z M 71.007812 68.398438 " clip-rule="nonzero"/>
</clipPath>
</defs>
<g clip-path="url(#8ad68d5790)">
<path fill="#242938" d="M 0 0 L 374.414062 0 L 374.414062 379.6875 L 0 379.6875 Z M 0 0 " fill-opacity="1" fill-rule="nonzero"/>
</g>
<g clip-path="url(#00d9c0fab2)">
<path fill="#ffffff" d="M 111.4375 110.871094 C 119.007812 116.980469 121.808594 116.542969 136.046875 115.582031 L 269.566406 107.5625 C 272.40625 107.5625 270.039062 104.746094 269.09375 104.269531 L 246.851562 88.253906 C 245.425781 87.042969 243.890625 85.996094 242.246094 85.105469 C 240.601562 84.21875 238.882812 83.511719 237.089844 82.988281 C 235.292969 82.460938 233.464844 82.125 231.601562 81.984375 C 229.738281 81.84375 227.878906 81.898438 226.027344 82.144531 L 96.746094 91.601562 C 92.03125 92.054688 91.066406 94.417969 92.960938 96.308594 L 111.378906 110.910156 Z M 119.445312 141.960938 L 119.445312 282.300781 C 119.445312 289.863281 123.230469 292.664062 131.710938 292.191406 L 278.464844 283.71875 C 286.964844 283.246094 287.929688 278.042969 287.929688 271.9375 L 287.929688 132.523438 C 287.929688 126.417969 285.5625 123.070312 280.359375 123.578125 L 127.015625 132.523438 C 121.335938 132.996094 119.445312 135.832031 119.445312 141.980469 Z M 264.324219 149.527344 C 265.25 153.761719 264.324219 157.996094 260.0625 158.46875 L 253.058594 159.851562 L 253.058594 263.464844 C 246.925781 266.753906 241.265625 268.628906 236.550781 268.628906 C 228.980469 268.628906 227.085938 266.28125 221.40625 259.171875 L 175.121094 186.6875 L 175.121094 256.863281 L 189.753906 260.15625 C 189.753906 260.15625 189.753906 268.628906 177.960938 268.628906 L 145.398438 270.519531 C 144.453125 268.628906 145.398438 263.9375 148.710938 262.953125 L 157.191406 260.589844 L 157.191406 167.851562 L 145.398438 166.90625 C 145.25 166.28125 145.171875 165.648438 145.160156 165.003906 C 145.148438 164.363281 145.207031 163.726562 145.335938 163.097656 C 145.464844 162.46875 145.660156 161.863281 145.921875 161.277344 C 146.183594 160.6875 146.507812 160.136719 146.890625 159.621094 C 147.269531 159.105469 147.703125 158.636719 148.191406 158.214844 C 148.675781 157.792969 149.199219 157.429688 149.765625 157.125 C 150.328125 156.816406 150.917969 156.574219 151.535156 156.394531 C 152.15625 156.21875 152.785156 156.109375 153.425781 156.070312 L 188.335938 153.722656 L 236.476562 227.25 L 236.476562 162.195312 L 224.207031 160.796875 C 224.101562 160.230469 224.054688 159.660156 224.070312 159.085938 C 224.085938 158.511719 224.160156 157.945312 224.300781 157.386719 C 224.4375 156.828125 224.636719 156.289062 224.890625 155.773438 C 225.144531 155.257812 225.453125 154.773438 225.8125 154.324219 C 226.171875 153.875 226.578125 153.46875 227.023438 153.109375 C 227.472656 152.746094 227.953125 152.4375 228.46875 152.179688 C 228.984375 151.921875 229.519531 151.722656 230.078125 151.582031 C 230.636719 151.4375 231.207031 151.359375 231.78125 151.339844 L 264.359375 149.449219 Z M 85.9375 78.835938 L 220.347656 68.945312 C 236.949219 67.527344 241.191406 68.492188 251.5625 75.960938 L 294.5 106.21875 C 301.578125 111.402344 303.964844 112.800781 303.964844 118.453125 L 303.964844 283.773438 C 303.964844 294.117188 300.179688 300.246094 286.925781 301.191406 L 130.746094 310.648438 C 120.824219 311.121094 116.113281 309.703125 110.925781 303.082031 L 79.347656 262.046875 C 73.667969 254.480469 71.320312 248.808594 71.320312 242.265625 L 71.320312 95.328125 C 71.320312 86.855469 75.109375 79.742188 85.9375 78.835938 Z M 85.9375 78.835938 " fill-opacity="1" fill-rule="evenodd"/>
</g>
</svg>