<svg xmlns="http://www.w3.org/2000/svg" width="256" height="256" fill="none"><path fill="#242938" d="M60 0h136c33.1 0 60 26.9 60 60v136c0 33.1-26.9 60-60 60H60c-33.1 0-60-26.9-60-60V60C0 26.9 26.9 0 60 0z"/><path fill="#FFF" d="M161.6 29c-2.2 0-4.7.1-8.3.4h-.1l-105 7.8c-9.6.8-15.1 7-15.1 16.9v115.3c0 6 2 11.2 7.1 17.9l24.7 32.1c4.3 5.5 8.7 7.5 16.2 7.5.8 0 1.7 0 2.7-.1l122.1-7.4c11.5-.8 17-6.6 17-17.7V72.2c0-6.2-3.1-8.5-8.2-12.2h-.1l-34.4-24.2c-6.3-4.7-10.5-6.8-18.6-6.8z"/><path fill="#000" fill-rule="evenodd" clip-rule="evenodd" d="M153.6 33.4L48.5 41.2c-8.5.7-11.4 6.3-11.4 12.9v115.3c0 5.2 1.8 9.6 6.3 15.5L68.1 217c4.1 5.2 7.8 6.3 15.5 5.9l122.1-7.4c10.3-.7 13.3-5.5 13.3-13.7V72.2c0-4.2-1.7-5.4-6.5-9L178 39c-8.1-5.9-11.4-6.7-24.4-5.6z"/><path fill-rule="evenodd" clip-rule="evenodd" fill="#FFF" d="M86.3 70.1c-10 .7-12.2.8-17.9-3.8L54 54.9c-1.5-1.5-.7-3.3 3-3.7l101.1-7.4c8.5-.7 12.9 2.2 16.2 4.8l17.3 12.6c.7.4 2.6 2.6.4 2.6L87.6 70l-1.3.1zM74.7 200.8V90.7c0-4.8 1.5-7 5.9-7.4l119.9-7c4.1-.4 5.9 2.2 5.9 7v109.3c0 4.8-.7 8.9-7.4 9.2l-114.7 6.6c-6.7.5-9.6-1.7-9.6-7.6z"/><path fill="#000" fill-rule="evenodd" clip-rule="evenodd" d="M187.9 96.6c.7 3.3 0 6.6-3.3 7l-5.5 1.1V186c-4.8 2.6-9.2 4.1-12.9 4.1-5.9 0-7.4-1.8-11.8-7.4l-36.2-56.9v55l11.4 2.6s0 6.6-9.2 6.6L95 191.5c-.7-1.5 0-5.2 2.6-5.9l6.6-1.8V111l-9.2-.7c-.7-3.3 1.1-8.1 6.3-8.5l27.3-1.8 37.6 57.6v-51l-9.6-1.1c-.7-4.1 2.2-7 5.9-7.4l25.4-1.5z"/></svg>