<svg xmlns="http://www.w3.org/2000/svg" xmlns:xlink="http://www.w3.org/1999/xlink" width="256" zoomAndPan="magnify" viewBox="0 0 375 374.999991" height="256" preserveAspectRatio="xMidYMid meet" version="1.0">
<defs>
<clipPath id="a4adc48617">
<path d="M 75 0 L 300 0 C 341.421875 0 375 33.578125 375 75 L 375 304.027344 C 375 345.445312 341.421875 379.027344 300 379.027344 L 75 379.027344 C 33.578125 379.027344 0 345.445312 0 304.027344 L 0 75 C 0 33.578125 33.578125 0 75 0 " clip-rule="nonzero"/>
</clipPath>
<clipPath id="3549f542ef">
<path d="M 44.195312 40.519531 L 330.695312 40.519531 L 330.695312 338.269531 L 44.195312 338.269531 Z M 44.195312 40.519531 " clip-rule="nonzero"/>
</clipPath>
</defs>
<g clip-path="url(#a4adc48617)">
<path fill="#f4f2ec" d="M 0 0 L 374.414062 0 L 374.414062 379.6875 L 0 379.6875 Z M 0 0 " fill-opacity="1" fill-rule="nonzero"/>
</g>
<g clip-path="url(#3549f542ef)">
<path fill="#000000" d="M 93.851562 92.722656 C 103.152344 100.230469 106.59375 99.699219 124.078125 98.511719 L 288.085938 88.65625 C 291.574219 88.65625 288.667969 85.195312 287.503906 84.613281 L 260.179688 64.925781 C 258.433594 63.4375 256.546875 62.148438 254.527344 61.058594 C 252.507812 59.964844 250.394531 59.097656 248.191406 58.449219 C 245.988281 57.804688 243.742188 57.394531 241.453125 57.21875 C 239.160156 57.046875 236.878906 57.113281 234.601562 57.417969 L 75.804688 69.039062 C 70.015625 69.597656 68.832031 72.503906 71.15625 74.828125 L 93.78125 92.769531 Z M 103.6875 130.9375 L 103.6875 303.425781 C 103.6875 312.726562 108.335938 316.164062 118.753906 315.582031 L 299.015625 305.171875 C 309.457031 304.589844 310.640625 298.199219 310.640625 290.691406 L 310.640625 119.339844 C 310.640625 111.832031 307.734375 107.714844 301.339844 108.34375 L 112.988281 119.339844 C 106.011719 119.917969 103.6875 123.40625 103.6875 130.960938 Z M 281.644531 140.234375 C 282.785156 145.441406 281.644531 150.648438 276.414062 151.226562 L 267.808594 152.925781 L 267.808594 280.277344 C 260.273438 284.320312 253.320312 286.621094 247.53125 286.621094 C 238.230469 286.621094 235.90625 283.738281 228.929688 275 L 172.074219 185.90625 L 172.074219 272.164062 L 190.050781 276.210938 C 190.050781 276.210938 190.050781 286.621094 175.5625 286.621094 L 135.566406 288.945312 C 134.40625 286.621094 135.566406 280.859375 139.636719 279.648438 L 150.054688 276.742188 L 150.054688 162.757812 L 135.566406 161.59375 C 135.476562 161.210938 135.40625 160.824219 135.355469 160.433594 C 135.308594 160.046875 135.28125 159.652344 135.273438 159.261719 C 135.269531 158.867188 135.28125 158.472656 135.320312 158.082031 C 135.355469 157.691406 135.414062 157.300781 135.492188 156.917969 C 135.570312 156.53125 135.671875 156.152344 135.789062 155.777344 C 135.910156 155.402344 136.050781 155.035156 136.210938 154.675781 C 136.371094 154.316406 136.550781 153.96875 136.75 153.628906 C 136.949219 153.289062 137.164062 152.960938 137.398438 152.644531 C 137.632812 152.328125 137.882812 152.023438 138.148438 151.734375 C 138.417969 151.445312 138.699219 151.171875 138.996094 150.914062 C 139.292969 150.65625 139.601562 150.414062 139.925781 150.191406 C 140.25 149.964844 140.582031 149.761719 140.929688 149.574219 C 141.273438 149.382812 141.628906 149.214844 141.992188 149.066406 C 142.359375 148.917969 142.730469 148.789062 143.105469 148.679688 C 143.484375 148.570312 143.867188 148.480469 144.253906 148.414062 C 144.644531 148.347656 145.035156 148.300781 145.425781 148.277344 L 188.304688 145.394531 L 247.4375 235.765625 L 247.4375 155.808594 L 232.371094 154.085938 C 232.238281 153.394531 232.179688 152.691406 232.199219 151.984375 C 232.21875 151.277344 232.3125 150.582031 232.484375 149.894531 C 232.652344 149.207031 232.894531 148.546875 233.207031 147.914062 C 233.519531 147.277344 233.898438 146.683594 234.339844 146.132812 C 234.78125 145.582031 235.277344 145.082031 235.828125 144.636719 C 236.378906 144.191406 236.972656 143.8125 237.605469 143.496094 C 238.238281 143.179688 238.894531 142.933594 239.582031 142.761719 C 240.269531 142.585938 240.964844 142.488281 241.671875 142.464844 L 281.691406 140.140625 Z M 62.527344 53.351562 L 227.628906 41.195312 C 248.019531 39.449219 253.230469 40.636719 265.972656 49.816406 L 318.710938 87.007812 C 327.40625 93.375 330.335938 95.09375 330.335938 102.046875 L 330.335938 305.238281 C 330.335938 317.953125 325.6875 325.484375 309.410156 326.648438 L 117.570312 338.269531 C 105.382812 338.851562 99.59375 337.105469 93.222656 328.972656 L 54.4375 278.535156 C 47.460938 269.234375 44.578125 262.261719 44.578125 254.21875 L 44.578125 73.617188 C 44.578125 63.203125 49.226562 54.464844 62.527344 53.351562 Z M 62.527344 53.351562 " fill-opacity="1" fill-rule="evenodd"/>
</g>
</svg>