<?xml version="1.0" encoding="UTF-8"?>
<!DOCTYPE svg PUBLIC "-//W3C//DTD SVG 1.1//EN" "http://www.w3.org/Graphics/SVG/1.1/DTD/svg11.dtd">
<svg xmlns="http://www.w3.org/2000/svg" version="1.1" width="256px" height="256px" style="shape-rendering:geometricPrecision; text-rendering:geometricPrecision; image-rendering:optimizeQuality; fill-rule:evenodd; clip-rule:evenodd" xmlns:xlink="http://www.w3.org/1999/xlink">
<g><path style="opacity:0.995" fill="#f2f1ec" d="M 49.5,-0.5 C 101.5,-0.5 153.5,-0.5 205.5,-0.5C 232.025,5.69136 248.692,22.0247 255.5,48.5C 255.5,101.167 255.5,153.833 255.5,206.5C 248.719,232.948 232.052,249.282 205.5,255.5C 153.5,255.5 101.5,255.5 49.5,255.5C 22.9482,249.282 6.28149,232.948 -0.5,206.5C -0.5,153.833 -0.5,101.167 -0.5,48.5C 6.30792,22.0247 22.9746,5.69136 49.5,-0.5 Z"/></g>
<g><path style="opacity:1" fill="#53aed0" d="M 148.5,37.5 C 151.958,40.4005 155.958,42.5671 160.5,44C 161.598,44.7697 161.598,45.603 160.5,46.5C 157.293,47.1792 154.293,48.3459 151.5,50C 145.225,54.4838 138.558,58.3171 131.5,61.5C 120.498,56.1625 109.498,50.8292 98.5,45.5C 108.365,39.4 118.698,34.0666 129.5,29.5C 135.053,30.943 140.053,33.443 144.5,37C 145.793,37.49 147.127,37.6567 148.5,37.5 Z"/></g>
<g><path style="opacity:1" fill="#cfe3e7" d="M 148.5,37.5 C 149.873,37.3433 151.207,37.51 152.5,38C 155.245,40.0346 158.245,41.7013 161.5,43C 162.985,44.7565 162.652,45.9232 160.5,46.5C 161.598,45.603 161.598,44.7697 160.5,44C 155.958,42.5671 151.958,40.4005 148.5,37.5 Z"/></g>
<g><path style="opacity:1" fill="#a5d1e1" d="M 179.5,53.5 C 176.892,53.4003 174.558,54.0669 172.5,55.5C 174.265,52.5512 176.598,51.8846 179.5,53.5 Z"/></g>
<g><path style="opacity:1" fill="#54aed0" d="M 78.5,53.5 C 83.1338,53.4796 87.4671,54.6462 91.5,57C 99.212,61.0717 106.879,65.2383 114.5,69.5C 106.334,74.131 98.0011,78.631 89.5,83C 84.4308,88.12 78.7641,88.7867 72.5,85C 65.2542,81.1414 57.9209,77.4748 50.5,74C 48.5614,73.0922 47.5614,71.5922 47.5,69.5C 53.988,66.4276 60.6546,63.5942 67.5,61C 71.5498,58.9818 75.2164,56.4818 78.5,53.5 Z"/></g>
<g><path style="opacity:1" fill="#53add0" d="M 179.5,53.5 C 182.127,55.6007 185.127,56.9341 188.5,57.5C 192.825,61.1609 197.825,63.4942 203.5,64.5C 205.572,66.7259 208.072,68.3926 211,69.5C 211.617,70.4491 211.451,71.2825 210.5,72C 200.254,77.2855 189.92,81.9521 179.5,86C 168.528,80.899 157.862,75.2323 147.5,69C 155.509,63.8066 163.842,59.3066 172.5,55.5C 174.558,54.0669 176.892,53.4003 179.5,53.5 Z"/></g>
<g><path style="opacity:1" fill="#c0dce4" d="M 188.5,57.5 C 193.9,59.0339 198.9,61.3672 203.5,64.5C 197.825,63.4942 192.825,61.1609 188.5,57.5 Z"/></g>
<g><path style="opacity:1" fill="#52add0" d="M 129.5,77.5 C 130.873,77.3433 132.207,77.51 133.5,78C 143.863,84.2221 154.529,89.7221 165.5,94.5C 153.685,100.6 141.852,106.6 130,112.5C 118.646,107.24 107.48,101.573 96.5,95.5C 107.497,89.5049 118.497,83.5049 129.5,77.5 Z"/></g>
<g><path style="opacity:1" fill="#7191d8" d="M 40.5,83.5 C 38.507,116.15 37.8404,149.15 38.5,182.5C 37.5021,156.005 37.1688,129.339 37.5,102.5C 37.5,95.8333 37.5,89.1667 37.5,82.5C 38.791,82.2627 39.791,82.596 40.5,83.5 Z"/></g>
<g><path style="opacity:1" fill="#4e78cf" d="M 40.5,83.5 C 43.5,84.8333 46.5,86.1667 49.5,87.5C 54.6433,89.7712 59.4766,92.7712 64,96.5C 68.1201,105.071 71.9534,113.737 75.5,122.5C 75.427,124.027 76.0937,125.027 77.5,125.5C 83.8171,138.803 90.1505,152.136 96.5,165.5C 96.3691,166.376 96.7025,167.043 97.5,167.5C 97.8405,149.148 98.8405,131.148 100.5,113.5C 102.954,114.227 105.287,115.227 107.5,116.5C 107.973,117.906 108.973,118.573 110.5,118.5C 115.254,119.712 119.588,121.712 123.5,124.5C 124.16,158.183 123.493,191.517 121.5,224.5C 112.855,220.512 104.855,215.512 97.5,209.5C 95.2252,204.571 92.5585,199.904 89.5,195.5C 84.4349,185.037 79.1015,174.703 73.5,164.5C 73.1551,161.802 71.8218,159.802 69.5,158.5C 68.4242,155.352 67.0909,152.352 65.5,149.5C 64.8897,147.566 63.8897,145.899 62.5,144.5C 62.6309,143.624 62.2975,142.957 61.5,142.5C 60.8333,159.167 60.1667,175.833 59.5,192.5C 57.4229,190.918 55.0896,189.918 52.5,189.5C 47.5545,187.694 42.8878,185.361 38.5,182.5C 37.8404,149.15 38.507,116.15 40.5,83.5 Z"/></g>
<g><path style="opacity:1" fill="#50acd0" d="M 222.5,124.5 C 212.563,129.804 202.563,135.137 192.5,140.5C 190.518,126.873 189.851,112.873 190.5,98.5C 198.855,93.3216 207.521,88.655 216.5,84.5C 218.262,84.6427 219.929,84.3094 221.5,83.5C 222.499,97.1504 222.833,110.817 222.5,124.5 Z"/></g>
<g><path style="opacity:1" fill="#ced6e7" d="M 49.5,87.5 C 46.5,86.1667 43.5,84.8333 40.5,83.5C 39.791,82.596 38.791,82.2627 37.5,82.5C 37.5,89.1667 37.5,95.8333 37.5,102.5C 36.5088,95.6866 36.1755,88.6866 36.5,81.5C 38.924,81.1924 41.2573,81.5258 43.5,82.5C 45.7863,83.8187 47.7863,85.4854 49.5,87.5 Z"/></g>
<g><path style="opacity:1" fill="#7fc2da" d="M 222.5,124.5 C 222.833,110.817 222.499,97.1504 221.5,83.5C 219.929,84.3094 218.262,84.6427 216.5,84.5C 218.426,82.7073 220.759,81.7073 223.5,81.5C 223.829,96.0097 223.496,110.343 222.5,124.5 Z"/></g>
<g><path style="opacity:1" fill="#50acd0" d="M 140.5,166.5 C 138.518,152.873 137.851,138.873 138.5,124.5C 150.75,117.412 163.416,111.078 176.5,105.5C 176.5,120.167 176.5,134.833 176.5,149.5C 175.127,149.343 173.793,149.51 172.5,150C 162.06,155.977 151.394,161.477 140.5,166.5 Z"/></g>
<g><path style="opacity:1" fill="#95addf" d="M 107.5,116.5 C 109.027,116.427 110.027,117.094 110.5,118.5C 108.973,118.573 107.973,117.906 107.5,116.5 Z"/></g>
<g><path style="opacity:1" fill="#9acedf" d="M 190.5,98.5 C 189.851,112.873 190.518,126.873 192.5,140.5C 191.791,141.404 190.791,141.737 189.5,141.5C 189.171,126.99 189.504,112.657 190.5,98.5 Z"/></g>
<g><path style="opacity:1" fill="#97adde" d="M 75.5,122.5 C 76.9063,122.973 77.573,123.973 77.5,125.5C 76.0937,125.027 75.427,124.027 75.5,122.5 Z"/></g>
<g><path style="opacity:1" fill="#8ca6db" d="M 100.5,113.5 C 98.8405,131.148 97.8405,149.148 97.5,167.5C 96.7025,167.043 96.3691,166.376 96.5,165.5C 97.4967,148.008 97.8301,130.341 97.5,112.5C 98.791,112.263 99.791,112.596 100.5,113.5 Z"/></g>
<g><path style="opacity:1" fill="#52add0" d="M 220.5,140.5 C 221.5,140.5 222.5,140.5 223.5,140.5C 223.5,155.167 223.5,169.833 223.5,184.5C 212.309,188.762 201.642,194.096 191.5,200.5C 190.334,185.845 190.167,171.178 191,156.5C 201.038,151.236 210.872,145.903 220.5,140.5 Z"/></g>
<g><path style="opacity:1" fill="#d6dce8" d="M 62.5,144.5 C 63.8897,145.899 64.8897,147.566 65.5,149.5C 64.8501,149.196 64.1835,148.863 63.5,148.5C 62.8333,164.167 62.1667,179.833 61.5,195.5C 60.4777,195.145 59.811,194.478 59.5,193.5C 61.1619,177.359 62.1619,161.026 62.5,144.5 Z"/></g>
<g><path style="opacity:1" fill="#a8b9e1" d="M 69.5,158.5 C 71.8218,159.802 73.1551,161.802 73.5,164.5C 71.631,162.966 70.2977,160.966 69.5,158.5 Z"/></g>
<g><path style="opacity:1" fill="#85c4db" d="M 138.5,124.5 C 137.851,138.873 138.518,152.873 140.5,166.5C 139.791,167.404 138.791,167.737 137.5,167.5C 137.171,152.99 137.504,138.657 138.5,124.5 Z"/></g>
<g><path style="opacity:1" fill="#50acd0" d="M 174.5,164.5 C 176.483,178.461 177.15,192.794 176.5,207.5C 164.261,213.287 152.261,219.621 140.5,226.5C 138.517,212.205 137.85,197.538 138.5,182.5C 150.634,176.683 162.634,170.683 174.5,164.5 Z"/></g>
<g><path style="opacity:1" fill="#7f9ddc" d="M 62.5,144.5 C 62.1619,161.026 61.1619,177.359 59.5,193.5C 56.8997,192.532 54.5664,191.199 52.5,189.5C 55.0896,189.918 57.4229,190.918 59.5,192.5C 60.1667,175.833 60.8333,159.167 61.5,142.5C 62.2975,142.957 62.6309,143.624 62.5,144.5 Z"/></g>
<g><path style="opacity:1" fill="#b2d7e2" d="M 138.5,182.5 C 137.85,197.538 138.517,212.205 140.5,226.5C 139.791,227.404 138.791,227.737 137.5,227.5C 137.171,212.324 137.504,197.324 138.5,182.5 Z"/></g>
<g><path style="opacity:1" fill="#8ba5dd" d="M 123.5,124.5 C 124.83,158.336 124.83,192.336 123.5,226.5C 122.478,226.145 121.811,225.478 121.5,224.5C 123.493,191.517 124.16,158.183 123.5,124.5 Z"/></g>
<g><path style="opacity:1" fill="#a4d0df" d="M 174.5,164.5 C 175.209,163.596 176.209,163.263 177.5,163.5C 177.829,178.343 177.496,193.01 176.5,207.5C 177.15,192.794 176.483,178.461 174.5,164.5 Z"/></g>
<g><path style="opacity:1" fill="#c1cce5" d="M 89.5,195.5 C 92.5585,199.904 95.2252,204.571 97.5,209.5C 94.8068,207.708 92.8068,205.375 91.5,202.5C 90.5793,200.223 89.9126,197.89 89.5,195.5 Z"/></g>
</svg>
