<svg width="256" height="256" viewBox="0 0 256 256" fill="none" xmlns="http://www.w3.org/2000/svg">
<g clip-path="url(#clip0_273_70)">
<path d="M196 0H60C26.8629 0 0 26.8629 0 60V196C0 229.137 26.8629 256 60 256H196C229.137 256 256 229.137 256 196V60C256 26.8629 229.137 0 196 0Z" fill="#242938"/>
<path d="M177.412 162.768L177.454 205.575L139.468 224.531V181.742L177.412 162.768ZM223 139.89V182.846L190.601 199.015L190.578 156.255L223 139.89ZM177.355 105.471L177.397 147.829L139.467 166.677V124.305L177.355 105.471ZM223 82.7793V124.871L190.569 141.358L190.54 98.9153L223 82.7793ZM133.693 77.7997L167.596 94.9133L132.421 112.579L99.157 95.8717L133.693 77.7997ZM86.5335 53.9956L118.871 70.3184L84.2559 88.3855L51.0444 71.7069L86.5335 53.9956ZM178.973 54.2432L213.803 71.7069L182.653 87.3528L148.679 70.2159L178.973 54.2432ZM132.628 31L163.983 46.7202L133.918 62.7721L101.608 46.4761L132.628 31Z" fill="#4DABCF"/>
<path d="M117.131 124.305L91.5448 111.442V167.042C91.5448 167.042 60.2551 100.464 57.3558 94.4834C56.9824 93.7117 55.4439 92.8651 55.0507 92.6599C49.4402 89.714 33 81.386 33 81.386V179.615L55.7431 191.772V140.428C55.7431 140.428 86.7011 199.917 87.0144 200.567C87.3277 201.218 90.4378 207.487 93.7573 209.689C98.1801 212.617 117.136 224.016 117.136 224.016L117.131 124.305Z" fill="#4D77CF"/>
</g>
<defs>
<clipPath id="clip0_273_70">
<rect width="256" height="256" fill="white"/>
</clipPath>
</defs>
</svg>
