<?xml version="1.0" encoding="UTF-8"?>
<!DOCTYPE svg PUBLIC "-//W3C//DTD SVG 1.1//EN" "http://www.w3.org/Graphics/SVG/1.1/DTD/svg11.dtd">
<svg xmlns="http://www.w3.org/2000/svg" version="1.1" width="256px" height="256px" style="shape-rendering:geometricPrecision; text-rendering:geometricPrecision; image-rendering:optimizeQuality; fill-rule:evenodd; clip-rule:evenodd" xmlns:xlink="http://www.w3.org/1999/xlink">
<g><path style="opacity:0.995" fill="#242938" d="M 49.5,-0.5 C 101.5,-0.5 153.5,-0.5 205.5,-0.5C 232.025,5.69136 248.692,22.0247 255.5,48.5C 255.5,101.167 255.5,153.833 255.5,206.5C 248.719,232.948 232.052,249.282 205.5,255.5C 153.5,255.5 101.5,255.5 49.5,255.5C 22.9482,249.282 6.28149,232.948 -0.5,206.5C -0.5,153.833 -0.5,101.167 -0.5,48.5C 6.30792,22.0247 22.9746,5.69136 49.5,-0.5 Z"/></g>
<g><path style="opacity:1" fill="#4ca7cb" d="M 127.5,29.5 C 129.199,29.3398 130.866,29.5065 132.5,30C 142.674,34.8722 152.674,40.0389 162.5,45.5C 152.824,50.5656 143.157,55.7323 133.5,61C 132.167,61.6667 130.833,61.6667 129.5,61C 119.727,55.8539 110.06,50.5205 100.5,45C 101.272,43.779 102.272,42.779 103.5,42C 111.939,38.5324 119.939,34.3657 127.5,29.5 Z"/></g>
<g><path style="opacity:1" fill="#4ca8cc" d="M 85.5,85.5 C 83.9731,85.427 82.9731,86.0937 82.5,87.5C 78.5304,87.0159 74.8637,85.6825 71.5,83.5C 71.0269,82.0937 70.0269,81.427 68.5,81.5C 65.6223,79.8946 62.6223,78.5612 59.5,77.5C 59.0269,76.0937 58.0269,75.427 56.5,75.5C 53.2478,74.5406 50.2478,73.0406 47.5,71C 57.1637,65.0027 67.1637,59.836 77.5,55.5C 79.0269,55.573 80.0269,54.9063 80.5,53.5C 81.5832,53.4606 82.5832,53.1272 83.5,52.5C 94.3105,57.7797 104.977,63.4464 115.5,69.5C 105.759,75.3698 95.759,80.7031 85.5,85.5 Z"/></g>
<g><path style="opacity:1" fill="#4ca8cb" d="M 174.5,53.5 C 176.527,53.3379 178.527,53.5045 180.5,54C 191.409,59.6474 202.409,65.1474 213.5,70.5C 203.688,75.9067 193.688,81.0734 183.5,86C 182.167,86.6667 180.833,86.6667 179.5,86C 168.831,80.9579 158.498,75.4579 148.5,69.5C 157.195,64.1556 165.861,58.8223 174.5,53.5 Z"/></g>
<g><path style="opacity:1" fill="#396a83" d="M 80.5,53.5 C 80.0269,54.9063 79.0269,55.573 77.5,55.5C 77.9731,54.0937 78.9731,53.427 80.5,53.5 Z"/></g>
<g><path style="opacity:1" fill="#37657e" d="M 56.5,75.5 C 58.0269,75.427 59.0269,76.0937 59.5,77.5C 57.9731,77.573 56.9731,76.9063 56.5,75.5 Z"/></g>
<g><path style="opacity:1" fill="#4ca7cb" d="M 129.5,77.5 C 130.873,77.3433 132.207,77.51 133.5,78C 144.331,83.3686 154.998,88.8686 165.5,94.5C 154.471,100.235 143.471,106.069 132.5,112C 131.167,112.667 129.833,112.667 128.5,112C 125.689,110.175 122.689,108.842 119.5,108C 112.033,104.099 104.7,99.9323 97.5,95.5C 107.948,89.0387 118.614,83.0387 129.5,77.5 Z"/></g>
<g><path style="opacity:1" fill="#4c76ce" d="M 40.5,82.5 C 48.9665,85.6507 56.7998,89.9841 64,95.5C 75.1267,119.053 85.96,142.72 96.5,166.5C 96.56,167.043 96.8933,167.376 97.5,167.5C 98.4996,149.179 98.8329,130.845 98.5,112.5C 107.055,116.28 115.389,120.28 123.5,124.5C 123.667,158.168 123.5,191.835 123,225.5C 122.329,224.748 121.496,224.414 120.5,224.5C 112.014,220.513 104.181,215.513 97,209.5C 86.2388,189.645 75.7388,169.645 65.5,149.5C 65.573,147.973 64.9063,146.973 63.5,146.5C 63.4431,145.391 63.1098,144.391 62.5,143.5C 62.44,142.957 62.1067,142.624 61.5,142.5C 60.8333,159.328 60.1667,175.995 59.5,192.5C 56.4844,191.438 53.4844,190.271 50.5,189C 46.593,186.241 42.593,183.741 38.5,181.5C 37.8404,148.15 38.507,115.15 40.5,82.5 Z"/></g>
<g><path style="opacity:1" fill="#37647d" d="M 68.5,81.5 C 70.0269,81.427 71.0269,82.0937 71.5,83.5C 69.9731,83.573 68.9731,82.9063 68.5,81.5 Z"/></g>
<g><path style="opacity:1" fill="#476bba" d="M 40.5,82.5 C 38.507,115.15 37.8404,148.15 38.5,181.5C 37.5017,148.338 37.1684,115.004 37.5,81.5C 38.791,81.2627 39.791,81.596 40.5,82.5 Z"/></g>
<g><path style="opacity:1" fill="#4ca9cd" d="M 191.5,141.5 C 190.504,127.343 190.171,113.01 190.5,98.5C 201.336,92.9158 212.336,87.5824 223.5,82.5C 223.833,96.8488 223.499,111.182 222.5,125.5C 212.128,130.9 201.795,136.233 191.5,141.5 Z"/></g>
<g><path style="opacity:1" fill="#355e76" d="M 85.5,85.5 C 85.0269,86.9063 84.0269,87.573 82.5,87.5C 82.9731,86.0937 83.9731,85.427 85.5,85.5 Z"/></g>
<g><path style="opacity:1" fill="#4491b1" d="M 174.5,106.5 C 174.842,105.662 175.508,105.328 176.5,105.5C 176.829,120.343 176.496,135.01 175.5,149.5C 175.829,134.99 175.496,120.657 174.5,106.5 Z"/></g>
<g><path style="opacity:1" fill="#2b4052" d="M 176.5,105.5 C 177.496,120.324 177.829,135.324 177.5,150.5C 176.167,150.5 174.833,150.5 173.5,150.5C 173.842,149.662 174.508,149.328 175.5,149.5C 176.496,135.01 176.829,120.343 176.5,105.5 Z"/></g>
<g><path style="opacity:1" fill="#4ca9cd" d="M 174.5,106.5 C 175.496,120.657 175.829,134.99 175.5,149.5C 174.508,149.328 173.842,149.662 173.5,150.5C 167.032,153.234 160.699,156.234 154.5,159.5C 152.973,159.427 151.973,160.094 151.5,161.5C 147.069,163.215 142.735,165.215 138.5,167.5C 137.334,153.178 137.167,138.845 138,124.5C 149.957,118.105 162.124,112.105 174.5,106.5 Z"/></g>
<g><path style="opacity:1" fill="#3f5e9e" d="M 98.5,112.5 C 98.8329,130.845 98.4996,149.179 97.5,167.5C 96.8933,167.376 96.56,167.043 96.5,166.5C 97.1667,148.5 97.8333,130.5 98.5,112.5 Z"/></g>
<g><path style="opacity:1" fill="#3a6f8a" d="M 190.5,98.5 C 190.171,113.01 190.504,127.343 191.5,141.5C 191.44,142.043 191.107,142.376 190.5,142.5C 189.174,127.672 189.174,113.005 190.5,98.5 Z"/></g>
<g><path style="opacity:1" fill="#344875" d="M 123.5,124.5 C 124.498,158.329 124.832,192.329 124.5,226.5C 122.62,226.771 121.287,226.104 120.5,224.5C 121.496,224.414 122.329,224.748 123,225.5C 123.5,191.835 123.667,158.168 123.5,124.5 Z"/></g>
<g><path style="opacity:1" fill="#4ca9cd" d="M 191.5,200.5 C 190.192,185.961 190.192,171.294 191.5,156.5C 196.595,153.417 201.928,150.751 207.5,148.5C 209.027,148.573 210.027,147.906 210.5,146.5C 214.728,144.934 218.728,142.934 222.5,140.5C 223.833,155.167 223.833,169.833 222.5,184.5C 212.015,189.86 201.681,195.193 191.5,200.5 Z"/></g>
<g><path style="opacity:1" fill="#3e5996" d="M 62.5,143.5 C 61.8333,160.005 61.1667,176.672 60.5,193.5C 59.8933,193.376 59.56,193.043 59.5,192.5C 60.1667,175.995 60.8333,159.328 61.5,142.5C 62.1067,142.624 62.44,142.957 62.5,143.5 Z"/></g>
<g><path style="opacity:1" fill="#396982" d="M 210.5,146.5 C 210.027,147.906 209.027,148.573 207.5,148.5C 207.973,147.094 208.973,146.427 210.5,146.5 Z"/></g>
<g><path style="opacity:1" fill="#364b7a" d="M 63.5,146.5 C 64.9063,146.973 65.573,147.973 65.5,149.5C 64.0937,149.027 63.427,148.027 63.5,146.5 Z"/></g>
<g><path style="opacity:1" fill="#3a6f89" d="M 191.5,156.5 C 190.192,171.294 190.192,185.961 191.5,200.5C 191.44,201.043 191.107,201.376 190.5,201.5C 189.334,186.845 189.167,172.178 190,157.5C 190.383,156.944 190.883,156.611 191.5,156.5 Z"/></g>
<g><path style="opacity:1" fill="#37637c" d="M 154.5,159.5 C 154.027,160.906 153.027,161.573 151.5,161.5C 151.973,160.094 152.973,159.427 154.5,159.5 Z"/></g>
<g><path style="opacity:1" fill="#4ca9cd" d="M 138.5,226.5 C 138.184,211.755 138.517,197.088 139.5,182.5C 150.917,175.617 162.917,169.617 175.5,164.5C 176.833,179.167 176.833,193.833 175.5,208.5C 163.09,214.515 150.757,220.515 138.5,226.5 Z"/></g>
<g><path style="opacity:1" fill="#4593b4" d="M 139.5,182.5 C 138.517,197.088 138.184,211.755 138.5,226.5C 137.816,220.078 137.483,212.912 137.5,205C 137.503,197.136 138.169,189.636 139.5,182.5 Z"/></g>
</svg>
