<svg width="256" height="256" viewBox="0 0 256 256" fill="none" xmlns="http://www.w3.org/2000/svg">
<rect width="256" height="256" rx="60" fill="#2F495E"/>
<path d="M88.7973 197.668C88.6488 197.405 88.5164 197.134 88.4009 196.855C87.6016 195.006 87.3555 192.965 87.6924 190.979H40.411L110.677 67.3249L133.745 107.876L140.434 96.0401L120.326 60.6148C119.362 58.8003 117.958 57.2563 116.244 56.1242C114.529 54.9921 112.558 54.3079 110.511 54.1343C108.468 54.2278 106.493 54.8926 104.809 56.053C103.126 57.2134 101.802 58.8229 100.988 60.6985L29.8044 185.853C28.7402 187.62 28.1266 189.621 28.0176 191.681C27.9086 193.741 28.3075 195.797 29.1792 197.666C30.2742 199.392 31.8303 200.778 33.6716 201.665C35.5129 202.553 37.5659 202.908 39.5983 202.69H99.2164C97.1837 202.912 95.1297 202.558 93.2878 201.671C91.4459 200.783 89.8901 199.396 88.7973 197.668V197.668Z" fill="#00C492"/>
<path d="M225.871 185.853L167.378 82.8076C166.419 80.9737 165.013 79.411 163.29 78.2638C161.568 77.1167 159.584 76.422 157.522 76.2438C155.481 76.3318 153.505 76.992 151.821 78.149C150.138 79.306 148.813 80.9131 147.999 82.787L140.434 96.0401L147.165 107.876L157.582 89.4344L215.452 190.979H193.447C193.728 192.657 193.57 194.38 192.988 195.98C192.866 196.333 192.712 196.675 192.53 197.001L192.342 197.376C191.146 199.065 189.553 200.432 187.703 201.359C185.853 202.285 183.804 202.742 181.736 202.688H216.16C218.229 202.744 220.279 202.288 222.129 201.362C223.98 200.435 225.573 199.066 226.767 197.376C227.71 195.564 228.125 193.523 227.967 191.486C227.809 189.449 227.083 187.498 225.871 185.853Z" fill="#008776"/>
<path d="M192.342 197.376L192.53 197.001C192.712 196.675 192.866 196.333 192.988 195.98C193.57 194.38 193.728 192.657 193.447 190.979C193.122 189.168 192.473 187.432 191.529 185.853L147.208 107.876L140.436 96.0401L133.705 107.876L89.403 185.855C88.5431 187.452 87.9651 189.187 87.6944 190.981C87.3379 192.961 87.5624 195.002 88.3405 196.857C88.4559 197.136 88.5883 197.407 88.737 197.67C89.8323 199.396 91.3886 200.781 93.2299 201.668C95.0712 202.556 97.1241 202.91 99.1564 202.692H181.673C183.752 202.753 185.813 202.3 187.675 201.372C189.536 200.445 191.139 199.072 192.342 197.376H192.342ZM140.434 119.712L180.944 190.979H99.9458L140.434 119.712Z" fill="white"/>
</svg>
