<svg width="256" height="256" fill="none" version="1.1" viewBox="0 0 256 256" xmlns="http://www.w3.org/2000/svg">
 <rect width="256" height="256" rx="60" fill="#242938"/>
 <g transform="translate(-139.76 -427.84)">
  <g transform="matrix(.97 0 0 .97 7.94 16.6)" fill-rule="evenodd">
   <path d="m199 581c-11.3 0-16.9-6.94-19.1-14.2 2.45 11.8 15.7 23.3 57.5 28.4 39.5 4.86 65.2-7.32 73.9-13 0 0 5.86-2.6 2.35 1.42 0 0-24.9 23.1-73.6 23.4-48.8 0.236-87.5-24.5-87.3-49.6-0.234-25 38.5-49.8 87.3-49.6 48.8 0.236 73.6 23.4 73.6 23.4 3.52 4.01-2.35 1.42-2.35 1.42-8.68-5.66-34.3-16.8-73.9-13-38.9 3.78-51.6 17.1-55.9 26-1.62 3.45-2.36 6.71-2.54 9.98 1.05-8.56 6.34-18.6 20-18.6 15.5 0 20.2 13 20.2 21.9 0 9-4.73 22-20.2 22zm157-8.65h20.6v7.55h-29.3v-41.7h8.66v34.1zm-31.8-14.9h17.3v22.5h-5.77l-0.866-5.23c-2.19 2.56-5.37 6.33-12.9 6.33-9.98 0-19-7.2-19-21.8 0-11.4 6.29-22.1 20.3-22.1 12.7 0 17.7 8.3 18.2 14h-8.66c0-1.62-2.94-6.85-9.06-6.85-6.17 0-11.9 4.3-11.9 15 0 11.4 6.17 14.3 12.1 14.3 1.9 0 8.25-0.755 10-9.17h-9.64v-7.02zm-125-15.3c-9 0-14.4 7.14-14.4 17 0 9.81 5.42 17 14.4 17 9 0 14.4-7.14 14.4-17 0-9.81-5.42-17-14.4-17zm23.3 11.1h4.2v3.77h0.101c1.06-1.53 3.09-4.54 7.9-4.54 7.04 0 12.1 6 12.1 13.5 0 6.37-3.65 14.7-12.7 14.7-3.55 0-5.88-1.68-7.04-3.57h-0.101v13.4h-4.46v-37.2zm11.3 23.6c4.86 0 8.16-4.24 8.16-10.1 0-3.42-1.37-10.2-8.26-10.2-6.43 0-7.14 6.98-7.14 11.3 0 7.08 4.41 8.97 7.24 8.97zm40-5.25c-0.153 1.27-1.37 5.05-4.71 7.29-1.22 0.816-2.94 1.84-7.19 1.84-7.45 0-11.9-5.66-11.9-13.4 0-8.26 3.95-14.8 12.7-14.8 7.65 0 11.4 6.12 11.4 15.6h-19.4c0 5.56 2.58 8.77 7.7 8.77 4.2 0 6.69-3.26 6.84-5.25h4.46zm-4.72-7.08c-0.253-4.13-1.98-7.95-7.4-7.95-4.1 0-7.34 3.82-7.34 7.95h14.7zm29.7 15.4h-4.46v-16.4c0-4.64-1.32-6.98-5.67-6.98-2.53 0-6.99 1.63-6.99 8.87v14.5h-4.46v-26.7h4.21v3.77h0.101c0.963-1.43 3.44-4.54 8-4.54 4.1 0 9.27 1.68 9.27 9.28v18.2" fill="#b3b3b3" stroke-width=".997"/>
   <path d="m197 578c-11.4 0-17.1-6.94-19.3-14.2 2.48 11.8 15.9 23.3 58.1 28.4 39.9 4.85 65.9-7.32 74.7-13 0 0 5.93-2.6 2.37 1.42 0 0-25.1 23.1-74.5 23.4-49.3 0.236-88.5-24.5-88.2-49.6-0.237-25 38.9-49.8 88.2-49.6 49.3 0.236 74.5 23.4 74.5 23.4 3.56 4.01-2.37 1.42-2.37 1.42-8.77-5.66-34.7-16.8-74.7-13-39.4 3.78-52.2 17.1-56.5 26-1.64 3.45-2.39 6.71-2.57 9.98 1.06-8.56 6.41-18.6 20.2-18.6 15.6 0 20.4 13 20.4 22s-4.78 21.9-20.4 21.9zm159-8.65h20.8v7.55h-29.6v-41.7h8.75v34.1zm-32.1-14.9h17.5v22.5h-5.83l-0.876-5.22c-2.22 2.55-5.43 6.33-13.1 6.33-10.1 0-19.3-7.2-19.3-21.8 0-11.4 6.36-22.1 20.5-22.1 12.8 0 17.9 8.3 18.4 14h-8.75c0-1.62-2.98-6.85-9.16-6.85-6.24 0-12 4.3-12 15 0 11.4 6.24 14.3 12.2 14.3 1.92 0 8.34-0.755 10.1-9.17h-9.74v-7.02zm-127-15.3c-9.1 0-14.6 7.14-14.6 17 0 9.81 5.48 17 14.6 17 9.1 0 14.6-7.14 14.6-17 0-9.81-5.48-17-14.6-17zm23.6 11.1h4.25v3.77h0.102c1.08-1.53 3.12-4.54 7.99-4.54 7.12 0 12.2 6 12.2 13.5 0 6.37-3.69 14.7-12.8 14.7-3.59 0-5.94-1.68-7.12-3.57h-0.103v13.4h-4.51v-37.2zm11.4 23.6c4.92 0 8.25-4.24 8.25-10.1 0-3.42-1.39-10.2-8.35-10.2-6.5 0-7.22 6.98-7.22 11.3 0 7.08 4.46 8.97 7.32 8.97zm40.4-5.25c-0.155 1.27-1.38 5.05-4.76 7.29-1.23 0.815-2.97 1.84-7.27 1.84-7.53 0-12-5.66-12-13.4 0-8.26 4-14.8 12.9-14.8 7.73 0 11.5 6.12 11.5 15.6h-19.6c0 5.56 2.61 8.77 7.79 8.77 4.25 0 6.76-3.26 6.91-5.25h4.51zm-4.78-7.08c-0.256-4.13-2-7.95-7.48-7.95-4.15 0-7.43 3.82-7.43 7.95h14.9zm30 15.4h-4.51v-16.4c0-4.64-1.33-6.98-5.74-6.98-2.56 0-7.07 1.63-7.07 8.87v14.5h-4.51v-26.7h4.25v3.77h0.103c0.972-1.43 3.48-4.54 8.09-4.54 4.15 0 9.37 1.68 9.37 9.28v18.1" fill="#5586a4"/>
   <g transform="matrix(.219 0 0 .22 135 505)" fill="#999">
    <path d="m1144 325c0 3.14-0.786 6.07-2.36 8.78s-3.71 4.85-6.42 6.41-5.64 2.34-8.78 2.34c-3.13 0-6.04-0.781-8.76-2.34-2.71-1.56-4.85-3.7-6.42-6.41s-2.36-5.64-2.36-8.78c0-3.13 0.784-6.05 2.36-8.77 1.57-2.72 3.71-4.86 6.42-6.42s5.63-2.34 8.76-2.34c3.14 0 6.07 0.781 8.78 2.34 2.71 1.56 4.85 3.7 6.42 6.42s2.36 5.64 2.36 8.77zm-3.4 0c0-3.91-1.38-7.24-4.15-10-2.77-2.77-6.1-4.15-10-4.15-3.91 0-7.24 1.38-10 4.15-2.77 2.77-4.15 6.1-4.15 10s1.38 7.24 4.15 10c2.77 2.77 6.1 4.15 10 4.15 3.91 0 7.24-1.38 10-4.15s4.15-6.1 4.15-10zm-22.1-9.38h8.39c2.37 0 4.1 0.478 5.16 1.44 1.06 0.957 1.6 2.24 1.6 3.85 0 1.26-0.406 2.34-1.22 3.26-0.812 0.919-2.09 1.59-3.84 2 0.72 0.276 1.25 0.567 1.59 0.873 0.475 0.43 0.973 1.06 1.49 1.91 0.03 0.061 1.04 1.87 3.03 5.42h-5.52c-1.79-3.57-3-5.7-3.61-6.4-0.614-0.696-1.23-1.05-1.84-1.05-0.138 0-0.33 0.023-0.574 0.069v7.38h-4.67zm4.67 7.95h2.02c1.35 0 2.3-0.218 2.85-0.654 0.551-0.438 0.827-1 0.827-1.69 0-0.689-0.265-1.25-0.793-1.69-0.529-0.437-1.43-0.654-2.7-0.654h-2.21z" fill="#999"/>
   </g>
   <g transform="matrix(.219 0 0 .22 135 504)">
    <path d="m1144 325c0 3.14-0.786 6.07-2.36 8.78s-3.71 4.85-6.42 6.41-5.64 2.34-8.78 2.34c-3.13 0-6.04-0.781-8.76-2.34-2.71-1.56-4.85-3.7-6.42-6.41s-2.36-5.64-2.36-8.78c0-3.13 0.784-6.05 2.36-8.77 1.57-2.72 3.71-4.86 6.42-6.42s5.63-2.34 8.76-2.34c3.14 0 6.07 0.781 8.78 2.34 2.71 1.56 4.85 3.7 6.42 6.42s2.36 5.64 2.36 8.77zm-3.4 0c0-3.91-1.38-7.24-4.15-10-2.77-2.77-6.1-4.15-10-4.15-3.91 0-7.24 1.38-10 4.15-2.77 2.77-4.15 6.1-4.15 10s1.38 7.24 4.15 10c2.77 2.77 6.1 4.15 10 4.15 3.91 0 7.24-1.38 10-4.15s4.15-6.1 4.15-10zm-22.1-9.38h8.39c2.37 0 4.1 0.478 5.16 1.44 1.06 0.957 1.6 2.24 1.6 3.85 0 1.26-0.406 2.34-1.22 3.26-0.812 0.919-2.09 1.59-3.84 2 0.72 0.276 1.25 0.567 1.59 0.873 0.475 0.43 0.973 1.06 1.49 1.91 0.03 0.061 1.04 1.87 3.03 5.42h-5.52c-1.79-3.57-3-5.7-3.61-6.4-0.614-0.696-1.23-1.05-1.84-1.05-0.138 0-0.33 0.023-0.574 0.069v7.38h-4.67zm4.67 7.95h2.02c1.35 0 2.3-0.218 2.85-0.654 0.551-0.438 0.827-1 0.827-1.69 0-0.689-0.265-1.25-0.793-1.69-0.529-0.437-1.43-0.654-2.7-0.654h-2.21z" fill="#5586a4"/>
   </g>
  </g>
 </g>
</svg>
