<svg xmlns="http://www.w3.org/2000/svg" width="256" height="256" fill="none" viewBox="0 0 256 256"><rect width="256" height="256" fill="#000" rx="60"/><path fill="#fff" d="M55.3373 153.888C54.1766 153.889 53.0508 153.491 52.1484 152.761C51.2459 152.031 50.6215 151.013 50.3795 149.878C50.1375 148.743 50.2927 147.559 50.819 146.524C51.3454 145.49 52.211 144.667 53.2711 144.194L75.4895 134.302C76.0971 134.031 76.7522 133.883 77.4173 133.865C78.0823 133.848 78.7443 133.961 79.3655 134.199C79.9867 134.438 80.5549 134.796 81.0377 135.253C81.5204 135.711 81.9083 136.26 82.1791 136.867C82.45 137.475 82.5985 138.13 82.6161 138.795C82.6338 139.46 82.5203 140.122 82.2821 140.743C82.0439 141.365 81.6857 141.933 81.2279 142.416C80.7702 142.898 80.2218 143.286 79.6141 143.557L57.3957 153.449C56.7484 153.739 56.0468 153.889 55.3373 153.888V153.888Z"/><path fill="#fff" d="M45.0691 180.647C43.9084 180.648 42.7826 180.25 41.8802 179.52C40.9777 178.79 40.3533 177.772 40.1113 176.637C39.8693 175.501 40.0245 174.317 40.5509 173.283C41.0772 172.248 41.9428 171.426 43.0029 170.953L65.2173 161.061C66.4446 160.514 67.8388 160.477 69.0934 160.958C70.3479 161.439 71.36 162.399 71.907 163.626C72.4539 164.853 72.491 166.248 72.0099 167.502C71.5289 168.757 70.5692 169.769 69.342 170.316L47.1278 180.208C46.4805 180.498 45.7788 180.648 45.0691 180.647V180.647Z"/><path fill="#fff" d="M187.713 94.9485C186.552 94.9496 185.426 94.5515 184.523 93.821C183.62 93.0905 182.996 92.0718 182.755 90.9358C182.513 89.7998 182.67 88.6154 183.198 87.5811C183.726 86.5467 184.594 85.7253 185.655 85.2544L207.877 75.3624C208.485 75.0921 209.14 74.9442 209.805 74.927C210.47 74.9098 211.131 75.0237 211.752 75.2623C212.373 75.5008 212.941 75.8593 213.423 76.3173C213.905 76.7753 214.293 77.3238 214.563 77.9314C214.833 78.5391 214.981 79.1941 214.998 79.8589C215.016 80.5238 214.902 81.1855 214.663 81.8063C214.425 82.4272 214.066 82.9949 213.608 83.4772C213.15 83.9595 212.602 84.3468 211.994 84.6171L189.772 94.5091C189.125 94.8002 188.423 94.95 187.713 94.9485V94.9485Z"/><path fill="#fff" d="M177.446 121.707C176.284 121.708 175.158 121.31 174.255 120.579C173.352 119.849 172.728 118.83 172.487 117.694C172.245 116.558 172.402 115.374 172.93 114.339C173.458 113.305 174.326 112.484 175.387 112.013L197.602 102.121C198.209 101.85 198.864 101.702 199.529 101.685C200.194 101.668 200.856 101.782 201.477 102.021C202.097 102.259 202.665 102.618 203.147 103.076C203.63 103.534 204.017 104.082 204.287 104.69C204.558 105.297 204.706 105.952 204.723 106.617C204.74 107.282 204.626 107.944 204.388 108.565C204.149 109.185 203.79 109.753 203.332 110.236C202.874 110.718 202.326 111.105 201.718 111.375L179.504 121.267C178.857 121.558 178.155 121.708 177.446 121.707Z"/><path fill="#E00" d="M127.107 206.127C108.972 206.106 91.4155 199.748 77.4726 188.152C76.4415 187.295 75.7922 186.064 75.667 184.729C75.5419 183.394 75.951 182.064 76.8047 181.03C77.6585 179.996 78.8873 179.343 80.2219 179.213C81.5565 179.083 82.8881 179.488 83.9248 180.338C93.6703 188.4 105.473 193.58 118.003 195.296C130.533 197.013 143.294 195.197 154.848 190.053C166.403 184.91 176.291 176.643 183.402 166.183C190.512 155.724 194.56 143.487 195.092 130.851C195.104 130.181 195.251 129.52 195.526 128.909C195.8 128.298 196.196 127.75 196.689 127.296C197.182 126.843 197.762 126.494 198.394 126.272C199.026 126.049 199.696 125.957 200.365 126.002C201.707 126.059 202.971 126.647 203.88 127.637C204.788 128.626 205.267 129.936 205.21 131.278C204.328 151.409 195.718 170.424 181.169 184.366C166.621 198.308 147.257 206.103 127.107 206.127V206.127Z"/><path fill="#E00" d="M54.332 129.861L54.0984 129.857C52.7559 129.796 51.4926 129.204 50.5863 128.212C49.68 127.219 49.2049 125.907 49.2653 124.565C49.9153 110.065 54.5951 96.0334 62.7791 84.0463C70.9631 72.0591 82.3271 62.5911 95.5948 56.7056C108.862 50.8201 123.508 48.7502 137.887 50.7285C152.266 52.7068 165.809 58.6548 176.994 67.9046C178.027 68.7622 178.678 69.9947 178.803 71.3315C178.929 72.6682 178.519 74.0002 177.663 75.035C176.808 76.0698 175.577 76.7229 174.24 76.851C172.904 76.9791 171.571 76.5718 170.534 75.7184C160.802 67.6676 149.017 62.4902 136.504 60.7678C123.992 59.0454 111.246 60.8464 99.7006 65.9682C88.1549 71.0901 78.2662 79.33 71.1454 89.7622C64.0246 100.194 59.9538 112.406 59.3904 125.024C59.3308 126.326 58.772 127.555 57.83 128.456C56.8881 129.356 55.6353 129.86 54.332 129.861Z"/></svg>