<svg xmlns="http://www.w3.org/2000/svg"  viewBox="0 0 48 48" width="256px" height="256px"><path fill="#4191fd" d="M35,43c-5.514,0-10-4.486-10-10c0-3.562,1.916-6.88,5-8.66l3,5.196c-1.233,0.712-2,2.039-2,3.464 c0,2.168,1.832,4,4,4s4-1.832,4-4c0-1.425-0.767-2.752-2-3.464l3-5.196c3.084,1.78,5,5.099,5,8.66C45,38.514,40.514,43,35,43z"/><path fill="#f52537" d="M29,22.629l-3-5.196c1.233-0.712,2-2.04,2-3.464c0-2.168-1.832-4-4-4s-4,1.832-4,4 c0,1.425,0.767,2.752,2,3.464l-3,5.196c-3.084-1.781-5-5.1-5-8.661c0-5.514,4.486-10,10-10s10,4.486,10,10 C34,17.53,32.084,20.849,29,22.629z"/><path fill="#6dd669" d="M13.001,43.028c-3.459,0-6.827-1.793-8.678-4.997c-2.757-4.776-1.115-10.903,3.66-13.661 c3.085-1.781,6.917-1.781,10,0l-3,5.196c-1.234-0.713-2.766-0.713-4,0c-1.878,1.084-2.548,3.586-1.465,5.464 c1.084,1.877,3.586,2.549,5.465,1.464c1.233-0.712,2-2.04,2-3.464h6c0,3.561-1.916,6.879-5,8.66 C16.413,42.598,14.695,43.028,13.001,43.028z"/></svg>