<?xml version="1.0" encoding="UTF-8" standalone="no" ?>
<!DOCTYPE svg PUBLIC "-//W3C//DTD SVG 1.1//EN" "http://www.w3.org/Graphics/SVG/1.1/DTD/svg11.dtd">
<svg xmlns="http://www.w3.org/2000/svg" xmlns:xlink="http://www.w3.org/1999/xlink" version="1.1" width="256" height="256" viewBox="0 0 256 256" xml:space="preserve">
<rect width="256" height="256" rx="60" fill="#242938"/>
<g transform="matrix(2.0776189143 0 0 2.0776189143 128 128)" id="x9oLQZKAOnN0P8Noec2m2"  >
<path style="stroke: none; stroke-width: 1; stroke-dasharray: none; stroke-linecap: butt; stroke-dashoffset: 0; stroke-linejoin: miter; stroke-miterlimit: 4; fill: rgb(227,6,19); fill-rule: nonzero; opacity: 1;"  transform=" translate(-60.001, -30.001)" d="M 52.277 32.1 L 59.661 32.1 L 55.743 25.846000000000004 L 48.585 37.224000000000004 L 45.345 37.224000000000004 L 54 23.595 C 54.377 23.067999999999998 54.98 22.691 55.733 22.691 C 56.410999999999994 22.691 57.013 22.991 57.391 23.520999999999997 L 66.131 37.159 L 62.9 37.159 L 61.393 34.597 L 53.933 34.597 z M 86.10900000000001 34.587 L 86.10900000000001 22.757000000000005 L 83.32 22.757000000000005 L 83.32 35.717000000000006 C 83.32 36.09400000000001 83.47 36.395 83.69699999999999 36.697 C 83.99699999999999 36.997 84.29999999999998 37.149 84.67699999999999 37.149 L 97.26 37.149 L 98.918 34.587 z M 40.44700000000001 32.487 C 43.16000000000001 32.487 45.26900000000001 30.302000000000003 45.26900000000001 27.665000000000003 C 45.26900000000001 24.952 43.08400000000001 22.843000000000004 40.44700000000001 22.843000000000004 L 28.39 22.843000000000004 L 28.39 37.235 L 31.178 37.235 L 31.178 25.328 L 40.295 25.328 C 41.5819574569545 25.33564441248486 42.623355587515135 26.377042543045498 42.631 27.663999999999994 C 42.623361255908556 28.950570307355086 41.582566918709574 29.991810380886918 40.296 30 L 32.536 30 L 40.749 37.158 L 44.743 37.158 L 39.167 32.486000000000004 z M 11.28700000000001 37.159 C 7.29300000000001 37.159 4.129000000000009 33.919 4.129000000000009 30.000999999999998 C 4.129000000000009 26.006999999999998 7.3690000000000095 22.842999999999996 11.28700000000001 22.842999999999996 L 19.65100000000001 22.842999999999996 C 23.64500000000001 22.842999999999996 26.80900000000001 26.083 26.80900000000001 30.000999999999998 C 26.80900000000001 33.995 23.56900000000001 37.159 19.65100000000001 37.159 z M 19.500000000000007 34.597 C 22.073914913909007 34.58171117503028 24.15671117503029 32.498914913909005 24.172000000000008 29.925 C 24.156711175030285 27.351085086090997 22.073914913909007 25.26828882496972 19.500000000000004 25.253 L 11.513000000000007 25.253 C 8.939085086091007 25.268288824969723 6.856288824969729 27.351085086091 6.841000000000008 29.925 C 6.856288824969728 32.498914913909005 8.939085086091003 34.58171117503028 11.513000000000005 34.597 z M 71.94300000000001 37.159 C 67.94900000000001 37.159 64.78500000000001 33.919 64.78500000000001 30.000999999999998 C 64.78500000000001 26.006999999999998 68.025 22.842999999999996 71.94300000000001 22.842999999999996 L 81.88900000000001 22.842999999999996 L 80.23100000000001 25.404999999999998 L 72.093 25.404999999999998 C 69.519085086091 25.42028882496972 67.43628882496972 27.503085086090998 67.421 30.076999999999998 C 67.43628882496974 32.650914913909 69.519085086091 34.73371117503027 72.093 34.748999999999995 L 82.039 34.748999999999995 L 80.381 37.31099999999999 L 71.941 37.31099999999999 z M 105.775 34.597 C 103.67500000000001 34.597 101.857 33.165 101.32900000000001 31.207 L 113.159 31.207 L 114.81700000000001 28.645 L 101.405 28.645 C 101.932 26.685 103.741 25.255 105.851 25.255 L 113.989 25.255 L 115.647 22.692999999999998 L 105.7 22.692999999999998 C 101.706 22.692999999999998 98.542 25.933 98.542 29.851 C 98.542 33.845 101.782 37.009 105.7 37.009 L 114.215 37.009 L 115.873 34.447 L 105.77600000000001 34.447 z" stroke-linecap="round" />
</g>
</svg>