<svg width="256" height="256" version="1.1" viewBox="0 0 256 256" xmlns="http://www.w3.org/2000/svg">
 <rect width="256" height="256" rx="60" fill="#242938"/>
 <g transform="translate(-11.956 -3.2568)" fill="#ed225d" stroke-width="1.1864">
  <path d="m60.592 96.464v9.4891h0.42593c0.8483-1.3205 1.9576-2.6671 3.3279-4.0362 1.368-1.3691 3.0456-2.5959 5.0293-3.6839 1.9825-1.082 4.2249-1.9813 6.7283-2.6908 2.4998-0.70711 5.3117-1.063 8.4272-1.063 4.8169 0 9.2542 0.92186 13.315 2.762 4.06 1.8449 7.5552 4.3708 10.483 7.5801 2.9257 3.2117 5.1918 6.9893 6.7983 11.332 1.6052 4.3447 2.4084 9.0193 2.4084 14.024 0 5.0044-0.77949 9.7027-2.3385 14.094-1.5566 4.391-3.7788 8.2149-6.6571 11.473-2.8818 3.258-6.3735 5.8586-10.482 7.7901-4.1086 1.9351-8.7606 2.9032-13.952 2.9032-4.8169 0-9.2316-0.99185-13.244-2.9732-4.0161-1.9837-7.1067-4.6734-9.2779-8.0761h-0.28237v43.062h-16.998v-101.98zm39.663 33.711c0-2.6446-0.4022-5.2654-1.2042-7.8625-0.8044-2.5959-2.0074-4.9332-3.6127-7.0118-1.6064-2.0739-3.6352-3.7515-6.0912-5.0281-2.4559-1.2742-5.3354-1.9114-8.6396-1.9114-3.1168 0-5.9037 0.66085-8.3572 1.9837-2.4559 1.3229-4.5583 3.0242-6.3035 5.0981-1.7488 2.0786-3.0693 4.4396-3.9662 7.0842-0.89932 2.6446-1.3454 5.2903-1.3454 7.9325 0 2.6446 0.4461 5.2654 1.3454 7.8601 0.89694 2.5995 2.2174 4.9356 3.9662 7.0142 1.7464 2.0763 3.8476 3.7539 6.3035 5.0257 2.4535 1.2766 5.2405 1.9114 8.3572 1.9114 3.3042 0 6.1837-0.65848 8.6396-1.9814 2.4547-1.3229 4.4847-3.0218 6.0912-5.1005 1.6052-2.0763 2.8083-4.4373 3.6127-7.0818 0.80203-2.6446 1.2042-5.2891 1.2042-7.9325z"/>
  <path d="m223.5 74.619 10.124-3.0563 1.9885 6.1173-10.082 3.4383 6.2584 8.8745-5.2761 3.8274-6.5883-8.7179-6.4162 8.4877-5.1242-3.9022 6.2584-8.5696-10.159-3.6661 1.9897-6.122 10.202 3.2876v-10.553h6.8267v10.555z"/>
  <path d="m188.53 118.06c-1.7476-3.9164-4.1774-7.223-7.2942-9.915-3.1156-2.6908-6.7757-4.7457-10.977-6.1612-4.2035-1.4154-8.7606-2.1249-13.669-2.1249-1.7951 0-3.8013 0.09723-6.02 0.28237-2.2198 0.1922-4.1312 0.52084-5.7364 0.99423l0.99067-21.674h40.937v-15.297h-57.084l-1.7002 54.814c1.508-0.75339 3.233-1.4617 5.1693-2.1249 1.9351-0.65846 3.9176-1.2493 5.9488-1.7678 2.03-0.51966 4.1086-0.91949 6.2335-1.2054 2.1249-0.28237 4.13-0.42355 6.02-0.42355 2.7371 0 5.4291 0.3061 8.0737 0.91948 2.6434 0.61457 5.0281 1.7014 7.153 3.258 2.1249 1.5566 3.8464 3.6127 5.1705 6.1612 1.3205 2.5485 1.9825 5.7602 1.9825 9.6327 0 3.0218-0.49593 5.7376-1.4878 8.1449-0.99067 2.4049-2.3373 4.4147-4.0351 6.0176-1.7014 1.6076-3.6827 2.8344-5.9512 3.6827-2.2661 0.85305-4.6734 1.2766-7.2242 1.2766-4.531 0-8.4522-1.2054-11.756-3.6127-3.3066-2.4073-5.6652-5.594-7.083-9.5615l-0.18865 0.07-12.301 11.526c2.488 4.0576 5.6949 7.452 9.6576 10.148 5.759 3.9164 12.841 5.8788 21.248 5.8788 5.0044 0 9.7252-0.8044 14.164-2.4073 4.4373-1.604 8.3098-3.9188 11.615-6.943 3.3042-3.0195 5.925-6.7271 7.8625-11.118 1.9339-4.391 2.902-9.3705 2.902-14.944 1e-3 -5.0993-0.87203-9.6054-2.6196-13.527z"/>
 </g>
</svg>
