<?xml version="1.0" encoding="UTF-8"?>
<!DOCTYPE svg PUBLIC "-//W3C//DTD SVG 1.1//EN" "http://www.w3.org/Graphics/SVG/1.1/DTD/svg11.dtd">
<svg xmlns="http://www.w3.org/2000/svg" version="1.1" width="256px" height="256px" style="shape-rendering:geometricPrecision; text-rendering:geometricPrecision; image-rendering:optimizeQuality; fill-rule:evenodd; clip-rule:evenodd" xmlns:xlink="http://www.w3.org/1999/xlink">
<g><path style="opacity:0.996" fill="#f3f1ec" d="M 49.5,-0.5 C 101.5,-0.5 153.5,-0.5 205.5,-0.5C 232.025,5.69136 248.692,22.0247 255.5,48.5C 255.5,101.167 255.5,153.833 255.5,206.5C 248.719,232.948 232.052,249.282 205.5,255.5C 153.5,255.5 101.5,255.5 49.5,255.5C 22.9482,249.282 6.28149,232.948 -0.5,206.5C -0.5,153.833 -0.5,101.167 -0.5,48.5C 6.30792,22.0247 22.9746,5.69136 49.5,-0.5 Z"/></g>
<g><path style="opacity:1" fill="#3414c4" d="M 172.5,17.5 C 180.5,17.5 188.5,17.5 196.5,17.5C 196.5,72.8333 196.5,128.167 196.5,183.5C 188.5,183.5 180.5,183.5 172.5,183.5C 172.5,128.167 172.5,72.8333 172.5,17.5 Z"/></g>
<g><path style="opacity:1" fill="#3819c4" d="M 96.5,30.5 C 104.5,30.5 112.5,30.5 120.5,30.5C 120.5,47.1667 120.5,63.8333 120.5,80.5C 112.5,80.5 104.5,80.5 96.5,80.5C 96.5,63.8333 96.5,47.1667 96.5,30.5 Z"/></g>
<g><path style="opacity:1" fill="#3415c4" d="M 58.5,71.5 C 66.5,71.5 74.5,71.5 82.5,71.5C 82.5,126.833 82.5,182.167 82.5,237.5C 74.5,237.5 66.5,237.5 58.5,237.5C 58.5,182.167 58.5,126.833 58.5,71.5 Z"/></g>
<g><path style="opacity:1" fill="#3617c4" d="M 134.5,71.5 C 142.5,71.5 150.5,71.5 158.5,71.5C 158.5,88.1667 158.5,104.833 158.5,121.5C 150.5,121.5 142.5,121.5 134.5,121.5C 134.5,104.833 134.5,88.1667 134.5,71.5 Z"/></g>
<g><path style="opacity:1" fill="#faf772" d="M 120.5,118.5 C 120.5,110.833 120.5,103.167 120.5,95.5C 112.833,95.5 105.167,95.5 97.5,95.5C 97.5,103.167 97.5,110.833 97.5,118.5C 96.5076,110.684 96.1743,102.684 96.5,94.5C 104.833,94.5 113.167,94.5 121.5,94.5C 121.826,102.684 121.492,110.684 120.5,118.5 Z"/></g>
<g><path style="opacity:1" fill="#fefd00" d="M 120.5,118.5 C 112.833,118.5 105.167,118.5 97.5,118.5C 97.5,110.833 97.5,103.167 97.5,95.5C 105.167,95.5 112.833,95.5 120.5,95.5C 120.5,103.167 120.5,110.833 120.5,118.5 Z"/></g>
<g><path style="opacity:1" fill="#8d7bd7" d="M 120.5,133.5 C 112.833,133.5 105.167,133.5 97.5,133.5C 97.5,149.833 97.5,166.167 97.5,182.5C 105.167,182.5 112.833,182.5 120.5,182.5C 112.684,183.492 104.684,183.826 96.5,183.5C 96.5,166.5 96.5,149.5 96.5,132.5C 104.684,132.174 112.684,132.508 120.5,133.5 Z"/></g>
<g><path style="opacity:1" fill="#3312c4" d="M 120.5,133.5 C 120.5,149.833 120.5,166.167 120.5,182.5C 112.833,182.5 105.167,182.5 97.5,182.5C 97.5,166.167 97.5,149.833 97.5,133.5C 105.167,133.5 112.833,133.5 120.5,133.5 Z"/></g>
<g><path style="opacity:1" fill="#fd2cf1" d="M 134.5,135.5 C 142.507,135.334 150.507,135.5 158.5,136C 159.482,143.747 159.815,151.58 159.5,159.5C 151.167,159.5 142.833,159.5 134.5,159.5C 134.5,151.5 134.5,143.5 134.5,135.5 Z"/></g>
<g><path style="opacity:1" fill="#6c54cf" d="M 135.5,174.5 C 135.5,190.833 135.5,207.167 135.5,223.5C 143.167,223.5 150.833,223.5 158.5,223.5C 150.684,224.492 142.684,224.826 134.5,224.5C 134.17,207.658 134.503,190.992 135.5,174.5 Z"/></g>
<g><path style="opacity:1" fill="#3312c4" d="M 135.5,174.5 C 143.167,174.5 150.833,174.5 158.5,174.5C 158.5,190.833 158.5,207.167 158.5,223.5C 150.833,223.5 143.167,223.5 135.5,223.5C 135.5,207.167 135.5,190.833 135.5,174.5 Z"/></g>
</svg>
