<svg width="256" height="256" viewBox="0 0 256 256" fill="none" xmlns="http://www.w3.org/2000/svg">
<path d="M196 0H60C26.8629 0 0 26.8629 0 60V196C0 229.137 26.8629 256 60 256H196C229.137 256 256 229.137 256 196V60C256 26.8629 229.137 0 196 0Z" fill="#242938"/>
<path d="M103.713 51.3447H122.836V91.0557H103.713V51.3447Z" fill="white"/>
<path d="M103.713 132.918H122.836V172.629H103.713V132.918Z" fill="white"/>
<path d="M103.713 102.646H122.836V121.383H103.713V102.646Z" fill="#FFCA00"/>
<path d="M73 83.998H92.1232V216H73V83.998Z" fill="white"/>
<path d="M133.799 165.683H152.922V205.394H133.799V165.683Z" fill="white"/>
<path d="M133.799 84.0454H152.922V123.756H133.799V84.0454Z" fill="white"/>
<path d="M133.799 135.348H152.922V154.084H133.799V135.348Z" fill="#E70488"/>
<path d="M163.877 41H183V173.002H163.877V41Z" fill="white"/>
</svg>
