<svg width="256" height="256" viewBox="0 0 256 256" fill="none" xmlns="http://www.w3.org/2000/svg">
<g clip-path="url(#clip0_220_206)">
<path d="M196 0H60C26.8629 0 0 26.8629 0 60V196C0 229.137 26.8629 256 60 256H196C229.137 256 256 229.137 256 196V60C256 26.8629 229.137 0 196 0Z" fill="#242938"/>
<path d="M122.403 40.7047H100.764V85.6369H122.403V40.7047Z" fill="white"/>
<path d="M122.403 133.003H100.764V177.936H122.403V133.003Z" fill="white"/>
<path d="M122.403 98.7518H100.764V119.951H122.403V98.7518Z" fill="#FFCA00"/>
<path d="M87.6397 77.6422H66V227H87.6397V77.6422Z" fill="white"/>
<path d="M156.448 170.076H134.809V215.008H156.448V170.076Z" fill="white"/>
<path d="M156.448 77.696H134.809V122.628H156.448V77.696Z" fill="white"/>
<path d="M156.448 135.752H134.809V156.952H156.448V135.752Z" fill="#E70488"/>
<path d="M190.484 29H168.845V178.358H190.484V29Z" fill="white"/>
</g>
<defs>
<clipPath id="clip0_220_206">
<rect width="256" height="256" fill="white"/>
</clipPath>
</defs>
</svg>
