<svg width="256" height="256" viewBox="0 0 256 256" fill="none" xmlns="http://www.w3.org/2000/svg">
<g clip-path="url(#clip0_273_75)">
<path d="M196 0H60C26.8629 0 0 26.8629 0 60V196C0 229.137 26.8629 256 60 256H196C229.137 256 256 229.137 256 196V60C256 26.8629 229.137 0 196 0Z" fill="#242938"/>
<path d="M122.556 51.2854H103.541V90.7695H122.556V51.2854Z" fill="#F4F2ED"/>
<path d="M122.556 132.393H103.541V171.877H122.556V132.393Z" fill="#F4F2ED"/>
<path d="M122.556 102.294H103.541V120.923H122.556V102.294Z" fill="#FFCA00"/>
<path d="M92.0158 83.7522H73V215H92.0158V83.7522Z" fill="#F4F2ED"/>
<path d="M152.473 164.97H133.458V204.454H152.473V164.97Z" fill="#F4F2ED"/>
<path d="M152.473 83.7996H133.458V123.284H152.473V83.7996Z" fill="#F4F2ED"/>
<path d="M152.473 134.808H133.458V153.437H152.473V134.808Z" fill="#E70488"/>
<path d="M182.382 41H163.367V172.248H182.382V41Z" fill="#F4F2ED"/>
</g>
<defs>
<clipPath id="clip0_273_75">
<rect width="256" height="256" fill="white"/>
</clipPath>
</defs>
</svg>
