<svg width="256" height="256" viewBox="0 0 256 256" fill="none" xmlns="http://www.w3.org/2000/svg">
<g clip-path="url(#clip0_227_1752)">
<path d="M196 0H60C26.8629 0 0 26.8629 0 60V196C0 229.137 26.8629 256 60 256H196C229.137 256 256 229.137 256 196V60C256 26.8629 229.137 0 196 0Z" fill="#F4F2ED"/>
<path d="M153.714 115.143C160.815 115.143 166.571 109.387 166.571 102.286C166.571 95.1849 160.815 89.4286 153.714 89.4286C146.613 89.4286 140.857 95.1849 140.857 102.286C140.857 109.387 146.613 115.143 153.714 115.143Z" fill="#8C99CD"/>
<path d="M205.143 63.7143C212.244 63.7143 218 57.9579 218 50.8571C218 43.7563 212.244 38 205.143 38C198.042 38 192.286 43.7563 192.286 50.8571C192.286 57.9579 198.042 63.7143 205.143 63.7143Z" fill="#8C99CD"/>
<path d="M153.714 63.7143C160.815 63.7143 166.571 57.9579 166.571 50.8571C166.571 43.7563 160.815 38 153.714 38C146.613 38 140.857 43.7563 140.857 50.8571C140.857 57.9579 146.613 63.7143 153.714 63.7143Z" fill="#8C99CD"/>
<path d="M102.286 63.7143C109.387 63.7143 115.143 57.9579 115.143 50.8571C115.143 43.7563 109.387 38 102.286 38C95.1855 38 89.4292 43.7563 89.4292 50.8571C89.4292 57.9579 95.1855 63.7143 102.286 63.7143Z" fill="#8C99CD"/>
<path d="M50.8571 63.7143C57.9579 63.7143 63.7143 57.9579 63.7143 50.8571C63.7143 43.7563 57.9579 38 50.8571 38C43.7563 38 38 43.7563 38 50.8571C38 57.9579 43.7563 63.7143 50.8571 63.7143Z" fill="#8C99CD"/>
<path d="M50.8571 115.143C57.9579 115.143 63.7143 109.387 63.7143 102.286C63.7143 95.1849 57.9579 89.4286 50.8571 89.4286C43.7563 89.4286 38 95.1849 38 102.286C38 109.387 43.7563 115.143 50.8571 115.143Z" fill="#8C99CD"/>
<path d="M153.714 115.143C160.815 115.143 166.571 109.387 166.571 102.286C166.571 95.1849 160.815 89.4286 153.714 89.4286C146.613 89.4286 140.857 95.1849 140.857 102.286C140.857 109.387 146.613 115.143 153.714 115.143Z" fill="url(#paint0_linear_227_1752)"/>
<path d="M205.143 63.7143C212.244 63.7143 218 57.9579 218 50.8571C218 43.7563 212.244 38 205.143 38C198.042 38 192.286 43.7563 192.286 50.8571C192.286 57.9579 198.042 63.7143 205.143 63.7143Z" fill="url(#paint1_linear_227_1752)"/>
<path d="M153.714 63.7143C160.815 63.7143 166.571 57.9579 166.571 50.8571C166.571 43.7563 160.815 38 153.714 38C146.613 38 140.857 43.7563 140.857 50.8571C140.857 57.9579 146.613 63.7143 153.714 63.7143Z" fill="url(#paint2_linear_227_1752)"/>
<path d="M102.286 63.7143C109.387 63.7143 115.143 57.9579 115.143 50.8571C115.143 43.7563 109.387 38 102.286 38C95.1855 38 89.4292 43.7563 89.4292 50.8571C89.4292 57.9579 95.1855 63.7143 102.286 63.7143Z" fill="url(#paint3_linear_227_1752)"/>
<path d="M50.8571 63.7143C57.9579 63.7143 63.7143 57.9579 63.7143 50.8571C63.7143 43.7563 57.9579 38 50.8571 38C43.7563 38 38 43.7563 38 50.8571C38 57.9579 43.7563 63.7143 50.8571 63.7143Z" fill="url(#paint4_linear_227_1752)"/>
<path d="M50.8571 115.143C57.9579 115.143 63.7143 109.387 63.7143 102.286C63.7143 95.1849 57.9579 89.4286 50.8571 89.4286C43.7563 89.4286 38 95.1849 38 102.286C38 109.387 43.7563 115.143 50.8571 115.143Z" fill="url(#paint5_linear_227_1752)"/>
<path d="M50.8571 140.857C47.4472 140.857 44.177 142.212 41.7658 144.623C39.3546 147.034 38 150.304 38 153.714V205.143C38 208.553 39.3546 211.823 41.7658 214.234C44.177 216.645 47.4472 218 50.8571 218C54.2671 218 57.5373 216.645 59.9485 214.234C62.3597 211.823 63.7143 208.553 63.7143 205.143V153.714C63.7143 150.304 62.3597 147.034 59.9485 144.623C57.5373 142.212 54.2671 140.857 50.8571 140.857Z" fill="#282D33"/>
<path d="M153.714 140.857C150.304 140.857 147.034 142.212 144.623 144.623C142.212 147.034 140.857 150.304 140.857 153.714V205.143C140.857 208.553 142.212 211.823 144.623 214.234C147.034 216.645 150.304 218 153.714 218C157.124 218 160.394 216.645 162.805 214.234C165.217 211.823 166.571 208.553 166.571 205.143V153.714C166.571 150.304 165.217 147.034 162.805 144.623C160.394 142.212 157.124 140.857 153.714 140.857Z" fill="#282D33"/>
<path d="M102.286 89.4286C98.8764 89.4286 95.6061 90.7832 93.195 93.1944C90.7838 95.6055 89.4292 98.8758 89.4292 102.286V205.143C89.4292 206.831 89.7618 208.503 90.4079 210.063C91.054 211.623 92.0011 213.04 93.195 214.234C94.3889 215.428 95.8062 216.375 97.3661 217.021C98.926 217.667 100.598 218 102.286 218C103.975 218 105.647 217.667 107.207 217.021C108.766 216.375 110.184 215.428 111.378 214.234C112.572 213.04 113.519 211.623 114.165 210.063C114.811 208.503 115.143 206.831 115.143 205.143V102.286C115.143 98.8758 113.789 95.6055 111.378 93.1944C108.967 90.7832 105.696 89.4286 102.286 89.4286Z" fill="#282D33"/>
<path d="M205.143 89.4286C201.733 89.4286 198.463 90.7832 196.052 93.1944C193.641 95.6055 192.286 98.8758 192.286 102.286V205.143C192.286 208.553 193.641 211.823 196.052 214.234C198.463 216.645 201.733 218 205.143 218C208.553 218 211.823 216.645 214.235 214.234C216.646 211.823 218 208.553 218 205.143V102.286C218 98.8758 216.646 95.6055 214.235 93.1944C211.823 90.7832 208.553 89.4286 205.143 89.4286Z" fill="#282D33"/>
</g>
<defs>
<linearGradient id="paint0_linear_227_1752" x1="37.9998" y1="76.5714" x2="218" y2="76.5714" gradientUnits="userSpaceOnUse">
<stop stop-color="#3479F3"/>
<stop offset="1" stop-color="#7FE4FF"/>
</linearGradient>
<linearGradient id="paint1_linear_227_1752" x1="38.0004" y1="76.5714" x2="218" y2="76.5714" gradientUnits="userSpaceOnUse">
<stop stop-color="#3479F3"/>
<stop offset="1" stop-color="#7FE4FF"/>
</linearGradient>
<linearGradient id="paint2_linear_227_1752" x1="37.9998" y1="76.5714" x2="218" y2="76.5714" gradientUnits="userSpaceOnUse">
<stop stop-color="#3479F3"/>
<stop offset="1" stop-color="#7FE4FF"/>
</linearGradient>
<linearGradient id="paint3_linear_227_1752" x1="38.0006" y1="76.5714" x2="218.001" y2="76.5714" gradientUnits="userSpaceOnUse">
<stop stop-color="#3479F3"/>
<stop offset="1" stop-color="#7FE4FF"/>
</linearGradient>
<linearGradient id="paint4_linear_227_1752" x1="38" y1="76.5714" x2="218" y2="76.5714" gradientUnits="userSpaceOnUse">
<stop stop-color="#3479F3"/>
<stop offset="1" stop-color="#7FE4FF"/>
</linearGradient>
<linearGradient id="paint5_linear_227_1752" x1="38" y1="76.5714" x2="218" y2="76.5714" gradientUnits="userSpaceOnUse">
<stop stop-color="#3479F3"/>
<stop offset="1" stop-color="#7FE4FF"/>
</linearGradient>
<clipPath id="clip0_227_1752">
<rect width="256" height="256" fill="white"/>
</clipPath>
</defs>
</svg>
