<?xml version="1.0" encoding="UTF-8"?>
<svg xmlns="http://www.w3.org/2000/svg" version="1.1" width="256px" height="256px" style="shape-rendering:geometricPrecision; text-rendering:geometricPrecision; image-rendering:optimizeQuality; fill-rule:evenodd; clip-rule:evenodd" xmlns:xlink="http://www.w3.org/1999/xlink">
<g><path style="opacity:0.998" fill="#f3f1ec" d="M 48.5,-0.5 C 101.167,-0.5 153.833,-0.5 206.5,-0.5C 232.477,6.14393 248.811,22.4773 255.5,48.5C 255.5,101.167 255.5,153.833 255.5,206.5C 248.807,232.527 232.473,248.86 206.5,255.5C 153.833,255.5 101.167,255.5 48.5,255.5C 22.4734,248.807 6.14008,232.473 -0.5,206.5C -0.5,153.833 -0.5,101.167 -0.5,48.5C 6.14008,22.5266 22.4734,6.19324 48.5,-0.5 Z"/></g>
<g><path style="opacity:1" fill="#16161a" d="M 39.5,32.5 C 77.8348,32.3333 116.168,32.5 154.5,33C 157.937,34.1049 160.437,36.2716 162,39.5C 162.5,57.1635 162.667,74.8302 162.5,92.5C 179.837,92.3334 197.17,92.5001 214.5,93C 217.937,94.1049 220.437,96.2716 222,99.5C 222.667,137.833 222.667,176.167 222,214.5C 220.833,218.333 218.333,220.833 214.5,222C 176.167,222.667 137.833,222.667 99.5,222C 96.2716,220.437 94.1049,217.937 93,214.5C 92.5001,197.17 92.3334,179.837 92.5,162.5C 74.8302,162.667 57.1635,162.5 39.5,162C 36.2716,160.437 34.1049,157.937 33,154.5C 32.3333,116.167 32.3333,77.8333 33,39.5C 34.6941,36.6424 36.8607,34.309 39.5,32.5 Z"/></g>
<g><path style="opacity:1" fill="#fefefe" d="M 42.5,42.5 C 79.1667,42.5 115.833,42.5 152.5,42.5C 152.179,61.8797 152.513,81.2131 153.5,100.5C 154.025,101.192 154.692,101.692 155.5,102C 174.497,102.5 193.497,102.667 212.5,102.5C 212.5,139.167 212.5,175.833 212.5,212.5C 175.833,212.5 139.167,212.5 102.5,212.5C 102.821,193.12 102.487,173.787 101.5,154.5C 100.975,153.808 100.308,153.308 99.5,153C 80.5029,152.5 61.5029,152.333 42.5,152.5C 42.5,115.833 42.5,79.1667 42.5,42.5 Z"/></g>
<g><path style="opacity:1" fill="#17171b" d="M 75.5,62.5 C 84.8393,62.3335 94.1726,62.5002 103.5,63C 118.653,65.4532 124.819,74.2865 122,89.5C 119.732,97.4352 114.565,102.268 106.5,104C 101.231,105.106 95.8972,105.773 90.5,106C 89.6667,106.833 88.8333,107.667 88,108.5C 87.6667,114.167 87.3333,119.833 87,125.5C 86.5,126 86,126.5 85.5,127C 82.1667,127.667 78.8333,127.667 75.5,127C 74.3333,126.5 73.5,125.667 73,124.5C 72.3333,104.833 72.3333,85.1667 73,65.5C 73.6979,64.3094 74.5313,63.3094 75.5,62.5 Z"/></g>
<g><path style="opacity:1" fill="#f8f8f8" d="M 90.5,74.5 C 94.5138,74.3345 98.5138,74.5012 102.5,75C 108.83,80.1643 109.163,85.831 103.5,92C 89.7389,96.5753 84.5723,91.742 88,77.5C 88.6979,76.3094 89.5313,75.3094 90.5,74.5 Z"/></g>
<g><path style="opacity:1" fill="#17181b" d="M 135.5,127.5 C 145.172,127.334 154.839,127.5 164.5,128C 180.237,132.467 183.57,141.467 174.5,155C 172.5,156 170.5,157 168.5,158C 182.48,161.799 186.314,170.299 180,183.5C 175.682,188.576 170.182,191.409 163.5,192C 154.167,192.667 144.833,192.667 135.5,192C 134.692,191.692 134.025,191.192 133.5,190.5C 132.346,170.543 132.179,150.543 133,130.5C 133.698,129.309 134.531,128.309 135.5,127.5 Z"/></g>
<g><path style="opacity:1" fill="#f7f7f7" d="M 149.5,139.5 C 153.967,139.133 158.3,139.633 162.5,141C 165.667,145.979 164.667,149.979 159.5,153C 147.931,154.598 144.598,150.098 149.5,139.5 Z"/></g>
<g><path style="opacity:1" fill="#f8f8f8" d="M 150.5,164.5 C 155.297,164.121 159.964,164.621 164.5,166C 167.886,169.373 168.386,173.206 166,177.5C 165.097,178.701 163.931,179.535 162.5,180C 150.034,184.189 145.201,180.023 148,167.5C 148.698,166.309 149.531,165.309 150.5,164.5 Z"/></g>
</svg>
