<svg xmlns="http://www.w3.org/2000/svg" width="256" height="256" fill="none"><path fill="#242938" d="M60 0h136c33.1 0 60 26.9 60 60v136c0 33.1-26.9 60-60 60H60c-33.1 0-60-26.9-60-60V60C0 26.9 26.9 0 60 0z"/><path fill-rule="evenodd" clip-rule="evenodd" fill="#DD3735" d="M65.3 111.5c.3.2.7.3.3.7-.3.5-.7.9-1 1.4s-.5.6-.9.3c.5-.8 1-1.6 1.6-2.4zM201 182.4c0 .2.1.3.1.5.1-.3.1-.4.2-.5h-.3zm0 .6zm-25.9-53.5c-.1.2-.1.4-.1.6 0-.2 0-.4.1-.6zm0 1.4c-.1 0-.1 0-.1-.1v.1h.1zm-.1.5v-.5c-.2.1-.4.1-.7.1.4.2.7.3.7.4z"/><path fill-rule="evenodd" clip-rule="evenodd" fill="#DD3A0A" d="M227.6 115c-.1-2.6-.2-5.3-.5-7.9-.5-3.6-.9-7.2-1.8-10.8-.6-2.9-1.6-5.7-2.6-8.5-1.3-3.2-2.6-6.6-4.2-9.7-2.6-5-6.1-9.5-9.2-14.1-2.1-3-4.8-5.4-6.8-8.5-1.1-1.8-2.8-3.2-4.5-4.6-2.7-2.2-5.5-4.1-8.4-6-2.2-1.5-4.3-2.9-6.6-4.2-1.8-1-3.8-1.8-5.7-2.7-2.2-1-4.3-2.2-6.7-2.7-.6-.1-1.1-.3-1.8-.5-1.6-.5-3-1.1-4.6-1.6-2.4-.7-4.7-1.6-7.1-2.2-2.4-.6-4.8-1-7.2-1.4-2.7-.4-5.5-.5-8.2-.8-1.8-.2-3.5-.4-5.2-.5-2.6-.1-5.2-.1-7.8-.2-1.3-.1-2.6-.2-3.9-.1-2 .1-3.9.3-5.9.5-1.9.2-3.8.5-5.6.8-2.2.3-4.5.4-6.7.7-2.1.3-4.3.7-6.3 1-.7.1-1.5.4-2.2.5-1.6.3-3.3.5-4.9 1-2.9.9-5.8 1.9-8.6 3-2.6 1.1-5.2 2.2-7.7 3.6-2.6 1.4-5 3.1-7.4 4.7-2.3 1.6-4.6 3.2-6.8 4.9s-4.2 3.6-6.1 5.5c-1.1 1.1-2 2.4-3 3.6-1.7 2-3.4 3.9-5 5.9-1.3 1.7-2.6 3.4-3.8 5.2-2.3 3.1-4.2 6.4-6.1 9.7-.7 1.4-1.4 2.7-2.1 4.1-1 2-2.1 4-3 6.1-.7 1.4-1.2 3-1.6 4.5-.9 3.3-1.9 6.7-2.8 10-.8 3-1 6.1-1.1 9.1-.1 2.7.2 5.3.5 8 .1.7-.3 1.5.5 2-.3.7-.1 1.2.3 1.3-.5.7.2 1.2-.1 1.9-.1.1.2.4.3.6 0 .2-.1.5 0 .7.1.6.3 1.2.3 1.9 0 .5.4 1 .5 1.5.1.2 0 .5-.1.7-.4.5-.3.9.3 1.1.3.9.2 1.3.1 1.7.1.6-.1.8 0 .9.5 1.1.7 2.3.8 3.5 0 .3.1.5.3.9.1 0 0 1.3 0 1.3.3-.2.6-.3.9-.4.2.9.4 1.7.7 2.4.3.5.3.8.2.9.3 1.2.4 2.4.9 3.5 0-1.3-.1-2.6-.3-3.8.9.3 1.8.7 2.3.7.1-.2.1-.5.2-.6-.4-.4-.7-1-1.1-1.4.1.5 0 .7 0 .9-.3-.1-.6-.3-.9-.4.3-.3.5-.7.9-1.1 0-.6-.3-1.2-1.3-1.1.4-.1.8-.3 1.3-.5.7-.4-.1-1.1-.1-2.1.1-1.1-.6-2.3-.8-3.5-.3-1.9-.3-4.7-.5-6.6-.4-.3-.7.5-.8.6.2 1.6.4 3.2.5 4.9-.4-1.4-.7-2.8-1-4.5-.1.5-.1.7-.1.9-.3.3-.1.7.1 1.2-.5-.2-1-.1-1-.1v1.9c-.7-.7-.9-1.2-1.2-1.7-.1-.5-.2-1.1-.3-1.6.1-.3 0-.5 0-.7-.1-.5-.1-1-.2-1.6.1-.1-.1-1.1-.1-1.1.5.1.9.1 1.2.1-.7-.9-.2-1.4.1-2 .1-.3.6-.3.7-.6.5-1 1.4-1.8 1.4-3.1 0-.6.2-1.3.3-1.9.1-1.1.3-2.3.3-3.4.1-1.5 0-3 .3-4.4.5-2.4 1.2-4.7 2-7.1.5-1.7 1.1-3.3 1.8-5 1-2.6 2-5.3 3.2-7.8 1.8-3.7 3.9-7.2 5.9-10.8 1.3-2.2 2.6-4.3 4.1-6.5 1.3-2.1 2.7-4.3 4.3-6.2 2.2-2.8 4.5-5.3 7.2-7.6 2.7-2.4 5.3-4.9 8.2-7.2 3.8-2.9 7.8-5.5 12-7.7 3.4-1.8 7-3.2 10.6-4.6 2.3-.9 4.8-1.3 7.2-2 2.7-.9 5.4-1.3 8.2-1.4 1.8-.1 3.6-.3 5.4-.5 1.6-.1 3.2-.3 5-.5-.2.3-.3.4-.3.5-.7 1.1-1.5 2.2-2.3 3.2-.6.9-1.3 1.8-1.9 2.7-1.1 1.4-2.2 2.8-3.2 4.3-1.6 2.2-3 4.5-4.6 6.8-1.6 2.2-3.4 4.2-5.1 6.3-2.2 2.9-4.3 5.9-6.5 8.8-2 2.8-4.2 5.4-6.1 8.2-1.8 2.4-3.3 5-5 7.5L77 94.7c-2 2.8-3.9 5.6-5.9 8.5-.1.2-.3.3-.5.4-.5.9-.5 1.4-.7 1.8-.5 1-1.1 2-1.7 3-.3.5-.8 1-1.2 1.6-.1-.8 1.1-1.2.5-2.2-.3.5-.7 1-1 1.6l-.8 1.6c.3.2.7.3.3.7-.2.3-.4.7-.6 1.1.3-.2.5-.4.7-.7 0 .7-.4 1.4-.7 2-.3.5-.9.9-1.4 1.4.1.1.5.3.6.3.6-.2.8-.5.9-.3.2-.3.4-.5.5-.7.3-.7.7-1.2 1.3-1.5.3-.1.5-.3.7-.5 2-2.1 4.1-4.1 5.9-6.4 2.8-3.5 5.4-7 8.1-10.5 1.1-1.5 2.5-3 3.7-4.4.2 1.6.1 3 0 4.5-.2 2.5-.3 5-.5 7.6-.1 1 0 2-.1 3 0 .3-.2.5-.2.7 0 .7.2 1.4.2 2.1-.2 2.5-.5 4.9-.7 7.4-.1.5.2 1.1.3 1.6-.3 3.6.4 7.5-.2 11.4.5-.7.6-1.2.6-1.7.1-.4 0-.8 0-1.3v-.7c.1-1.2.3-2.5.2-3.7-.1-1.4-.1-2.6.1-3.9.1-.5-.1-1.2.3-1.9v1c-.1 3.9.1 7.7-.5 11.6-.1.3.2.9-.5.9-.6 1.2.1 2.1-.5 2.8-.1.1.1.7.2 1.1-.3.8-.3.8.1.9.1 1.5.2 2.8.3 4.3 1.1-2.6.5-5.2 1-7.8.1 1.1.1 2.2.1 3.3 0 1.8-.1 3.5-.1 5.2 0 .3-.1.7-.1 1-.2.9-.3 1.9-.6 2.8-.3.7-.1 1.7-.1 2.5v2.6c.3 1.1-.1 1.8.1 2.4-.2.7-.3.9-.2 1.1l.2 1c1.4-.1.7.9 1.3 1.4-.4.5-.3.7-.3 1 0 .6-.1 1.1-.1 1.8 0 1.6-.1 3.1-.1 4.6 0 .2.1.4.1.6 0 .1-.1 1.9-.1 1.9.1.2 0 .4-.2.6-.1 0-.3-8.6-.3-8.6h-1c-.1 4.1.2 7.7-.5 11.5-.8.1-1.1.2-2 .2-2.1 0-4.2 0-6.3.1-2.5 0-4.9.1-7.4.1-1.2 0-2.5.1-3.7.1-1.6 0-3.3-.2-4.9-.2-2.5 0-4.9.2-7.4.3-1.8.1-3.6.1-5.5.1-1.2.1-2.4.1-3.6.3-.5.1-1 .3-1.7.5-.2 0-.7-.1-1.1 0-.7.1-1.3.5-2 .7-1 .2-1.3.5-1.1 1.5v.7c-.1.1 1.5-.2 1.5-.2-.1 0-.2.4-.4.7.5-.2.9-.3 1.2-.5 1 .5 1.9.2 2.7.4 2.6.7 5.3.9 8 1.2 1.8.1 3.4.2 5.2.3 2.5.1 5 .3 7.5.3 2.1 0 4.1-.2 6.2-.2 2.9 0 5.8.1 8.7.2.6 0 1.3-.1 2-.1h4.9l13.2-.3c2.5-.1 5.1-.2 7.6-.3l7.7-.2c3-.1 5.9-.1 8.8-.1 2.2 0 4.4-.1 6.6-.1 2.5-.1 5.1-.3 7.6-.4 1.4-.1 2.7-.2 4.1-.3 1.6-.1 3.3-.3 4.9-.4 2.4-.1 4.9-.2 7.4-.3 3-.2 6.1-.5 9.2-.5 2.8-.1 5.7-.1 8.6-.1 2.5-.1 5-.2 7.6-.3l4.3-.2s2.8-.1 4.3-.2c2.4-.1 4.9-.4 7.3-.5 1.5-.1 3.1 0 4.7-.1 2.5-.1 5.1-.2 7.6-.2.9 0 2 .1 3.2.2-.5.5-.9.7-1.3 1.1.3.1.5.2.8.3-.4.3-.7.3-1.1.3-.1.3-.3.5-.4 1.2h1.2c-.5 0-.9.6-1.3 1-.5-.1-1 0-1.3.7.5.3.4.5.3.7-.8.3-1.4.5-1.1 1.4-.3.1-.6.3-.9.5-.3.5-.9.7-.8 1.4.3.1.5.2.7.3-.3.1-.7.3-1 .5-1.2.7-.7 1.1-.4 1.4-.2.1-.4.3-.6.3.1.6.3.7.4.7-.3.2-.6.5-1 .8-.2.6-.5.9-.7 1.3-.3.4-.4.9-.7 1.4-1.4 1.6-2.4 3.4-4.3 4.6-.7.5-1.3 1.1-1.9 1.7-1.2 1.1-2.3 2.4-3.6 3.5-1.7 1.4-3.4 2.7-5.3 4-2.2 1.6-4.5 3.1-6.7 4.6-1.2.8-2.6 1.4-3.8 2.2-1.3.7-2.5 1.4-3.8 2.2-.8.5-1.6 1.3-2.4 1.7-2.2.9-4.6 1.8-6.9 2.6-2.2.9-3.8 1.8-5.5 2.4-1.6.5-3.2.9-4.8 1.3-.5.1-1.1 0-1.8.1-1.1.2-2.3.5-3.4.6-3 .4-5.9.7-8.9 1.1-1.8.2-3.4.5-5.2.7-1.2.1-2.5-.1-3.7-.1-.9 0-1.8.2-2.7.1-1.4-.2-2.8-.5-4.3-.8-.3-.1-.8-.2-1.1-.1-.5.3-1-.1-1.6 0-.3.1-.7-.2-1-.2-.3-.1-.6.1-.9 0-.7-.2-1.4-.5-2.2-.4-.8.1-1.6-.3-2.5-.5-1.2-.3-2.4-.5-3.6-.8-.5-.1-.9-.3-1.3-.6-1.8 0-2.9-.1-4-.5-.9-.3-1.8-.8-2.8-.7-.3.1-.5-.1-.7-.1-.2-.3-.4-.8-.6-.8-1.3.1-2.2-1.1-3.3-1.4-.6-.2-1.1-.9-1.7-1.1-1.5-.6-2.7-1.9-4.4-2.1-.5-.1-1.1-.3-1.7-.5.2.3.3.5.5.7-2-.9-3.8-2-5.6-3-.3-.1-.5-.3-.7-.5l-1.8-1.2c-1 .2-1.4-.2-1.7-.3-1.8-1.3-3.9-2.1-5.7-3.5-.7-.6-1.6-1-2.2-1.8-.9-1.1-2.1-2-3.4-2.6-1-.5-2-1.1-2.9-1.8-.5-.3-.9-.7-.9-1.5 0-.5-.2-.9-.8-.7-.3-.4-.5-.9-.9-1-.8-.3-1.3-.9-2-1.5-.6-.5-1.1-1.3-1.8-1.6-1.4-.5-2.2-1.7-3-2.6-1.9-2.2-3.6-4.7-5.3-7-.1-.2-.4-.3-.6-.5.3.7.6 1.4.9 2-.7-.3-1.1-.7-1.5-1.2-.1.1 4.7 7.8 4.7 7.8.4.6.7 1.2 1.1 1.8-1 .1-1.7-.5-2-1.1-.6-1.1-1.3-1.8-2.6-1.6-.1-.5-.3-1-.3-1.5-.3 0-.5 0-.9-.1.9 1.5 1.8 2.8 2.6 4.3-.3-.2-.5-.3-.7-.4 1.2 1.3 2.1 2.9 3.6 3.7.3 1.6 2.1 2.3 2.5 3.8-.3-.1-.6-.1-.9-.2-.5-.7-1.1-1.4-1.8-2.1.1.5.3.9.6 1.2.8 1 1.6 2 2.5 2.9.3.3.8.5.8 1.1.5.3.7.3.9.3.1.4-.1 1 .7.9.5 1 1.1 1 1.8.7.9.9 1.4.9 2 .4 0 .3.1.7.1.9.3-.1.2-.3.2-.7.3.3.5.4.7.5.7.9 1.3 1.8 2.2 2.6 1.3 1.1 2.4 2.2 3.6 3.2 2.4 2 5 3.6 7.6 5.1 3.2 1.8 6.4 3.8 9.7 5.5 4 2.1 8.2 3.5 12.6 4.5 1.6.3 3.2.7 4.8 1.1 1.4.4 2.8 1 4.3 1.4 2.2.5 4.4.9 6.5 1.3.5.1.9.1 1.5.2s1.3-.1 1.5.1c.3.5.6.3 1 .2.5-.1 1-.1 1.6-.1 1.9.1 3.7.5 5.6.3.4 0 1-.3 1.4.3.6-.3.9-.3 1.2-.3.1.6 0 .6-.1.7-.1.1-.3.1-.6.3 2.4.5 4.7.5 6.7 0 3.5.3 6.6-.1 9.5-1.1.3.3.5.8.9.1.1-.2.5-.3.7-.3.6-.1 1.3-.4 1.9-.2.6.2.8-.3 1.3-.3.8 0 1.6-.1 2.3-.2.4-.1.8-.3 1.3-.4-.5-.3-1.1-.3-1.5-.3.8-.4 1.6-.7 2.3-1.1-.1.2-.3.5-.5.5h.9c-.2 0-.5.6-.8 1 2.4-.6 4.7-1.1 6.8-1.7-.7-1.4.8-.9 1.3-1.8-.7.2-1.3.4-2 .5 2.3-1.1 4.7-2.2 7-3.2-.3.4-.7.6-1.3.9.4.1.7.1.9.1 1.1.3.8-.7 1.1-1.3 1.3 0 1.8-.2 2.4-.4.7-.2 1.3-.4 2-.7 1.1-.5 2.1-1.1 3.2-1.6.2-.1.5 0 .8 0 .7-.5 1-.9 1.2-.8.9.1 1.6-.2 1.9-1.1.5-.3.8-.6 1.1-.8 1.5-.8 2.9-1.6 4.4-2.4.5 0 .8 0 .9-.1.9-.4 1.7-.9 2.5-1.4-.2-.1-.7-.3-.7-.3.7-.1.9-.2 1.3-.3 1.6-1.9 3.8-3.2 5.5-4.7.7-.1.7-.3.7-.4.3-.3.5-.7.9-1 1.5-1.4 3.1-2.5 4.5-3.9 2-2 3.8-4 5.6-6.1 1.6-1.9 3.2-3.8 4.6-5.9 1.9-2.9 3.5-5.9 5.2-8.9 1.2-2.2 2.3-4.3 3.5-6.5.1-.2.4-.5.6-.5 1.8-.2 3.6-.3 5.4-.5.4-.1.9-.3 1.3-.5-.2-.3-.3-.7-.5-1.1-.3-.4-.7-.7-.9-1.2-.3-.3-.5-.7-.7-1.1l-.6-.9c-.4-.7-.8-1.5-1.2-2.3-.1-.2-.2-.5-.1-.7 1.2-2.6 1.7-5.5 2.8-8.1 1.1-2.7 1.5-5.7 2-8.7.5-2.8.7-5.5 1.1-8.3.2-2 .5-3.9.5-5.8.4-3.1.3-6 .2-8.9-.7-2.8-.9-5.4-1-8zM58.2 198.2c-.5-.5-.9-1.1-1.3-1.7l.2-.2c.7.8 1.5 1.6 2.2 2.5-.4-.1-.9-.3-1.1-.6zm1.1.7c.2-.1.4-.1.6-.1.2.3.3.7.5 1.1-.9-.1-1.4-.5-1.1-1zm70.2 27.9v-.2c1.3-.1 2.5-.3 3.8-.4v.2c-1.3.2-2.5.3-3.8.4zm17-1.8c-.9.2-2 .3-2.9.5-.3.1-.7.4-.9-.2-.1.1-.3.1-.4.1.3 1 1.1.2 1.8.6-1.5.2-2.9.3-4.3.5v-.1c.4-.1.9-.1 1.3-.2v-.2c-.7-.1-1.3-.1-2-.1-.2 0-.5.3-.7.3-.3.1-.5.1-.9.1-1.1.1-2.3.1-3.4.1-.1 0-.2-.1-.3-.1v-.2l13.5-1.8c.1.1.1.3.1.4-.3.1-.6.3-.9.3zm1-.6c1.6-.2 3-.3 4.5-.5-3.1.8-4.2.9-4.5.5zM88.7 87.8c2.2-3 4.4-6 6.5-9 .7-.9 1.2-1.8 1.9-2.7.2-.3.5-.4.8-.7l-.1-.1c.3-.3.5-.6.7-.9.3-.5.5-1.1.8-1.8l.3-.3c.9.5.9-.5 1.3-.9l1.8-2.1c.4-.5.8-1 1.1-1.6.1-.2-.1-.5-.2-.8h-.2c.2-.1.4-.3.6-.5.1 0 .1 0 .1-.1l1.2-1.8c.8-1.1 1.7-2.2 2.6-3.1-.1.3-.3.7-.4.9.1 0 .1.1.1.1.8-1.1 1.7-2.1 2.5-3.2-.1-.1-.1-.1-.2-.1-.3.3-.6.7-.9 1-.1-.1-.1-.1-.2-.1.7-.9 1.4-1.8 2-2.8.1.2.3.5.5 1 .3-.7.5-1.1.7-1.6-.2.2-.5.4-.7.6l-.2-.2 1.2-1.8c1.3-1.8 2.6-3.7 3.8-5.5.5-.7 1.1-1.2 1.5-1.9 1.3-2.6 3.3-4.6 4.9-7 .3-.5.8-.9 1.2-1.3.3-.4.6-.3.9.1 1.8 2.3 3.6 4.7 5.5 7 1.4 1.7 2.7 3.3 4 5.1 1.6 2.2 3 4.3 4.6 6.5 1.8 2.5 3.5 5 5.2 7.6 2.6 3.8 5 7.6 7.6 11.4 1.9 2.8 3.8 5.5 5.6 8.3h-3.4c-3.2-.1-6.4-.3-9.6-.2-4.3.2-8.7.7-13 1-5.5.5-11 .5-16.5.5-2 0-3.9.3-5.9.4-2.4.1-4.7.3-7 .3-2.8.1-5.5.2-8.2.3-1.5.1-3.1 0-4.8 0zm77.4 31.1v.6c-.1 0-.1.1-.3.1-.3-.9-.5-2-.9-2.9-.7-2-1.4-3.9-2.6-5.7-1.4-1.9-2.6-3.9-3.9-5.8-.3-.5-.8-.9-1.2-1.3-1.4-1.6-2.8-3.2-4.7-4.3-2.7-1.7-5.5-3.1-8.4-4.3-.8-.3-1.6-.7-2.4-1.2h1.6l11.5-.2c2.5-.1 4.9-.1 7.4-.2.6 0 .9.2 1.3.7.6 1 1.2 2 1.9 3 .1.1.2.3.2.5 0 1.5 0 3 .1 4.5.1 1.6.2 3 .3 4.6 0 1.6-.1 3.2-.1 4.8.2 2.4.2 4.7.2 7.1zM93.5 96.3c3.2-.1 6.2-.3 9.3-.5 2.4-.1 4.9-.2 7.4-.3 1-.1 2-.1 3 0-1.1.5-2.2 1.1-3.1 1.8-1.2.8-2.4 1.9-3.6 2.8s-2.3 2-3.3 3.1c-1.3 1.6-2.7 2.9-4.1 4.4-.9 1.1-2 2.1-2.8 3.2-1.1 1.5-2.2 3.1-3.2 4.8.2-6.5.7-12.8.4-19.3zm44.1 65c-2.2.5-4.4 1.1-6.6 1.4-1.9.3-3.8.2-5.8.2-1.8 0-3.4-.1-5.2-.2-2-.2-3.9-.4-5.8-1.3-1.6-.7-3.3-1.4-4.9-2.2s-3.2-1.8-4.5-3.2c-.9-1.1-2.1-2-3.2-2.9.2.8.7 1.5 1.4 2-.3.4-.8.2-1.5-.9-.2.1-.4.2-.5.3.2-.5.4-.9.6-1.4-.3-.5-.6-1.1-.9-1.7-.5-.9-1.1-1.8-1.6-2.7-.1-.2-.1-.4-.3-.6-.3-.4-.7-.8-.9-1.2-.5-.8-1-1.7-1.7-2.5 0 .2.1.4.1.7-.1 0-.1.1-.1.1l-1.4-3.4c-.1 0-.1 0-.1.1l1.2 4.5c-.1 0-.1.1-.2.1-.2-.3-.4-.5-.5-.9-.1-.5-.5-.5-.9-.3-.2.1-.3.6-.3.8.5 1.1 1 2.3 1.6 3.4.1.4.3.7.5 1.1.1.1.3.3.3.5.3.5.5 1.1.8 1.6.6.8 1.3 1.6 1.9 2.4.6.8 1.1 1.7 1.7 2.5.1.1.3.1.3.2.3 1 1.5 1.8 2.3 1.4.2 1.6 1.9 2.1 2.6 3.6-.8-.3-1.4-.6-2-.9-.1.1-.1.1-.1.3.8.4 1.6.8 2.4 1.3.7.4 1.4.8 2 1.3.8.7 1.8 1.2 2.9 1.4-.1-.2-.1-.3-.1-.3 1.9.9 3.8 1.8 5.3 2.6-7 .1-14.5.3-22.3.4 0-1.3-.1-2.5-.1-3.8 0-.5.1-1 .1-1.6-.2-3.1-.2-6.2-.6-9.3-.4-3.2-.4-6.4-.3-9.7.1-1.8-.1-3.6-.1-5.3 0-2.4 0-4.7.1-7 0-.3.1-.6.3-.9h.2c.1.1 0 .3.1.4.2.2.5.5.7.5.4-.3 1-.5 1.1-.9.3-.8.5-1.7.5-2.5 0-.6.3-1 .5-1.4.1-.2.2-.4.3-.7-.3-.2-.5-.3-.9-.6.3-.7.2-1.6 1.2-2 .1-.1.1-.4.2-.6.1-.5.1-1.2.2-1.7.1.2.2.3.3.4.1-.1.1-.2.1-.2 0-.3-.1-.8 0-.8.8-.1.5-1 .9-1.4.1-.1-.1-.3-.1-.4s0-.3.1-.3c.9-.2.8-1.2 1.4-1.7.2-.1.3-.3.5-.7.5.9-.4 1.4-.5 2.1 1.1-.7 1.5-2.3.8-2.8.3-.2.5-.5.7-.7.7-.8 1.5-1.6 2.2-2.4.5-.6.7-1.4 1.2-2 .3-.3.8-.6 1.2-.8 1.2-.7 2.4-1.4 3.1-2.6.1-.1.3-.3.5-.4s.6-.1.7-.3c.1-.1-.1-.5-.3-.7.3-.1.5-.4 1.1-.7-.2.4-.3.7-.4.9l.3.3c.6-.5 1.6-1 2.2-1.4 0-.1-.3-.3-.3-.3l-1.6.8c.1-.2.1-.3.2-.4.9-.6 1.9-1.2 2.9-1.7 2.4-1.1 4.7-2.2 7.1-3.2.4-.2.9-.1 1.4-.1.2 0 .3 0 .5-.1 1.1-.3 2.2-.7 3.2-.9.5-.1 1-.2 1.5-.2 2 .1 4 .1 6.1.2.9.1 1.7.3 2.5.5 1 .3 2.1.8 3 1.3 1.1.6 2.2 1.3 3.3 2 2 1.3 3.8 2.7 5.7 3.9 1.9 1.1 3.4 2.7 4.6 4.5 1.5 2.1 3.2 4 3.8 6.6l1 4.5c.2.8.7 1.6.5 2.6-.3 1.7-.6 3.5-.9 5.1-.1.7-.3 1.4-.2 2 .1 2.1-.7 3.9-1.5 5.8-.3.6-.7 1.2-1 1.9.1.1.5.3.5.3l.6-1.2c.1 0 .1 0 .1.1-.3.9-.6 2-.9 2.9-.8 2.1-1.6 4.3-2.6 6.3-.5 1.1-1.5 2.1-2.2 3.2-.7.9-1.2 2-1.9 2.8-.6.7-1.2 1.5-2 2-1.8 1.4-3.7 2.7-5.7 3.8-1 .4-2.4.8-3.7 1.1zm-36-3.6c-.2 0-.4-.1-.5-.2l-1.6-2.4c-.1-.2-.2-.4-.1-.7.6 1.2 1.4 2.3 2.2 3.3zm42 9.3c3-1.3 5.5-3.1 7.8-5.2.3-.3.7-.7 1.1-.9 2.8-1.8 4.9-4.2 6.8-6.9 2.2-3.1 3.6-6.6 5.3-9.9.1-.3.3-.5.4-.7-.1 7.7.7 15.3 1.8 22.9-7.6.2-15.4.4-23.2.7zm68.5-2c-.1.1-.2.3-.3.4-.1-.1-.1-.3-.1-.6-.4 1.1-1.3.5-1.9.5-3.6.1-7.4.1-11 .1-3.5 0-7.1 0-10.6.1-1.1 0-2.4.3-3.5.3-2.8.1-5.5.2-8.3.3-.2 0-.4-.3-.7-.6-.1.1-.2.3-.4.6-.1-.1-.2-.3-.3-.5-.1.2-.1.4-.2.5h-.2c-.1-.9-.4-1.8-.4-2.8 0-2 .2-4.1.3-6.1.1-.9 0-1.8 0-2.7.3.2.5.3.7.5.1-.3.3-.5.4-.7 0 0-.1-.1-.3-.2.1-.1.3-.2.3-.3.1-.2.2-.4.2-.5 0-.5-.1-.9-.2-1.3.1 0 .1 0 .2-.1l.4 2h.2c-.3-.5.6-.9-.1-1.4-.1-.1.1-.5.1-.7-.2-.4-.3-.8-.5-1.4.1-.1.3-.1.5-.2-.3-.1-.5-.3-.7-.3.7-.6.7-.9.1-1.6.1-.1.3-.1.3-.1 0-.6 0-1.2-.1-1.8-.1-.7.2-1.5-.8-1.9.1.2.1.3.3.5l-.4.2c-.9-.8-.3-1.9-.5-3.1.5.1.8.3 1.1.4-.1-.5-.5-1-.7-1.6h-.3v-4.5c0 .1.5.1.7.1 0-.1.1-.1.1-.2-.2-.3-.5-.5-.7-.9l.1-.1c-.5-.7-.3-1.6-.3-1.8v-4.7c.7.7-.3 1.6.7 2v-.7h-.1c-.1-1-.1-2-.1-3h-.1c-.1.1-.1.2-.1.3h-.1l.4-16.2c.7.9 1.4 1.7 1.9 2.6 1.6 2.8 3.6 5.3 5.5 7.8 1.6 2.2 3.1 4.7 4.6 7 1.8 2.8 3.6 5.5 5.4 8.3 1.3 2.1 2.8 4.2 4.2 6.2 1.3 1.8 2.6 3.6 4 5.3 1.1 1.6 2.4 3.1 3.5 4.7 1.4 1.9 2.7 3.8 4.1 5.6.7.9 1.4 1.9 2.2 2.8.4.5 1 .9 1.4 1.3-.1 0-.1 0-.3-.1.2.3.3.5.5.6.2.7.3 1.1-.1 1.7zm3.4-16.9v-.5c0 .1.1.3 0 .5zm2.3-29.9c-.1 0-.5-.4-.5-.5-.1.2 0 .4-.1.7-.1-.2-.5-.1-.5-.3-.1.9.4 1.9.3 2.8.2-.1 1-.2 1.2-.4.1.1.2.1.3.1-1.4 1-1 2-.4 3.2.1.3.5.8.1 1.4-.1.1.1.5.1.9h.2v.1l-.6.2c-.1-.2-.9-.6-.9-.9v3.5c.7.2.7 1.1.9 1.6.1-.2.2-.3.3-.5l.1.1c-.1.4-.1.8-.3 1.2-.1.6-.3 1.1-.3 1.8 0 .1.1.2.1.3-.7 1.7-.3 3.6-.6 5.3-.2 1.3 0 2.6-.1 4-.1 1.1-.4 2.4-.7 3.5-.1.2-.2.3-.5.4.1-.8.1-1.4-.1-2.1-.1 0-.9-.5-1-.5 0 .9.5 2.2.7 3.3-.2-.1-1-.5-1.1-.5-.1.8-.1 1.9-.2 2.8-.1.7-.7 1.3-.7 2 0 .4.5.7.4 1.4h.5c0-1.4.6-2.6.6-4h.2c.1.1.3.3.2.3-.1.7-.4 1.6-.3 2.3 0 .4.3.8.2 1.3-.1.4-.2.8-.3 1.4-.1-.3-.1-.5-.1-.7-.1 0-.7-.1-.7-.1-.1.4.5.8.4 1.1-.1.1-.1.1-.3.1l-2.2-3.2c-1.8-2.6-3.5-5.1-5.3-7.8-.5-.7-.9-1.4-1.2-2-2.1-3.6-4.4-7-7-10.4-2-2.5-3.5-5.2-5.3-7.8-1.7-2.5-3.4-4.9-5.1-7.4-.6-.8-1.3-1.6-1.9-2.4-1.8-2.8-3.3-5.6-5.1-8.4-1.5-2.3-3.1-4.5-4.7-6.8-.5-.7-1.1-1.6-1.6-2.4-.1-.1-.1-.3-.1-.5-.1-1.5-.3-3-.3-4.4s.1-2.7.1-4.1V86c0-.3.1-.6.1-.9.1-.1.1-.2.2-.3-2 0-4-.1-5.9 0-1.3.1-2-.5-2.8-1.4-2.6-2.9-4.5-6.2-6.7-9.3-2.1-3-4.3-5.9-6.4-8.8-1.8-2.4-3.5-4.7-5.3-7-2-2.7-3.8-5.4-5.9-8.1-2.4-3.2-4.9-6.5-7.4-9.7-1.2-1.5-2.4-2.9-3.7-4.5.9.1 1.7.3 2.5.3l3.2.2c2.4.2 4.9.3 7.3.7 2 .3 4.1.7 6.1 1 4.5.7 8.8 2 13.1 3.4 2.5.8 4.9 1.9 7.4 2.9 5.5 2.2 10.7 4.9 15.8 7.8 1.6.9 2.6 2.3 3.8 3.6 1.8 1.8 3.5 3.7 5.2 5.5 2 2.2 3.8 4.5 5.7 6.8 1.7 2 3.4 4.1 5.1 6.1.5.6.9 1.4 1.4 2 1.1 1.6 2.3 3.2 3.2 4.9.7 1.3 1.1 2.8 1.5 4.2.7 2.1 1.3 4.1 2 6.2.5 1.6.9 3.2 1.2 4.8.3 1.1.2 2.2.5 3.3.4 1.4 0 3 .4 4.4.1.1.1.3.2.5.3.3.5.5.1.9-.1.1-.1.3 0 .5.1-.1.2-.3.3-.5 0 .1.1.2.1.3 0 .3-.1.5 0 .8 0 .1.1.3.2.5.1-.1.3-.2.5-.4.6 2.3.7 4.6.7 7 0 2.2.4 4.5-.5 6.6.2-.7-.2-1.4 0-2.1z"/><path fill-rule="evenodd" clip-rule="evenodd" fill="#DD3735" d="M174.7 144.5c.1 0 .1.1.1.1l-.1-.1zm10.6 66.9c-.7.5-1.5 1-2.4 1.2-.1-.1-.1-.1-.1-.2.7-.5 1.6-.9 2.3-1.4 0 .1.1.2.2.4zM58.7 119.7c.7-.9 1.5-1.9 2.3-2.8.1.1.6.2.7.3-.7.9-1.8 2.2-2.5 3.2-.2-.1-.4-.6-.5-.7zm-19.2 33.2c-.5-1.1-1.1-2.4-1.6-3.5.1-.1.5-.3.6-.3.7 1.1 1.1 2.4 1.6 3.5.1 0-.5.3-.6.3zm17.3-32.5c-.4.6-.8 1.3-1.2 1.9-.1-.1-.8.3-.9.2.4-.6 1.4-1.7 1.8-2.3.1.1.1.1.3.2zm121.3 93.8c.1 0 .1-.1.1-.1.5.1 1 .1 1.6.1-.9.6-1.4.6-1.7 0zm-121.2-91l.3-.6c.1 0 .3-.1.3-.1.3-.5.3-.8.5-1.2-.1-.1-.1-.1-.2-.1l-1.2.9c.1.1.1.2.1.3-.5-.1-.7.2-1 .9-.1.2-.4.3-.7.5-.1.1-.1.5-.3.8l.1.1c-.1.1-.3.2-.3.2-.4.4-.9.7-1.3 1.1-.1.2-.1.4-.1.6.5-.5 1.3-1.4 1.9-1.9l.1.1c.3-.4.5-.8.7-1.2.1.1.1.1.1.2-.2.5-.4 1.1-.6 1.7-.1.1-.3.2-.3.1-.3.2-.5.5-.7.7l-1.2.8c-.7.6-1.3 1.1-2.1 1.8-.5.7-.9 1.4-1.5 2.3.8-.2 1 .1.9.8.9.1 1-.6 1.3-1.1.1-.1.1-.4.3-.5.6-.5 1.3-1 2-1.6.1-.1.1-.4.1-.6 0-.1-.3-.1-.5-.1.6-.7 1.5-1.8 2.1-2.6.3-.2.7-.5.7-.7-.1-.7.4-.9.9-1.2-.3-.1-.4-.3-.4-.4z"/><path fill-rule="evenodd" clip-rule="evenodd" fill="#DD3735" d="M58.2 122.5c-.3.5-.5.9-.8 1.4l-.4-.2c-.3 1.6-1.2 2.9-2.2 3.2.3.1.5.3.7.2.2-.1.3-.4.5-.6l1.8-2.6.6-1-.2-.4zm-22.4 29.7c.3 0 .7.1 1.1.1 0-.3.3-.2.3-.5h.2c0 .3.1.6.1.9H36s-.3-.4-.2-.5zm-.6-3.1c-.2-.2-.5-.4-.5-.6-.1-.3.1-.6.3-.9.1.5.2.9.3 1.4 0-.1-.1 0-.1.1zm1.7-4.4c.3.7.5 1.4.8 2.1-.1 0-.5.2-.5.3l-.9-2.1c.1 0 .5-.2.6-.3zm150.3 64.7c.3-.1.7-.2 1.3-.3-.6.5-1.1.8-1.5 1.2-.1-.1-.1-.1-.2-.1.1-.3.3-.5.4-.8zm-83-142.9c.4-.3.7-.5 1.1-.7l.1.1c-.4.5-.7 1.1-1.2 1.8v-1.2c-.1.1-.1.1 0 0zm19.8 34.2c.6-.3 1.2-.5 2-.9-.1.4-.1.7-.1.9-.2-.1-.5-.1-.7-.1-.4.1-1.1.6-1.5.7 0 0 .3-.5.3-.6zm50.7 57.4c.1.7 1.4 1 .1 1.7l.6.3c0 .1-.1.2-.1.3-.1.1-.4.2-.5.1-.1 0-.2-.3-.2-.4-.1-.6 0-1.2.1-2z"/></svg>