<svg width="256px" height="256px" viewBox="0 0 73 73" version="1.1" xmlns="http://www.w3.org/2000/svg" xmlns:xlink="http://www.w3.org/1999/xlink" fill="#ffffff"><g id="SVGRepo_bgCarrier" stroke-width="0"></g><g id="SVGRepo_iconCarrier"> <title>databases-and-servers/databases/postgresql</title> <desc>Created with Sketch.</desc> <defs> </defs> <g id="databases-and-servers/databases/postgresql" stroke="none" stroke-width="1" fill="none" fill-rule="evenodd"> <g id="container" transform="translate(2.000000, 2.000000)" fill="#FFFFFF" fill-rule="nonzero" stroke="#091E2E" stroke-width="2"> <rect id="mask" x="-1" y="-1" width="71" height="71" rx="14"> </rect> </g> <g id="postgresql-original" transform="translate(10.000000, 13.000000)" fill-rule="nonzero"> <path d="M37.1548522,37.2802062 C37.4796143,34.5774409 37.3823925,34.1806933 39.3955038,34.6188119 L39.9064353,34.6634925 C41.4545369,34.7338232 43.4796457,34.4144393 44.6694747,33.8617232 C47.2307513,32.6731353 48.7490658,30.6893974 46.2241957,31.2102579 C40.4637022,32.3988458 40.067782,30.4482047 40.067782,30.4482047 C46.1505554,21.4231281 48.693215,9.96626607 46.4980715,7.16172818 C40.5116925,-0.487349997 30.1495063,3.12971369 29.9761619,3.22321208 L29.9207248,3.23355482 C28.7826095,2.9973266 27.5087974,2.8562516 26.0777757,2.83308385 C23.470991,2.79005805 21.493045,3.51653224 19.99252,4.65423384 C19.99252,4.65423384 1.50673064,-2.96174756 2.36683305,14.2320265 C2.54969273,17.8896338 7.60936205,41.9083764 13.6445588,34.6535635 C15.8504588,32.0008571 17.981891,29.7577232 17.981891,29.7577232 C19.0401604,30.460616 20.3077668,30.8197159 21.6366023,30.6906385 L21.739616,30.6029321 C21.7073466,30.932245 21.7214128,31.2545248 21.7805733,31.6359651 C20.226266,33.3731321 20.6830015,33.6780361 17.5748007,34.3176313 C14.4297798,34.9655006 16.2774072,36.1193369 17.4833709,36.4209312 C18.9458346,36.7866506 22.3287386,37.3046151 24.6148982,34.1049845 L24.5238821,34.4698764 C25.1336902,34.9580538 25.0927329,37.9768933 25.1787845,40.1335619 C25.2652499,42.2906441 25.4096345,44.3033417 25.8494079,45.4902747 C26.2891813,46.6767941 26.8079732,49.7332812 30.8929426,48.8578715 C34.3068748,48.1280876 36.9169691,47.0751965 37.1548522,37.2802062" id="Shape" fill="#000000"> </path> <path d="M29.562866,50.9921997 C27.7561958,50.9921997 26.5796055,50.2934441 25.8651289,49.6186836 C24.7865878,48.6009578 24.358812,47.2899118 24.1031394,46.5067594 L23.9926789,46.1799288 C23.4780241,44.7906917 23.3034386,42.7904054 23.2000112,40.214649 C23.1842902,39.8278304 23.1735337,39.429428 23.1615362,39.0070304 C23.1528483,38.6979893 23.1420918,38.3103433 23.1263708,37.9049078 C22.4838797,38.2118804 21.7971216,38.4303191 21.0735434,38.5536046 C19.7997313,38.7712159 18.4303523,38.7008853 17.0026402,38.3438538 C15.9952572,38.0919046 14.9485717,37.569803 14.3520023,36.7634828 C12.6131806,38.2863482 10.9546185,38.079907 10.0510766,37.7783127 C8.45705318,37.2466957 7.03058222,35.7527901 5.68974916,33.212199 C4.73449352,31.4022192 3.81067982,29.044074 2.94354434,26.202716 C1.43350402,21.2547483 0.474111288,16.0432475 0.388887094,14.3321443 C0.120803225,8.97667253 1.56258144,5.14654836 4.67326449,2.94933627 C9.58027494,-0.516723384 17.0150515,1.52162418 19.7256773,2.44709273 C21.5468273,1.34952096 23.6894297,0.815421769 26.1104587,0.853896769 C27.4107482,0.874995963 28.6489813,0.989179833 29.7990942,1.19437983 C30.9988522,0.817076608 33.3685813,0.275530644 36.0812756,0.309454837 C41.0793022,0.36902903 45.2209497,2.31677418 48.057757,5.94211206 C50.0824521,8.52862495 49.0812747,13.9602193 48.3047417,16.9678886 C47.2117207,21.1984837 45.2966586,25.6979902 42.9443054,29.6149934 C43.5830731,29.6195442 44.5085417,29.5430079 45.8241384,29.2712006 C48.4197529,28.7354466 49.1789102,30.127166 49.3849376,30.7502127 C50.2102884,33.2498466 46.6225981,35.138845 45.5035134,35.6584643 C44.0695957,36.3241232 41.7317223,36.7295587 39.817074,36.6418522 L39.7335046,36.636474 L39.2304336,36.592207 L39.1807885,37.0117087 L39.1327982,37.4216949 C39.0041344,42.3857973 38.2950361,45.5295772 36.835882,47.6068134 C35.3063974,49.7845812 33.1807571,50.3948029 31.3083071,50.7961013 C30.6695393,50.9326255 30.0891047,50.9921997 29.562866,50.9921997 Z M25.760874,32.9250845 C26.9271216,33.8584135 27.0293079,35.6146111 27.1207377,38.8965699 C27.1323216,39.3061425 27.1430781,39.6937885 27.1575579,40.0557844 C27.2014111,41.1521151 27.3044248,43.7191836 27.7065506,44.8039304 C27.7632289,44.9574167 27.8141152,45.1129715 27.8678974,45.2780417 C28.315945,46.649903 28.5405893,47.3379021 30.4779918,46.9237788 C32.1042845,46.5750215 32.9403917,46.262257 33.5948804,45.3305828 C34.545999,43.9760973 35.0780296,41.2514054 35.1756651,37.2322159 L37.1544385,37.2802062 L35.1893175,37.0443917 L35.2472369,36.553732 C35.4354748,34.9361272 35.5711716,33.7678111 36.6521949,32.9950014 C37.5197441,32.3752643 38.5080965,32.4352522 39.2953861,32.5771546 C38.4303191,31.9234934 38.1911949,31.1568893 38.1274836,30.84247 L37.9624135,30.0295305 L38.426182,29.3415313 C41.0975054,25.3781926 43.3000957,20.5071749 44.4700667,15.9770539 C45.672307,11.3224064 45.3057602,8.85049108 44.9392134,8.38299914 C40.0868127,2.18273225 31.6723716,4.74276771 30.7936522,5.03319191 L30.6451305,5.11345158 L29.9004531,5.25204432 L29.5190127,5.17302578 C28.4673627,4.95458707 27.2990466,4.83378384 26.0467474,4.81351207 C24.0791442,4.78041529 22.4917402,5.24542497 21.1902096,6.23294996 L20.2870813,6.91763948 L19.2391547,6.48614028 C17.000158,5.57060077 10.423829,3.73000643 6.95363222,6.18785561 C5.02739997,7.55227012 4.14992175,10.225662 4.34519272,14.1339773 C4.40973143,15.4243378 5.28638223,20.3090079 6.73271125,25.0463974 C8.73134269,31.593353 10.5475282,33.7682248 11.305858,34.0210014 C11.4382451,34.0656821 11.7816241,33.7988393 12.1233483,33.3884393 C14.3449693,30.7162885 16.458612,28.4884619 16.5475596,28.3949635 L17.6935354,27.1889998 L19.0790491,28.1095039 C19.6375571,28.4806014 20.2535708,28.6911797 20.8861329,28.7308958 L24.1904321,25.9127055 L23.71177,30.7977893 C23.7010136,30.9074224 23.6956353,31.0567716 23.7386612,31.3339571 L23.8826321,32.2598393 L23.2579305,32.9581813 L23.185945,33.0392684 L25.0013031,33.8770304 L25.760874,32.9250845 Z" id="Shape" fill="#000000"> </path> <path d="M46.2241957,31.2102579 C40.4632885,32.3988458 40.0673683,30.4482047 40.0673683,30.4482047 C46.1501417,21.4227144 48.6928013,9.96543865 46.4984852,7.16172818 C40.5121062,-0.486936287 30.1490926,3.1301274 29.9761619,3.2240395 L29.9203111,3.23396853 C28.7821958,2.99774031 27.5083837,2.85707902 26.0765345,2.83391127 C23.4697499,2.79129918 21.4926313,3.51735966 19.9921063,4.65506126 C19.9921063,4.65506126 1.50590322,-2.96050643 2.36559192,14.2328539 C2.5484516,17.8908749 7.60812092,41.9096175 13.6433177,34.6548046 C15.8492176,32.0020982 17.9802362,29.7589643 17.9802362,29.7589643 C19.0389192,30.4618571 20.306112,30.8209571 21.6345337,30.6918797 L21.7379612,30.6041732 C21.7056918,30.9334861 21.7205854,31.2557659 21.7793321,31.6372063 C20.2246112,33.3743732 20.6813467,33.6792772 17.5731459,34.3188724 C14.4281249,34.9667417 16.2757523,36.120578 17.4821297,36.4221724 C18.9441797,36.7878917 22.3274975,37.3058562 24.6132434,34.1062256 L24.5218136,34.4711175 C25.1312079,34.959295 25.5589837,37.6450982 25.4874119,40.0797796 C25.4154265,42.514461 25.3674361,44.1862618 25.8477531,45.4919296 C26.3276563,46.7975973 26.8059047,49.734936 30.8917014,48.8595263 C34.3056337,48.1280876 36.0746562,46.2320562 36.3212272,43.0696594 C36.4958127,40.8211473 36.8909054,41.1537699 36.9161417,39.1435546 L37.233457,38.1920224 C37.5991764,35.1442232 37.2913764,34.161249 39.3950901,34.6183982 L39.9060215,34.6630788 C41.4541231,34.7334095 43.4800594,34.4140256 44.6694747,33.8613095 C47.2303376,32.673549 48.7490658,30.6893974 46.2241957,31.2102579 Z" id="Shape" fill="#336791"> </path> <path d="M29.7693071,49.7721699 C26.363649,49.7721699 25.2846942,47.0751965 24.843266,45.9722465 C24.1970515,44.3558828 24.0576313,38.0832167 24.2016023,32.9391506 C24.2115313,32.5746724 24.5135394,32.2867305 24.8800861,32.2979006 C25.2445644,32.3078296 25.5316789,32.6114926 25.5213361,32.9759708 C25.3554386,38.9089812 25.5908394,44.2855522 26.0690878,45.4820005 C26.81542,47.3474175 27.9473297,48.9790884 31.147374,48.2935715 C34.1852442,47.6419788 35.3229458,46.490211 35.8297401,43.5524586 C36.2186272,41.2981546 36.9877135,34.8848272 37.082453,33.6192893 C37.1097578,33.2560522 37.4250046,32.9825901 37.7898966,33.0103087 C38.1531336,33.0376135 38.4257683,33.3545151 38.3988772,33.7177522 C38.3000006,35.0354175 37.5346377,41.4363336 37.130857,43.777103 C36.5326329,47.246886 34.9857724,48.8206376 31.4241458,49.5843457 C30.8188885,49.7138368 30.2690684,49.7717562 29.7693071,49.7721699 Z M11.302962,36.5992401 C10.9781999,36.5992401 10.6832249,36.5392522 10.4275524,36.4544417 C8.21544673,35.7163837 6.10842335,32.1137998 4.1648153,25.7455668 C2.6853895,20.8981305 1.74792338,15.8384612 1.66559515,14.1939652 C1.42192015,9.31881043 2.67711531,5.86971287 5.39725642,3.94306691 C10.7783782,0.130318548 19.8307596,3.76103466 20.213441,3.91741691 C20.5506144,4.05518223 20.7127886,4.44075965 20.5746096,4.77834675 C20.4368442,5.11552013 20.0512668,5.27728061 19.7140934,5.139929 C19.6268007,5.10434997 10.9463443,1.62670644 6.1576548,5.02202174 C3.83177901,6.67106851 2.76399434,9.73500236 2.98367418,14.1281854 C3.05276369,15.5136991 3.92858707,20.4517378 5.42704352,25.3599894 C7.16214189,31.0451877 9.13677817,34.6324643 10.8449854,35.2021425 C11.1130693,35.2915038 11.9289048,35.5633111 13.0951523,34.1608353 C15.2898822,31.5205401 17.3058894,29.4131031 17.3261612,29.3924176 C17.5785241,29.1292982 17.9963709,29.1206103 18.2594902,29.3729732 C18.5226096,29.6253361 18.5317112,30.0431829 18.2793483,30.3058885 C18.2594902,30.326574 16.2740975,32.4021555 14.1103959,35.0052167 C13.085637,36.2376579 12.1034903,36.5992401 11.302962,36.5992401 Z M40.0264111,31.0369135 C39.8994022,31.0369135 39.7711522,31.0005071 39.6577957,30.9243845 C39.3557877,30.7204256 39.275528,30.3104393 39.4794869,30.0080176 C45.6284538,20.8836507 47.7867771,9.85870156 45.9383223,7.49641931 C43.6116191,4.52350159 40.3263506,2.97084918 36.1731191,2.88107418 C33.0980151,2.81488063 30.6538184,3.60010159 30.2541748,3.73703949 L30.1536434,3.77799675 C29.7519313,3.9041782 29.4437176,3.68408466 29.3274652,3.42675724 C29.1896998,3.12226692 29.3026426,2.7623395 29.588516,2.58899515 C29.6075466,2.57782498 29.6679482,2.55217499 29.7659974,2.51618224 L29.7573095,2.5186645 L29.7659974,2.51576853 C30.444895,2.26712902 32.9263256,1.52286531 35.9997748,1.55803064 C40.5952619,1.60684838 44.3914618,3.37876692 46.9771473,6.68306609 C48.2004868,8.24647495 48.2033828,11.8482314 46.9850078,16.5653491 C45.7430513,21.3747241 43.4060054,26.543199 40.573749,30.7460756 C40.4471538,30.9351409 40.2386441,31.0369135 40.0264111,31.0369135 Z M40.3408304,35.2608893 C39.2908353,35.2608893 38.3496457,35.1127812 37.7861732,34.7751942 C37.2069796,34.4280917 37.0965191,33.9564627 37.0820393,33.7061684 C36.9240022,30.9301764 38.4555554,30.4469635 39.2366393,30.2264563 C39.1278336,30.0617998 38.9731062,29.8681837 38.8130006,29.6683619 C38.3575062,29.0990974 37.733632,28.3196684 37.2529014,27.1538345 C37.1776062,26.9718023 36.9417917,26.5485773 36.6687433,26.0583313 C35.1880764,23.4031426 32.1071805,17.8780499 34.0863675,15.0486894 C35.0023208,13.7392983 36.8263667,13.2238161 39.5138248,13.5113443 C38.7232256,11.1027265 34.9584675,3.56824595 26.0252345,3.42179272 C23.3386039,3.37711208 21.1351862,4.2032903 19.47952,5.87509109 C15.7726814,9.61874994 15.9067233,16.3924185 15.9087918,16.4602668 C15.9183072,16.8247451 15.6307789,17.1279943 15.2663007,17.1375096 C14.9018225,17.1490934 14.598987,16.8594967 14.589058,16.4950185 C14.5807838,16.1942515 14.4426048,9.08589188 18.5416402,4.94589916 C20.460012,3.00849676 22.9852958,2.05199999 26.0471611,2.10205886 C31.7621466,2.19597095 35.440853,5.101454 37.5201578,7.52206931 C39.7868732,10.1602959 40.8980973,13.0703298 40.9895272,14.0417201 C41.0577893,14.7640572 40.5394111,14.9084418 40.4347425,14.9299548 L40.1964457,14.935333 C37.5590466,14.5129354 35.866974,14.8062556 35.1673909,15.8057781 C33.6619014,17.9574822 36.5764861,23.1838765 37.8209248,25.4158402 C38.1386538,25.9851047 38.367849,26.3967458 38.4729312,26.6507636 C38.8816764,27.6420119 39.4149482,28.3080845 39.8431377,28.8434248 C40.2200272,29.3142264 40.5464441,29.7225579 40.6631102,30.2016337 C40.7173062,30.2967869 41.4863925,31.4344885 46.0500239,30.4924716 C47.1939312,30.2566571 47.8798618,30.4581337 48.0896126,31.0923506 C48.5020812,32.3396853 46.1877892,33.7947022 44.9065304,34.3896167 C43.758486,34.9233022 41.9261659,35.2608893 40.3408304,35.2608893 Z M38.3980498,33.5973627 C38.5428482,33.7434022 39.2672538,33.9953514 40.7673651,33.9308127 C42.1011651,33.8737208 43.507778,33.5837103 44.3517457,33.1919272 C45.4311143,32.6905111 46.1517965,32.1299345 46.5249626,31.747253 L46.3181078,31.7853143 C43.4002135,32.3876756 41.3362159,32.3074159 40.1836207,31.5466038 C40.1012925,31.4924079 40.0272385,31.4361434 39.9602175,31.3807063 C39.8352772,31.4299377 39.7198522,31.4622071 39.637524,31.4853748 C38.9838627,31.6686482 38.3078611,31.8585409 38.3980498,33.5973627 Z M19.5486096,37.2855845 C18.8237902,37.2855845 18.0609096,37.1867078 17.2818943,36.9918506 C16.4747467,36.7899603 15.1140556,36.1822208 15.134741,35.1839393 C15.1583225,34.0640272 16.7870975,33.728095 17.4002152,33.6019135 C19.6152168,33.1455917 19.7596015,32.9627321 20.4517378,32.083599 C20.6536281,31.8275127 20.9047499,31.5085426 21.2473015,31.1262748 C21.7557507,30.5570103 22.3113628,30.2686547 22.8988305,30.2686547 C23.3079894,30.2686547 23.6435079,30.4072474 23.8652563,30.4995047 C24.5718724,30.7924111 25.1614087,31.5006821 25.4038426,32.3475458 C25.622695,33.1116675 25.5180265,33.8472434 25.1101087,34.4185764 C23.7709305,36.2939224 21.8475942,37.2855845 19.5486096,37.2855845 Z M16.5607983,35.2406175 C16.7597926,35.3945175 17.1586088,35.6001312 17.6025193,35.7110054 C18.2772797,35.879799 18.9317684,35.9654369 19.5490233,35.9654369 C21.4297475,35.9654369 22.9397878,35.1868353 24.0365321,33.651145 C24.2653136,33.3309337 24.1966378,32.9242571 24.1354087,32.7103692 C24.0071587,32.2623216 23.6886023,31.8548176 23.3605305,31.7187071 C23.1826353,31.6450668 23.034941,31.5888022 22.8992442,31.5888022 C22.8264313,31.5888022 22.6046829,31.5888022 22.2315168,32.0062353 C21.91627,32.3583022 21.6891434,32.6466579 21.4893216,32.9006756 C20.6271507,33.9953514 20.2320579,34.3668627 17.667058,34.89517 C17.0411152,35.02342 16.7200765,35.1541522 16.5607983,35.2406175 Z M21.6366023,32.1957143 C21.316391,32.1957143 21.0350684,31.9619684 20.9850096,31.6355514 C20.9684612,31.5259184 20.9577047,31.4158716 20.9519128,31.3049974 C19.2705967,31.2735555 17.648441,30.5520458 16.4168273,29.2670635 C14.8596241,27.6424256 14.1509394,25.3914313 14.4728056,23.0916192 C14.8223902,20.5940539 14.691658,18.3893951 14.6213273,17.2049443 C14.601883,16.8756314 14.5878169,16.6377483 14.5886443,16.4730918 C14.5898854,16.2641685 14.5940225,15.7102112 16.445787,14.7715039 C17.1044128,14.4376402 18.4249741,13.855137 19.8675797,13.7057878 C22.2575805,13.4588031 23.832987,14.5232781 24.304616,16.7035281 C25.5776007,22.5897894 24.4055611,25.1932644 23.5495958,27.094674 C23.3903176,27.4488095 23.2397273,27.7830869 23.1193378,28.1070216 L23.0130144,28.3924813 C22.5608297,29.6050643 22.1698741,30.6525772 22.2898499,31.4349022 C22.345287,31.7952434 22.0978886,32.132003 21.7375475,32.1874401 L21.6366023,32.1957143 Z M15.9129289,16.6559515 L15.9385789,17.1271668 C16.0113918,18.3575394 16.1470886,20.6470088 15.7797144,23.2748926 C15.5145265,25.1717515 16.0937201,27.0231023 17.3696007,28.3535926 C18.3778112,29.4052426 19.7045781,29.9856772 21.0681652,29.9856772 L21.0962975,29.9856772 C21.2489563,29.3423587 21.5025604,28.6630474 21.7756087,27.931195 L21.8811047,27.6473902 C22.0172152,27.2816708 22.1764934,26.9275353 22.345287,26.5527144 C23.1689829,24.7224628 24.1945692,22.4441636 23.0134281,16.9827822 C22.7796821,15.9009314 22.2124862,15.2749886 21.2803983,15.0685475 C19.3657499,14.6457362 16.5123943,16.0858596 15.9129289,16.6559515 Z M19.8969531,16.3758701 C19.8638563,16.6092023 20.3243152,17.2322491 20.9250217,17.3154047 C21.524487,17.3993878 22.037487,16.9120378 22.07017,16.6787055 C22.1028531,16.4453733 21.6428079,16.1880459 21.0421015,16.1044765 C20.4418088,16.0209072 19.9288088,16.1425378 19.8969531,16.3758701 Z M21.062787,17.5450136 L20.8944071,17.5334297 C20.5220684,17.481716 20.1455926,17.2471426 19.8878515,16.9054184 C19.7972491,16.7854426 19.6495547,16.5529378 19.6789281,16.3452555 C19.7207128,16.0407652 20.0922241,15.8583193 20.6718313,15.8583193 C20.8013225,15.8583193 20.9361918,15.8678346 21.0718886,15.8868652 C21.3887902,15.9307185 21.6829378,16.0221483 21.9001354,16.1433652 C22.2766112,16.3535297 22.3043297,16.5881031 22.2873676,16.7093201 C22.2410321,17.045666 21.7061055,17.5450136 21.062787,17.5450136 Z M20.1158055,16.4147588 C20.1344225,16.5587297 20.4910402,17.0336684 20.9552225,17.0977934 L21.0632007,17.1052402 C21.4918039,17.1052402 21.8120152,16.7680668 21.8496628,16.6576064 C21.8099466,16.5823112 21.534416,16.3953144 21.0119007,16.3225015 C20.896062,16.3059531 20.7818781,16.2980926 20.672245,16.2980926 C20.3363128,16.2980926 20.1580039,16.3738015 20.1158055,16.4147588 Z M38.1556159,15.8996902 C38.188299,16.1330225 37.7282538,16.7560693 37.1279611,16.8396386 C36.528082,16.923208 36.0146683,16.4362717 35.9815716,16.2029394 C35.9501296,15.9696072 36.4101748,15.711866 37.0100538,15.6287104 C37.6099328,15.5447273 38.1225191,15.6667717 38.1556159,15.8996902 Z M36.9893683,16.958787 C36.4118296,16.958787 35.9133095,16.5094983 35.8723522,16.217833 C35.8247756,15.8678346 36.4010732,15.6018193 36.9943328,15.519491 C37.1250651,15.5012878 37.2545562,15.4921862 37.3790828,15.4921862 C37.8912554,15.4921862 38.2304974,15.6423628 38.2644216,15.8847967 C38.2863482,16.0415926 38.1659586,16.2836128 37.9586901,16.5020515 C37.8217522,16.6456088 37.534224,16.8942483 37.1424409,16.9484443 L36.9893683,16.958787 Z M37.3794966,15.7122797 C37.2653127,15.7122797 37.1461643,15.7209677 37.0253611,15.737516 C36.4292054,15.8206717 36.0734151,16.0597959 36.0907909,16.1880459 C36.110649,16.3291209 36.4912619,16.7391072 36.989782,16.7391072 L37.1126538,16.7304193 C37.4382433,16.6853249 37.6827457,16.4726781 37.7994119,16.3502201 C37.9826853,16.1578451 38.0554982,15.9766402 38.0468103,15.9149975 C38.0352264,15.833083 37.8151328,15.7122797 37.3794966,15.7122797 Z M39.0198554,29.2997466 C38.893674,29.2997466 38.7662514,29.2633402 38.6533086,29.188045 C38.3504732,28.9853272 38.2689724,28.575341 38.4721038,28.2725055 C39.8778893,26.1729289 39.6205619,24.0319813 39.3719224,21.9613644 C39.265599,21.0793354 39.1563796,20.1671055 39.1845119,19.2916959 C39.2134715,18.3910499 39.3280691,17.6480273 39.4385296,16.9294136 C39.5696756,16.0779991 39.6937885,15.2737475 39.6424885,14.3189056 C39.6226304,13.954841 39.9018844,13.6441451 40.265949,13.624287 C40.6312546,13.6048427 40.9411231,13.883683 40.9605675,14.2477475 C41.0193143,15.3391136 40.8790667,16.2492749 40.7433699,17.1300628 C40.6387014,17.8097878 40.5303094,18.5126805 40.5042457,19.3338942 C40.4790094,20.1091862 40.5778861,20.9324684 40.6825546,21.803741 C40.9473288,24.0055039 41.2472683,26.5010007 39.5692619,29.0068402 C39.4418393,29.1967329 39.2329159,29.2997466 39.0198554,29.2997466 Z" id="Shape" fill="#FFFFFF"> </path> </g> </g> </g></svg>