<svg width="256" height="256" viewBox="0 0 256 256" fill="none" xmlns="http://www.w3.org/2000/svg">
<path d="M196 0H60C26.8629 0 0 26.8629 0 60V196C0 229.137 26.8629 256 60 256H196C229.137 256 256 229.137 256 196V60C256 26.8629 229.137 0 196 0Z" fill="#242938"/>
<g clip-path="url(#clip0_164_685)">
<path d="M198.55 140.269H57.2329V132.315C57.2329 126.971 61.5737 122.639 66.9282 122.639H188.854C194.209 122.639 198.55 126.971 198.55 132.315V140.269Z" fill="#DFDEDF"/>
<path d="M188.704 232.504H67.0773C61.6402 232.504 57.2324 228.105 57.2324 222.679V140.269H198.549V222.679C198.549 228.105 194.142 232.504 188.704 232.504Z" fill="white"/>
<path d="M196.795 138.67V131.537C196.795 127.326 193.375 123.913 189.156 123.913H66.8444C62.6251 123.913 59.2051 127.326 59.2051 131.537V138.67H196.795ZM196.795 223.698V141.868H59.2051V223.698C59.2051 227.909 62.6251 231.322 66.8444 231.322H189.156C193.375 231.322 196.795 227.909 196.795 223.698ZM67.5616 120.715L68.0375 115.53L66.017 120.756C66.2909 120.735 66.5649 120.715 66.8444 120.715H67.5616ZM187.6 111.974L188.305 120.715H189.156C189.611 120.715 190.056 120.752 190.497 120.806L187.6 111.974ZM197.301 124.416C198.976 126.321 200 128.809 200 131.537V223.698C200 229.666 195.135 234.52 189.156 234.52H66.8444C60.8651 234.52 56 229.666 56 223.698V131.537C56 128.645 57.1492 126.021 59.0077 124.077L69.8189 96.1114L74.5333 44.7168L79.8522 45.2024L75.6042 91.5099L77.1005 92.0859L75.0699 97.3391L72.9256 120.715H182.947L176.841 45.0744L182.165 44.6461L185.766 89.2567L185.768 89.2561L197.301 124.416ZM67.9005 129.126C69.237 129.126 70.3204 130.207 70.3204 131.541C70.3204 132.875 69.237 133.956 67.9005 133.956C66.564 133.956 65.4807 132.875 65.4807 131.541C65.4807 130.207 66.564 129.126 67.9005 129.126ZM76.1738 129.126C77.5103 129.126 78.5937 130.207 78.5937 131.541C78.5937 132.875 77.5103 133.956 76.1738 133.956C74.8373 133.956 73.7539 132.875 73.7539 131.541C73.7539 130.207 74.8373 129.126 76.1738 129.126ZM84.1864 129.126C85.5229 129.126 86.6062 130.207 86.6062 131.541C86.6062 132.875 85.5229 133.956 84.1864 133.956C82.8499 133.956 81.7665 132.875 81.7665 131.541C81.7665 130.207 82.8499 129.126 84.1864 129.126Z" fill="black"/>
<path d="M76.2621 181.53C76.6778 181.05 76.8966 180.419 76.8966 179.636C76.8966 178.852 76.6778 178.246 76.2621 177.766C75.8244 177.286 75.2113 177.059 74.4238 177.059H70.5724V182.236H74.4238C75.2113 182.236 75.8244 182.009 76.2621 181.53ZM74.4238 173.953C76.0866 173.953 77.4 174.458 78.3844 175.493C79.3693 176.529 79.8508 177.917 79.8508 179.636C79.8508 181.378 79.3693 182.742 78.4069 183.777C77.4219 184.813 76.1091 185.343 74.4238 185.343H70.5724V192.312H67.5962V173.953H74.4238ZM90.48 185.212V179.857H93.6852V191.948H90.48V190.858C89.5086 191.827 88.2464 192.311 86.668 192.311C85.2111 192.311 84.0456 191.827 83.1473 190.882C82.249 189.937 81.8119 188.725 81.8119 187.223V179.857H85.017V186.545C85.017 187.393 85.2353 188.096 85.6965 188.605C86.1336 189.113 86.7164 189.38 87.469 189.38C89.4844 189.38 90.48 187.998 90.48 185.212ZM106.189 188.532C106.82 187.877 107.135 187.005 107.135 185.915C107.135 184.825 106.82 183.928 106.189 183.274C105.533 182.619 104.732 182.28 103.736 182.28C102.838 182.28 102.037 182.619 101.332 183.298C100.628 183.976 100.288 184.848 100.288 185.915C100.288 186.981 100.628 187.854 101.332 188.507C102.037 189.186 102.838 189.525 103.736 189.525C104.732 189.525 105.533 189.186 106.189 188.532ZM104.295 179.493C105.873 179.493 107.281 180.1 108.471 181.311C109.661 182.547 110.243 184.073 110.243 185.915C110.243 187.756 109.661 189.283 108.471 190.494C107.281 191.706 105.897 192.311 104.295 192.311C102.716 192.311 101.381 191.875 100.288 191.003V197.717H97.0833V179.857H100.288V180.826C101.357 179.93 102.692 179.493 104.295 179.493ZM121.776 188.532C122.407 187.877 122.722 187.005 122.722 185.915C122.722 184.825 122.407 183.928 121.776 183.274C121.12 182.619 120.319 182.28 119.323 182.28C118.425 182.28 117.624 182.619 116.92 183.298C116.215 183.976 115.875 184.848 115.875 185.915C115.875 186.981 116.215 187.854 116.92 188.507C117.624 189.186 118.425 189.525 119.323 189.525C120.319 189.525 121.12 189.186 121.776 188.532ZM119.881 179.493C121.46 179.493 122.868 180.1 124.058 181.311C125.247 182.547 125.83 184.073 125.83 185.915C125.83 187.756 125.247 189.283 124.058 190.494C122.868 191.706 121.484 192.311 119.881 192.311C118.303 192.311 116.968 191.875 115.875 191.003V197.717H112.67V179.857H115.875V180.826C116.944 179.93 118.279 179.493 119.881 179.493ZM130.564 184.509H136.416C136.222 183.758 135.857 183.201 135.347 182.837C134.837 182.474 134.231 182.28 133.55 182.28C132.895 182.28 132.264 182.474 131.705 182.862C131.122 183.249 130.734 183.806 130.564 184.509ZM133.55 179.493C135.202 179.493 136.634 180.075 137.824 181.214C139.014 182.377 139.621 183.855 139.694 185.672V186.763H130.467C130.637 187.611 131.001 188.289 131.56 188.798C132.118 189.307 132.749 189.573 133.502 189.573C134.886 189.573 135.882 189.04 136.513 187.974L139.378 188.58C138.868 189.816 138.091 190.737 137.071 191.367C136.052 191.997 134.862 192.311 133.502 192.311C131.754 192.311 130.273 191.706 129.083 190.519C127.893 189.332 127.286 187.781 127.286 185.915C127.286 184.049 127.893 182.498 129.107 181.286C130.297 180.1 131.778 179.493 133.55 179.493ZM148.531 189.332C149.138 189.332 149.818 189.137 150.546 188.75L151.469 191.415C150.352 192.021 149.308 192.312 148.312 192.312C146.831 192.312 145.666 191.9 144.816 191.1C143.966 190.301 143.553 189.113 143.553 187.49V182.474H140.955V179.856H143.553V176.198H146.759V179.856H150.716V182.474H146.759V187.247C146.759 188.629 147.341 189.332 148.531 189.332ZM155.255 184.509H161.107C160.913 183.758 160.549 183.201 160.039 182.837C159.529 182.474 158.922 182.28 158.242 182.28C157.587 182.28 156.955 182.474 156.397 182.862C155.814 183.249 155.425 183.806 155.255 184.509ZM158.242 179.493C159.893 179.493 161.326 180.075 162.516 181.214C163.705 182.377 164.312 183.855 164.385 185.672V186.763H155.159C155.329 187.611 155.692 188.289 156.252 188.798C156.81 189.307 157.441 189.573 158.193 189.573C159.578 189.573 160.573 189.04 161.204 187.974L164.069 188.58C163.56 189.816 162.783 190.737 161.763 191.367C160.743 191.997 159.553 192.311 158.193 192.311C156.445 192.311 154.964 191.706 153.774 190.519C152.585 189.332 151.977 187.781 151.977 185.915C151.977 184.049 152.585 182.498 153.799 181.286C154.988 180.1 156.47 179.493 158.242 179.493ZM169.653 184.509H175.504C175.31 183.758 174.946 183.201 174.436 182.837C173.926 182.474 173.32 182.28 172.639 182.28C171.984 182.28 171.353 182.474 170.794 182.862C170.211 183.249 169.823 183.806 169.653 184.509ZM172.639 179.493C174.291 179.493 175.723 180.075 176.913 181.214C178.103 182.377 178.71 183.855 178.783 185.672V186.763H169.556C169.726 187.611 170.09 188.289 170.649 188.798C171.207 189.307 171.838 189.573 172.591 189.573C173.975 189.573 174.971 189.04 175.602 187.974L178.467 188.58C177.957 189.816 177.18 190.737 176.16 191.367C175.14 191.997 173.951 192.311 172.591 192.311C170.842 192.311 169.361 191.706 168.172 190.519C166.982 189.332 166.374 187.781 166.374 185.915C166.374 184.049 166.982 182.498 168.196 181.286C169.386 180.1 170.867 179.493 172.639 179.493ZM188.761 179.687C189.125 179.687 189.417 179.711 189.611 179.784L189.441 182.862H188.737C185.848 182.862 184.415 184.582 184.415 188.047V191.948H181.21V179.857H184.415V182.062C185.507 180.486 186.964 179.687 188.761 179.687Z" fill="black"/>
<path d="M174.741 94.4575L192.033 86.1264V77.7958L152.083 58.7535L192.033 38.2241V30.191L175.338 22.455L128.034 45.9596L79.9342 22.455L64.4312 30.7861V37.9265L101.996 58.456L64.4312 77.4983V86.1264L80.5305 94.4575L128.232 70.0598L174.741 94.4575Z" fill="#00D8A2"/>
<path d="M176.909 91.0592V87.471L189.925 80.7398V84.7703L176.909 91.0592ZM65.4783 80.6455L78.0558 87.851V90.7196L65.4783 84.3695V80.6455ZM129.903 65.4922L173.17 86.8266V91.1165L129.903 68.9962V65.4922ZM81.7947 87.4508L126.164 65.4967V68.995L81.7947 91.3977V87.4508ZM113.211 51.5772L68.3116 29.9436L79.9407 24.0454L128.033 48.9265L175.321 24.0561L187.361 30.2103L143.575 52.2009C141.825 53.08 141.828 55.5752 143.58 56.4504L186.914 78.0946L175.682 83.903L128.033 59.5384L79.5425 84.4004L68.4674 78.0553L113.236 55.8469C115.01 54.9673 114.995 52.4367 113.211 51.5772ZM66.0374 37.2733V33.3359L107.913 54.1859L103.68 55.8739L66.0374 37.2733ZM151.905 56.1057C151.848 56.0709 147.895 54.2094 147.895 54.2094L189.925 33.0996V37.0543L151.905 56.1057ZM156.112 58.1732L193.054 39.6618C193.428 39.4744 193.665 39.0921 193.665 38.6744V29.9156C193.665 29.5007 193.432 29.1212 193.062 28.9321L175.831 20.1244C175.516 19.9632 175.142 19.9627 174.825 20.1227L128.53 43.5672C128.218 43.7255 127.849 43.7272 127.535 43.5706L80.4239 20.1159C80.1106 19.9599 79.741 19.9616 79.4283 20.1199L62.3446 28.7839C61.9728 28.9725 61.7388 29.3531 61.7388 29.769V38.6694C61.7388 39.0898 61.9778 39.4738 62.3558 39.6602L99.4533 57.9514L62.5274 76.2489C62.1578 76.4325 61.9205 76.8058 61.9131 77.2184L61.7517 85.9705C61.7438 86.3943 61.9801 86.785 62.3586 86.9764L80.0982 95.9335C80.4115 96.0912 80.7811 96.0918 81.095 95.9346L127.534 72.6635C127.848 72.5058 128.218 72.5069 128.532 72.6658L174.392 95.9363C174.701 96.0923 175.065 96.0963 175.376 95.9458L193.04 87.4115C193.422 87.2268 193.665 86.8406 193.665 86.4173V77.2728C193.665 76.8512 193.425 76.4667 193.045 76.2809L156.112 58.1732Z" fill="black"/>
</g>
<defs>
<clipPath id="clip0_164_685">
<rect width="144" height="215" fill="white" transform="translate(56 20)"/>
</clipPath>
</defs>
</svg>
