<svg vwidth="256" height="256" viewBox="0 0 256 256" fill="none" xmlns="http://www.w3.org/2000/svg">
<path d="M60,0h136c33.1,0,60,26.9,60,60v136c0,33.1-26.9,60-60,60H60c-33.1,0-60-26.9-60-60V60C0,26.9,26.9,0,60,0z" fill="#00c0a0"/>
<path d="M197.9,140.9h-140V133c0-5.3,4.3-9.6,9.6-9.6h120.8c5.3,0,9.6,4.3,9.6,9.6V140.9z" fill="#DFDEDF"/>
<path d="M188.1,232.4H67.7c-5.4,0-9.8-4.4-9.8-9.8v-81.8h140v81.8C197.9,228.1,193.5,232.4,188.1,232.4" fill="#FFFFFF"/>
<path d="M196.1,139.3v-7.1c0-4.2-3.4-7.6-7.6-7.6H67.4c-4.2,0-7.6,3.4-7.6,7.6v7.1H196.1z M196.1,223.7v-81.2H59.9v81.2	c0,4.2,3.4,7.6,7.6,7.6h121.1C192.7,231.3,196.1,227.9,196.1,223.7z M68.1,121.5l0.5-5.1l-2,5.2c0.3,0,0.5,0,0.8,0H68.1z M187,112.8	l0.7,8.7h0.8c0.5,0,0.9,0,1.3,0.1L187,112.8z M196.6,125.2c1.7,1.9,2.7,4.4,2.7,7.1v91.5c0,5.9-4.8,10.7-10.7,10.7H67.4	c-5.9,0-10.7-4.8-10.7-10.7v-91.5c0-2.9,1.1-5.5,3-7.4l10.7-27.8l4.7-51l5.3,0.5l-4.2,46l1.5,0.6l-2,5.2l-2.1,23.2h109l-6-75.1	l5.3-0.4l3.6,44.3l0,0L196.6,125.2z M68.5,129.9c1.3,0,2.4,1.1,2.4,2.4c0,1.3-1.1,2.4-2.4,2.4s-2.4-1.1-2.4-2.4	C66.1,130.9,67.2,129.9,68.5,129.9z M76.7,129.9c1.3,0,2.4,1.1,2.4,2.4c0,1.3-1.1,2.4-2.4,2.4c-1.3,0-2.4-1.1-2.4-2.4	C74.3,130.9,75.3,129.9,76.7,129.9z M84.6,129.9c1.3,0,2.4,1.1,2.4,2.4c0,1.3-1.1,2.4-2.4,2.4s-2.4-1.1-2.4-2.4	C82.2,130.9,83.3,129.9,84.6,129.9z" fill="#000000"/>
<path d="M76.8,181.9c0.4-0.5,0.6-1.1,0.6-1.9c0-0.8-0.2-1.4-0.6-1.9c-0.4-0.5-1-0.7-1.8-0.7h-3.8v5.1h3.8	C75.7,182.6,76.3,182.3,76.8,181.9z M74.9,174.3c1.6,0,2.9,0.5,3.9,1.5c1,1,1.5,2.4,1.5,4.1c0,1.7-0.5,3.1-1.4,4.1	c-1,1-2.3,1.6-3.9,1.6h-3.8v6.9h-2.9v-18.2H74.9z M90.8,185.5v-5.3H94v12h-3.2v-1.1c-1,1-2.2,1.4-3.8,1.4c-1.4,0-2.6-0.5-3.5-1.4	c-0.9-0.9-1.3-2.1-1.3-3.6v-7.3h3.2v6.6c0,0.8,0.2,1.5,0.7,2c0.4,0.5,1,0.8,1.8,0.8C89.9,189.6,90.8,188.3,90.8,185.5z M106.4,188.8	c0.6-0.6,0.9-1.5,0.9-2.6s-0.3-2-0.9-2.6c-0.6-0.6-1.4-1-2.4-1c-0.9,0-1.7,0.3-2.4,1c-0.7,0.7-1,1.5-1,2.6c0,1.1,0.3,1.9,1,2.6	c0.7,0.7,1.5,1,2.4,1C105,189.8,105.7,189.5,106.4,188.8z M104.5,179.8c1.6,0,3,0.6,4.1,1.8c1.2,1.2,1.8,2.7,1.8,4.6	c0,1.8-0.6,3.3-1.8,4.5c-1.2,1.2-2.5,1.8-4.1,1.8c-1.6,0-2.9-0.4-4-1.3v6.7h-3.2v-17.7h3.2v1C101.6,180.3,102.9,179.8,104.5,179.8z	 M121.8,188.8c0.6-0.6,0.9-1.5,0.9-2.6s-0.3-2-0.9-2.6c-0.6-0.6-1.4-1-2.4-1c-0.9,0-1.7,0.3-2.4,1c-0.7,0.7-1,1.5-1,2.6	c0,1.1,0.3,1.9,1,2.6c0.7,0.7,1.5,1,2.4,1C120.4,189.8,121.2,189.5,121.8,188.8z M120,179.8c1.6,0,3,0.6,4.1,1.8	c1.2,1.2,1.8,2.7,1.8,4.6c0,1.8-0.6,3.3-1.8,4.5c-1.2,1.2-2.5,1.8-4.1,1.8c-1.6,0-2.9-0.4-4-1.3v6.7h-3.2v-17.7h3.2v1	C117.1,180.3,118.4,179.8,120,179.8z M130.5,184.8h5.8c-0.2-0.7-0.6-1.3-1.1-1.7c-0.5-0.4-1.1-0.6-1.8-0.6c-0.6,0-1.3,0.2-1.8,0.6	C131.1,183.6,130.7,184.1,130.5,184.8z M133.5,179.8c1.6,0,3.1,0.6,4.2,1.7c1.2,1.2,1.8,2.6,1.9,4.4v1.1h-9.1c0.2,0.8,0.5,1.5,1.1,2	c0.6,0.5,1.2,0.8,1.9,0.8c1.4,0,2.4-0.5,3-1.6l2.8,0.6c-0.5,1.2-1.3,2.1-2.3,2.8c-1,0.6-2.2,0.9-3.5,0.9c-1.7,0-3.2-0.6-4.4-1.8	c-1.2-1.2-1.8-2.7-1.8-4.6c0-1.9,0.6-3.4,1.8-4.6C130.3,180.4,131.7,179.8,133.5,179.8z M148.3,189.6c0.6,0,1.3-0.2,2-0.6l0.9,2.6	c-1.1,0.6-2.1,0.9-3.1,0.9c-1.5,0-2.6-0.4-3.5-1.2c-0.8-0.8-1.3-2-1.3-3.6v-5h-2.6v-2.6h2.6v-3.6h3.2v3.6h3.9v2.6h-3.9v4.7	C146.6,188.9,147.2,189.6,148.3,189.6z M155,184.8h5.8c-0.2-0.7-0.6-1.3-1.1-1.7c-0.5-0.4-1.1-0.6-1.8-0.6c-0.6,0-1.3,0.2-1.8,0.6	C155.5,183.6,155.2,184.1,155,184.8z M158,179.8c1.6,0,3.1,0.6,4.2,1.7c1.2,1.2,1.8,2.6,1.9,4.4v1.1h-9.1c0.2,0.8,0.5,1.5,1.1,2	c0.6,0.5,1.2,0.8,1.9,0.8c1.4,0,2.4-0.5,3-1.6l2.8,0.6c-0.5,1.2-1.3,2.1-2.3,2.8c-1,0.6-2.2,0.9-3.5,0.9c-1.7,0-3.2-0.6-4.4-1.8	c-1.2-1.2-1.8-2.7-1.8-4.6c0-1.9,0.6-3.4,1.8-4.6C154.7,180.4,156.2,179.8,158,179.8z M169.3,184.8h5.8c-0.2-0.7-0.6-1.3-1.1-1.7	c-0.5-0.4-1.1-0.6-1.8-0.6c-0.6,0-1.3,0.2-1.8,0.6C169.8,183.6,169.4,184.1,169.3,184.8z M172.2,179.8c1.6,0,3.1,0.6,4.2,1.7	c1.2,1.2,1.8,2.6,1.9,4.4v1.1h-9.1c0.2,0.8,0.5,1.5,1.1,2c0.6,0.5,1.2,0.8,1.9,0.8c1.4,0,2.4-0.5,3-1.6l2.8,0.6	c-0.5,1.2-1.3,2.1-2.3,2.8c-1,0.6-2.2,0.9-3.5,0.9c-1.7,0-3.2-0.6-4.4-1.8c-1.2-1.2-1.8-2.7-1.8-4.6c0-1.9,0.6-3.4,1.8-4.6	C169,180.4,170.5,179.8,172.2,179.8z M188.2,180c0.4,0,0.6,0,0.8,0.1l-0.2,3.1h-0.7c-2.9,0-4.3,1.7-4.3,5.1v3.9h-3.2v-12h3.2v2.2	C185,180.8,186.4,180,188.2,180z" fill="#000000"/>
<polygon points="174.3,95.4 191.4,87.2 191.4,78.9 151.9,60 191.4,39.6 191.4,31.7 174.9,24 128,47.3 80.4,24 65,32.3 	65,39.3 102.2,59.7 65,78.6 65,87.2 81,95.4 128.2,71.2 " fill="#00D8A2"/>
<path d="M176.4,92.1v-3.6l12.9-6.7v4L176.4,92.1z M66.1,81.7l12.5,7.2v2.8l-12.5-6.3V81.7z M129.9,66.7l42.9,21.2v4.3l-42.9-22V66.7	z M82.2,88.5l43.9-21.8v3.5L82.2,92.4V88.5z M113.4,52.9L68.9,31.4l11.5-5.9L128,50.3l46.8-24.7l11.9,6.1l-43.4,21.8	c-1.7,0.9-1.7,3.3,0,4.2l42.9,21.5L175.2,85L128,60.8L80,85.5l-11-6.3l44.3-22C115.1,56.3,115.1,53.7,113.4,52.9L113.4,52.9z M66.6,38.7v-3.9l41.5,20.7l-4.2,1.7L66.6,38.7z M151.7,57.4c-0.1,0-4-1.9-4-1.9l41.6-20.9v3.9L151.7,57.4z M155.8,59.4l36.6-18.4	c0.4-0.2,0.6-0.6,0.6-1v-8.7c0-0.4-0.2-0.8-0.6-1l-17.1-8.7c-0.3-0.2-0.7-0.2-1,0l-45.9,23.3c-0.3,0.2-0.7,0.2-1,0L80.9,21.7	c-0.3-0.2-0.7-0.2-1,0L63,30.3c-0.4,0.2-0.6,0.6-0.6,1v8.8c0,0.4,0.2,0.8,0.6,1l36.7,18.2L63.2,77.4c-0.4,0.2-0.6,0.6-0.6,1L62.4,87	c0,0.4,0.2,0.8,0.6,1l17.6,8.9c0.3,0.2,0.7,0.2,1,0l46-23.1c0.3-0.2,0.7-0.2,1,0l45.4,23.1c0.3,0.2,0.7,0.2,1,0l17.5-8.5	c0.4-0.2,0.6-0.6,0.6-1v-9.1c0-0.4-0.2-0.8-0.6-1L155.8,59.4z" fill="#000000"/>
</svg>
