<?xml version="1.0" encoding="utf-8"?>
<!-- Generator: Adobe Illustrator 27.0.0, SVG Export Plug-In . SVG Version: 6.00 Build 0)  -->
<svg version="1.1" id="Layer_1" xmlns="http://www.w3.org/2000/svg" xmlns:xlink="http://www.w3.org/1999/xlink" x="0px" y="0px"
	 viewBox="0 0 256 256" style="enable-background:new 0 0 256 256;" xml:space="preserve">
<style type="text/css">
	.st0{fill:#242938;}
	.st1{fill:#BFBFBF;}
	.st2{fill:#808080;}
	.st3{fill:#FFFFFF;}
	.st4{fill:none;stroke:#000000;stroke-width:0.5;stroke-linecap:round;stroke-linejoin:round;}
	.st5{fill:#0000FF;}
	.st6{fill:#000080;}
	.st7{stroke:#000000;stroke-linecap:round;stroke-linejoin:round;}
	.st8{fill:#FFFF00;}
</style>
<path class="st0" d="M60,0h136c33.1,0,60,26.9,60,60v136c0,33.1-26.9,60-60,60H60c-33.1,0-60-26.9-60-60V60C0,26.9,26.9,0,60,0z"/>
<g>
	<g>
		<g>
			<polygon class="st1" points="112.8,126.1 206.6,126.1 218,114.7 218,94.3 124.2,94.3 112.8,105.6 			"/>
			<polygon class="st2" points="118.5,126.1 118.5,120.4 200.9,120.4 200.9,111.3 218,94.3 218,114.7 206.6,126.1 			"/>
			<polygon class="st3" points="112.8,120.4 118.5,120.4 118.5,111.3 200.9,111.3 218,94.3 212.3,94.3 200.9,105.6 112.8,105.6 			
				"/>
			<rect x="166.8" y="116.4" width="28.4" height="4"/>
			<polygon class="st4" points="112.8,126.1 206.6,126.1 218,114.7 218,94.3 124.2,94.3 112.8,105.6 			"/>
		</g>
		<g>
			<polygon class="st1" points="127.6,103.4 192.9,103.4 204.3,92 204.3,38 138.9,38 127.6,49.4 			"/>
			<polygon class="st2" points="127.6,103.4 130.4,100.5 190.1,100.5 190.1,52.2 204.3,38 204.3,92 192.9,103.4 			"/>
			<polygon class="st3" points="127.6,103.4 130.4,100.5 130.4,52.2 190.1,52.2 192.9,49.4 127.6,49.4 			"/>
			<polygon class="st2" points="130.4,94.8 133.2,92 133.2,55.1 187.2,55.1 190.1,52.2 130.4,52.2 			"/>
			<polygon class="st3" points="130.4,94.8 133.2,92 187.2,92 187.2,55.1 190.1,52.2 190.1,94.8 			"/>
			<rect x="133.2" y="55.1" class="st5" width="54" height="36.9"/>
			<polygon class="st6" points="133.2,92 136.1,92 136.1,57.9 187.2,57.9 187.2,55.1 133.2,55.1 			"/>
			<polygon class="st4" points="127.6,103.4 192.9,103.4 204.3,92 204.3,38 138.9,38 127.6,49.4 			"/>
		</g>
	</g>
	<g>
		<g>
			<polygon class="st1" points="38,218 131.8,218 143.2,206.6 143.2,186.2 49.4,186.2 38,197.5 			"/>
			<polygon class="st2" points="43.7,218 43.7,212.3 126.2,212.3 126.2,203.2 143.2,186.2 143.2,206.6 131.8,218 			"/>
			<polygon class="st3" points="38,212.3 43.7,212.3 43.7,203.2 126.2,203.2 143.2,186.2 137.5,186.2 126.2,197.5 38,197.5 			"/>
			<rect x="92" y="208.3" width="28.4" height="4"/>
			<polygon class="st4" points="38,218 131.8,218 143.2,206.6 143.2,186.2 49.4,186.2 38,197.5 			"/>
		</g>
		<g>
			<polygon class="st1" points="52.8,195.3 118.1,195.3 129.5,183.9 129.5,129.9 64.1,129.9 52.8,141.3 			"/>
			<polygon class="st2" points="52.8,195.3 55.6,192.4 115.3,192.4 115.3,144.1 129.5,129.9 129.5,183.9 118.1,195.3 			"/>
			<polygon class="st3" points="52.8,195.3 55.6,192.4 55.6,144.1 115.3,144.1 118.1,141.3 52.8,141.3 			"/>
			<polygon class="st2" points="55.6,186.7 58.5,183.9 58.5,146.9 112.5,146.9 115.3,144.1 55.6,144.1 			"/>
			<polygon class="st3" points="55.6,186.7 58.5,183.9 112.5,183.9 112.5,146.9 115.3,144.1 115.3,186.7 			"/>
			<rect x="58.5" y="146.9" class="st5" width="54" height="36.9"/>
			<polygon class="st6" points="58.5,183.9 61.3,183.9 61.3,149.8 112.5,149.8 112.5,146.9 58.5,146.9 			"/>
			<polygon class="st4" points="52.8,195.3 118.1,195.3 129.5,183.9 129.5,129.9 64.1,129.9 52.8,141.3 			"/>
		</g>
	</g>
	<g>
		<polygon class="st7" points="125.8,126.6 86.9,166.8 150.6,115.2 122.8,115.2 161.7,74.9 97.9,126.6 		"/>
		<polygon class="st8" points="125.8,126.6 86.9,166.8 150.6,115.2 122.8,115.2 161.7,74.9 97.9,126.6 		"/>
	</g>
</g>
</svg>
