<?xml version="1.0" encoding="utf-8"?>
<!-- Generator: Adobe Illustrator 27.0.0, SVG Export Plug-In . SVG Version: 6.00 Build 0)  -->
<svg version="1.1" id="Layer_1" xmlns="http://www.w3.org/2000/svg" xmlns:xlink="http://www.w3.org/1999/xlink" x="0px" y="0px"
	 viewBox="0 0 256 256" style="enable-background:new 0 0 256 256;" xml:space="preserve">
<style type="text/css">
	.st0{fill:#F4F2ED;}
	.st1{fill:#3D3D3D;}
	.st2{fill:#5A0FC8;}
</style>
<path class="st0" d="M60,0h136c33.1,0,60,26.9,60,60v136c0,33.1-26.9,60-60,60H60c-33.1,0-60-26.9-60-60V60C0,26.9,26.9,0,60,0z"/>
<g>
	<path class="st1" d="M170.7,149.8l5.2-13.2H191l-7.2-20l9-22.6l25.6,68.1h-18.9l-4.4-12.2H170.7z"/>
	<path class="st2" d="M154.5,162L182,94l-18.2,0L145,138l-13.4-44h-14l-14.3,44l-10.1-20l-9.1,28.2l9.3,15.9h17.9l13-39.4l12.4,39.4
		H154.5z"/>
	<path class="st1" d="M54.9,138.7h11.2c3.4,0,6.4-0.4,9.1-1.1l2.9-8.9l8.1-25c-0.6-1-1.3-1.9-2.1-2.8C79.9,96.3,73.8,94,65.8,94
		H37.6V162h17.3V138.7z M69.7,109.6c1.6,1.6,2.4,3.8,2.4,6.6c0,2.8-0.7,5-2.1,6.6c-1.6,1.8-4.5,2.7-8.7,2.7h-6.5v-18.3h6.5
		C65.3,107.2,68.1,108,69.7,109.6z"/>
</g>
</svg>
