<?xml version="1.0" encoding="utf-8"?>
<!-- Generator: Adobe Illustrator 27.0.0, SVG Export Plug-In . SVG Version: 6.00 Build 0)  -->
<svg version="1.1" id="Layer_1" xmlns="http://www.w3.org/2000/svg" xmlns:xlink="http://www.w3.org/1999/xlink" x="0px" y="0px"
	 viewBox="0 0 256 256" style="enable-background:new 0 0 256 256;" xml:space="preserve">
<style type="text/css">
	.st0{fill:#242938;}
	.st1{fill:#FFFFFF;}
	.st2{fill:#5A0FC8;}
</style>
<path class="st0" d="M60,0h136c33.1,0,60,26.9,60,60v136c0,33.1-26.9,60-60,60H60c-33.1,0-60-26.9-60-60V60C0,26.9,26.9,0,60,0z"/>
<g>
	<path class="st1" d="M170.5,149.7l5.2-13.1h15l-7.1-19.9l8.9-22.5l25.5,67.8h-18.8l-4.4-12.1H170.5z"/>
	<path class="st2" d="M154.4,161.9l27.3-67.8l-18.1,0l-18.7,43.8l-13.3-43.8h-13.9l-14.3,43.8l-10.1-20L84.3,146l9.2,15.9h17.8
		l12.9-39.3l12.3,39.3H154.4z"/>
	<path class="st1" d="M55.2,138.6h11.2c3.4,0,6.4-0.4,9-1.1l2.9-8.9l8.1-24.8c-0.6-1-1.3-1.9-2.1-2.8c-4.1-4.6-10.2-6.9-18.2-6.9H38
		v67.8h17.2V138.6z M70,109.7c1.6,1.6,2.4,3.8,2.4,6.5c0,2.7-0.7,4.9-2.1,6.5c-1.6,1.8-4.4,2.7-8.6,2.7h-6.4v-18.2h6.5
		C65.6,107.3,68.3,108.1,70,109.7z"/>
</g>
</svg>
