<svg width="256" height="256" viewBox="0 0 256 256" fill="none" xmlns="http://www.w3.org/2000/svg">
<g clip-path="url(#clip0_10_639)">
<path d="M196 0H60C26.8629 0 0 26.8629 0 60V196C0 229.137 26.8629 256 60 256H196C229.137 256 256 229.137 256 196V60C256 26.8629 229.137 0 196 0Z" fill="#F4F2ED"/>
<path d="M126.809 27.0017C118.562 27.04 110.687 27.7433 103.757 28.9695C83.3431 32.576 79.6367 40.1247 79.6367 54.0457V72.4311H127.877V78.5596H79.6367H61.5324C47.5123 78.5596 35.2359 86.9865 31.396 103.017C26.9668 121.392 26.7703 132.859 31.396 152.045C34.8251 166.327 43.0144 176.503 57.0344 176.503H73.6207V154.463C73.6207 138.54 87.3973 124.495 103.757 124.495H151.942C165.354 124.495 176.062 113.451 176.062 99.9812V54.0457C176.062 40.9722 165.033 31.1514 151.942 28.9695C143.654 27.59 135.056 26.9633 126.809 27.0017ZM100.721 41.7887C105.704 41.7887 109.773 45.9244 109.773 51.0096C109.773 56.0767 105.704 60.1742 100.721 60.1742C95.7201 60.1742 91.6688 56.0767 91.6688 51.0096C91.6688 45.9244 95.7201 41.7887 100.721 41.7887Z" fill="url(#paint0_linear_10_639)"/>
<path d="M182.078 78.5596V99.9811C182.078 116.589 167.998 130.567 151.942 130.567H103.757C90.5585 130.567 79.6367 141.863 79.6367 155.081V201.017C79.6367 214.09 91.005 221.78 103.757 225.531C119.027 230.021 133.671 230.832 151.942 225.531C164.086 222.014 176.062 214.938 176.062 201.017V182.631H127.877V176.503H176.062H200.182C214.202 176.503 219.427 166.723 224.303 152.045C229.339 136.934 229.125 122.402 224.303 103.017C220.838 89.0602 214.22 78.5596 200.182 78.5596H182.078ZM154.978 194.888C159.978 194.888 164.03 198.986 164.03 204.053C164.03 209.138 159.978 213.274 154.978 213.274C149.995 213.274 145.925 209.138 145.925 204.053C145.925 198.986 149.995 194.888 154.978 194.888Z" fill="url(#paint1_linear_10_639)"/>
</g>
<defs>
<linearGradient id="paint0_linear_10_639" x1="28" y1="27" x2="139.238" y2="121.79" gradientUnits="userSpaceOnUse">
<stop stop-color="#5A9FD4"/>
<stop offset="1" stop-color="#306998"/>
</linearGradient>
<linearGradient id="paint1_linear_10_639" x1="153.818" y1="202.507" x2="113.91" y2="146.584" gradientUnits="userSpaceOnUse">
<stop stop-color="#FFD43B"/>
<stop offset="1" stop-color="#FFE873"/>
</linearGradient>
<clipPath id="clip0_10_639">
<rect width="256" height="256" fill="white"/>
</clipPath>
</defs>
</svg>
