<svg width="256" height="256" viewBox="0 0 256 256" fill="none" xmlns="http://www.w3.org/2000/svg">
<g clip-path="url(#clip0_10_635)">
<path d="M196 0H60C26.8629 0 0 26.8629 0 60V196C0 229.137 26.8629 256 60 256H196C229.137 256 256 229.137 256 196V60C256 26.8629 229.137 0 196 0Z" fill="#242938"/>
<path d="M126.73 28.0016C118.573 28.0395 110.784 28.7352 103.93 29.948C83.7386 33.5151 80.0727 40.9813 80.0727 54.7502V72.9349H127.786V78.9964H80.0727H62.1661C48.2992 78.9964 36.1569 87.3312 32.3589 103.187C27.978 121.361 27.7837 132.702 32.3589 151.679C35.7506 165.805 43.8503 175.87 57.7173 175.87H74.1224V154.07C74.1224 138.322 87.7485 124.43 103.93 124.43H151.588C164.854 124.43 175.445 113.507 175.445 100.184V54.7502C175.445 41.8196 164.536 32.1061 151.588 29.948C143.391 28.5836 134.887 27.9637 126.73 28.0016ZM100.927 42.6272C105.855 42.6272 109.88 46.7177 109.88 51.7473C109.88 56.7591 105.855 60.8118 100.927 60.8118C95.9804 60.8118 91.9733 56.759 91.9733 51.7473C91.9733 46.7177 95.9804 42.6272 100.927 42.6272Z" fill="url(#paint0_linear_10_635)"/>
<path d="M181.395 78.9963V100.184C181.395 116.61 167.468 130.436 151.588 130.436H103.929C90.875 130.436 80.0725 141.609 80.0725 154.682V200.116C80.0725 213.047 91.3166 220.652 103.929 224.362C119.033 228.803 133.516 229.606 151.588 224.362C163.6 220.884 175.444 213.885 175.444 200.116V181.931H127.786V175.87H175.444H199.301C213.168 175.87 218.336 166.197 223.158 151.679C228.14 136.733 227.928 122.36 223.158 103.187C219.731 89.3822 213.186 78.9963 199.301 78.9963H181.395ZM154.59 194.054C159.537 194.054 163.544 198.107 163.544 203.119C163.544 208.148 159.537 212.239 154.59 212.239C149.662 212.239 145.637 208.148 145.637 203.119C145.637 198.107 149.662 194.054 154.59 194.054Z" fill="url(#paint1_linear_10_635)"/>
</g>
<defs>
<linearGradient id="paint0_linear_10_635" x1="29" y1="28" x2="139.023" y2="121.755" gradientUnits="userSpaceOnUse">
<stop stop-color="#5A9FD4"/>
<stop offset="1" stop-color="#306998"/>
</linearGradient>
<linearGradient id="paint1_linear_10_635" x1="153.444" y1="201.59" x2="113.972" y2="146.278" gradientUnits="userSpaceOnUse">
<stop stop-color="#FFD43B"/>
<stop offset="1" stop-color="#FFE873"/>
</linearGradient>
<clipPath id="clip0_10_635">
<rect width="256" height="256" fill="white"/>
</clipPath>
</defs>
</svg>
