<svg width="256" height="256" viewBox="0 0 256 256" fill="none" xmlns="http://www.w3.org/2000/svg">
<g clip-path="url(#clip0_129_4698)">
<path d="M196 0H60C26.8629 0 0 26.8629 0 60V196C0 229.137 26.8629 256 60 256H196C229.137 256 256 229.137 256 196V60C256 26.8629 229.137 0 196 0Z" fill="#242938"/>
<path d="M186.919 86.7727L172.398 101.293C196.599 125.494 196.599 164.906 172.398 189.106C148.198 213.307 108.786 213.307 84.5851 189.106C60.3846 164.906 60.3846 125.494 84.5851 101.293L123.306 62.5722L128.146 57.0406V28L69.3734 86.7727C36.8755 119.271 36.8755 171.129 69.3734 203.627C101.871 236.124 153.729 236.124 186.227 203.627C219.416 171.129 219.416 118.579 186.919 86.7727Z" fill="#EE4C2C"/>
<path d="M157.878 82.624C163.988 82.624 168.941 77.6709 168.941 71.5609C168.941 65.4509 163.988 60.4978 157.878 60.4978C151.768 60.4978 146.815 65.4509 146.815 71.5609C146.815 77.6709 151.768 82.624 157.878 82.624Z" fill="#EE4C2C"/>
</g>
<defs>
<clipPath id="clip0_129_4698">
<rect width="256" height="256" fill="white"/>
</clipPath>
</defs>
</svg>
