<svg width="233" height="256" viewBox="0 0 233 256" fill="none" xmlns="http://www.w3.org/2000/svg">
<g clip-path="url(#clip0_10_630)">
<path d="M177.916 0H54.4641C24.3844 0 0 26.8629 0 60V196C0 229.137 24.3844 256 54.4641 256H177.916C207.996 256 232.38 229.137 232.38 196V60C232.38 26.8629 207.996 0 177.916 0Z" fill="#242938"/>
<path d="M157.211 99.0863L147.06 109.237C163.978 126.155 163.978 153.707 147.06 170.625C130.143 187.543 102.591 187.543 85.6728 170.625C68.7549 153.707 68.7549 126.155 85.6728 109.237L112.741 82.1684L116.125 78.3014V58L75.0387 99.0863C52.3204 121.805 52.3204 158.057 75.0387 180.775C97.757 203.494 134.01 203.494 156.728 180.775C179.929 158.057 179.929 121.321 157.211 99.0863Z" fill="#EE4C2C"/>
<path d="M136.91 96.186C141.181 96.186 144.644 92.7235 144.644 88.4521C144.644 84.1808 141.181 80.7183 136.91 80.7183C132.638 80.7183 129.176 84.1808 129.176 88.4521C129.176 92.7235 132.638 96.186 136.91 96.186Z" fill="#EE4C2C"/>
</g>
<defs>
<clipPath id="clip0_10_630">
<rect width="232.38" height="256" fill="white"/>
</clipPath>
</defs>
</svg>
