<svg width="256" height="256" viewBox="0 0 256 256" fill="none" xmlns="http://www.w3.org/2000/svg">
<rect width="256" height="256" rx="60" fill="#F4F2ED"/>
<path d="M180.975 90.4153L167.567 103.824C189.508 125.765 189.508 161.115 167.567 182.65C145.625 204.591 110.275 204.591 88.7404 182.65C66.7991 160.709 66.7991 125.359 88.7404 103.824L123.481 69.0835L128.357 64.2077V38L75.9413 90.4153C46.6862 119.67 46.6862 166.804 75.9413 196.059C105.196 225.314 152.33 225.314 180.975 196.059C210.23 166.6 210.23 119.67 180.975 90.4153Z" fill="#EE4C2C"/>
<path d="M154.768 87.1646C160.153 87.1646 164.519 82.7986 164.519 77.4129C164.519 72.0272 160.153 67.6611 154.768 67.6611C149.382 67.6611 145.016 72.0272 145.016 77.4129C145.016 82.7986 149.382 87.1646 154.768 87.1646Z" fill="#EE4C2C"/>
</svg>
