<svg width="256" height="256" fill="none" version="1.1" viewBox="0 0 256 256" xml:space="preserve" xmlns="http://www.w3.org/2000/svg"><rect width="256" height="256" rx="60" fill="#F4F2ED"/><style>
		.st0 {
			fill: #050a14
		}

		.st1 {
			fill: #00b4ff
		}
	</style><g transform="matrix(.20072 0 0 .20072 25.231 25.231)"><path id="path8860-5-4-8-2-7-1-8_20_" class="st0" d="m586.2 512a74.2 74.2 0 1 1-148.4 0 74.2 74.2 0 1 1 148.4 0z"/><path id="path8862-5-5-9-1-9-2-7_20_" class="st0" d="m841.3 321.8a375.7 375.7 0 0 0-58.3-76.2l-85.8 49.5a286.7 286.7 0 0 0-89.5-51.9 352 352 0 0 0-69.3 98.9c95.5-6.5 194.1 28.1 285.6 99.6l54-31.2a377.5 377.5 0 0 0-36.7-88.7z"/><path id="path8866-7-5-5-0-3-5-6_20_" class="st0" d="m512 892.2c32.1-0.1 64.1-4.3 95.1-12.4v-99a285 285 0 0 0 89.7-51.6 352.3 352.3 0 0 0-51-109.5c-42.1 85.9-121.3 154-229 197.5v62.3a369.4 369.4 0 0 0 95.2 12.7z"/><path id="path8870-5-3-9-3-0-0-9_20_" class="st0" d="m182.7 321.9a377.8 377.8 0 0 0-36.8 88.6l85.8 49.5a285.8 285.8 0 0 0-0.2 103.5 352.7 352.7 0 0 0 120.3 10.6c-53.4-79.4-72.7-182.1-56.6-297.1l-54-31.2a376.9 376.9 0 0 0-58.5 76.1z"/>
		<path id="path8864-4-8-1-2-7-3-1_20_" class="st1" d="m841.3 702.1c16-27.8 28.3-57.6 36.8-88.6l-85.7-49.5c6.4-34.6 6.4-69.6 0.2-103.5a352.7 352.7 0 0 0-120.3-10.6c53.4 79.4 72.7 182.1 56.6 297.1l54 31.2a382 382 0 0 0 58.4-76.1z"/>
		<path id="path8868-6-7-4-7-5-7-1_20_" class="st1" d="m182.7 702.1a375.7 375.7 0 0 0 58.3 76.2l85.8-49.5a286.7 286.7 0 0 0 89.5 51.9 352 352 0 0 0 69.3-98.9c-95.5 6.5-194.1-28.1-285.6-99.6l-54 31.2c8.5 31 20.8 60.8 36.7 88.7z"/>
		<path id="path8872-6-3-2-1-4-2-1_20_" class="st1" d="m512 131.7c-32.1 0.1-64.1 4.3-95.1 12.4v99a285 285 0 0 0-89.7 51.6 352.3 352.3 0 0 0 51 109.5c42.1-85.9 121.3-154 229-197.5v-62.3a378.3 378.3 0 0 0-95.2-12.7z"/>
	<path class="st1" d="m512 66.4c245.7 0 445.6 199.9 445.6 445.6s-199.9 445.6-445.6 445.6-445.6-199.9-445.6-445.6 199.9-445.6 445.6-445.6m0-65.4a511 511 0 1 0 0 1022 511 511 0 0 0 0-1022z"/></g></svg>
