<svg width="256" height="256" viewBox="0 0 256 256" fill="none" xmlns="http://www.w3.org/2000/svg">
<g clip-path="url(#clip0_1_23)">
<path d="M196 0H60C26.8629 0 0 26.8629 0 60V196C0 229.137 26.8629 256 60 256H196C229.137 256 256 229.137 256 196V60C256 26.8629 229.137 0 196 0Z" fill="#F4F2ED"/>
<path d="M194.286 221L160.822 187.613L160.311 187.686V187.32L89.1448 116.811L106.681 99.824L96.3784 40.5175L47.4974 101.289C39.1678 109.708 37.6335 123.4 43.6249 133.504L74.1664 184.318C78.8425 192.152 87.3181 196.838 96.4515 196.765L111.576 196.618L194.286 221Z" fill="#18B6F6"/>
<path d="M212.55 100.116L205.828 87.6696L202.321 81.2997L200.933 78.8102L200.787 78.9568L182.374 46.9604C177.771 38.9064 169.149 33.9276 159.797 34.0008L143.649 34.4401L95.4984 34.5865C86.3654 34.6597 78.0359 39.4921 73.4327 47.3265L44.1333 105.608L96.5215 40.3707L165.203 116.078L153.001 128.452L160.308 187.685L160.381 187.539V187.685H160.235L160.381 187.832L166.08 193.396L193.772 220.56C194.941 221.659 196.841 220.341 196.037 218.95L178.94 185.196L208.751 129.916L209.7 128.818C210.066 128.379 210.431 127.94 210.723 127.5C216.569 119.519 217.372 108.83 212.55 100.116Z" fill="#AC7EF4"/>
<path d="M165.422 115.786L96.5207 40.4442L106.312 99.4579L88.7757 116.518L160.161 187.613L153.731 128.599L165.422 115.786Z" fill="white"/>
</g>
<defs>
<clipPath id="clip0_1_23">
<rect width="256" height="256" fill="white"/>
</clipPath>
</defs>
</svg>
