<svg width="256" height="256" viewBox="0 0 256 256" fill="none" xmlns="http://www.w3.org/2000/svg">
<g clip-path="url(#clip0_18_221)">
<path d="M196 0H60C26.8629 0 0 26.8629 0 60V196C0 229.137 26.8629 256 60 256H196C229.137 256 256 229.137 256 196V60C256 26.8629 229.137 0 196 0Z" fill="#242938"/>
<path fill-rule="evenodd" clip-rule="evenodd" d="M128 184.946C72.7717 184.946 28 154.961 28 117.973C28 80.9847 72.7717 51 128 51C183.229 51 228 80.9847 228 117.973C228 154.961 183.229 184.946 128 184.946ZM143.307 77.1841C101.328 77.1841 67.2981 97.683 67.2981 122.97C67.2981 148.256 101.328 168.755 143.307 168.755C185.285 168.755 216.264 154.74 216.264 122.97C216.264 91.2086 185.285 77.1841 143.307 77.1841Z" fill="url(#paint0_linear_18_221)"/>
<path fill-rule="evenodd" clip-rule="evenodd" d="M180.295 154.731C180.295 154.731 186.347 156.558 189.863 158.337C191.084 158.954 193.195 160.186 194.717 161.804C196.209 163.388 196.936 164.994 196.936 164.994L220.789 205.21L182.236 205.227L164.208 171.373C164.208 171.373 160.516 165.03 158.245 163.191C156.35 161.657 155.542 161.111 153.668 161.111C152.364 161.111 144.508 161.111 144.508 161.111L144.516 205.203L110.401 205.217V92.5863H178.908C178.908 92.5863 210.11 93.1491 210.11 122.835C210.11 152.522 180.295 154.731 180.295 154.731ZM165.456 117.018L144.803 117.004L144.793 136.156L165.456 136.149C165.456 136.149 175.025 136.119 175.025 126.407C175.025 116.499 165.456 117.018 165.456 117.018Z" fill="url(#paint1_linear_18_221)"/>
</g>
<defs>
<linearGradient id="paint0_linear_18_221" x1="28" y1="51" x2="151.859" y2="235.939" gradientUnits="userSpaceOnUse">
<stop stop-color="#CBCED0"/>
<stop offset="1" stop-color="#84838B"/>
</linearGradient>
<linearGradient id="paint1_linear_18_221" x1="110.401" y1="92.5863" x2="223.019" y2="202.952" gradientUnits="userSpaceOnUse">
<stop stop-color="#276DC3"/>
<stop offset="1" stop-color="#165CAA"/>
</linearGradient>
<clipPath id="clip0_18_221">
<rect width="256" height="256" fill="white"/>
</clipPath>
</defs>
</svg>
