<svg width="256" height="256" viewBox="0 0 256 256" fill="none" xmlns="http://www.w3.org/2000/svg">
<rect width="256" height="256" rx="60" fill="#242938"/>
<g clip-path="url(#clip0_101_254)">
<path fill-rule="evenodd" clip-rule="evenodd" d="M127.849 185.237C72.8423 185.237 28.2503 155.372 28.2503 118.533C28.2503 81.693 72.8423 51.8286 127.849 51.8286C182.856 51.8286 227.448 81.693 227.448 118.533C227.448 155.372 182.856 185.237 127.849 185.237ZM143.094 77.9076C101.284 77.9076 67.3906 98.3242 67.3906 123.509C67.3906 148.694 101.284 169.111 143.094 169.111C184.904 169.111 215.759 155.153 215.759 123.509C215.759 91.8759 184.904 77.9076 143.094 77.9076Z" fill="url(#paint0_linear_101_254)"/>
<path fill-rule="evenodd" clip-rule="evenodd" d="M179.934 155.144C179.934 155.144 185.962 156.963 189.464 158.735C190.679 159.35 192.782 160.577 194.298 162.188C195.784 163.766 196.508 165.365 196.508 165.365L220.265 205.42L181.867 205.437L163.912 171.718C163.912 171.718 160.235 165.401 157.972 163.569C156.085 162.041 155.28 161.497 153.414 161.497C152.115 161.497 144.291 161.497 144.291 161.497L144.298 205.413L110.32 205.427V93.248H178.552C178.552 93.248 209.63 93.8085 209.63 123.376C209.63 152.943 179.934 155.144 179.934 155.144ZM165.155 117.581L144.585 117.568L144.575 136.643L165.155 136.636C165.155 136.636 174.685 136.606 174.685 126.933C174.685 117.065 165.155 117.581 165.155 117.581Z" fill="url(#paint1_linear_101_254)"/>
</g>
<defs>
<linearGradient id="paint0_linear_101_254" x1="28.2503" y1="51.8286" x2="151.612" y2="236.026" gradientUnits="userSpaceOnUse">
<stop stop-color="#CBCED0"/>
<stop offset="1" stop-color="#84838B"/>
</linearGradient>
<linearGradient id="paint1_linear_101_254" x1="110.32" y1="93.248" x2="222.487" y2="203.17" gradientUnits="userSpaceOnUse">
<stop stop-color="#276DC3"/>
<stop offset="1" stop-color="#165CAA"/>
</linearGradient>
<clipPath id="clip0_101_254">
<rect width="200" height="154.972" fill="white" transform="translate(28 51)"/>
</clipPath>
</defs>
</svg>
