<svg width="256" height="256" viewBox="0 0 256 256" fill="none" xmlns="http://www.w3.org/2000/svg">
<rect width="256" height="256" rx="60" fill="#F4F2ED"/>
<path d="M 91.582 30.003 C 90.543 30.034 89.424 30.402 88.154 31.362 C 85.042 30.213 82.026 29.814 79.329 32.153 C 75.163 31.636 73.809 32.704 72.784 33.953 C 71.87 33.934 65.942 33.051 63.224 36.937 C 56.393 36.163 54.232 40.788 56.678 45.098 C 55.285 47.17 53.837 49.212 57.101 53.159 C 55.947 55.356 56.662 57.739 59.382 60.626 C 58.664 63.713 60.074 65.893 62.604 67.592 C 62.13 71.818 66.649 74.278 67.999 75.152 C 68.517 77.614 69.597 79.94 74.761 81.223 C 75.608 84.897 78.712 85.53 81.716 86.299 C 71.787 91.831 63.274 99.104 63.333 116.955 L 61.877 119.442 C 50.491 126.076 40.25 147.395 56.266 164.725 C 57.314 170.15 59.066 174.045 60.628 178.358 C 62.966 195.735 78.215 203.871 82.236 204.834 C 88.131 209.134 94.408 213.214 102.902 216.074 C 110.909 223.988 119.585 227.003 128.308 227 L 128.692 227 C 137.417 227.004 146.093 223.988 154.098 216.074 C 162.593 213.216 168.869 209.134 174.764 204.834 C 178.786 203.871 194.036 195.735 196.371 178.356 C 197.933 174.045 199.687 170.15 200.735 164.725 C 216.75 147.395 206.509 126.073 195.122 119.438 L 193.668 116.954 C 193.726 99.104 185.212 91.827 175.283 86.298 C 178.287 85.528 181.391 84.892 182.241 81.222 C 187.402 79.937 188.481 77.613 189 75.15 C 190.349 74.273 194.87 71.817 194.396 67.587 C 196.925 65.891 198.335 63.71 197.618 60.621 C 200.338 57.737 201.052 55.353 199.897 53.155 C 203.162 49.212 201.713 47.167 200.32 45.097 C 202.765 40.784 200.608 36.161 193.774 36.935 C 191.056 33.051 185.129 33.934 184.216 33.951 C 183.189 32.703 181.834 31.635 177.669 32.152 C 174.973 29.814 171.955 30.213 168.844 31.362 C 165.151 28.569 162.704 30.808 159.913 31.655 C 155.44 30.253 154.417 32.172 152.221 32.954 C 147.343 31.966 145.86 34.116 143.521 36.386 L 140.801 36.335 C 133.444 40.487 129.79 48.948 128.496 53.297 C 127.198 48.946 123.553 40.486 116.197 36.335 L 113.477 36.384 C 111.135 34.114 109.653 31.966 104.776 32.954 C 102.579 32.172 101.557 30.254 97.082 31.655 C 95.248 31.099 93.563 29.943 91.579 30.002 L 91.582 30.003" fill="#050606"/>
<path d="M 77.082 48.281 C 96.601 57.92 107.946 65.722 114.164 72.366 C 110.981 84.591 94.373 85.148 88.299 84.805 C 89.544 84.251 90.581 83.586 90.949 82.567 C 89.425 81.53 84.023 82.458 80.25 80.426 C 81.699 80.138 82.377 79.858 83.055 78.835 C 79.49 77.745 75.652 76.806 73.394 75.001 C 74.613 75.018 75.75 75.264 77.342 74.205 C 74.149 72.557 70.743 71.252 68.098 68.732 C 69.744 68.694 71.526 68.715 72.044 68.135 C 69.122 66.402 66.657 64.472 64.618 62.364 C 66.928 62.63 67.902 62.401 68.462 62.013 C 66.252 59.847 63.457 58.017 62.124 55.347 C 63.839 55.913 65.408 56.13 66.539 55.296 C 65.787 53.674 62.574 52.717 60.721 48.928 C 62.527 49.094 64.442 49.305 64.823 48.928 C 63.987 45.656 62.55 43.816 61.139 41.913 C 65.002 41.857 70.856 41.925 70.591 41.611 L 68.201 39.275 C 71.976 38.3 75.838 39.432 78.642 40.269 C 79.9 39.318 78.62 38.116 77.085 36.884 C 80.292 37.295 83.189 38.003 85.807 38.976 C 87.208 37.765 84.9 36.555 83.783 35.342 C 88.738 36.244 90.838 37.509 92.923 38.778 C 94.438 37.386 93.01 36.206 91.99 34.996 C 95.725 36.321 97.649 38.034 99.677 39.723 C 100.364 38.833 101.42 38.182 100.144 36.04 C 102.795 37.505 104.793 39.232 106.271 41.165 C 107.912 40.163 107.249 38.793 107.259 37.532 C 110.016 39.681 111.764 41.966 113.908 44.201 C 114.336 43.901 114.714 42.879 115.049 41.265 C 121.625 47.378 130.919 62.778 117.437 68.883 C 105.964 59.818 92.261 53.226 77.077 48.281 L 77.08 48.281 M 180.464 48.281 C 160.947 57.922 149.599 65.72 143.383 72.366 C 146.568 84.591 163.176 85.148 169.247 84.805 C 168.003 84.251 166.967 83.586 166.6 82.567 C 168.123 81.53 173.527 82.458 177.298 80.426 C 175.849 80.138 175.17 79.858 174.494 78.835 C 178.057 77.745 181.896 76.806 184.154 75.001 C 182.935 75.018 181.796 75.264 180.205 74.205 C 183.398 72.557 186.804 71.252 189.452 68.732 C 187.8 68.694 186.022 68.715 185.504 68.135 C 188.427 66.402 190.892 64.472 192.932 62.364 C 190.621 62.63 189.647 62.401 189.087 62.013 C 191.296 59.847 194.091 58.017 195.424 55.347 C 193.709 55.913 192.141 56.13 191.009 55.296 C 191.76 53.674 194.974 52.717 196.827 48.928 C 195.019 49.094 193.106 49.305 192.722 48.928 C 193.563 45.656 194.998 43.815 196.41 41.911 C 192.547 41.856 186.692 41.923 186.957 41.611 L 189.349 39.275 C 185.572 38.299 181.71 39.43 178.908 40.267 C 177.648 39.316 178.932 38.114 180.464 36.883 C 177.26 37.294 174.36 38.002 171.742 38.975 C 170.341 37.763 172.65 36.554 173.766 35.341 C 168.811 36.243 166.713 37.508 164.625 38.774 C 163.112 37.385 164.54 36.204 165.559 34.995 C 161.823 36.32 159.899 38.033 157.873 39.719 C 157.187 38.831 156.129 38.18 157.406 36.036 C 154.754 37.503 152.755 39.228 151.277 41.163 C 149.636 40.161 150.3 38.791 150.289 37.531 C 147.535 39.679 145.784 41.966 143.642 44.2 C 143.212 43.9 142.834 42.878 142.5 41.263 C 135.923 47.376 126.63 62.776 140.111 68.882 C 151.58 59.812 165.279 53.223 180.467 48.28 L 180.464 48.28" fill="#63c54d"/>
<path d="M 152.379 172.774 C 152.447 184.182 142.034 193.48 129.122 193.541 C 116.209 193.601 105.687 184.402 105.618 172.992 L 105.618 172.774 C 105.549 161.365 115.962 152.067 128.874 152.007 C 141.788 151.947 152.31 161.146 152.379 172.555 L 152.379 172.772 M 115.925 113.763 C 125.611 119.844 127.357 133.629 119.825 144.552 C 112.29 155.475 98.331 159.401 88.642 153.319 C 78.956 147.238 77.209 133.451 84.743 122.53 C 92.276 111.605 106.236 107.681 115.925 113.763 M 142.072 112.661 C 132.384 118.744 130.638 132.527 138.172 143.452 C 145.706 154.373 159.666 158.301 169.352 152.217 C 179.042 146.136 180.786 132.351 173.253 121.428 C 165.718 110.507 151.76 106.58 142.072 112.663 M 68.105 123.769 C 78.563 121.081 71.635 165.229 63.127 161.608 C 53.764 154.393 50.748 133.265 68.103 123.769 M 188.978 123.219 C 178.517 120.534 185.445 164.682 193.957 161.06 C 203.318 153.844 206.332 132.715 188.978 123.219 M 153.897 90.281 C 171.948 87.36 186.966 97.634 186.36 116.389 C 185.766 123.578 147.246 91.35 153.897 90.279 M 104.025 89.73 C 85.972 86.809 70.953 97.086 71.56 115.839 C 72.154 123.028 110.675 90.799 104.025 89.73 M 128.891 85.356 C 118.12 85.088 107.781 93.019 107.754 97.615 C 107.726 103.205 116.272 108.926 128.967 109.072 C 141.928 109.16 150.199 104.492 150.241 98.725 C 150.288 92.191 138.451 85.256 128.891 85.356 M 129.724 199.957 C 139.117 199.563 151.722 202.855 151.745 207.221 C 151.902 211.461 140.315 221.041 129.101 220.857 C 117.488 221.338 106.1 211.742 106.25 208.417 C 106.075 203.54 120.392 199.734 129.724 199.957 M 94.964 174.078 C 101.65 181.798 104.697 195.36 99.119 199.357 C 93.84 202.41 81.017 201.153 71.902 188.608 C 65.758 178.084 66.551 167.372 70.866 164.224 C 77.319 160.458 87.29 165.546 94.962 174.078 M 162.293 171.63 C 155.056 179.752 151.027 194.561 156.305 199.331 C 161.351 203.038 174.899 202.519 184.908 189.214 C 192.175 180.278 189.739 165.357 185.589 161.394 C 179.423 156.823 170.572 162.672 162.292 171.627 L 162.292 171.63" fill="#c51850"/>
</svg>