<svg xmlns="http://www.w3.org/2000/svg" width="256" height="256"><rect width="256" height="256" rx="60" fill="#F9F6EF"/><g fill="#F26B00"><path d="M60.816 84.848c0 11.246-9.117 20.359-20.363 20.359-11.246 0-20.36-9.113-20.36-20.36 0-11.25 9.114-20.363 20.36-20.363 11.246 0 20.363 9.114 20.363 20.364"/><path d="M215.543 176.734H101.598c-15.04 0-27.274-12.234-27.274-27.273 0-15.04 12.235-27.274 27.274-27.274h51.535c8.883 0 16.11-7.226 16.11-16.109 0-8.883-7.231-16.11-16.11-16.11H40.453a5.584 5.584 0 110-11.167h112.68c15.039 0 27.273 12.238 27.273 27.277 0 15.04-12.234 27.274-27.273 27.274h-51.535c-8.883 0-16.11 7.226-16.11 16.109 0 8.883 7.227 16.11 16.11 16.11h113.945a5.58 5.58 0 015.582 5.581 5.58 5.58 0 01-5.582 5.582zm0 0"/><path d="M195.184 171.152c0-11.246 9.113-20.359 20.363-20.359 11.246 0 20.36 9.113 20.36 20.36 0 11.25-9.114 20.363-20.36 20.363-11.25 0-20.363-9.114-20.363-20.364"/></g></svg>