<?xml version="1.0" encoding="UTF-8" standalone="no"?>
<svg
   width="256"
   height="256"
   viewBox="0 0 256 256"
   fill="none"
   version="1.1"
   id="svg12"
   sodipodi:docname="Regex-Dark.svg"
   inkscape:version="1.1.2 (0a00cf5339, 2022-02-04, custom)"
   xmlns:inkscape="http://www.inkscape.org/namespaces/inkscape"
   xmlns:sodipodi="http://sodipodi.sourceforge.net/DTD/sodipodi-0.dtd"
   xmlns="http://www.w3.org/2000/svg"
   xmlns:svg="http://www.w3.org/2000/svg">
  <defs
     id="defs16" />
  <sodipodi:namedview
     id="namedview14"
     pagecolor="#ffffff"
     bordercolor="#666666"
     borderopacity="1.0"
     inkscape:pageshadow="2"
     inkscape:pageopacity="0.0"
     inkscape:pagecheckerboard="0"
     showgrid="false"
     inkscape:zoom="1.28"
     inkscape:cx="238.67188"
     inkscape:cy="167.1875"
     inkscape:window-width="1211"
     inkscape:window-height="686"
     inkscape:window-x="90"
     inkscape:window-y="730"
     inkscape:window-maximized="1"
     inkscape:current-layer="svg12" />
  <rect
     width="256"
     height="256"
     rx="60"
     fill="#242938"
     id="rect2"
     style="fill:#242938;fill-opacity:1" />
  <style
     type="text/css"
     id="style824">* { fill: #36c }</style>
  <path
     d="m 34.497524,129.82228 a 149.22294,139.60912 0 0 0 4.926656,35.95216 146.59539,137.15085 0 0 0 14.561006,32.67448 9.9627936,9.3209316 0 0 1 1.094813,2.76555 4.4887312,4.1995406 0 0 1 0,2.15098 4.1602874,3.8922572 0 0 1 -1.094813,1.53642 l -1.532737,1.12671 -9.086944,5.12139 a 163.01758,152.51502 0 0 1 -12.152418,-20.48557 149.11346,139.50669 0 0 1 -8.101613,-20.48556 144.73421,135.40958 0 0 1 -4.598212,-20.48557 179.54925,167.98162 0 0 1 0,-42.40511 144.73421,135.40958 0 0 1 4.598212,-20.485566 151.52205,141.7601 0 0 1 8.101613,-20.485564 163.56498,153.02716 0 0 1 11.823974,-18.437008 l 9.086944,5.223819 1.532737,1.126706 a 4.3792499,4.0971128 0 0 1 1.094813,1.536417 4.4887312,4.1995406 0 0 1 0,2.150984 10.181756,9.5257873 0 0 1 -1.094813,2.765551 148.8945,139.30184 0 0 0 -19.159218,69.138781 z m 37.004662,35.95216 a 16.750631,15.671456 0 0 1 1.204294,-6.04324 16.422187,15.364173 0 0 1 3.393918,-4.91653 16.422187,15.364173 0 0 1 18.064406,-3.2777 16.531668,15.466601 0 0 1 8.758496,8.19423 16.093743,15.05689 0 0 1 1.31378,6.04324 15.984262,14.954462 0 0 1 -1.31378,6.04324 17.079075,15.97874 0 0 1 -3.5034,4.91654 15.984262,14.954462 0 0 1 -5.255096,3.27769 17.188556,16.081168 0 0 1 -12.918787,0 15.327375,14.339895 0 0 1 -5.145619,-3.27769 16.422187,15.364173 0 0 1 -4.598212,-10.95978 z m 118.239744,-48.34593 -5.91198,9.62822 -19.15922,-10.24279 -3.72236,-2.35583 a 15.108412,14.135039 0 0 1 -2.956,-2.66313 20.14455,18.846719 0 0 1 1.09481,7.78451 v 20.48557 h -10.94812 v -20.48557 a 23.64795,22.124409 0 0 1 1.31377,-7.78451 19.925587,18.641863 0 0 1 -6.34991,4.91654 l -19.04974,10.24278 -5.91198,-9.62822 18.94025,-10.24278 a 24.633281,23.046259 0 0 1 8.2111,-2.9704 19.378181,18.129724 0 0 1 -8.2111,-2.86798 l -19.59714,-10.345214 5.91199,-9.628215 19.15922,10.242782 3.61288,2.458268 a 17.954925,16.798162 0 0 1 2.95599,2.765551 21.89625,20.485564 0 0 1 -0.98533,-7.886942 V 68.365586 h 10.94812 V 88.85115 a 32.078006,30.011351 0 0 1 0,4.097113 14.88945,13.930184 0 0 1 -1.09481,3.687401 24.5238,22.943832 0 0 1 6.4594,-5.018963 l 19.04973,-10.242782 5.91199,9.628215 -18.94026,10.242786 -3.94132,1.8437 a 14.123081,13.213189 0 0 1 -3.94133,1.02428 23.100543,21.61227 0 0 1 3.94133,1.02427 21.89625,20.485564 0 0 1 3.94132,1.94613 z m 28.13668,12.39377 a 149.4419,139.81397 0 0 0 -4.92665,-35.952167 151.1936,141.45282 0 0 0 -14.45153,-33.493897 10.181756,9.5257873 0 0 1 -1.09481,-2.765551 4.9266562,4.6092519 0 0 1 0,-2.150984 3.9413249,3.6874015 0 0 1 1.09481,-1.536418 l 1.53274,-1.126706 9.41539,-4.916535 a 170.13386,159.17283 0 0 1 12.04294,20.485564 150.97464,141.24796 0 0 1 8.10161,20.485564 144.29628,134.99987 0 0 1 4.59821,20.48556 176.9217,165.52336 0 0 1 1.53274,20.48557 177.4691,166.0355 0 0 1 -1.42326,20.48556 144.29628,134.99987 0 0 1 -4.59821,20.48556 148.56605,138.99455 0 0 1 -8.10161,20.48557 169.58645,158.66069 0 0 1 -12.04294,20.48556 l -9.19643,-5.12139 -1.53273,-1.1267 a 3.8318437,3.5849737 0 0 1 -1.09482,-1.53642 4.8171749,4.5068241 0 0 1 0,-2.15099 9.9627936,9.3209316 0 0 1 1.09482,-2.76555 149.11346,139.50669 0 0 0 14.34204,-33.08418 149.87983,140.22369 0 0 0 4.70769,-36.15702 z"
     id="path826"
     style="stroke-width:10.5896" />
</svg>
