<?xml version="1.0" encoding="UTF-8"?>
<svg xmlns="http://www.w3.org/2000/svg" xmlns:xlink="http://www.w3.org/1999/xlink" width="256px" height="256px" viewBox="0 0 256 256" version="1.1">
  <g id="surface1">
    <path style="stroke:none; fill-rule: evenodd; fill: rgb(0%,0%,0%); fill-opacity:1;" d="M 68.667969 53.460938 C 66.105469 53.886719 62.949219 56.488281 56.007812 63.917969 C 44.648438 76.0625 38.667969 86.519531 35.050781 100.558594 C 32.699219 109.679688 31.863281 116.914062 31.859375 128.25 C 31.847656 151.960938 37.398438 169.765625 49.542969 185 C 53.023438 189.363281 61.671875 198.253906 65.171875 201.058594 C 67.574219 202.988281 67.617188 203 72.046875 203 C 74.496094 203 76.5 202.855469 76.5 202.679688 C 76.5 202.503906 74.863281 200.648438 72.867188 198.554688 C 66.890625 192.296875 61.464844 184.707031 57.011719 176.363281 C 51.847656 166.691406 48.898438 156.117188 47.457031 142.109375 C 46.589844 133.660156 47.121094 114.34375 48.4375 106.691406 C 51.601562 88.269531 60.039062 71.390625 72.855469 57.859375 C 74.882812 55.71875 76.425781 53.785156 76.289062 53.5625 C 75.976562 53.058594 71.464844 52.996094 68.667969 53.460938 M 180.375 53.324219 C 179.894531 53.460938 179.5 53.699219 179.5 53.851562 C 179.5 54.003906 180.925781 55.640625 182.671875 57.488281 C 190.597656 65.890625 198.664062 78.550781 202.496094 88.605469 C 209.984375 108.242188 211.011719 138.03125 204.953125 160.042969 C 201.019531 174.339844 192.566406 188.871094 182.3125 198.960938 C 180.515625 200.726562 179.164062 202.359375 179.304688 202.585938 C 179.445312 202.8125 181.402344 203 183.65625 202.996094 C 188.636719 202.996094 189.125 202.734375 195.476562 196.691406 C 211.089844 181.832031 219.148438 167.097656 222.617188 147.050781 C 223.53125 141.769531 223.710938 138.765625 223.730469 128.5 C 223.75 115.308594 223.179688 110.023438 220.707031 100.5 C 216.777344 85.375 210.410156 74.769531 197.347656 61.605469 C 190.058594 54.257812 189.140625 53.65625 184.75 53.335938 C 182.824219 53.191406 180.855469 53.191406 180.375 53.324219 M 136.304688 64.789062 C 136.136719 65.226562 136 71.515625 136 78.769531 L 136 91.957031 L 133.125 90.28125 C 122.9375 84.34375 112.539062 78.902344 111.25 78.832031 C 109.859375 78.757812 109.441406 79.210938 105.597656 84.941406 C 102.980469 88.84375 101.503906 91.519531 101.597656 92.191406 C 101.714844 93.011719 103.765625 94.277344 110.75 97.835938 C 115.699219 100.359375 121.4375 103.136719 123.5 104.011719 C 125.5625 104.886719 127.421875 105.761719 127.632812 105.957031 C 127.839844 106.152344 126.152344 107.058594 123.882812 107.96875 C 116.734375 110.828125 101.765625 118.660156 101.585938 119.632812 C 101.496094 120.117188 103.269531 123.4375 105.523438 127.007812 C 110.1875 134.390625 110.320312 134.464844 114.507812 131.996094 C 115.910156 131.167969 118.449219 129.730469 120.152344 128.800781 C 121.855469 127.871094 126.0625 125.53125 129.5 123.597656 L 135.75 120.085938 L 135.882812 133.625 C 135.972656 142.597656 136.203125 147.390625 136.570312 147.832031 C 137.320312 148.738281 154 148.800781 154.898438 147.898438 C 155.335938 147.460938 155.5 143.59375 155.5 133.617188 L 155.5 119.933594 L 156.875 120.882812 C 158.058594 121.699219 173.945312 130.480469 178.949219 133.085938 C 179.953125 133.609375 180.9375 133.804688 181.359375 133.570312 C 182.070312 133.171875 187.796875 124.617188 189.324219 121.671875 C 189.773438 120.800781 190.003906 119.726562 189.832031 119.285156 C 189.527344 118.488281 170.867188 108.976562 165.828125 107.046875 L 163.25 106.058594 L 165 105.410156 C 167.882812 104.339844 188.679688 93.96875 189.609375 93.140625 C 190.648438 92.214844 190.675781 92.28125 185.820312 84.609375 C 183.472656 80.898438 181.871094 78.871094 181.144531 78.683594 C 180.347656 78.480469 176.992188 80.042969 169.144531 84.269531 C 163.152344 87.496094 157.632812 90.570312 156.875 91.101562 L 155.5 92.066406 L 155.5 78.632812 C 155.5 68.851562 155.335938 65.035156 154.898438 64.601562 C 154.476562 64.179688 151.667969 64 145.453125 64 C 137.847656 64 136.566406 64.109375 136.304688 64.789062 M 89.949219 149.746094 C 76.921875 153.941406 70.757812 168.320312 76.871094 180.25 C 82.324219 190.890625 96.722656 194.75 106.914062 188.300781 C 107.925781 187.664062 109.726562 186.082031 110.917969 184.785156 C 118.699219 176.328125 118.230469 162.496094 109.890625 154.695312 C 106.214844 151.257812 101.722656 149.410156 96.5 149.1875 C 93.660156 149.066406 91.488281 149.25 89.949219 149.746094 "/>
  </g>
</svg>
