<?xml version="1.0" encoding="UTF-8" standalone="no"?>
<svg
   width="256"
   height="256"
   viewBox="0 0 256 256"
   fill="none"
   version="1.1"
   id="svg12"
   sodipodi:docname="Remix.svg"
   inkscape:version="1.1.2 (0a00cf5339, 2022-02-04, custom)"
   xmlns:inkscape="http://www.inkscape.org/namespaces/inkscape"
   xmlns:sodipodi="http://sodipodi.sourceforge.net/DTD/sodipodi-0.dtd"
   xmlns="http://www.w3.org/2000/svg"
   xmlns:svg="http://www.w3.org/2000/svg">
  <defs
     id="defs16" />
  <sodipodi:namedview
     id="namedview14"
     pagecolor="#ffffff"
     bordercolor="#666666"
     borderopacity="1.0"
     inkscape:pageshadow="2"
     inkscape:pageopacity="0.0"
     inkscape:pagecheckerboard="0"
     showgrid="false"
     inkscape:zoom="0.64"
     inkscape:cx="142.96875"
     inkscape:cy="167.1875"
     inkscape:window-width="1211"
     inkscape:window-height="686"
     inkscape:window-x="90"
     inkscape:window-y="730"
     inkscape:window-maximized="1"
     inkscape:current-layer="svg12" />
  <rect
     width="256"
     height="256"
     rx="60"
     fill="#242938"
     id="rect2"
     style="fill:#212121;fill-opacity:1" />
  <path
     fill-rule="evenodd"
     clip-rule="evenodd"
     d="m 188.14304,168.88576 c 1.36128,17.488 1.36128,25.68576 1.36128,34.63424 h -40.4624 c 0,-1.94912 0.0349,-3.73216 0.0701,-5.54016 0.10944,-5.62048 0.22368,-11.4816 -0.68704,-23.31776 -1.20352,-17.32864 -8.6656,-21.1792 -22.38624,-21.1792 H 113.88256 62.4 v -31.528 h 65.56448 c 17.3312,0 25.99712,-5.27232 25.99712,-19.23136 0,-12.27424 -8.66592,-19.71232 -25.99712,-19.71232 H 62.4 V 52.16 h 72.78592 c 39.23616,0 58.73408,18.53184 58.73408,48.1344 0,22.14176 -13.72064,36.58208 -32.25568,38.9888 15.6464,3.12864 24.7936,12.0336 26.47872,29.60256 z"
     fill="#ffffff"
     id="path841"
     style="stroke-width:0.32" />
  <path
     d="m 62.4,203.52 v -23.50304 h 42.78304 c 7.14624,0 8.69792,5.30016 8.69792,8.46112 V 203.52 Z"
     fill="#ffffff"
     id="path843"
     style="stroke-width:0.32" />
  <path
     d="m 62.24,203.52 v 0.16 h 0.16 51.48096 0.16 v -0.16 -15.04192 c 0,-1.60192 -0.39232,-3.75488 -1.7008,-5.51168 -1.31456,-1.7648 -3.53888,-3.10944 -7.15712,-3.10944 H 62.4 62.24 v 0.16 z"
     stroke="#ffffff"
     stroke-opacity="0.8"
     id="path845"
     style="fill:none;stroke-width:0.32" />
</svg>
