<svg width="256" height="256" viewBox="0 0 256 256" fill="none" xmlns="http://www.w3.org/2000/svg">
  <g clip-path="url(#clip0_1_26)">
    <rect width="256" height="256" rx="60" fill="#242938" />
    <path d="M156.288 40H154.216V42.0468V60.9795V63.0263H156.288H175.557H177.629V60.9795V42.0468V40H175.557H156.288Z"
      fill="#46E3B7" />
    <path
      d="M94.3367 40C86.8777 40 79.6261 41.4329 72.7886 44.2984C66.1584 47.0616 60.2533 51.0528 55.177 56.0674C50.1008 61.0821 46.0604 66.9154 43.2633 73.4651C40.3626 80.2195 38.912 87.383 38.912 94.7515V174.985V177.032H40.984H60.2527H62.3247V174.985V94.4446C62.7391 86.1552 66.2614 78.3766 72.1664 72.6456C78.1751 66.8123 86.0485 63.4353 94.4399 63.1283H137.122H139.194V61.0815V42.0468V40H137.122H94.3367Z"
      fill="#46E3B7" />
    <path
      d="M194.722 115.936H192.65V117.983V137.017V139.064H194.722H213.992H216.064V137.017V117.983V115.936H213.992H194.722Z"
      fill="#46E3B7" />
    <path
      d="M194.722 77.9674H192.65V80.0142V99.0499V101.097H194.722H213.992H216.064V99.0499V80.0142V77.9674H213.992H194.722Z"
      fill="#46E3B7" />
    <path d="M213.992 40H194.722H192.65V42.0468V60.9795V63.0263H194.722H213.992H216.064V60.9795V42.0468V40H213.992Z"
      fill="#46E3B7" />
    <path
      d="M194.722 153.903H192.65V155.95V174.985V177.032H194.722H213.992H216.064V174.985V155.95V153.903H213.992H194.722Z"
      fill="#46E3B7" />
    <path
      d="M194.722 191.871H192.65V193.918V212.953V215H194.722H213.992H216.064V212.953V193.918V191.871H213.992H194.722Z"
      fill="#46E3B7" />
    <path
      d="M156.288 191.871H154.216V193.918V212.953V215H156.288H175.557H177.629V212.953V193.918V191.871H175.557H156.288Z"
      fill="#46E3B7" />
    <path
      d="M117.854 191.871H115.782V193.918V212.953V215H117.854H137.122H139.194V212.953V193.918V191.871H137.122H117.854Z"
      fill="#46E3B7" />
    <path d="M79.4183 191.871H77.3463V193.918V212.953V215H79.4183H98.688H100.76V212.953V193.918V191.871H98.688H79.4183Z"
      fill="#46E3B7" />
    <path d="M40.984 191.871H38.912V193.918V212.953V215H40.984H60.1495H62.2215V212.953V193.918V191.871H60.1495H40.984Z"
      fill="#46E3B7" />
  </g>
  <defs>
    <clipPath id="clip0_1_26">
      <rect width="256" height="256" rx="2" fill="white" />
    </clipPath>
  </defs>
</svg>