<svg width="256" height="256" viewBox="0 0 256 256" fill="none" xmlns="http://www.w3.org/2000/svg">
<rect width="256" height="256" rx="60" fill="#242938"/>
<path d="M53 49.25C53 43.037 58.037 38 64.25 38H116.75C122.963 38 128 43.037 128 49.25V98.0001H64.25C58.037 98.0001 53 92.9631 53 86.7501V49.25Z" fill="#F26207"/>
<path d="M127.999 98.002H191.749C197.962 98.002 202.999 103.039 202.999 109.252V146.752C202.999 152.965 197.962 158.002 191.749 158.002H127.999V98.002Z" fill="#F26207"/>
<path d="M53 169.25C53 163.037 58.037 158 64.25 158H128V206.75C128 212.963 122.963 218 116.75 218H64.25C58.037 218 53 212.963 53 206.75V169.25Z" fill="#F26207"/>
</svg>
