<?xml version="1.0" encoding="UTF-8"?>
<!DOCTYPE svg PUBLIC "-//W3C//DTD SVG 1.1//EN" "http://www.w3.org/Graphics/SVG/1.1/DTD/svg11.dtd">
<svg xmlns="http://www.w3.org/2000/svg" version="1.1" width="256px" height="256px" style="shape-rendering:geometricPrecision; text-rendering:geometricPrecision; image-rendering:optimizeQuality; fill-rule:evenodd; clip-rule:evenodd" xmlns:xlink="http://www.w3.org/1999/xlink">
<g><path style="opacity:0.016" fill="#ffdec2" d="M 123.5,8.5 C 124.793,7.84182 126.293,7.50848 128,7.5C 130.821,7.40778 133.321,8.07445 135.5,9.5C 131.534,8.83787 127.534,8.50454 123.5,8.5 Z"/></g>
<g><path style="opacity:1" fill="#f88127" d="M 123.5,8.5 C 127.534,8.50454 131.534,8.83787 135.5,9.5C 142.679,12.3721 149.346,16.0388 155.5,20.5C 157.336,22.588 159.669,23.9213 162.5,24.5C 165.331,25.0787 167.664,26.412 169.5,28.5C 170.659,30.2503 172.326,31.2503 174.5,31.5C 177.45,32.3084 180.117,33.6418 182.5,35.5C 182.5,36.1667 182.5,36.8333 182.5,37.5C 181.89,38.391 181.557,39.391 181.5,40.5C 166.23,32.5301 151.23,24.0301 136.5,15C 131.572,13.5822 126.572,13.2489 121.5,14C 92.6711,30.0223 64.0044,46.189 35.5,62.5C 34.0697,61.4625 32.403,60.7959 30.5,60.5C 33.9758,57.3768 37.9758,55.0435 42.5,53.5C 44.0269,53.573 45.0269,52.9063 45.5,51.5C 58.0059,43.4104 71.0059,36.0771 84.5,29.5C 86.0269,29.573 87.0269,28.9063 87.5,27.5C 95.9055,22.121 104.572,16.9544 113.5,12C 116.561,9.96529 119.895,8.79862 123.5,8.5 Z"/></g>
<g><path style="opacity:1" fill="#272d3d" d="M 181.5,40.5 C 195.77,48.9738 210.103,57.4738 224.5,66C 226.727,68.5641 228.561,71.3974 230,74.5C 230.5,104.498 230.667,134.498 230.5,164.5C 216.167,164.5 201.833,164.5 187.5,164.5C 187.5,179.833 187.5,195.167 187.5,210.5C 187.5,210.833 187.5,211.167 187.5,211.5C 169.879,220.644 152.546,230.311 135.5,240.5C 128.454,242.451 121.787,241.618 115.5,238C 89.9961,223.08 64.3295,208.414 38.5,194C 32.18,191.014 28.0133,186.181 26,179.5C 25.3333,144.167 25.3333,108.833 26,73.5C 28.3138,69.025 31.4804,65.3583 35.5,62.5C 64.0044,46.189 92.6711,30.0223 121.5,14C 126.572,13.2489 131.572,13.5822 136.5,15C 151.23,24.0301 166.23,32.5301 181.5,40.5 Z"/></g>
<g><path style="opacity:0.38" fill="#ffc38d" d="M 155.5,20.5 C 158.331,21.0787 160.664,22.412 162.5,24.5C 159.669,23.9213 157.336,22.588 155.5,20.5 Z"/></g>
<g><path style="opacity:0.718" fill="#ffca98" d="M 87.5,27.5 C 87.0269,28.9063 86.0269,29.573 84.5,29.5C 84.9731,28.0937 85.9731,27.427 87.5,27.5 Z"/></g>
<g><path style="opacity:0.318" fill="#ffc693" d="M 169.5,28.5 C 171.674,28.7497 173.341,29.7497 174.5,31.5C 172.326,31.2503 170.659,30.2503 169.5,28.5 Z"/></g>
<g><path style="opacity:0.819" fill="#fa7009" d="M 182.5,37.5 C 184.5,38.1667 186.5,38.8333 188.5,39.5C 188.833,39.5 189.167,39.5 189.5,39.5C 198.273,46.3977 207.94,52.0643 218.5,56.5C 218.833,56.5 219.167,56.5 219.5,56.5C 220.035,58.4456 221.368,59.4456 223.5,59.5C 225.749,60.0798 227.415,61.4131 228.5,63.5C 229.08,65.7488 230.413,67.4154 232.5,68.5C 232.12,70.698 232.787,72.3646 234.5,73.5C 235.492,103.76 235.825,134.093 235.5,164.5C 234.833,164.5 234.5,164.833 234.5,165.5C 232.901,165.768 231.568,165.434 230.5,164.5C 230.667,134.498 230.5,104.498 230,74.5C 228.561,71.3974 226.727,68.5641 224.5,66C 210.103,57.4738 195.77,48.9738 181.5,40.5C 181.557,39.391 181.89,38.391 182.5,37.5 Z"/></g>
<g><path style="opacity:0.318" fill="#ffbd84" d="M 182.5,35.5 C 184.882,36.3507 186.882,37.684 188.5,39.5C 186.5,38.8333 184.5,38.1667 182.5,37.5C 182.5,36.8333 182.5,36.1667 182.5,35.5 Z"/></g>
<g><path style="opacity:0.514" fill="#ffbb80" d="M 189.5,39.5 C 199.367,44.9294 209.033,50.596 218.5,56.5C 207.94,52.0643 198.273,46.3977 189.5,39.5 Z"/></g>
<g><path style="opacity:0.718" fill="#ffcb9b" d="M 45.5,51.5 C 45.0269,52.9063 44.0269,53.573 42.5,53.5C 42.9731,52.0937 43.9731,51.427 45.5,51.5 Z"/></g>
<g><path style="opacity:0.733" fill="#ffc694" d="M 219.5,56.5 C 221.23,57.0256 222.564,58.0256 223.5,59.5C 221.368,59.4456 220.035,58.4456 219.5,56.5 Z"/></g>
<g><path style="opacity:0.938" fill="#f58014" d="M 30.5,60.5 C 32.403,60.7959 34.0697,61.4625 35.5,62.5C 31.4804,65.3583 28.3138,69.025 26,73.5C 25.3333,108.833 25.3333,144.167 26,179.5C 28.0133,186.181 32.18,191.014 38.5,194C 64.3295,208.414 89.9961,223.08 115.5,238C 121.787,241.618 128.454,242.451 135.5,240.5C 137.446,241.035 138.446,242.368 138.5,244.5C 137.609,245.11 136.609,245.443 135.5,245.5C 131.202,246.2 126.869,246.533 122.5,246.5C 119.843,246.065 117.509,245.065 115.5,243.5C 115.027,242.094 114.027,241.427 112.5,241.5C 110.847,241.34 109.514,240.674 108.5,239.5C 108.027,238.094 107.027,237.427 105.5,237.5C 105.167,237.5 104.833,237.5 104.5,237.5C 104.027,236.094 103.027,235.427 101.5,235.5C 101.027,234.094 100.027,233.427 98.5,233.5C 98.1667,233.5 97.8333,233.5 97.5,233.5C 97.0269,232.094 96.0269,231.427 94.5,231.5C 94.0269,230.094 93.0269,229.427 91.5,229.5C 91.1667,229.5 90.8333,229.5 90.5,229.5C 90.0269,228.094 89.0269,227.427 87.5,227.5C 86.7095,226.599 85.7095,225.932 84.5,225.5C 81.0078,224.59 78.0078,222.924 75.5,220.5C 74.5994,218.273 72.9328,217.273 70.5,217.5C 68.847,217.34 67.5137,216.674 66.5,215.5C 66.0269,214.094 65.0269,213.427 63.5,213.5C 61.847,213.34 60.5137,212.674 59.5,211.5C 59.0269,210.094 58.0269,209.427 56.5,209.5C 54.847,209.34 53.5137,208.674 52.5,207.5C 52.0269,206.094 51.0269,205.427 49.5,205.5C 47.847,205.34 46.5137,204.674 45.5,203.5C 45.0269,202.094 44.0269,201.427 42.5,201.5C 40.847,201.34 39.5137,200.674 38.5,199.5C 38.0269,198.094 37.0269,197.427 35.5,197.5C 34.5084,197.672 33.8417,197.338 33.5,196.5C 33.0269,195.094 32.0269,194.427 30.5,194.5C 29.5,192.167 27.8333,190.5 25.5,189.5C 22.8881,187.948 21.5548,185.614 21.5,182.5C 21.7678,180.901 21.4345,179.568 20.5,178.5C 20.5,144.5 20.5,110.5 20.5,76.5C 22.3999,73.4822 23.7333,70.1488 24.5,66.5C 26.8333,64.8333 28.8333,62.8333 30.5,60.5 Z"/></g>
<g><path style="opacity:0.525" fill="#ffd0a7" d="M 30.5,60.5 C 28.8333,62.8333 26.8333,64.8333 24.5,66.5C 25.5,63.5 27.5,61.5 30.5,60.5 Z"/></g>
<g><path style="opacity:0.812" fill="#ffbe85" d="M 228.5,63.5 C 230.587,64.5846 231.92,66.2512 232.5,68.5C 230.413,67.4154 229.08,65.7488 228.5,63.5 Z"/></g>
<g><path style="opacity:0.882" fill="#ffc48e" d="M 24.5,66.5 C 23.7333,70.1488 22.3999,73.4822 20.5,76.5C 20.8541,74.4588 20.8541,72.6255 20.5,71C 21.7332,69.3333 23.0665,67.8333 24.5,66.5 Z"/></g>
<g><path style="opacity:0.906" fill="#ffbe86" d="M 232.5,68.5 C 233.931,69.7804 234.598,71.4471 234.5,73.5C 232.787,72.3646 232.12,70.698 232.5,68.5 Z"/></g>
<g><path style="opacity:1" fill="#f27d05" d="M 64.5,83.5 C 66.5,83.5 68.5,83.5 70.5,83.5C 70.5,85.5 70.5,87.5 70.5,89.5C 69.0695,89.4208 67.7362,89.7542 66.5,90.5C 65.6725,94.7956 65.1725,99.1289 65,103.5C 64.3645,104.966 63.5312,106.3 62.5,107.5C 63.5312,108.7 64.3645,110.034 65,111.5C 65.3333,115.5 65.6667,119.5 66,123.5C 67.3561,124.38 68.8561,124.714 70.5,124.5C 70.5,126.5 70.5,128.5 70.5,130.5C 67.0703,130.893 63.9036,130.227 61,128.5C 59.7758,123.614 59.1091,118.614 59,113.5C 56.7547,111.988 55.2547,109.988 54.5,107.5C 55.738,105.076 57.238,102.742 59,100.5C 59.3333,96.5 59.6667,92.5 60,88.5C 61.025,86.313 62.525,84.6464 64.5,83.5 Z"/></g>
<g><path style="opacity:1" fill="#f2f3f4" d="M 82.5,90.5 C 87.5111,90.3341 92.5111,90.5007 97.5,91C 99.8477,91.3459 101.681,92.5125 103,94.5C 104.688,100.311 103.188,104.978 98.5,108.5C 101.322,112.476 103.322,116.809 104.5,121.5C 102.533,121.739 100.699,121.406 99,120.5C 97.2941,116.921 95.4608,113.421 93.5,110C 91.5273,109.505 89.5273,109.338 87.5,109.5C 86.5184,112.962 86.185,116.629 86.5,120.5C 85.1667,120.5 83.8333,120.5 82.5,120.5C 82.5,110.5 82.5,100.5 82.5,90.5 Z"/></g>
<g><path style="opacity:1" fill="#ebeced" d="M 140.5,89.5 C 146.386,88.3435 151.219,90.0102 155,94.5C 156.009,96.0249 156.509,97.6916 156.5,99.5C 154.5,99.5 152.5,99.5 150.5,99.5C 150.436,95.9376 148.603,94.2709 145,94.5C 139.417,95.0204 138.25,97.5204 141.5,102C 147.169,102.993 152.002,105.493 156,109.5C 157.202,113.793 156.035,117.293 152.5,120C 146.04,122.675 140.206,121.842 135,117.5C 133.872,115.655 133.372,113.655 133.5,111.5C 135.167,111.5 136.833,111.5 138.5,111.5C 140.064,117.567 143.73,119.067 149.5,116C 150.833,114 150.833,112 149.5,110C 144.023,108.678 139.189,106.178 135,102.5C 134.333,99.8333 134.333,97.1667 135,94.5C 136.73,92.5981 138.563,90.9314 140.5,89.5 Z"/></g>
<g><path style="opacity:1" fill="#b3b6bc" d="M 82.5,90.5 C 82.5,100.5 82.5,110.5 82.5,120.5C 83.8333,120.5 85.1667,120.5 86.5,120.5C 86.185,116.629 86.5184,112.962 87.5,109.5C 87.5,113.5 87.5,117.5 87.5,121.5C 85.5,121.5 83.5,121.5 81.5,121.5C 81.1724,110.986 81.5058,100.653 82.5,90.5 Z"/></g>
<g><path style="opacity:1" fill="#f6f6f7" d="M 129.5,94.5 C 124.5,94.5 119.5,94.5 114.5,94.5C 114.5,97.5 114.5,100.5 114.5,103.5C 118.833,103.5 123.167,103.5 127.5,103.5C 127.5,104.833 127.5,106.167 127.5,107.5C 123.5,107.5 119.5,107.5 115.5,107.5C 114.521,110.625 114.187,113.958 114.5,117.5C 119.5,117.5 124.5,117.5 129.5,117.5C 129.5,118.833 129.5,120.167 129.5,121.5C 122.833,121.5 116.167,121.5 109.5,121.5C 109.5,111.167 109.5,100.833 109.5,90.5C 116.167,90.5 122.833,90.5 129.5,90.5C 129.5,91.8333 129.5,93.1667 129.5,94.5 Z"/></g>
<g><path style="opacity:1" fill="#fbfbfb" d="M 174.5,94.5 C 173.507,102.984 173.174,111.651 173.5,120.5C 172.167,120.5 170.833,120.5 169.5,120.5C 169.826,111.651 169.493,102.984 168.5,94.5C 165.5,94.5 162.5,94.5 159.5,94.5C 159.5,93.1667 159.5,91.8333 159.5,90.5C 167.833,90.5 176.167,90.5 184.5,90.5C 184.5,91.8333 184.5,93.1667 184.5,94.5C 181.167,94.5 177.833,94.5 174.5,94.5 Z"/></g>
<g><path style="opacity:1" fill="#6c707b" d="M 129.5,94.5 C 125.03,95.4861 120.363,95.8195 115.5,95.5C 115.5,97.8333 115.5,100.167 115.5,102.5C 119.702,102.183 123.702,102.517 127.5,103.5C 123.167,103.5 118.833,103.5 114.5,103.5C 114.5,100.5 114.5,97.5 114.5,94.5C 119.5,94.5 124.5,94.5 129.5,94.5 Z"/></g>
<g><path style="opacity:1" fill="#b5b7bd" d="M 168.5,94.5 C 169.493,102.984 169.826,111.651 169.5,120.5C 170.833,120.5 172.167,120.5 173.5,120.5C 173.174,111.651 173.507,102.984 174.5,94.5C 174.5,103.5 174.5,112.5 174.5,121.5C 172.5,121.5 170.5,121.5 168.5,121.5C 168.5,112.5 168.5,103.5 168.5,94.5 Z"/></g>
<g><path style="opacity:1" fill="#2a3141" d="M 87.5,94.5 C 90.1873,94.3359 92.854,94.5026 95.5,95C 98.9779,97.7065 99.3112,100.706 96.5,104C 93.5184,104.498 90.5184,104.665 87.5,104.5C 87.5,101.167 87.5,97.8333 87.5,94.5 Z"/></g>
<g><path style="opacity:1" fill="#9b9ea6" d="M 115.5,107.5 C 115.5,110.5 115.5,113.5 115.5,116.5C 120.363,116.181 125.03,116.514 129.5,117.5C 124.5,117.5 119.5,117.5 114.5,117.5C 114.187,113.958 114.521,110.625 115.5,107.5 Z"/></g>
<g><path style="opacity:1" fill="#f37e04" d="M 162.5,141.5 C 166.803,140.796 170.303,142.13 173,145.5C 173.333,149.833 173.667,154.167 174,158.5C 174.936,160.708 176.602,162.042 179,162.5C 179.495,164.473 179.662,166.473 179.5,168.5C 176.762,167.965 174.928,168.965 174,171.5C 173.891,176.614 173.224,181.614 172,186.5C 169.049,188.076 165.883,188.743 162.5,188.5C 162.5,186.5 162.5,184.5 162.5,182.5C 164.144,182.714 165.644,182.38 167,181.5C 167.333,177.5 167.667,173.5 168,169.5C 168.785,167.714 169.951,166.214 171.5,165C 169.951,163.786 168.785,162.286 168,160.5C 167.667,156.5 167.333,152.5 167,148.5C 165.644,147.62 164.144,147.286 162.5,147.5C 162.5,145.5 162.5,143.5 162.5,141.5 Z"/></g>
<g><path style="opacity:1" fill="#ecedee" d="M 90.5,148.5 C 92.4672,148.261 94.3005,148.594 96,149.5C 99.7225,159.494 103.556,169.494 107.5,179.5C 105.604,180.466 103.604,180.799 101.5,180.5C 101.917,174.631 99.2499,171.964 93.5,172.5C 91.5,172.667 89.5,172.833 87.5,173C 86.3081,174.912 85.3081,176.912 84.5,179C 82.8659,179.494 81.1992,179.66 79.5,179.5C 82.9659,169.103 86.6326,158.769 90.5,148.5 Z"/></g>
<g><path style="opacity:1" fill="#f1f1f2" d="M 116.5,179.5 C 114.833,179.5 113.167,179.5 111.5,179.5C 111.5,169.5 111.5,159.5 111.5,149.5C 117.874,147.908 124.208,148.408 130.5,151C 135.453,155.643 135.787,160.643 131.5,166C 126.846,168.312 121.846,169.146 116.5,168.5C 116.5,172.167 116.5,175.833 116.5,179.5 Z"/></g>
<g><path style="opacity:1" fill="#898d95" d="M 145.5,149.5 C 143.833,149.5 142.167,149.5 140.5,149.5C 140.5,159.5 140.5,169.5 140.5,179.5C 142.167,179.5 143.833,179.5 145.5,179.5C 143.735,180.461 141.735,180.795 139.5,180.5C 139.5,169.833 139.5,159.167 139.5,148.5C 141.735,148.205 143.735,148.539 145.5,149.5 Z"/></g>
<g><path style="opacity:1" fill="#f9f9f9" d="M 145.5,149.5 C 145.5,159.5 145.5,169.5 145.5,179.5C 143.833,179.5 142.167,179.5 140.5,179.5C 140.5,169.5 140.5,159.5 140.5,149.5C 142.167,149.5 143.833,149.5 145.5,149.5 Z"/></g>
<g><path style="opacity:1" fill="#595e6a" d="M 111.5,149.5 C 111.5,159.5 111.5,169.5 111.5,179.5C 113.167,179.5 114.833,179.5 116.5,179.5C 114.735,180.461 112.735,180.795 110.5,180.5C 110.172,169.986 110.506,159.653 111.5,149.5 Z"/></g>
<g><path style="opacity:1" fill="#293040" d="M 117.5,153.5 C 125.977,151.156 129.477,154.156 128,162.5C 127.329,163.252 126.496,163.586 125.5,163.5C 122.833,163.5 120.167,163.5 117.5,163.5C 117.5,160.167 117.5,156.833 117.5,153.5 Z"/></g>
<g><path style="opacity:1" fill="#353c4b" d="M 92.5,156.5 C 94.7174,159.777 96.3841,163.444 97.5,167.5C 94.5,168.833 91.5,168.833 88.5,167.5C 89.8542,163.765 91.1875,160.098 92.5,156.5 Z"/></g>
<g><path style="opacity:1" fill="#7a7e88" d="M 117.5,153.5 C 117.5,156.833 117.5,160.167 117.5,163.5C 120.167,163.5 122.833,163.5 125.5,163.5C 122.713,164.477 119.713,164.81 116.5,164.5C 116.185,160.629 116.518,156.962 117.5,153.5 Z"/></g>
<g><path style="opacity:1" fill="#a7a9b0" d="M 230.5,164.5 C 231.568,165.434 232.901,165.768 234.5,165.5C 240.026,165.179 245.36,165.512 250.5,166.5C 229.833,166.5 209.167,166.5 188.5,166.5C 188.5,181.167 188.5,195.833 188.5,210.5C 188.167,210.5 187.833,210.5 187.5,210.5C 187.5,195.167 187.5,179.833 187.5,164.5C 201.833,164.5 216.167,164.5 230.5,164.5 Z"/></g>
<g><path style="opacity:1" fill="#292e3d" d="M 250.5,166.5 C 250.667,184.503 250.5,202.503 250,220.5C 243.111,232.559 233.277,241.225 220.5,246.5C 209.274,241.808 199.774,234.808 192,225.5C 189.133,220.901 187.966,215.901 188.5,210.5C 188.5,195.833 188.5,181.167 188.5,166.5C 209.167,166.5 229.833,166.5 250.5,166.5 Z"/></g>
<g><path style="opacity:1" fill="#fd8200" d="M 220.5,171.5 C 220.831,193.673 220.497,215.673 219.5,237.5C 209.725,233.557 201.891,227.224 196,218.5C 195.5,202.837 195.333,187.17 195.5,171.5C 203.833,171.5 212.167,171.5 220.5,171.5 Z"/></g>
<g><path style="opacity:1" fill="#885221" d="M 220.5,171.5 C 221.828,193.67 221.828,216.004 220.5,238.5C 219.893,238.376 219.56,238.043 219.5,237.5C 220.497,215.673 220.831,193.673 220.5,171.5 Z"/></g>
<g><path style="opacity:0.071" fill="#ffdec1" d="M 20.5,178.5 C 21.4345,179.568 21.7678,180.901 21.5,182.5C 19.2552,181.708 18.9219,180.375 20.5,178.5 Z"/></g>
<g><path style="opacity:0.569" fill="#ffc795" d="M 25.5,189.5 C 27.8333,190.5 29.5,192.167 30.5,194.5C 27.8333,193.833 26.1667,192.167 25.5,189.5 Z"/></g>
<g><path style="opacity:0.467" fill="#ffce9f" d="M 30.5,194.5 C 32.0269,194.427 33.0269,195.094 33.5,196.5C 31.9731,196.573 30.9731,195.906 30.5,194.5 Z"/></g>
<g><path style="opacity:0.271" fill="#ffcc9f" d="M 35.5,197.5 C 37.0269,197.427 38.0269,198.094 38.5,199.5C 36.9731,199.573 35.9731,198.906 35.5,197.5 Z"/></g>
<g><path style="opacity:0.271" fill="#ffcc9f" d="M 42.5,201.5 C 44.0269,201.427 45.0269,202.094 45.5,203.5C 43.9731,203.573 42.9731,202.906 42.5,201.5 Z"/></g>
<g><path style="opacity:0.271" fill="#ffcc9f" d="M 49.5,205.5 C 51.0269,205.427 52.0269,206.094 52.5,207.5C 50.9731,207.573 49.9731,206.906 49.5,205.5 Z"/></g>
<g><path style="opacity:0.271" fill="#ffcc9f" d="M 56.5,209.5 C 58.0269,209.427 59.0269,210.094 59.5,211.5C 57.9731,211.573 56.9731,210.906 56.5,209.5 Z"/></g>
<g><path style="opacity:1" fill="#f8872e" d="M 187.5,211.5 C 187.741,213.886 187.075,215.886 185.5,217.5C 184.486,218.674 183.153,219.34 181.5,219.5C 179.973,219.427 178.973,220.094 178.5,221.5C 165.528,229.657 152.195,237.324 138.5,244.5C 138.446,242.368 137.446,241.035 135.5,240.5C 152.546,230.311 169.879,220.644 187.5,211.5 Z"/></g>
<g><path style="opacity:0.318" fill="#ffc794" d="M 63.5,213.5 C 65.0269,213.427 66.0269,214.094 66.5,215.5C 64.9731,215.573 63.9731,214.906 63.5,213.5 Z"/></g>
<g><path style="opacity:0.733" fill="#ffb97a" d="M 70.5,217.5 C 72.9328,217.273 74.5994,218.273 75.5,220.5C 73.1523,220.408 71.4856,219.408 70.5,217.5 Z"/></g>
<g><path style="opacity:0.039" fill="#ffd5b0" d="M 181.5,219.5 C 181.027,220.906 180.027,221.573 178.5,221.5C 178.973,220.094 179.973,219.427 181.5,219.5 Z"/></g>
<g><path style="opacity:0.016" fill="#ffe2ca" d="M 84.5,225.5 C 85.7095,225.932 86.7095,226.599 87.5,227.5C 85.8212,227.715 84.8212,227.048 84.5,225.5 Z"/></g>
<g><path style="opacity:0.149" fill="#ffe2c7" d="M 87.5,227.5 C 89.0269,227.427 90.0269,228.094 90.5,229.5C 88.9731,229.573 87.9731,228.906 87.5,227.5 Z"/></g>
<g><path style="opacity:0.039" fill="#ffdab8" d="M 91.5,229.5 C 93.0269,229.427 94.0269,230.094 94.5,231.5C 92.8212,231.715 91.8212,231.048 91.5,229.5 Z"/></g>
<g><path style="opacity:0.149" fill="#ffdec1" d="M 94.5,231.5 C 96.0269,231.427 97.0269,232.094 97.5,233.5C 95.9731,233.573 94.9731,232.906 94.5,231.5 Z"/></g>
<g><path style="opacity:0.361" fill="#ffcb9c" d="M 98.5,233.5 C 100.027,233.427 101.027,234.094 101.5,235.5C 99.9731,235.573 98.9731,234.906 98.5,233.5 Z"/></g>
<g><path style="opacity:0.204" fill="#ffd8b6" d="M 101.5,235.5 C 103.027,235.427 104.027,236.094 104.5,237.5C 102.973,237.573 101.973,236.906 101.5,235.5 Z"/></g>
<g><path style="opacity:0.361" fill="#ffc898" d="M 105.5,237.5 C 107.027,237.427 108.027,238.094 108.5,239.5C 106.973,239.573 105.973,238.906 105.5,237.5 Z"/></g>
<g><path style="opacity:0.757" fill="#e9e6e5" d="M 234.5,165.5 C 234.5,164.833 234.833,164.5 235.5,164.5C 241.167,164.5 246.833,164.5 252.5,164.5C 252.181,181.547 252.514,198.547 253.5,215.5C 251.255,224.485 246.589,231.985 239.5,238C 233.599,242.229 227.432,246.063 221,249.5C 209.979,244.814 200.312,238.148 192,229.5C 189.536,225.566 187.369,221.566 185.5,217.5C 187.075,215.886 187.741,213.886 187.5,211.5C 187.5,211.167 187.5,210.833 187.5,210.5C 187.833,210.5 188.167,210.5 188.5,210.5C 187.966,215.901 189.133,220.901 192,225.5C 199.774,234.808 209.274,241.808 220.5,246.5C 233.277,241.225 243.111,232.559 250,220.5C 250.5,202.503 250.667,184.503 250.5,166.5C 245.36,165.512 240.026,165.179 234.5,165.5 Z"/></g>
<g><path style="opacity:0.361" fill="#ffc898" d="M 112.5,241.5 C 114.027,241.427 115.027,242.094 115.5,243.5C 113.973,243.573 112.973,242.906 112.5,241.5 Z"/></g>
<g><path style="opacity:0.016" fill="#ffdec3" d="M 135.5,245.5 C 133.152,246.952 130.486,247.618 127.5,247.5C 125.631,247.493 123.964,247.16 122.5,246.5C 126.869,246.533 131.202,246.2 135.5,245.5 Z"/></g>
</svg>
