<svg width="256" height="256" viewBox="0 0 256 256" fill="none" xmlns="http://www.w3.org/2000/svg">
<path d="M196 0H60C26.8629 0 0 26.8629 0 60V196C0 229.137 26.8629 256 60 256H196C229.137 256 256 229.137 256 196V60C256 26.8629 229.137 0 196 0Z" fill="#F4F2ED"/>
<path d="M228.571 105.434L87.5619 27.1771L181.973 167.453L201.375 154.735L228.571 105.434Z" fill="url(#paint0_linear_1_5)"/>
<path d="M172.314 73.5238L154.651 30.341L115.575 68.8095L131.562 208.394L169.423 228.32L228.571 193.77L172.314 73.5238Z" fill="url(#paint1_linear_1_5)"/>
<path d="M87.5619 27.1771L27.4286 67.6781L49.7848 205.817L107.446 227.985L181.973 167.453L87.5619 27.1771Z" fill="url(#paint2_linear_1_5)"/>
<path d="M65.1429 65.1429H190.857V190.857H65.1429V65.1429Z" fill="black"/>
<path d="M80.8152 167.097H127.958V174.954H80.8152V167.097Z" fill="white"/>
<path d="M80.8571 80.6895H102.438C104.936 80.5357 107.44 80.8808 109.803 81.7045C112.167 82.5283 114.343 83.8143 116.204 85.4876C117.57 86.9263 118.633 88.6244 119.332 90.4815C120.03 92.3385 120.348 94.3167 120.269 96.299V96.4248C120.425 99.644 119.516 102.825 117.683 105.476C115.85 108.127 113.195 110.101 110.128 111.091L121.693 127.979H109.52L99.4 112.851H91.3333V127.979H80.8571V80.6895ZM101.81 103.737C106.88 103.737 109.792 101.034 109.792 97.0533V96.9276C109.792 92.4648 106.691 90.16 101.621 90.16H91.3333V103.737H101.81Z" fill="white"/>
<path d="M128.901 80.6895H147.339C162.194 80.6895 172.482 90.8933 172.482 104.198V104.345C172.482 117.65 162.215 127.979 147.339 127.979H128.901V80.6895ZM139.377 90.0762V118.571H147.423C149.312 118.683 151.204 118.395 152.974 117.726C154.745 117.057 156.355 116.023 157.699 114.691C159.043 113.359 160.092 111.758 160.776 109.993C161.46 108.229 161.765 106.34 161.67 104.45V104.324C161.766 102.426 161.464 100.53 160.782 98.7569C160.1 96.9837 159.054 95.373 157.712 94.0287C156.37 92.6844 154.761 91.6363 152.988 90.9519C151.216 90.2675 149.32 89.9621 147.423 90.0552L139.377 90.0762Z" fill="white"/>
<defs>
<linearGradient id="paint0_linear_1_5" x1="215.644" y1="142.394" x2="60.5962" y2="53.4305" gradientUnits="userSpaceOnUse">
<stop stop-color="#DD1265"/>
<stop offset="0.48" stop-color="#DD1265"/>
<stop offset="0.94" stop-color="#FDB60D"/>
</linearGradient>
<linearGradient id="paint1_linear_1_5" x1="123.453" y1="44.7352" x2="184.907" y2="214.45" gradientUnits="userSpaceOnUse">
<stop offset="0.14" stop-color="#087CFA"/>
<stop offset="0.48" stop-color="#DD1265"/>
<stop offset="0.96" stop-color="#087CFA"/>
</linearGradient>
<linearGradient id="paint2_linear_1_5" x1="77.421" y1="49.9733" x2="122.804" y2="211.307" gradientUnits="userSpaceOnUse">
<stop offset="0.28" stop-color="#DD1265"/>
<stop offset="0.97" stop-color="#FDB60D"/>
</linearGradient>
</defs>
</svg>
