<?xml version="1.0" encoding="UTF-8" standalone="no"?>
<svg
   width="256"
   height="256"
   fill="none"
   viewBox="0 0 256 256"
   version="1.1"
   id="svg228"
   sodipodi:docname="risc-v_light.svg"
   inkscape:version="1.2.2 (b0a8486541, 2022-12-01)"
   xml:space="preserve"
   xmlns:inkscape="http://www.inkscape.org/namespaces/inkscape"
   xmlns:sodipodi="http://sodipodi.sourceforge.net/DTD/sodipodi-0.dtd"
   xmlns="http://www.w3.org/2000/svg"
   xmlns:svg="http://www.w3.org/2000/svg"><defs
     id="defs232"><clipPath
       id="cvfa"><path
         d="m12 344h72v56.47h-72z"
         id="path1559" /></clipPath><clipPath
       clipPathUnits="userSpaceOnUse"
       id="clipPath1666"><rect
         width="41.869999"
         height="41.869999"
         fill="#E43717"
         rx="9.8132811"
         id="rect1668"
         style="fill:#ffffff;fill-opacity:1;stroke-width:0.163555"
         x="26.563999"
         y="-400.63501"
         transform="scale(1,-1)" /></clipPath><clipPath
       id="cvfa-3"><path
         d="m12 344h72v56.47h-72z"
         id="path1112" /></clipPath></defs><sodipodi:namedview
     id="namedview230"
     pagecolor="#ffffff"
     bordercolor="#111111"
     borderopacity="1"
     inkscape:showpageshadow="0"
     inkscape:pageopacity="0"
     inkscape:pagecheckerboard="1"
     inkscape:deskcolor="#d1d1d1"
     showgrid="false"
     inkscape:zoom="1.4142136"
     inkscape:cx="6.3639609"
     inkscape:cy="195.86857"
     inkscape:window-width="1920"
     inkscape:window-height="1011"
     inkscape:window-x="0"
     inkscape:window-y="0"
     inkscape:window-maximized="1"
     inkscape:current-layer="svg228" /><rect
     width="256"
     height="256"
     fill="#E43717"
     rx="60"
     id="rect224"
     style="fill:#f4f2ed;fill-opacity:1" /><g
     clip-path="url(#cvfa-3)"
     id="g1133"
     transform="matrix(3.1745193,0,0,-3.1745193,-24.376926,1309.6672)"><rect
       style="vector-effect:non-scaling-stroke;fill:#ffffff;fill-opacity:1;stroke-linecap:round;stroke-linejoin:bevel;stroke-dashoffset:1.5941;-inkscape-stroke:hairline;paint-order:fill markers stroke"
       id="rect1253"
       width="132.91713"
       height="131.66637"
       x="59.951004"
       y="38.221428"
       rx="0"
       transform="matrix(0.31500832,0,0,-0.31500832,7.6789346,412.55607)" /><path
       d="m 49.92,387.3 c 0,-5.937 -3.726,-11.54 -10.94,-12.77 l 10.16,-11.88 1.014,1.346 18.28,25.65 v 10.87 h -29.57 c 7.334,-1.231 11.06,-7.172 11.06,-13.22 z"
       style="fill:#f6b21a"
       id="path1117" /><path
       d="m 55.11,360.5 13.32,18.6 V 358.93 H 54.1 Z m -25.95,19.49 h 7.108 c 5.081,0 7.677,3.699 7.677,7.283 0,3.588 -2.486,7.287 -7.677,7.287 h -9.704 v -35.52 h 17.72 l -15.24,18.15 v 2.801 z"
       style="fill:#2a3172"
       id="path1119" /><path
       d="m 28.82,344 h 2.254 v 10.42 H 28.82 Z"
       style="fill:#2a3172"
       id="path1121" /><path
       d="m 35.81,348.2 c -0.7886,0 -1.576,0.3333 -2.254,1.006 -0.5671,0.5644 -1.018,1.346 -1.018,2.244 0,0.7829 0.3414,1.564 1.018,2.238 0.5628,0.563 1.35,1.011 2.254,1.011 h 11.85 v -2.242 H 35.81 c -0.2257,0 -0.4514,-0.1092 -0.6785,-0.2241 -0.2257,-0.2255 -0.2257,-0.3347 -0.2257,-0.6737 0,-0.3333 0.1157,-0.4481 0.2257,-0.6722 0.2271,-0.2255 0.3428,-0.2255 0.6785,-0.2255 h 8.58 c 0.7886,0 1.576,-0.3333 2.254,-1.006 0.5671,-0.5588 1.018,-1.346 1.018,-2.244 0,-0.8922 -0.3414,-1.564 -1.018,-2.238 -0.5628,-0.563 -1.35,-1.006 -2.254,-1.006 H 32.54 v 2.237 h 11.85 c 0.2257,0 0.4514,0.1148 0.6771,0.2255 0.2271,0.2241 0.2271,0.3389 0.2271,0.6722 0,0.2241 -0.1157,0.4482 -0.2271,0.6723 C 44.8414,348.2 44.7257,348.2 44.39,348.2 Z"
       style="fill:#2a3172"
       id="path1123" /><path
       d="m 54.09,354.5 h 9.704 v -2.242 H 54.09 c -0.7886,0 -1.581,-0.3347 -2.144,-0.7829 -0.5614,-0.563 -0.7871,-1.237 -0.7871,-2.129 0,-0.7872 0.3357,-1.57 0.7871,-2.128 0.5629,-0.563 1.24,-0.7885 2.144,-0.7885 h 9.704 v -2.237 H 54.09 c -1.466,0 -2.596,0.5574 -3.726,1.564 -1.014,1.013 -1.581,2.242 -1.581,3.699 0,1.455 0.5671,2.576 1.581,3.698 1.02,0.8977 2.144,1.346 3.726,1.346 z"
       style="fill:#2a3172"
       id="path1125" /><path
       d="m 27.12,344.1 -3.047,4.141 c 0.7928,0.1149 1.471,0.339 2.033,1.011 0.5614,0.5588 1.014,1.34 1.014,2.238 0,0.7886 -0.3372,1.57 -1.014,2.244 -0.5614,0.5575 -1.356,1.006 -2.26,1.006 h -11.85 v -10.42 h 2.26 v 4.141 h 6.993 l 3.047,-4.141 z m -12.75,8.179 h 9.592 c 0.2271,0 0.4528,-0.1149 0.6785,-0.2255 0.2257,-0.2241 0.2257,-0.339 0.2257,-0.6723 0,-0.2241 -0.1157,-0.4482 -0.2257,-0.6737 -0.2257,-0.2241 -0.3414,-0.2241 -0.6785,-0.2241 H 14.37 Z"
       style="fill:#2a3172"
       id="path1127" /><path
       d="m 75.2,344 -6.095,10.42 h 2.596 l 4.855,-8.294 4.848,8.294 H 84 L 77.906,344 Z"
       style="fill:#f6b21a"
       id="path1129" /><path
       d="m 65.27,348.3 h 4.397 v 2.018 H 65.27 Z"
       style="fill:#f6b21a"
       id="path1131" /></g></svg>
