<svg xmlns="http://www.w3.org/2000/svg" viewBox="0 0 256 256" width="256" height="256">

	<rect fill="#242938" width="256" height="256" rx="60" />
	<path fill="#41d0fd" d="m186 42.4c9.7 0 19.4 0 29.1 0 0 15 0 30 0 45.1-1.2 0.1-2.5 0.2-3.7 0.3-1.8 0.1-3.5 0.3-5.3 0.5-1.1 0.1-2.3 0.2-3.4 0.3q-2.5 0.2-4.9 0.5-2.1 0.2-4.1 0.4-2 0.3-4.1 0.5-1.8 0.3-3.6 0.5-2.2 0.3-4.4 0.6-2 0.3-4.1 0.6-2.8 0.5-5.6 1c-1.9 0.3-3.8 0.6-5.7 1q-2.5 0.5-5.1 1.1c-2.9 0.7-5.8 1.4-8.7 2.2-2.8 0.8-5.5 1.8-8 3.3-1.7 0.9-3.2 2-4.3 3.6-1.1 1.6-0.9 3.8 0 5.3 1.5 2.4 3.7 3.9 6 5.4 1.4 1 3 1.8 4.2 3.1 1.2 1.2 1.2 2.8 0 4-1.5 1.6-3.4 2.6-5.4 3.4q-3.8 1.6-7.7 2.8c-3.5 1.1-7.1 2.1-10.7 3.1q-3.7 1-7.5 1.8c-3.7 0.9-7.5 1.6-11.2 2.4-3.2 0.7-6.4 1.4-9.7 2-2.5 0.5-5 1-7.5 1.4q-3.3 0.6-6.5 1.2c-2.1 0.4-4.2 0.8-6.3 1.2-2.3 0.4-4.5 0.8-6.8 1.3-2.6 0.6-5.1 1.2-7.7 1.9-3 0.9-6 1.8-9.1 2.7-2.6 0.8-5.1 0.8-7.6-0.4-2.8-1.4-4.6-3.6-5.3-6.6-0.2-0.8-0.3-1.7-0.3-2.5 0-6.3 0-12.5 0.1-18.8 0-2.1 0.3-4.3 0.5-6.4 0.1-1.4 0.3-2.7 0.5-4.1 0.5-2.3 0.9-4.6 1.5-6.9 1-4.1 2.5-8.1 4.2-12 2.1-4.8 4.7-9.3 7.7-13.6q1.9-2.7 4.2-5.3c2-2.3 4.1-4.7 6.4-6.8 2.4-2.2 5.1-4.3 7.8-6.3 2.8-2.2 5.8-4 8.9-5.6 4.6-2.6 9.5-4.5 14.5-6 2.7-0.8 5.4-1.4 8.1-2 2.1-0.4 4.2-0.5 6.3-0.8 3.3-0.5 6.6-0.4 9.8-0.4 21.5 0 42.9 0 64.5 0z"/>
	<path fill="#08599d" d="m215.2 109.7q0 2.6 0 5.3c0 7.9 0 15.9 0 23.8-0.1 2.7-0.3 5.3-0.6 7.9-0.5 6.1-2 11.9-4.1 17.7q-2.2 6.2-5.4 11.9-2.8 4.9-6.2 9.3c-1.1 1.6-2.5 3.1-3.8 4.5-0.9 1.1-1.9 2.2-2.9 3.2q-2.1 2.1-4.3 4c-1.8 1.5-3.6 3-5.5 4.3-2.1 1.5-4.3 2.9-6.5 4.3-1.4 0.8-2.8 1.6-4.2 2.3-3.3 1.4-6.5 2.8-9.9 4-2.6 1-5.3 1.8-8.1 2.4-3.8 0.8-7.7 0.3-11.3-1.5-0.2-0.3-0.4-0.4-0.6-0.6-4.8-3-9.4-6.3-13.2-10.6-2.1-2.4-3.9-5-5-7.9-2-4.9-1.6-9.8 0.8-14.4 2-3.8 4.8-6.8 8.1-9.4 5-4 10.5-6.9 16.4-9.3 4.8-1.9 9.8-3.4 14.9-4.6 5.8-1.2 11.6-2.5 17.3-3.8 6.1-1.5 12.1-3.2 17.9-5.8 2.9-1.3 5.8-2.9 8.1-5.4 0.9-0.9 1.5-2 1.9-3.3 0.7-2.3 0-4.4-1.1-6.4-1.1-1.9-2.7-3.5-4.3-5-0.6-0.7-1.3-1.4-1.8-2.1-1.1-1.7-1.5-3.5-0.8-5.4 0.6-1.6 1.7-2.8 3-3.8 2.1-1.7 4.4-2.9 6.9-4 1.4-0.6 2.8-1.1 4.3-1.6z"/>
	<path fill="#064479" d="m215.2 109.6c-1.5 0.6-2.9 1.1-4.3 1.7-2.5 1.1-4.8 2.3-6.9 4-1.3 1-2.4 2.2-3 3.8-0.7 1.9-0.3 3.7 0.8 5.4 0.5 0.7 1.2 1.4 1.8 2.1 1.6 1.5 3.2 3.1 4.3 5 1.1 2 1.8 4.1 1.1 6.4-0.4 1.3-1 2.4-1.9 3.3-2.3 2.5-5.2 4.1-8.1 5.4-5.8 2.6-11.8 4.3-17.9 5.8-5.7 1.3-11.5 2.6-17.3 3.8-5.1 1.2-10.1 2.7-14.9 4.6-5.9 2.4-11.4 5.3-16.4 9.3-3.3 2.6-6.1 5.6-8.1 9.4-2.4 4.6-2.8 9.5-0.8 14.4 1.1 2.9 2.9 5.5 5 7.9 3.8 4.3 8.4 7.6 13.2 10.6 0.2 0.2 0.4 0.3 0.6 0.6-1.1-0.5-2.2-0.9-3.3-1.4-1.8-0.8-3.6-1.6-5.3-2.5-4.4-2.3-8.8-4.6-12.8-7.5-2.3-1.7-4.5-3.5-6.7-5.3-2.5-2.2-4.6-4.8-6.4-7.7-1.3-2.2-2.2-4.6-2.6-7.1-0.7-5 0.8-9.4 3.6-13.5 1.4-1.9 3.1-3.6 4.8-5.2 2.5-2.3 5.2-4.2 8.1-5.8q6.4-3.7 13.4-6.1c4.3-1.5 8.6-2.7 13-3.6q4.7-1 9.5-2.1c4.4-1.1 8.9-2.1 13.4-3.4 3.3-1 6.5-2.2 9.7-3.4q3.8-1.5 7.1-4c1.9-1.4 3.5-3.2 4-5.6 0.4-2-0.2-3.8-1.1-5.6-1.2-2.1-3-3.7-4.7-5.5-0.8-0.8-1.5-1.8-2.1-2.9-1.2-2.3-0.6-4.4 0.8-6.3 1.5-1.9 3.6-3.2 5.7-4.4 5.1-2.7 10.6-4.4 16.1-5.9 2.8-0.7 5.6-1.4 8.6-2.1 0 4.5 0 9 0 13.4z"/>
</svg>