<?xml version="1.0" encoding="utf-8"?>
<!-- Generator: Adobe Illustrator 26.3.1, SVG Export Plug-In . SVG Version: 6.00 Build 0)  -->
<svg version="1.0" id="Layer_1" xmlns="http://www.w3.org/2000/svg" xmlns:xlink="http://www.w3.org/1999/xlink" x="0px" y="0px"
	 width="256px" height="256px" viewBox="0 0 256 256" style="enable-background:new 0 0 256 256;" xml:space="preserve">
<path style="fill:#F4F2ED;" d="M60,0h136c33.1,0,60,26.9,60,60v136c0,33.1-26.9,60-60,60H60c-33.1,0-60-26.9-60-60V60
	C0,26.9,26.9,0,60,0z"/>
<g id="XMLID_14_">
	
		<linearGradient id="XMLID_00000075120819210425410210000011161627360427244201_" gradientUnits="userSpaceOnUse" x1="107.8143" y1="123.5432" x2="161.244" y2="111.0532" gradientTransform="matrix(1 0 0 -1 0 258)">
		<stop  offset="0" style="stop-color:#FF6533"/>
		<stop  offset="0.157" style="stop-color:#FF5633"/>
		<stop  offset="0.434" style="stop-color:#FF4333"/>
		<stop  offset="0.714" style="stop-color:#FF3733"/>
		<stop  offset="1" style="stop-color:#FF3333"/>
	</linearGradient>
	<path id="XMLID_15_" style="fill:url(#XMLID_00000075120819210425410210000011161627360427244201_);" d="M203.8,94.2
		c0-11.7-3.1-22.6-8.4-32.1c-14.3-14.7-45.3-18.1-53-0.1c-7.9,18.5,13.3,39,22.6,37.4c11.8-2.1-2.1-29.1-2.1-29.1
		c18,34,13.9,23.6-18.7,54.8S78.2,222.2,73.3,225c-0.2,0.1-0.4,0.2-0.7,0.3h127.9c2.3,0,3.7-2.4,2.7-4.4l-33.4-66.2
		c-0.7-1.4-0.2-3.2,1.2-4C190.6,139.5,203.8,118.4,203.8,94.2z"/>
</g>
<g id="XMLID_2_">
	
		<linearGradient id="XMLID_00000176012735487065727830000008569209972333555356_" gradientUnits="userSpaceOnUse" x1="99.4523" y1="141.2525" x2="195.2098" y2="67.0061" gradientTransform="matrix(1 0 0 -1 0 258)">
		<stop  offset="0" style="stop-color:#BF3338"/>
		<stop  offset="1" style="stop-color:#FF3333"/>
	</linearGradient>
	<path id="XMLID_10_" style="fill:url(#XMLID_00000176012735487065727830000008569209972333555356_);" d="M203.8,94.2
		c0-11.7-3.1-22.6-8.4-32.1c-14.3-14.7-45.3-18.1-53-0.1c-7.9,18.5,13.3,39,22.6,37.4c11.8-2.1-2.1-29.1-2.1-29.1
		c18,34,13.9,23.6-18.7,54.8S78.2,222.2,73.3,225c-0.2,0.1-0.4,0.2-0.7,0.3h127.9c2.3,0,3.7-2.4,2.7-4.4l-33.4-66.2
		c-0.7-1.4-0.2-3.2,1.2-4C190.6,139.5,203.8,118.4,203.8,94.2z"/>
</g>
<linearGradient id="XMLID_00000168829800055206877390000002315772054034800538_" gradientUnits="userSpaceOnUse" x1="102.5829" y1="126.6359" x2="116.4608" y2="112.0642" gradientTransform="matrix(1 0 0 -1 0 258)">
	<stop  offset="0" style="stop-color:#FF6533"/>
	<stop  offset="0.157" style="stop-color:#FF5633"/>
	<stop  offset="0.434" style="stop-color:#FF4333"/>
	<stop  offset="0.714" style="stop-color:#FF3733"/>
	<stop  offset="1" style="stop-color:#FF3333"/>
</linearGradient>
<path id="XMLID_3_" style="fill:url(#XMLID_00000168829800055206877390000002315772054034800538_);" d="M73.3,225
	c4.9-2.8,38.2-68.7,70.8-99.9s36.8-20.8,18.7-54.8c0,0-69,96.8-94,144.7"/>
<g id="XMLID_7_">
	
		<linearGradient id="XMLID_00000121249302487084874390000016463151880835669665_" gradientUnits="userSpaceOnUse" x1="127.8169" y1="101.5515" x2="123.6535" y2="161.2262" gradientTransform="matrix(1 0 0 -1 0 258)">
		<stop  offset="0" style="stop-color:#FF6533"/>
		<stop  offset="0.157" style="stop-color:#FF5633"/>
		<stop  offset="0.434" style="stop-color:#FF4333"/>
		<stop  offset="0.714" style="stop-color:#FF3733"/>
		<stop  offset="1" style="stop-color:#FF3333"/>
	</linearGradient>
	<path id="XMLID_12_" style="fill:url(#XMLID_00000121249302487084874390000016463151880835669665_);" d="M83,138.2
		c46.6-85.7,52.7-94.4,77-94.4c12.8,0,25.6,5.8,34,16c-11.3-18.3-31.4-30.5-54.4-30.9H60.4c-1.7,0-3,1.4-3,3v159.7
		C62.1,179.5,70.1,162.1,83,138.2z"/>
</g>
<linearGradient id="XMLID_00000043415471108713981930000003154653214562858131_" gradientUnits="userSpaceOnUse" x1="109.7781" y1="127.6583" x2="129.4909" y2="114.2533" gradientTransform="matrix(1 0 0 -1 0 258)">
	<stop  offset="0" style="stop-color:#FBB040"/>
	<stop  offset="1" style="stop-color:#FB8840"/>
</linearGradient>
<path id="XMLID_6_" style="fill:url(#XMLID_00000043415471108713981930000003154653214562858131_);" d="M144.1,125.1
	c-32.6,31.2-65.9,97.1-70.8,99.9c-4.9,2.8-13,3.1-17.3-1.7c-4.6-5.2-11.8-13.5,27.1-85c46.6-85.7,52.7-94.4,77-94.4
	c12.8,0,25.6,5.8,34,16c0.5,0.7,0.9,1.5,1.4,2.3c-14.3-14.7-45.3-18.1-53-0.1c-7.9,18.5,13.3,39,22.6,37.4
	c11.8-2.1-2.1-29.1-2.1-29.1C180.9,104.2,176.7,93.8,144.1,125.1z"/>
<linearGradient id="XMLID_00000077313955324524266050000007665256754327689872_" gradientUnits="userSpaceOnUse" x1="129.9756" y1="203.4488" x2="109.8527" y2="-17.9028" gradientTransform="matrix(1 0 0 -1 0 258)">
	<stop  offset="0" style="stop-color:#FFFFFF"/>
	<stop  offset="1" style="stop-color:#FFFFFF;stop-opacity:0"/>
</linearGradient>
<path id="XMLID_13_" style="opacity:0.3;fill:url(#XMLID_00000077313955324524266050000007665256754327689872_);enable-background:new    ;" d="
	M86.8,142.1c46.6-85.7,52.7-94.4,77-94.4c10.5,0,21.1,3.9,29.1,11c-8.3-9.5-20.7-14.8-33-14.8c-24.3,0-30.4,8.6-77,94.4
	c-38.9,71.5-31.7,79.8-27.1,85c0.7,0.7,1.4,1.4,2.2,1.9C54.1,219.2,52.3,205.5,86.8,142.1z"/>
</svg>
