<svg width="256" height="256" viewBox="0 0 256 256" fill="none" xmlns="http://www.w3.org/2000/svg">
<g clip-path="url(#clip0_80_23)">
<path d="M196 0H60C26.8629 0 0 26.8629 0 60V196C0 229.137 26.8629 256 60 256H196C229.137 256 256 229.137 256 196V60C256 26.8629 229.137 0 196 0Z" fill="#F4F2ED"/>
<g clip-path="url(#clip1_80_23)">
<g opacity="0.53" filter="url(#filter0_f_80_23)">
<path d="M207.317 130.765C207.317 140.855 205.252 150.847 201.241 160.169C197.23 169.491 191.351 177.961 183.94 185.096C176.529 192.231 167.73 197.891 158.047 201.752C148.364 205.614 137.985 207.601 127.504 207.601C117.023 207.601 106.644 205.614 96.9611 201.752C87.2778 197.891 78.4793 192.231 71.0681 185.096C63.6568 177.961 57.7778 169.491 53.7669 160.169C49.7559 150.847 47.6915 140.855 47.6915 130.765C47.6915 110.387 56.1003 90.8432 71.0681 76.4337C86.0358 62.0242 106.336 53.929 127.504 53.929C137.985 53.929 148.364 55.9164 158.047 59.7777C167.73 63.6391 176.529 69.2988 183.94 76.4337C191.351 83.5686 197.23 92.0389 201.241 101.361C205.252 110.683 207.317 120.675 207.317 130.765Z" fill="black"/>
</g>
<path d="M210.351 123.98C210.351 134.858 208.208 145.629 204.044 155.678C199.881 165.728 193.778 174.859 186.085 182.551C178.391 190.242 169.258 196.343 159.206 200.506C149.154 204.669 138.38 206.811 127.5 206.811C105.527 206.811 84.4531 198.084 68.9155 182.551C53.378 167.017 44.649 145.948 44.649 123.98C44.649 102.012 53.378 80.9438 68.9155 65.41C84.4531 49.8762 105.527 41.1494 127.5 41.1494C138.38 41.1494 149.154 43.2919 159.206 47.4545C169.258 51.6172 178.391 57.7185 186.085 65.41C193.778 73.1016 199.881 82.2328 204.044 92.2823C208.208 102.332 210.351 113.103 210.351 123.98Z" fill="url(#paint0_linear_80_23)" stroke="#CDCDCD" stroke-width="0.351543" stroke-linecap="round" stroke-linejoin="round"/>
<path d="M203.859 123.98C203.859 144.227 195.814 163.644 181.494 177.961C167.174 192.277 147.752 200.32 127.5 200.32C107.248 200.32 87.8262 192.277 73.5061 177.961C59.186 163.644 51.1411 144.227 51.1411 123.98C51.1411 103.733 59.186 84.316 73.5061 69.9994C87.8262 55.6829 107.248 47.6399 127.5 47.6399C147.752 47.6399 167.174 55.6829 181.494 69.9994C195.814 84.316 203.859 103.733 203.859 123.98Z" fill="url(#paint1_radial_80_23)"/>
<path d="M127.5 51.6211C126.883 51.6211 126.387 52.1175 126.387 52.7341V65.5723C126.387 66.1889 126.883 66.6853 127.5 66.6853C128.117 66.6853 128.613 66.1889 128.613 65.5723V52.7341C128.613 52.1175 128.117 51.6211 127.5 51.6211ZM120.217 52.0813C120.143 52.0734 120.067 52.0734 119.991 52.0822C119.377 52.1462 118.935 52.6914 118.999 53.3048L119.56 58.6757C119.624 59.289 120.169 59.7312 120.783 59.6672C121.396 59.6032 121.839 59.0579 121.775 58.4446L121.214 53.0737C121.158 52.5371 120.733 52.1314 120.217 52.0813ZM134.834 52.0866C134.318 52.1363 133.893 52.5419 133.837 53.0785L133.272 58.449C133.207 59.0622 133.649 59.608 134.263 59.6725C134.876 59.737 135.422 59.2952 135.486 58.6819L136.051 53.311C136.116 52.6978 135.673 52.1525 135.06 52.088C134.983 52.0801 134.908 52.08 134.834 52.0866ZM112.735 53.166C112.661 53.1665 112.586 53.1739 112.511 53.1898C111.907 53.3175 111.524 53.906 111.652 54.5093L114.311 67.0689C114.439 67.6721 115.028 68.055 115.631 67.9273C116.235 67.7996 116.618 67.2114 116.49 66.6082L113.83 54.0482C113.719 53.5203 113.254 53.1619 112.735 53.166ZM142.315 53.1765C141.796 53.1712 141.332 53.5307 141.22 54.0585L138.551 66.6165C138.423 67.2197 138.805 67.8085 139.409 67.9366C140.012 68.0648 140.601 67.6822 140.729 67.0791L143.398 54.521C143.526 53.9179 143.143 53.3291 142.54 53.201C142.465 53.1851 142.389 53.1765 142.315 53.1765ZM105.595 55.1787C105.451 55.1654 105.302 55.1813 105.156 55.23C104.569 55.4206 104.25 56.0457 104.441 56.6321L106.11 61.7682C106.301 62.3546 106.926 62.6735 107.513 62.483C108.1 62.2923 108.418 61.6667 108.227 61.0803L106.558 55.9443C106.415 55.5044 106.028 55.2154 105.595 55.1787ZM149.415 55.1813C148.982 55.2181 148.595 55.5072 148.452 55.947L146.782 61.0826C146.591 61.669 146.91 62.2946 147.496 62.4852C148.083 62.6759 148.708 62.3572 148.899 61.7709L150.569 56.6349C150.76 56.0485 150.441 55.4229 149.855 55.2322C149.708 55.1846 149.559 55.1691 149.415 55.1813ZM98.5348 57.7618C98.3901 57.7644 98.2437 57.7962 98.1028 57.8588C97.5395 58.1093 97.2872 58.7643 97.5378 59.3278L102.753 71.0592C103.004 71.6226 103.659 71.8746 104.223 71.6241C104.786 71.3737 105.039 70.7186 104.788 70.1552L99.5721 58.4238C99.3843 58.0011 98.9686 57.7534 98.5348 57.7618ZM156.555 57.8012C156.121 57.7933 155.705 58.0394 155.517 58.4617L150.285 70.1859C150.034 70.749 150.285 71.4046 150.848 71.6558C151.412 71.907 152.067 71.656 152.319 71.0928L157.55 59.3686C157.801 58.8055 157.55 58.1499 156.987 57.8987C156.846 57.8361 156.7 57.8044 156.555 57.8012ZM91.981 61.2286C91.7673 61.2127 91.5471 61.2603 91.3468 61.3761C90.8126 61.6845 90.631 62.3625 90.9393 62.8965L93.6401 67.5733C93.9485 68.1073 94.6267 68.289 95.1608 67.9806C95.695 67.6723 95.8767 66.9943 95.5683 66.4603L92.8675 61.7835C92.6747 61.4497 92.3373 61.2535 91.981 61.2286ZM163.019 61.2286C162.663 61.2524 162.326 61.4496 162.133 61.7834L159.432 66.4602C159.123 66.9942 159.306 67.6723 159.84 67.9806C160.374 68.2889 161.052 68.1072 161.36 67.5732L164.061 62.8964C164.37 62.3624 164.188 61.6844 163.654 61.3761C163.453 61.2605 163.233 61.2138 163.019 61.2286ZM85.6171 65.1969C85.4028 65.2048 85.1883 65.2735 85.0011 65.4092C84.5019 65.7713 84.3915 66.4645 84.7538 66.9637L92.2939 77.3553C92.6561 77.8544 93.35 77.9648 93.8493 77.6028C94.3485 77.2407 94.4589 76.5475 94.0966 76.0484L86.5559 65.6567C86.3295 65.3447 85.974 65.1847 85.6171 65.1969ZM169.463 65.2534C169.106 65.2402 168.75 65.4002 168.523 65.7117L160.969 76.0933C160.606 76.5919 160.715 77.2855 161.214 77.6482C161.713 78.011 162.407 77.9018 162.77 77.4034L170.324 67.0218C170.686 66.5231 170.577 65.8296 170.078 65.4669C169.891 65.3309 169.677 65.2611 169.463 65.2534ZM79.9287 69.9663C79.6445 69.9504 79.3545 70.0453 79.1253 70.2516C78.6669 70.6642 78.63 71.3651 79.0428 71.8234L82.6569 75.8373C83.0696 76.2956 83.7707 76.3324 84.2291 75.9198C84.6875 75.5072 84.7244 74.8058 84.3116 74.3475L80.6979 70.3341C80.4916 70.1049 80.2129 69.9812 79.9287 69.9663ZM175.079 69.9742C174.795 69.9901 174.517 70.113 174.31 70.3421L170.696 74.3551C170.283 74.8133 170.32 75.5147 170.778 75.9273C171.237 76.3399 171.938 76.3029 172.35 75.8448L175.965 71.8319C176.378 71.3736 176.341 70.6723 175.883 70.2597C175.653 70.0534 175.364 69.9593 175.079 69.9742ZM74.4767 75.202C74.1925 75.2178 73.9142 75.3408 73.7079 75.5699C73.2952 76.0282 73.3321 76.7291 73.7904 77.1417L83.3342 85.731C83.7926 86.1436 84.4937 86.1067 84.9063 85.6485C85.319 85.1903 85.2826 84.4893 84.824 84.0768L75.2798 75.4874C75.0505 75.2812 74.7609 75.187 74.4767 75.202ZM180.558 75.2395C180.274 75.2236 179.983 75.3183 179.754 75.5244L170.205 84.107C169.746 84.5192 169.708 85.2202 170.12 85.6788C170.533 86.1373 171.234 86.1746 171.693 85.7623L181.243 77.1797C181.702 76.7675 181.739 76.0665 181.327 75.6079C181.12 75.3787 180.842 75.2546 180.558 75.2395ZM69.9429 81.0303C69.586 81.0171 69.2301 81.1779 69.0035 81.4895C68.641 81.9884 68.751 82.6816 69.25 83.044L73.62 86.2182C74.119 86.5807 74.8123 86.4713 75.1748 85.9723C75.5374 85.4735 75.4277 84.7798 74.9288 84.4174L70.5589 81.2432C70.3719 81.1072 70.157 81.038 69.9429 81.0303ZM185.087 81.0708C184.873 81.0787 184.659 81.1472 184.471 81.2831L180.1 84.4545C179.6 84.8166 179.49 85.5103 179.852 86.0094C180.214 86.5085 180.908 86.6184 181.407 86.2564L185.779 83.085C186.278 82.7229 186.388 82.0297 186.026 81.5306C185.8 81.2186 185.444 81.0586 185.087 81.0708ZM65.706 87.2473C65.3498 87.2711 65.0127 87.4683 64.82 87.8021C64.5116 88.3361 64.6933 89.0141 65.2274 89.3224L76.3481 95.7415C76.8823 96.0498 77.5605 95.8682 77.8689 95.3342C78.1772 94.8002 77.9955 94.1221 77.4614 93.8138L66.3407 87.3947C66.1405 87.2792 65.9197 87.2325 65.706 87.2473ZM189.294 87.2473C189.08 87.2314 188.86 87.279 188.659 87.3948L177.539 93.8139C177.004 94.1222 176.823 94.8003 177.131 95.3343C177.44 95.8683 178.118 96.0499 178.652 95.7416L189.773 89.3225C190.307 89.0142 190.489 88.3362 190.18 87.8022C189.988 87.4684 189.65 87.2722 189.294 87.2473ZM62.5026 93.8739C62.0688 93.8633 61.6528 94.1116 61.4643 94.5339C61.2131 95.097 61.4642 95.7526 62.0275 96.0038L66.961 98.2038C67.5243 98.455 68.18 98.204 68.4313 97.6409C68.6825 97.0777 68.431 96.4221 67.8677 96.171L62.9346 93.9709C62.7939 93.908 62.6472 93.8768 62.5026 93.8739ZM192.519 93.9196C192.374 93.9223 192.227 93.954 192.087 94.0167L187.152 96.2129C186.589 96.4638 186.337 97.119 186.587 97.6823C186.838 98.2456 187.494 98.4975 188.058 98.2467L192.992 96.05C193.556 95.7993 193.807 95.1439 193.556 94.5806C193.368 94.1581 192.953 93.911 192.519 93.9196ZM59.6476 100.8C59.2152 100.836 58.8276 101.125 58.6843 101.565C58.4933 102.151 58.8112 102.777 59.3978 102.968L71.6073 106.945C72.1937 107.136 72.8196 106.818 73.0107 106.232C73.2017 105.646 72.8838 105.02 72.2972 104.829L60.0878 100.851C59.9412 100.803 59.7917 100.788 59.6476 100.8ZM195.369 100.847C195.225 100.834 195.076 100.85 194.929 100.899L182.717 104.868C182.13 105.058 181.812 105.684 182.002 106.27C182.193 106.857 182.819 107.175 183.405 106.984L195.617 103.016C196.204 102.825 196.523 102.199 196.332 101.613C196.189 101.173 195.801 100.884 195.369 100.847ZM57.8689 108.07C57.3502 108.065 56.8851 108.425 56.7729 108.953C56.6446 109.556 57.0274 110.144 57.6306 110.273L62.9144 111.395C63.5177 111.524 64.1065 111.141 64.2348 110.538C64.363 109.935 63.9803 109.346 63.3771 109.218L58.0937 108.095C58.0184 108.079 57.943 108.07 57.8689 108.07ZM197.134 108.081C197.059 108.081 196.985 108.091 196.909 108.105L191.625 109.227C191.022 109.355 190.64 109.943 190.768 110.546C190.896 111.149 191.485 111.532 192.088 111.404L197.371 110.282C197.975 110.154 198.358 109.565 198.23 108.962C198.117 108.434 197.652 108.076 197.134 108.081ZM56.5226 115.383C56.0063 115.433 55.5814 115.838 55.5246 116.374C55.4599 116.987 55.9011 117.533 56.5144 117.598L69.2846 118.948C69.898 119.013 70.4441 118.571 70.5089 117.958C70.5737 117.345 70.132 116.799 69.5186 116.734L56.7484 115.384C56.6717 115.376 56.5964 115.376 56.5226 115.383ZM198.489 115.479C198.416 115.471 198.34 115.471 198.263 115.48L185.491 116.813C184.878 116.877 184.436 117.422 184.5 118.035C184.564 118.649 185.109 119.091 185.722 119.027L198.494 117.694C199.108 117.63 199.55 117.085 199.486 116.472C199.43 115.935 199.006 115.529 198.489 115.479ZM56.3064 122.869C55.6896 122.869 55.1931 123.366 55.1931 123.982C55.1931 124.599 55.6896 125.095 56.3064 125.095H61.7079C62.3247 125.095 62.8217 124.599 62.8217 123.982C62.8217 123.366 62.3247 122.869 61.7079 122.869H56.3064ZM193.292 122.869C192.675 122.869 192.179 123.366 192.179 123.982C192.179 124.599 192.675 125.095 193.292 125.095H198.694C199.31 125.095 199.807 124.599 199.807 123.982C199.807 123.366 199.31 122.869 198.694 122.869H193.292ZM69.5037 128.937C69.4299 128.929 69.3545 128.929 69.2778 128.938L56.5057 130.27C55.8923 130.334 55.4501 130.879 55.514 131.493C55.578 132.106 56.1234 132.548 56.7368 132.484L69.5089 131.152C70.1224 131.088 70.5646 130.542 70.5006 129.929C70.4446 129.392 70.0199 128.987 69.5037 128.937ZM185.49 129.015C184.973 129.065 184.548 129.47 184.492 130.006C184.427 130.62 184.868 131.166 185.481 131.23L198.252 132.58C198.865 132.645 199.411 132.203 199.476 131.59C199.541 130.977 199.099 130.431 198.486 130.366L185.716 129.016C185.639 129.008 185.563 129.008 185.49 129.015ZM63.1374 136.535C63.0633 136.535 62.9879 136.542 62.9125 136.558L57.6287 137.68C57.0254 137.809 56.6429 138.397 56.771 139C56.8993 139.604 57.4881 139.986 58.0914 139.858L63.3753 138.736C63.9786 138.608 64.361 138.019 64.2329 137.416C64.1207 136.888 63.656 136.53 63.1374 136.535ZM191.861 136.545C191.343 136.54 190.878 136.899 190.766 137.427C190.637 138.03 191.02 138.619 191.623 138.747L196.907 139.87C197.51 139.998 198.099 139.616 198.227 139.013C198.355 138.41 197.973 137.82 197.369 137.692L192.086 136.57C192.011 136.554 191.935 136.545 191.861 136.545ZM72.0349 140.929C71.8907 140.916 71.7419 140.932 71.5952 140.98L59.3829 144.949C58.7963 145.14 58.4778 145.765 58.6684 146.352C58.8591 146.938 59.4848 147.256 60.0714 147.066L72.2833 143.097C72.8699 142.906 73.1889 142.281 72.9982 141.694C72.8552 141.255 72.4672 140.966 72.0349 140.929ZM182.953 140.968C182.521 141.005 182.133 141.293 181.99 141.733C181.799 142.319 182.117 142.945 182.703 143.136L194.913 147.114C195.499 147.304 196.125 146.986 196.316 146.4C196.507 145.814 196.189 145.188 195.603 144.997L183.393 141.02C183.247 140.972 183.097 140.956 182.953 140.968ZM67.3747 149.622C67.23 149.624 67.0836 149.655 66.9427 149.718L62.0078 151.915C61.4443 152.165 61.1928 152.821 61.4437 153.384C61.6947 153.947 62.35 154.199 62.9134 153.948L67.8485 151.752C68.4119 151.501 68.6634 150.846 68.4125 150.282C68.2245 149.86 67.8085 149.613 67.3747 149.622ZM187.608 149.664C187.174 149.653 186.758 149.902 186.569 150.324C186.318 150.887 186.569 151.543 187.132 151.794L192.065 153.994C192.629 154.245 193.284 153.994 193.536 153.431C193.787 152.868 193.536 152.212 192.973 151.961L188.039 149.761C187.899 149.698 187.752 149.667 187.608 149.664ZM76.9828 152.076C76.7691 152.06 76.5485 152.107 76.3481 152.223L65.2274 158.642C64.6933 158.951 64.5116 159.629 64.82 160.163C65.1284 160.697 65.8066 160.878 66.3407 160.57L77.4614 154.151C77.9955 153.843 78.1772 153.165 77.8689 152.631C77.676 152.297 77.3391 152.101 76.9828 152.076ZM178.018 152.076C177.661 152.1 177.324 152.297 177.131 152.631C176.823 153.165 177.004 153.843 177.539 154.151L188.659 160.57C189.193 160.878 189.872 160.697 190.18 160.163C190.489 159.629 190.307 158.951 189.773 158.642L178.652 152.223C178.452 152.108 178.231 152.061 178.018 152.076ZM74.209 161.496C73.9948 161.504 73.7803 161.573 73.5931 161.708L69.2212 164.88C68.722 165.242 68.6115 165.935 68.9736 166.434C69.3358 166.933 70.0292 167.044 70.5285 166.682L74.9008 163.51C75.4001 163.148 75.5105 162.455 75.1484 161.956C74.922 161.644 74.5659 161.483 74.209 161.496ZM180.765 161.533C180.408 161.52 180.052 161.681 179.825 161.992C179.463 162.491 179.573 163.185 180.072 163.547L184.442 166.722C184.941 167.084 185.634 166.974 185.997 166.475C186.359 165.976 186.249 165.283 185.751 164.921L181.381 161.746C181.194 161.611 180.979 161.541 180.765 161.533ZM84.1107 161.917C83.8266 161.902 83.5368 161.996 83.3074 162.202L73.7574 170.785C73.2987 171.197 73.2615 171.898 73.6738 172.357C74.0861 172.815 74.7872 172.852 75.2459 172.44L84.796 163.858C85.2546 163.445 85.2919 162.744 84.8795 162.286C84.6735 162.057 84.3949 161.933 84.1107 161.917ZM170.863 161.948C170.579 161.964 170.3 162.087 170.094 162.316C169.681 162.774 169.718 163.475 170.176 163.888L179.72 172.477C180.178 172.89 180.88 172.853 181.292 172.395C181.705 171.936 181.668 171.235 181.21 170.823L171.666 162.234C171.436 162.027 171.147 161.933 170.863 161.948ZM93.1707 170.102C92.8138 170.089 92.4576 170.248 92.2309 170.56L84.6768 180.942C84.3139 181.44 84.4231 182.134 84.9217 182.497C85.4204 182.859 86.1142 182.75 86.477 182.251L94.0311 171.87C94.3939 171.371 94.2847 170.678 93.7862 170.315C93.5992 170.179 93.3848 170.109 93.1707 170.102ZM161.767 170.148C161.553 170.156 161.339 170.225 161.151 170.361C160.652 170.723 160.542 171.416 160.904 171.915L168.444 182.307C168.806 182.806 169.5 182.916 169.999 182.554C170.498 182.192 170.608 181.499 170.246 181L162.706 170.608C162.48 170.296 162.124 170.136 161.767 170.148ZM83.4189 171.752C83.1347 171.768 82.856 171.891 82.6496 172.12L79.0355 176.133C78.6227 176.591 78.6593 177.292 79.1177 177.705C79.5761 178.118 80.2771 178.081 80.6898 177.622L84.3045 173.609C84.7172 173.151 84.6802 172.45 84.2219 172.037C83.9926 171.831 83.7031 171.737 83.4189 171.752ZM171.574 171.757C171.29 171.741 171.001 171.836 170.772 172.042C170.313 172.455 170.276 173.156 170.689 173.614L174.302 177.628C174.715 178.086 175.416 178.123 175.875 177.711C176.333 177.298 176.37 176.597 175.957 176.138L172.343 172.125C172.137 171.896 171.859 171.772 171.574 171.757ZM103.72 176.209C103.286 176.199 102.87 176.447 102.682 176.869L97.4498 188.593C97.1986 189.156 97.4497 189.812 98.013 190.063C98.5762 190.314 99.232 190.063 99.4832 189.5L104.715 177.776C104.966 177.213 104.715 176.557 104.152 176.306C104.011 176.243 103.864 176.212 103.72 176.209ZM151.21 176.241C151.065 176.244 150.918 176.275 150.777 176.338C150.214 176.588 149.962 177.243 150.212 177.807L155.428 189.538C155.678 190.101 156.334 190.354 156.898 190.103C157.461 189.853 157.713 189.198 157.463 188.634L152.247 176.903C152.059 176.48 151.644 176.233 151.21 176.241ZM94.5261 179.834C94.1699 179.858 93.8328 180.055 93.6401 180.389L90.9393 185.066C90.631 185.6 90.8126 186.278 91.3468 186.586C91.8809 186.894 92.5591 186.713 92.8675 186.179L95.5683 181.502C95.8767 180.968 95.695 180.29 95.1608 179.981C94.9606 179.866 94.7399 179.819 94.5261 179.834ZM160.474 179.834C160.26 179.818 160.04 179.866 159.84 179.982C159.306 180.29 159.124 180.968 159.432 181.502L162.133 186.179C162.441 186.713 163.12 186.894 163.654 186.586C164.188 186.278 164.37 185.6 164.061 185.066L161.36 180.389C161.168 180.055 160.83 179.859 160.474 179.834ZM115.367 180.002C114.848 179.996 114.384 180.356 114.271 180.884L111.603 193.442C111.475 194.045 111.857 194.634 112.46 194.762C113.064 194.89 113.653 194.507 113.781 193.904L116.449 181.346C116.578 180.743 116.195 180.154 115.592 180.026C115.516 180.01 115.441 180.002 115.367 180.002ZM139.594 180.01C139.52 180.01 139.445 180.017 139.369 180.033C138.766 180.161 138.383 180.749 138.511 181.352L141.17 193.912C141.298 194.516 141.887 194.899 142.49 194.771C143.093 194.643 143.476 194.055 143.349 193.451L140.689 180.892C140.577 180.364 140.112 180.006 139.594 180.01ZM127.5 181.276C126.883 181.276 126.387 181.773 126.387 182.389V195.227C126.387 195.844 126.883 196.34 127.5 196.34C128.117 196.34 128.613 195.844 128.613 195.227V182.389C128.613 181.773 128.117 181.276 127.5 181.276ZM107.064 185.425C106.632 185.461 106.244 185.751 106.101 186.19L104.431 191.326C104.241 191.913 104.559 192.538 105.146 192.729C105.732 192.92 106.358 192.601 106.549 192.014L108.218 186.879C108.409 186.292 108.09 185.667 107.504 185.476C107.357 185.428 107.208 185.413 107.064 185.425ZM147.927 185.427C147.783 185.414 147.634 185.43 147.487 185.478C146.901 185.669 146.582 186.295 146.772 186.881L148.442 192.017C148.632 192.604 149.258 192.922 149.845 192.731C150.431 192.541 150.75 191.916 150.56 191.329L148.89 186.193C148.747 185.753 148.359 185.464 147.927 185.427ZM120.512 188.288C119.996 188.338 119.57 188.743 119.514 189.279L118.949 194.65C118.885 195.264 119.327 195.809 119.94 195.873C120.554 195.938 121.099 195.496 121.164 194.883L121.728 189.512C121.793 188.899 121.351 188.353 120.738 188.289C120.661 188.281 120.586 188.281 120.512 188.288ZM134.443 188.293C134.37 188.285 134.294 188.285 134.217 188.294C133.604 188.358 133.161 188.903 133.225 189.517L133.786 194.888C133.85 195.501 134.396 195.943 135.009 195.879C135.623 195.815 136.065 195.27 136.001 194.656L135.44 189.286C135.384 188.749 134.96 188.343 134.443 188.293Z" fill="#F4F2F3"/>
<g opacity="0.409" filter="url(#filter1_f_80_23)">
<path d="M179.677 79.46L118.768 114.84L80.2567 175.453L136.595 133.733L179.677 79.46Z" fill="black"/>
</g>
<path d="M136.229 133.12L118.771 114.841L180.703 73.189L136.229 133.12Z" fill="#FF5150"/>
<path d="M136.229 133.12L118.771 114.841L74.2969 174.771L136.229 133.12Z" fill="#F1F1F1"/>
<path opacity="0.243" d="M74.2969 174.771L136.229 133.12L180.703 73.189L74.2969 174.771Z" fill="black"/>
</g>
</g>
<defs>
<filter id="filter0_f_80_23" x="38.738" y="44.9754" width="177.532" height="171.579" filterUnits="userSpaceOnUse" color-interpolation-filters="sRGB">
<feFlood flood-opacity="0" result="BackgroundImageFix"/>
<feBlend mode="normal" in="SourceGraphic" in2="BackgroundImageFix" result="shape"/>
<feGaussianBlur stdDeviation="4.47676" result="effect1_foregroundBlur_80_23"/>
</filter>
<filter id="filter1_f_80_23" x="77.7119" y="76.9151" width="104.51" height="101.082" filterUnits="userSpaceOnUse" color-interpolation-filters="sRGB">
<feFlood flood-opacity="0" result="BackgroundImageFix"/>
<feBlend mode="normal" in="SourceGraphic" in2="BackgroundImageFix" result="shape"/>
<feGaussianBlur stdDeviation="1.27242" result="effect1_foregroundBlur_80_23"/>
</filter>
<linearGradient id="paint0_linear_80_23" x1="127.497" y1="206.809" x2="127.497" y2="41.149" gradientUnits="userSpaceOnUse">
<stop stop-color="#BDBDBD"/>
<stop offset="1" stop-color="white"/>
</linearGradient>
<radialGradient id="paint1_radial_80_23" cx="0" cy="0" r="1" gradientUnits="userSpaceOnUse" gradientTransform="translate(127.844 112.849) scale(82.8507 82.8305)">
<stop stop-color="#06C2E7"/>
<stop offset="0.25" stop-color="#0DB8EC"/>
<stop offset="0.5" stop-color="#12AEF1"/>
<stop offset="0.75" stop-color="#1F86F9"/>
<stop offset="1" stop-color="#107DDD"/>
</radialGradient>
<clipPath id="clip0_80_23">
<rect width="256" height="256" fill="white"/>
</clipPath>
<clipPath id="clip1_80_23">
<rect width="175" height="174" fill="white" transform="translate(40 41)"/>
</clipPath>
</defs>
</svg>
