<svg xmlns="http://www.w3.org/2000/svg" xmlns:xlink="http://www.w3.org/1999/xlink" width="256" zoomAndPan="magnify" viewBox="0 0 375 374.999991" height="256" preserveAspectRatio="xMidYMid meet" version="1.0">
<defs>
<clipPath id="2534532f99">
<path d="M 75 0 L 300 0 C 341.421875 0 375 33.578125 375 75 L 375 304.027344 C 375 345.445312 341.421875 379.027344 300 379.027344 L 75 379.027344 C 33.578125 379.027344 0 345.445312 0 304.027344 L 0 75 C 0 33.578125 33.578125 0 75 0 " clip-rule="nonzero"/>
</clipPath>
<clipPath id="ee36c4d718">
<path d="M 8.328125 62 L 366.828125 62 L 366.828125 314 L 8.328125 314 Z M 8.328125 62 " clip-rule="nonzero"/>
</clipPath>
</defs>
<g clip-path="url(#2534532f99)">
<path fill="#242938" d="M 0 0 L 374.414062 0 L 374.414062 379.6875 L 0 379.6875 Z M 0 0 " fill-opacity="1" fill-rule="nonzero"/>
</g>
<g clip-path="url(#ee36c4d718)">
<path fill="#00a1e0" d="M 157.515625 89.480469 C 169.078125 77.433594 185.171875 69.960938 202.976562 69.960938 C 226.640625 69.960938 247.285156 83.160156 258.28125 102.75 C 267.835938 98.480469 278.414062 96.105469 289.542969 96.105469 C 332.222656 96.105469 366.828125 131.007812 366.828125 174.066406 C 366.828125 217.125 332.222656 252.03125 289.542969 252.03125 C 284.417969 252.035156 279.339844 251.527344 274.316406 250.515625 C 264.636719 267.785156 246.183594 279.453125 225.007812 279.453125 C 216.140625 279.453125 207.753906 277.40625 200.289062 273.765625 C 190.472656 296.855469 167.605469 313.042969 140.953125 313.042969 C 113.195312 313.042969 89.542969 295.480469 80.460938 270.851562 C 76.496094 271.691406 72.382812 272.132812 68.164062 272.132812 C 35.117188 272.132812 8.328125 245.066406 8.328125 211.671875 C 8.328125 189.292969 20.363281 169.753906 38.25 159.300781 C 34.566406 150.828125 32.519531 141.480469 32.519531 131.648438 C 32.519531 93.246094 63.695312 62.113281 102.152344 62.113281 C 124.726562 62.113281 144.792969 72.847656 157.515625 89.480469 " fill-opacity="1" fill-rule="nonzero"/>
</g>
<path fill="#ffffff" d="M 60.253906 192.238281 C 60.027344 192.828125 60.335938 192.949219 60.40625 193.050781 C 61.082031 193.542969 61.765625 193.894531 62.453125 194.289062 C 66.109375 196.226562 69.5625 196.792969 73.175781 196.792969 C 80.527344 196.792969 85.09375 192.882812 85.09375 186.585938 L 85.09375 186.464844 C 85.09375 180.640625 79.941406 178.527344 75.105469 177 L 74.476562 176.796875 C 70.832031 175.609375 67.683594 174.589844 67.683594 172.191406 L 67.683594 172.0625 C 67.683594 170.007812 69.523438 168.496094 72.371094 168.496094 C 75.539062 168.496094 79.296875 169.550781 81.71875 170.886719 C 81.71875 170.886719 82.425781 171.347656 82.6875 170.65625 C 82.832031 170.289062 84.058594 166.992188 84.183594 166.632812 C 84.324219 166.246094 84.078125 165.960938 83.828125 165.804688 C 81.0625 164.125 77.246094 162.976562 73.292969 162.976562 L 72.554688 162.980469 C 65.824219 162.980469 61.128906 167.046875 61.128906 172.875 L 61.128906 172.996094 C 61.128906 179.140625 66.3125 181.132812 71.167969 182.519531 L 71.949219 182.761719 C 75.488281 183.847656 78.535156 184.78125 78.535156 187.273438 L 78.535156 187.398438 C 78.535156 189.675781 76.554688 191.371094 73.359375 191.371094 C 72.117188 191.371094 68.160156 191.34375 63.886719 188.644531 C 63.371094 188.34375 63.070312 188.121094 62.671875 187.882812 C 62.460938 187.75 61.933594 187.519531 61.703125 188.214844 Z M 167.910156 192.238281 C 167.6875 192.828125 167.992188 192.949219 168.0625 193.050781 C 168.738281 193.542969 169.421875 193.894531 170.109375 194.289062 C 173.769531 196.226562 177.21875 196.792969 180.832031 196.792969 C 188.183594 196.792969 192.75 192.882812 192.75 186.585938 L 192.75 186.464844 C 192.75 180.640625 187.597656 178.527344 182.761719 177 L 182.132812 176.796875 C 178.488281 175.609375 175.339844 174.589844 175.339844 172.191406 L 175.339844 172.0625 C 175.339844 170.007812 177.179688 168.496094 180.027344 168.496094 C 183.195312 168.496094 186.953125 169.550781 189.375 170.886719 C 189.375 170.886719 190.085938 171.347656 190.34375 170.65625 C 190.488281 170.289062 191.714844 166.992188 191.839844 166.632812 C 191.980469 166.246094 191.734375 165.960938 191.484375 165.804688 C 188.71875 164.125 184.902344 162.976562 180.949219 162.976562 L 180.210938 162.980469 C 173.480469 162.980469 168.785156 167.046875 168.785156 172.875 L 168.785156 172.996094 C 168.785156 179.140625 173.96875 181.132812 178.824219 182.519531 L 179.605469 182.761719 C 183.144531 183.847656 186.199219 184.78125 186.199219 187.273438 L 186.199219 187.398438 C 186.199219 189.675781 184.210938 191.371094 181.015625 191.371094 C 179.773438 191.371094 175.816406 191.34375 171.542969 188.644531 C 171.027344 188.34375 170.71875 188.132812 170.332031 187.882812 C 170.199219 187.796875 169.574219 187.554688 169.359375 188.214844 Z M 241.40625 179.90625 C 241.40625 183.464844 240.742188 186.269531 239.433594 188.25 C 238.140625 190.210938 236.1875 191.164062 233.460938 191.164062 C 230.726562 191.164062 228.78125 190.214844 227.507812 188.25 C 226.222656 186.273438 225.570312 183.464844 225.570312 179.90625 C 225.570312 176.351562 226.222656 173.550781 227.507812 171.589844 C 228.78125 169.652344 230.726562 168.707031 233.460938 168.707031 C 236.1875 168.707031 238.140625 169.652344 239.4375 171.589844 C 240.742188 173.550781 241.40625 176.351562 241.40625 179.90625 M 247.542969 173.308594 C 246.941406 171.269531 246 169.472656 244.75 167.976562 C 243.5 166.472656 241.917969 165.269531 240.035156 164.390625 C 238.160156 163.519531 235.945312 163.074219 233.460938 163.074219 C 230.96875 163.074219 228.75 163.519531 226.875 164.390625 C 224.996094 165.269531 223.414062 166.476562 222.15625 167.976562 C 220.910156 169.476562 219.972656 171.273438 219.363281 173.308594 C 218.765625 175.335938 218.464844 177.550781 218.464844 179.90625 C 218.464844 182.257812 218.765625 184.480469 219.363281 186.503906 C 219.972656 188.535156 220.90625 190.332031 222.164062 191.835938 C 223.414062 193.335938 225.003906 194.535156 226.875 195.390625 C 228.753906 196.242188 230.96875 196.675781 233.460938 196.675781 C 235.945312 196.675781 238.15625 196.242188 240.035156 195.390625 C 241.910156 194.535156 243.5 193.335938 244.75 191.835938 C 246 190.339844 246.941406 188.539062 247.542969 186.503906 C 248.148438 184.476562 248.449219 182.253906 248.449219 179.90625 C 248.449219 177.554688 248.144531 175.335938 247.542969 173.308594 M 297.953125 190.214844 C 297.746094 189.617188 297.171875 189.84375 297.171875 189.84375 C 296.277344 190.183594 295.328125 190.5 294.316406 190.660156 C 293.289062 190.816406 292.160156 190.898438 290.949219 190.898438 C 287.976562 190.898438 285.617188 190.015625 283.929688 188.269531 C 282.234375 186.523438 281.28125 183.699219 281.292969 179.878906 C 281.304688 176.402344 282.140625 173.785156 283.648438 171.796875 C 285.144531 169.8125 287.421875 168.796875 290.460938 168.796875 C 292.992188 168.796875 294.921875 169.089844 296.945312 169.726562 C 296.945312 169.726562 297.429688 169.9375 297.660156 169.304688 C 298.195312 167.8125 298.59375 166.742188 299.167969 165.105469 C 299.332031 164.640625 298.933594 164.441406 298.789062 164.382812 C 297.992188 164.074219 296.113281 163.566406 294.691406 163.351562 C 293.367188 163.148438 291.8125 163.042969 290.085938 163.042969 C 287.507812 163.042969 285.210938 163.480469 283.242188 164.359375 C 281.28125 165.234375 279.617188 166.4375 278.300781 167.941406 C 276.984375 169.441406 275.980469 171.238281 275.3125 173.269531 C 274.648438 175.296875 274.3125 177.523438 274.3125 179.878906 C 274.3125 184.96875 275.6875 189.085938 278.398438 192.101562 C 281.113281 195.121094 285.195312 196.660156 290.515625 196.660156 C 293.660156 196.660156 296.890625 196.023438 299.207031 195.109375 C 299.207031 195.109375 299.652344 194.894531 299.457031 194.378906 Z M 308.691406 176.496094 C 308.984375 174.519531 309.53125 172.875 310.371094 171.59375 C 311.644531 169.648438 313.585938 168.578125 316.3125 168.578125 C 319.039062 168.578125 320.839844 169.652344 322.132812 171.59375 C 322.992188 172.875 323.363281 174.589844 323.511719 176.496094 Z M 329.359375 172.148438 C 328.839844 170.183594 327.546875 168.195312 326.699219 167.289062 C 325.359375 165.847656 324.054688 164.839844 322.757812 164.28125 C 321.0625 163.554688 319.027344 163.074219 316.800781 163.074219 C 314.207031 163.074219 311.851562 163.507812 309.941406 164.40625 C 308.027344 165.304688 306.417969 166.53125 305.15625 168.058594 C 303.894531 169.582031 302.945312 171.394531 302.34375 173.453125 C 301.738281 175.5 301.429688 177.730469 301.429688 180.085938 C 301.429688 182.480469 301.746094 184.710938 302.375 186.71875 C 303.007812 188.742188 304.019531 190.523438 305.386719 192 C 306.75 193.484375 308.507812 194.648438 310.613281 195.460938 C 312.699219 196.269531 315.238281 196.6875 318.15625 196.683594 C 324.15625 196.660156 327.316406 195.324219 328.617188 194.601562 C 328.847656 194.476562 329.070312 194.25 328.792969 193.609375 L 327.433594 189.804688 C 327.230469 189.234375 326.652344 189.445312 326.652344 189.445312 C 325.167969 189.996094 323.050781 190.988281 318.125 190.976562 C 314.902344 190.972656 312.511719 190.023438 311.015625 188.535156 C 309.476562 187.015625 308.726562 184.777344 308.59375 181.621094 L 329.375 181.640625 C 329.375 181.640625 329.921875 181.632812 329.976562 181.101562 C 329.996094 180.878906 330.691406 176.832031 329.359375 172.148438 M 142.277344 176.496094 C 142.574219 174.519531 143.113281 172.875 143.957031 171.59375 C 145.226562 169.648438 147.167969 168.578125 149.894531 168.578125 C 152.621094 168.578125 154.425781 169.652344 155.722656 171.59375 C 156.574219 172.875 156.949219 174.589844 157.097656 176.496094 Z M 162.9375 172.148438 C 162.417969 170.183594 161.128906 168.195312 160.285156 167.289062 C 158.945312 165.847656 157.636719 164.839844 156.339844 164.28125 C 154.644531 163.554688 152.613281 163.074219 150.386719 163.074219 C 147.796875 163.074219 145.4375 163.507812 143.527344 164.40625 C 141.613281 165.304688 140.003906 166.53125 138.742188 168.058594 C 137.480469 169.582031 136.53125 171.394531 135.929688 173.453125 C 135.328125 175.5 135.015625 177.730469 135.015625 180.085938 C 135.015625 182.480469 135.332031 184.710938 135.960938 186.71875 C 136.59375 188.742188 137.605469 190.523438 138.972656 192 C 140.335938 193.484375 142.09375 194.648438 144.195312 195.460938 C 146.285156 196.269531 148.824219 196.6875 151.738281 196.683594 C 157.742188 196.660156 160.902344 195.324219 162.203125 194.601562 C 162.433594 194.476562 162.652344 194.25 162.378906 193.609375 L 161.023438 189.804688 C 160.816406 189.234375 160.238281 189.445312 160.238281 189.445312 C 158.753906 189.996094 156.644531 190.988281 151.703125 190.976562 C 148.488281 190.972656 146.097656 190.023438 144.601562 188.535156 C 143.0625 187.015625 142.3125 184.777344 142.179688 181.621094 L 162.960938 181.640625 C 162.960938 181.640625 163.503906 181.632812 163.5625 181.101562 C 163.582031 180.878906 164.277344 176.832031 162.9375 172.148438 M 97.359375 190.101562 C 96.550781 189.453125 96.4375 189.289062 96.160156 188.871094 C 95.753906 188.230469 95.542969 187.324219 95.542969 186.167969 C 95.542969 184.339844 96.144531 183.027344 97.398438 182.144531 C 97.382812 182.148438 99.183594 180.585938 103.421875 180.644531 C 106.398438 180.683594 109.0625 181.125 109.0625 181.125 L 109.0625 190.570312 L 109.066406 190.570312 C 109.066406 190.570312 106.425781 191.136719 103.453125 191.316406 C 99.226562 191.570312 97.347656 190.097656 97.359375 190.101562 M 105.628906 175.5 C 104.785156 175.441406 103.691406 175.402344 102.386719 175.402344 C 100.605469 175.402344 98.882812 175.628906 97.269531 176.0625 C 95.644531 176.496094 94.183594 177.175781 92.929688 178.074219 C 91.65625 178.980469 90.652344 180.125 89.914062 181.5 C 89.179688 182.871094 88.808594 184.484375 88.808594 186.292969 C 88.808594 188.128906 89.125 189.726562 89.757812 191.035156 C 90.390625 192.347656 91.304688 193.441406 92.46875 194.285156 C 93.621094 195.125 95.046875 195.746094 96.703125 196.117188 C 98.332031 196.488281 100.179688 196.679688 102.203125 196.679688 C 104.332031 196.679688 106.457031 196.503906 108.515625 196.152344 C 110.550781 195.804688 113.054688 195.300781 113.75 195.140625 C 114.234375 195.023438 114.71875 194.898438 115.203125 194.769531 C 115.71875 194.640625 115.679688 194.089844 115.679688 194.089844 L 115.667969 175.085938 C 115.667969 170.917969 114.554688 167.828125 112.363281 165.914062 C 110.183594 164.003906 106.972656 163.039062 102.820312 163.039062 C 101.261719 163.039062 98.753906 163.253906 97.253906 163.554688 C 97.253906 163.554688 92.714844 164.433594 90.84375 165.894531 C 90.84375 165.894531 90.4375 166.148438 90.660156 166.722656 L 92.132812 170.675781 C 92.316406 171.1875 92.8125 171.011719 92.8125 171.011719 C 92.8125 171.011719 92.96875 170.949219 93.152344 170.84375 C 97.152344 168.667969 102.207031 168.734375 102.207031 168.734375 C 104.453125 168.734375 106.179688 169.183594 107.34375 170.078125 C 108.480469 170.945312 109.054688 172.257812 109.054688 175.027344 L 109.054688 175.902344 C 107.269531 175.648438 105.628906 175.5 105.628906 175.5 M 273.226562 164.792969 C 273.382812 164.324219 273.054688 164.097656 272.914062 164.046875 C 272.5625 163.910156 270.796875 163.539062 269.433594 163.449219 C 266.824219 163.292969 265.371094 163.730469 264.074219 164.3125 C 262.789062 164.894531 261.359375 165.835938 260.5625 166.902344 L 260.5625 164.375 C 260.5625 164.023438 260.3125 163.742188 259.964844 163.742188 L 254.636719 163.742188 C 254.289062 163.742188 254.039062 164.023438 254.039062 164.375 L 254.039062 195.367188 C 254.039062 195.714844 254.324219 196 254.671875 196 L 260.132812 196 C 260.304688 196 260.453125 195.9375 260.578125 195.816406 C 260.699219 195.691406 260.761719 195.542969 260.761719 195.367188 L 260.761719 179.886719 C 260.761719 177.804688 260.992188 175.734375 261.449219 174.429688 C 261.898438 173.144531 262.511719 172.113281 263.269531 171.371094 C 264.027344 170.636719 264.890625 170.121094 265.835938 169.828125 C 266.800781 169.53125 267.867188 169.4375 268.625 169.4375 C 269.714844 169.4375 270.90625 169.71875 270.90625 169.71875 C 271.304688 169.761719 271.53125 169.519531 271.664062 169.15625 C 272.019531 168.207031 273.03125 165.359375 273.226562 164.792969 " fill-opacity="1" fill-rule="nonzero"/>
<path fill="#ffffff" d="M 221.984375 150.429688 C 221.320312 150.226562 220.71875 150.085938 219.929688 149.941406 C 219.132812 149.796875 218.183594 149.726562 217.105469 149.726562 C 213.347656 149.726562 210.386719 150.785156 208.308594 152.878906 C 206.238281 154.964844 204.835938 158.136719 204.128906 162.308594 L 203.875 163.710938 L 199.15625 163.710938 C 199.15625 163.710938 198.582031 163.691406 198.460938 164.316406 L 197.691406 168.640625 C 197.632812 169.050781 197.8125 169.308594 198.363281 169.308594 L 202.957031 169.308594 L 198.296875 195.3125 C 197.933594 197.40625 197.515625 199.128906 197.050781 200.4375 C 196.597656 201.722656 196.152344 202.6875 195.601562 203.390625 C 195.070312 204.066406 194.570312 204.566406 193.699219 204.859375 C 192.984375 205.097656 192.160156 205.210938 191.253906 205.210938 C 190.753906 205.210938 190.085938 205.128906 189.589844 205.027344 C 189.101562 204.929688 188.839844 204.824219 188.464844 204.664062 C 188.464844 204.664062 187.929688 204.460938 187.714844 204.996094 C 187.546875 205.441406 186.320312 208.804688 186.171875 209.21875 C 186.03125 209.632812 186.234375 209.953125 186.496094 210.050781 C 187.109375 210.265625 187.5625 210.410156 188.394531 210.609375 C 189.550781 210.878906 190.523438 210.894531 191.4375 210.894531 C 193.347656 210.894531 195.09375 210.625 196.539062 210.101562 C 197.992188 209.578125 199.257812 208.664062 200.378906 207.425781 C 201.589844 206.089844 202.351562 204.691406 203.078125 202.773438 C 203.796875 200.886719 204.414062 198.535156 204.90625 195.796875 L 209.589844 169.308594 L 216.429688 169.308594 C 216.429688 169.308594 217.007812 169.328125 217.125 168.703125 L 217.902344 164.382812 C 217.953125 163.96875 217.78125 163.710938 217.222656 163.710938 L 210.578125 163.710938 C 210.613281 163.566406 210.914062 161.226562 211.675781 159.023438 C 212.003906 158.089844 212.617188 157.328125 213.132812 156.808594 C 213.644531 156.296875 214.230469 155.933594 214.875 155.726562 C 215.53125 155.511719 216.285156 155.410156 217.105469 155.410156 C 217.730469 155.410156 218.347656 155.480469 218.8125 155.578125 C 219.453125 155.714844 219.703125 155.785156 219.875 155.839844 C 220.554688 156.042969 220.644531 155.84375 220.777344 155.515625 L 222.367188 151.15625 C 222.53125 150.683594 222.125 150.484375 221.984375 150.429688 M 129.152344 195.371094 C 129.152344 195.71875 128.902344 196 128.554688 196 L 123.046875 196 C 122.699219 196 122.453125 195.71875 122.453125 195.371094 L 122.453125 151.023438 C 122.453125 150.675781 122.699219 150.394531 123.046875 150.394531 L 128.554688 150.394531 C 128.902344 150.394531 129.152344 150.675781 129.152344 151.023438 Z M 129.152344 195.371094 " fill-opacity="1" fill-rule="nonzero"/>
</svg>