<svg xmlns="http://www.w3.org/2000/svg" xmlns:xlink="http://www.w3.org/1999/xlink" width="256" zoomAndPan="magnify" viewBox="0 0 375 374.999991" height="256" preserveAspectRatio="xMidYMid meet" version="1.0">
<defs>
<clipPath id="2546aa2061">
<path d="M 75 0 L 300 0 C 341.421875 0 375 33.578125 375 75 L 375 304.027344 C 375 345.445312 341.421875 379.027344 300 379.027344 L 75 379.027344 C 33.578125 379.027344 0 345.445312 0 304.027344 L 0 75 C 0 33.578125 33.578125 0 75 0 " clip-rule="nonzero"/>
</clipPath>
<clipPath id="72b42fb000">
<path d="M 10.75 63 L 364 63 L 364 311 L 10.75 311 Z M 10.75 63 " clip-rule="nonzero"/>
</clipPath>
</defs>
<g clip-path="url(#2546aa2061)">
<path fill="#f4f2ec" d="M 0 0 L 374.414062 0 L 374.414062 379.6875 L 0 379.6875 Z M 0 0 " fill-opacity="1" fill-rule="nonzero"/>
</g>
<g clip-path="url(#72b42fb000)">
<path fill="#00a1e0" d="M 157.75 90.714844 C 169.144531 78.84375 185.003906 71.480469 202.546875 71.480469 C 225.867188 71.480469 246.210938 84.484375 257.042969 103.789062 C 266.460938 99.582031 276.878906 97.242188 287.84375 97.242188 C 329.902344 97.242188 364 131.636719 364 174.058594 C 364 216.488281 329.902344 250.882812 287.84375 250.882812 C 282.796875 250.886719 277.792969 250.390625 272.84375 249.390625 C 263.304688 266.40625 245.121094 277.90625 224.253906 277.90625 C 215.519531 277.90625 207.257812 275.886719 199.898438 272.300781 C 190.226562 295.050781 167.695312 311 141.433594 311 C 114.082031 311 90.773438 293.695312 81.828125 269.425781 C 77.917969 270.257812 73.867188 270.691406 69.710938 270.691406 C 37.148438 270.691406 10.75 244.019531 10.75 211.117188 C 10.75 189.066406 22.609375 169.8125 40.234375 159.511719 C 36.605469 151.164062 34.585938 141.949219 34.585938 132.265625 C 34.585938 94.421875 65.308594 63.746094 103.199219 63.746094 C 125.445312 63.746094 145.214844 74.324219 157.75 90.714844 " fill-opacity="1" fill-rule="nonzero"/>
</g>
<path fill="#ffffff" d="M 61.914062 191.96875 C 61.695312 192.546875 61.996094 192.667969 62.066406 192.769531 C 62.730469 193.25 63.40625 193.597656 64.085938 193.984375 C 67.6875 195.898438 71.089844 196.457031 74.648438 196.457031 C 81.890625 196.457031 86.390625 192.601562 86.390625 186.398438 L 86.390625 186.277344 C 86.390625 180.539062 81.3125 178.457031 76.546875 176.953125 L 75.929688 176.75 C 72.335938 175.582031 69.238281 174.578125 69.238281 172.210938 L 69.238281 172.085938 C 69.238281 170.0625 71.046875 168.574219 73.855469 168.574219 C 76.976562 168.574219 80.679688 169.609375 83.066406 170.929688 C 83.066406 170.929688 83.765625 171.382812 84.019531 170.703125 C 84.160156 170.339844 85.371094 167.089844 85.496094 166.738281 C 85.632812 166.355469 85.390625 166.074219 85.144531 165.921875 C 82.421875 164.265625 78.65625 163.132812 74.761719 163.132812 L 74.039062 163.140625 C 67.40625 163.140625 62.777344 167.144531 62.777344 172.886719 L 62.777344 173.007812 C 62.777344 179.058594 67.882812 181.023438 72.667969 182.390625 L 73.4375 182.628906 C 76.925781 183.699219 79.929688 184.621094 79.929688 187.078125 L 79.929688 187.199219 C 79.929688 189.441406 77.980469 191.113281 74.828125 191.113281 C 73.605469 191.113281 69.707031 191.085938 65.492188 188.425781 C 64.984375 188.128906 64.6875 187.910156 64.296875 187.675781 C 64.089844 187.542969 63.570312 187.316406 63.34375 188.003906 Z M 167.996094 191.96875 C 167.773438 192.546875 168.074219 192.667969 168.144531 192.769531 C 168.808594 193.25 169.484375 193.597656 170.164062 193.984375 C 173.765625 195.898438 177.167969 196.457031 180.726562 196.457031 C 187.972656 196.457031 192.472656 192.601562 192.472656 186.398438 L 192.472656 186.277344 C 192.472656 180.539062 187.394531 178.457031 182.628906 176.953125 L 182.007812 176.75 C 178.417969 175.582031 175.316406 174.578125 175.316406 172.210938 L 175.316406 172.085938 C 175.316406 170.0625 177.128906 168.574219 179.9375 168.574219 C 183.054688 168.574219 186.757812 169.609375 189.144531 170.929688 C 189.144531 170.929688 189.84375 171.382812 190.101562 170.703125 C 190.242188 170.339844 191.449219 167.089844 191.574219 166.738281 C 191.710938 166.355469 191.46875 166.074219 191.222656 165.921875 C 188.5 164.265625 184.738281 163.132812 180.84375 163.132812 L 180.117188 163.140625 C 173.484375 163.140625 168.855469 167.144531 168.855469 172.886719 L 168.855469 173.007812 C 168.855469 179.058594 173.964844 181.023438 178.75 182.390625 L 179.519531 182.628906 C 183.007812 183.699219 186.015625 184.621094 186.015625 187.078125 L 186.015625 187.199219 C 186.015625 189.441406 184.058594 191.113281 180.90625 191.113281 C 179.683594 191.113281 175.785156 191.085938 171.574219 188.425781 C 171.066406 188.128906 170.761719 187.921875 170.382812 187.675781 C 170.25 187.589844 169.636719 187.351562 169.425781 188.003906 Z M 240.414062 179.816406 C 240.414062 183.320312 239.757812 186.085938 238.472656 188.035156 C 237.199219 189.96875 235.269531 190.910156 232.585938 190.910156 C 229.890625 190.910156 227.976562 189.972656 226.722656 188.035156 C 225.453125 186.089844 224.808594 183.320312 224.808594 179.816406 C 224.808594 176.3125 225.453125 173.554688 226.722656 171.621094 C 227.976562 169.710938 229.890625 168.78125 232.585938 168.78125 C 235.269531 168.78125 237.199219 169.710938 238.476562 171.621094 C 239.761719 173.554688 240.414062 176.3125 240.414062 179.816406 M 246.460938 173.3125 C 245.867188 171.304688 244.941406 169.535156 243.710938 168.058594 C 242.476562 166.582031 240.917969 165.394531 239.066406 164.527344 C 237.21875 163.667969 235.035156 163.230469 232.585938 163.230469 C 230.128906 163.230469 227.945312 163.667969 226.097656 164.527344 C 224.246094 165.394531 222.6875 166.582031 221.449219 168.058594 C 220.21875 169.539062 219.292969 171.308594 218.695312 173.3125 C 218.105469 175.3125 217.808594 177.496094 217.808594 179.816406 C 217.808594 182.132812 218.105469 184.324219 218.695312 186.316406 C 219.292969 188.320312 220.214844 190.089844 221.453125 191.570312 C 222.6875 193.050781 224.25 194.230469 226.097656 195.070312 C 227.949219 195.910156 230.128906 196.339844 232.585938 196.339844 C 235.035156 196.339844 237.214844 195.910156 239.066406 195.070312 C 240.914062 194.230469 242.476562 193.046875 243.710938 191.570312 C 244.941406 190.09375 245.867188 188.324219 246.460938 186.316406 C 247.058594 184.320312 247.355469 182.128906 247.355469 179.816406 C 247.355469 177.5 247.054688 175.3125 246.460938 173.3125 M 296.132812 189.972656 C 295.929688 189.386719 295.363281 189.605469 295.363281 189.605469 C 294.480469 189.945312 293.546875 190.253906 292.550781 190.410156 C 291.539062 190.566406 290.425781 190.648438 289.234375 190.648438 C 286.304688 190.648438 283.980469 189.777344 282.3125 188.054688 C 280.644531 186.335938 279.707031 183.554688 279.71875 179.789062 C 279.726562 176.363281 280.550781 173.785156 282.039062 171.824219 C 283.511719 169.871094 285.757812 168.867188 288.75 168.867188 C 291.246094 168.867188 293.148438 169.15625 295.140625 169.785156 C 295.140625 169.785156 295.617188 169.992188 295.84375 169.367188 C 296.375 167.898438 296.765625 166.847656 297.328125 165.230469 C 297.492188 164.773438 297.097656 164.578125 296.957031 164.519531 C 296.171875 164.214844 294.320312 163.714844 292.921875 163.503906 C 291.613281 163.304688 290.082031 163.199219 288.382812 163.199219 C 285.839844 163.199219 283.578125 163.628906 281.640625 164.496094 C 279.707031 165.355469 278.066406 166.542969 276.769531 168.023438 C 275.46875 169.503906 274.484375 171.273438 273.824219 173.277344 C 273.171875 175.273438 272.839844 177.46875 272.839844 179.789062 C 272.839844 184.804688 274.191406 188.859375 276.863281 191.832031 C 279.542969 194.808594 283.5625 196.324219 288.804688 196.324219 C 291.90625 196.324219 295.085938 195.695312 297.371094 194.792969 C 297.371094 194.792969 297.808594 194.582031 297.617188 194.074219 Z M 306.714844 176.453125 C 307 174.507812 307.539062 172.886719 308.371094 171.625 C 309.625 169.707031 311.535156 168.65625 314.222656 168.65625 C 316.910156 168.65625 318.6875 169.710938 319.960938 171.625 C 320.804688 172.886719 321.171875 174.578125 321.320312 176.453125 Z M 327.078125 172.171875 C 326.566406 170.234375 325.292969 168.277344 324.457031 167.382812 C 323.140625 165.960938 321.851562 164.972656 320.574219 164.417969 C 318.902344 163.703125 316.898438 163.230469 314.707031 163.230469 C 312.148438 163.230469 309.828125 163.65625 307.949219 164.542969 C 306.0625 165.429688 304.476562 166.636719 303.234375 168.140625 C 301.988281 169.640625 301.054688 171.425781 300.460938 173.457031 C 299.863281 175.472656 299.558594 177.671875 299.558594 179.992188 C 299.558594 182.351562 299.871094 184.550781 300.492188 186.527344 C 301.113281 188.519531 302.109375 190.277344 303.460938 191.730469 C 304.804688 193.195312 306.535156 194.34375 308.605469 195.144531 C 310.664062 195.9375 313.167969 196.351562 316.039062 196.34375 C 321.953125 196.324219 325.066406 195.007812 326.351562 194.296875 C 326.578125 194.171875 326.792969 193.949219 326.519531 193.316406 L 325.183594 189.566406 C 324.980469 189.007812 324.414062 189.214844 324.414062 189.214844 C 322.949219 189.757812 320.867188 190.734375 316.007812 190.726562 C 312.835938 190.71875 310.480469 189.785156 309.003906 188.320312 C 307.488281 186.820312 306.75 184.617188 306.621094 181.507812 L 327.09375 181.527344 C 327.09375 181.527344 327.632812 181.515625 327.6875 180.992188 C 327.707031 180.773438 328.394531 176.785156 327.078125 172.171875 M 142.738281 176.453125 C 143.027344 174.507812 143.5625 172.886719 144.390625 171.625 C 145.644531 169.707031 147.558594 168.65625 150.246094 168.65625 C 152.929688 168.65625 154.707031 169.710938 155.984375 171.625 C 156.824219 172.886719 157.195312 174.578125 157.339844 176.453125 Z M 163.097656 172.171875 C 162.582031 170.234375 161.316406 168.277344 160.480469 167.382812 C 159.160156 165.960938 157.875 164.972656 156.59375 164.417969 C 154.925781 163.703125 152.921875 163.230469 150.726562 163.230469 C 148.175781 163.230469 145.851562 163.65625 143.96875 164.542969 C 142.082031 165.429688 140.496094 166.636719 139.253906 168.140625 C 138.011719 169.640625 137.074219 171.425781 136.480469 173.457031 C 135.886719 175.472656 135.582031 177.671875 135.582031 179.992188 C 135.582031 182.351562 135.894531 184.550781 136.511719 186.527344 C 137.136719 188.519531 138.132812 190.277344 139.480469 191.730469 C 140.824219 193.195312 142.554688 194.34375 144.628906 195.144531 C 146.6875 195.9375 149.1875 196.351562 152.0625 196.34375 C 157.972656 196.324219 161.089844 195.007812 162.371094 194.296875 C 162.597656 194.171875 162.816406 193.949219 162.542969 193.316406 L 161.210938 189.566406 C 161.003906 189.007812 160.433594 189.214844 160.433594 189.214844 C 158.972656 189.757812 156.894531 190.734375 152.027344 190.726562 C 148.855469 190.71875 146.5 189.785156 145.027344 188.320312 C 143.511719 186.820312 142.773438 184.617188 142.640625 181.507812 L 163.117188 181.527344 C 163.117188 181.527344 163.65625 181.515625 163.710938 180.992188 C 163.730469 180.773438 164.414062 176.785156 163.097656 172.171875 M 98.480469 189.863281 C 97.679688 189.222656 97.570312 189.0625 97.296875 188.648438 C 96.894531 188.019531 96.6875 187.125 96.6875 185.988281 C 96.6875 184.183594 97.28125 182.890625 98.515625 182.019531 C 98.5 182.027344 100.277344 180.488281 104.453125 180.542969 C 107.386719 180.582031 110.007812 181.015625 110.007812 181.015625 L 110.007812 190.324219 L 110.011719 190.324219 C 110.011719 190.324219 107.410156 190.882812 104.484375 191.058594 C 100.316406 191.3125 98.464844 189.855469 98.480469 189.863281 M 106.625 175.476562 C 105.796875 175.414062 104.71875 175.378906 103.429688 175.378906 C 101.675781 175.378906 99.980469 175.601562 98.386719 176.027344 C 96.789062 176.457031 95.347656 177.125 94.113281 178.011719 C 92.859375 178.90625 91.867188 180.03125 91.140625 181.386719 C 90.417969 182.734375 90.050781 184.324219 90.050781 186.105469 C 90.050781 187.917969 90.363281 189.492188 90.988281 190.78125 C 91.609375 192.074219 92.511719 193.152344 93.660156 193.984375 C 94.796875 194.8125 96.199219 195.421875 97.828125 195.789062 C 99.433594 196.15625 101.257812 196.34375 103.25 196.34375 C 105.347656 196.34375 107.441406 196.171875 109.46875 195.824219 C 111.476562 195.480469 113.941406 194.984375 114.625 194.828125 C 115.105469 194.710938 115.585938 194.589844 116.0625 194.460938 C 116.570312 194.335938 116.527344 193.792969 116.527344 193.792969 L 116.519531 175.066406 C 116.519531 170.960938 115.421875 167.917969 113.261719 166.03125 C 111.113281 164.148438 107.949219 163.195312 103.859375 163.195312 C 102.324219 163.195312 99.851562 163.40625 98.375 163.703125 C 98.375 163.703125 93.898438 164.570312 92.058594 166.007812 C 92.058594 166.007812 91.65625 166.261719 91.875 166.824219 L 93.328125 170.71875 C 93.507812 171.222656 93.996094 171.050781 93.996094 171.050781 C 93.996094 171.050781 94.152344 170.992188 94.332031 170.886719 C 98.273438 168.742188 103.253906 168.808594 103.253906 168.808594 C 105.46875 168.808594 107.167969 169.25 108.316406 170.128906 C 109.433594 170.984375 110.003906 172.277344 110.003906 175.007812 L 110.003906 175.871094 C 108.242188 175.621094 106.625 175.476562 106.625 175.476562 M 271.769531 164.925781 C 271.925781 164.460938 271.597656 164.238281 271.460938 164.191406 C 271.113281 164.054688 269.375 163.6875 268.03125 163.601562 C 265.460938 163.445312 264.03125 163.878906 262.75 164.453125 C 261.484375 165.023438 260.074219 165.949219 259.289062 167.003906 L 259.289062 164.511719 C 259.289062 164.164062 259.042969 163.886719 258.699219 163.886719 L 253.453125 163.886719 C 253.109375 163.886719 252.863281 164.164062 252.863281 164.511719 L 252.863281 195.050781 C 252.863281 195.394531 253.144531 195.675781 253.488281 195.675781 L 258.867188 195.675781 C 259.039062 195.675781 259.183594 195.613281 259.304688 195.492188 C 259.425781 195.371094 259.484375 195.222656 259.484375 195.050781 L 259.484375 179.792969 C 259.484375 177.746094 259.710938 175.703125 260.164062 174.421875 C 260.609375 173.152344 261.210938 172.136719 261.957031 171.40625 C 262.707031 170.679688 263.558594 170.171875 264.488281 169.886719 C 265.4375 169.59375 266.492188 169.5 267.234375 169.5 C 268.308594 169.5 269.484375 169.777344 269.484375 169.777344 C 269.875 169.820312 270.097656 169.578125 270.230469 169.222656 C 270.582031 168.285156 271.578125 165.484375 271.769531 164.925781 " fill-opacity="1" fill-rule="nonzero"/>
<path fill="#ffffff" d="M 221.277344 150.769531 C 220.621094 150.570312 220.027344 150.433594 219.253906 150.289062 C 218.46875 150.148438 217.53125 150.074219 216.472656 150.074219 C 212.765625 150.074219 209.847656 151.121094 207.800781 153.1875 C 205.761719 155.238281 204.378906 158.363281 203.683594 162.476562 L 203.433594 163.859375 L 198.78125 163.859375 C 198.78125 163.859375 198.21875 163.839844 198.097656 164.453125 L 197.339844 168.714844 C 197.285156 169.117188 197.460938 169.375 198.003906 169.375 L 202.527344 169.375 L 197.9375 194.996094 C 197.578125 197.058594 197.167969 198.757812 196.710938 200.042969 C 196.261719 201.3125 195.824219 202.261719 195.28125 202.957031 C 194.757812 203.621094 194.265625 204.117188 193.40625 204.402344 C 192.703125 204.636719 191.890625 204.75 190.996094 204.75 C 190.503906 204.75 189.847656 204.667969 189.359375 204.566406 C 188.875 204.472656 188.617188 204.367188 188.25 204.210938 C 188.25 204.210938 187.722656 204.007812 187.511719 204.539062 C 187.34375 204.976562 186.136719 208.292969 185.992188 208.699219 C 185.851562 209.105469 186.050781 209.425781 186.308594 209.519531 C 186.910156 209.730469 187.359375 209.871094 188.179688 210.066406 C 189.316406 210.335938 190.277344 210.351562 191.179688 210.351562 C 193.058594 210.351562 194.78125 210.082031 196.207031 209.570312 C 197.636719 209.050781 198.882812 208.152344 199.988281 206.933594 C 201.183594 205.613281 201.933594 204.234375 202.648438 202.347656 C 203.355469 200.488281 203.964844 198.171875 204.449219 195.476562 L 209.0625 169.375 L 215.804688 169.375 C 215.804688 169.375 216.375 169.394531 216.492188 168.777344 L 217.253906 164.519531 C 217.304688 164.109375 217.132812 163.859375 216.585938 163.859375 L 210.039062 163.859375 C 210.074219 163.714844 210.371094 161.410156 211.121094 159.238281 C 211.441406 158.320312 212.046875 157.570312 212.554688 157.054688 C 213.058594 156.554688 213.636719 156.195312 214.269531 155.988281 C 214.921875 155.777344 215.660156 155.675781 216.46875 155.675781 C 217.085938 155.675781 217.691406 155.746094 218.152344 155.84375 C 218.785156 155.980469 219.03125 156.050781 219.199219 156.101562 C 219.867188 156.300781 219.957031 156.105469 220.089844 155.785156 L 221.652344 151.484375 C 221.816406 151.023438 221.417969 150.824219 221.277344 150.769531 M 129.804688 195.054688 C 129.804688 195.394531 129.558594 195.671875 129.21875 195.671875 L 123.789062 195.671875 C 123.445312 195.671875 123.203125 195.394531 123.203125 195.054688 L 123.203125 151.355469 C 123.203125 151.011719 123.445312 150.734375 123.789062 150.734375 L 129.21875 150.734375 C 129.558594 150.734375 129.804688 151.011719 129.804688 151.355469 Z M 129.804688 195.054688 " fill-opacity="1" fill-rule="nonzero"/>
</svg>