<svg width="256" height="256" viewBox="0 0 256 256" fill="none" xmlns="http://www.w3.org/2000/svg">
<rect width="256" height="256" rx="60" fill="#F4F2ED"/>
<path fill-rule="evenodd" clip-rule="evenodd" d="M65.1865 102.421C66.931 104.826 81.6417 109.362 103.585 114.086C125.529 118.292 148.349 134.898 166.096 129.778C178.101 126.307 191.124 95.3865 191.124 90.7941V90.3226C191.124 87.1165 188.719 84.5421 184.636 82.4015C167.898 73.8485 164.729 70.6989 158.524 72.4057C126.311 81.2982 69.4394 76.7529 65.1865 102.421Z" fill="#380D09"/>
<path fill-rule="evenodd" clip-rule="evenodd" d="M65.1865 165.206C66.931 167.648 81.6417 172.146 103.585 176.88C128.103 181.35 149.424 195.919 167.181 190.789C179.185 187.319 191.124 158.181 191.124 153.579V153.126C191.124 149.929 188.719 147.346 184.636 145.214C171.868 138.425 154.997 130.947 148.802 132.654C116.533 141.527 73.4 143.479 65.1865 165.206Z" fill="#380D09"/>
<path fill-rule="evenodd" clip-rule="evenodd" d="M65.0073 115.916V116.368C64.9976 116.217 64.9976 116.066 65.0073 115.916V115.916Z" fill="#555555"/>
<path fill-rule="evenodd" clip-rule="evenodd" d="M167.134 40.1364C137.467 48.7082 90.4021 53.5458 65.045 53.5458V101.969C65.053 102.135 65.1161 102.294 65.2242 102.421C82.5281 102.421 135.949 96.7633 168.18 87.8991C173.802 86.4684 179.313 84.6374 184.673 82.4203C188.615 80.6475 191.161 78.7803 191.161 76.8378V28C191.124 32.6018 179.138 36.6756 167.134 40.1364V40.1364Z" fill="#DE3423"/>
<path fill-rule="evenodd" clip-rule="evenodd" d="M167.134 102.931C149.377 108.051 125.416 111.861 103.585 114.086C88.9311 115.586 75.2388 116.368 65.045 116.368V164.753C65.053 164.92 65.1161 165.079 65.2242 165.206C82.5281 165.206 135.949 159.548 168.18 150.693C173.8 149.258 179.312 147.428 184.673 145.214C188.615 143.432 191.161 141.575 191.161 139.632V90.7942C191.124 95.3866 179.138 99.4603 167.134 102.931V102.931Z" fill="#DE3423"/>
<path fill-rule="evenodd" clip-rule="evenodd" d="M167.134 165.762C149.377 170.883 125.416 174.683 103.585 176.918C88.9122 178.417 75.201 179.2 65.0073 179.2V228C82.1321 228 135.826 222.389 168.143 213.487C180.053 210.206 191.124 206.471 191.124 202.416V153.579C191.124 158.218 179.138 162.254 167.134 165.762V165.762Z" fill="#DE3423"/>
</svg>
