<svg width="256" height="256" viewBox="0 0 256 256" fill="none" xmlns="http://www.w3.org/2000/svg">
<g clip-path="url(#clip0_219_160)">
<path d="M196 0H60C26.8629 0 0 26.8629 0 60V196C0 229.137 26.8629 256 60 256H196C229.137 256 256 229.137 256 196V60C256 26.8629 229.137 0 196 0Z" fill="#242938"/>
<path d="M181.405 165.654C205.831 141.23 209.89 105.69 190.472 86.2731C171.056 66.8579 135.518 70.9168 111.093 95.3398C86.6688 119.764 93.7343 166.426 102.028 174.721C108.73 181.423 156.982 190.077 181.405 165.654Z" fill="#F89939"/>
<path d="M81.1814 130.362C67.0115 116.192 46.3899 113.833 35.1213 125.1C23.8556 136.367 26.211 156.991 40.3838 171.159C54.5566 185.333 81.6322 181.233 86.4411 176.42C90.3326 172.535 95.3557 144.533 81.1814 130.362Z" fill="#3499CD"/>
<path d="M130.073 159.668C127.57 161.972 125.374 163.673 123.487 164.765C121.599 165.861 119.799 166.409 118.086 166.409C116.116 166.409 114.527 165.645 113.321 164.117C112.114 162.587 111.513 160.536 111.513 157.956C111.513 154.089 112.351 149.448 114.027 144.036C115.7 138.62 117.737 133.629 120.13 129.063L127.147 126.466C127.367 126.392 127.534 126.355 127.645 126.355C128.177 126.355 128.617 126.747 128.955 127.528C129.296 128.313 129.467 129.367 129.467 130.693C129.467 134.449 128.603 138.086 126.87 141.603C125.137 145.122 122.431 148.877 118.749 152.873C118.601 154.789 118.528 156.104 118.528 156.823C118.528 158.427 118.822 159.695 119.411 160.635C120.001 161.576 120.783 162.043 121.759 162.043C122.755 162.043 123.813 161.687 124.937 160.969C126.058 160.249 127.771 158.759 130.072 156.492V159.668H130.073ZM119.495 148.869C121.833 146.27 123.732 143.354 125.186 140.128C126.64 136.901 127.366 134.125 127.366 131.799C127.366 131.121 127.266 130.57 127.064 130.156C126.862 129.741 126.602 129.533 126.29 129.533C125.611 129.533 124.62 131.229 123.321 134.622C122.022 138.015 120.747 142.765 119.495 148.869Z" fill="#010101"/>
<path d="M150.737 159.668C148.399 161.972 146.3 163.673 144.439 164.765C142.579 165.861 140.527 166.409 138.28 166.409C135.775 166.409 133.754 165.607 132.214 164.007C130.678 162.402 129.91 160.296 129.91 157.68C129.91 153.777 131.262 150.245 133.973 147.087C136.677 143.928 139.68 142.349 142.976 142.349C144.689 142.349 146.059 142.793 147.092 143.676C148.123 144.561 148.639 145.72 148.639 147.157C148.639 150.969 144.588 154.061 136.485 156.438C137.221 160.027 139.145 161.824 142.258 161.824C143.474 161.824 144.633 161.497 145.737 160.845C146.844 160.191 148.509 158.738 150.737 156.493V159.668H150.737ZM136.262 154.559C140.975 153.232 143.334 150.784 143.334 147.211C143.334 145.444 142.688 144.56 141.401 144.56C140.185 144.56 139.026 145.484 137.922 147.337C136.814 149.187 136.262 151.593 136.262 154.559Z" fill="#010101"/>
<path d="M180.238 159.668C177.291 162.467 175.182 164.292 173.913 165.14C172.642 165.987 171.427 166.409 170.266 166.409C167.356 166.409 165.985 163.841 166.15 158.703C164.309 161.335 162.609 163.278 161.053 164.533C159.498 165.785 157.892 166.409 156.232 166.409C154.614 166.409 153.238 165.651 152.103 164.132C150.969 162.612 150.406 160.749 150.406 158.537C150.406 155.776 151.164 153.142 152.682 150.636C154.203 148.132 156.15 146.108 158.525 144.561C160.9 143.014 163.001 142.24 164.822 142.24C167.125 142.24 168.737 143.299 169.658 145.416L175.303 142.296H176.852L174.414 150.388C173.162 154.459 172.534 157.25 172.534 158.759C172.534 160.342 173.094 161.134 174.219 161.134C174.934 161.134 175.726 160.752 176.592 159.987C177.458 159.222 178.671 158.057 180.236 156.492V159.668H180.238ZM160.018 161.189C161.859 161.189 163.594 159.619 165.227 156.48C166.857 153.339 167.671 150.442 167.671 147.79C167.671 146.761 167.439 145.954 166.981 145.375C166.519 144.792 165.902 144.504 165.13 144.504C163.288 144.504 161.541 146.069 159.896 149.2C158.248 152.332 157.422 155.214 157.422 157.845C157.422 158.841 157.667 159.646 158.155 160.263C158.642 160.881 159.261 161.189 160.018 161.189Z" fill="#010101"/>
<path d="M200.873 159.668C196.25 164.198 192.686 166.464 190.182 166.464C189.058 166.464 188.109 165.99 187.337 165.044C186.565 164.095 186.177 162.92 186.177 161.52C186.177 158.923 187.569 155.444 190.349 151.079C188.985 151.779 187.495 152.265 185.874 152.542C184.677 154.752 182.797 157.128 180.238 159.667H179.604V157.184C181.04 155.693 182.339 154.089 183.499 152.377C181.913 151.676 181.123 150.636 181.123 149.257C181.123 147.837 181.604 146.323 182.574 144.71C183.54 143.1 184.87 142.295 186.565 142.295C188.002 142.295 188.719 143.029 188.719 144.503C188.719 145.664 188.305 147.32 187.475 149.476C190.531 149.143 193.202 146.807 195.487 142.459L197.999 142.348L195.43 149.42C194.363 152.403 193.672 154.436 193.36 155.512C193.047 156.588 192.889 157.542 192.889 158.37C192.889 159.144 193.07 159.763 193.428 160.22C193.787 160.684 194.271 160.912 194.879 160.912C195.541 160.912 196.177 160.685 196.785 160.237C197.392 159.782 198.755 158.535 200.874 156.492V159.668H200.873Z" fill="#010101"/>
<path d="M228 159.668C223.746 164.164 220.098 166.409 217.061 166.409C215.827 166.409 214.832 165.977 214.077 165.111C213.321 164.246 212.943 163.086 212.943 161.632C212.943 159.661 213.755 156.65 215.376 152.6C216.241 150.426 216.675 149.043 216.675 148.456C216.675 147.866 216.443 147.571 215.985 147.571C215.727 147.571 215.385 147.701 214.962 147.957C214.573 148.215 214.123 148.577 213.607 149.036C213.148 149.459 212.63 149.974 212.06 150.58C211.562 151.1 211.027 151.689 210.46 152.349L208.911 154.146C208.23 154.974 207.806 155.848 207.641 156.769C207.364 158.334 207.18 159.772 207.087 161.081C207.031 162.055 207.004 163.37 207.004 165.031L200.9 166.465C200.698 163.979 200.595 162.128 200.595 160.914C200.595 157.949 200.941 155.14 201.632 152.489C202.322 149.835 203.431 146.854 204.961 143.538L211.699 142.24C210.282 146.053 209.353 149.053 208.911 151.244C211.931 147.874 214.325 145.542 216.1 144.242C217.872 142.943 219.45 142.296 220.829 142.296C221.766 142.296 222.549 142.65 223.173 143.357C223.799 144.066 224.111 144.955 224.111 146.018C224.111 147.784 223.319 150.694 221.738 154.747C220.65 157.527 220.106 159.33 220.106 160.163C220.106 161.272 220.558 161.826 221.463 161.826C222.809 161.826 224.99 160.048 228 156.494V159.668Z" fill="#010101"/>
<path d="M145.53 125.42L144.277 125.774C144.198 125.566 144.082 125.363 143.929 125.166C143.779 124.965 143.574 124.799 143.314 124.669C143.054 124.539 142.721 124.474 142.315 124.474C141.759 124.474 141.296 124.602 140.926 124.858C140.559 125.111 140.376 125.432 140.376 125.822C140.376 126.169 140.502 126.442 140.754 126.643C141.007 126.844 141.401 127.012 141.937 127.146L143.284 127.477C144.096 127.674 144.701 127.975 145.099 128.381C145.497 128.783 145.696 129.301 145.696 129.936C145.696 130.456 145.546 130.921 145.247 131.331C144.951 131.74 144.537 132.064 144.005 132.3C143.473 132.536 142.855 132.655 142.149 132.655C141.223 132.655 140.457 132.454 139.85 132.052C139.243 131.65 138.859 131.063 138.698 130.29L140.022 129.959C140.148 130.448 140.386 130.814 140.737 131.059C141.091 131.303 141.554 131.425 142.126 131.425C142.776 131.425 143.292 131.287 143.674 131.011C144.061 130.732 144.254 130.397 144.254 130.007C144.254 129.691 144.143 129.427 143.923 129.215C143.702 128.998 143.363 128.836 142.906 128.73L141.393 128.375C140.561 128.178 139.951 127.873 139.561 127.459C139.174 127.041 138.981 126.519 138.981 125.893C138.981 125.38 139.125 124.927 139.413 124.533C139.704 124.139 140.1 123.83 140.601 123.605C141.105 123.381 141.677 123.268 142.315 123.268C143.213 123.268 143.919 123.465 144.431 123.859C144.947 124.253 145.314 124.774 145.53 125.42ZM151.484 132.655C150.633 132.655 149.9 132.454 149.285 132.052C148.67 131.65 148.198 131.096 147.867 130.391C147.536 129.685 147.37 128.88 147.37 127.973C147.37 127.051 147.54 126.237 147.878 125.532C148.221 124.823 148.698 124.269 149.309 123.871C149.924 123.469 150.641 123.268 151.46 123.268C152.099 123.268 152.674 123.387 153.186 123.623C153.699 123.859 154.118 124.19 154.445 124.616C154.772 125.042 154.975 125.538 155.054 126.105H153.659C153.553 125.692 153.316 125.325 152.95 125.006C152.587 124.683 152.099 124.521 151.484 124.521C150.94 124.521 150.463 124.663 150.054 124.947C149.648 125.227 149.33 125.623 149.102 126.135C148.877 126.643 148.765 127.24 148.765 127.926C148.765 128.627 148.875 129.238 149.096 129.758C149.321 130.278 149.636 130.682 150.042 130.97C150.452 131.258 150.932 131.402 151.484 131.402C151.847 131.402 152.176 131.338 152.471 131.212C152.767 131.086 153.017 130.905 153.222 130.669C153.427 130.432 153.572 130.148 153.659 129.817H155.054C154.975 130.353 154.78 130.836 154.469 131.266C154.162 131.691 153.754 132.03 153.245 132.282C152.741 132.53 152.154 132.655 151.484 132.655ZM157.093 132.465V123.387H158.488V132.465H157.093ZM157.803 121.873C157.531 121.873 157.296 121.781 157.099 121.596C156.906 121.41 156.81 121.188 156.81 120.928C156.81 120.668 156.906 120.445 157.099 120.26C157.296 120.075 157.531 119.982 157.803 119.982C158.074 119.982 158.307 120.075 158.5 120.26C158.697 120.445 158.796 120.668 158.796 120.928C158.796 121.188 158.697 121.41 158.5 121.596C158.307 121.781 158.074 121.873 157.803 121.873ZM162.344 129.155L162.32 127.429H162.604L166.576 123.387H168.302L164.069 127.666H163.951L162.344 129.155ZM161.043 132.465V120.36H162.438V132.465H161.043ZM166.812 132.465L163.266 127.973L164.259 127.004L168.585 132.465H166.812ZM170.097 132.465V123.387H171.492V132.465H170.097ZM170.806 121.873C170.534 121.873 170.3 121.781 170.103 121.596C169.91 121.41 169.813 121.188 169.813 120.928C169.813 120.668 169.91 120.445 170.103 120.26C170.3 120.075 170.534 119.982 170.806 119.982C171.078 119.982 171.311 120.075 171.504 120.26C171.701 120.445 171.799 120.668 171.799 120.928C171.799 121.188 171.701 121.41 171.504 121.596C171.311 121.781 171.078 121.873 170.806 121.873ZM177.995 123.387V124.569H173.29V123.387H177.995ZM174.662 121.211H176.056V129.865C176.056 130.259 176.114 130.554 176.228 130.751C176.346 130.944 176.496 131.074 176.677 131.141C176.862 131.204 177.057 131.236 177.262 131.236C177.416 131.236 177.542 131.228 177.641 131.212C177.739 131.193 177.818 131.177 177.877 131.165L178.161 132.418C178.066 132.454 177.934 132.489 177.765 132.525C177.595 132.564 177.38 132.584 177.12 132.584C176.726 132.584 176.34 132.499 175.962 132.33C175.588 132.16 175.276 131.902 175.028 131.555C174.784 131.208 174.662 130.771 174.662 130.243V121.211Z" fill="white"/>
</g>
<defs>
<clipPath id="clip0_219_160">
<rect width="256" height="256" fill="white"/>
</clipPath>
</defs>
</svg>
