<svg vwidth="256" height="256" viewBox="0 0 256 256" fill="none" xmlns="http://www.w3.org/2000/svg">
<rect width="256" height="256" rx="60" fill="#F4F2ED"/>
<path d="M188.6,157.5c27.7-27.7,32.3-68,10.3-90c-22-22-62.3-17.4-90,10.3c-27.7,27.7-19.7,80.6-10.3,90C106.1,175.4,160.9,185.2,188.6,157.5L188.6,157.5z" fill="#F89939"/>
<path d="M74.9,117.5c-16.1-16.1-39.5-18.7-52.2-6c-12.8,12.8-10.1,36.2,6,52.2c16.1,16.1,46.8,11.4,52.2,6 C85.3,165.3,91,133.6,74.9,117.5z" fill="#3499CD"/>
<path d="M130.4,150.7c-2.8,2.6-5.3,4.5-7.5,5.8c-2.1,1.2-4.2,1.9-6.1,1.9c-2.2,0-4-0.9-5.4-2.6 c-1.4-1.7-2.1-4.1-2.1-7c0-4.4,1-9.6,2.9-15.8c1.9-6.1,4.2-11.8,6.9-17l8-2.9c0.2-0.1,0.4-0.1,0.6-0.1c0.6,0,1.1,0.4,1.5,1.3c0.4,0.9,0.6,2.1,0.6,3.6c0,4.3-1,8.4-2.9,12.4c-2,4-5,8.2-9.2,12.8c-0.2,2.2-0.3,3.7-0.3,4.5c0,1.8,0.3,3.3,1,4.3 c0.7,1.1,1.6,1.6,2.7,1.6c1.1,0,2.3-0.4,3.6-1.2c1.3-0.8,3.2-2.5,5.8-5.1L130.4,150.7L130.4,150.7z M118.4,138.5 c2.7-2.9,4.8-6.3,6.5-9.9c1.6-3.7,2.5-6.8,2.5-9.4c0-0.8-0.1-1.4-0.3-1.9c-0.2-0.5-0.5-0.7-0.9-0.7c-0.8,0-1.9,1.9-3.4,5.8 C121.2,126.2,119.8,131.6,118.4,138.5L118.4,138.5z" fill="#010101" />
<path d="M153.8,150.7c-2.7,2.6-5,4.5-7.1,5.8c-2.1,1.2-4.4,1.9-7,1.9c-2.8,0-5.1-0.9-6.9-2.7	c-1.7-1.8-2.6-4.2-2.6-7.2c0-4.4,1.5-8.4,4.6-12c3.1-3.6,6.5-5.4,10.2-5.4c1.9,0,3.5,0.5,4.7,1.5c1.2,1,1.8,2.3,1.8,3.9	c0,4.3-4.6,7.8-13.8,10.5c0.8,4.1,3,6.1,6.5,6.1c1.4,0,2.7-0.4,3.9-1.1c1.3-0.7,3.1-2.4,5.7-4.9L153.8,150.7L153.8,150.7z	 M137.4,144.9c5.3-1.5,8-4.3,8-8.3c0-2-0.7-3-2.2-3c-1.4,0-2.7,1-3.9,3.1C138,138.8,137.4,141.6,137.4,144.9L137.4,144.9z" fill="#010101"/>
<path d="M187.2,150.7c-3.3,3.2-5.7,5.2-7.2,6.2c-1.4,1-2.8,1.4-4.1,1.4c-3.3,0-4.9-2.9-4.7-8.7	c-2.1,3-4,5.2-5.8,6.6c-1.8,1.4-3.6,2.1-5.5,2.1c-1.8,0-3.4-0.9-4.7-2.6c-1.3-1.7-1.9-3.8-1.9-6.3c0-3.1,0.9-6.1,2.6-9	c1.7-2.8,3.9-5.1,6.6-6.9c2.7-1.8,5.1-2.6,7.1-2.6c2.6,0,4.4,1.2,5.5,3.6l6.4-3.5h1.8l-2.8,9.2c-1.4,4.6-2.1,7.8-2.1,9.5	c0,1.8,0.6,2.7,1.9,2.7c0.8,0,1.7-0.4,2.7-1.3c1-0.9,2.4-2.2,4.1-4L187.2,150.7L187.2,150.7z M164.3,152.5c2.1,0,4.1-1.8,5.9-5.3	c1.8-3.6,2.8-6.8,2.8-9.9c0-1.2-0.3-2.1-0.8-2.7c-0.5-0.7-1.2-1-2.1-1c-2.1,0-4.1,1.8-5.9,5.3c-1.9,3.6-2.8,6.8-2.8,9.8	c0,1.1,0.3,2,0.8,2.7C162.7,152.1,163.4,152.5,164.3,152.5L164.3,152.5z" fill="#010101"/>
<path d="M210.6,150.7c-5.2,5.1-9.3,7.7-12.1,7.7c-1.3,0-2.4-0.5-3.2-1.6c-0.9-1.1-1.3-2.4-1.3-4	c0-2.9,1.6-6.9,4.7-11.8c-1.5,0.8-3.2,1.3-5.1,1.7c-1.4,2.5-3.5,5.2-6.4,8.1h-0.7v-2.8c1.6-1.7,3.1-3.5,4.4-5.5	c-1.8-0.8-2.7-2-2.7-3.5c0-1.6,0.5-3.3,1.6-5.2c1.1-1.8,2.6-2.7,4.5-2.7c1.6,0,2.4,0.8,2.4,2.5c0,1.3-0.5,3.2-1.4,5.6	c3.5-0.4,6.5-3,9.1-8l2.8-0.1l-2.9,8c-1.2,3.4-2,5.7-2.3,6.9s-0.5,2.3-0.5,3.2c0,0.9,0.2,1.6,0.6,2.1c0.4,0.5,1,0.8,1.6,0.8	c0.8,0,1.5-0.3,2.2-0.8c0.7-0.5,2.2-1.9,4.6-4.2L210.6,150.7L210.6,150.7z" fill="#010101"/>
<path d="M241.4,150.7c-4.8,5.1-9,7.6-12.4,7.6c-1.4,0-2.5-0.5-3.4-1.5c-0.9-1-1.3-2.3-1.3-3.9	c0-2.2,0.9-5.6,2.8-10.2c1-2.5,1.5-4,1.5-4.7c0-0.7-0.3-1-0.8-1c-0.3,0-0.7,0.1-1.2,0.4c-0.4,0.3-1,0.7-1.5,1.2	c-0.5,0.5-1.1,1.1-1.8,1.8c-0.6,0.6-1.2,1.3-1.8,2l-1.8,2c-0.8,0.9-1.3,1.9-1.4,3c-0.3,1.8-0.5,3.4-0.6,4.9 c-0.1,1.1-0.1,2.6-0.1,4.5l-6.9,1.6c-0.2-2.8-0.3-4.9-0.3-6.3c0-3.4,0.4-6.5,1.2-9.6c0.8-3,2-6.4,3.8-10.2l7.6-1.5	c-1.6,4.3-2.7,7.7-3.2,10.2c3.4-3.8,6.1-6.5,8.2-7.9c2-1.5,3.8-2.2,5.4-2.2c1.1,0,2,0.4,2.7,1.2c0.7,0.8,1.1,1.8,1.1,3	c0,2-0.9,5.3-2.7,9.9c-1.2,3.2-1.8,5.2-1.8,6.1c0,1.3,0.5,1.9,1.5,1.9c1.5,0,4-2,7.4-6V150.7z" fill="#010101"/>
<text id="scikit" transform="matrix(1 0 0 1 139.9996 120.6058)" fill="#FFFFFF" font-family="Arial"	font-size="18.8748px" >scikit</text>
</svg>
