<svg width="256" height="256" viewBox="0 0 256 256" fill="none" xmlns="http://www.w3.org/2000/svg">
<rect width="256" height="256" rx="60" fill="#242938"/>
<path d="M191.959 91.9785V163.985L128.093 199.834L127.506 200.346V227.488L128.093 228L218.013 178.273V78H217.155L191.802 91.5759V92.1373" fill="#2F406A"/>
<path d="M63.616 164.406L128.139 200.047V228L37 178V78H37.9175L63.3506 92.1032L63.6193 92.9247V164.719" fill="#2379BD"/>
<path d="M63.7847 92.557L37 77.8367L127.751 28L218.013 77.631L191.923 91.5854L127.637 56.6747L63.6769 92.4544" fill="#03AFEF"/>
<path d="M126.944 155.848L126.241 155.19V128.473L126.944 128.117V127.46L151.43 114.076H152.19V141.655L126.782 155.75" fill="#2F406A"/>
<path d="M101.139 143.086V114.076H101.846L126.873 127.835V156.481L100.924 143.083" fill="#2379BD"/>
<path d="M126.66 99.6754L101.557 114.232L127.087 128.633L152.19 114.287L126.656 99.519" fill="#03AFEF"/>
<path d="M95.8968 174.203L95.2278 173.536V146.394L95.8968 146.034V145.367L119.189 131.798H119.911V159.76L95.743 174.049" fill="#2F406A"/>
<path d="M69.9114 160.804V131.798H70.6234L95.8608 145.557V174.203L69.9146 160.804" fill="#2379BD"/>
<path d="M95.0677 117.292L69.9114 131.798L95.443 146.355L120.544 132.008L95.0127 117.241" fill="#03AFEF"/>
<path d="M159.855 174.836L159.152 174.179V147.442L159.855 147.088V146.43L184.342 133.063H185.101V160.608L159.693 174.684" fill="#2F406A"/>
<path d="M134.578 161.431V132.431H135.393L160.418 146.19V174.836L134.468 161.431" fill="#2379BD"/>
<path d="M159.889 117.874L135.101 132.114L160.314 146.355L185.101 132.32L159.889 117.874Z" fill="#03AFEF"/>
<path d="M128.842 192.557L128.139 191.89V164.746L128.842 164.386V163.719L153.329 150.152H154.089V178.109L128.68 192.397" fill="#2F406A"/>
<path d="M102.823 179.108V150.152H103.535L128.772 163.911V192.557L102.826 179.105" fill="#2379BD"/>
<path d="M128.268 135.602L102.823 149.94L128.7 164.076L154.089 149.94L128.265 135.595" fill="#03AFEF"/>
<path d="M126.944 117.874L126.241 117.205V90.101L126.944 89.7396V89.0713L151.43 75.4688H152.19V103.499L126.944 117.874Z" fill="#2F406A"/>
<path d="M101.139 104.546V75.4688H101.846L126.873 89.2612V117.874L100.924 104.442" fill="#2379BD"/>
<path d="M126.658 61.5444L101.557 75.7849L127.089 90.0254L152.19 75.9913L126.658 61.5444Z" fill="#03AFEF"/>
<path d="M95.8968 135.595L95.2278 134.921V107.301L95.8968 106.937V106.263L119.189 92.5571H119.911V120.801L95.743 135.234" fill="#2F406A"/>
<path d="M69.9114 122.199V93.1899H70.6234L95.8608 106.949V135.595L69.9146 122.196" fill="#2379BD"/>
<path d="M95.0677 78.6328L69.9114 92.7967L95.443 107.114L120.544 93.1056L95.0127 78.686" fill="#03AFEF"/>
<path d="M159.855 136.861L159.152 136.183V108.654L159.855 108.287V107.609L184.342 93.8228H185.101V122.234L159.693 136.752" fill="#2F406A"/>
<path d="M135.101 123.402V93.8228H135.884L159.785 107.753V136.861L135.101 123.402Z" fill="#2379BD"/>
<path d="M159.889 79.2724L135.101 93.5066L160.314 107.747L185.101 93.713L159.889 79.2661" fill="#03AFEF"/>
<path d="M128.842 153.946L128.139 153.267V125.78L128.842 125.413V124.733L153.329 110.912H154.089V139.394L128.842 153.95" fill="#2F406A"/>
<path d="M102.823 140.451V110.912H103.535L128.772 124.926V153.95L102.823 140.451Z" fill="#2379BD"/>
<path d="M128.294 96.9873L102.823 111.202L128.673 125.468L154.089 111.409L128.297 96.9936" fill="#03AFEF"/>
</svg>
