<svg xmlns="http://www.w3.org/2000/svg"  viewBox="0 0 24 24" width="256px" height="256px"><path fill="#95BF46" d="M19.932,4.673c-0.017-0.121-0.122-0.187-0.21-0.195c-0.087-0.007-1.932-0.144-1.932-0.144	s-1.281-1.272-1.422-1.413c-0.141-0.141-0.415-0.098-0.522-0.067c-0.016,0.005-0.28,0.086-0.717,0.221	c-0.428-1.231-1.183-2.363-2.512-2.363c-0.037,0-0.074,0.001-0.112,0.004C12.128,0.217,11.66,0,11.255,0	C8.16,0,6.681,3.869,6.218,5.836C5.015,6.208,4.161,6.473,4.052,6.508C3.38,6.718,3.359,6.739,3.271,7.372	C3.204,7.851,1.448,21.435,1.448,21.435L15.136,24l7.417-1.604C22.552,22.396,19.949,4.794,19.932,4.673L19.932,4.673z M14.373,3.31	l-1.158,0.358c0-0.082,0.001-0.162,0.001-0.25c0-0.765-0.106-1.382-0.277-1.87C13.624,1.635,14.08,2.414,14.373,3.31z M12.09,1.701	c0.19,0.477,0.314,1.161,0.314,2.085c0,0.047,0,0.09-0.001,0.134c-0.753,0.233-1.572,0.487-2.392,0.741	C10.472,2.883,11.335,2.025,12.09,1.701L12.09,1.701z M11.17,0.83c0.134,0,0.268,0.045,0.397,0.134	c-0.992,0.467-2.055,1.642-2.504,3.99L7.172,5.54C7.698,3.749,8.947,0.83,11.17,0.83L11.17,0.83z"/><path fill="#5E8E3E" d="M19.723,4.478c-0.087-0.007-1.932-0.144-1.932-0.144s-1.281-1.272-1.422-1.413	c-0.053-0.052-0.124-0.079-0.198-0.091L15.136,24l7.416-1.604c0,0-2.604-17.602-2.62-17.723C19.916,4.552,19.81,4.486,19.723,4.478	L19.723,4.478z"/><path fill="#FFF" d="M12.618,8.576l-0.914,2.72c0,0-0.801-0.428-1.783-0.428c-1.44,0-1.512,0.904-1.512,1.131	c0,1.242,3.239,1.718,3.239,4.629c0,2.29-1.452,3.764-3.41,3.764c-2.35,0-3.551-1.462-3.551-1.462l0.629-2.079	c0,0,1.235,1.06,2.277,1.06c0.681,0,0.958-0.536,0.958-0.928c0-1.621-2.657-1.693-2.657-4.356c0-2.241,1.609-4.41,4.856-4.41	C12,8.218,12.618,8.576,12.618,8.576L12.618,8.576z"/></svg>