<?xml version="1.0" encoding="utf-8"?>
<!-- Generator: Adobe Illustrator 23.0.3, SVG Export Plug-In . SVG Version: 6.00 Build 0)  -->
<svg version="1.1" id="bold" xmlns="http://www.w3.org/2000/svg" xmlns:xlink="http://www.w3.org/1999/xlink" x="0px" y="0px"
	 viewBox="0 0 24 24" enable-background="new 0 0 24 24" xml:space="preserve">
<path d="M22.5,22.418c0,0-2.591-17.613-2.612-17.73c-0.018-0.116-0.113-0.192-0.21-0.192c-0.097,0-1.919-0.136-1.919-0.136
	s-1.269-1.274-1.432-1.411c-0.045-0.037-0.075-0.057-0.12-0.074l-0.91,21.104h0.023L22.5,22.418z"/>
<path d="M15.128,3.065c-0.421-1.233-1.17-2.37-2.496-2.37h-0.114C12.134,0.209,11.67,0,11.268,0c-3.091,0-4.567,3.877-5.03,5.846
	C5.05,6.211,4.186,6.482,4.089,6.52C3.417,6.733,3.398,6.752,3.321,7.39C3.246,7.852,1.5,21.453,1.5,21.453L14.994,24l0.922-21.166
	c-0.02,0-0.06,0.021-0.078,0.021C15.821,2.855,15.551,2.93,15.128,3.065z M12.403,3.779v0.135c-0.75,0.232-1.575,0.484-2.382,0.736
	c0.464-1.777,1.326-2.645,2.075-2.971C12.287,2.18,12.403,2.855,12.403,3.779z M11.174,0.84V0.83c0.135,0,0.27,0.038,0.403,0.135
	C10.598,1.43,9.523,2.604,9.081,4.957C8.428,5.17,7.794,5.362,7.201,5.535C7.718,3.75,8.966,0.84,11.174,0.84z M11.731,11.295
	l-0.02,0.01c0,0-0.806-0.424-1.765-0.424c-1.44,0-1.497,0.906-1.497,1.141c0,1.232,3.224,1.715,3.224,4.629
	c0,2.295-1.433,3.76-3.389,3.76c-2.342,0-3.522-1.465-3.522-1.465l0.643-2.086c0,0,1.239,1.066,2.269,1.066
	c0.672,0,0.97-0.545,0.97-0.932c0-1.619-2.641-1.694-2.641-4.359c-0.034-2.237,1.563-4.416,4.803-4.416
	c1.251,0,1.866,0.361,1.866,0.361L11.731,11.295z M13.209,3.666V3.414c0-0.751-0.096-1.369-0.269-1.869
	c0.69,0.074,1.135,0.867,1.421,1.755C14.013,3.414,13.629,3.531,13.209,3.666z"/>
</svg>