<svg version="1.2" xmlns="http://www.w3.org/2000/svg" viewBox="0 0 256 256" width="256" height="256">
	<title>Slack-Light</title>
	<style>
		.s0 { fill: #f4f2ed } 
		.s1 { fill: #36c5f0 } 
		.s2 { fill: #2eb67d } 
		.s3 { fill: #ecb22e } 
		.s4 { fill: #e01e5a } 
	</style>
	<path id="Layer" class="s0" d="m0 60c0-33.1 26.9-60 60-60h136c33.1 0 60 26.9 60 60v136c0 33.1-26.9 60-60 60h-136c-33.1 0-60-26.9-60-60z"/>
	<path id="Layer" fill-rule="evenodd" class="s1" d="m103.1 34.7c-10.3 0-18.7 8.4-18.7 18.7 0 10.3 8.4 18.7 18.7 18.7h18.7v-18.7c0-10.3-8.4-18.7-18.7-18.7zm0 49.9h-49.8c-10.3 0-18.7 8.4-18.7 18.7 0 10.3 8.4 18.7 18.7 18.7h49.8c10.3 0 18.7-8.4 18.7-18.7 0-10.3-8.4-18.7-18.7-18.7z"/>
	<path id="Layer" fill-rule="evenodd" class="s2" d="m221.4 103.3c0-10.3-8.4-18.7-18.7-18.7-10.3 0-18.7 8.4-18.7 18.7v18.7h18.7c10.3 0 18.7-8.4 18.7-18.7zm-49.8 0v-49.9c0-10.3-8.4-18.7-18.7-18.7-10.3 0-18.7 8.4-18.7 18.7v49.9c0 10.3 8.4 18.7 18.7 18.7 10.3 0 18.7-8.4 18.7-18.7z"/>
	<path id="Layer" fill-rule="evenodd" class="s3" d="m152.9 221.8c10.3 0 18.7-8.4 18.7-18.7 0-10.3-8.4-18.7-18.7-18.7h-18.7v18.7c0 10.3 8.4 18.7 18.7 18.7zm0-49.9h49.8c10.3 0 18.7-8.4 18.7-18.7 0-10.3-8.4-18.7-18.7-18.7h-49.8c-10.3 0-18.7 8.4-18.7 18.7 0 10.3 8.4 18.7 18.7 18.7z"/>
	<path id="Layer" fill-rule="evenodd" class="s4" d="m34.6 153.2c0 10.3 8.4 18.7 18.7 18.7 10.3 0 18.7-8.4 18.7-18.7v-18.7h-18.7c-10.3 0-18.7 8.4-18.7 18.7zm49.8 49.9c0 10.3 8.4 18.7 18.7 18.7 10.3 0 18.7-8.4 18.7-18.7v-49.9c0-10.3-8.4-18.7-18.7-18.7-10.3 0-18.7 8.4-18.7 18.7z"/>
</svg>