<svg width="256" height="256" fill="none" version="1.1" viewBox="0 0 256 256" xmlns="http://www.w3.org/2000/svg">
 <rect width="256" height="256" rx="60" fill="#f4f2ed"/>
 <g transform="translate(4.6084 11.414)" stroke-width="1.4516">
  <path d="m70.628 140.68c0 10.596-8.5641 19.16-19.16 19.16-10.596 0-19.16-8.5641-19.16-19.16s8.5641-19.16 19.16-19.16h19.16zm9.5802 0c0-10.596 8.5641-19.16 19.16-19.16s19.16 8.5641 19.16 19.16v47.901c0 10.596-8.5641 19.16-19.16 19.16s-19.16-8.5641-19.16-19.16z" fill="#e01e5a"/>
  <path d="m99.368 63.749c-10.596 0-19.16-8.5641-19.16-19.16 0-10.596 8.5641-19.16 19.16-19.16s19.16 8.5641 19.16 19.16v19.16zm0 9.7254c10.596 0 19.16 8.5641 19.16 19.16 0 10.596-8.5641 19.16-19.16 19.16h-48.046c-10.596 0-19.16-8.5641-19.16-19.16 0-10.596 8.5641-19.16 19.16-19.16z" fill="#36c5f0"/>
  <path d="m176.16 92.635c0-10.596 8.5641-19.16 19.16-19.16s19.16 8.5641 19.16 19.16c0 10.596-8.5641 19.16-19.16 19.16h-19.16zm-9.5802 0c0 10.596-8.5641 19.16-19.16 19.16-10.596 0-19.16-8.5641-19.16-19.16v-48.046c0-10.596 8.5641-19.16 19.16-19.16 10.596 0 19.16 8.5641 19.16 19.16z" fill="#2eb67d"/>
  <path d="m147.41 169.42c10.596 0 19.16 8.5641 19.16 19.16s-8.5641 19.16-19.16 19.16c-10.596 0-19.16-8.5641-19.16-19.16v-19.16zm0-9.5802c-10.596 0-19.16-8.5641-19.16-19.16s8.5641-19.16 19.16-19.16h48.046c10.596 0 19.16 8.5641 19.16 19.16s-8.5641 19.16-19.16 19.16z" fill="#ecb22e"/>
 </g>
</svg>
