<svg xmlns="http://www.w3.org/2000/svg"  viewBox="0 0 48 48" width="256px" height="256px"><linearGradient id="CJtCswRpElBeCaHkFyAXya" x1="18.708" x2="28.358" y1="4.981" y2="39.663" gradientUnits="userSpaceOnUse"><stop offset="0" stop-color="#cf1928"/><stop offset="1" stop-color="#b31523"/></linearGradient><path fill="url(#CJtCswRpElBeCaHkFyAXya)" d="M35.139,6H12.861C9.078,6,6,9.078,6,12.862v22.277C6,38.922,9.078,42,12.861,42h12.33v-2	h-1.933l-4.998-10.145c0.022-0.024,0.053-0.039,0.073-0.066l11.267-15.104L40,16.219v2.632h2v-5.989C42,9.078,38.922,6,35.139,6z M10.858,19.356L8,19.713v-6.159L10.858,19.356z M8,21.728l3.794-0.474l3.562,7.231L8,29.51V21.728z M9.313,11.693l7.49,1.105	l-4.278,5.414L9.313,11.693z M19.346,11.151L18.918,8h8.225l0.78,4.416L19.346,11.151z M12.861,8h4.038l0.387,2.847L9.233,9.659	C10.124,8.65,11.412,8,12.861,8z M12.861,40C10.181,40,8,37.819,8,35.139v-3.609l8.286-1.155L21.028,40H12.861z M17.278,27.86	l-3.775-7.662l5.582-7.064l8.267,1.219L17.278,27.86z M30.007,12.724L29.173,8h5.966C37.819,8,40,10.181,40,12.862v1.336	L30.007,12.724z"/><linearGradient id="CJtCswRpElBeCaHkFyAXyb" x1="26.756" x2="39.973" y1="20.833" y2="38.059" gradientUnits="userSpaceOnUse"><stop offset="0" stop-color="#6d6d6d"/><stop offset=".126" stop-color="#626262"/><stop offset=".987" stop-color="#464646"/><stop offset=".998" stop-color="#454545"/></linearGradient><path fill="url(#CJtCswRpElBeCaHkFyAXyb)" d="M37.766,42.037h-9.622v-3h9.622c1.202,0,1.979-0.779,1.979-1.984	c0-1.742-0.078-2.184-2.143-2.963l-5.597-1.921c-1.638-0.766-3.881-1.813-3.881-5.424c0-4.902,3.315-5.469,5.809-5.469h8.045v3	h-8.045c-2.44,0-2.809,0.556-2.809,2.469c0,1.594,0.536,1.948,2.078,2.671l5.415,1.852c3.135,1.183,4.127,2.585,4.127,5.785	C42.745,39.895,40.604,42.037,37.766,42.037z"/></svg>