<svg width="256px" height="256px" viewBox="-1.61 0 70 70" xmlns:dc="http://purl.org/dc/elements/1.1/" xmlns:cc="http://creativecommons.org/ns#" xmlns:rdf="http://www.w3.org/1999/02/22-rdf-syntax-ns#" xmlns="http://www.w3.org/2000/svg" fill="#000000"><g id="SVGRepo_bgCarrier" stroke-width="0"></g><g id="SVGRepo_iconCarrier"> <metadata> <rdf:rdf> <cc:work> <dc:subject> Data </dc:subject> <dc:identifier> sql-database-sql-azure </dc:identifier> <dc:title> SQL Database (SQL Azure) </dc:title> <dc:format> image/svg+xml </dc:format> <dc:publisher> Amido Limited </dc:publisher> <dc:creator> Richard Slater </dc:creator> <dc:type rdf:resource="http://purl.org/dc/dcmitype/StillImage"></dc:type> </cc:work> </rdf:rdf> </metadata> <path d="m -68.256041,544.14439 c -3.2225,-0.64097 -6.0047,-2.84478 -7.3573,-5.82793 -0.595,-1.31236 -0.8482,-2.55217 -0.8438,-4.13316 0.012,-4.5438 2.8692,-8.33798 7.3079,-9.70579 0.8177,-0.25196 1.3573,-0.31847 2.611,-0.32182 0.8692,-0.002 1.8277,0.0437 2.1301,0.10227 l 0.5497,0.10649 0.6765,-1.31365 c 1.3815,-2.68242 3.5345,-4.78981 6.3178,-6.18379 2.2961,-1.15 3.739,-1.48443 6.4043,-1.48443 1.8668,0 2.2999,0.045 3.5043,0.36412 5.2011,1.37813 9.255,5.45998 10.5309,10.60353 0.3195,1.2879 0.4789,4.17568 0.293,5.30849 l -0.1269,0.77355 0.7284,0.163 c 1.8256,0.40854 3.4011,1.68396 4.2066,3.40532 0.7966,1.70226 0.6508,3.90495 -0.3651,5.51414 -0.5185,0.82136 -1.535,1.73424 -2.3832,2.14031 -0.4348,0.20813 -0.8979,0.43475 -1.0292,0.50361 -0.2947,0.15465 -32.3751,0.14085 -33.155,-0.0143 z m 33.351,-1.89876 c 0.9026,-0.44879 1.7953,-1.45217 2.1662,-2.43497 0.7697,-2.03891 -0.2571,-4.40792 -2.3055,-5.31934 -0.5173,-0.23017 -0.9037,-0.28342 -1.9824,-0.27321 -0.737,0.007 -1.3399,-0.0395 -1.3399,-0.10328 0,-0.0638 0.1369,-0.66194 0.3042,-1.32926 0.428,-1.70717 0.4237,-4.42927 -0.01,-6.09178 -0.9556,-3.66584 -3.4332,-6.72357 -6.8221,-8.4192 -1.4892,-0.74512 -2.9056,-1.08594 -4.841,-1.16493 -2.8639,-0.11687 -4.8633,0.33445 -7.0666,1.59507 -2.5693,1.47003 -4.784,4.13385 -5.6425,6.78661 -0.1651,0.51018 -0.3653,0.9268 -0.4449,0.92583 -0.08,-9.6e-4 -0.5467,-0.13408 -1.038,-0.29579 -1.3668,-0.44991 -3.6978,-0.42255 -5.0619,0.0594 -1.3731,0.48513 -2.3616,1.10694 -3.3908,2.13292 -1.5427,1.53788 -2.3996,3.63391 -2.3996,5.86959 0,3.32007 1.8288,6.23059 4.8041,7.64574 1.71,0.81331 1.1183,0.78892 18.4849,0.76186 l 15.941,-0.0248 0.6444,-0.32043 z m -45.9938,-6.42576 c -5.7671,-0.78155 -10.2061,-2.22963 -13.4896,-4.40056 -1.3548,-0.89576 -2.2902,-1.89766 -2.8176,-3.01787 l -0.3929,-0.83466 0.036,-22.59585 0.036,-22.59585 0.3281,-0.61562 c 0.8294,-1.55619 2.4465,-2.88407 5.0211,-4.12288 3.2554,-1.56646 7.0095,-2.54578 12.2408,-3.19328 2.1543,-0.26664 9.47,-0.21948 11.6809,0.0753 8.1415,1.08546 14.4594,3.74551 16.4734,6.93577 0.7936,1.25717 0.7731,0.80148 0.7731,17.22791 l 0,15.08135 -0.4466,0.0692 c -0.2456,0.038 -0.8021,0.10712 -1.2366,0.15352 -4.4834,0.47873 -9.1329,3.57818 -11.5162,7.67699 l -0.488,0.8391 -1.9169,0.0905 c -2.265,0.10697 -3.4191,0.39711 -5.1411,1.29243 -2.9567,1.53725 -5.0699,4.20232 -5.9316,7.48077 -0.238,0.90554 -0.3084,1.56192 -0.3132,2.92023 l -0.01,1.75213 -0.7594,-0.0162 c -0.4176,-0.009 -1.3777,-0.1 -2.1335,-0.20243 z m 11.7239,-20.8271 c -1.0818,-0.91805 -2.0174,-1.7137 -2.0791,-1.7681 -0.062,-0.0544 0.1631,-0.2602 0.4994,-0.45733 0.7458,-0.43708 1.7061,-1.48313 2.1139,-2.30274 0.9965,-2.00287 0.9743,-4.49403 -0.058,-6.47634 -1.135,-2.1802 -3.5103,-3.3239 -6.2014,-2.986 -1.4735,0.18503 -2.3966,0.59832 -3.3701,1.50899 -1.5366,1.4374 -2.0688,2.84774 -1.988,5.26837 0.046,1.37622 0.095,1.62372 0.4886,2.45901 0.8471,1.79787 2.6182,3.14163 4.4225,3.35531 0.6788,0.0804 0.7377,0.1249 2.0865,1.57538 l 1.3881,1.49264 2.3321,0 2.3322,0 -1.9669,-1.66919 z m -5.885,-4.6866 c -0.9451,-0.47951 -1.304,-1.30103 -1.304,-2.98527 0,-1.09589 0.053,-1.41584 0.3224,-1.96387 0.4309,-0.875 1.29,-1.40105 2.1328,-1.30604 0.829,0.0934 1.2599,0.42875 1.6984,1.32149 0.3327,0.67762 0.3808,0.93439 0.3769,2.01347 0,1.33108 -0.2403,2.01354 -0.9098,2.63622 -0.6994,0.65058 -1.42,0.73892 -2.3167,0.284 z m -9.5093,3.18974 c 2.485,-0.57319 3.8348,-2.65434 3.1192,-4.80889 -0.3603,-1.0849 -1.1219,-1.76252 -2.9819,-2.65327 -0.859,-0.41138 -1.6272,-0.83198 -1.7071,-0.93468 -0.3128,-0.40184 -0.3121,-0.66784 0,-1.03351 0.484,-0.56269 1.5858,-0.5896 3.0776,-0.0752 l 1.138,0.39245 -0.039,-1.51877 -0.039,-1.51878 -0.7558,-0.17965 c -1.143,-0.2717 -3.6136,-0.2584 -4.5856,0.0247 -1.949,0.56765 -2.976,1.84152 -2.9696,3.68323 0.01,1.89537 0.8605,2.79385 3.8676,4.06981 1.2722,0.53982 1.4179,1.54865 0.2807,1.94362 -0.5263,0.18278 -0.6761,0.17922 -1.5089,-0.0358 -0.5086,-0.13132 -1.2802,-0.42314 -1.7148,-0.64849 l -0.7902,-0.40974 0,1.64418 0,1.64418 0.7902,0.21996 c 0.4346,0.12098 0.852,0.2415 0.9276,0.26783 0.3141,0.10941 3.3435,0.0524 3.8879,-0.0732 z m 26.5512,-1.4376 0,-1.44294 -2.1988,0 -2.1987,0 0,-4.74107 0,-4.74107 -1.7865,0 -1.7865,0 0,6.18401 0,6.184 3.9853,0 3.9852,0 0,-1.44293 z m -10.5815,-24.74151 c 3.5835,-0.41532 6.5241,-1.16648 8.3827,-2.14132 1.2211,-0.64044 1.5139,-0.87116 1.9833,-1.56285 1.4515,-2.13894 -1.7987,-4.28958 -8.0986,-5.35876 -5.9187,-1.0045 -13.7186,-0.77727 -18.7108,0.54509 -10.3005,2.7285 -6.2399,7.74058 7.0717,8.7287 2.1847,0.16217 7.109,0.0514 9.3717,-0.21086 z" fill="#00bcf2" transform="translate(97.599 -474.268)"></path> </g></svg>