<svg width="256" height="256" viewBox="0 0 256 256" fill="none" xmlns="http://www.w3.org/2000/svg">
<g clip-path="url(#clip0_164_580)">
<path d="M196 0H60C26.8629 0 0 26.8629 0 60V196C0 229.137 26.8629 256 60 256H196C229.137 256 256 229.137 256 196V60C256 26.8629 229.137 0 196 0Z" fill="#F4F2ED"/>
<path d="M150.847 121.708L112.364 134.274L78.8842 149.05L69.5177 151.523C67.1323 153.792 64.6311 156.09 61.9259 158.417C58.959 160.977 56.1957 163.304 54.0719 164.991C51.716 166.852 48.2254 170.343 46.4512 172.553C43.8041 175.869 41.7099 179.389 40.8081 182.094C39.2082 186.981 39.9939 191.926 43.0771 196.493C47.033 202.31 54.9159 208.244 64.1073 212.287C68.7907 214.353 76.6734 216.999 82.607 218.483C92.4675 220.984 111.549 223.69 122.05 224.097C124.173 224.184 127.024 224.184 127.14 224.097C127.373 223.951 129.002 220.839 130.893 216.971C137.35 203.794 142.004 191.431 144.534 180.873C146.047 174.474 147.239 165.951 148.024 155.858C148.228 153.036 148.315 143.583 148.141 140.383C147.879 135.147 147.413 130.9 146.687 126.741C146.57 126.13 146.541 125.577 146.599 125.548C146.715 125.461 147.064 125.345 151.806 123.977L150.846 121.709V121.708H150.847V121.708ZM142.062 126.857C142.411 126.857 143.342 135.786 143.575 141.43C143.633 142.622 143.603 143.408 143.546 143.408C143.313 143.408 138.63 140.645 135.285 138.55C132.376 136.718 126.85 133.052 125.977 132.354C125.686 132.151 125.715 132.122 128.1 131.307C132.143 129.94 141.743 126.857 142.062 126.857ZM122.457 133.314C122.719 133.314 123.388 133.692 124.988 134.681C130.98 138.433 139.124 142.971 142.615 144.484C143.691 144.949 143.807 144.775 141.335 146.462C136.041 150.069 129.438 153.617 121.351 157.195C119.926 157.835 118.734 158.329 118.705 158.329C118.647 158.329 118.821 157.603 119.053 156.73C121.002 149.486 122.108 142.157 122.166 136.281C122.195 133.372 122.195 133.372 122.457 133.285C122.399 133.314 122.428 133.314 122.457 133.314ZM118.414 134.856C118.588 135.03 118.472 141.546 118.239 143.32C117.716 147.567 116.901 151.523 115.564 155.974C115.244 157.049 114.952 157.951 114.895 158.009C114.778 158.155 110.793 154.257 109.484 152.744C107.215 150.126 105.441 147.509 104.132 144.949C103.463 143.64 102.416 141.081 102.503 140.993C102.968 140.673 118.298 134.74 118.414 134.856ZM99.3906 142.331C99.4195 142.331 99.4485 142.331 99.478 142.36C99.536 142.418 99.74 142.884 99.9145 143.407C100.845 145.938 102.939 149.661 104.743 152.046C106.721 154.664 109.31 157.457 111.462 159.289C112.16 159.871 112.8 160.423 112.887 160.511C113.062 160.685 113.12 160.656 108.378 162.46C102.881 164.554 96.889 166.648 90.0241 168.859C88.3843 169.387 86.7459 169.921 85.109 170.459C84.8468 170.546 84.9343 170.401 85.6905 169.208C89.0936 163.885 94.2711 153.443 97.18 146.054C97.6746 144.774 98.169 143.495 98.2564 143.204C98.3729 142.796 98.518 142.651 98.896 142.447C99.0996 142.39 99.3035 142.331 99.3906 142.331ZM93.5736 144.745C93.6606 144.804 92.1771 147.916 90.7227 150.767C87.901 156.264 84.8178 161.675 80.6875 168.248C79.9894 169.383 79.3206 170.43 79.2332 170.546C79.0879 170.75 79.0294 170.692 78.5641 169.79C77.5751 167.841 76.7604 165.339 76.3242 163.041C75.8877 160.772 75.9752 156.817 76.4699 154.374C76.8476 152.57 76.8189 152.599 77.6914 152.163C81.4146 150.272 93.4571 144.629 93.5736 144.745ZM143.749 146.782V148.003C143.749 154.49 143.051 163.391 142.033 169.878C141.858 171.012 141.712 171.942 141.684 171.972C141.684 171.972 140.84 171.739 139.852 171.448C135.489 170.081 130.747 168.074 126.471 165.718C123.649 164.176 119.548 161.645 119.665 161.529C119.693 161.5 120.915 160.86 122.34 160.104C128.042 157.137 133.51 153.937 138.252 150.767C140.026 149.574 142.702 147.655 143.284 147.131L143.749 146.782ZM71.6119 155.391C71.7282 155.391 71.6991 155.624 71.5246 156.671C71.4082 157.428 71.2629 158.824 71.2051 159.783C70.9719 164.03 71.6704 167.172 73.7647 171.477C74.3464 172.669 74.8121 173.658 74.7826 173.687C74.5789 173.862 55.3233 179.505 49.2726 181.163C47.4693 181.657 45.8989 182.094 45.7819 182.122C45.5787 182.181 45.5495 182.152 45.6367 181.657C46.3056 177.382 49.5636 171.797 54.101 167.084C57.1263 163.943 59.5407 162.111 63.6711 159.754C66.638 158.067 71.2047 155.537 71.5537 155.42C71.554 155.391 71.583 155.391 71.6119 155.391ZM116.989 163.507C117.018 163.478 117.716 163.856 118.559 164.35C124.784 167.957 133.452 171.303 140.84 173.019L141.509 173.164L140.578 173.687C136.71 175.84 123.999 181.134 110.997 185.992C109.106 186.689 107.244 187.388 106.895 187.533C106.546 187.678 106.226 187.766 106.226 187.737C106.226 187.707 106.75 186.689 107.418 185.439C111.054 178.632 114.72 170.342 116.581 164.583C116.814 164.03 116.959 163.536 116.989 163.507ZM112.364 165.019C112.393 165.049 112.16 165.659 111.869 166.357C109.339 172.495 106.022 179.185 101.776 186.69C100.7 188.61 99.7979 190.152 99.7684 190.152C99.7398 190.152 98.8669 189.628 97.8198 188.988C91.6529 185.206 86.1847 180.552 82.6072 176.044L82.0834 175.404L84.7301 174.677C94.2128 172.088 102.27 169.296 110.269 165.863C111.404 165.398 112.335 165.019 112.364 165.019ZM141.102 175.055C141.131 175.724 139.648 181.716 138.426 186.05C137.408 189.685 136.535 192.536 134.936 197.568C134.238 199.779 133.627 201.611 133.598 201.611C133.569 201.611 133.394 201.582 133.22 201.525C124.581 199.953 116.843 197.772 109.571 194.863C107.535 194.049 104.626 192.74 104.452 192.594C104.394 192.536 106.139 191.722 108.35 190.762C121.585 184.973 135.314 178.399 140.026 175.578C140.578 175.229 141.015 175.055 141.102 175.055ZM74.7536 177.324C74.8118 177.382 71.1177 182.705 65.9398 189.948C64.1365 192.478 62.0423 195.445 61.2571 196.55C60.4716 197.656 59.2791 199.401 58.6101 200.448L57.3879 202.339L56.0788 201.234C54.5371 199.954 51.8614 197.22 50.6688 195.707C48.1671 192.595 46.4804 189.308 45.8113 186.312C45.4913 184.916 45.4912 184.217 45.7818 184.13C46.218 184.014 53.9845 182.182 61.2568 180.494C65.3 179.564 69.9828 178.458 71.6699 178.051C73.3572 177.643 74.7247 177.324 74.7536 177.324ZM78.4767 178.749L79.4071 179.796C83.5963 184.479 87.8721 187.941 93.0496 190.966C93.9807 191.49 94.6786 191.955 94.6201 191.984C94.417 192.13 76.644 198.441 68.4123 201.292C63.7876 202.92 59.9769 204.229 59.9482 204.229C59.9192 204.229 59.6573 204.055 59.3659 203.851L58.8427 203.473L59.6861 202.252C62.4202 198.296 65.853 193.962 73.3285 184.945L78.4767 178.749ZM101.689 195.358C101.717 195.329 102.997 195.794 104.568 196.376C108.35 197.801 111.345 198.703 115.36 199.721C120.305 200.972 127.46 202.194 131.678 202.543C132.318 202.601 132.667 202.659 132.551 202.746C132.347 202.863 128.071 204.288 124.93 205.277C119.926 206.848 104.656 211.356 92.2062 214.934C89.9082 215.603 87.9301 216.156 87.8139 216.185C87.5233 216.243 86.563 215.981 86.563 215.865C86.563 215.807 87.2611 214.905 88.1048 213.916C92.2931 208.913 96.453 203.328 99.9145 198.034C100.874 196.579 101.689 195.387 101.689 195.358ZM96.569 195.504C96.598 195.533 94.533 198.848 90.9266 204.549C89.3846 206.964 87.6683 209.698 87.0573 210.658C86.4756 211.589 85.6031 213.043 85.1088 213.857L84.2651 215.341L83.8289 215.225C82.7814 214.934 75.4224 212.345 73.4735 211.56C71.059 210.6 68.5576 209.436 66.6958 208.447C64.3691 207.196 61.4606 205.335 61.693 205.277C61.7511 205.248 65.7362 204.171 70.5354 202.863C83.276 199.401 90.344 197.394 94.9694 195.94C95.8131 195.678 96.5401 195.474 96.569 195.504ZM132.783 203.997H132.812C132.929 204.288 128.217 217.377 126.5 221.507C126.122 222.438 125.977 222.671 125.773 222.642C125.279 222.613 118.443 221.653 114.283 221.042C107.041 219.937 94.882 217.813 91.8281 217.115L91.13 216.97L95.4635 215.98C104.772 213.886 109.251 212.752 113.789 211.356C119.519 209.611 125.192 207.429 130.922 204.753C131.823 204.346 132.58 204.026 132.783 203.997Z" fill="url(#paint0_linear_164_580)"/>
<path d="M111.172 32.0015C110.532 31.9147 100.205 35.6379 93.5443 38.3427C84.556 42.0081 77.5754 45.4988 73.2702 48.5233C71.6707 49.6582 69.6632 51.665 69.3437 52.4502C69.2274 52.7411 69.1689 53.0902 69.1689 53.4392L73.0669 57.1334L82.3456 60.1003L104.423 64.0563L129.671 68.3904L129.933 66.2089C129.846 66.2089 129.787 66.1799 129.701 66.1799L126.384 65.6561L125.716 64.4636C122.283 58.4133 118.502 50.9086 116.291 45.8473C114.575 41.9204 112.946 37.3832 112.044 34.1252C111.55 32.1473 111.492 32.031 111.172 32.002V32.0014H111.172V32.0015ZM110.706 33.4854H110.735C110.764 33.5141 110.88 34.3291 110.997 35.2884C111.491 39.3613 112.393 43.2875 113.819 47.5345C114.895 50.7342 114.895 50.5599 113.644 50.1815C110.677 49.3673 97.3841 47.0693 87.7562 45.7313C86.2144 45.5276 84.9054 45.3241 84.9054 45.2951C84.7891 45.1788 91.8572 41.4844 94.9696 40.0303C98.9546 38.1974 109.891 33.6307 110.706 33.4854ZM82.6652 46.5165L83.8001 46.8942C89.9663 48.9889 105.47 51.9559 114.022 52.654C114.981 52.7413 115.796 52.8287 115.825 52.8287C115.854 52.8577 115.04 53.294 113.992 53.7883C109.862 55.8536 105.325 58.3843 102.183 60.3333C101.253 60.9147 100.409 61.3804 100.293 61.3804C100.176 61.3804 99.5656 61.264 98.9256 61.1767L97.7621 61.0019L94.8537 58.1512C89.7342 53.1775 85.72 49.338 84.1783 47.8833L82.6652 46.5165ZM81.5022 47.418L85.6034 52.5377C87.8429 55.3592 90.1118 58.1223 90.6068 58.7329C91.1008 59.3442 91.5083 59.8388 91.4793 59.8678C91.3629 59.955 85.5458 58.8204 82.462 58.1226C79.2915 57.3952 77.9826 57.0462 76.0338 56.4356L74.4338 55.9118V55.5043C74.4628 53.5553 76.9356 50.6468 81.124 47.6801L81.5022 47.418ZM116.349 54.3992C116.466 54.3992 116.611 54.6609 116.96 55.4462C117.948 57.6276 121.032 63.5036 121.788 64.6379C122.021 65.0164 122.428 65.0454 118.327 64.3763C108.467 62.7761 105.296 62.2531 105.296 62.1949C105.296 62.1659 105.587 61.9622 105.965 61.7584C109.019 60.0717 112.102 57.919 114.837 55.621C115.506 55.0682 116.116 54.5447 116.233 54.4572C116.261 54.3992 116.32 54.3702 116.349 54.3992Z" fill="url(#paint1_linear_164_580)"/>
<path d="M69.5465 52.043C69.5465 52.043 68.907 53.0614 69.5177 54.5741C69.8962 55.5046 71.0013 56.6388 72.2519 57.8025C72.2519 57.8025 85.1958 70.4264 86.7666 72.2301C93.9219 80.4908 97.0344 88.6354 97.3254 99.8633C97.4999 107.077 96.1324 113.418 92.7294 120.777C86.6792 133.983 73.9095 148.556 54.2173 164.729L57.0974 163.769C58.9589 162.373 61.4896 160.89 67.4233 157.632C81.1233 150.127 96.5399 143.233 115.447 136.136C142.672 125.896 187.439 113.912 212.919 110.015L215.566 109.607L215.159 108.967C212.832 105.36 211.232 103.121 209.312 100.736C203.728 93.8128 196.951 88.1992 188.66 83.545C177.258 77.1751 162.51 72.2012 143.836 68.507C140.317 67.8085 132.579 66.4707 126.296 65.5108C112.974 63.4461 104.364 62.0205 94.8819 60.3916C91.4789 59.8096 86.3881 58.9372 83.014 58.2102C81.2687 57.8317 77.924 57.0464 75.3061 56.1448C73.2119 55.3299 70.1865 54.5155 69.5465 52.043ZM77.0516 59.3152C77.0803 59.2865 77.5456 59.4604 78.1568 59.6642C79.2621 60.0419 80.6873 60.4784 82.3748 60.9441C83.6515 61.2952 84.9313 61.6346 86.2143 61.962C87.9595 62.3981 89.4136 62.8055 89.4426 62.8055C89.6466 63.0092 92.5845 72.4038 93.5735 76.0108C93.9511 77.3783 94.2426 78.5415 94.2135 78.5415C94.1836 78.571 93.864 78.0762 93.4861 77.4073C90.0827 71.4151 84.7015 65.3359 78.4766 60.449C77.6626 59.8678 77.0516 59.3441 77.0516 59.3152ZM91.3626 63.2711C91.5081 63.2711 92.1481 63.3584 92.933 63.5327C97.878 64.638 106.75 66.3251 112.422 67.2851C113.382 67.4304 114.138 67.6053 114.138 67.6631C114.138 67.7216 113.789 67.9248 113.352 68.1578C112.393 68.6521 108.524 70.9498 107.244 71.8226C104.015 73.9751 101.107 76.302 99.0125 78.3963C98.1691 79.24 97.4415 79.938 97.4415 79.938C97.4415 79.938 97.2676 79.4437 97.1215 78.8325C96.075 74.7893 93.893 68.7971 91.9151 64.5797C91.595 63.9109 91.3331 63.2999 91.3331 63.2419C91.3331 63.3 91.3331 63.2711 91.3626 63.2711ZM116.552 68.0705C116.727 68.1284 117.018 69.1175 117.599 71.299C118.676 75.5169 119.17 80.2291 118.996 84.6213C118.937 85.843 118.879 86.9772 118.821 87.123L118.734 87.4135L117.221 86.9193C114.109 85.9303 109.048 84.4465 104.714 83.2251C102.241 82.556 100.235 81.9452 100.235 81.8871C100.235 81.7123 103.842 78.1056 105.383 76.7386C108.32 74.1494 116.29 67.983 116.552 68.0705ZM118.559 68.361C118.647 68.2742 130.602 70.339 136.041 71.3863C140.085 72.1715 145.96 73.3933 146.309 73.539C146.483 73.5969 145.872 73.946 143.923 74.8185C136.245 78.2802 130.543 81.3921 124.872 85.1739C123.388 86.1629 122.137 86.9772 122.108 86.9772C122.079 86.9772 122.05 86.1339 122.05 85.1157C122.05 79.5892 120.945 74.0043 118.908 69.2922C118.705 68.8267 118.53 68.3905 118.559 68.361ZM149.479 74.4698C149.567 74.5569 149.188 76.9133 148.839 78.3092C147.792 82.6433 144.971 89.0721 141.51 95.122C140.898 96.1982 140.346 97.0709 140.287 97.0999C140.23 97.1289 139.444 96.6924 138.542 96.1689C135.168 94.1909 131.329 92.3294 127.14 90.5839C125.977 90.0896 124.959 89.6822 124.93 89.6245C124.726 89.4497 134.092 83.254 139.037 80.2871C142.964 77.9021 149.363 74.3532 149.479 74.4698ZM151.69 74.8186C151.952 74.8186 157.246 76.2732 160.009 77.0876C166.845 79.1239 174.698 82.0034 179.817 84.3303L181.941 85.2906L180.458 85.6394C167.95 88.5188 157.246 91.8353 146.92 96.0237C146.076 96.3728 145.32 96.6637 145.262 96.6637C145.204 96.6637 145.494 95.9948 145.873 95.18C148.985 88.5773 150.992 81.6835 151.486 75.8075C151.516 75.2547 151.602 74.8186 151.69 74.8186ZM98.9835 86.9193C99.0706 86.8318 103.114 87.7919 105.295 88.4022C108.611 89.3334 115.65 91.6892 115.65 91.864C115.65 91.8929 114.865 92.562 113.935 93.3767C110.124 96.5473 106.459 99.8919 102.066 104.139C100.757 105.39 99.6525 106.408 99.5945 106.408C99.536 106.408 99.5075 106.233 99.536 106C100.205 101.114 100.06 94.8309 99.1291 88.4607C99.0415 87.646 98.9544 86.9482 98.9835 86.9193ZM183.948 87.0067C184.006 87.0645 182.086 90.0896 180.865 91.8056C179.12 94.3071 176.559 97.6237 170.771 104.895C167.717 108.735 164.285 113.069 163.151 114.523C161.987 115.978 161.027 117.199 160.998 117.199C160.969 117.199 160.591 116.676 160.184 116.036C156.926 111.149 153.028 106.873 148.403 103.034C147.53 102.306 146.571 101.521 146.251 101.288C145.931 101.056 145.669 100.823 145.669 100.794C145.669 100.707 150.613 98.583 154.366 97.0708C160.94 94.3945 169.898 91.195 176.618 89.1297C180.137 88.0245 183.89 86.9482 183.948 87.0067ZM186.188 87.5881C186.304 87.5592 187.002 87.9082 187.846 88.4022C194.914 92.4454 201.837 97.6524 207.306 103.005C208.847 104.517 212.658 108.473 212.599 108.502C212.599 108.502 211.261 108.619 209.691 108.735C197.445 109.666 181.767 112.254 166.699 115.89C165.681 116.122 164.78 116.326 164.721 116.326C164.664 116.326 165.798 115.192 167.223 113.825C176.066 105.302 180.109 99.9213 184.879 90.3221C185.548 88.8972 186.13 87.6755 186.188 87.5881C186.159 87.5881 186.159 87.5881 186.188 87.5881ZM121.41 94.2204C121.817 94.3072 125.599 96.0822 128.449 97.5071C131.067 98.8156 134.994 100.91 135.198 101.085C135.227 101.114 133.83 101.841 132.115 102.685C126.646 105.419 121.963 108.007 117.076 110.974C115.68 111.818 114.516 112.516 114.487 112.516C114.371 112.516 114.4 112.399 115.185 110.974C117.803 106.204 119.897 100.503 121.09 94.9472C121.206 94.511 121.323 94.2204 121.41 94.2204ZM117.628 94.9182C117.716 95.0057 116.727 98.5831 116.116 100.532C114.923 104.226 112.916 108.851 110.968 112.342C110.502 113.156 109.804 114.348 109.426 115.017L108.699 116.181L107.07 114.611C105.179 112.778 103.637 111.643 101.66 110.625C100.874 110.218 100.263 109.869 100.263 109.811C100.263 109.578 105.237 105.07 109.048 101.812C111.782 99.4558 117.541 94.831 117.628 94.9182ZM140.754 104.43L142.179 105.361C145.436 107.484 149.275 110.306 152.214 112.778C153.871 114.145 157.071 117.025 157.711 117.723L158.06 118.101L155.704 118.77C142.382 122.464 132.085 125.751 120.072 130.172C118.734 130.667 117.599 131.074 117.512 131.074C117.338 131.074 117.192 131.219 120.188 128.456C127.868 121.388 134.674 113.592 139.735 106L140.754 104.43ZM134.674 105.943C134.732 106 130.747 111.614 128.362 114.785C125.511 118.566 120.45 124.907 116.959 129.037C115.505 130.754 114.255 132.179 114.196 132.208C114.109 132.237 114.08 131.801 114.08 131.132C114.08 127.612 113.178 123.86 111.607 120.661C110.938 119.323 110.822 119.002 110.968 118.857C111.52 118.363 119.985 113.534 125.337 110.655C128.944 108.735 134.586 105.884 134.674 105.943ZM97.907 114.96C97.9944 114.96 98.6635 115.308 99.4199 115.716C101.281 116.734 102.939 117.868 104.423 119.09C104.481 119.148 103.725 119.759 102.736 120.486C99.9724 122.464 95.7839 125.635 93.3409 127.584C90.7806 129.62 90.6939 129.678 90.9845 129.242C92.9044 126.304 93.8639 124.646 94.8824 122.523C95.7839 120.632 96.6854 118.392 97.3254 116.443C97.558 115.6 97.849 114.96 97.907 114.96ZM107.71 122.639C107.855 122.61 108.03 122.871 108.815 124.035C110.473 126.507 111.753 129.823 112.073 132.499L112.131 133.081L108.146 134.623C101.019 137.386 94.4461 140.121 89.9951 142.156C88.7447 142.738 86.563 143.785 85.138 144.484C83.7125 145.211 82.549 145.763 82.549 145.734C82.549 145.705 83.4506 145.036 84.5558 144.222C93.2536 137.91 100.787 130.987 106.43 124.064C107.041 123.337 107.594 122.668 107.651 122.639L107.71 122.639ZM103.201 123.744C103.318 123.86 100.002 127.613 97.733 129.91C92.1191 135.641 86.5633 140.121 79.6693 144.484C78.7968 145.036 78.0116 145.531 77.9241 145.589C77.7204 145.705 77.9821 145.414 81.0073 142.127C82.9273 140.062 84.3815 138.317 86.0395 136.165C87.1447 134.74 87.3485 134.536 88.9486 133.401C93.2245 130.318 103.085 123.628 103.201 123.744Z" fill="url(#paint2_radial_164_580)"/>
</g>
<defs>
<linearGradient id="paint0_linear_164_580" x1="68.9522" y1="205.154" x2="82.8676" y2="196.931" gradientUnits="userSpaceOnUse">
<stop stop-color="#909CA9"/>
<stop offset="1" stop-color="#EDEDEE"/>
</linearGradient>
<linearGradient id="paint1_linear_164_580" x1="69.271" y1="50.1391" x2="80.4677" y2="50.1391" gradientUnits="userSpaceOnUse">
<stop stop-color="#939FAB"/>
<stop offset="1" stop-color="#DCDEE1"/>
</linearGradient>
<radialGradient id="paint2_radial_164_580" cx="0" cy="0" r="1" gradientUnits="userSpaceOnUse" gradientTransform="translate(125.769 101.491) rotate(-171.457) scale(14.4357 28.8785)">
<stop stop-color="#EE352C"/>
<stop offset="1" stop-color="#A91D22"/>
</radialGradient>
<clipPath id="clip0_164_580">
<rect width="256" height="256" fill="white"/>
</clipPath>
</defs>
</svg>
