<svg width="256" height="256" viewBox="0 0 256 256" fill="none" xmlns="http://www.w3.org/2000/svg">
<rect width="256" height="256" rx="60" fill="#F4F2ED"/>
<path d="M165.018 97.5468L142.048 105.047L122.064 113.867L116.473 115.343C115.049 116.698 113.556 118.07 111.941 119.459C110.17 120.986 108.521 122.376 107.253 123.382C105.847 124.494 103.763 126.577 102.704 127.896C101.124 129.876 99.8743 131.977 99.336 133.591C98.381 136.508 98.85 139.46 100.69 142.186C103.052 145.658 107.757 149.2 113.243 151.614C116.039 152.847 120.744 154.426 124.286 155.312C130.172 156.805 141.562 158.42 147.829 158.663C149.097 158.715 150.798 158.715 150.867 158.663C151.007 158.576 151.979 156.718 153.108 154.409C156.962 146.544 159.74 139.165 161.25 132.862C162.153 129.043 162.865 123.956 163.334 117.931C163.455 116.247 163.507 110.604 163.403 108.694C163.247 105.569 162.969 103.034 162.535 100.551C162.466 100.186 162.448 99.8564 162.483 99.8391C162.552 99.787 162.761 99.7176 165.591 98.9014L165.018 97.5473V97.5469H165.018V97.5468ZM159.775 100.62C159.983 100.62 160.539 105.95 160.678 109.319C160.712 110.031 160.695 110.499 160.66 110.499C160.521 110.499 157.726 108.85 155.73 107.6C153.993 106.506 150.694 104.318 150.174 103.902C150 103.78 150.017 103.763 151.441 103.277C153.854 102.46 159.584 100.62 159.775 100.62ZM148.073 104.475C148.229 104.475 148.628 104.7 149.583 105.291C153.16 107.53 158.021 110.239 160.105 111.142C160.747 111.42 160.816 111.315 159.341 112.323C156.181 114.476 152.239 116.594 147.412 118.729C146.562 119.111 145.85 119.406 145.833 119.406C145.798 119.406 145.902 118.973 146.041 118.452C147.204 114.128 147.864 109.753 147.899 106.245C147.916 104.509 147.916 104.509 148.073 104.457C148.038 104.475 148.055 104.475 148.073 104.475ZM145.659 105.395C145.763 105.499 145.694 109.388 145.555 110.447C145.242 112.982 144.756 115.343 143.958 118C143.767 118.642 143.593 119.181 143.559 119.215C143.489 119.302 141.11 116.975 140.329 116.073C138.974 114.51 137.916 112.947 137.134 111.42C136.735 110.638 136.11 109.11 136.162 109.058C136.44 108.867 145.59 105.325 145.659 105.395ZM134.304 109.857C134.321 109.857 134.339 109.857 134.356 109.874C134.391 109.909 134.513 110.187 134.617 110.499C135.172 112.01 136.422 114.232 137.499 115.656C138.679 117.219 140.225 118.885 141.509 119.979C141.926 120.326 142.308 120.656 142.36 120.708C142.464 120.813 142.499 120.795 139.669 121.872C136.388 123.122 132.811 124.372 128.713 125.691C127.734 126.007 126.756 126.325 125.779 126.646C125.623 126.699 125.675 126.612 126.126 125.9C128.158 122.722 131.248 116.489 132.985 112.079C133.28 111.315 133.575 110.551 133.627 110.378C133.697 110.135 133.783 110.048 134.009 109.926C134.13 109.892 134.252 109.857 134.304 109.857ZM130.832 111.298C130.884 111.333 129.998 113.19 129.13 114.892C127.446 118.173 125.606 121.403 123.14 125.327C122.723 126.004 122.324 126.629 122.272 126.699C122.185 126.82 122.15 126.785 121.873 126.247C121.282 125.084 120.796 123.591 120.536 122.219C120.275 120.865 120.327 118.503 120.623 117.045C120.848 115.969 120.831 115.986 121.352 115.725C123.574 114.597 130.762 111.229 130.832 111.298ZM160.782 112.514V113.243C160.782 117.115 160.365 122.427 159.757 126.299C159.653 126.976 159.566 127.532 159.549 127.549C159.549 127.549 159.046 127.411 158.455 127.237C155.851 126.421 153.021 125.223 150.468 123.817C148.784 122.896 146.336 121.386 146.406 121.316C146.423 121.299 147.152 120.917 148.003 120.465C151.406 118.695 154.67 116.785 157.5 114.892C158.559 114.18 160.156 113.034 160.504 112.722L160.782 112.514ZM117.723 117.652C117.792 117.652 117.775 117.791 117.671 118.416C117.601 118.868 117.515 119.701 117.48 120.274C117.341 122.809 117.758 124.684 119.008 127.254C119.355 127.966 119.633 128.556 119.615 128.573C119.494 128.678 108 132.046 104.388 133.036C103.312 133.331 102.375 133.591 102.305 133.608C102.184 133.643 102.166 133.626 102.218 133.331C102.617 130.779 104.562 127.445 107.271 124.632C109.076 122.757 110.518 121.663 112.983 120.257C114.754 119.25 117.48 117.74 117.688 117.67C117.688 117.652 117.706 117.652 117.723 117.652ZM144.808 122.497C144.826 122.479 145.242 122.705 145.746 123C149.461 125.153 154.635 127.15 159.045 128.174L159.445 128.261L158.889 128.573C156.58 129.858 148.993 133.018 141.232 135.918C140.103 136.334 138.992 136.751 138.783 136.838C138.575 136.925 138.384 136.977 138.384 136.96C138.384 136.942 138.697 136.334 139.096 135.588C141.266 131.525 143.454 126.577 144.565 123.139C144.704 122.809 144.791 122.514 144.808 122.497ZM142.048 123.4C142.065 123.417 141.926 123.782 141.753 124.198C140.242 127.862 138.263 131.855 135.728 136.335C135.086 137.481 134.547 138.401 134.53 138.401C134.512 138.401 133.991 138.088 133.366 137.706C129.685 135.449 126.421 132.671 124.286 129.98L123.973 129.598L125.553 129.164C131.213 127.619 136.023 125.952 140.797 123.903C141.475 123.625 142.03 123.4 142.048 123.4ZM159.202 129.39C159.219 129.789 158.334 133.366 157.604 135.952C156.997 138.123 156.476 139.825 155.521 142.828C155.104 144.148 154.74 145.241 154.722 145.241C154.705 145.241 154.601 145.224 154.497 145.19C149.34 144.252 144.722 142.95 140.381 141.213C139.165 140.727 137.429 139.946 137.325 139.859C137.291 139.824 138.332 139.338 139.652 138.765C147.552 135.31 155.747 131.386 158.559 129.702C158.889 129.494 159.15 129.39 159.202 129.39ZM119.598 130.744C119.633 130.779 117.428 133.956 114.337 138.279C113.261 139.79 112.011 141.561 111.542 142.22C111.073 142.88 110.361 143.922 109.962 144.547L109.232 145.676L108.451 145.016C107.531 144.252 105.934 142.62 105.222 141.717C103.729 139.859 102.722 137.897 102.322 136.109C102.131 135.276 102.131 134.859 102.305 134.807C102.565 134.738 107.201 133.644 111.542 132.636C113.955 132.081 116.75 131.421 117.757 131.178C118.765 130.935 119.581 130.744 119.598 130.744ZM121.82 131.595L122.376 132.22C124.876 135.015 127.429 137.082 130.519 138.887C131.075 139.2 131.491 139.477 131.456 139.495C131.335 139.582 120.727 143.349 115.813 145.051C113.053 146.023 110.778 146.804 110.761 146.804C110.743 146.804 110.587 146.7 110.413 146.578L110.101 146.353L110.604 145.624C112.236 143.262 114.285 140.675 118.747 135.293L121.82 131.595ZM135.676 141.509C135.693 141.491 136.457 141.769 137.394 142.117C139.652 142.967 141.44 143.505 143.836 144.113C146.788 144.86 151.059 145.589 153.577 145.797C153.959 145.832 154.167 145.867 154.097 145.919C153.976 145.988 151.424 146.839 149.548 147.429C146.562 148.367 137.447 151.058 130.016 153.194C128.644 153.593 127.463 153.923 127.394 153.94C127.22 153.975 126.647 153.819 126.647 153.749C126.647 153.715 127.064 153.176 127.567 152.586C130.068 149.6 132.551 146.266 134.617 143.106C135.19 142.238 135.676 141.526 135.676 141.509ZM132.62 141.596C132.637 141.613 131.405 143.592 129.252 146.995C128.331 148.436 127.307 150.068 126.942 150.641C126.595 151.197 126.074 152.065 125.779 152.551L125.276 153.437L125.015 153.367C124.39 153.194 119.997 151.648 118.834 151.179C117.393 150.606 115.9 149.912 114.788 149.322C113.4 148.575 111.663 147.464 111.802 147.429C111.837 147.412 114.216 146.769 117.08 145.988C124.685 143.922 128.904 142.724 131.665 141.856C132.169 141.7 132.603 141.578 132.62 141.596ZM154.236 146.665H154.253C154.323 146.839 151.51 154.652 150.486 157.117C150.26 157.673 150.174 157.812 150.052 157.794C149.757 157.777 145.677 157.204 143.194 156.84C138.87 156.18 131.613 154.912 129.79 154.496L129.373 154.409L131.96 153.818C137.516 152.568 140.19 151.891 142.898 151.058C146.319 150.016 149.705 148.714 153.125 147.117C153.663 146.874 154.115 146.683 154.236 146.665Z" fill="url(#paint0_linear_3_47)"/>
<path d="M141.336 44.0009C140.954 43.9491 134.79 46.1714 130.814 47.786C125.449 49.9739 121.282 52.0575 118.713 53.8628C117.758 54.5402 116.56 55.7381 116.369 56.2068C116.299 56.3804 116.265 56.5888 116.265 56.7971L118.591 59.0022L124.13 60.7731L137.308 63.1345L152.378 65.7215L152.535 64.4193C152.483 64.4193 152.448 64.402 152.396 64.402L150.416 64.0894L150.017 63.3776C147.968 59.7661 145.711 55.2866 144.392 52.2655C143.368 49.9215 142.395 47.2133 141.857 45.2686C141.562 44.0879 141.527 44.0185 141.336 44.0012V44.0008H141.336V44.0009ZM141.058 44.8866H141.076C141.093 44.9038 141.162 45.3903 141.232 45.9629C141.527 48.394 142.065 50.7375 142.916 53.2726C143.558 55.1825 143.558 55.0784 142.812 54.8526C141.041 54.3666 133.106 52.9949 127.359 52.1962C126.439 52.0746 125.658 51.9532 125.658 51.9359C125.588 51.8665 129.807 49.6612 131.665 48.7933C134.044 47.6992 140.572 44.9734 141.058 44.8866ZM124.321 52.6649L124.998 52.8904C128.679 54.1407 137.933 55.9117 143.037 56.3284C143.61 56.3805 144.097 56.4327 144.114 56.4327C144.131 56.45 143.645 56.7105 143.02 57.0055C140.555 58.2383 137.846 59.7488 135.971 60.9122C135.415 61.2593 134.912 61.5373 134.842 61.5373C134.773 61.5373 134.408 61.4678 134.026 61.4156L133.332 61.3113L131.596 59.6097C128.54 56.6409 126.144 54.3491 125.224 53.4808L124.321 52.6649ZM123.626 53.2031L126.074 56.259C127.411 57.9431 128.765 59.5925 129.061 59.9569C129.356 60.3218 129.599 60.6171 129.582 60.6344C129.512 60.6864 126.04 60.0091 124.199 59.5926C122.307 59.1584 121.525 58.9501 120.362 58.5857L119.407 58.273V58.0298C119.425 56.8664 120.901 55.1303 123.401 53.3595L123.626 53.2031ZM144.426 57.3701C144.496 57.3701 144.583 57.5263 144.791 57.9951C145.381 59.2972 147.222 62.8046 147.673 63.4816C147.812 63.7076 148.055 63.7249 145.607 63.3255C139.721 62.3703 137.829 62.0582 137.829 62.0234C137.829 62.0061 138.002 61.8845 138.228 61.7629C140.051 60.7561 141.892 59.4711 143.524 58.0994C143.923 57.7695 144.288 57.457 144.357 57.4048C144.374 57.3701 144.409 57.3528 144.426 57.3701Z" fill="url(#paint1_linear_3_47)"/>
<path d="M116.49 55.9637C116.49 55.9637 116.108 56.5716 116.473 57.4745C116.699 58.0299 117.358 58.7069 118.105 59.4016C118.105 59.4016 125.831 66.9368 126.769 68.0134C131.04 72.9442 132.898 77.8058 133.071 84.5078C133.175 88.8136 132.359 92.5986 130.328 96.9914C126.717 104.874 119.094 113.573 107.34 123.226L109.059 122.653C110.17 121.82 111.681 120.934 115.223 118.99C123.4 114.51 132.602 110.395 143.888 106.159C160.139 100.047 186.86 92.8935 202.069 90.5672L203.65 90.324L203.406 89.942C202.018 87.789 201.062 86.4522 199.916 85.0285C196.583 80.8962 192.538 77.5454 187.589 74.7673C180.783 70.9651 171.98 67.9961 160.834 65.7911C158.733 65.3742 154.114 64.5756 150.364 64.0027C142.412 62.7702 137.273 61.9193 131.613 60.947C129.582 60.5996 126.543 60.0789 124.529 59.6449C123.487 59.419 121.491 58.9503 119.928 58.4121C118.678 57.9257 116.872 57.4395 116.49 55.9637ZM120.97 60.3045C120.987 60.2873 121.265 60.3912 121.63 60.5128C122.289 60.7383 123.14 60.9988 124.147 61.2768C124.909 61.4864 125.673 61.6889 126.439 61.8844C127.481 62.1447 128.349 62.3878 128.366 62.3878C128.488 62.5095 130.241 68.1171 130.832 70.2702C131.057 71.0864 131.231 71.7807 131.214 71.7807C131.196 71.7983 131.005 71.503 130.78 71.1037C128.748 67.527 125.536 63.8983 121.82 60.9813C121.335 60.6343 120.97 60.3218 120.97 60.3045ZM129.512 62.6658C129.599 62.6658 129.981 62.7179 130.449 62.822C133.401 63.4817 138.697 64.4887 142.082 65.0618C142.655 65.1485 143.107 65.2529 143.107 65.2874C143.107 65.3223 142.898 65.4436 142.638 65.5827C142.065 65.8777 139.756 67.2492 138.992 67.7702C137.065 69.055 135.329 70.444 134.078 71.694C133.575 72.1976 133.141 72.6143 133.141 72.6143C133.141 72.6143 133.037 72.3192 132.95 71.9544C132.325 69.541 131.023 65.9643 129.842 63.4469C129.651 63.0477 129.494 62.683 129.494 62.6484C129.494 62.683 129.494 62.6658 129.512 62.6658ZM144.548 65.5306C144.652 65.5651 144.826 66.1555 145.173 67.4576C145.815 69.9754 146.111 72.788 146.006 75.4097C145.971 76.139 145.937 76.816 145.902 76.903L145.85 77.0765L144.947 76.7814C143.089 76.1911 140.068 75.3054 137.482 74.5764C136.006 74.177 134.808 73.8124 134.808 73.7777C134.808 73.6734 136.961 71.5205 137.881 70.7046C139.634 69.1591 144.391 65.4783 144.548 65.5306ZM145.746 65.704C145.798 65.6522 152.934 66.8846 156.181 67.5098C158.594 67.9785 162.101 68.7078 162.31 68.7947C162.414 68.8293 162.049 69.0376 160.886 69.5585C156.302 71.6248 152.899 73.4823 149.514 75.7396C148.628 76.3299 147.882 76.816 147.864 76.816C147.847 76.816 147.83 76.3126 147.83 75.7049C147.83 72.4061 147.17 69.0725 145.954 66.2598C145.833 65.982 145.728 65.7216 145.746 65.704ZM164.202 69.3503C164.254 69.4023 164.028 70.8088 163.82 71.6421C163.195 74.2291 161.511 78.0665 159.445 81.6776C159.08 82.3201 158.75 82.841 158.715 82.8583C158.681 82.8756 158.212 82.615 157.674 82.3025C155.66 81.1219 153.368 80.0108 150.868 78.9689C150.174 78.6738 149.566 78.4306 149.548 78.3962C149.427 78.2918 155.017 74.5937 157.969 72.8227C160.313 71.3991 164.133 69.2807 164.202 69.3503ZM165.522 69.5585C165.678 69.5585 168.838 70.4268 170.487 70.9129C174.567 72.1284 179.255 73.8471 182.311 75.2361L183.578 75.8093L182.693 76.0174C175.227 77.7362 168.838 79.7158 162.674 82.2159C162.171 82.4242 161.719 82.5979 161.685 82.5979C161.65 82.5979 161.824 82.1986 162.049 81.7123C163.907 77.7711 165.105 73.6562 165.4 70.1488C165.418 69.8188 165.469 69.5585 165.522 69.5585ZM134.061 76.7814C134.113 76.7292 136.526 77.3023 137.829 77.6666C139.808 78.2224 144.01 79.6286 144.01 79.7329C144.01 79.7502 143.541 80.1496 142.985 80.6359C140.711 82.5284 138.523 84.5248 135.901 87.0598C135.12 87.8067 134.46 88.4143 134.426 88.4143C134.391 88.4143 134.374 88.3099 134.391 88.171C134.79 85.254 134.704 81.5039 134.148 77.7015C134.096 77.2152 134.044 76.7987 134.061 76.7814ZM184.777 76.8336C184.811 76.8681 183.665 78.6738 182.936 79.6981C181.895 81.1912 180.366 83.1709 176.911 87.5115C175.089 89.8031 173.039 92.3903 172.363 93.2584C171.668 94.1264 171.095 94.8555 171.077 94.8555C171.06 94.8555 170.835 94.5432 170.592 94.1613C168.647 91.2443 166.32 88.6919 163.559 86.4002C163.039 85.966 162.466 85.4972 162.275 85.3583C162.084 85.2195 161.928 85.0805 161.928 85.0633C161.928 85.0113 164.879 83.7435 167.119 82.8409C171.043 81.2434 176.39 79.3336 180.401 78.1008C182.502 77.4412 184.742 76.7987 184.777 76.8336ZM186.114 77.1806C186.183 77.1634 186.6 77.3717 187.103 77.6666C191.322 80.08 195.454 83.188 198.719 86.3828C199.639 87.2858 201.913 89.647 201.878 89.6643C201.878 89.6643 201.08 89.7338 200.142 89.8031C192.833 90.3589 183.475 91.9039 174.481 94.0741C173.873 94.2129 173.335 94.3345 173.3 94.3345C173.266 94.3345 173.943 93.6575 174.794 92.8415C180.072 87.7544 182.485 84.5423 185.332 78.8126C185.732 77.9621 186.079 77.2328 186.114 77.1806C186.096 77.1806 186.096 77.1806 186.114 77.1806ZM147.447 81.1395C147.691 81.1913 149.948 82.2508 151.649 83.1013C153.212 83.8824 155.556 85.1327 155.677 85.2368C155.695 85.254 154.861 85.6882 153.837 86.1918C150.573 87.8238 147.777 89.3689 144.86 91.1399C144.027 91.6435 143.333 92.0604 143.315 92.0604C143.246 92.0604 143.263 91.9906 143.732 91.1399C145.295 88.2927 146.545 84.8897 147.257 81.5733C147.326 81.3129 147.395 81.1395 147.447 81.1395ZM145.19 81.556C145.242 81.6082 144.652 83.7436 144.288 84.907C143.575 87.112 142.378 89.8726 141.214 91.9561C140.936 92.442 140.52 93.154 140.294 93.5532L139.86 94.2477L138.888 93.3104C137.759 92.2165 136.839 91.5394 135.659 90.9315C135.189 90.6887 134.825 90.4801 134.825 90.4456C134.825 90.3067 137.794 87.6156 140.068 85.6709C141.7 84.2645 145.138 81.504 145.19 81.556ZM158.994 87.2336L159.844 87.7891C161.789 89.0567 164.08 90.7407 165.834 92.2165C166.824 93.0323 168.734 94.7515 169.116 95.1682L169.324 95.3941L167.918 95.7933C159.966 97.9981 153.819 99.9601 146.649 102.599C145.85 102.894 145.173 103.137 145.121 103.137C145.017 103.137 144.93 103.224 146.718 101.575C151.302 97.356 155.365 92.7026 158.386 88.171L158.994 87.2336ZM155.365 88.1365C155.399 88.171 153.021 91.5219 151.597 93.4145C149.895 95.6717 146.874 99.4566 144.791 101.922C143.923 102.946 143.177 103.797 143.142 103.815C143.089 103.832 143.072 103.572 143.072 103.172C143.072 101.071 142.534 98.8314 141.596 96.9217C141.197 96.123 141.127 95.932 141.215 95.8453C141.544 95.55 146.597 92.6678 149.791 90.9491C151.944 89.8032 155.312 88.1017 155.365 88.1365ZM133.418 93.5188C133.471 93.5188 133.87 93.727 134.322 93.9702C135.433 94.5778 136.422 95.2549 137.308 95.9843C137.342 96.0189 136.891 96.3837 136.301 96.8175C134.651 97.9981 132.151 99.8908 130.693 101.054C129.165 102.27 129.113 102.304 129.286 102.044C130.432 100.29 131.005 99.3005 131.613 98.0331C132.151 96.9047 132.689 95.5677 133.071 94.4043C133.21 93.9008 133.384 93.5188 133.418 93.5188ZM139.27 98.1024C139.356 98.0852 139.461 98.2413 139.929 98.9359C140.919 100.411 141.683 102.391 141.874 103.988L141.909 104.336L139.53 105.256C135.276 106.905 131.353 108.537 128.696 109.753C127.949 110.1 126.647 110.725 125.797 111.142C124.946 111.576 124.251 111.906 124.251 111.888C124.251 111.871 124.789 111.472 125.449 110.985C130.641 107.218 135.138 103.085 138.506 98.9533C138.87 98.5191 139.2 98.1197 139.235 98.1024L139.27 98.1024ZM136.579 98.7623C136.648 98.8317 134.669 101.071 133.315 102.443C129.964 105.864 126.647 108.537 122.532 111.142C122.012 111.472 121.543 111.767 121.491 111.802C121.369 111.871 121.525 111.697 123.331 109.735C124.477 108.503 125.345 107.461 126.335 106.176C126.994 105.326 127.116 105.204 128.071 104.527C130.623 102.686 136.509 98.6927 136.579 98.7623Z" fill="url(#paint2_radial_3_47)"/>
<path d="M61.3936 170.655C61.0734 170.655 60.753 170.685 60.4355 170.685C53.9663 171.03 49.6031 173.877 47.052 179.437C44.8702 184.465 45.1084 191.038 47.0765 196.097C49.3652 201.04 53.0634 203.649 59.2362 204.635C60.5423 204.849 61.4181 205.566 63.9477 208.519L67.0602 212.166H72.7053L68.9517 208.382C66.8767 206.307 65.1985 204.5 65.1985 204.342C65.1985 204.183 65.9922 203.835 66.953 203.542C70.1204 202.584 72.7507 200.137 74.5907 196.387C76.0798 193.375 76.2936 192.444 76.507 188.697C77.0655 177.545 71.1853 170.572 61.3934 170.652L61.3936 170.655ZM66.3429 199.82C63.5966 201.15 59.6088 201.416 57.0058 200.461C54.3144 199.472 51.7086 196.677 50.5366 193.513C49.2338 190.053 49.4198 183.669 50.9089 180.794C53.3043 176.217 56.4718 174.112 61.1007 174.112C67.9663 174.112 71.872 178.317 72.3817 186.22C72.7845 192.817 70.5752 197.767 66.3458 199.817L66.3429 199.82ZM163.859 180.181C161.492 180.181 159.679 181.14 158.458 183.028L157.5 184.523V180.636H153.402V203.949H157.497V196.497C157.497 189.683 157.582 188.887 158.535 187.022C159.847 184.465 162.105 183.19 164.287 183.8L165.751 184.228V180.187H163.859V180.181ZM139.784 179.968C138.981 179.968 138.13 180.074 137.282 180.261C131.798 181.695 128.707 186.943 128.896 192.344C128.896 196.866 129.775 199.127 131.957 201.498C136.428 205.166 140.471 205.459 145.926 203.491C146.857 203.094 147.87 202.637 147.87 202.637V198.969L145.926 199.976C141.511 201.898 138.185 201.898 135.521 199.634C133.822 197.904 133.074 195.829 132.729 193.461H149.252V190.318C149.252 183.91 145.395 179.864 139.781 179.968H139.784ZM133.101 190.19C133.101 190.19 133.712 186.193 135.976 184.624C137.065 183.855 138.316 183.483 139.54 183.483C140.767 183.483 141.99 183.879 143 184.652C145.075 186.247 145.423 190.16 145.423 190.16H133.101V190.19H133.101ZM34.3062 185.985C29.8636 183.294 27.8923 181.353 28.1334 179.064C28.8229 172.733 36.6468 173.608 40.9796 176.004L41.0104 171.744C41.0104 171.744 38.615 170.707 35.182 170.652C29.9153 170.572 26.51 172.299 24.9143 175.815C22.5706 181.002 24.6458 184.914 32.1463 189.278C36.3571 191.728 38.2183 193.855 38.2183 196.174C38.2183 200.964 32.4421 202.637 26.4828 199.631C25.2564 199.021 24.2188 198.511 24.1639 198.511C23.9502 199.869 24.0603 203.119 24.0603 203.119C24.0603 203.119 25.8913 203.888 28.6373 204.418C35.4477 205.776 41.6453 202.581 42.2311 197.394C42.7408 192.524 40.9798 189.97 34.3065 185.982L34.3062 185.985ZM200.128 179.913C199.329 179.913 198.48 180.023 197.595 180.209C192.118 181.643 189.033 186.891 189.244 192.292C189.244 196.809 190.12 199.048 192.301 201.416C196.772 205.087 200.815 205.383 206.298 203.412C207.226 203.015 208.236 202.564 208.236 202.564V198.89L206.295 199.903C201.871 201.819 198.545 201.819 195.89 199.555C194.181 197.828 193.44 195.777 193.095 193.382H209.591V190.239C209.591 183.862 205.734 179.812 200.119 179.919L200.128 179.913ZM193.446 190.135C193.446 190.135 194.062 186.144 196.323 184.545C197.409 183.773 198.66 183.4 199.884 183.4C201.105 183.4 202.334 183.797 203.345 184.572C205.42 186.168 205.768 190.107 205.768 190.107H193.449L193.446 190.135ZM118.333 186.037C113.89 183.352 111.925 181.405 112.163 179.116C112.852 172.781 120.676 173.66 125.009 176.056L125.04 171.796C125.04 171.796 122.644 170.759 119.211 170.71C113.945 170.63 110.539 172.357 108.941 175.873C106.6 181.06 108.703 184.972 116.178 189.335C120.383 191.783 122.245 193.882 122.245 196.201C122.245 200.992 116.471 202.691 110.512 199.658C109.291 199.048 108.254 198.544 108.193 198.544C107.979 199.902 108.089 203.152 108.089 203.152C108.089 203.152 109.899 203.894 112.636 204.452C119.453 205.813 125.653 202.621 126.236 197.433C126.743 192.588 124.985 190.034 118.333 186.043V186.037H118.333ZM224.207 180.126C221.839 180.126 220.005 181.087 218.806 182.976L217.848 184.465V180.584H213.75V203.891H217.845V196.439C217.845 189.628 217.927 188.829 218.882 186.968C220.194 184.414 222.452 183.135 224.634 183.748L226.098 184.175V180.127L224.207 180.126ZM85.7438 185.903V171.054H81.6123V203.943H98.9871V200.058H85.7439V185.903H85.7438ZM181.289 190.531L177.884 199.393L174.609 190.483L171.283 180.608H167.054C169.795 188.377 172.775 196.28 175.781 203.943C177.084 203.973 178.39 203.943 179.693 203.943L184.291 192.396L188.975 180.611H184.932C184.932 180.611 183.147 185.292 181.286 190.535L181.289 190.531ZM95.264 162.092C95.9293 162.092 96.4846 161.879 96.9423 161.421C97.3937 160.97 97.6318 160.439 97.6318 159.773C97.6318 159.108 97.3937 158.553 96.9423 158.126C96.4846 157.699 95.9566 157.485 95.2944 157.485C94.6234 157.485 94.0678 157.699 93.6161 158.15C93.1585 158.602 92.951 159.157 92.951 159.798C92.951 160.469 93.1647 161.024 93.6161 161.446C94.0435 161.873 94.5989 162.086 95.264 162.086V162.092ZM93.7995 158.309C94.196 157.912 94.6782 157.729 95.2946 157.729C95.8744 157.729 96.3566 157.912 96.7595 158.309C97.1562 158.705 97.3698 159.188 97.3698 159.773C97.3698 160.359 97.1562 160.866 96.7595 161.262C96.3568 161.659 95.8744 161.848 95.2946 161.848C94.7057 161.848 94.2266 161.665 93.83 161.262C93.4334 160.866 93.2198 160.359 93.2198 159.773C93.2198 159.188 93.4028 158.706 93.7995 158.309ZM94.7849 159.987H95.0534C95.2428 159.987 95.4288 160.17 95.5874 160.518L95.9081 161.238H96.4114L96.0149 160.438C95.8532 160.118 95.6946 159.932 95.5083 159.88C95.7433 159.825 95.9293 159.746 96.0637 159.587C96.1976 159.45 96.2466 159.264 96.2466 159.053C96.2466 158.809 96.1703 158.626 96.0088 158.492C95.8256 158.339 95.5326 158.257 95.1541 158.257H94.3062V161.238H94.7333V159.987L94.7849 159.987ZM94.7849 158.602H95.1574C95.4258 158.602 95.6151 158.657 95.7188 158.736C95.8195 158.815 95.847 158.919 95.847 159.108C95.847 159.453 95.6331 159.615 95.2367 159.615H94.7791V158.602H94.7849ZM26.5373 159.722C26.5373 158.684 26.5069 157.912 26.4824 157.457H26.5069C26.6135 157.994 26.7448 158.394 26.8516 158.66L30.8183 167.521H31.4836L35.4502 158.58C35.5573 158.337 35.6641 157.97 35.7953 157.46H35.8256C35.7464 158.346 35.719 159.114 35.719 159.728V167.548H37.0766V155.923H35.374L31.7277 164.009C31.5933 164.329 31.4072 164.808 31.1692 165.443H31.1141C31.0348 165.129 30.8487 164.65 30.5833 164.064L27.0191 155.895H25.2098V167.521H26.5158V159.727L26.5373 159.722ZM40.0519 159.743H41.2239V166.984H40.0519V159.743ZM40.6378 157.088C40.8821 157.088 41.0895 157.006 41.2481 156.844C41.4099 156.685 41.5169 156.478 41.5169 156.234C41.5169 155.996 41.4374 155.782 41.2513 155.624C41.0866 155.462 40.8759 155.379 40.6349 155.379C40.3971 155.379 40.1835 155.462 40.0245 155.624C39.8632 155.782 39.7561 155.996 39.7561 156.234C39.7561 156.5 39.8386 156.685 40.0245 156.844C40.208 157.006 40.3969 157.088 40.6349 157.088H40.6378ZM49.5787 167.143V165.867C48.9377 166.346 48.2481 166.584 47.5341 166.584C46.68 166.584 45.987 166.292 45.4804 165.73C44.9771 165.175 44.7086 164.403 44.7086 163.442C44.7086 162.435 44.9771 161.635 45.5323 161.025C46.0663 160.439 46.7592 160.146 47.6076 160.146C48.3001 160.146 48.965 160.36 49.5788 160.787V159.429C49.0204 159.136 48.3827 159.002 47.6624 159.002C46.3319 159.002 45.2947 159.429 44.5196 160.253C43.7505 161.077 43.3539 162.197 43.3539 163.549C43.3539 164.751 43.6986 165.761 44.4159 166.533C45.1634 167.326 46.1188 167.729 47.2904 167.729C48.1963 167.704 48.9377 167.515 49.5787 167.143ZM52.9319 163.283C52.9319 162.328 53.1455 161.556 53.5422 161.024C53.9147 160.546 54.3661 160.304 54.9001 160.304C55.3518 160.304 55.672 160.387 55.9069 160.573V159.188C55.7239 159.108 55.4584 159.081 55.1137 159.081C54.6346 159.081 54.2076 159.242 53.8322 159.539C53.4356 159.853 53.1182 160.332 52.9321 160.942H52.9017V159.242H51.5744V167.542H52.9046V163.283H52.9319ZM60.5696 167.707C61.8208 167.707 62.8278 167.304 63.5752 166.505C64.3196 165.711 64.6919 164.643 64.6919 163.313C64.6919 161.955 64.3504 160.918 63.6546 160.145C62.9651 159.374 62.0067 159.001 60.7555 159.001C59.5043 159.001 58.4974 159.374 57.7499 160.094C56.9505 160.887 56.5294 162.007 56.5294 163.444C56.5294 164.695 56.8712 165.733 57.5915 166.505C58.3358 167.304 59.3215 167.704 60.5696 167.704V167.707ZM58.6778 160.945C59.1843 160.411 59.8497 160.145 60.6733 160.145C61.528 160.145 62.1687 160.411 62.6447 160.945C63.1237 161.504 63.3619 162.3 63.3619 163.365C63.3619 164.378 63.1482 165.174 62.6965 165.708C62.2451 166.267 61.5798 166.563 60.7008 166.563C59.8465 166.563 59.1843 166.267 58.6778 165.708C58.1744 165.147 57.9333 164.378 57.9333 163.365C57.8815 162.358 58.147 161.534 58.6778 160.945ZM70.5174 166.984C71.0238 166.533 71.2925 165.977 71.2925 165.281C71.2925 164.671 71.0787 164.164 70.6821 163.765C70.3585 163.444 69.8584 163.154 69.1352 162.861C68.4941 162.593 68.0976 162.355 67.8838 162.169C67.6704 161.955 67.5391 161.69 67.5391 161.314C67.5391 160.97 67.6734 160.704 67.936 160.491C68.2045 160.277 68.5463 160.173 69.004 160.173C69.7211 160.173 70.3343 160.362 70.8956 160.762V159.432C70.3586 159.164 69.7758 159.035 69.1105 159.035C68.2563 159.035 67.5361 159.271 67.0049 159.725C66.4464 160.177 66.1812 160.763 66.1812 161.452C66.1812 162.062 66.3641 162.569 66.7118 162.941C67.0048 163.258 67.5056 163.582 68.201 163.872C68.8664 164.165 69.3179 164.43 69.5588 164.643C69.7968 164.857 69.9036 165.122 69.9036 165.437C69.9036 166.212 69.3728 166.612 68.3352 166.612C67.5357 166.612 66.8189 166.349 66.1777 165.819V167.252C66.7576 167.601 67.4534 167.759 68.2222 167.759C69.2079 167.707 69.9797 167.466 70.5108 166.987L70.5174 166.984ZM76.8521 159.001C75.6007 159.001 74.5939 159.374 73.8463 160.094C73.053 160.888 72.6258 162.007 72.6258 163.445C72.6258 164.696 72.9708 165.733 73.6877 166.505C74.4353 167.304 75.4178 167.704 76.669 167.704C77.9505 167.704 78.9271 167.302 79.6746 166.502C80.4222 165.709 80.7944 164.641 80.7944 163.31C80.7944 161.952 80.4465 160.915 79.7568 160.143C79.037 159.371 78.0785 158.998 76.858 158.998L76.8521 159.001ZM79.4334 163.365C79.4334 164.378 79.2198 165.175 78.7683 165.709C78.3166 166.267 77.6513 166.563 76.7724 166.563C75.9177 166.563 75.2558 166.267 74.7491 165.709C74.2458 165.147 74.0048 164.378 74.0048 163.365C74.0048 162.297 74.2704 161.473 74.8044 160.918C75.3076 160.387 75.9732 160.118 76.8 160.118C77.6237 160.118 78.2861 160.387 78.7649 160.918C79.1922 161.504 79.4303 162.3 79.4303 163.365H79.4334ZM83.0282 167.518H84.3555V160.332H86.2991V159.215H84.3554V157.934C84.3554 156.768 84.8068 156.182 85.7407 156.182C86.055 156.182 86.3754 156.261 86.6135 156.396V155.197C86.3754 155.09 86.055 155.066 85.655 155.066C84.938 155.066 84.3523 155.279 83.873 155.731C83.3145 156.262 83.0187 156.951 83.0187 157.885V159.246H81.6147V160.363H83.0187V167.522L83.0282 167.518ZM88.4807 165.254C88.4807 166.877 89.1981 167.704 90.6626 167.704C91.1937 167.704 91.5933 167.619 91.9137 167.43V166.288C91.6697 166.472 91.3797 166.557 91.0594 166.557C90.608 166.557 90.2906 166.45 90.1043 166.209C89.915 165.971 89.8084 165.568 89.8084 165.013V160.329H91.9135V159.212H89.8084V156.765C89.3506 156.924 88.9022 157.058 88.4778 157.192V159.212H87.0437V160.329H88.4778V165.251L88.4807 165.254ZM231.286 180.553C230.834 180.126 230.3 179.913 229.638 179.913C228.967 179.913 228.412 180.126 227.96 180.584C227.508 181.033 227.295 181.591 227.295 182.232C227.295 182.897 227.508 183.453 227.957 183.879C228.408 184.307 228.964 184.521 229.635 184.521C230.297 184.521 230.856 184.307 231.313 183.855C231.762 183.397 232 182.87 232 182.208C231.976 181.536 231.734 180.981 231.283 180.554L231.286 180.553ZM231.073 183.697C230.676 184.093 230.194 184.276 229.608 184.276C229.028 184.276 228.546 184.093 228.143 183.697C227.747 183.294 227.533 182.79 227.533 182.201C227.533 181.621 227.716 181.14 228.119 180.737C228.515 180.34 228.995 180.157 229.608 180.157C230.188 180.157 230.67 180.34 231.073 180.737C231.469 181.14 231.683 181.621 231.683 182.201C231.683 182.818 231.5 183.294 231.073 183.697ZM229.876 182.339C230.114 182.284 230.304 182.177 230.435 182.046C230.569 181.908 230.618 181.722 230.618 181.509C230.618 181.271 230.542 181.082 230.38 180.95C230.197 180.798 229.901 180.715 229.526 180.715H228.678V183.693H229.105V182.442H229.37C229.554 182.442 229.737 182.625 229.901 182.973L230.218 183.69H230.725L230.329 182.891C230.191 182.543 230.032 182.384 229.871 182.332L229.876 182.339ZM229.583 182.07H229.126V181.063H229.501C229.767 181.063 229.953 181.112 230.06 181.195C230.166 181.274 230.191 181.378 230.191 181.567C230.191 181.912 229.977 182.07 229.581 182.07L229.583 182.07ZM155.346 158.87H155.718V155.889H156.704V155.517H154.361V155.889H155.346V158.87H155.346ZM157.604 156.631C157.604 156.341 157.604 156.103 157.583 155.969C157.607 156.127 157.662 156.234 157.687 156.313L158.831 158.87H159.014L160.161 156.289C160.192 156.21 160.216 156.106 160.268 155.969C160.244 156.234 160.244 156.447 160.244 156.609V158.867H160.64V155.517H160.161L159.124 157.83C159.099 157.912 159.017 158.074 158.965 158.257H158.935C158.913 158.15 158.858 158.043 158.782 157.861L157.745 155.517H157.208V158.874H157.583V156.634L157.604 156.631Z" fill="#231F1F"/>
<defs>
<linearGradient id="paint0_linear_3_47" x1="116.135" y1="147.356" x2="124.441" y2="142.448" gradientUnits="userSpaceOnUse">
<stop stop-color="#909CA9"/>
<stop offset="1" stop-color="#EDEDEE"/>
</linearGradient>
<linearGradient id="paint1_linear_3_47" x1="116.326" y1="54.8272" x2="123.009" y2="54.8272" gradientUnits="userSpaceOnUse">
<stop stop-color="#939FAB"/>
<stop offset="1" stop-color="#DCDEE1"/>
</linearGradient>
<radialGradient id="paint2_radial_3_47" cx="0" cy="0" r="1" gradientUnits="userSpaceOnUse" gradientTransform="translate(150.05 85.4791) rotate(-171.457) scale(8.61668 17.2376)">
<stop stop-color="#EE352C"/>
<stop offset="1" stop-color="#A91D22"/>
</radialGradient>
</defs>
</svg>
