<?xml version="1.0" encoding="UTF-8" standalone="no" ?>
<!DOCTYPE svg PUBLIC "-//W3C//DTD SVG 1.1//EN" "http://www.w3.org/Graphics/SVG/1.1/DTD/svg11.dtd">
<svg xmlns="http://www.w3.org/2000/svg" xmlns:xlink="http://www.w3.org/1999/xlink" version="1.1" width="256" height="256" viewBox="0 0 256 256" xml:space="preserve">
<rect width="256" height="256" rx="60" fill="#F4F2ED"/>
<g transform="matrix(0.2852078932 0 0 0.2852078932 128 128)" id="TLDSYm-WiIwAorBYvjNGl"  >
<g style=""   >
		<g transform="matrix(0.3079418834 0 0 0.3079418834 16.2394100335 0.156536628)" id="VUdyL533SmiUmv5JUIr9X"  >
<linearGradient id="SVGID_23" gradientUnits="userSpaceOnUse" gradientTransform="matrix(0.1234 0 0 -0.1234 1158.33 1550.273)"  x1="-2901.952" y1="923.573" x2="-2061.249" y2="1420.331">
<stop offset="0%" style="stop-color:rgb(144,156,169);stop-opacity: 1"/>
<stop offset="100%" style="stop-color:rgb(237,237,238);stop-opacity: 1"/>
</linearGradient>
<path style="stroke: none; stroke-width: 1; stroke-dasharray: none; stroke-linecap: butt; stroke-dashoffset: 0; stroke-linejoin: miter; stroke-miterlimit: 4; fill: url(#SVGID_23); fill-rule: nonzero; opacity: 1;"  transform=" translate(-1001.1527068342, -1196.10675)" d="M 1410.773 814.195 L 1123.873 907.878 L 874.2740000000001 1018.039 L 804.4450000000002 1036.474 C 786.6610000000002 1053.3899999999999 768.0140000000001 1070.523 747.8460000000001 1087.8709999999999 C 725.7270000000001 1106.953 705.1260000000001 1124.3039999999999 689.2930000000001 1136.879 C 671.7290000000002 1150.759 645.7060000000001 1176.781 632.4790000000002 1193.259 C 612.7440000000001 1217.98 597.1310000000002 1244.219 590.4080000000001 1264.3890000000001 C 578.4800000000001 1300.8220000000001 584.3380000000001 1337.6860000000001 607.3240000000002 1371.7350000000001 C 636.8160000000001 1415.104 695.5850000000002 1459.3410000000001 764.1090000000002 1489.4840000000002 C 799.0250000000001 1504.8840000000002 857.7920000000001 1524.6160000000002 902.0290000000001 1535.6740000000002 C 975.5410000000002 1554.3250000000003 1117.8000000000002 1574.4930000000002 1196.083 1577.5310000000002 C 1211.911 1578.1810000000003 1233.1650000000002 1578.1810000000003 1234.0300000000002 1577.5310000000002 C 1235.7670000000003 1576.4430000000002 1247.9110000000003 1553.2420000000002 1262.0090000000002 1524.4020000000003 C 1310.1510000000003 1426.1640000000002 1344.8470000000002 1334.0000000000002 1363.7120000000002 1255.2830000000004 C 1374.9880000000003 1207.5770000000005 1383.8780000000002 1144.0370000000003 1389.7310000000002 1068.7910000000004 C 1391.2520000000002 1047.7550000000003 1391.9000000000003 977.2770000000004 1390.5990000000002 953.4210000000004 C 1388.6460000000002 914.3880000000004 1385.1760000000002 882.7290000000004 1379.7590000000002 851.7180000000004 C 1378.8910000000003 847.1630000000005 1378.6710000000003 843.0420000000004 1379.1070000000002 842.8260000000004 C 1379.9720000000002 842.1760000000004 1382.5740000000003 841.3090000000003 1417.9220000000003 831.1140000000004 L 1410.7690000000002 814.2020000000003 L 1410.7690000000002 814.1970000000003 L 1410.7730000000001 814.1970000000003 z M 1345.283 852.581 C 1347.885 852.581 1354.822 919.154 1356.5559999999998 961.227 C 1356.9919999999997 970.117 1356.7719999999997 975.972 1356.34 975.972 C 1354.607 975.972 1319.6909999999998 955.3729999999999 1294.7569999999998 939.76 C 1273.07 926.097 1231.869 898.7719999999999 1225.3639999999998 893.568 C 1223.1909999999998 892.0509999999999 1223.4069999999997 891.835 1241.1919999999998 885.761 C 1271.3319999999999 875.567 1342.8979999999997 852.581 1345.2829999999997 852.581 z M 1199.1219999999998 900.724 C 1201.0749999999998 900.724 1206.0589999999997 903.5400000000001 1217.9869999999999 910.9150000000001 C 1262.658 938.8890000000001 1323.3799999999999 972.72 1349.4019999999998 983.998 C 1357.4239999999998 987.4670000000001 1358.2889999999998 986.1640000000001 1339.86 998.744 C 1300.3919999999998 1025.633 1251.163 1052.088 1190.877 1078.762 C 1180.253 1083.533 1171.363 1087.2179999999998 1171.147 1087.2179999999998 C 1170.715 1087.2179999999998 1172.012 1081.8 1173.745 1075.293 C 1188.2749999999999 1021.2919999999999 1196.5169999999998 966.6459999999998 1196.953 922.8409999999999 C 1197.1689999999999 901.1539999999999 1197.1689999999999 901.1539999999999 1199.122 900.507 C 1198.6860000000001 900.7239999999999 1198.902 900.7239999999999 1199.122 900.7239999999999 z M 1168.9799999999998 912.216 C 1170.2769999999998 913.515 1169.4119999999998 962.093 1167.6759999999997 975.32 C 1163.7729999999997 1006.9820000000001 1157.7009999999998 1036.473 1147.7289999999998 1069.655 C 1145.3429999999998 1077.673 1143.1709999999998 1084.3999999999999 1142.7419999999997 1084.8319999999999 C 1141.8699999999997 1085.915 1112.1609999999998 1056.857 1102.4029999999998 1045.581 C 1085.4869999999999 1026.0629999999999 1072.2619999999997 1006.5459999999999 1062.5029999999997 987.4639999999999 C 1057.5149999999996 977.7049999999999 1049.7099999999998 958.6239999999999 1050.3589999999997 957.972 C 1053.8279999999997 955.587 1168.1119999999996 911.35 1168.9799999999998 912.216 z M 1027.1539999999998 967.947 C 1027.3699999999997 967.947 1027.5859999999998 967.947 1027.8059999999998 968.163 C 1028.2379999999998 968.597 1029.7589999999998 972.068 1031.0599999999997 975.97 C 1037.9969999999996 994.837 1053.6079999999997 1022.594 1067.0569999999998 1040.377 C 1081.8029999999999 1059.895 1101.1049999999998 1080.711 1117.1479999999997 1094.373 C 1122.3549999999998 1098.71 1127.1229999999996 1102.829 1127.7719999999997 1103.481 C 1129.0759999999998 1104.783 1129.5089999999998 1104.564 1094.1599999999996 1118.011 C 1053.1789999999996 1133.624 1008.5039999999997 1149.237 957.3249999999996 1165.7169999999999 C 945.0994670509635 1169.6585119331578 932.8850850501942 1173.6345277753421 920.6819999999936 1177.6450000000016 C 918.7269999999995 1178.297 919.3789999999996 1177.211 925.0169999999996 1168.322 C 950.3879999999996 1128.636 988.9869999999996 1050.7859999999998 1010.6739999999996 995.704 C 1014.3609999999996 986.1619999999999 1018.0469999999997 976.622 1018.6989999999996 974.453 C 1019.5669999999997 971.415 1020.6489999999997 970.332 1023.4669999999996 968.813 C 1024.9849999999997 968.383 1026.5049999999997 967.947 1027.1539999999995 967.947 z M 983.7869999999998 985.946 C 984.4359999999998 986.3820000000001 973.3759999999999 1009.5830000000001 962.5329999999998 1030.835 C 941.4969999999998 1071.82 918.5109999999997 1112.1580000000001 887.7179999999998 1161.166 C 882.5139999999999 1169.6219999999998 877.5279999999998 1177.431 876.8759999999999 1178.298 C 875.7929999999999 1179.817 875.3569999999999 1179.381 871.8879999999998 1172.66 C 864.5149999999998 1158.13 858.4409999999998 1139.479 855.1889999999999 1122.347 C 851.9349999999998 1105.431 852.5869999999999 1075.941 856.2749999999999 1057.7259999999999 C 859.0909999999999 1044.282 858.8769999999998 1044.4989999999998 865.3819999999998 1041.245 C 893.1389999999998 1027.1499999999999 982.9189999999999 985.079 983.7869999999998 985.9459999999999 z M 1357.8599999999997 1001.128 L 1357.8599999999997 1010.235 C 1357.8599999999997 1058.594 1352.6559999999997 1124.951 1345.0629999999996 1173.312 C 1343.7619999999997 1181.7679999999998 1342.6739999999998 1188.705 1342.4609999999996 1188.925 C 1342.4609999999996 1188.925 1336.1729999999995 1187.192 1328.7999999999995 1185.02 C 1296.2729999999995 1174.827 1260.9249999999995 1159.864 1229.0459999999996 1142.302 C 1208.0079999999996 1130.808 1177.4339999999995 1111.9389999999999 1178.3029999999997 1111.071 C 1178.5159999999996 1110.856 1187.6259999999997 1106.0849999999998 1198.2499999999995 1100.446 C 1240.7589999999996 1078.328 1281.5239999999994 1054.474 1316.8719999999996 1030.837 C 1330.1009999999997 1021.9449999999999 1350.0479999999995 1007.635 1354.3899999999996 1003.73 L 1357.8599999999997 1001.128 z M 820.0579999999997 1065.313 C 820.9249999999996 1065.313 820.7079999999996 1067.048 819.4069999999997 1074.855 C 818.5389999999996 1080.4950000000001 817.4559999999997 1090.904 817.0249999999997 1098.057 C 815.2859999999997 1129.719 820.4939999999998 1153.141 836.1069999999997 1185.234 C 840.4439999999997 1194.126 843.9159999999997 1201.499 843.6959999999998 1201.714 C 842.1769999999998 1203.017 698.6219999999998 1245.089 653.5129999999998 1257.4479999999999 C 640.0689999999998 1261.1329999999998 628.3609999999998 1264.387 627.4889999999998 1264.6009999999999 C 625.9739999999998 1265.0369999999998 625.7559999999999 1264.821 626.4059999999998 1261.1309999999999 C 631.3929999999998 1229.2559999999999 655.6819999999998 1187.619 689.5099999999999 1152.4869999999999 C 712.0639999999999 1129.0679999999998 730.0639999999999 1115.407 760.8569999999999 1097.839 C 782.9759999999999 1085.264 817.0219999999998 1066.3999999999999 819.6239999999999 1065.53 C 819.6259999999999 1065.3129999999999 819.8419999999999 1065.3129999999999 820.0579999999999 1065.3129999999999 z M 1158.3529999999996 1125.816 C 1158.5689999999995 1125.6000000000001 1163.7729999999997 1128.421 1170.0609999999997 1132.106 C 1216.4689999999996 1158.997 1281.0909999999997 1183.936 1336.1689999999996 1196.729 L 1341.1599999999996 1197.815 L 1334.2189999999996 1201.714 C 1305.3789999999997 1217.763 1210.6129999999996 1257.229 1113.6809999999996 1293.446 C 1099.5829999999996 1298.648 1085.7059999999997 1303.855 1083.0999999999997 1304.9379999999999 C 1080.4979999999996 1306.021 1078.1119999999996 1306.6729999999998 1078.1119999999996 1306.4569999999999 C 1078.1119999999996 1306.2369999999999 1082.0179999999996 1298.648 1087.0019999999997 1289.3249999999998 C 1114.1089999999997 1238.581 1141.4349999999997 1176.7779999999998 1155.3129999999996 1133.8399999999997 C 1157.0519999999997 1129.7199999999998 1158.1329999999996 1126.0349999999996 1158.3529999999996 1125.8159999999998 z M 1123.8729999999996 1137.094 C 1124.0929999999996 1137.315 1122.3559999999995 1141.865 1120.1859999999997 1147.069 C 1101.3209999999997 1192.825 1076.5959999999998 1242.705 1044.9369999999997 1298.652 C 1036.9149999999997 1312.9660000000001 1030.1909999999996 1324.46 1029.9709999999998 1324.46 C 1029.7579999999998 1324.46 1023.2499999999998 1320.554 1015.4439999999997 1315.784 C 969.4679999999997 1287.592 928.7009999999998 1252.8960000000002 902.0299999999997 1219.2830000000001 L 898.1249999999998 1214.5120000000002 L 917.8569999999997 1209.0900000000001 C 988.5529999999998 1189.7920000000001 1048.6189999999997 1168.9740000000002 1108.2569999999998 1143.3860000000002 C 1116.716 1139.9150000000002 1123.657 1137.0940000000003 1123.8729999999998 1137.0940000000003 z M 1338.1259999999995 1211.909 C 1338.1259999999995 1211.909 1338.3429999999996 1212.1260000000002 1338.1259999999995 1211.909 C 1338.3419999999994 1216.8970000000002 1327.2819999999995 1261.5700000000002 1318.1729999999995 1293.8780000000002 C 1310.5839999999996 1320.9850000000001 1304.0749999999996 1342.2390000000003 1292.1509999999996 1379.7520000000002 C 1286.9469999999997 1396.237 1282.3959999999995 1409.8950000000002 1282.1759999999997 1409.8950000000002 C 1281.9599999999998 1409.8950000000002 1280.6589999999997 1409.6790000000003 1279.3579999999997 1409.2480000000003 C 1214.9529999999997 1397.5340000000003 1157.2689999999998 1381.2710000000002 1103.0549999999998 1359.5870000000002 C 1087.8729999999998 1353.5130000000001 1066.1889999999999 1343.7540000000001 1064.888 1342.6710000000003 C 1064.456 1342.2330000000002 1077.4679999999998 1336.1650000000002 1093.9479999999999 1329.0080000000003 C 1192.617 1285.8540000000003 1294.9719999999998 1236.8440000000003 1330.1009999999999 1215.8120000000004 C 1334.2199999999998 1213.2090000000003 1337.474 1211.9090000000003 1338.126 1211.9090000000003 z M 843.4799999999996 1228.825 C 843.9139999999995 1229.257 816.3729999999996 1268.943 777.7709999999995 1322.939 C 764.3269999999995 1341.806 748.7139999999995 1363.924 742.8599999999994 1372.164 C 737.0039999999995 1380.405 728.1139999999995 1393.417 723.1259999999994 1401.224 L 714.0139999999994 1415.32 L 704.2549999999994 1407.08 C 692.7609999999994 1397.5359999999998 672.8129999999994 1377.153 663.9219999999995 1365.876 C 645.2709999999995 1342.675 632.6959999999995 1318.17 627.7079999999994 1295.836 C 625.3219999999994 1285.425 625.3219999999994 1280.218 627.4879999999994 1279.571 C 630.7399999999993 1278.704 688.6409999999994 1265.041 742.8579999999994 1252.461 C 773.0009999999994 1245.5240000000001 807.9119999999994 1237.284 820.4899999999993 1234.248 C 833.0689999999993 1231.207 843.2639999999993 1228.825 843.4799999999993 1228.825 z M 871.2359999999995 1239.451 L 878.1729999999995 1247.257 C 909.4039999999995 1282.171 941.2809999999995 1307.981 979.8809999999995 1330.529 C 986.8219999999995 1334.435 992.0249999999995 1337.902 991.5889999999995 1338.123 C 990.0749999999995 1339.2060000000001 857.5729999999995 1386.259 796.2039999999995 1407.512 C 761.7259999999995 1419.655 733.3159999999995 1429.413 733.1019999999995 1429.413 C 732.8859999999995 1429.413 730.9329999999995 1428.114 728.7609999999995 1426.595 L 724.8599999999996 1423.775 L 731.1479999999996 1414.669 C 751.5309999999996 1385.1760000000002 777.1239999999996 1352.866 832.8549999999996 1285.641 L 871.2359999999995 1239.451 z M 1044.2889999999995 1363.2730000000001 C 1044.5019999999995 1363.0580000000002 1054.0439999999996 1366.525 1065.7529999999995 1370.8670000000002 C 1093.9479999999994 1381.4910000000002 1116.2799999999995 1388.2120000000002 1146.2089999999994 1395.803 C 1183.0749999999994 1405.1290000000001 1236.4199999999994 1414.237 1267.8659999999993 1416.8380000000002 C 1272.6369999999993 1417.2700000000002 1275.2389999999994 1417.7060000000001 1274.3709999999994 1418.3570000000002 C 1272.8499999999995 1419.2250000000001 1240.9759999999994 1429.851 1217.5549999999994 1437.2240000000002 C 1180.2529999999995 1448.9320000000002 1066.4059999999995 1482.544 973.5929999999994 1509.219 C 956.4609999999994 1514.2060000000001 941.7139999999994 1518.327 940.8469999999994 1518.5420000000001 C 938.6809999999994 1518.978 931.5219999999994 1517.0230000000001 931.5219999999994 1516.1560000000002 C 931.5219999999994 1515.7250000000001 936.7259999999993 1509.0030000000002 943.0159999999994 1501.6290000000001 C 974.2409999999994 1464.3290000000002 1005.2539999999995 1422.6940000000002 1031.0599999999995 1383.226 C 1038.2139999999995 1372.38 1044.2889999999995 1363.49 1044.2889999999995 1363.2730000000001 z M 1006.1189999999996 1364.3600000000001 C 1006.3349999999996 1364.576 990.9399999999996 1389.296 964.0529999999995 1431.7990000000002 C 952.5569999999996 1449.7980000000002 939.7619999999995 1470.1820000000002 935.2069999999995 1477.3390000000002 C 930.8699999999995 1484.2780000000002 924.3649999999996 1495.1230000000003 920.6799999999995 1501.1930000000002 L 914.3899999999995 1512.2540000000001 L 911.1379999999996 1511.3860000000002 C 903.3289999999996 1509.217 848.4659999999996 1489.9150000000002 833.9359999999996 1484.0610000000001 C 815.9359999999996 1476.9040000000002 797.2869999999996 1468.2320000000002 783.4069999999996 1460.8590000000002 C 766.0609999999996 1451.5330000000001 744.3769999999996 1437.6530000000002 746.1099999999996 1437.2220000000002 C 746.5429999999996 1437.0060000000003 776.2529999999996 1428.9790000000003 812.0319999999996 1419.2230000000002 C 907.0159999999996 1393.4140000000002 959.7099999999996 1378.4530000000002 994.1929999999995 1367.611 C 1000.4829999999995 1365.659 1005.9029999999996 1364.14 1006.1189999999996 1364.3600000000001 z M 1276.1039999999996 1427.678 L 1276.3199999999995 1427.678 C 1277.1879999999994 1429.8490000000002 1242.0599999999995 1527.433 1229.2599999999995 1558.2250000000001 C 1226.4449999999995 1565.1640000000002 1225.3639999999996 1566.902 1223.8429999999996 1566.681 C 1220.1559999999997 1566.468 1169.1969999999997 1559.3110000000001 1138.1829999999995 1554.756 C 1084.1889999999996 1546.516 993.5419999999996 1530.683 970.7739999999995 1525.481 L 965.5699999999996 1524.398 L 997.8769999999996 1517.02 C 1067.2729999999997 1501.407 1100.6679999999997 1492.951 1134.4959999999996 1482.542 C 1177.2179999999996 1469.531 1219.5069999999996 1453.2659999999998 1262.2249999999997 1433.317 C 1268.9469999999997 1430.28 1274.5859999999998 1427.895 1276.1039999999996 1427.678 z" stroke-linecap="round" />
</g>
		<g transform="matrix(0.3079418834 0 0 0.3079418834 24.6142877728 -281.6270090184)" id="UEQP1AoL6gJ7G8mx97TQY"  >
<linearGradient id="SVGID_24" gradientUnits="userSpaceOnUse" gradientTransform="matrix(0.1234 0 0 -0.1234 1158.33 1550.273)"  x1="-2882.7" y1="10288.81" x2="-2206.249" y2="10288.81">
<stop offset="0%" style="stop-color:rgb(147,159,171);stop-opacity: 1"/>
<stop offset="100%" style="stop-color:rgb(220,222,225);stop-opacity: 1"/>
</linearGradient>
<path style="stroke: none; stroke-width: 1; stroke-dasharray: none; stroke-linecap: butt; stroke-dashoffset: 0; stroke-linejoin: miter; stroke-miterlimit: 4; fill: url(#SVGID_24); fill-rule: nonzero; opacity: 1;"  transform=" translate(-1028.349, -281.0524464894)" d="M 1114.983 145.414 C 1110.212 144.767 1033.2259999999999 172.524 983.568 192.689 C 916.558 220.016 864.516 246.04 832.42 268.58799999999997 C 820.495 277.049 805.529 292.01 803.1469999999999 297.864 C 802.28 300.03299999999996 801.8439999999999 302.635 801.8439999999999 305.23699999999997 L 830.9039999999999 332.77799999999996 L 900.0789999999998 354.89699999999993 L 1064.6729999999998 384.38999999999993 L 1252.9009999999998 416.70199999999994 L 1254.8539999999998 400.43799999999993 C 1254.205 400.43799999999993 1253.7689999999998 400.2219999999999 1253.1239999999998 400.2219999999999 L 1228.3959999999997 396.31699999999995 L 1223.4119999999998 387.42699999999996 C 1197.822 342.31999999999994 1169.6309999999999 286.371 1153.1509999999998 248.63799999999998 C 1140.358 219.36199999999997 1128.2129999999997 185.53599999999997 1121.4889999999998 161.24699999999996 C 1117.802 146.50099999999995 1117.37 145.63399999999996 1114.9879999999998 145.41799999999995 L 1114.9879999999998 145.41299999999995 L 1114.9829999999997 145.41299999999995 z M 1111.509 156.47699999999998 L 1111.732 156.47699999999998 C 1111.945 156.69099999999997 1112.8129999999999 162.76699999999997 1113.682 169.91899999999998 C 1117.365 200.283 1124.093 229.55399999999997 1134.717 261.216 C 1142.739 285.071 1142.739 283.771 1133.4160000000002 280.95 C 1111.2970000000003 274.88 1012.1950000000002 257.748 940.4160000000002 247.773 C 928.9220000000001 246.254 919.1630000000001 244.737 919.1630000000001 244.521 C 918.2960000000002 243.654 970.9900000000001 216.111 994.1940000000002 205.271 C 1023.9030000000001 191.606 1105.4400000000003 157.56 1111.5090000000002 156.47699999999998 z M 902.462 253.62699999999998 L 910.923 256.443 C 956.893 272.05899999999997 1072.474 294.179 1136.233 299.383 C 1143.387 300.034 1149.462 300.686 1149.675 300.686 C 1149.8909999999998 300.902 1143.8229999999999 304.155 1136.014 307.84 C 1105.224 323.23699999999997 1071.3929999999998 342.104 1047.972 356.63399999999996 C 1041.035 360.96899999999994 1034.743 364.441 1033.878 364.441 C 1033.01 364.441 1028.4579999999999 363.573 1023.6869999999999 362.92199999999997 L 1015.0129999999999 361.61899999999997 L 993.3299999999999 340.366 C 955.1629999999999 303.286 925.2359999999999 274.662 913.742 263.817 L 902.462 253.627 z M 893.7909999999999 260.34799999999996 L 924.367 298.51599999999996 C 941.063 319.551 957.978 340.15099999999995 961.668 344.703 C 965.351 349.26 968.389 352.948 968.173 353.164 C 967.305 353.81399999999996 923.937 345.35499999999996 900.947 340.15299999999996 C 877.31 334.72999999999996 867.552 332.128 853.023 327.57599999999996 L 841.095 323.671 L 841.095 320.633 C 841.311 306.103 859.746 284.419 890.972 262.30199999999996 L 893.7909999999999 260.34799999999996 z M 1153.5819999999999 312.39399999999995 C 1154.4509999999998 312.39399999999995 1155.532 314.34499999999997 1158.1339999999998 320.19999999999993 C 1165.5069999999998 336.4629999999999 1188.4979999999998 380.2699999999999 1194.1309999999999 388.72599999999994 C 1195.8709999999999 391.54799999999994 1198.9019999999998 391.76399999999995 1168.329 386.77599999999995 C 1094.817 374.84599999999995 1071.177 370.94699999999995 1071.177 370.513 C 1071.177 370.29699999999997 1073.346 368.77799999999996 1076.165 367.25899999999996 C 1098.936 354.68399999999997 1121.921 338.63499999999993 1142.307 321.50299999999993 C 1147.295 317.38199999999995 1151.849 313.4789999999999 1152.714 312.82699999999994 C 1152.9299999999998 312.39399999999995 1153.366 312.17799999999994 1153.5819999999999 312.39399999999995 z" stroke-linecap="round" />
</g>
		<g transform="matrix(0.3079418834 0 0 0.3079418834 105.7494294754 -148.0337970276)" id="L54WzyCP6oxrxz4-z8sY5"  >
<radialGradient id="SVGID_25" gradientUnits="userSpaceOnUse" gradientTransform="matrix(-0.1185 -0.0178 -0.036 0.237 -198.955 -1314.415)"  cx="-14217.448" cy="7277.705" r="898.12" fx="-14217.448" fy="7277.705">
<stop offset="0%" style="stop-color:rgb(238,53,44);stop-opacity: 1"/>
<stop offset="100%" style="stop-color:rgb(169,29,34);stop-opacity: 1"/>
</radialGradient>
<path style="stroke: none; stroke-width: 1; stroke-dasharray: none; stroke-linecap: butt; stroke-dashoffset: 0; stroke-linejoin: miter; stroke-miterlimit: 4; fill: url(#SVGID_25); fill-rule: nonzero; opacity: 1;"  transform=" translate(-1291.8245, -714.8785)" d="M 804.66 294.828 C 804.66 294.828 799.8919999999999 302.421 804.4449999999999 313.698 C 807.2669999999999 320.635 815.506 329.091 824.829 337.767 C 824.829 337.767 921.329 431.881 933.04 445.328 C 986.384 506.91299999999995 1009.5889999999999 567.633 1011.7579999999999 651.3399999999999 C 1013.059 705.1199999999999 1002.8639999999999 752.3939999999999 977.4939999999999 807.2589999999999 C 932.3879999999999 905.7119999999999 837.1869999999999 1014.357 690.377 1134.9289999999999 L 711.8489999999999 1127.772 C 725.727 1117.3609999999999 744.5939999999999 1106.3049999999998 788.8309999999999 1082.0159999999998 C 890.9679999999998 1026.0639999999999 1005.9019999999999 974.6699999999998 1146.859 921.7579999999998 C 1349.83 845.4229999999998 1683.574 756.0769999999998 1873.5349999999999 727.0219999999998 L 1893.272 723.9839999999998 L 1890.234 719.2129999999999 C 1872.889 692.3219999999999 1860.9579999999999 675.6259999999999 1846.644 657.8439999999998 C 1805.011 606.2319999999999 1754.487 564.3809999999999 1692.68 529.6829999999998 C 1607.673 482.1939999999998 1497.7240000000002 445.11199999999974 1358.507 417.5709999999998 C 1332.268 412.3639999999998 1274.584 402.3899999999998 1227.7440000000001 395.2339999999998 C 1128.4230000000002 379.8409999999998 1064.2340000000002 369.2129999999998 993.5410000000002 357.0689999999998 C 968.1710000000002 352.7299999999998 930.2180000000002 346.2259999999998 905.0630000000002 340.8059999999998 C 892.0520000000002 337.9839999999998 867.1160000000002 332.1299999999998 847.5990000000002 325.4079999999998 C 831.9860000000001 319.3329999999998 809.4310000000002 313.2609999999998 804.6600000000002 294.8279999999998 z M 860.612 349.044 C 860.826 348.83 864.295 350.127 868.852 351.64599999999996 C 877.092 354.46199999999993 887.717 357.71599999999995 900.298 361.18799999999993 C 909.8157110097748 363.8059395402082 919.3574531785957 366.3357146002693 928.922 368.7770000000001 C 941.933 372.0279999999999 952.774 375.06499999999994 952.99 375.06499999999994 C 954.511 376.58399999999995 976.414 446.62299999999993 983.787 473.51399999999995 C 986.6020000000001 483.70899999999995 988.7750000000001 492.381 988.558 492.381 C 988.335 492.601 985.953 488.912 983.135 483.92499999999995 C 957.762 439.25199999999995 917.644 393.92999999999995 871.236 357.49699999999996 C 865.167 353.16399999999993 860.612 349.25999999999993 860.612 349.044 z M 967.304 378.536 C 968.389 378.536 973.16 379.187 979.012 380.487 C 1015.8779999999999 388.72700000000003 1082.02 401.305 1124.3049999999998 408.46200000000005 C 1131.4619999999998 409.5450000000001 1137.1019999999999 410.84900000000005 1137.1019999999999 411.28000000000003 C 1137.1019999999999 411.716 1134.4969999999998 413.23100000000005 1131.243 414.968 C 1124.09 418.653 1095.2459999999999 435.783 1085.7069999999999 442.29 C 1061.6339999999998 458.33700000000005 1039.9509999999998 475.685 1024.3359999999998 491.298 C 1018.0479999999998 497.588 1012.6239999999998 502.79200000000003 1012.6239999999998 502.79200000000003 C 1012.6239999999998 502.79200000000003 1011.3269999999998 499.107 1010.2379999999998 494.55 C 1002.4359999999998 464.40700000000004 986.1689999999999 419.73400000000004 971.4229999999998 388.29200000000003 C 969.0369999999998 383.30600000000004 967.0839999999997 378.75100000000003 967.0839999999997 378.319 C 967.0839999999997 378.752 967.0839999999997 378.536 967.3039999999997 378.536 z M 1155.099 414.317 C 1156.3999999999999 414.749 1158.569 422.123 1162.905 438.386 C 1170.93 469.83200000000005 1174.617 504.962 1173.316 537.707 C 1172.88 546.8149999999999 1172.448 555.271 1172.012 556.358 L 1171.363 558.524 L 1160.087 554.839 C 1136.883 547.466 1099.152 536.4040000000001 1066.842 527.298 C 1048.4060000000002 522.31 1033.4470000000001 517.756 1033.4470000000001 517.323 C 1033.4470000000001 516.02 1060.3380000000002 489.131 1071.8300000000002 478.94 C 1093.728 459.637 1153.1460000000002 413.66499999999996 1155.0990000000002 414.317 z M 1170.062 416.483 C 1170.714 415.836 1259.841 431.229 1300.3929999999998 439.037 C 1330.5379999999998 444.89099999999996 1374.341 454 1376.9419999999998 455.08599999999996 C 1378.2429999999997 455.518 1373.6879999999999 458.11999999999995 1359.1579999999997 464.62499999999994 C 1301.9099999999996 490.43299999999994 1259.4039999999998 513.6329999999999 1217.1219999999996 541.827 C 1206.0619999999997 549.2 1196.7359999999996 555.271 1196.5199999999995 555.271 C 1196.3039999999996 555.271 1196.0869999999995 548.9839999999999 1196.0869999999995 541.3929999999999 C 1196.0869999999995 500.1919999999999 1187.8459999999995 458.55499999999995 1172.6629999999996 423.4249999999999 C 1171.1459999999995 419.95499999999987 1169.8449999999996 416.7029999999999 1170.0619999999994 416.4829999999999 z M 1400.578 462.025 C 1401.23 462.67499999999995 1398.4089999999999 480.24199999999996 1395.807 490.649 C 1388.001 522.961 1366.967 570.889 1341.164 615.992 C 1336.606 624.016 1332.487 630.5219999999999 1332.05 630.7379999999999 C 1331.6209999999999 630.954 1325.7649999999999 627.6999999999999 1319.041 623.7969999999999 C 1293.887 609.0509999999999 1265.263 595.1729999999999 1234.0339999999999 582.1599999999999 C 1225.3629999999998 578.4749999999999 1217.771 575.4369999999999 1217.5539999999999 575.0069999999998 C 1216.033 573.7039999999998 1285.8619999999999 527.5139999999998 1322.7279999999998 505.39499999999987 C 1352.004 487.61399999999986 1399.7099999999998 461.1559999999999 1400.5779999999997 462.02499999999986 z M 1417.058 464.626 C 1419.011 464.626 1458.479 475.46999999999997 1479.077 481.542 C 1530.04 496.72299999999996 1588.589 518.1899999999999 1626.756 535.538 L 1642.584 542.697 L 1631.528 545.297 C 1538.283 566.764 1458.479 591.489 1381.4940000000001 622.715 C 1375.2050000000002 625.317 1369.566 627.486 1369.1370000000002 627.486 C 1368.7010000000002 627.486 1370.8700000000001 622.499 1373.689 616.425 C 1396.893 567.1999999999999 1411.856 515.805 1415.539 471.99799999999993 C 1415.76 467.87699999999995 1416.406 464.6259999999999 1417.058 464.6259999999999 z M 1024.12 554.8389999999999 C 1024.7689999999998 554.1869999999999 1054.9129999999998 561.3449999999999 1071.177 565.895 C 1095.898 572.837 1148.375 590.4 1148.375 591.703 C 1148.375 591.919 1142.522 596.9069999999999 1135.585 602.981 C 1107.1770000000001 626.6179999999999 1079.851 651.553 1047.104 683.215 C 1037.345 692.543 1029.107 700.1320000000001 1028.675 700.1320000000001 C 1028.239 700.1320000000001 1028.026 698.8280000000001 1028.239 697.094 C 1033.226 660.6610000000001 1032.145 613.822 1025.205 566.331 C 1024.552 560.2570000000001 1023.9029999999999 555.0550000000001 1024.12 554.839 z M 1657.5529999999999 555.491 C 1657.982 555.922 1643.6719999999998 578.475 1634.5649999999998 591.268 C 1621.5559999999998 609.917 1602.4669999999999 634.643 1559.3129999999999 688.856 C 1536.5479999999998 717.478 1510.955 749.792 1502.501 760.634 C 1493.8229999999999 771.476 1486.67 780.582 1486.45 780.582 C 1486.2340000000002 780.582 1483.419 776.681 1480.381 771.911 C 1456.092 735.478 1427.0320000000002 703.5999999999999 1392.5520000000001 674.9759999999999 C 1386.047 669.5529999999999 1378.8940000000002 663.6979999999999 1376.508 661.9629999999999 C 1374.122 660.2289999999998 1372.169 658.4939999999998 1372.169 658.2779999999999 C 1372.169 657.6289999999999 1409.0310000000002 641.795 1437.01 630.521 C 1486.02 610.569 1552.804 586.716 1602.902 571.318 C 1629.142 563.079 1657.117 555.055 1657.553 555.491 z M 1674.2489999999998 559.8249999999999 C 1675.1139999999998 559.6099999999999 1680.3209999999997 562.2119999999999 1686.61 565.895 C 1739.3069999999998 596.038 1790.915 634.857 1831.687 674.759 C 1843.1789999999999 686.037 1871.587 715.529 1871.1509999999998 715.745 C 1871.1509999999998 715.745 1861.176 716.612 1849.4679999999998 717.478 C 1758.1719999999998 724.42 1641.29 743.717 1528.9569999999999 770.823 C 1521.368 772.5559999999999 1514.647 774.0749999999999 1514.2109999999998 774.0749999999999 C 1513.7819999999997 774.0749999999999 1522.2359999999999 765.6189999999999 1532.8639999999998 755.4279999999999 C 1598.7859999999998 691.8899999999999 1628.9309999999998 651.7719999999999 1664.4919999999997 580.2079999999999 C 1669.4779999999998 569.5849999999998 1673.8169999999998 560.4769999999999 1674.2489999999998 559.8249999999998 C 1674.033 559.8249999999998 1674.033 559.8249999999998 1674.2489999999998 559.8249999999998 z M 1191.3129999999999 609.271 C 1194.3509999999999 609.918 1222.542 623.151 1243.793 633.774 C 1263.31 643.529 1292.587 659.146 1294.1039999999998 660.445 C 1294.3199999999997 660.6610000000001 1283.9089999999999 666.0830000000001 1271.12 672.373 C 1230.348 692.7570000000001 1195.436 712.0550000000001 1159.002 734.1750000000001 C 1148.594 740.465 1139.9199999999998 745.672 1139.704 745.672 C 1138.836 745.672 1139.052 744.8000000000001 1144.908 734.1750000000001 C 1164.426 698.614 1180.0369999999998 656.1100000000001 1188.9309999999998 614.6890000000001 C 1189.7949999999998 611.4370000000001 1190.6639999999998 609.2710000000001 1191.3129999999999 609.2710000000001 z M 1163.1209999999999 614.473 C 1163.773 615.125 1156.3999999999999 641.7959999999999 1151.848 656.3259999999999 C 1142.954 683.867 1127.992 718.3459999999999 1113.465 744.3689999999999 C 1109.991 750.4379999999999 1104.788 759.3299999999999 1101.9689999999998 764.3169999999999 L 1096.5489999999998 772.9909999999999 L 1084.4049999999997 761.2839999999999 C 1070.3109999999997 747.6209999999999 1058.8149999999998 739.1639999999999 1044.0719999999997 731.5719999999999 C 1038.2129999999997 728.5389999999999 1033.6609999999996 725.9339999999999 1033.6609999999996 725.5029999999999 C 1033.6609999999996 723.7679999999999 1070.7429999999997 690.156 1099.1509999999996 665.8679999999999 C 1119.5339999999997 648.3019999999999 1162.4719999999995 613.823 1163.1209999999996 614.473 z M 1335.5249999999999 685.386 L 1346.1519999999998 692.323 C 1370.4339999999997 708.156 1399.0579999999998 729.189 1420.965 747.621 C 1433.322 757.811 1457.175 779.283 1461.9499999999998 784.487 L 1464.5479999999998 787.309 L 1446.9869999999999 792.295 C 1347.666 819.833 1270.8999999999999 844.338 1181.3379999999997 877.3019999999999 C 1171.3629999999998 880.9869999999999 1162.9049999999997 884.0229999999999 1162.2529999999997 884.0229999999999 C 1160.9559999999997 884.0229999999999 1159.8679999999997 885.1059999999999 1182.2069999999997 864.5039999999999 C 1239.4579999999996 811.8129999999999 1290.1989999999996 753.6919999999999 1327.9329999999995 697.0929999999998 L 1335.5249999999996 685.3859999999999 z M 1290.2009999999998 696.6619999999999 C 1290.6329999999998 697.0939999999999 1260.9249999999997 738.9459999999999 1243.1409999999998 762.584 C 1221.8899999999999 790.776 1184.156 838.049 1158.1339999999998 868.8399999999999 C 1147.2939999999999 881.637 1137.9709999999998 892.262 1137.5349999999999 892.4799999999999 C 1136.8829999999998 892.6959999999999 1136.667 889.444 1136.667 884.4559999999999 C 1136.667 858.2139999999999 1129.946 830.2399999999999 1118.234 806.3879999999999 C 1113.2459999999999 796.4129999999999 1112.378 794.0269999999999 1113.466 792.944 C 1117.5849999999998 789.256 1180.6889999999999 753.2579999999999 1220.589 731.7909999999999 C 1247.479 717.4789999999999 1289.5449999999998 696.228 1290.201 696.6619999999999 z M 1016.0939999999998 763.887 C 1016.7459999999999 763.887 1021.7339999999998 766.487 1027.3729999999998 769.525 C 1041.2509999999997 777.114 1053.6119999999999 785.571 1064.6709999999998 794.6809999999999 C 1065.1029999999998 795.1129999999999 1059.4669999999999 799.669 1052.0939999999998 805.0869999999999 C 1031.4919999999997 819.8329999999999 1000.2659999999998 843.4719999999999 982.0529999999999 858.0019999999998 C 962.9649999999999 873.1819999999998 962.3189999999998 873.6149999999998 964.4849999999999 870.3629999999998 C 978.7989999999999 848.4599999999998 985.9519999999999 836.0989999999998 993.5449999999998 820.2699999999999 C 1000.2659999999998 806.1759999999998 1006.9869999999999 789.4769999999999 1011.7579999999998 774.9469999999999 C 1013.4919999999998 768.6579999999999 1015.6619999999998 763.887 1016.0939999999998 763.887 z M 1089.177 821.135 C 1090.2579999999998 820.9209999999999 1091.5629999999999 822.87 1097.415 831.5459999999999 C 1109.776 849.9749999999999 1119.318 874.6999999999999 1121.7069999999999 894.65 L 1122.136 898.989 L 1092.431 910.4830000000001 C 1039.298 931.0820000000001 990.292 951.4680000000001 957.109 966.6450000000001 C 947.787 970.9840000000002 931.522 978.7890000000001 920.898 983.9970000000001 C 910.2710000000001 989.4150000000001 901.597 993.5360000000001 901.597 993.32 C 901.597 993.104 908.318 988.1160000000001 916.558 982.042 C 981.402 934.9870000000001 1037.565 883.373 1079.634 831.763 C 1084.189 826.34 1088.311 821.3520000000001 1088.741 821.1360000000001 L 1089.177 821.1350000000001 z M 1055.5649999999998 829.377 C 1056.4329999999998 830.2439999999999 1031.7119999999998 858.217 1014.7969999999998 875.348 C 972.9439999999998 918.0709999999999 931.5239999999998 951.468 880.1279999999998 983.997 C 873.6229999999998 988.116 867.7689999999998 991.8009999999999 867.1169999999998 992.237 C 865.5979999999998 993.1039999999999 867.5489999999999 990.934 890.1029999999998 966.429 C 904.4169999999998 951.0319999999999 915.2579999999998 938.021 927.6189999999998 921.976 C 935.8589999999998 911.352 937.3779999999998 909.833 949.3069999999998 901.372 C 981.1849999999998 878.385 1054.697 828.5079999999999 1055.5649999999998 829.377 z" stroke-linecap="round" />
</g>
		<g transform="matrix(0.5411983891 0 0 0.5411983891 0.0003233533 213.584756065)" id="WTrQ6FsEWVS13nc0OH48w"  >
<path style="stroke: none; stroke-width: 1; stroke-dasharray: none; stroke-linecap: butt; stroke-dashoffset: 0; stroke-linejoin: miter; stroke-miterlimit: 4; fill: rgb(35,31,31); fill-rule: nonzero; opacity: 1;"  transform=" translate(-739.1010974764, -992.212)" d="M 265.747 900.102 C 263.471 900.102 261.194 900.319 258.938 900.319 C 212.963 902.769 181.95499999999998 923.002 163.825 962.514 C 148.319 998.249 150.012 1044.96 163.999 1080.914 C 180.264 1116.045 206.546 1134.586 250.415 1141.589 C 259.697 1143.109 265.921 1148.205 283.89799999999997 1169.195 L 306.018 1195.11 L 346.13599999999997 1195.11 L 319.46 1168.2179999999998 C 304.714 1153.473 292.787 1140.6339999999998 292.787 1139.5059999999999 C 292.787 1138.379 298.428 1135.907 305.256 1133.8259999999998 C 327.76599999999996 1127.014 346.45899999999995 1109.6239999999998 359.53499999999997 1082.9719999999998 C 370.118 1061.5699999999997 371.63699999999994 1054.9539999999997 373.154 1028.3259999999998 C 377.123 949.0659999999998 335.334 899.5129999999998 265.745 900.0789999999997 L 265.747 900.1019999999997 z M 300.92 1107.372 C 281.403 1116.825 253.06300000000002 1118.712 234.56400000000002 1111.9250000000002 C 215.437 1104.9 196.918 1085.0360000000003 188.58900000000003 1062.5480000000002 C 179.33000000000004 1037.9570000000003 180.65200000000002 992.5920000000002 191.235 972.1620000000003 C 208.258 939.6340000000002 230.769 924.6720000000003 263.665 924.6720000000003 C 312.457 924.6720000000003 340.21400000000006 954.5560000000003 343.836 1010.7200000000003 C 346.699 1057.6050000000002 330.998 1092.7780000000002 300.94100000000003 1107.3520000000003 L 300.92 1107.3720000000003 z M 993.9449999999999 967.8040000000001 C 977.117 967.8040000000001 964.236 974.6150000000001 955.56 988.0350000000001 L 948.751 998.662 L 948.751 971.034 L 919.6279999999999 971.034 L 919.6279999999999 1136.712 L 948.732 1136.712 L 948.732 1083.756 C 948.732 1035.332 949.336 1029.672 956.103 1016.421 C 965.429 998.249 981.4739999999999 989.187 996.982 993.524 L 1007.39 996.56 L 1007.39 967.848 L 993.9449999999999 967.848 L 993.9449999999999 967.804 z M 822.847 966.2850000000001 C 817.1419999999999 966.2850000000001 811.091 967.0450000000001 805.066 968.369 C 766.095 978.5590000000001 744.128 1015.8580000000001 745.472 1054.242 C 745.472 1086.3809999999999 751.716 1102.4479999999999 767.2239999999999 1119.299 C 798.9939999999999 1145.364 827.7259999999999 1147.445 866.4989999999999 1133.46 C 873.1139999999999 1130.641 880.3129999999999 1127.3880000000001 880.3129999999999 1127.3880000000001 L 880.3129999999999 1101.323 L 866.4989999999999 1108.479 C 835.1199999999999 1122.14 811.483 1122.14 792.55 1106.049 C 780.4739999999999 1093.753 775.159 1079.007 772.7099999999999 1062.181 L 890.136 1062.181 L 890.136 1039.842 C 890.136 994.3030000000001 862.726 965.5480000000001 822.823 966.2850000000001 L 822.847 966.2850000000001 z M 775.355 1038.932 C 775.355 1038.932 779.693 1010.525 795.783 999.378 C 803.527 993.912 812.416 991.268 821.111 991.268 C 829.83 991.268 838.525 994.086 845.703 999.5740000000001 C 860.451 1010.9150000000001 862.922 1038.717 862.922 1038.717 L 775.356 1038.717 L 775.356 1038.932 L 775.355 1038.932 z M 73.24400000000003 1009.051 C 41.67100000000003 989.923 27.662000000000027 976.13 29.37500000000003 959.866 C 34.27500000000003 914.869 89.87800000000003 921.093 120.67000000000003 938.117 L 120.88900000000002 907.8449999999999 C 120.88900000000002 907.8449999999999 103.86500000000002 900.4719999999999 79.46800000000002 900.0809999999999 C 42.039000000000016 899.5169999999999 17.838000000000015 911.7899999999998 6.498000000000019 936.7719999999999 C -10.15799999999998 973.637 4.590000000000019 1001.4369999999999 57.89400000000002 1032.4489999999998 C 87.81900000000002 1049.8609999999999 101.04600000000002 1064.9769999999999 101.04600000000002 1081.4569999999999 C 101.04600000000002 1115.504 59.99600000000002 1127.388 17.645000000000024 1106.0269999999998 C 8.929000000000025 1101.6899999999998 1.5550000000000246 1098.0679999999998 1.165000000000024 1098.0679999999998 C -0.3539999999999759 1107.7189999999998 0.42900000000002403 1130.8129999999996 0.42900000000002403 1130.8129999999996 C 0.42900000000002403 1130.8129999999996 13.441000000000024 1136.2789999999995 32.956000000000024 1140.0489999999998 C 81.35600000000002 1149.6989999999998 125.40100000000001 1126.9949999999997 129.56400000000002 1090.1299999999997 C 133.18600000000004 1055.5209999999997 120.67100000000002 1037.3689999999997 73.24600000000002 1009.0259999999996 L 73.24400000000003 1009.0509999999996 z M 1251.6979999999999 965.8960000000001 C 1246.0159999999998 965.8960000000001 1239.9869999999999 966.676 1233.6979999999999 967.999 C 1194.774 978.191 1172.848 1015.491 1174.3439999999998 1053.875 C 1174.3439999999998 1085.97 1180.5689999999997 1101.886 1196.0729999999999 1118.713 C 1227.8439999999998 1144.802 1256.5769999999998 1146.904 1295.5459999999998 1132.897 C 1302.138 1130.079 1309.3159999999998 1126.8709999999999 1309.3159999999998 1126.8709999999999 L 1309.3159999999998 1100.762 L 1295.5249999999999 1107.9589999999998 C 1264.0819999999999 1121.5779999999997 1240.4429999999998 1121.5779999999997 1221.578 1105.4879999999998 C 1209.433 1093.214 1204.164 1078.6409999999998 1201.713 1061.6169999999997 L 1318.945 1061.6169999999997 L 1318.945 1039.2809999999997 C 1318.945 993.9599999999997 1291.533 965.1819999999997 1251.6319999999998 965.9419999999998 L 1251.6979999999999 965.8959999999997 z M 1204.206 1038.5420000000001 C 1204.206 1038.5420000000001 1208.587 1010.1770000000001 1224.655 998.8130000000001 C 1232.376 993.3280000000001 1241.266 990.6810000000002 1249.962 990.6810000000002 C 1258.636 990.6810000000002 1267.376 993.5000000000001 1274.556 999.0080000000002 C 1289.3020000000001 1010.3500000000001 1291.775 1038.3460000000002 1291.775 1038.3460000000002 L 1204.23 1038.3460000000002 L 1204.2060000000001 1038.5420000000001 z M 670.3969999999999 1009.4190000000001 C 638.824 990.3360000000001 624.857 976.4990000000001 626.549 960.2340000000002 C 631.449 915.2140000000002 687.053 921.4610000000001 717.845 938.4850000000001 L 718.063 908.2130000000001 C 718.063 908.2130000000001 701.039 900.839 676.6419999999999 900.4910000000001 C 639.213 899.9280000000001 615.012 912.2020000000001 603.651 937.1830000000001 C 587.0179999999999 974.0470000000001 601.959 1001.8490000000002 655.088 1032.8600000000001 C 684.972 1050.2530000000002 698.199 1065.172 698.199 1081.652 C 698.199 1115.699 657.17 1127.778 614.818 1106.221 C 606.144 1101.884 598.7719999999999 1098.305 598.338 1098.305 C 596.819 1107.954 597.602 1131.0510000000002 597.602 1131.0510000000002 C 597.602 1131.0510000000002 610.4599999999999 1136.3210000000001 629.912 1140.2880000000002 C 678.3570000000001 1149.9600000000003 722.422 1127.2760000000003 726.565 1090.4110000000003 C 730.1650000000001 1055.9740000000004 717.6740000000001 1037.8240000000003 670.398 1009.4590000000003 L 670.398 1009.4190000000003 z M 1422.818 967.4140000000001 C 1405.99 967.4140000000001 1392.959 974.243 1384.435 987.6680000000001 L 1377.624 998.2500000000001 L 1377.624 970.6670000000001 L 1348.501 970.6670000000001 L 1348.501 1136.3 L 1377.603 1136.3 L 1377.603 1083.346 C 1377.603 1034.943 1378.1870000000001 1029.261 1384.978 1016.033 C 1394.3020000000001 997.883 1410.347 988.798 1425.853 993.155 L 1436.261 996.1899999999999 L 1436.261 967.415 L 1422.818 967.415 z M 438.797 1008.464 L 438.797 902.941 L 409.43600000000004 902.941 L 409.43600000000004 1136.669 L 532.914 1136.669 L 532.914 1109.065 L 438.798 1109.065 L 438.798 1008.464 z M 1117.812 1041.3600000000001 L 1093.6109999999999 1104.335 L 1070.341 1041.013 L 1046.704 970.8399999999999 L 1016.649 970.8399999999999 C 1036.124 1026.052 1057.307 1082.216 1078.669 1136.6689999999999 C 1087.929 1136.8849999999998 1097.21 1136.6689999999999 1106.468 1136.6689999999999 L 1139.15 1054.6109999999999 L 1172.4370000000001 970.8609999999999 L 1143.7050000000002 970.8609999999999 C 1143.7050000000002 970.8609999999999 1131.017 1004.1269999999998 1117.7910000000002 1041.3819999999998 L 1117.8120000000001 1041.36 z M 506.455 839.251 C 511.183 839.251 515.129 837.735 518.382 834.482 C 521.5899999999999 831.271 523.2819999999999 827.4979999999999 523.2819999999999 822.771 C 523.2819999999999 818.043 521.5899999999999 814.096 518.382 811.06 C 515.1289999999999 808.025 511.37699999999995 806.505 506.67099999999994 806.505 C 501.90199999999993 806.505 497.95399999999995 808.025 494.7439999999999 811.233 C 491.4919999999999 814.444 490.01699999999994 818.391 490.01699999999994 822.9449999999999 C 490.01699999999994 827.7159999999999 491.53599999999994 831.661 494.7439999999999 834.656 C 497.7809999999999 837.6899999999999 501.7279999999999 839.209 506.4549999999999 839.209 L 506.4549999999999 839.251 z M 496.04699999999997 812.362 C 498.86499999999995 809.544 502.292 808.241 506.67199999999997 808.241 C 510.79299999999995 808.241 514.2199999999999 809.544 517.083 812.362 C 519.9019999999999 815.1809999999999 521.42 818.607 521.42 822.771 C 521.42 826.934 519.9019999999999 830.535 517.083 833.353 C 514.221 836.17 510.79299999999995 837.516 506.67199999999997 837.516 C 502.48699999999997 837.516 499.082 836.2149999999999 496.26399999999995 833.353 C 493.44499999999994 830.535 491.92699999999996 826.934 491.92699999999996 822.771 C 491.92699999999996 818.607 493.22799999999995 815.1819999999999 496.04699999999997 812.362 z M 503.04999999999995 824.29 L 504.95799999999997 824.29 C 506.304 824.29 507.626 825.5899999999999 508.753 828.063 L 511.032 833.179 L 514.609 833.179 L 511.79100000000005 827.496 C 510.64200000000005 825.221 509.51500000000004 823.898 508.19100000000003 823.5269999999999 C 509.86100000000005 823.137 511.18300000000005 822.574 512.138 821.4449999999999 C 513.09 820.4709999999999 513.438 819.1469999999999 513.438 817.65 C 513.438 815.9159999999999 512.896 814.616 511.748 813.661 C 510.44599999999997 812.577 508.364 811.992 505.674 811.992 L 499.64799999999997 811.992 L 499.64799999999997 833.179 L 502.683 833.179 L 502.683 824.288 L 503.05 824.29 z M 503.04999999999995 814.444 L 505.69699999999995 814.444 C 507.60499999999996 814.444 508.94999999999993 814.834 509.68699999999995 815.3969999999999 C 510.40299999999996 815.9609999999999 510.59799999999996 816.6999999999999 510.59799999999996 818.0429999999999 C 510.59799999999996 820.4929999999999 509.078 821.6439999999999 506.26099999999997 821.6439999999999 L 503.00899999999996 821.6439999999999 L 503.00899999999996 814.4439999999998 L 503.04999999999995 814.4439999999998 z M 18.031999999999982 822.4019999999999 C 18.031999999999982 815.0289999999999 17.81599999999998 809.544 17.64199999999998 806.3119999999999 L 17.81599999999998 806.3119999999999 C 18.57399999999998 810.1259999999999 19.50699999999998 812.9689999999999 20.26599999999998 814.8549999999999 L 48.45599999999998 877.8299999999999 L 53.18399999999998 877.8299999999999 L 81.37399999999998 814.2919999999999 C 82.13499999999998 812.559 82.89399999999998 809.9549999999999 83.82599999999998 806.333 L 84.04199999999997 806.333 C 83.47899999999997 812.6229999999999 83.28399999999998 818.087 83.28399999999998 822.4449999999999 L 83.28399999999998 878.026 L 92.93199999999997 878.026 L 92.93199999999997 795.404 L 80.83199999999998 795.404 L 54.919 852.87 C 53.964 855.146 52.641 858.553 50.949999999999996 863.063 L 50.55799999999999 863.063 C 49.99499999999999 860.829 48.67199999999999 857.424 46.785999999999994 853.26 L 21.455999999999996 795.207 L 8.598 795.207 L 8.598 877.828 L 17.879 877.828 L 17.879 822.443 L 18.032 822.4019999999999 z M 114.07699999999998 822.5559999999999 L 122.40599999999998 822.5559999999999 L 122.40599999999998 874.0139999999999 L 114.07699999999997 874.0139999999999 L 114.07699999999997 822.5559999999999 z M 118.24099999999999 803.6879999999999 C 119.97699999999999 803.6879999999999 121.45099999999998 803.1009999999999 122.57799999999999 801.9539999999998 C 123.728 800.8249999999998 124.48799999999999 799.3509999999999 124.48799999999999 797.6169999999998 C 124.48799999999999 795.9249999999998 123.92299999999999 794.4059999999998 122.60099999999998 793.2799999999999 C 121.42999999999998 792.1299999999999 119.93299999999998 791.5429999999999 118.21999999999998 791.5429999999999 C 116.52999999999999 791.5429999999999 115.01199999999999 792.1299999999999 113.88199999999999 793.2799999999999 C 112.73599999999999 794.4059999999998 111.975 795.9249999999998 111.975 797.6169999999998 C 111.975 799.5039999999998 112.56099999999999 800.8249999999998 113.88199999999999 801.9539999999998 C 115.18599999999999 803.1009999999999 116.529 803.6879999999999 118.21999999999998 803.6879999999999 L 118.24099999999999 803.6879999999999 z M 181.78099999999998 875.1429999999999 L 181.78099999999998 866.0769999999999 C 177.22599999999997 869.4819999999999 172.325 871.1749999999998 167.25099999999998 871.1749999999998 C 161.18099999999998 871.1749999999998 156.25599999999997 869.0939999999998 152.65599999999998 865.1049999999998 C 149.07899999999998 861.1579999999998 147.17099999999996 855.6689999999998 147.17099999999996 848.8389999999998 C 147.17099999999996 841.6829999999999 149.07899999999995 835.9989999999998 153.02499999999998 831.6619999999998 C 156.81999999999996 827.4989999999998 161.74399999999997 825.4169999999998 167.77299999999997 825.4169999999998 C 172.69499999999996 825.4169999999998 177.41999999999996 826.9369999999998 181.78199999999998 829.9739999999998 L 181.78199999999998 820.3239999999998 C 177.814 818.2419999999998 173.28199999999998 817.2869999999998 168.16299999999998 817.2869999999998 C 158.707 817.2869999999998 151.33599999999998 820.3239999999998 145.82799999999997 826.1809999999998 C 140.36199999999997 832.0349999999999 137.54299999999998 839.9939999999998 137.54299999999998 849.6009999999998 C 137.54299999999998 858.1439999999998 139.99299999999997 865.3229999999998 145.09099999999998 870.8099999999997 C 150.403 876.4469999999997 157.19299999999998 879.3099999999997 165.51899999999998 879.3099999999997 C 171.95699999999997 879.1319999999997 177.22599999999997 877.7869999999997 181.78099999999998 875.1429999999997 z M 205.61199999999997 847.7099999999999 C 205.61199999999997 840.9219999999999 207.12999999999997 835.4369999999999 209.94899999999996 831.661 C 212.59599999999995 828.2579999999999 215.80399999999995 826.545 219.59899999999996 826.545 C 222.80899999999997 826.545 225.08499999999995 827.13 226.75399999999996 828.453 L 226.75399999999996 818.607 C 225.45399999999995 818.044 223.56699999999995 817.8489999999999 221.11699999999996 817.8489999999999 C 217.71199999999996 817.8489999999999 214.67799999999997 818.9949999999999 212.00999999999996 821.102 C 209.19099999999997 823.333 206.93599999999995 826.74 205.61299999999997 831.077 L 205.39699999999996 831.077 L 205.39699999999996 818.997 L 195.96399999999997 818.997 L 195.96399999999997 877.982 L 205.41799999999998 877.982 L 205.41799999999998 847.71 L 205.61199999999997 847.71 z M 259.89099999999996 879.1529999999999 C 268.78299999999996 879.1529999999999 275.93899999999996 876.2899999999998 281.251 870.6099999999999 C 286.541 864.9689999999999 289.18699999999995 857.3809999999999 289.18699999999995 847.9239999999999 C 289.18699999999995 838.2769999999998 286.75999999999993 830.9029999999999 281.81499999999994 825.4139999999999 C 276.91499999999996 819.9309999999999 270.1039999999999 817.2819999999999 261.21199999999993 817.2819999999999 C 252.31999999999994 817.2819999999999 245.16399999999993 819.929 239.85199999999992 825.0459999999999 C 234.1709999999999 830.6869999999999 231.1779999999999 838.645 231.1779999999999 848.8589999999999 C 231.1779999999999 857.7499999999999 233.6069999999999 865.1239999999999 238.7259999999999 870.6099999999999 C 244.0159999999999 876.2899999999998 251.0209999999999 879.1309999999999 259.8909999999999 879.1309999999999 L 259.8909999999999 879.1529999999999 z M 246.44599999999997 831.098 C 250.04599999999996 827.303 254.77499999999998 825.415 260.628 825.415 C 266.702 825.415 271.255 827.303 274.638 831.098 C 278.042 835.067 279.73499999999996 840.728 279.73499999999996 848.295 C 279.73499999999996 855.4929999999999 278.21599999999995 861.154 275.006 864.949 C 271.79799999999994 868.918 267.07 871.02 260.823 871.02 C 254.75199999999998 871.02 250.046 868.9159999999999 246.44599999999997 864.949 C 242.86899999999997 860.959 241.15499999999997 855.4929999999999 241.15499999999997 848.295 C 240.78699999999998 841.139 242.67399999999998 835.285 246.44599999999997 831.098 z M 330.587 874.0139999999999 C 334.186 870.8059999999999 336.096 866.8589999999999 336.096 861.9119999999999 C 336.096 857.5749999999999 334.576 853.9759999999999 331.758 851.1349999999999 C 329.45799999999997 848.8599999999999 325.904 846.7979999999999 320.764 844.7159999999999 C 316.208 842.81 313.39 841.1159999999999 311.871 839.7929999999999 C 310.354 838.2759999999998 309.421 836.3909999999998 309.421 833.7219999999999 C 309.421 831.2719999999998 310.376 829.3849999999999 312.242 827.8669999999998 C 314.15000000000003 826.3509999999999 316.579 825.6139999999998 319.832 825.6139999999998 C 324.928 825.6139999999998 329.286 826.9569999999998 333.275 829.7989999999998 L 333.275 820.3429999999997 C 329.459 818.4369999999998 325.31699999999995 817.5259999999997 320.589 817.5259999999997 C 314.518 817.5259999999997 309.4 819.1969999999998 305.625 822.4249999999997 C 301.656 825.6369999999997 299.771 829.7999999999997 299.771 834.6989999999997 C 299.771 839.0359999999997 301.071 842.6369999999997 303.54200000000003 845.2809999999997 C 305.624 847.5369999999997 309.18300000000005 849.8369999999998 314.12500000000006 851.8949999999998 C 318.85400000000004 853.9779999999997 322.06300000000005 855.8629999999997 323.77500000000003 857.3799999999998 C 325.466 858.8999999999997 326.225 860.7849999999997 326.225 863.0209999999997 C 326.225 868.5269999999997 322.45300000000003 871.3699999999998 315.079 871.3699999999998 C 309.397 871.3699999999998 304.303 869.5039999999998 299.746 865.7319999999997 L 299.746 875.9209999999997 C 303.86699999999996 878.3959999999997 308.81199999999995 879.5219999999997 314.27599999999995 879.5219999999997 C 321.28099999999995 879.1539999999997 326.76599999999996 877.4409999999997 330.53999999999996 874.0359999999997 L 330.587 874.0139999999997 z M 375.606 817.2839999999999 C 366.71299999999997 817.2839999999999 359.558 819.9309999999999 354.245 825.0479999999999 C 348.607 830.6889999999999 345.571 838.6469999999999 345.571 848.8609999999999 C 345.571 857.7519999999998 348.023 865.1259999999999 353.11800000000005 870.6119999999999 C 358.43100000000004 876.2919999999998 365.41300000000007 879.1329999999998 374.30500000000006 879.1329999999998 C 383.41200000000003 879.1329999999998 390.35300000000007 876.2719999999998 395.6650000000001 870.5879999999999 C 400.97800000000007 864.9509999999999 403.6230000000001 857.3609999999999 403.6230000000001 847.9049999999999 C 403.6230000000001 838.2549999999999 401.1510000000001 830.8829999999998 396.2490000000001 825.3959999999998 C 391.13400000000007 819.9089999999999 384.32200000000006 817.2629999999998 375.6480000000001 817.2629999999998 L 375.6060000000001 817.2839999999998 z M 393.951 848.2959999999998 C 393.951 855.4939999999998 392.43300000000005 861.1549999999999 389.22400000000005 864.9499999999998 C 386.01400000000007 868.9189999999999 381.28600000000006 871.0209999999998 375.04 871.0209999999998 C 368.966 871.0209999999998 364.262 868.9169999999998 360.661 864.9499999999998 C 357.084 860.9599999999998 355.371 855.4939999999998 355.371 848.2959999999998 C 355.371 840.7059999999998 357.25899999999996 834.8519999999999 361.054 830.9029999999998 C 364.63 827.1299999999998 369.35999999999996 825.2209999999998 375.236 825.2209999999998 C 381.09 825.2209999999998 385.79699999999997 827.1279999999998 389.2 830.9029999999998 C 392.23699999999997 835.0659999999998 393.929 840.7269999999997 393.929 848.2959999999998 L 393.95099999999996 848.2959999999998 z M 419.49800000000005 877.8089999999999 L 428.93100000000004 877.8089999999999 L 428.93100000000004 826.7409999999999 L 442.744 826.7409999999999 L 442.744 818.8029999999999 L 428.93 818.8029999999999 L 428.93 809.6949999999999 C 428.93 801.4129999999999 432.13800000000003 797.2489999999999 438.77500000000003 797.2489999999999 C 441.009 797.2489999999999 443.28600000000006 797.8119999999999 444.978 798.7669999999999 L 444.978 790.246 C 443.286 789.487 441.009 789.314 438.166 789.314 C 433.07099999999997 789.314 428.908 790.833 425.502 794.0409999999999 C 421.533 797.814 419.431 802.7149999999999 419.431 809.353 L 419.431 819.025 L 409.453 819.025 L 409.453 826.961 L 419.431 826.961 L 419.431 877.837 L 419.498 877.809 z M 458.24800000000005 861.7179999999998 C 458.24800000000005 873.2559999999999 463.34600000000006 879.1319999999998 473.754 879.1319999999998 C 477.528 879.1319999999998 480.368 878.5259999999998 482.64500000000004 877.1809999999998 L 482.64500000000004 869.0709999999998 C 480.91100000000006 870.3729999999998 478.85 870.9809999999998 476.574 870.9809999999998 C 473.366 870.9809999999998 471.11 870.2189999999998 469.786 868.5059999999997 C 468.441 866.8169999999998 467.683 863.9519999999998 467.683 860.0049999999998 L 467.683 826.7189999999998 L 482.644 826.7189999999998 L 482.644 818.7809999999998 L 467.683 818.7809999999998 L 467.683 801.3909999999998 C 464.43 802.5179999999998 461.243 803.4729999999998 458.227 804.4249999999998 L 458.227 818.7799999999999 L 448.03499999999997 818.7799999999999 L 448.03499999999997 826.7179999999998 L 458.227 826.7179999999998 L 458.227 861.6969999999999 L 458.248 861.7179999999998 z M 1473.1280000000002 970.4479999999999 C 1469.919 967.4139999999999 1466.1240000000003 965.8949999999999 1461.419 965.8949999999999 C 1456.6490000000001 965.8949999999999 1452.7 967.4139999999999 1449.491 970.6659999999998 C 1446.282 973.8539999999998 1444.762 977.8209999999998 1444.762 982.3769999999998 C 1444.762 987.1049999999998 1446.282 991.0519999999998 1449.4669999999999 994.0859999999998 C 1452.6779999999999 997.1219999999997 1456.6229999999998 998.6419999999998 1461.395 998.6419999999998 C 1466.1 998.6419999999998 1470.069 997.1219999999998 1473.323 993.9129999999998 C 1476.5110000000002 990.6599999999997 1478.202 986.9089999999998 1478.202 982.2039999999998 C 1478.028 977.4329999999999 1476.315 973.4849999999998 1473.106 970.4499999999998 L 1473.128 970.4479999999999 z M 1471.611 992.7859999999998 C 1468.7910000000002 995.6039999999998 1465.365 996.9049999999999 1461.201 996.9049999999999 C 1457.082 996.9049999999999 1453.656 995.6039999999998 1450.7930000000001 992.7859999999998 C 1447.9750000000001 989.9229999999998 1446.4550000000002 986.3449999999998 1446.4550000000002 982.1589999999999 C 1446.4550000000002 978.0379999999999 1447.756 974.6139999999999 1450.6190000000001 971.7509999999999 C 1453.4370000000001 968.9339999999999 1456.844 967.6299999999999 1461.2010000000002 967.6299999999999 C 1465.3220000000003 967.6299999999999 1468.7500000000002 968.9339999999999 1471.6110000000003 971.7509999999999 C 1474.4290000000003 974.6139999999999 1475.9470000000003 978.0379999999999 1475.9470000000003 982.1589999999999 C 1475.9470000000003 986.5409999999998 1474.6460000000004 989.9229999999999 1471.6110000000003 992.7859999999998 z M 1463.1090000000002 983.1349999999999 C 1464.8000000000002 982.7449999999999 1466.1460000000002 981.9859999999999 1467.0780000000002 981.0539999999999 C 1468.0330000000001 980.0769999999999 1468.3810000000003 978.7529999999998 1468.3810000000003 977.2389999999998 C 1468.3810000000003 975.5469999999998 1467.8380000000004 974.2019999999998 1466.6900000000003 973.2699999999998 C 1465.3890000000004 972.1849999999997 1463.2860000000003 971.5989999999997 1460.6200000000003 971.5989999999997 L 1454.5910000000003 971.5989999999997 L 1454.5910000000003 992.7629999999997 L 1457.6280000000004 992.7629999999997 L 1457.6280000000004 983.8719999999997 L 1459.5130000000004 983.8719999999997 C 1460.8160000000005 983.8719999999997 1462.1170000000004 985.1719999999997 1463.2860000000003 987.6449999999998 L 1465.5400000000002 992.7409999999998 L 1469.1420000000003 992.7409999999998 L 1466.3240000000003 987.0579999999998 C 1465.3470000000002 984.5859999999998 1464.2190000000003 983.4569999999998 1463.0720000000003 983.0879999999997 L 1463.1090000000004 983.1349999999998 z M 1461.027 981.2279999999998 L 1457.775 981.2279999999998 L 1457.775 974.0729999999999 L 1460.443 974.0729999999999 C 1462.33 974.0729999999999 1463.652 974.4179999999999 1464.412 975.0049999999999 C 1465.17 975.5679999999999 1465.344 976.3059999999999 1465.344 977.6509999999998 C 1465.344 980.1009999999999 1463.826 981.2299999999998 1461.008 981.2299999999998 L 1461.027 981.2279999999998 z M 933.443 816.353 L 936.0889999999999 816.353 L 936.0889999999999 795.1659999999999 L 943.0909999999999 795.1659999999999 L 943.0909999999999 792.52 L 926.4389999999999 792.52 L 926.4389999999999 795.1659999999999 L 933.4449999999998 795.1659999999999 L 933.4449999999998 816.353 L 933.4429999999999 816.353 z M 949.49 800.4359999999999 C 949.49 798.3739999999999 949.49 796.6829999999999 949.338 795.7309999999999 C 949.512 796.8569999999999 949.9019999999999 797.6179999999998 950.076 798.1809999999999 L 958.2090000000001 816.353 L 959.5100000000001 816.353 L 967.6620000000001 798.006 C 967.8810000000002 797.443 968.0550000000002 796.7049999999999 968.4220000000001 795.731 C 968.2480000000002 797.6179999999999 968.2480000000002 799.132 968.2480000000002 800.284 L 968.2480000000002 816.332 L 971.0680000000002 816.332 L 971.0680000000002 792.52 L 967.6620000000003 792.52 L 960.2910000000003 808.958 C 960.1170000000003 809.545 959.5290000000003 810.692 959.1620000000003 811.995 L 958.9450000000003 811.995 C 958.7930000000002 811.234 958.4040000000002 810.476 957.8610000000003 809.177 L 950.4880000000003 792.522 L 946.6720000000003 792.522 L 946.6720000000003 816.3760000000001 L 949.3380000000003 816.3760000000001 L 949.3380000000003 800.4590000000001 L 949.4900000000004 800.436 z" stroke-linecap="round" />
</g>
</g>
</g>
</svg>