<svg xmlns="http://www.w3.org/2000/svg" width="256" height="256"><rect width="256" height="256" rx="60" fill="#F4F2ED"/><path fill="#FF4785" d="M166.578 23.465l-1.066 24.09a1.594 1.594 0 00.863 1.488 1.6 1.6 0 001.715-.152l9.422-7.114 8 6.223A1.599 1.599 0 00188 46.754l-.89-24.531 11.824-.891A10.673 10.673 0 01210.313 32v192a10.665 10.665 0 01-3.313 7.738 10.677 10.677 0 01-7.89 2.93L56 228.266a10.668 10.668 0 01-10.223-10.309l-6.668-176a10.681 10.681 0 012.68-7.73 10.674 10.674 0 017.367-3.559l117.332-7.379zM139.29 104c0 4.18 28.09 2.133 31.91-.71 0-28.446-15.289-43.47-43.199-43.47-28 0-43.555 15.29-43.555 38.137 0 39.555 53.332 40.266 53.332 61.863 0 6.223-2.843 9.782-9.332 9.782-8.535 0-12-4.356-11.554-19.204 0-3.199-32.446-4.265-33.512 0-2.402 35.825 19.82 46.223 45.332 46.223 24.8 0 44.18-13.242 44.18-37.156 0-42.399-54.223-41.242-54.223-62.219 0-8.625 6.398-9.781 10.043-9.781 4 0 11.11.625 10.578 16.625zm0 0"/></svg>