<svg width="256" height="256" viewBox="0 0 256 256" fill="none" xmlns="http://www.w3.org/2000/svg"><rect width="256" height="256" rx="60" fill="black"/><path d="M60,0h136c33.1,0,60,26.9,60,60v136c0,33.1-26.9,60-60,60H60c-33.1,0-60-26.9-60-60V60C0,26.9,26.9,0,60,0z"/><path d="M54.2,204.8l-5.8-154c-0.2-5.1,3.7-9.4,8.8-9.7l131-8.2c5.2-0.3,9.6,3.6,9.9,8.8c0,0.2,0,0.4,0,0.6v167.8 c0,5.2-4.2,9.4-9.4,9.4c-0.1,0-0.3,0-0.4,0l-125.2-5.6C58.3,213.6,54.4,209.7,54.2,204.8L54.2,204.8z" fill="#FF4785"/><path d="M159,55.8l0.9-21.5l18-1.4l0.8,22.2c0,0.8-0.6,1.4-1.3,1.4c-0.3,0-0.7-0.1-0.9-0.3l-6.9-5.5l-8.2,6.2 c-0.6,0.5-1.5,0.3-2-0.3C159.1,56.5,159,56.1,159,55.8z M136,103.2c0,3.6,24.6,1.9,27.9-0.7c0-24.9-13.3-37.9-37.8-37.9 S88,77.9,88,97.8c0,34.6,46.8,35.3,46.8,54.2c0,5.3-2.6,8.5-8.3,8.5c-7.4,0-10.4-3.8-10-16.7c0-2.8-28.4-3.7-29.3,0 c-2.2,31.3,17.3,40.4,39.7,40.4c21.6,0,38.6-11.5,38.6-32.4c0-37.1-47.5-36.1-47.5-54.5c0-7.5,5.5-8.5,8.8-8.5 C130.2,88.7,136.5,89.3,136,103.2z" fill="#FFFFFF"/></svg>