<svg width="256" height="256" fill="none" version="1.1" viewBox="0 0 256 256" xmlns="http://www.w3.org/2000/svg">
 <rect width="256" height="256" rx="60" fill="#242938"/>
 <g transform="matrix(.68924 0 0 .68924 7.3246 45.764)">
  <path d="m175.07 139.29-52.592-27.8-91.292-48.25c-0.084-0.084-0.25-0.084-0.334-0.084-3.333-1.583-6.75 1.75-5.5 5.084l46.517 118.64 9e-3 0.025c0.05 0.116 0.091 0.233 0.141 0.35 1.909 4.425 6.075 7.158 10.609 8.233 0.383 0.083 0.657 0.159 1.117 0.251 0.458 0.102 1.099 0.241 1.649 0.282 0.092 9e-3 0.175 9e-3 0.267 0.017h0.067c0.066 8e-3 0.133 8e-3 0.2 0.017h0.091c0.059 8e-3 0.125 8e-3 0.184 8e-3h0.108c0.067 8e-3 0.133 8e-3 0.2 8e-3 58.912 6.423 118.35 6.423 177.26 0 0.708 0 1.4-0.033 2.066-0.1 0.217-0.025 0.425-0.05 0.634-0.075 0.025-8e-3 0.058-8e-3 0.083-0.016 0.142-0.017 0.283-0.042 0.425-0.067 0.208-0.025 0.417-0.067 0.625-0.108 0.417-0.092 0.606-0.159 1.172-0.353 0.565-0.194 1.504-0.534 2.091-0.817 0.588-0.284 0.995-0.555 1.487-0.864 0.608-0.383 1.187-0.775 1.774-1.215 0.253-0.194 0.426-0.318 0.609-0.493l-0.1-0.058z" fill="#ff4b4b"/>
  <path d="m319.1 63.239h-0.083l-91.326 48.25 50.767 75.609 46.4-118.86v-0.167c1.167-3.5-2.416-6.666-5.758-4.833" fill="#7d353b"/>
  <path d="m179.93 40.296c-2.334-3.408-7.417-3.408-9.667 0l-47.792 71.192 52.592 27.8 99.667 52.675c0.626-0.613 1.128-1.21 1.658-1.841 0.75-0.925 1.45-1.917 2.067-3.025l-50.767-75.609z" fill="#bd4043"/>
 </g>
</svg>
