<svg width="256" height="256" viewBox="0 0 256 256" fill="none" xmlns="http://www.w3.org/2000/svg">
<g clip-path="url(#clip0_273_19)">
<path d="M196 0H60C26.8629 0 0 26.8629 0 60V196C0 229.137 26.8629 256 60 256H196C229.137 256 256 229.137 256 196V60C256 26.8629 229.137 0 196 0Z" fill="#F4F2ED"/>
<path d="M127.988 141.698L92.9262 123.165L32.0648 90.9983C32.0093 90.9427 31.8982 90.9427 31.8426 90.9427C29.6204 89.8872 27.3426 92.1094 28.1759 94.3317L59.1871 173.426L59.1927 173.443C59.226 173.521 59.2538 173.598 59.2871 173.676C60.5593 176.626 63.3371 178.448 66.3594 179.165C66.615 179.221 66.7978 179.271 67.1046 179.332C67.41 179.4 67.8372 179.493 68.2038 179.521C68.265 179.526 68.3205 179.526 68.3816 179.532H68.4261C68.4705 179.538 68.515 179.538 68.5594 179.543H68.6205C68.6594 179.548 68.7038 179.548 68.7428 179.548H68.815C68.8594 179.554 68.9038 179.554 68.9483 179.554C108.223 183.836 147.846 183.836 187.121 179.554C187.593 179.554 188.054 179.532 188.498 179.488C188.643 179.471 188.782 179.454 188.921 179.438C188.938 179.432 188.96 179.432 188.976 179.426C189.071 179.415 189.165 179.398 189.26 179.382C189.398 179.365 189.538 179.338 189.676 179.31C189.954 179.248 190.08 179.204 190.458 179.074C190.834 178.945 191.46 178.718 191.852 178.53C192.244 178.341 192.515 178.16 192.843 177.954C193.248 177.698 193.634 177.437 194.026 177.144C194.194 177.014 194.31 176.932 194.432 176.815L194.365 176.776L127.988 141.698Z" fill="#FF4B4B"/>
<path d="M224.011 90.9991H223.956L163.072 123.166L196.916 173.572L227.85 94.3325V94.2214C228.628 91.888 226.239 89.7769 224.011 90.9991Z" fill="#7D353B"/>
<path d="M131.232 75.7042C129.676 73.4319 126.288 73.4319 124.788 75.7042L92.9263 123.166L127.988 141.699L194.432 176.815C194.85 176.406 195.184 176.008 195.538 175.588C196.038 174.971 196.504 174.31 196.916 173.571L163.071 123.166L131.232 75.7042Z" fill="#BD4043"/>
</g>
<defs>
<clipPath id="clip0_273_19">
<rect width="256" height="256" fill="white"/>
</clipPath>
</defs>
</svg>
