<?xml version="1.0" encoding="UTF-8" standalone="no"?>
<svg
   width="256"
   height="256"
   viewBox="0 0 256 256"
   fill="none"
   version="1.1"
   id="svg12"
   sodipodi:docname="StyledComponents.svg"
   inkscape:version="1.1.2 (0a00cf5339, 2022-02-04, custom)"
   xmlns:inkscape="http://www.inkscape.org/namespaces/inkscape"
   xmlns:sodipodi="http://sodipodi.sourceforge.net/DTD/sodipodi-0.dtd"
   xmlns:xlink="http://www.w3.org/1999/xlink"
   xmlns="http://www.w3.org/2000/svg"
   xmlns:svg="http://www.w3.org/2000/svg">
  <defs
     id="defs16">
    <rect
       x="18.507929"
       y="72.150818"
       width="221.14229"
       height="95.466724"
       id="rect8279" />
    <linearGradient
       inkscape:collect="always"
       id="linearGradient1327">
      <stop
         style="stop-color:#db7093;stop-opacity:1"
         offset="0"
         id="stop1323" />
      <stop
         style="stop-color:#f3b661;stop-opacity:1"
         offset="1"
         id="stop1325" />
    </linearGradient>
    <g
       id="SVG"
       fill="#ffffff"
       transform="scale(2) translate(20,79)">
      <path
         id="S"
         d="M 5.482,31.319 C2.163,28.001 0.109,23.419 0.109,18.358 C0.109,8.232 8.322,0.024 18.443,0.024 C28.569,0.024 36.782,8.232 36.782,18.358 L26.042,18.358 C26.042,14.164 22.638,10.765 18.443,10.765 C14.249,10.765 10.850,14.164 10.850,18.358 C10.850,20.453 11.701,22.351 13.070,23.721 L13.075,23.721 C14.450,25.101 15.595,25.500 18.443,25.952 L18.443,25.952 C23.509,26.479 28.091,28.006 31.409,31.324 L31.409,31.324 C34.728,34.643 36.782,39.225 36.782,44.286 C36.782,54.412 28.569,62.625 18.443,62.625 C8.322,62.625 0.109,54.412 0.109,44.286 L10.850,44.286 C10.850,48.480 14.249,51.884 18.443,51.884 C22.638,51.884 26.042,48.480 26.042,44.286 C26.042,42.191 25.191,40.298 23.821,38.923 L23.816,38.923 C22.441,37.548 20.468,37.074 18.443,36.697 L18.443,36.692 C13.533,35.939 8.800,34.638 5.482,31.319 L5.482,31.319 L5.482,31.319 Z" />
      <path
         id="V"
         d="M 73.452,0.024 L60.482,62.625 L49.742,62.625 L36.782,0.024 L47.522,0.024 L55.122,36.687 L62.712,0.024 L73.452,0.024 Z" />
      <path
         id="G"
         d="M 91.792,25.952 L110.126,25.952 L110.126,44.286 L110.131,44.286 C110.131,54.413 101.918,62.626 91.792,62.626 C81.665,62.626 73.458,54.413 73.458,44.286 L73.458,44.286 L73.458,18.359 L73.453,18.359 C73.453,8.233 81.665,0.025 91.792,0.025 C101.913,0.025 110.126,8.233 110.126,18.359 L99.385,18.359 C99.385,14.169 95.981,10.765 91.792,10.765 C87.597,10.765 84.198,14.169 84.198,18.359 L84.198,44.286 L84.198,44.286 C84.198,48.481 87.597,51.880 91.792,51.880 C95.981,51.880 99.380,48.481 99.385,44.291 L99.385,44.286 L99.385,36.698 L91.792,36.698 L91.792,25.952 L91.792,25.952 Z" />
    </g>
    <clipPath
       id="_clipPath_8TWIgR1z3pxinjWBiigzcEIrVJKv9Gq4">
      <rect
         width="500"
         height="500"
         id="rect836" />
    </clipPath>
    <filter
       id="Hmac7mZraFWHw0G84Yxj4QuzeTFp0E7Y"
       x="-0.22015058"
       y="-0.085804489"
       width="1.4403012"
       height="1.171609"
       filterUnits="objectBoundingBox"
       color-interpolation-filters="sRGB">
      <feGaussianBlur
         in="SourceGraphic"
         stdDeviation="6.440413594258542"
         id="feGaussianBlur843" />
      <feOffset
         dx="0"
         dy="0"
         result="pf_100_offsetBlur"
         id="feOffset845" />
      <feFlood
         flood-color="#000000"
         flood-opacity="0.65"
         id="feFlood847" />
      <feComposite
         in2="pf_100_offsetBlur"
         operator="in"
         result="pf_100_dropShadow"
         id="feComposite849" />
      <feBlend
         in="SourceGraphic"
         in2="pf_100_dropShadow"
         mode="normal"
         id="feBlend851" />
    </filter>
    <linearGradient
       id="linearGradient5041">
      <stop
         style="stop-color:#3e4b4b;stop-opacity:1;"
         offset="0"
         id="stop5043" />
      <stop
         style="stop-color:#1e3449;stop-opacity:1;"
         offset="1"
         id="stop5045" />
    </linearGradient>
    <radialGradient
       r="640"
       fy="825.16089"
       fx="293.49887"
       cy="825.16089"
       cx="293.49887"
       gradientTransform="matrix(2.7998301,-1.4738538,0.45507806,0.86449643,-926.2596,769.338)"
       gradientUnits="userSpaceOnUse"
       id="radialGradient3133"
       xlink:href="#linearGradient4453-1"
       inkscape:collect="always" />
    <linearGradient
       id="linearGradient4453-1">
      <stop
         id="stop4455-4"
         offset="0"
         style="stop-color:#070808;stop-opacity:1" />
      <stop
         id="stop4457-0"
         offset="1"
         style="stop-color:#152534;stop-opacity:1" />
    </linearGradient>
    <linearGradient
       inkscape:collect="always"
       xlink:href="#linearGradient1327"
       id="linearGradient1329"
       x1="0"
       y1="256"
       x2="256"
       y2="0"
       gradientUnits="userSpaceOnUse" />
  </defs>
  <sodipodi:namedview
     id="namedview14"
     pagecolor="#ffffff"
     bordercolor="#666666"
     borderopacity="1.0"
     inkscape:pageshadow="2"
     inkscape:pageopacity="0.0"
     inkscape:pagecheckerboard="0"
     showgrid="false"
     inkscape:zoom="1.8101934"
     inkscape:cx="55.242717"
     inkscape:cy="155.23203"
     inkscape:window-width="1211"
     inkscape:window-height="686"
     inkscape:window-x="90"
     inkscape:window-y="20"
     inkscape:window-maximized="1"
     inkscape:current-layer="svg12" />
  <rect
     width="256"
     height="256"
     rx="60"
     fill="#242938"
     id="rect2"
     x="0"
     y="0"
     style="fill:url(#linearGradient1329);fill-opacity:1;stroke-width:1" />
  <g
     inkscape:label="Layer 1"
     id="layer1"
     style="display:none"
     transform="translate(-606.58583,-699.5242)">
    <image
       y="392.14789"
       x="-90.714287"
       id="image3047"
       xlink:href="../../tomasi/Projects/nimrod/logo/new-symbols.png"
       height="329"
       width="800" />
  </g>
  <path
     inkscape:connector-curvature="0"
     d="m 602.64247,29.71093 h -28.65 v 7.28362 c 0,1.59787 0.4668,2.98732 1.4003,4.16834 0.9336,1.18104 2.0863,1.84067 3.4542,1.77155 h 23.6088 v 5.013 h -25.1124 c -2.2405,0 -4.1698,-0.86841 -5.7879,-2.60522 -1.556,-1.80627 -2.3339,-3.95992 -2.3339,-6.46093 V 14.28805 c 0,-2.50097 0.7779,-4.61988 2.3339,-6.35673 1.6181,-1.80625 3.5474,-2.70938 5.7879,-2.70942 h 17.1773 c 2.2405,4e-5 4.1387,0.90317 5.6946,2.70942 1.6181,1.73685 2.4272,3.85576 2.4272,6.35673 v 15.42288 m -4.9576,-4.59617 V 16.1748 c 0,-1.59784 -0.4668,-2.98729 -1.4003,-4.16836 -0.9336,-1.18099 -2.1161,-1.77151 -3.5475,-1.77154 h -13.8901 c -1.3693,3e-5 -2.5206,0.59055 -3.4542,1.77154 -0.9335,1.18107 -1.6566,2.59635 -1.4003,4.16836 v 8.93996 h 23.6924 m -40.8208,-41.56827 -0.093,64.40095 h -25.4857 c -2.2406,0 -4.1699,-0.86841 -5.788,-2.60522 -1.5559,-1.80627 -2.3339,-3.95992 -2.3339,-6.46093 l 0.093,-24.59324 c 0.062,-2.50097 0.8713,-4.61988 2.4272,-6.35673 1.5559,-1.80625 3.4541,-2.70938 5.6947,-2.70942 h 20.3414 l 0.093,-21.67541 h 5.051 m -5.1444,59.80479 -0.093,-33.53321 h -18.7445 c -1.3692,4e-5 -2.5206,0.66002 -3.4542,1.97996 -0.9335,1.32001 -1.4003,2.77893 -1.4003,4.37677 l 0.093,20.81975 c 0,1.59787 0.4357,3.05679 1.307,4.37675 0.8713,1.31999 1.9915,1.97998 3.3608,1.97998 h 18.9312 m -40.4211,-4.46999 c 0,2.50101 -0.8091,4.65466 -2.4272,6.46093 -1.5559,1.73681 -3.4541,2.60522 -5.6946,2.60522 h -19.0443 c -2.2406,0 -4.1699,-0.86841 -5.788,-2.60522 -1.5559,-1.80627 -2.3339,-3.95992 -2.3339,-6.46093 V 14.28805 c 0,-2.50097 0.778,-4.61988 2.3339,-6.35673 1.6181,-1.80625 3.5474,-2.70938 5.788,-2.70942 h 19.0443 c 2.2405,4e-5 4.1387,0.90317 5.6946,2.70942 1.6181,1.73685 2.4272,3.85576 2.4272,6.35673 v 24.59324 m -4.9576,-1.88674 V 16.1748 c 0,-1.59784 -0.4668,-2.98729 -1.4003,-4.16836 -0.9336,-1.18099 -2.1161,-1.77151 -3.5475,-1.77154 h -15.7572 c -1.3692,3e-5 -2.5206,0.59055 -3.4541,1.77154 -0.9336,1.18107 -1.4004,2.57052 -1.4004,4.16836 v 20.81975 c 0,1.59787 0.4668,2.98732 1.4004,4.16834 0.9335,1.18104 2.0849,1.77155 3.4541,1.77155 h 15.7572 c 1.4314,0 2.6139,-0.59051 3.5475,-1.77155 0.9335,-1.18102 1.4003,-2.57047 1.4003,-4.16834 m -43.2742,-8.62734 h -4.9577 V 16.1748 c 0,-1.59784 -0.4667,-2.98729 -1.4003,-4.16836 -0.9335,-1.18099 -2.116,-1.77151 -3.5474,-1.77154 h -13.8902 c -1.3692,3e-5 -2.5206,0.59055 -3.4541,1.77154 -0.9336,1.18107 -1.4003,2.57052 -1.4003,4.16836 v 20.81975 c 0,1.59787 0.4667,2.98732 1.4003,4.16834 0.9335,1.18104 2.0849,1.77155 3.4541,1.77155 h 23.5155 l 0.093,5.013 h -25.1124 c -2.2405,0 -4.1698,-0.86841 -5.7879,-2.60522 -1.5559,-1.80627 -2.3339,-3.95992 -2.3339,-6.46093 V 14.28805 c 0,-2.50097 0.778,-4.61988 2.3339,-6.35673 1.6181,-1.80625 3.5474,-2.70938 5.7879,-2.70942 h 17.1773 c 2.2405,4e-5 4.1387,0.90317 5.6946,2.70942 1.6181,1.73685 2.4272,3.85576 2.4272,6.35673 v 14.07916"
     style="font-style:normal;font-variant:normal;font-weight:normal;font-stretch:normal;font-size:87.357px;line-height:125%;font-family:Discognate;-inkscape-font-specification:Discognate;letter-spacing:0px;word-spacing:0px;display:none;fill:#ffffff;fill-opacity:1;stroke:none"
     id="path4870" />
  <g
     id="g39006"
     transform="translate(0,6)">
    <text
       xml:space="preserve"
       style="font-size:149.092px;line-height:1.25;font-family:sans-serif;word-spacing:0px;stroke-width:1.74718"
       x="-2.5309088"
       y="152.62979"
       id="text22291"
       transform="scale(0.79950023,1.2507814)"><tspan
         sodipodi:role="line"
         id="tspan22289"
         x="-2.5309088"
         y="152.62979"
         style="fill:#ffffff;fill-opacity:1;stroke-width:1.74718">&lt;    &gt;</tspan></text>
    <g
       id="svgg"
       transform="matrix(0.34965535,0,0,0.35377472,63.718728,43.521936)">
      <path
         id="path0"
         d="m 329.467,12.267 c -0.82334,12.907453 -6.70641,26.385648 -5.067,38.933 10.27692,17.958597 32.89146,20.82409 51.55012,22.055176 12.92744,2.282598 12.76604,-6.176633 11.89783,-15.680537 C 387.90086,42.383094 387.9528,27.191547 388.005,12 368.49292,12.06915 348.97398,11.808587 329.467,12.267 Z M 175.6,48.366 c -31.769,5.327811 -63.97152,20.331952 -90.4,38.395 -21.273151,16.36276 18.26073,32.22121 32.603,34.872 28.85566,0.34737 54.45123,-18.88879 73.406,-38.858 6.18802,-8.396798 13.91862,-21.248011 6.14263,-30.978125 C 191.41452,46.707997 182.7805,47.94253 175.6,48.366 Z m 67.6,45.663 c -26.1187,4.915562 -50.97287,15.55701 -72.964,30.371 -16.12049,5.00494 -29.40702,22.4981 -9.43028,31.264 20.97748,16.52248 45.28846,12.4731 64.60943,1.32043 C 243.10736,146.58982 262.21749,133.76502 270.4,114.2 278.1319,92.76563 258.18715,91.969716 243.2,94.029 Z m 74.1,83.054 c -4.8657,20.08076 -25.32711,29.21201 -36.2105,45.124 -8.90043,11.60516 -4.78077,25.27791 5.35238,34.413 4.9353,10.11165 13.58298,15.76321 22.85812,6.98 23.88686,-16.04919 30.49352,-47.31408 29.5,-74.40097 1.76535,-11.188 -11.22193,-1.07519 -21.5,-12.11603 z M 226.4,214.8 c -31.71992,5.36438 -63.44413,20.64097 -89.884,38.675 -20.52699,16.34002 18.13218,31.59991 32.59256,34.01914 29.39058,0.0416 55.60652,-18.67982 74.19144,-39.94114 6.4652,-8.44382 14.29821,-24.84116 1.5,-31.553 -5.72489,-2.39768 -12.36681,-1.69492 -18.4,-1.2 z"
         stroke="none"
         fill="#e41c1d"
         fill-rule="evenodd"
         sodipodi:nodetypes="cccccccccccccccccccccccccccccc"
         style="fill:#b956a6;fill-opacity:1" />
      <path
         id="path1"
         d="M 85.2,86.761 C 60.805095,96.408654 37.270438,108.1227 14.033,120.389 9.7133571,136.26264 13.176759,155.91625 12.057101,173.31979 11.972677,244.87983 12.014,316.43993 12,388 c 17.942667,0 35.885333,0 53.828,0 10.866335,-10.11248 24.481126,-17.5148 36.285,-26.7 45.45653,-32.22003 90.89921,-64.5669 136.294,-96.696 3.34011,1.48362 1.19992,-19.4224 -6.12672,-4.90286 -17.36324,16.14798 -40.40801,29.43267 -64.80128,28.13286 -13.84115,-4.49782 -36.15362,-12.13329 -36.29575,-28.89737 9.74389,-11.33972 -17.9758,5.93417 -25.5605,8.40729 C 80.962644,279.04809 56.885986,292.11417 32.176,303.6 c 5.94009,-6.30261 17.050188,-12.17926 24.924,-18.432 56.26473,-39.92011 112.51325,-79.99307 168.91237,-119.87862 10.8471,-7.52974 21.32609,-15.74125 32.50738,-22.7765 1.02101,3.89758 2.93929,-18.6351 -5.37775,-4.76088 -16.9532,16.60876 -39.82229,28.97298 -63.93981,29.14291 -13.56485,-4.07266 -42.45688,-13.80378 -36.02419,-31.11291 3.13679,-6.07472 -29.13883,12.94886 -14.878,2.22 15.17799,-10.96152 30.47461,-21.72857 45.77,-32.576 7.72655,-0.5751 6.08142,-28.932898 -4.41403,-10.6405 -17.63254,15.31161 -40.79857,29.3211 -65.08272,26.00088 C 100.93228,116.90509 84.563657,109.38716 79.606,95.288 77.963368,91.90152 88.790622,86.626242 85.2,86.761 Z m 101.067,17.506 c -1.3537,3.82437 2.45127,-1.39771 0,0 z"
         stroke="none"
         fill="#fccc44"
         fill-rule="evenodd" />
      <path
         id="path2"
         d="m 340.4,67.812 c -7.61759,35.94697 -15.94284,73.56544 -23.1,109.271 20.56822,25.62253 22.55973,-16.18457 26.1577,-28.00579 5.81547,-24.70645 12.70296,-43.36427 13.43185,-68.946087 C 358.43356,71.402285 348.05177,66.113899 340.4,67.812 Z M 363.995,96 c -0.64262,3.685812 0.93837,0.692691 0,0 z M 340,176.6 c 0.99173,2.10759 0.99173,-2.10759 0,0 z"
         stroke="none"
         fill="#62777f"
         fill-rule="evenodd"
         sodipodi:nodetypes="ccccccccc" />
      <path
         id="path3"
         d="m 353.889,71.882 c 6.41904,35.62483 -14.83933,78.89951 -21.79317,112.48603 15.7872,-11.48086 27.98512,-63.57701 31.10417,-83.96803 0.80273,-2.332623 1.79142,-8.201841 2.006,-8.412 0.99172,-4.951246 10.23791,-13.337392 10.74412,-18.732824 C 381.33445,69.500081 349.4964,68.89534 353.889,71.882 Z M 340.8,176.6 c -0.99173,2.10759 -0.99173,-2.10759 0,0 z"
         stroke="none"
         fill="#4e5e67"
         fill-rule="evenodd"
         sodipodi:nodetypes="cccccccc" />
      <path
         id="path4"
         d="m 85.733,87.354 c -8.899374,8.807188 -5.559765,6.656235 1.066,-0.668 z M 182,91.716 c -10.30858,15.31222 -47.48983,28.11636 -52.17167,29.1083 22.36521,-4.1396 43.2122,-17.88965 57.88161,-33.999378 C 185.37728,87.851002 183.99269,90.264545 182,91.716 Z M 79.618,96.688 c 5.557323,13.20591 25.76349,21.98166 35.582,24.028 -13.4052,-4.2674 -29.184261,-11.83883 -35.582,-24.028 z m 105.849,7.637 c -2.80477,3.27401 -12.80022,8.17235 -18.067,12.973 -11.29878,8.23889 -22.98803,15.89358 -34.15825,24.33575 7.11064,-0.30055 27.95552,-15.68847 17.27,-0.0742 9.05377,15.40204 28.76924,26.11149 46.74306,25.13447 23.73927,-3.68389 45.62824,-16.65421 61.36319,-34.69397 -19.10126,18.68042 -44.35597,36.26111 -72.298,33.839 -13.52625,-3.08532 -50.48306,-21.95384 -25.75975,-35.18013 8.71481,-7.08663 23.74456,-10.79897 25.44575,-23.25187 -0.35653,-1.55461 2.57546,-3.07207 -0.539,-3.082 z m -67.664,17.308 c 8.9946,1.16095 8.9946,-1.16095 0,0 z m 140.145,21.272 C 222.26077,167.4781 187.08882,193.01366 151.707,218.032 111.61145,246.39349 71.686609,274.86131 31.6,303.2 46.671711,298.17765 61.77271,288.36995 76.746006,281.59445 97.363111,270.81295 119.1074,262.29696 138.4,249.201 c 38.14671,-22.1945 78.48863,-43.34087 107.828,-77.298 6.40598,-7.42394 12.82597,-19.37221 13.112,-27.409 -0.92573,0.25817 -0.2238,-3.21284 -1.392,-1.589 z m -121.432,110.57 c -6.42088,7.17183 -9.03,12.29602 -2.366,3.177 -0.11615,1.05526 5.40895,-5.66292 2.366,-3.177 z m 97.684,3.432 c -16.91353,17.62731 -41.92913,30.34078 -65.4,31.197 27.1353,0.1959 51.61477,-15.72386 70,-34.504 -1.20849,-1.44293 -3.65304,3.35575 -4.6,3.307 z m 5.16811,5.53915 C 182.54312,303.3323 123.75637,345.7394 66.740375,386.47662 c 8.983329,2.78599 28.539497,4.09024 37.463625,-7.27662 18.99137,-12.95148 40.34332,-22.4724 59.396,-35.6 27.58878,-17.69401 57.12939,-37.03551 72.8,-66.776 0.74622,-3.98624 6.2922,-11.16141 2.96811,-14.37785 z M 131.224,265.04 c 2.63777,11.0036 35.6023,23.62923 32.02667,21.21235 C 151.09578,282.04012 139.03644,275.47694 131.224,265.04 Z"
         stroke="none"
         fill="#dc9624"
         fill-rule="evenodd"
         sodipodi:nodetypes="ccccccccccccccccccccccccccccccccccccccccccccccc" />
    </g>
  </g>
</svg>
