<svg width="256" height="256" viewBox="0 0 256 256" fill="none" xmlns="http://www.w3.org/2000/svg">
<rect width="256" height="256" rx="60" fill="#4B4B4B"/>
<linearGradient id="a" gradientUnits="userSpaceOnUse" x1="136.178" x2="372.681" y1="369.638" y2="287.81" gradientTransform="matrix(0.549805, 0, 0, 0.549805, -9.339139, -9.707106)">
<stop offset="0.233" stop-color="#F89822"/>
<stop offset="1" stop-color="#C27818"/>
</linearGradient>
<path d="M 61.913 79.086 L 190.457 38.29 C 190.457 38.29 199.583 33.507 197.384 42.358 L 197.715 81.67 C 197.715 81.67 199.31 87.442 191.392 88.872 L 139.161 105.201 L 61.913 79.086 Z" fill="#F89820"/>
<path d="M 61.913 79.086 C 61.913 79.086 56.856 80.294 58.339 88.927 L 58.063 126.809 C 58.063 126.809 57.623 131.592 66.696 133.516 L 194.086 174.532 C 194.086 174.532 198.373 176.236 197.88 170.959 L 197.934 128.733 C 197.934 128.733 199.144 124.389 191.226 121.53 L 139.161 105.201 L 61.913 79.086 Z" fill="#F89820"/>
<path d="M 118.049 150.01 L 63.838 166.56 C 63.838 166.56 57.295 166.78 58.063 179.04 C 58.834 191.301 58.009 215.986 58.009 215.986 C 58.009 215.986 58.559 220.551 64.827 217.912 L 193.37 176.895 C 193.37 176.895 197.934 175.741 194.086 174.476 C 190.237 173.268 118.049 150.01 118.049 150.01 Z" fill="url(#a)"/>
</svg>