<svg width="256" height="256" viewBox="0 0 256 256" fill="none" xmlns="http://www.w3.org/2000/svg">
<g clip-path="url(#clip0_33_875)">
<path d="M196 0H60C26.8629 0 0 26.8629 0 60V196C0 229.137 26.8629 256 60 256H196C229.137 256 256 229.137 256 196V60C256 26.8629 229.137 0 196 0Z" fill="#242938"/>
<g clip-path="url(#clip1_33_875)">
<path d="M194.595 127.919C194.595 125.87 193.081 124.689 191.223 125.276L63.4021 165.808C61.5404 166.398 60.03 168.541 60.03 170.585V212.011C60.03 214.06 61.5404 215.245 63.4021 214.654L191.223 174.126C193.081 173.535 194.595 171.393 194.595 169.344V127.919Z" fill="url(#paint0_linear_33_875)"/>
<path d="M60.03 126.599C60.03 128.648 61.5404 130.79 63.4021 131.381L191.241 171.916C193.103 172.507 194.613 171.322 194.613 169.277V127.848C194.613 125.803 193.103 123.661 191.241 123.07L63.4021 82.5344C61.5404 81.9437 60.03 83.125 60.03 85.1737V126.599Z" fill="#FF9800"/>
<path d="M194.595 42.7949C194.595 40.7463 193.081 39.5612 191.223 40.1518L63.4021 80.6801C61.5404 81.2708 60.03 83.4129 60.03 85.4616V126.887C60.03 128.936 61.5404 130.117 63.4021 129.53L191.223 88.9981C193.081 88.4075 194.595 86.2653 194.595 84.2204V42.7949Z" fill="#FF9800"/>
</g>
</g>
<defs>
<linearGradient id="paint0_linear_33_875" x1="7476.84" y1="5387.54" x2="8041.22" y2="3500.4" gradientUnits="userSpaceOnUse">
<stop stop-color="#FF9700"/>
<stop offset="0.53" stop-color="#F48E00"/>
<stop offset="1" stop-color="#D06F00"/>
</linearGradient>
<clipPath id="clip0_33_875">
<rect width="256" height="256" fill="white"/>
</clipPath>
<clipPath id="clip1_33_875">
<rect width="175" height="175" fill="white" transform="translate(40 40)"/>
</clipPath>
</defs>
</svg>
