<svg xmlns="http://www.w3.org/2000/svg" width="256" height="256" fill="none" viewBox="0 0 256 256"><rect width="256" height="256" fill="#242938" rx="60"/><g clip-path="url(#clip0_147_961)"><path fill="url(#paint0_linear_147_961)" d="M144.757 223.193C139.696 229.566 129.434 226.074 129.312 217.936L127.529 98.9075H207.564C222.06 98.9075 230.145 115.651 221.131 127.004L144.757 223.193Z"/><path fill="url(#paint1_linear_147_961)" fill-opacity=".2" d="M144.757 223.193C139.696 229.566 129.434 226.074 129.312 217.936L127.529 98.9075H207.564C222.06 98.9075 230.145 115.651 221.131 127.004L144.757 223.193Z"/><path fill="#3ECF8E" d="M112.207 31.6655C117.268 25.2914 127.53 28.784 127.652 36.9221L128.434 155.951H49.4003C34.9034 155.951 26.8182 139.207 35.8328 127.854L112.207 31.6655Z"/></g><defs><linearGradient id="paint0_linear_147_961" x1="127.529" x2="198.661" y1="125.299" y2="155.132" gradientUnits="userSpaceOnUse"><stop stop-color="#249361"/><stop offset="1" stop-color="#3ECF8E"/></linearGradient><linearGradient id="paint1_linear_147_961" x1="95.993" x2="128.433" y1="82.12" y2="143.187" gradientUnits="userSpaceOnUse"><stop/><stop offset="1" stop-opacity="0"/></linearGradient><clipPath id="clip0_147_961"><rect width="192.92" height="200" fill="#fff" transform="translate(32 28)"/></clipPath></defs></svg>