<svg width="256" height="256" viewBox="0 0 256 256" fill="none" xmlns="http://www.w3.org/2000/svg">
<g clip-path="url(#clip0_85_146)">
<path d="M196 0H60C26.8629 0 0 26.8629 0 60V196C0 229.137 26.8629 256 60 256H196C229.137 256 256 229.137 256 196V60C256 26.8629 229.137 0 196 0Z" fill="#F4F2ED"/>
<g clip-path="url(#clip1_85_146)">
<path d="M127.5 81.3022L173.882 107.013V96.7048L127.5 71.0537C120.601 74.8745 87.261 93.3218 81.1177 96.7048C86.8236 99.8689 146.745 133.002 183.167 153.141V163.41C178.216 166.156 127.5 194.195 127.5 194.195C113.623 186.533 85.6904 171.091 71.8333 163.41V132.624L127.5 163.41L136.784 158.275L62.5489 117.242V168.564L127.5 204.463C133.902 200.921 187.7 171.171 192.431 168.544V148.027L99.6667 96.7048L127.5 81.3022ZM62.5489 86.4364V106.973L155.313 158.295L127.48 173.698L81.0979 147.987V158.295L127.48 183.946C134.379 180.126 167.719 161.678 173.862 158.295C168.157 155.131 108.255 121.998 71.8333 101.839V91.5706C76.7837 88.8244 127.5 60.7853 127.5 60.7853C141.357 68.4667 169.29 83.9091 183.167 91.5706V122.356L127.5 91.5706L118.216 96.7048L192.431 137.758V86.4364L127.5 50.5169C121.078 54.079 67.3005 83.8295 62.5489 86.4364ZM127.5 30L44 76.1879V178.812L127.5 225L211 178.832V76.1879L127.5 30ZM201.696 173.678L127.5 214.732L53.2844 173.678V81.3221L127.5 40.2684L201.716 81.3221L201.696 173.678Z" fill="url(#paint0_linear_85_146)"/>
</g>
</g>
<defs>
<linearGradient id="paint0_linear_85_146" x1="84.4275" y1="52.8247" x2="170.705" y2="202.119" gradientUnits="userSpaceOnUse">
<stop stop-color="#FF00A0"/>
<stop offset="1" stop-color="#9600FF"/>
</linearGradient>
<clipPath id="clip0_85_146">
<rect width="256" height="256" fill="white"/>
</clipPath>
<clipPath id="clip1_85_146">
<rect width="167" height="195" fill="white" transform="translate(44 30)"/>
</clipPath>
</defs>
</svg>
