<?xml version="1.0" encoding="UTF-8" standalone="no" ?>
<!DOCTYPE svg PUBLIC "-//W3C//DTD SVG 1.1//EN" "http://www.w3.org/Graphics/SVG/1.1/DTD/svg11.dtd">
<svg xmlns="http://www.w3.org/2000/svg" xmlns:xlink="http://www.w3.org/1999/xlink" version="1.1" width="256" height="256" viewBox="0 0 256 256" xml:space="preserve">
<rect width="256" height="256" rx="60" fill="#242938"/>
<g transform="matrix(0.3192968013 0 0 0.3192968013 127.9464785338 127.9464785338)" id="D4hvgJpZ6J5zrvOkK3b1q"  >
<g style=""   >
		<g transform="matrix(25 0 0 25 -0.0177987968 -0.0108809733)" id="3vnwDM0-YJbbIWt9zvRlR"  >
<path style="stroke: none; stroke-width: 1; stroke-dasharray: none; stroke-linecap: butt; stroke-dashoffset: 0; stroke-linejoin: miter; stroke-miterlimit: 4; fill: rgb(255,255,255); fill-rule: nonzero; opacity: 1;"  transform=" translate(-15.9992880481, -15.9995647611)" d="M 30 16 C 29.999518101579635 22.67901230031715 25.281110464027392 28.427593778582278 18.730346380715076 29.73016641179672 C 12.17958229740276 31.032739045011162 5.620924009345654 27.526521552204407 3.0653566656679203 21.35576138088501 C 0.509789321990187 15.185001209565609 2.6690674697360883 8.06832519284043 8.222672154715259 4.357977427065464 C 13.776276839694429 0.6476296612904981 21.1774660451883 1.3769841641526988 25.900000000000002 6.100000000000005 C 28.52955997130571 8.72296650039617 30.005119745409004 12.28590351591389 30 15.999999999999995 Z" stroke-linecap="round" />
</g>
		<g transform="matrix(25 0 0 25 -0.0151318276 -0.0092488273)" id="yaNRh_sfC3OHX5qLdmAuv"  >
<path style="stroke: none; stroke-width: 1; stroke-dasharray: none; stroke-linecap: butt; stroke-dashoffset: 0; stroke-linejoin: miter; stroke-miterlimit: 4; fill: rgb(109,154,0); fill-rule: nonzero; opacity: 1;"  transform=" translate(-15.9993947269, -15.9996300469)" d="M 27.9 16 C 27.89959038634269 21.67716045526958 23.888943894423285 26.56345471179494 18.320794423607815 27.67064145002721 C 12.752644952792345 28.777828188259484 7.1777854079438015 25.797543319373744 5.00555316581773 20.552397173752254 C 2.8333209236916588 15.307251028130768 4.6687073492756745 9.258076413914363 9.38927133150797 6.1042808130056425 C 14.109835313740266 2.950485212096922 20.400846138410056 3.5704365395297923 24.415000000000003 7.585000000000003 C 26.650088466847357 9.814546620095602 27.904307515142346 12.843026761100571 27.9 15.999999999999991 Z" stroke-linecap="round" />
</g>
		<g transform="matrix(25 0 0 25 -84.1100716199 -0.4355820109)" id="4EN9QKqZfiWDq_b6i_DV5"  >
<path style="stroke: none; stroke-width: 1; stroke-dasharray: none; stroke-linecap: butt; stroke-dashoffset: 0; stroke-linejoin: miter; stroke-miterlimit: 4; fill: rgb(255,255,255); fill-rule: nonzero; opacity: 1;"  transform=" translate(-12.6355971352, -15.9825767196)" d="M 11.66 15.983 C 11.649131987753053 15.720792166069401 11.748605738448207 15.46602245100589 11.934268861237115 15.28054936211953 C 12.119931984026021 15.09507627323317 12.3748034331133 14.995863475515053 12.637 15.007000000000001 C 13.175899396103839 15.007552151310493 13.612367779051025 15.444766430356152 13.61199977242972 15.98366598367131 C 13.611631765808415 16.52256553698647 13.174566655748066 16.959183292788822 12.63566700814477 16.958999430899674 C 12.096767360541474 16.958815569010522 11.660000282864475 16.52189967896824 11.66 15.983 Z" stroke-linecap="round" />
</g>
		<g transform="matrix(25 0 0 25 0.1649283801 -0.4355820109)" id="CShwZYv1MiHbsSvSvAMne"  >
<path style="stroke: none; stroke-width: 1; stroke-dasharray: none; stroke-linecap: butt; stroke-dashoffset: 0; stroke-linejoin: miter; stroke-miterlimit: 4; fill: rgb(255,255,255); fill-rule: nonzero; opacity: 1;"  transform=" translate(-16.0065971352, -15.9825767196)" d="M 15.031 15.983 C 15.020131987753054 15.720792166069403 15.119605738448207 15.46602245100589 15.305268861237113 15.280549362119531 C 15.490931984026021 15.095076273233172 15.745803433113299 14.995863475515053 16.008 15.007000000000001 C 16.546899396103836 15.007552151310493 16.983367779051022 15.444766430356152 16.982999772429718 15.98366598367131 C 16.982631765808414 16.52256553698647 16.545566655748065 16.959183292788822 16.00666700814477 16.958999430899674 C 15.467767360541472 16.958815569010522 15.031000282864474 16.52189967896824 15.030999999999999 15.983 Z" stroke-linecap="round" />
</g>
		<g transform="matrix(25 0 0 25 84.3899283801 -0.4355820109)" id="_jC2gtuOWpjdzSqPzwtev"  >
<path style="stroke: none; stroke-width: 1; stroke-dasharray: none; stroke-linecap: butt; stroke-dashoffset: 0; stroke-linejoin: miter; stroke-miterlimit: 4; fill: rgb(255,255,255); fill-rule: nonzero; opacity: 1;"  transform=" translate(-19.3755971352, -15.9825767196)" d="M 18.4 15.983 C 18.389131987753053 15.720792166069401 18.488605738448207 15.46602245100589 18.674268861237113 15.28054936211953 C 18.85993198402602 15.09507627323317 19.1148034331133 14.995863475515053 19.377 15.007000000000001 C 19.915899396103836 15.007552151310493 20.352367779051022 15.444766430356152 20.351999772429718 15.98366598367131 C 20.351631765808413 16.52256553698647 19.914566655748065 16.959183292788822 19.37566700814477 16.958999430899674 C 18.836767360541472 16.958815569010522 18.40000028286447 16.52189967896824 18.4 15.983 Z" stroke-linecap="round" />
</g>
		<g transform="matrix(25 0 0 25 -150.9 0.2041905791)" id="CUgeBJduuwc-p2ssxpPuC"  >
<path style="stroke: none; stroke-width: 1; stroke-dasharray: none; stroke-linecap: butt; stroke-dashoffset: 0; stroke-linejoin: miter; stroke-miterlimit: 4; fill: rgb(255,255,255); fill-rule: nonzero; opacity: 1;"  transform=" translate(-9.964, -16.0081676232)" d="M 7.619 16.89 L 7.619 15.142 C 7.918336527199439 15.141657675514137 8.21571510688619 15.093726054270643 8.5 15 C 8.684852542478673 14.89715474879344 8.836996045728288 14.74431810885476 8.939 14.559 C 9.073622314496909 14.319443052162551 9.159919909522394 14.055793706730363 9.193 13.783 C 9.238512291205481 13.379353213828633 9.256886901880737 12.97310727599023 9.248 12.566999999999997 C 9.227328262463491 11.907932157437488 9.268508550025961 11.24837795826617 9.370999999999997 10.597000000000001 C 9.433671825603838 10.261559615919232 9.588047549585154 9.950039096674425 9.816999999999998 9.697 C 10.027745631942452 9.438331425639355 10.309175596668712 9.246542116344422 10.626999999999999 9.145 C 11.057495106140934 9.04066934956595 11.500385560203938 8.996582229898586 11.943 9.014 L 12.306 9.014 L 12.306 10.450999999999999 C 11.977585884915317 10.430555125725336 11.647989016209191 10.461254527007073 11.328999999999997 10.541999999999998 C 11.193953797030126 10.594864562519977 11.0812814120043 10.692702338859018 11.009999999999998 10.818999999999997 C 10.932600776357017 11.126406851798256 10.898936024096827 11.443192170566656 10.909999999999998 11.76 Q 10.909999999999998 12.218999999999998 10.847999999999999 13.500999999999998 C 10.838775635252494 13.896664262569987 10.778956463157115 14.28952163436492 10.669999999999998 14.669999999999998 C 10.590596954289799 14.935417256436523 10.466482126932913 15.185337848852699 10.302999999999997 15.408999999999999 C 10.108134369357971 15.643134956281044 9.8780536098526 15.845552046754978 9.620999999999997 16.009 C 9.875020079434574 16.160164987810806 10.099354156528165 16.356372586960635 10.282999999999998 16.588 C 10.463626793180113 16.827422443348983 10.597312282746211 17.0988650617573 10.676999999999998 17.388 C 10.782876314226923 17.80247669946925 10.842572765830624 18.227394700491097 10.854999999999999 18.654999999999998 Q 10.902999999999999 19.864 10.902999999999999 20.199 C 10.891106639640837 20.513491518850774 10.928217151328415 20.827918763330967 11.012999999999998 21.131 C 11.089800421929972 21.26059727469353 11.20668429083154 21.361686026175967 11.345999999999998 21.419 C 11.65922323795166 21.505559684394182 11.984674484871165 21.539355244821962 12.308999999999996 21.519000000000002 L 12.308999999999997 23.005000000000003 L 11.945999999999998 23.005000000000003 C 11.507532483772238 23.015194250859995 11.070555334769445 22.950256470203232 10.653999999999996 22.813000000000002 C 10.336051826489296 22.717585188845593 10.048555200049671 22.540743738769418 9.82 22.3 C 9.588624697055522 22.04729820009926 9.430914714644697 21.736028497972633 9.364 21.400000000000002 C 9.270526966035359 20.8431109716101 9.231343147459963 20.27846209880571 9.246999999999998 19.714000000000002 C 9.270755024575665 19.13142291312409 9.233890274901057 18.54795446600145 9.136999999999999 17.973000000000003 C 9.07590260983395 17.65417326974963 8.91643080873932 17.362507738800243 8.681000000000001 17.139000000000003 C 8.355011186302214 16.964172484109845 7.988724604845178 16.878291731960314 7.618999999999998 16.89 Z" stroke-linecap="round" />
</g>
		<g transform="matrix(25 0 0 25 150.075 0.3291905791)" id="CZ0_R62Et5IDOajlKphIk"  >
<path style="stroke: none; stroke-width: 1; stroke-dasharray: none; stroke-linecap: butt; stroke-dashoffset: 0; stroke-linejoin: miter; stroke-miterlimit: 4; fill: rgb(255,255,255); fill-rule: nonzero; opacity: 1;"  transform=" translate(-22.003, -16.0131676232)" d="M 23.285 17.143 C 23.04956919126068 17.36650773880024 22.89009739016605 17.65817326974963 22.829 17.977 C 22.732109725098944 18.551954466001447 22.695244975424337 19.13542291312409 22.719 19.717999999999996 C 22.733737272198926 20.281193861184082 22.693884499687748 20.84449103230849 22.6 21.399999999999995 C 22.533085285355305 21.73602849797263 22.37537530294448 22.047298200099256 22.144000000000002 22.299999999999997 C 21.91666483046634 22.543514876597502 21.629445289566803 22.723156390173322 21.311000000000003 22.820999999999998 C 20.894444665230555 22.958256470203228 20.457467516227762 23.02319425085999 20.019000000000002 23.012999999999998 L 19.656000000000002 23.012999999999998 L 19.656000000000002 21.53 C 19.980325515128833 21.55035524482196 20.305776762048342 21.51655968439418 20.619000000000003 21.43 C 20.75831570916846 21.372686026175966 20.875199578070028 21.27159727469353 20.952 21.142 C 21.036782848671585 20.838918763330966 21.07389336035916 20.524491518850773 21.062 20.21 Q 21.062 19.875 21.11 18.666 C 21.123155021224015 18.2386555231991 21.183521809394627 17.81407577973246 21.29 17.4 C 21.369687717253786 17.1108650617573 21.50337320681988 16.83942244334898 21.683999999999997 16.599999999999998 C 21.86764584347183 16.368372586960632 22.091979920565418 16.172164987810802 22.345999999999997 16.020999999999997 C 22.088946390147395 15.857552046754977 21.858865630642022 15.655134956281042 21.663999999999998 15.420999999999998 C 21.500517873067082 15.197337848852698 21.376403045710198 14.947417256436522 21.296999999999997 14.681999999999997 C 21.18804353684288 14.301521634364919 21.1282243647475 13.908664262569985 21.118999999999996 13.512999999999996 Q 21.056999999999995 12.230999999999996 21.056999999999995 11.771999999999997 C 21.06806397590317 11.455192170566653 21.034399223642975 11.138406851798255 20.956999999999994 10.830999999999996 C 20.885718587995694 10.704702338859017 20.773046202969866 10.606864562519975 20.637999999999995 10.553999999999997 C 20.3190109837908 10.473254527007072 19.989414115084674 10.442555125725335 19.660999999999994 10.462999999999997 L 19.660999999999994 9.016 L 20.023999999999994 9.016 C 20.466614439796054 8.998582229898586 20.909504893859054 9.042669349565951 21.33999999999999 9.146999999999998 C 21.65782440333128 9.248542116344423 21.93925436805754 9.440331425639357 22.14999999999999 9.699 C 22.378952450414836 9.952039096674424 22.533328174396154 10.263559615919231 22.595999999999993 10.598999999999998 C 22.69849144997403 11.25037795826617 22.7396717375365 11.909932157437478 22.718999999999994 12.56899999999999 C 22.710113098119255 12.975107275990235 22.728487708794514 13.381353213828637 22.773999999999994 13.785000000000004 C 22.8070800904776 14.057793706730363 22.893377685503086 14.321443052162552 23.027999999999995 14.561 C 23.130003954271707 14.74631810885476 23.282147457521322 14.899154748793439 23.466999999999995 15.002 C 23.751811777107193 15.096614777977527 24.04988484971154 15.14522465618254 24.349999999999994 15.146 L 24.349999999999994 16.89 C 23.9789054710461 16.878986940296624 23.611494219539225 16.966268674222672 23.285 17.143 Z" stroke-linecap="round" />
</g>
</g>
</g>
</svg>