<svg width="256" height="256" viewBox="0 0 256 256" fill="none" xmlns="http://www.w3.org/2000/svg">
<g clip-path="url(#clip0_10_19)">
<rect width="256" height="256" rx="60" fill="#2AABEE"/>
<path d="M57.5328 125.178C94.7557 108.62 119.577 97.704 131.996 92.4293C167.455 77.3707 174.824 74.7547 179.627 74.6677C180.683 74.6496 183.044 74.9168 184.574 76.184C185.866 77.2544 186.221 78.7003 186.391 79.7147C186.562 80.7296 186.773 83.0411 186.605 84.8469C184.683 105.461 176.369 155.487 172.139 178.576C170.349 188.346 166.825 191.621 163.413 191.942C155.998 192.638 150.367 186.939 143.186 182.132C131.947 174.611 125.599 169.928 114.69 162.589C102.084 154.107 110.256 149.445 117.441 141.826C119.321 139.832 151.991 109.491 152.623 106.739C152.702 106.394 152.776 105.111 152.029 104.434C151.283 103.756 150.181 103.988 149.386 104.172C148.259 104.433 130.306 116.549 95.5269 140.519C90.4309 144.092 85.8155 145.832 81.68 145.741C77.1211 145.641 68.3515 143.109 61.832 140.946C53.8357 138.291 47.4802 136.889 48.0336 132.381C48.3219 130.034 51.4882 127.633 57.5328 125.178Z" fill="white"/>
</g>
<defs>
<clipPath id="clip0_10_19">
<rect width="256" height="256" rx="60" fill="white"/>
</clipPath>
</defs>
</svg>
