<svg xmlns="http://www.w3.org/2000/svg" xmlns:xlink="http://www.w3.org/1999/xlink" width="256" zoomAndPan="magnify" viewBox="0 0 375 374.999991" height="256" preserveAspectRatio="xMidYMid meet" version="1.0">
<defs>
<clipPath id="f730e5d6f1">
<path d="M 75 0 L 300 0 C 341.421875 0 375 33.578125 375 75 L 375 304.027344 C 375 345.445312 341.421875 379.027344 300 379.027344 L 75 379.027344 C 33.578125 379.027344 0 345.445312 0 304.027344 L 0 75 C 0 33.578125 33.578125 0 75 0 " clip-rule="nonzero"/>
</clipPath>
<clipPath id="7fcbfed8ab">
<path d="M 34 36.011719 L 340.75 36.011719 L 340.75 342 L 34 342 Z M 34 36.011719 " clip-rule="nonzero"/>
</clipPath>
</defs>
<g clip-path="url(#f730e5d6f1)">
<path fill="#f4f2ec" d="M 0 0 L 374.414062 0 L 374.414062 379.6875 L 0 379.6875 Z M 0 0 " fill-opacity="1" fill-rule="nonzero"/>
</g>
<g clip-path="url(#7fcbfed8ab)">
<path fill="#dd4814" d="M 340.316406 189.007812 C 340.316406 273.5 271.816406 342 187.320312 342 C 102.820312 342 34.324219 273.5 34.324219 189.007812 C 34.324219 104.511719 102.820312 36.011719 187.320312 36.011719 C 271.820312 36.011719 340.316406 104.511719 340.316406 189.007812 Z M 340.316406 189.007812 " fill-opacity="1" fill-rule="nonzero"/>
</g>
<path fill="#ffffff" d="M 83.289062 168.578125 C 72 168.578125 62.855469 177.722656 62.855469 189.007812 C 62.855469 200.289062 72 209.433594 83.289062 209.433594 C 94.570312 209.433594 103.710938 200.289062 103.710938 189.007812 C 103.710938 177.722656 94.570312 168.578125 83.289062 168.578125 Z M 229.132812 261.414062 C 219.363281 267.058594 216.011719 279.542969 221.652344 289.308594 C 227.292969 299.078125 239.777344 302.429688 249.546875 296.785156 C 259.316406 291.148438 262.667969 278.664062 257.023438 268.890625 C 251.386719 259.128906 238.894531 255.777344 229.132812 261.414062 Z M 127.65625 189.007812 C 127.65625 168.824219 137.683594 150.988281 153.023438 140.1875 L 138.089844 115.175781 C 120.222656 127.125 106.921875 145.378906 101.394531 166.757812 C 107.84375 172.019531 111.972656 180.027344 111.972656 189.007812 C 111.972656 197.980469 107.84375 205.992188 101.394531 211.253906 C 106.914062 232.636719 120.214844 250.894531 138.089844 262.839844 L 153.023438 237.820312 C 137.683594 227.027344 127.65625 209.195312 127.65625 189.007812 Z M 187.320312 129.339844 C 218.488281 129.339844 244.0625 153.238281 246.746094 183.714844 L 275.851562 183.285156 C 274.421875 160.785156 264.589844 140.585938 249.488281 125.734375 C 241.722656 128.667969 232.75 128.21875 224.996094 123.75 C 217.226562 119.265625 212.355469 111.703125 211.027344 103.496094 C 203.269531 101.347656 195.367188 100.273438 187.320312 100.273438 C 180.5 100.265625 173.765625 101.039062 167.125 102.589844 C 160.484375 104.140625 154.105469 106.425781 147.992188 109.453125 L 162.1875 134.890625 C 166.121094 133.058594 170.210938 131.671875 174.449219 130.738281 C 178.6875 129.800781 182.980469 129.335938 187.320312 129.339844 Z M 187.320312 248.671875 C 182.980469 248.675781 178.6875 248.210938 174.449219 247.273438 C 170.210938 246.335938 166.125 244.953125 162.1875 243.121094 L 147.996094 268.554688 C 154.105469 271.585938 160.484375 273.875 167.125 275.429688 C 173.769531 276.980469 180.5 277.753906 187.320312 277.746094 C 195.371094 277.746094 203.273438 276.667969 211.027344 274.515625 C 212.359375 266.304688 217.230469 258.75 224.996094 254.261719 C 232.757812 249.785156 241.722656 249.34375 249.488281 252.277344 C 264.59375 237.425781 274.421875 217.222656 275.855469 194.722656 L 246.742188 194.292969 C 244.0625 224.78125 218.492188 248.671875 187.320312 248.671875 Z M 229.125 116.589844 C 238.894531 122.230469 251.382812 118.890625 257.019531 109.117188 C 262.660156 99.347656 259.320312 86.863281 249.546875 81.21875 C 239.777344 75.582031 227.292969 78.929688 221.648438 88.699219 C 216.011719 98.464844 219.359375 110.949219 229.125 116.589844 Z M 229.125 116.589844 " fill-opacity="1" fill-rule="nonzero"/>
</svg>