<svg xmlns="http://www.w3.org/2000/svg" xmlns:xlink="http://www.w3.org/1999/xlink" width="256" zoomAndPan="magnify" viewBox="0 0 375 374.999991" height="256" preserveAspectRatio="xMidYMid meet" version="1.0">
<defs>
<clipPath id="c4a84b91d8">
<path d="M 75 0 L 300 0 C 341.421875 0 375 33.578125 375 75 L 375 304.027344 C 375 345.445312 341.421875 379.027344 300 379.027344 L 75 379.027344 C 33.578125 379.027344 0 345.445312 0 304.027344 L 0 75 C 0 33.578125 33.578125 0 75 0 " clip-rule="nonzero"/>
</clipPath>
<clipPath id="f998ade254">
<path d="M 37.5 39.511719 L 337.5 39.511719 L 337.5 339 L 37.5 339 Z M 37.5 39.511719 " clip-rule="nonzero"/>
</clipPath>
</defs>
<g clip-path="url(#c4a84b91d8)">
<path fill="#242938" d="M 0 0 L 374.414062 0 L 374.414062 379.6875 L 0 379.6875 Z M 0 0 " fill-opacity="1" fill-rule="nonzero"/>
</g>
<g clip-path="url(#f998ade254)">
<path fill="#dd4814" d="M 337.074219 189.140625 C 337.074219 271.773438 270.085938 338.765625 187.445312 338.765625 C 104.804688 338.765625 37.816406 271.773438 37.816406 189.140625 C 37.816406 106.503906 104.808594 39.511719 187.445312 39.511719 C 270.085938 39.511719 337.074219 106.503906 337.074219 189.140625 Z M 337.074219 189.140625 " fill-opacity="1" fill-rule="nonzero"/>
</g>
<path fill="#ffffff" d="M 85.703125 169.160156 C 74.664062 169.160156 65.722656 178.101562 65.722656 189.140625 C 65.722656 200.171875 74.664062 209.117188 85.703125 209.117188 C 96.734375 209.117188 105.679688 200.171875 105.679688 189.140625 C 105.679688 178.101562 96.734375 169.160156 85.703125 169.160156 Z M 228.335938 259.957031 C 218.78125 265.476562 215.503906 277.6875 221.023438 287.234375 C 226.539062 296.789062 238.75 300.066406 248.304688 294.546875 C 257.859375 289.035156 261.136719 276.824219 255.617188 267.265625 C 250.105469 257.71875 237.886719 254.441406 228.335938 259.957031 Z M 129.097656 189.140625 C 129.097656 169.398438 138.902344 151.957031 153.90625 141.398438 L 139.300781 116.933594 C 121.824219 128.617188 108.816406 146.472656 103.414062 167.378906 C 109.71875 172.523438 113.757812 180.359375 113.757812 189.140625 C 113.757812 197.917969 109.71875 205.75 103.414062 210.894531 C 108.8125 231.808594 121.816406 249.664062 139.300781 261.347656 L 153.90625 236.878906 C 138.902344 226.324219 129.097656 208.882812 129.097656 189.140625 Z M 187.445312 130.785156 C 217.929688 130.785156 242.941406 154.15625 245.566406 183.964844 L 274.03125 183.546875 C 272.628906 161.539062 263.015625 141.785156 248.246094 127.257812 C 240.648438 130.128906 231.875 129.6875 224.292969 125.316406 C 216.695312 120.933594 211.933594 113.539062 210.628906 105.511719 C 203.042969 103.410156 195.316406 102.359375 187.445312 102.359375 C 180.773438 102.351562 174.191406 103.105469 167.695312 104.621094 C 161.199219 106.140625 154.964844 108.378906 148.984375 111.339844 L 162.867188 136.214844 C 166.714844 134.421875 170.710938 133.070312 174.859375 132.152344 C 179.003906 131.238281 183.199219 130.78125 187.445312 130.785156 Z M 187.445312 247.492188 C 183.199219 247.496094 179.003906 247.039062 174.859375 246.125 C 170.714844 245.210938 166.714844 243.855469 162.867188 242.0625 L 148.984375 266.9375 C 154.964844 269.902344 161.199219 272.140625 167.695312 273.660156 C 174.191406 275.179688 180.777344 275.933594 187.445312 275.925781 C 195.320312 275.925781 203.046875 274.871094 210.632812 272.765625 C 211.933594 264.738281 216.699219 257.351562 224.292969 252.960938 C 231.882812 248.578125 240.652344 248.148438 248.246094 251.019531 C 263.019531 236.492188 272.628906 216.738281 274.03125 194.730469 L 245.558594 194.3125 C 242.941406 224.128906 217.929688 247.492188 187.445312 247.492188 Z M 228.332031 118.316406 C 237.886719 123.832031 250.097656 120.566406 255.609375 111.011719 C 261.128906 101.453125 257.859375 89.242188 248.304688 83.722656 C 238.75 78.210938 226.539062 81.484375 221.019531 91.039062 C 215.507812 100.589844 218.78125 112.800781 228.332031 118.316406 Z M 228.332031 118.316406 " fill-opacity="1" fill-rule="nonzero"/>
</svg>