<svg xmlns="http://www.w3.org/2000/svg" width="64" height="64" viewBox="0 0 32 32" preserveAspectRatio="xMidYMid"><path d="M32 16c0 8.836-7.164 16-16 16S0 24.836 0 16 7.164 0 16 0s16 7.164 16 16z" fill="#dd4814"/><path d="M5.12 13.864c-1.18 0-2.137.956-2.137 2.137s.956 2.136 2.137 2.136S7.257 17.18 7.257 16 6.3 13.864 5.12 13.864zm15.252 9.71c-1.022.6-1.372 1.896-.782 2.917s1.895 1.372 2.917.782 1.372-1.895.782-2.917-1.896-1.37-2.917-.782zM9.76 16a6.23 6.23 0 0 1 2.653-5.105L10.852 8.28a9.3 9.3 0 0 0-3.838 5.394C7.69 14.224 8.12 15.06 8.12 16s-.432 1.776-1.106 2.326c.577 2.237 1.968 4.146 3.838 5.395l1.562-2.616A6.23 6.23 0 0 1 9.761 16zM16 9.76a6.24 6.24 0 0 1 6.215 5.687l3.044-.045a9.25 9.25 0 0 0-2.757-6.019c-.812.307-1.75.26-2.56-.208a2.99 2.99 0 0 1-1.461-2.118C17.7 6.84 16.86 6.72 16 6.72c-1.477 0-2.873.347-4.113.96l1.484 2.66c.8-.372 1.69-.58 2.628-.58zm0 12.48c-.94 0-1.83-.21-2.628-.58l-1.484 2.66c1.24.614 2.636.96 4.113.96a9.28 9.28 0 0 0 2.479-.338c.14-.858.65-1.648 1.46-2.118s1.75-.514 2.56-.207a9.25 9.25 0 0 0 2.757-6.019l-3.045-.045A6.24 6.24 0 0 1 16 22.24zm4.372-13.813c1.022.6 2.328.24 2.917-.78s.24-2.328-.78-2.918-2.328-.24-2.918.783-.24 2.327.782 2.917z" fill="#fff"/></svg>