<svg xmlns="http://www.w3.org/2000/svg" width="256" height="256" fill="none" viewBox="0 0 256 256"><rect width="256" height="256" fill="#242938" rx="60"/><path fill="#536B8A" d="M159.906 222.623L227.655 34.2294C228.803 31.0342 226.993 28.7045 223.613 29.0304L170.335 34.1627C166.956 34.4887 163.305 37.3561 162.189 40.562L99.4813 220.606C98.364 223.812 100.214 226.415 103.609 226.415H155.467C157.164 226.415 159.009 225.118 159.583 223.52L159.906 222.623Z"/><g filter="url(#filter0_f_148_1050)"><path fill="#000" d="M152.178 223.52L123.971 142.035L128 139.516L156.711 222.623L152.178 223.52Z"/></g><path fill="#5D87BF" d="M32.3873 29.0304L85.6647 34.1627C89.0442 34.4887 92.6987 37.3547 93.8207 40.5592L157.855 223.512C158.415 225.114 157.492 226.415 155.794 226.415H103.609C100.214 226.415 96.5244 223.821 95.3754 220.626L28.3453 34.2294C27.1967 31.0342 29.0074 28.7045 32.3873 29.0304Z"/><defs><filter id="filter0_f_148_1050" width="58.502" height="109.765" x="111.09" y="126.635" color-interpolation-filters="sRGB" filterUnits="userSpaceOnUse"><feFlood flood-opacity="0" result="BackgroundImageFix"/><feBlend in="SourceGraphic" in2="BackgroundImageFix" mode="normal" result="shape"/><feGaussianBlur result="effect1_foregroundBlur_148_1050" stdDeviation="6.44"/></filter></defs></svg>