<svg width="256" height="256" viewBox="0 0 256 256" fill="none" xmlns="http://www.w3.org/2000/svg">
<rect width="256" height="256" rx="60" fill="url(#paint0_linear_148_1245)"/>
<path opacity="0.15" d="M130.986 28C123.731 28 116.45 28.9215 109.169 30.7366C101.995 32.4573 95.0686 34.9107 88.3946 38.0969C81.8526 41.1727 75.6135 44.8942 69.7644 49.2096C69.7554 49.217 69.7464 49.2244 69.7375 49.2318C64.1499 53.3737 59.0243 58.1432 54.455 63.4528C54.4442 63.4675 54.4334 63.4823 54.4228 63.4971C50.1724 68.5226 46.6434 74.1533 43.9442 80.2162C43.9352 80.2365 43.9262 80.2568 43.9174 80.2772C41.3635 86.1682 40.0291 92.5452 40 98.9999C40 104.062 40.5911 108.558 42.0044 112.511C42.0183 112.55 42.0326 112.588 42.0474 112.627C43.509 116.457 45.7014 119.804 48.587 122.341C48.6119 122.363 48.637 122.386 48.6622 122.408C51.564 124.872 55.0461 126.593 58.9151 127.664C58.9562 127.676 58.9973 127.687 59.0386 127.697C62.8109 128.647 66.954 129.096 71.5054 129.096C72.9524 129.096 74.3403 128.503 75.364 127.446C76.3877 126.39 76.9636 124.957 76.965 123.462C76.965 121.375 76.2556 119.932 75.5356 118.744L75.7882 119.21C75.4901 118.538 75.2247 117.851 74.9929 117.151C74.9929 117.145 74.9821 117.151 74.9821 117.14C74.6006 115.856 74.2813 114.554 74.0256 113.238C73.7359 110.963 73.6066 108.67 73.6387 106.377C73.6387 93.2438 76.5512 82.8028 82.172 74.46C86.4547 68.182 92.3818 63.5694 99.2063 59.7338L102.919 222.494C102.953 223.966 103.543 225.367 104.563 226.395C105.584 227.424 106.953 228 108.379 228H143.469C144.581 228 145.667 227.65 146.581 226.995C147.496 226.34 148.194 225.413 148.584 224.336L216.259 36.8369C216.566 35.9846 216.669 35.0683 216.558 34.1662C216.448 33.2641 216.129 32.4028 215.627 31.6559C215.125 30.909 214.455 30.2986 213.676 29.8766C212.896 29.4546 212.029 29.2334 211.149 29.2322H194.147C193.01 29.2317 191.901 29.5979 190.976 30.2796C190.05 30.9612 189.353 31.9244 188.983 33.0346L147.88 156.539L146.193 34.0559C146.173 32.6725 145.662 31.3449 144.757 30.3255C143.851 29.3061 142.614 28.6661 141.282 28.5273C139.612 28.3549 137.938 28.2253 136.263 28.1387H136.252C134.498 28.0469 132.742 28.0026 130.986 28.0056V28Z" fill="#201C2C"/>
<path opacity="0.3" d="M108.379 222.361L104.456 50.4697C93.0356 54.8918 84.1155 61.8117 77.6958 71.2295C71.3478 80.651 68.1738 92.365 68.1738 106.371C68.1738 109.565 68.3332 112.187 68.652 114.237C69.0461 116.202 69.442 117.799 69.8396 119.027C70.2373 120.174 70.5955 121.075 70.9144 121.73C71.3084 122.385 71.5054 122.959 71.5054 123.451C67.3033 123.451 63.5776 123.042 60.3284 122.225C57.0755 121.322 54.3386 119.928 52.1175 118.045C49.9752 116.165 48.3094 113.667 47.1201 110.551C46.0095 107.443 45.4542 103.594 45.4542 99.0056C45.4542 93.4363 46.6024 87.9484 48.8987 82.542C51.2774 77.1392 54.4891 72.0196 58.5336 67.183C62.6569 62.3538 67.4556 57.891 72.9295 53.7946C78.4822 49.6981 84.3895 46.1753 90.6516 43.2259C96.9924 40.1952 103.573 37.862 110.394 36.2263C117.294 34.5019 124.154 33.6396 130.975 33.6396C132.798 33.6396 134.464 33.6804 135.972 33.7618C137.556 33.8432 139.139 33.9654 140.723 34.1282L142.867 188.939L194.131 34.8608H211.138L143.463 222.366H108.374L108.379 222.361Z" fill="#201C2C"/>
<path d="M108.379 216.81L104.456 44.9189C93.0356 49.341 84.1155 56.2609 77.6958 65.6787C71.3478 75.1002 68.1738 86.8142 68.1738 100.821C68.1738 104.014 68.3332 106.636 68.652 108.686C69.0461 110.651 69.442 112.248 69.8396 113.476C70.2373 114.624 70.5955 115.525 70.9144 116.18C71.3084 116.835 71.5054 117.408 71.5054 117.901C67.3033 117.901 63.5776 117.492 60.3284 116.674C57.0755 115.771 54.3386 114.377 52.1175 112.494C49.9752 110.614 48.3094 108.116 47.1201 105C46.0095 101.892 45.4542 98.0434 45.4542 93.4548C45.4542 87.8855 46.6024 82.3976 48.8987 76.9912C51.2774 71.5884 54.4891 66.4688 58.5336 61.6322C62.6569 56.803 67.4556 52.3403 72.9295 48.2438C78.4822 44.1473 84.3895 40.6245 90.6516 37.6752C96.9924 34.6444 103.573 32.3112 110.394 30.6755C117.294 28.9511 124.154 28.0889 130.975 28.0889C132.798 28.0889 134.464 28.1296 135.972 28.211C137.556 28.2924 139.139 28.4146 140.723 28.5774L142.867 183.388L194.131 29.31H211.138L143.463 216.815H108.374L108.379 216.81Z" fill="white"/>
<defs>
<linearGradient id="paint0_linear_148_1245" x1="128" y1="0" x2="128" y2="256" gradientUnits="userSpaceOnUse">
<stop stop-color="#AD65D6"/>
<stop offset="1" stop-color="#7B37B2"/>
</linearGradient>
</defs>
</svg>
