<svg width="256" height="256" fill="none" version="1.1" viewBox="0 0 256 256" xml:space="preserve" xmlns="http://www.w3.org/2000/svg"><rect width="256" height="256" rx="60" fill="#f4f2ed"/><defs><filter id="filter0_d_301_2" x="1.3902" y="10.443" width="167.16" height="153.9" color-interpolation-filters="sRGB" filterUnits="userSpaceOnUse"><feFlood flood-opacity="0" result="BackgroundImageFix"/><feColorMatrix in="SourceAlpha" result="hardAlpha" values="0 0 0 0 0 0 0 0 0 0 0 0 0 0 0 0 0 0 127 0"/><feOffset dx="2" dy="3"/><feGaussianBlur stdDeviation="4"/><feComposite in2="hardAlpha" operator="out"/><feColorMatrix values="0 0 0 0 0.108333 0 0 0 0 0.108333 0 0 0 0 0.108333 0 0 0 0.2 0"/><feBlend in2="BackgroundImageFix" result="effect1_dropShadow_301_2"/><feBlend in="SourceGraphic" in2="effect1_dropShadow_301_2" result="shape"/></filter></defs><g transform="matrix(1.285 0 0 1.285 18.815 15.704)" fill="none"><g clip-path="url(#clipPath385)" filter="url(#filter0_d_301_2)"><path d="m120.83 57.254-36.138 52.251c-0.3831 0.554-0.9372 0.969-1.5782 1.182s-1.3339 0.211-1.9736-3e-3c-0.6397-0.215-1.1912-0.632-1.571-1.187-0.3797-0.556-0.567-1.22-0.5332-1.891l1.4463-28.848-23.349-4.9518c-0.499-0.1057-0.9639-0.3324-1.3536-0.6599-0.3897-0.3274-0.6922-0.7456-0.8806-1.2175s-0.2569-0.9829-0.1995-1.4878c0.0574-0.5048 0.2389-0.988 0.5285-1.4067l36.138-52.251c0.3832-0.5543 0.9373-0.9692 1.5783-1.1819 0.6411-0.2127 1.334-0.2116 1.9738 0.0033 0.6397 0.2148 1.1913 0.6316 1.571 1.1872 0.3797 0.5555 0.5669 1.2194 0.533 1.891l-1.4463 28.848 23.349 4.9513c0.499 0.1058 0.964 0.3325 1.354 0.6599 0.39 0.3275 0.692 0.7457 0.88 1.2176 0.189 0.4719 0.257 0.9829 0.2 1.4877-0.057 0.5049-0.239 0.9881-0.529 1.4068z" fill="#fcc72b"/><path d="m82.987 153.34c-0.9612 1e-3 -1.9131-0.187-2.8011-0.555s-1.6946-0.908-2.3733-1.588l-34.146-34.144c-1.366-1.373-2.1317-3.232-2.1292-5.169 0.0026-1.937 0.7732-3.795 2.143-5.164 1.3697-1.37 3.2268-2.141 5.1639-2.144 1.9372-2e-3 3.7964 0.763 5.1699 2.129l28.973 28.97 63.118-63.115c1.376-1.3538 3.231-2.109 5.161-2.1011 1.931 0.0078 3.78 0.7781 5.144 2.143 1.365 1.365 2.136 3.2139 2.144 5.1442 7e-3 1.9303-0.748 3.7855-2.102 5.1614l-68.292 68.29c-0.6786 0.681-1.485 1.22-2.3728 1.588-0.8877 0.368-1.8394 0.556-2.8003 0.555z" fill="#729b1b"/><path d="m82.957 153.34c0.9612 1e-3 1.9131-0.187 2.8011-0.555s1.6945-0.908 2.3733-1.588l34.146-34.144c1.366-1.373 2.132-3.232 2.129-5.169-2e-3 -1.937-0.773-3.795-2.143-5.164-1.37-1.37-3.227-2.141-5.164-2.144-1.937-2e-3 -3.796 0.763-5.17 2.129l-28.973 28.97-63.118-63.115c-1.376-1.3538-3.2312-2.109-5.1614-2.1011-1.9303 0.0078-3.7793 0.7781-5.1442 2.143-1.3649 1.365-2.1352 3.2139-2.1431 5.1442s0.74734 3.7855 2.1011 5.1614l68.293 68.29c0.6787 0.681 1.4851 1.22 2.3728 1.588 0.8878 0.368 1.8395 0.556 2.8004 0.555z" fill="#729b1b" fill-opacity=".5"/></g></g></svg>
