<svg xmlns="http://www.w3.org/2000/svg" xmlns:xlink="http://www.w3.org/1999/xlink" width="432" zoomAndPan="magnify" viewBox="0 0 324 323.999988" height="432" preserveAspectRatio="xMidYMid meet" version="1.0"><defs><clipPath id="4dc6261c93"><path d="M 35 63 L 289 63 L 289 289 L 35 289 Z M 35 63 " clip-rule="nonzero"/></clipPath><clipPath id="d550afb3ab"><path d="M 287.410156 72.902344 L 168.652344 285.257812 C 166.199219 289.644531 159.898438 289.667969 157.410156 285.304688 L 36.300781 72.921875 C 33.589844 68.167969 37.65625 62.410156 43.042969 63.371094 L 161.925781 84.621094 C 162.683594 84.757812 163.460938 84.753906 164.21875 84.617188 L 280.617188 63.402344 C 285.988281 62.421875 290.070312 68.136719 287.410156 72.902344 Z M 287.410156 72.902344 " clip-rule="nonzero"/></clipPath><linearGradient x1="28.913949" gradientTransform="matrix(1.265625, 0, 0, 1.265625, 0.0000062, 0)" y1="47.562481" x2="185.894814" gradientUnits="userSpaceOnUse" y2="260.755136" id="2ce057203c"><stop stop-opacity="1" stop-color="rgb(26.568604%, 80.644226%, 99.990845%)" offset="0"/><stop stop-opacity="1" stop-color="rgb(26.823425%, 80.32074%, 99.987793%)" offset="0.00390625"/><stop stop-opacity="1" stop-color="rgb(27.078247%, 79.997253%, 99.986267%)" offset="0.0078125"/><stop stop-opacity="1" stop-color="rgb(27.333069%, 79.673767%, 99.983215%)" offset="0.0117187"/><stop stop-opacity="1" stop-color="rgb(27.589417%, 79.350281%, 99.981689%)" offset="0.015625"/><stop stop-opacity="1" stop-color="rgb(27.844238%, 79.026794%, 99.978638%)" offset="0.0195312"/><stop stop-opacity="1" stop-color="rgb(28.09906%, 78.703308%, 99.977112%)" offset="0.0234375"/><stop stop-opacity="1" stop-color="rgb(28.353882%, 78.379822%, 99.975586%)" offset="0.0273438"/><stop stop-opacity="1" stop-color="rgb(28.610229%, 78.056335%, 99.97406%)" offset="0.03125"/><stop stop-opacity="1" stop-color="rgb(28.865051%, 77.732849%, 99.971008%)" offset="0.0351562"/><stop stop-opacity="1" stop-color="rgb(29.119873%, 77.410889%, 99.969482%)" offset="0.0390625"/><stop stop-opacity="1" stop-color="rgb(29.374695%, 77.087402%, 99.966431%)" offset="0.0429688"/><stop stop-opacity="1" stop-color="rgb(29.629517%, 76.763916%, 99.964905%)" offset="0.046875"/><stop stop-opacity="1" stop-color="rgb(29.884338%, 76.44043%, 99.961853%)" offset="0.0507813"/><stop stop-opacity="1" stop-color="rgb(30.140686%, 76.116943%, 99.960327%)" offset="0.0546875"/><stop stop-opacity="1" stop-color="rgb(30.395508%, 75.793457%, 99.958801%)" offset="0.0585938"/><stop stop-opacity="1" stop-color="rgb(30.65033%, 75.469971%, 99.957275%)" offset="0.0625"/><stop stop-opacity="1" stop-color="rgb(30.905151%, 75.146484%, 99.954224%)" offset="0.0664062"/><stop stop-opacity="1" stop-color="rgb(31.161499%, 74.822998%, 99.952698%)" offset="0.0703125"/><stop stop-opacity="1" stop-color="rgb(31.416321%, 74.499512%, 99.949646%)" offset="0.0742187"/><stop stop-opacity="1" stop-color="rgb(31.671143%, 74.176025%, 99.94812%)" offset="0.078125"/><stop stop-opacity="1" stop-color="rgb(31.925964%, 73.852539%, 99.945068%)" offset="0.0820312"/><stop stop-opacity="1" stop-color="rgb(32.182312%, 73.529053%, 99.943542%)" offset="0.0859375"/><stop stop-opacity="1" stop-color="rgb(32.437134%, 73.205566%, 99.942017%)" offset="0.0898438"/><stop stop-opacity="1" stop-color="rgb(32.691956%, 72.88208%, 99.940491%)" offset="0.09375"/><stop stop-opacity="1" stop-color="rgb(32.946777%, 72.558594%, 99.937439%)" offset="0.0976562"/><stop stop-opacity="1" stop-color="rgb(33.203125%, 72.235107%, 99.935913%)" offset="0.101562"/><stop stop-opacity="1" stop-color="rgb(33.457947%, 71.911621%, 99.932861%)" offset="0.105469"/><stop stop-opacity="1" stop-color="rgb(33.712769%, 71.588135%, 99.931335%)" offset="0.109375"/><stop stop-opacity="1" stop-color="rgb(33.96759%, 71.264648%, 99.928284%)" offset="0.113281"/><stop stop-opacity="1" stop-color="rgb(34.223938%, 70.941162%, 99.926758%)" offset="0.117188"/><stop stop-opacity="1" stop-color="rgb(34.47876%, 70.617676%, 99.925232%)" offset="0.121094"/><stop stop-opacity="1" stop-color="rgb(34.733582%, 70.294189%, 99.923706%)" offset="0.125"/><stop stop-opacity="1" stop-color="rgb(34.988403%, 69.970703%, 99.920654%)" offset="0.128906"/><stop stop-opacity="1" stop-color="rgb(35.244751%, 69.647217%, 99.919128%)" offset="0.132812"/><stop stop-opacity="1" stop-color="rgb(35.499573%, 69.32373%, 99.916077%)" offset="0.136719"/><stop stop-opacity="1" stop-color="rgb(35.754395%, 69.000244%, 99.914551%)" offset="0.140625"/><stop stop-opacity="1" stop-color="rgb(36.009216%, 68.676758%, 99.911499%)" offset="0.144531"/><stop stop-opacity="1" stop-color="rgb(36.265564%, 68.353271%, 99.909973%)" offset="0.148437"/><stop stop-opacity="1" stop-color="rgb(36.520386%, 68.029785%, 99.908447%)" offset="0.152344"/><stop stop-opacity="1" stop-color="rgb(36.775208%, 67.706299%, 99.906921%)" offset="0.15625"/><stop stop-opacity="1" stop-color="rgb(37.030029%, 67.382812%, 99.90387%)" offset="0.160156"/><stop stop-opacity="1" stop-color="rgb(37.286377%, 67.059326%, 99.902344%)" offset="0.164062"/><stop stop-opacity="1" stop-color="rgb(37.541199%, 66.73584%, 99.899292%)" offset="0.167969"/><stop stop-opacity="1" stop-color="rgb(37.796021%, 66.412354%, 99.897766%)" offset="0.171875"/><stop stop-opacity="1" stop-color="rgb(38.050842%, 66.088867%, 99.894714%)" offset="0.175781"/><stop stop-opacity="1" stop-color="rgb(38.30719%, 65.765381%, 99.893188%)" offset="0.179688"/><stop stop-opacity="1" stop-color="rgb(38.562012%, 65.441895%, 99.891663%)" offset="0.183594"/><stop stop-opacity="1" stop-color="rgb(38.816833%, 65.118408%, 99.890137%)" offset="0.1875"/><stop stop-opacity="1" stop-color="rgb(39.071655%, 64.794922%, 99.887085%)" offset="0.191406"/><stop stop-opacity="1" stop-color="rgb(39.328003%, 64.471436%, 99.885559%)" offset="0.195312"/><stop stop-opacity="1" stop-color="rgb(39.582825%, 64.147949%, 99.882507%)" offset="0.199219"/><stop stop-opacity="1" stop-color="rgb(39.837646%, 63.824463%, 99.880981%)" offset="0.203125"/><stop stop-opacity="1" stop-color="rgb(40.092468%, 63.500977%, 99.87793%)" offset="0.207031"/><stop stop-opacity="1" stop-color="rgb(40.348816%, 63.17749%, 99.876404%)" offset="0.210938"/><stop stop-opacity="1" stop-color="rgb(40.603638%, 62.854004%, 99.874878%)" offset="0.214844"/><stop stop-opacity="1" stop-color="rgb(40.858459%, 62.530518%, 99.873352%)" offset="0.21875"/><stop stop-opacity="1" stop-color="rgb(41.113281%, 62.207031%, 99.8703%)" offset="0.222656"/><stop stop-opacity="1" stop-color="rgb(41.369629%, 61.883545%, 99.868774%)" offset="0.226562"/><stop stop-opacity="1" stop-color="rgb(41.624451%, 61.560059%, 99.865723%)" offset="0.230469"/><stop stop-opacity="1" stop-color="rgb(41.879272%, 61.236572%, 99.864197%)" offset="0.234375"/><stop stop-opacity="1" stop-color="rgb(42.134094%, 60.913086%, 99.861145%)" offset="0.238281"/><stop stop-opacity="1" stop-color="rgb(42.390442%, 60.591125%, 99.859619%)" offset="0.242188"/><stop stop-opacity="1" stop-color="rgb(42.645264%, 60.267639%, 99.858093%)" offset="0.246094"/><stop stop-opacity="1" stop-color="rgb(42.900085%, 59.944153%, 99.856567%)" offset="0.25"/><stop stop-opacity="1" stop-color="rgb(43.154907%, 59.620667%, 99.853516%)" offset="0.253906"/><stop stop-opacity="1" stop-color="rgb(43.411255%, 59.29718%, 99.85199%)" offset="0.257812"/><stop stop-opacity="1" stop-color="rgb(43.666077%, 58.973694%, 99.848938%)" offset="0.261719"/><stop stop-opacity="1" stop-color="rgb(43.920898%, 58.650208%, 99.847412%)" offset="0.265625"/><stop stop-opacity="1" stop-color="rgb(44.17572%, 58.326721%, 99.84436%)" offset="0.269531"/><stop stop-opacity="1" stop-color="rgb(44.432068%, 58.003235%, 99.842834%)" offset="0.273437"/><stop stop-opacity="1" stop-color="rgb(44.68689%, 57.679749%, 99.841309%)" offset="0.277344"/><stop stop-opacity="1" stop-color="rgb(44.941711%, 57.356262%, 99.839783%)" offset="0.28125"/><stop stop-opacity="1" stop-color="rgb(45.196533%, 57.032776%, 99.836731%)" offset="0.285156"/><stop stop-opacity="1" stop-color="rgb(45.452881%, 56.70929%, 99.835205%)" offset="0.289062"/><stop stop-opacity="1" stop-color="rgb(45.707703%, 56.385803%, 99.832153%)" offset="0.292969"/><stop stop-opacity="1" stop-color="rgb(45.962524%, 56.062317%, 99.830627%)" offset="0.296875"/><stop stop-opacity="1" stop-color="rgb(46.217346%, 55.738831%, 99.827576%)" offset="0.300781"/><stop stop-opacity="1" stop-color="rgb(46.473694%, 55.415344%, 99.82605%)" offset="0.304687"/><stop stop-opacity="1" stop-color="rgb(46.728516%, 55.091858%, 99.824524%)" offset="0.308594"/><stop stop-opacity="1" stop-color="rgb(46.983337%, 54.768372%, 99.822998%)" offset="0.3125"/><stop stop-opacity="1" stop-color="rgb(47.238159%, 54.444885%, 99.819946%)" offset="0.316406"/><stop stop-opacity="1" stop-color="rgb(47.494507%, 54.121399%, 99.81842%)" offset="0.320312"/><stop stop-opacity="1" stop-color="rgb(47.749329%, 53.797913%, 99.815369%)" offset="0.324219"/><stop stop-opacity="1" stop-color="rgb(48.00415%, 53.474426%, 99.813843%)" offset="0.328125"/><stop stop-opacity="1" stop-color="rgb(48.258972%, 53.15094%, 99.810791%)" offset="0.332031"/><stop stop-opacity="1" stop-color="rgb(48.51532%, 52.827454%, 99.809265%)" offset="0.335938"/><stop stop-opacity="1" stop-color="rgb(48.770142%, 52.503967%, 99.807739%)" offset="0.339844"/><stop stop-opacity="1" stop-color="rgb(49.024963%, 52.180481%, 99.806213%)" offset="0.34375"/><stop stop-opacity="1" stop-color="rgb(49.279785%, 51.856995%, 99.803162%)" offset="0.347656"/><stop stop-opacity="1" stop-color="rgb(49.536133%, 51.533508%, 99.801636%)" offset="0.351562"/><stop stop-opacity="1" stop-color="rgb(49.790955%, 51.210022%, 99.798584%)" offset="0.355469"/><stop stop-opacity="1" stop-color="rgb(50.045776%, 50.886536%, 99.797058%)" offset="0.359375"/><stop stop-opacity="1" stop-color="rgb(50.300598%, 50.563049%, 99.794006%)" offset="0.363281"/><stop stop-opacity="1" stop-color="rgb(50.55542%, 50.239563%, 99.79248%)" offset="0.367188"/><stop stop-opacity="1" stop-color="rgb(50.810242%, 49.916077%, 99.790955%)" offset="0.371094"/><stop stop-opacity="1" stop-color="rgb(51.066589%, 49.59259%, 99.789429%)" offset="0.375"/><stop stop-opacity="1" stop-color="rgb(51.321411%, 49.269104%, 99.786377%)" offset="0.378906"/><stop stop-opacity="1" stop-color="rgb(51.576233%, 48.945618%, 99.784851%)" offset="0.382812"/><stop stop-opacity="1" stop-color="rgb(51.831055%, 48.622131%, 99.781799%)" offset="0.386719"/><stop stop-opacity="1" stop-color="rgb(52.087402%, 48.298645%, 99.780273%)" offset="0.390625"/><stop stop-opacity="1" stop-color="rgb(52.342224%, 47.975159%, 99.777222%)" offset="0.394531"/><stop stop-opacity="1" stop-color="rgb(52.597046%, 47.651672%, 99.775696%)" offset="0.398438"/><stop stop-opacity="1" stop-color="rgb(52.851868%, 47.328186%, 99.77417%)" offset="0.402344"/><stop stop-opacity="1" stop-color="rgb(53.108215%, 47.0047%, 99.772644%)" offset="0.40625"/><stop stop-opacity="1" stop-color="rgb(53.363037%, 46.681213%, 99.769592%)" offset="0.410156"/><stop stop-opacity="1" stop-color="rgb(53.617859%, 46.357727%, 99.768066%)" offset="0.414062"/><stop stop-opacity="1" stop-color="rgb(53.872681%, 46.034241%, 99.765015%)" offset="0.417969"/><stop stop-opacity="1" stop-color="rgb(54.129028%, 45.710754%, 99.763489%)" offset="0.421875"/><stop stop-opacity="1" stop-color="rgb(54.38385%, 45.387268%, 99.760437%)" offset="0.425781"/><stop stop-opacity="1" stop-color="rgb(54.638672%, 45.063782%, 99.758911%)" offset="0.429688"/><stop stop-opacity="1" stop-color="rgb(54.893494%, 44.740295%, 99.757385%)" offset="0.433594"/><stop stop-opacity="1" stop-color="rgb(55.149841%, 44.418335%, 99.755859%)" offset="0.4375"/><stop stop-opacity="1" stop-color="rgb(55.404663%, 44.094849%, 99.752808%)" offset="0.441406"/><stop stop-opacity="1" stop-color="rgb(55.659485%, 43.771362%, 99.751282%)" offset="0.445312"/><stop stop-opacity="1" stop-color="rgb(55.914307%, 43.447876%, 99.74823%)" offset="0.449219"/><stop stop-opacity="1" stop-color="rgb(56.170654%, 43.12439%, 99.746704%)" offset="0.453125"/><stop stop-opacity="1" stop-color="rgb(56.425476%, 42.800903%, 99.743652%)" offset="0.457031"/><stop stop-opacity="1" stop-color="rgb(56.680298%, 42.477417%, 99.742126%)" offset="0.460938"/><stop stop-opacity="1" stop-color="rgb(56.93512%, 42.153931%, 99.740601%)" offset="0.464844"/><stop stop-opacity="1" stop-color="rgb(57.191467%, 41.830444%, 99.739075%)" offset="0.46875"/><stop stop-opacity="1" stop-color="rgb(57.446289%, 41.506958%, 99.736023%)" offset="0.472656"/><stop stop-opacity="1" stop-color="rgb(57.701111%, 41.183472%, 99.734497%)" offset="0.476562"/><stop stop-opacity="1" stop-color="rgb(57.955933%, 40.859985%, 99.731445%)" offset="0.480469"/><stop stop-opacity="1" stop-color="rgb(58.21228%, 40.536499%, 99.729919%)" offset="0.484375"/><stop stop-opacity="1" stop-color="rgb(58.467102%, 40.213013%, 99.726868%)" offset="0.488281"/><stop stop-opacity="1" stop-color="rgb(58.721924%, 39.889526%, 99.725342%)" offset="0.492188"/><stop stop-opacity="1" stop-color="rgb(58.976746%, 39.56604%, 99.723816%)" offset="0.496094"/><stop stop-opacity="1" stop-color="rgb(59.233093%, 39.242554%, 99.72229%)" offset="0.5"/><stop stop-opacity="1" stop-color="rgb(59.487915%, 38.919067%, 99.719238%)" offset="0.503906"/><stop stop-opacity="1" stop-color="rgb(59.742737%, 38.595581%, 99.717712%)" offset="0.507812"/><stop stop-opacity="1" stop-color="rgb(59.997559%, 38.272095%, 99.714661%)" offset="0.511719"/><stop stop-opacity="1" stop-color="rgb(60.253906%, 37.948608%, 99.713135%)" offset="0.515625"/><stop stop-opacity="1" stop-color="rgb(60.508728%, 37.625122%, 99.710083%)" offset="0.519531"/><stop stop-opacity="1" stop-color="rgb(60.76355%, 37.301636%, 99.708557%)" offset="0.523437"/><stop stop-opacity="1" stop-color="rgb(61.018372%, 36.978149%, 99.707031%)" offset="0.527344"/><stop stop-opacity="1" stop-color="rgb(61.274719%, 36.654663%, 99.705505%)" offset="0.53125"/><stop stop-opacity="1" stop-color="rgb(61.529541%, 36.331177%, 99.702454%)" offset="0.535156"/><stop stop-opacity="1" stop-color="rgb(61.784363%, 36.00769%, 99.700928%)" offset="0.539062"/><stop stop-opacity="1" stop-color="rgb(62.039185%, 35.684204%, 99.697876%)" offset="0.542969"/><stop stop-opacity="1" stop-color="rgb(62.295532%, 35.360718%, 99.69635%)" offset="0.546875"/><stop stop-opacity="1" stop-color="rgb(62.550354%, 35.037231%, 99.693298%)" offset="0.550781"/><stop stop-opacity="1" stop-color="rgb(62.805176%, 34.713745%, 99.691772%)" offset="0.554687"/><stop stop-opacity="1" stop-color="rgb(63.059998%, 34.390259%, 99.690247%)" offset="0.558594"/><stop stop-opacity="1" stop-color="rgb(63.316345%, 34.066772%, 99.688721%)" offset="0.5625"/><stop stop-opacity="1" stop-color="rgb(63.571167%, 33.743286%, 99.685669%)" offset="0.566406"/><stop stop-opacity="1" stop-color="rgb(63.825989%, 33.4198%, 99.684143%)" offset="0.570312"/><stop stop-opacity="1" stop-color="rgb(64.080811%, 33.096313%, 99.681091%)" offset="0.574219"/><stop stop-opacity="1" stop-color="rgb(64.337158%, 32.772827%, 99.679565%)" offset="0.578125"/><stop stop-opacity="1" stop-color="rgb(64.59198%, 32.449341%, 99.676514%)" offset="0.582031"/><stop stop-opacity="1" stop-color="rgb(64.846802%, 32.125854%, 99.674988%)" offset="0.585937"/><stop stop-opacity="1" stop-color="rgb(65.101624%, 31.802368%, 99.673462%)" offset="0.589844"/><stop stop-opacity="1" stop-color="rgb(65.357971%, 31.478882%, 99.671936%)" offset="0.59375"/><stop stop-opacity="1" stop-color="rgb(65.612793%, 31.155396%, 99.668884%)" offset="0.597656"/><stop stop-opacity="1" stop-color="rgb(65.867615%, 30.831909%, 99.667358%)" offset="0.601562"/><stop stop-opacity="1" stop-color="rgb(66.122437%, 30.508423%, 99.664307%)" offset="0.605469"/><stop stop-opacity="1" stop-color="rgb(66.378784%, 30.184937%, 99.662781%)" offset="0.609375"/><stop stop-opacity="1" stop-color="rgb(66.633606%, 29.86145%, 99.659729%)" offset="0.613281"/><stop stop-opacity="1" stop-color="rgb(66.888428%, 29.537964%, 99.658203%)" offset="0.617187"/><stop stop-opacity="1" stop-color="rgb(67.14325%, 29.214478%, 99.655151%)" offset="0.621094"/><stop stop-opacity="1" stop-color="rgb(67.399597%, 28.890991%, 99.653625%)" offset="0.625"/><stop stop-opacity="1" stop-color="rgb(67.654419%, 28.567505%, 99.6521%)" offset="0.628906"/><stop stop-opacity="1" stop-color="rgb(67.909241%, 28.245544%, 99.650574%)" offset="0.632812"/><stop stop-opacity="1" stop-color="rgb(68.164062%, 27.922058%, 99.647522%)" offset="0.636719"/><stop stop-opacity="1" stop-color="rgb(68.42041%, 27.598572%, 99.645996%)" offset="0.640625"/><stop stop-opacity="1" stop-color="rgb(68.675232%, 27.275085%, 99.642944%)" offset="0.644531"/><stop stop-opacity="1" stop-color="rgb(68.930054%, 26.951599%, 99.641418%)" offset="0.648437"/><stop stop-opacity="1" stop-color="rgb(69.184875%, 26.628113%, 99.638367%)" offset="0.652344"/><stop stop-opacity="1" stop-color="rgb(69.441223%, 26.304626%, 99.636841%)" offset="0.65625"/><stop stop-opacity="1" stop-color="rgb(69.696045%, 25.98114%, 99.635315%)" offset="0.660156"/><stop stop-opacity="1" stop-color="rgb(69.950867%, 25.657654%, 99.633789%)" offset="0.664062"/><stop stop-opacity="1" stop-color="rgb(70.205688%, 25.334167%, 99.630737%)" offset="0.667969"/><stop stop-opacity="1" stop-color="rgb(70.462036%, 25.010681%, 99.629211%)" offset="0.671875"/><stop stop-opacity="1" stop-color="rgb(70.716858%, 24.687195%, 99.62616%)" offset="0.675781"/><stop stop-opacity="1" stop-color="rgb(70.97168%, 24.363708%, 99.624634%)" offset="0.679688"/><stop stop-opacity="1" stop-color="rgb(71.226501%, 24.040222%, 99.621582%)" offset="0.683594"/><stop stop-opacity="1" stop-color="rgb(71.482849%, 23.716736%, 99.620056%)" offset="0.6875"/><stop stop-opacity="1" stop-color="rgb(71.737671%, 23.39325%, 99.61853%)" offset="0.691406"/><stop stop-opacity="1" stop-color="rgb(71.992493%, 23.069763%, 99.617004%)" offset="0.695312"/><stop stop-opacity="1" stop-color="rgb(72.247314%, 22.746277%, 99.613953%)" offset="0.699219"/><stop stop-opacity="1" stop-color="rgb(72.502136%, 22.422791%, 99.612427%)" offset="0.703125"/><stop stop-opacity="1" stop-color="rgb(72.756958%, 22.099304%, 99.609375%)" offset="0.707031"/><stop stop-opacity="1" stop-color="rgb(73.013306%, 21.775818%, 99.607849%)" offset="0.710938"/><stop stop-opacity="1" stop-color="rgb(73.268127%, 21.452332%, 99.604797%)" offset="0.714844"/><stop stop-opacity="1" stop-color="rgb(73.522949%, 21.128845%, 99.603271%)" offset="0.71875"/><stop stop-opacity="1" stop-color="rgb(73.777771%, 20.805359%, 99.601746%)" offset="0.722656"/><stop stop-opacity="1" stop-color="rgb(74.034119%, 20.481873%, 99.60022%)" offset="0.726562"/><stop stop-opacity="1" stop-color="rgb(74.066162%, 20.440674%, 99.598694%)" offset="0.734375"/><stop stop-opacity="1" stop-color="rgb(74.099731%, 20.399475%, 99.598694%)" offset="0.75"/><stop stop-opacity="1" stop-color="rgb(74.099731%, 20.399475%, 99.598694%)" offset="1"/></linearGradient><clipPath id="a9500ab9ea"><path d="M 122 35 L 239 35 L 239 247 L 122 247 Z M 122 35 " clip-rule="nonzero"/></clipPath><clipPath id="3e4f555b63"><path d="M 218.558594 35.5 L 130.675781 52.71875 C 129.230469 53.003906 128.160156 54.226562 128.074219 55.695312 L 122.667969 147 C 122.539062 149.148438 124.515625 150.820312 126.613281 150.335938 L 151.082031 144.6875 C 153.371094 144.160156 155.4375 146.175781 154.96875 148.480469 L 147.699219 184.078125 C 147.210938 186.472656 149.460938 188.519531 151.800781 187.808594 L 166.910156 183.21875 C 169.253906 182.507812 171.507812 184.5625 171.011719 186.960938 L 159.457031 242.875 C 158.734375 246.371094 163.386719 248.277344 165.328125 245.28125 L 166.625 243.277344 L 238.234375 100.363281 C 239.433594 97.96875 237.367188 95.242188 234.738281 95.75 L 209.554688 100.609375 C 207.1875 101.066406 205.171875 98.863281 205.839844 96.546875 L 222.277344 39.5625 C 222.949219 37.242188 220.925781 35.035156 218.558594 35.5 Z M 218.558594 35.5 " clip-rule="nonzero"/></clipPath><linearGradient x1="121.43604" gradientTransform="matrix(1.265625, 0, 0, 1.265625, 0.0000062, 0)" y1="24.094378" x2="147.407885" gradientUnits="userSpaceOnUse" y2="202.260686" id="22c85b014d"><stop stop-opacity="1" stop-color="rgb(100%, 91.799927%, 51.399231%)" offset="0"/><stop stop-opacity="1" stop-color="rgb(100%, 91.799927%, 51.399231%)" offset="0.03125"/><stop stop-opacity="1" stop-color="rgb(100%, 91.799927%, 51.399231%)" offset="0.0390625"/><stop stop-opacity="1" stop-color="rgb(100%, 91.650391%, 50.505066%)" offset="0.0429687"/><stop stop-opacity="1" stop-color="rgb(100%, 91.500854%, 49.610901%)" offset="0.046875"/><stop stop-opacity="1" stop-color="rgb(100%, 91.204834%, 47.839355%)" offset="0.0507812"/><stop stop-opacity="1" stop-color="rgb(100%, 90.910339%, 46.069336%)" offset="0.0546875"/><stop stop-opacity="1" stop-color="rgb(100%, 90.615845%, 44.299316%)" offset="0.0585937"/><stop stop-opacity="1" stop-color="rgb(100%, 90.32135%, 42.529297%)" offset="0.0625"/><stop stop-opacity="1" stop-color="rgb(100%, 90.02533%, 40.757751%)" offset="0.0664062"/><stop stop-opacity="1" stop-color="rgb(100%, 89.730835%, 38.987732%)" offset="0.0703125"/><stop stop-opacity="1" stop-color="rgb(100%, 89.434814%, 37.216187%)" offset="0.0742188"/><stop stop-opacity="1" stop-color="rgb(100%, 89.14032%, 35.446167%)" offset="0.078125"/><stop stop-opacity="1" stop-color="rgb(100%, 88.844299%, 33.676147%)" offset="0.0820312"/><stop stop-opacity="1" stop-color="rgb(100%, 88.549805%, 31.906128%)" offset="0.0859375"/><stop stop-opacity="1" stop-color="rgb(100%, 88.25531%, 30.134583%)" offset="0.0898437"/><stop stop-opacity="1" stop-color="rgb(100%, 87.960815%, 28.364563%)" offset="0.09375"/><stop stop-opacity="1" stop-color="rgb(100%, 87.664795%, 26.593018%)" offset="0.0976562"/><stop stop-opacity="1" stop-color="rgb(100%, 87.3703%, 24.822998%)" offset="0.101562"/><stop stop-opacity="1" stop-color="rgb(100%, 87.07428%, 23.051453%)" offset="0.105469"/><stop stop-opacity="1" stop-color="rgb(100%, 86.779785%, 21.281433%)" offset="0.109375"/><stop stop-opacity="1" stop-color="rgb(100%, 86.645508%, 20.94574%)" offset="0.113281"/><stop stop-opacity="1" stop-color="rgb(100%, 86.51123%, 20.611572%)" offset="0.117187"/><stop stop-opacity="1" stop-color="rgb(100%, 86.401367%, 20.501709%)" offset="0.125"/><stop stop-opacity="1" stop-color="rgb(100%, 86.183167%, 20.283508%)" offset="0.132812"/><stop stop-opacity="1" stop-color="rgb(100%, 85.966492%, 20.065308%)" offset="0.140625"/><stop stop-opacity="1" stop-color="rgb(100%, 85.748291%, 19.848633%)" offset="0.148438"/><stop stop-opacity="1" stop-color="rgb(100%, 85.53009%, 19.630432%)" offset="0.15625"/><stop stop-opacity="1" stop-color="rgb(100%, 85.31189%, 19.412231%)" offset="0.164062"/><stop stop-opacity="1" stop-color="rgb(100%, 85.093689%, 19.194031%)" offset="0.171875"/><stop stop-opacity="1" stop-color="rgb(100%, 84.877014%, 18.97583%)" offset="0.179687"/><stop stop-opacity="1" stop-color="rgb(100%, 84.658813%, 18.759155%)" offset="0.1875"/><stop stop-opacity="1" stop-color="rgb(100%, 84.440613%, 18.540955%)" offset="0.195312"/><stop stop-opacity="1" stop-color="rgb(100%, 84.222412%, 18.322754%)" offset="0.203125"/><stop stop-opacity="1" stop-color="rgb(100%, 84.005737%, 18.104553%)" offset="0.210937"/><stop stop-opacity="1" stop-color="rgb(100%, 83.787537%, 17.887878%)" offset="0.21875"/><stop stop-opacity="1" stop-color="rgb(100%, 83.569336%, 17.669678%)" offset="0.226562"/><stop stop-opacity="1" stop-color="rgb(100%, 83.351135%, 17.451477%)" offset="0.234375"/><stop stop-opacity="1" stop-color="rgb(100%, 83.132935%, 17.233276%)" offset="0.242187"/><stop stop-opacity="1" stop-color="rgb(100%, 82.91626%, 17.015076%)" offset="0.25"/><stop stop-opacity="1" stop-color="rgb(100%, 82.698059%, 16.798401%)" offset="0.257812"/><stop stop-opacity="1" stop-color="rgb(100%, 82.479858%, 16.5802%)" offset="0.265625"/><stop stop-opacity="1" stop-color="rgb(100%, 82.261658%, 16.362%)" offset="0.273438"/><stop stop-opacity="1" stop-color="rgb(100%, 82.044983%, 16.143799%)" offset="0.28125"/><stop stop-opacity="1" stop-color="rgb(100%, 81.826782%, 15.925598%)" offset="0.289062"/><stop stop-opacity="1" stop-color="rgb(100%, 81.608582%, 15.708923%)" offset="0.296875"/><stop stop-opacity="1" stop-color="rgb(100%, 81.390381%, 15.490723%)" offset="0.304688"/><stop stop-opacity="1" stop-color="rgb(100%, 81.17218%, 15.272522%)" offset="0.3125"/><stop stop-opacity="1" stop-color="rgb(100%, 80.955505%, 15.054321%)" offset="0.320312"/><stop stop-opacity="1" stop-color="rgb(100%, 80.737305%, 14.837646%)" offset="0.328125"/><stop stop-opacity="1" stop-color="rgb(100%, 80.519104%, 14.619446%)" offset="0.335937"/><stop stop-opacity="1" stop-color="rgb(100%, 80.300903%, 14.401245%)" offset="0.34375"/><stop stop-opacity="1" stop-color="rgb(100%, 80.082703%, 14.183044%)" offset="0.351562"/><stop stop-opacity="1" stop-color="rgb(100%, 79.866028%, 13.964844%)" offset="0.359375"/><stop stop-opacity="1" stop-color="rgb(100%, 79.647827%, 13.748169%)" offset="0.367187"/><stop stop-opacity="1" stop-color="rgb(100%, 79.429626%, 13.529968%)" offset="0.375"/><stop stop-opacity="1" stop-color="rgb(100%, 79.211426%, 13.311768%)" offset="0.382812"/><stop stop-opacity="1" stop-color="rgb(100%, 78.994751%, 13.093567%)" offset="0.390625"/><stop stop-opacity="1" stop-color="rgb(100%, 78.77655%, 12.876892%)" offset="0.398437"/><stop stop-opacity="1" stop-color="rgb(100%, 78.55835%, 12.658691%)" offset="0.40625"/><stop stop-opacity="1" stop-color="rgb(100%, 78.340149%, 12.440491%)" offset="0.414062"/><stop stop-opacity="1" stop-color="rgb(100%, 78.121948%, 12.22229%)" offset="0.421875"/><stop stop-opacity="1" stop-color="rgb(100%, 77.905273%, 12.004089%)" offset="0.429687"/><stop stop-opacity="1" stop-color="rgb(100%, 77.687073%, 11.787415%)" offset="0.4375"/><stop stop-opacity="1" stop-color="rgb(100%, 77.468872%, 11.569214%)" offset="0.445312"/><stop stop-opacity="1" stop-color="rgb(100%, 77.250671%, 11.351013%)" offset="0.453125"/><stop stop-opacity="1" stop-color="rgb(100%, 77.033997%, 11.132812%)" offset="0.460937"/><stop stop-opacity="1" stop-color="rgb(100%, 76.815796%, 10.916138%)" offset="0.46875"/><stop stop-opacity="1" stop-color="rgb(100%, 76.597595%, 10.697937%)" offset="0.476562"/><stop stop-opacity="1" stop-color="rgb(100%, 76.379395%, 10.479736%)" offset="0.484375"/><stop stop-opacity="1" stop-color="rgb(100%, 76.161194%, 10.261536%)" offset="0.492187"/><stop stop-opacity="1" stop-color="rgb(100%, 75.944519%, 10.043335%)" offset="0.5"/><stop stop-opacity="1" stop-color="rgb(100%, 75.726318%, 9.82666%)" offset="0.507812"/><stop stop-opacity="1" stop-color="rgb(100%, 75.508118%, 9.608459%)" offset="0.515625"/><stop stop-opacity="1" stop-color="rgb(100%, 75.289917%, 9.390259%)" offset="0.523437"/><stop stop-opacity="1" stop-color="rgb(100%, 75.073242%, 9.172058%)" offset="0.53125"/><stop stop-opacity="1" stop-color="rgb(100%, 74.855042%, 8.955383%)" offset="0.539062"/><stop stop-opacity="1" stop-color="rgb(100%, 74.636841%, 8.737183%)" offset="0.546875"/><stop stop-opacity="1" stop-color="rgb(100%, 74.41864%, 8.518982%)" offset="0.554687"/><stop stop-opacity="1" stop-color="rgb(100%, 74.200439%, 8.300781%)" offset="0.5625"/><stop stop-opacity="1" stop-color="rgb(100%, 73.983765%, 8.082581%)" offset="0.570312"/><stop stop-opacity="1" stop-color="rgb(100%, 73.765564%, 7.865906%)" offset="0.578125"/><stop stop-opacity="1" stop-color="rgb(100%, 73.547363%, 7.647705%)" offset="0.585937"/><stop stop-opacity="1" stop-color="rgb(100%, 73.329163%, 7.429504%)" offset="0.59375"/><stop stop-opacity="1" stop-color="rgb(100%, 73.110962%, 7.211304%)" offset="0.601562"/><stop stop-opacity="1" stop-color="rgb(100%, 72.894287%, 6.993103%)" offset="0.609375"/><stop stop-opacity="1" stop-color="rgb(100%, 72.676086%, 6.776428%)" offset="0.617187"/><stop stop-opacity="1" stop-color="rgb(100%, 72.457886%, 6.558228%)" offset="0.625"/><stop stop-opacity="1" stop-color="rgb(100%, 72.239685%, 6.340027%)" offset="0.632812"/><stop stop-opacity="1" stop-color="rgb(100%, 72.02301%, 6.121826%)" offset="0.640625"/><stop stop-opacity="1" stop-color="rgb(100%, 71.80481%, 5.905151%)" offset="0.648437"/><stop stop-opacity="1" stop-color="rgb(100%, 71.586609%, 5.686951%)" offset="0.65625"/><stop stop-opacity="1" stop-color="rgb(100%, 71.368408%, 5.46875%)" offset="0.664062"/><stop stop-opacity="1" stop-color="rgb(100%, 71.150208%, 5.250549%)" offset="0.671875"/><stop stop-opacity="1" stop-color="rgb(100%, 70.933533%, 5.032349%)" offset="0.679687"/><stop stop-opacity="1" stop-color="rgb(100%, 70.715332%, 4.815674%)" offset="0.6875"/><stop stop-opacity="1" stop-color="rgb(100%, 70.497131%, 4.597473%)" offset="0.695312"/><stop stop-opacity="1" stop-color="rgb(100%, 70.278931%, 4.379272%)" offset="0.703125"/><stop stop-opacity="1" stop-color="rgb(100%, 70.062256%, 4.161072%)" offset="0.710937"/><stop stop-opacity="1" stop-color="rgb(100%, 69.844055%, 3.944397%)" offset="0.71875"/><stop stop-opacity="1" stop-color="rgb(100%, 69.625854%, 3.726196%)" offset="0.726562"/><stop stop-opacity="1" stop-color="rgb(100%, 69.407654%, 3.507996%)" offset="0.734375"/><stop stop-opacity="1" stop-color="rgb(100%, 69.189453%, 3.289795%)" offset="0.742187"/><stop stop-opacity="1" stop-color="rgb(100%, 68.972778%, 3.071594%)" offset="0.75"/><stop stop-opacity="1" stop-color="rgb(100%, 68.754578%, 2.854919%)" offset="0.757812"/><stop stop-opacity="1" stop-color="rgb(100%, 68.536377%, 2.636719%)" offset="0.765625"/><stop stop-opacity="1" stop-color="rgb(100%, 68.318176%, 2.418518%)" offset="0.773438"/><stop stop-opacity="1" stop-color="rgb(100%, 68.101501%, 2.200317%)" offset="0.78125"/><stop stop-opacity="1" stop-color="rgb(100%, 67.883301%, 1.983643%)" offset="0.789062"/><stop stop-opacity="1" stop-color="rgb(100%, 67.6651%, 1.765442%)" offset="0.796875"/><stop stop-opacity="1" stop-color="rgb(100%, 67.446899%, 1.547241%)" offset="0.804688"/><stop stop-opacity="1" stop-color="rgb(100%, 67.228699%, 1.329041%)" offset="0.8125"/><stop stop-opacity="1" stop-color="rgb(100%, 67.012024%, 1.11084%)" offset="0.820313"/><stop stop-opacity="1" stop-color="rgb(100%, 66.793823%, 0.894165%)" offset="0.828125"/><stop stop-opacity="1" stop-color="rgb(100%, 66.575623%, 0.675964%)" offset="0.835938"/><stop stop-opacity="1" stop-color="rgb(100%, 66.357422%, 0.457764%)" offset="0.84375"/><stop stop-opacity="1" stop-color="rgb(100%, 66.073608%, 0.17395%)" offset="0.875"/><stop stop-opacity="1" stop-color="rgb(100%, 65.899658%, 0%)" offset="0.926004"/><stop stop-opacity="1" stop-color="rgb(100%, 65.899658%, 0%)" offset="1"/></linearGradient><clipPath id="4d165c85a8"><path d="M 28.226562 29.34375 L 292.425781 29.34375 L 292.425781 293.542969 L 28.226562 293.542969 Z M 28.226562 29.34375 " clip-rule="nonzero"/></clipPath><clipPath id="6c67663016"><path d="M 66.476562 29.34375 L 254.175781 29.34375 C 264.320312 29.34375 274.050781 33.371094 281.222656 40.546875 C 288.394531 47.71875 292.425781 57.449219 292.425781 67.59375 L 292.425781 255.292969 C 292.425781 265.4375 288.394531 275.164062 281.222656 282.339844 C 274.050781 289.511719 264.320312 293.542969 254.175781 293.542969 L 66.476562 293.542969 C 56.332031 293.542969 46.605469 289.511719 39.429688 282.339844 C 32.257812 275.164062 28.226562 265.4375 28.226562 255.292969 L 28.226562 67.59375 C 28.226562 57.449219 32.257812 47.71875 39.429688 40.546875 C 46.605469 33.371094 56.332031 29.34375 66.476562 29.34375 Z M 66.476562 29.34375 " clip-rule="nonzero"/></clipPath><clipPath id="4c07120222"><path d="M 113 42.734375 L 229 42.734375 L 229 208 L 113 208 Z M 113 42.734375 " clip-rule="nonzero"/></clipPath><clipPath id="6ff9b8de84"><path d="M 90 137 L 292.328125 137 L 292.328125 281 L 90 281 Z M 90 137 " clip-rule="nonzero"/></clipPath><clipPath id="36dd539b00"><path d="M 31.328125 137 L 234 137 L 234 281 L 31.328125 281 Z M 31.328125 137 " clip-rule="nonzero"/></clipPath></defs><path fill="#f4f2ed" d="M 75.9375 0 L 248.0625 0 C 249.304688 0 250.546875 0.03125 251.789062 0.0898438 C 253.03125 0.152344 254.269531 0.242188 255.503906 0.367188 C 256.742188 0.488281 257.976562 0.640625 259.203125 0.820312 C 260.433594 1.003906 261.660156 1.214844 262.878906 1.460938 C 264.097656 1.703125 265.308594 1.972656 266.515625 2.277344 C 267.71875 2.578125 268.917969 2.910156 270.105469 3.269531 C 271.296875 3.628906 272.476562 4.019531 273.644531 4.4375 C 274.816406 4.859375 275.972656 5.304688 277.121094 5.78125 C 278.269531 6.257812 279.40625 6.757812 280.53125 7.289062 C 281.652344 7.820312 282.761719 8.378906 283.859375 8.964844 C 284.957031 9.550781 286.035156 10.164062 287.101562 10.804688 C 288.167969 11.441406 289.21875 12.105469 290.25 12.796875 C 291.285156 13.488281 292.300781 14.203125 293.296875 14.945312 C 294.296875 15.683594 295.277344 16.449219 296.238281 17.238281 C 297.199219 18.027344 298.136719 18.835938 299.058594 19.671875 C 299.980469 20.507812 300.878906 21.363281 301.757812 22.242188 C 302.636719 23.121094 303.492188 24.019531 304.328125 24.941406 C 305.164062 25.863281 305.972656 26.800781 306.761719 27.761719 C 307.550781 28.722656 308.316406 29.703125 309.054688 30.703125 C 309.796875 31.699219 310.511719 32.714844 311.203125 33.75 C 311.894531 34.78125 312.558594 35.832031 313.195312 36.898438 C 313.835938 37.964844 314.449219 39.042969 315.035156 40.140625 C 315.621094 41.238281 316.179688 42.347656 316.710938 43.46875 C 317.242188 44.59375 317.742188 45.730469 318.21875 46.878906 C 318.695312 48.027344 319.140625 49.183594 319.5625 50.355469 C 319.980469 51.523438 320.371094 52.703125 320.730469 53.894531 C 321.089844 55.082031 321.421875 56.28125 321.722656 57.484375 C 322.027344 58.691406 322.296875 59.902344 322.539062 61.121094 C 322.785156 62.339844 322.996094 63.566406 323.179688 64.796875 C 323.359375 66.023438 323.511719 67.257812 323.632812 68.496094 C 323.757812 69.730469 323.847656 70.96875 323.910156 72.210938 C 323.96875 73.453125 324 74.695312 324 75.9375 L 324 248.0625 C 324 249.304688 323.96875 250.546875 323.910156 251.789062 C 323.847656 253.03125 323.757812 254.269531 323.632812 255.503906 C 323.511719 256.742188 323.359375 257.976562 323.179688 259.203125 C 322.996094 260.433594 322.785156 261.660156 322.539062 262.878906 C 322.296875 264.097656 322.027344 265.308594 321.722656 266.515625 C 321.421875 267.71875 321.089844 268.917969 320.730469 270.105469 C 320.371094 271.296875 319.980469 272.476562 319.5625 273.644531 C 319.140625 274.816406 318.695312 275.972656 318.21875 277.121094 C 317.742188 278.269531 317.242188 279.40625 316.710938 280.53125 C 316.179688 281.652344 315.621094 282.761719 315.035156 283.859375 C 314.449219 284.957031 313.835938 286.035156 313.195312 287.101562 C 312.558594 288.167969 311.894531 289.21875 311.203125 290.25 C 310.511719 291.285156 309.796875 292.300781 309.054688 293.296875 C 308.316406 294.296875 307.550781 295.277344 306.761719 296.238281 C 305.972656 297.199219 305.164062 298.136719 304.328125 299.058594 C 303.492188 299.980469 302.636719 300.878906 301.757812 301.757812 C 300.878906 302.636719 299.980469 303.492188 299.058594 304.328125 C 298.136719 305.164062 297.199219 305.972656 296.238281 306.761719 C 295.277344 307.550781 294.296875 308.316406 293.296875 309.054688 C 292.300781 309.796875 291.285156 310.511719 290.25 311.203125 C 289.21875 311.894531 288.167969 312.558594 287.101562 313.195312 C 286.035156 313.835938 284.957031 314.449219 283.859375 315.035156 C 282.761719 315.621094 281.652344 316.179688 280.53125 316.710938 C 279.40625 317.242188 278.269531 317.742188 277.121094 318.21875 C 275.972656 318.695312 274.816406 319.140625 273.644531 319.5625 C 272.476562 319.980469 271.296875 320.371094 270.105469 320.730469 C 268.917969 321.089844 267.71875 321.421875 266.515625 321.722656 C 265.308594 322.027344 264.097656 322.296875 262.878906 322.539062 C 261.660156 322.785156 260.433594 322.996094 259.203125 323.179688 C 257.976562 323.359375 256.742188 323.511719 255.503906 323.632812 C 254.269531 323.757812 253.03125 323.847656 251.789062 323.910156 C 250.546875 323.96875 249.304688 324 248.0625 324 L 75.9375 324 C 74.695312 324 73.453125 323.96875 72.210938 323.910156 C 70.96875 323.847656 69.730469 323.757812 68.496094 323.632812 C 67.257812 323.511719 66.023438 323.359375 64.796875 323.179688 C 63.566406 322.996094 62.339844 322.785156 61.121094 322.539062 C 59.902344 322.296875 58.691406 322.027344 57.484375 321.722656 C 56.28125 321.421875 55.082031 321.089844 53.894531 320.730469 C 52.703125 320.371094 51.523438 319.980469 50.355469 319.5625 C 49.183594 319.140625 48.027344 318.695312 46.878906 318.21875 C 45.730469 317.742188 44.59375 317.242188 43.46875 316.710938 C 42.347656 316.179688 41.238281 315.621094 40.140625 315.035156 C 39.042969 314.449219 37.964844 313.835938 36.898438 313.195312 C 35.832031 312.558594 34.78125 311.894531 33.75 311.203125 C 32.714844 310.511719 31.699219 309.796875 30.703125 309.054688 C 29.703125 308.316406 28.722656 307.550781 27.761719 306.761719 C 26.800781 305.972656 25.863281 305.164062 24.941406 304.328125 C 24.019531 303.492188 23.121094 302.636719 22.242188 301.757812 C 21.363281 300.878906 20.507812 299.980469 19.671875 299.058594 C 18.835938 298.136719 18.027344 297.199219 17.238281 296.238281 C 16.449219 295.277344 15.683594 294.296875 14.945312 293.296875 C 14.203125 292.300781 13.488281 291.285156 12.796875 290.25 C 12.105469 289.21875 11.441406 288.167969 10.804688 287.101562 C 10.164062 286.035156 9.550781 284.957031 8.964844 283.859375 C 8.378906 282.761719 7.820312 281.652344 7.289062 280.53125 C 6.757812 279.40625 6.257812 278.269531 5.78125 277.121094 C 5.304688 275.972656 4.859375 274.816406 4.4375 273.644531 C 4.019531 272.476562 3.628906 271.296875 3.269531 270.105469 C 2.910156 268.917969 2.578125 267.71875 2.277344 266.515625 C 1.972656 265.308594 1.703125 264.097656 1.460938 262.878906 C 1.214844 261.660156 1.003906 260.433594 0.820312 259.203125 C 0.640625 257.976562 0.488281 256.742188 0.367188 255.503906 C 0.242188 254.269531 0.152344 253.03125 0.0898438 251.789062 C 0.03125 250.546875 0 249.304688 0 248.0625 L 0 75.9375 C 0 74.695312 0.03125 73.453125 0.0898438 72.210938 C 0.152344 70.96875 0.242188 69.730469 0.367188 68.496094 C 0.488281 67.257812 0.640625 66.023438 0.820312 64.796875 C 1.003906 63.566406 1.214844 62.339844 1.460938 61.121094 C 1.703125 59.902344 1.972656 58.691406 2.277344 57.484375 C 2.578125 56.28125 2.910156 55.082031 3.269531 53.894531 C 3.628906 52.703125 4.019531 51.523438 4.4375 50.355469 C 4.859375 49.183594 5.304688 48.027344 5.78125 46.878906 C 6.257812 45.730469 6.757812 44.59375 7.289062 43.46875 C 7.820312 42.347656 8.378906 41.238281 8.964844 40.140625 C 9.550781 39.042969 10.164062 37.964844 10.804688 36.898438 C 11.441406 35.832031 12.105469 34.78125 12.796875 33.75 C 13.488281 32.714844 14.203125 31.699219 14.945312 30.703125 C 15.683594 29.703125 16.449219 28.722656 17.238281 27.761719 C 18.027344 26.800781 18.835938 25.863281 19.671875 24.941406 C 20.507812 24.019531 21.363281 23.121094 22.242188 22.242188 C 23.121094 21.363281 24.019531 20.507812 24.941406 19.671875 C 25.863281 18.835938 26.800781 18.027344 27.761719 17.238281 C 28.722656 16.449219 29.703125 15.683594 30.703125 14.945312 C 31.699219 14.203125 32.714844 13.488281 33.75 12.796875 C 34.78125 12.105469 35.832031 11.441406 36.898438 10.804688 C 37.964844 10.164062 39.042969 9.550781 40.140625 8.964844 C 41.238281 8.378906 42.347656 7.820312 43.46875 7.289062 C 44.59375 6.757812 45.730469 6.257812 46.878906 5.78125 C 48.027344 5.304688 49.183594 4.859375 50.355469 4.4375 C 51.523438 4.019531 52.703125 3.628906 53.894531 3.269531 C 55.082031 2.910156 56.28125 2.578125 57.484375 2.277344 C 58.691406 1.972656 59.902344 1.703125 61.121094 1.460938 C 62.339844 1.214844 63.566406 1.003906 64.796875 0.820312 C 66.023438 0.640625 67.257812 0.488281 68.496094 0.367188 C 69.730469 0.242188 70.96875 0.152344 72.210938 0.0898438 C 73.453125 0.03125 74.695312 0 75.9375 0 Z M 75.9375 0 " fill-opacity="1" fill-rule="nonzero"/><g clip-path="url(#4dc6261c93)"><g clip-path="url(#d550afb3ab)"><path fill="url(#2ce057203c)" d="M 33.589844 62.410156 L 33.589844 289.667969 L 290.070312 289.667969 L 290.070312 62.410156 Z M 33.589844 62.410156 " fill-rule="nonzero"/></g></g><g clip-path="url(#a9500ab9ea)"><g clip-path="url(#3e4f555b63)"><path fill="url(#22c85b014d)" d="M 122.539062 35.035156 L 122.539062 248.277344 L 239.433594 248.277344 L 239.433594 35.035156 Z M 122.539062 35.035156 " fill-rule="nonzero"/></g></g><g clip-path="url(#4d165c85a8)"><g clip-path="url(#6c67663016)"><path fill="#f4f2ed" d="M 28.226562 29.34375 L 292.425781 29.34375 L 292.425781 293.542969 L 28.226562 293.542969 Z M 28.226562 29.34375 " fill-opacity="1" fill-rule="nonzero"/></g></g><g clip-path="url(#4c07120222)"><path fill="#fcc72b" d="M 227.097656 114.902344 L 164.796875 205.09375 C 164.136719 206.050781 163.179688 206.765625 162.074219 207.132812 C 160.96875 207.5 159.773438 207.496094 158.671875 207.128906 C 157.570312 206.757812 156.617188 206.035156 155.964844 205.078125 C 155.308594 204.121094 154.988281 202.972656 155.042969 201.816406 L 157.539062 152.019531 L 117.285156 143.472656 C 116.421875 143.292969 115.621094 142.898438 114.949219 142.335938 C 114.277344 141.769531 113.757812 141.046875 113.433594 140.234375 C 113.109375 139.417969 112.988281 138.535156 113.089844 137.664062 C 113.1875 136.792969 113.5 135.960938 114 135.238281 L 176.304688 45.046875 C 176.964844 44.089844 177.917969 43.375 179.023438 43.007812 C 180.128906 42.640625 181.324219 42.640625 182.425781 43.011719 C 183.53125 43.382812 184.480469 44.101562 185.136719 45.0625 C 185.789062 46.019531 186.113281 47.167969 186.054688 48.324219 L 183.5625 98.121094 L 223.8125 106.667969 C 224.675781 106.847656 225.476562 107.242188 226.148438 107.804688 C 226.820312 108.371094 227.339844 109.09375 227.664062 109.90625 C 227.992188 110.722656 228.109375 111.605469 228.011719 112.476562 C 227.914062 113.347656 227.597656 114.179688 227.097656 114.902344 Z M 227.097656 114.902344 " fill-opacity="1" fill-rule="nonzero"/></g><g clip-path="url(#6ff9b8de84)"><path fill="#729b1b" d="M 161.855469 280.761719 C 160.195312 280.761719 158.554688 280.4375 157.023438 279.804688 C 155.492188 279.167969 154.101562 278.234375 152.933594 277.0625 L 94.0625 218.125 C 91.710938 215.757812 90.390625 212.546875 90.394531 209.203125 C 90.398438 205.859375 91.726562 202.652344 94.089844 200.289062 C 96.449219 197.925781 99.652344 196.59375 102.992188 196.589844 C 106.332031 196.585938 109.535156 197.90625 111.902344 200.265625 L 161.855469 250.269531 L 270.671875 141.328125 C 273.042969 138.988281 276.242188 137.6875 279.570312 137.699219 C 282.898438 137.714844 286.085938 139.042969 288.4375 141.398438 C 290.789062 143.753906 292.121094 146.945312 292.132812 150.277344 C 292.144531 153.609375 290.84375 156.8125 288.507812 159.1875 L 170.773438 277.0625 C 169.601562 278.238281 168.210938 279.167969 166.683594 279.804688 C 165.152344 280.4375 163.511719 280.761719 161.855469 280.761719 Z M 161.855469 280.761719 " fill-opacity="1" fill-rule="nonzero"/></g><g clip-path="url(#36dd539b00)"><path fill="#729b1b" d="M 161.804688 280.761719 C 163.460938 280.761719 165.101562 280.4375 166.632812 279.804688 C 168.164062 279.167969 169.554688 278.234375 170.722656 277.0625 L 229.59375 218.125 C 231.949219 215.757812 233.269531 212.546875 233.261719 209.203125 C 233.261719 205.859375 231.929688 202.652344 229.570312 200.289062 C 227.207031 197.925781 224.003906 196.59375 220.667969 196.589844 C 217.328125 196.585938 214.121094 197.90625 211.753906 200.265625 L 161.804688 250.269531 L 52.984375 141.328125 C 50.613281 138.988281 47.414062 137.6875 44.085938 137.699219 C 40.761719 137.714844 37.570312 139.042969 35.21875 141.398438 C 32.867188 143.753906 31.539062 146.945312 31.523438 150.277344 C 31.511719 153.609375 32.8125 156.8125 35.148438 159.1875 L 152.882812 277.0625 C 154.054688 278.238281 155.445312 279.167969 156.976562 279.804688 C 158.507812 280.4375 160.148438 280.761719 161.804688 280.761719 Z M 161.804688 280.761719 " fill-opacity="0.5" fill-rule="nonzero"/></g></svg>