<svg width="256" height="256" viewBox="0 0 256 256" fill="none" xmlns="http://www.w3.org/2000/svg">
<rect width="256" height="256" rx="60" fill="#242938"/>
<path d="M33.7158 100.208C33.7158 100.208 28.9814 96.7948 34.6627 92.2379L47.8993 80.4019C47.8993 80.4019 51.6869 76.4171 55.6914 79.889L177.84 172.368V216.714C177.84 216.714 177.78 223.678 168.844 222.908L33.7158 100.208Z" fill="#2489CA"/>
<path d="M65.1997 128.792L33.7158 157.416C33.7158 157.416 30.4806 159.822 33.7158 164.123L48.3333 177.418C48.3333 177.418 51.8052 181.147 56.9342 176.906L90.3119 151.596L65.1997 128.792Z" fill="#1070B3"/>
<path d="M120.474 129.029L178.215 84.9393L177.84 40.8301C177.84 40.8301 175.374 31.2034 167.148 36.214L90.312 106.146L120.474 129.029Z" fill="#0877B9"/>
<path d="M168.844 222.968C172.198 226.4 176.262 225.276 176.262 225.276L221.258 203.103C227.019 199.177 226.21 194.305 226.21 194.305V61.8982C226.21 56.0788 220.252 54.0667 220.252 54.0667L181.252 35.267C172.731 30 167.148 36.2139 167.148 36.2139C167.148 36.2139 174.328 31.0455 177.84 40.83V215.905C177.84 217.109 177.583 218.292 177.07 219.358C176.045 221.429 173.815 223.362 168.47 222.553L168.844 222.968Z" fill="#3C99D4"/>
</svg>
