<svg width="256" height="256" viewBox="0 0 256 256" fill="none" xmlns="http://www.w3.org/2000/svg">
<g clip-path="url(#clip0_2_12)">
<path d="M196 0H60C26.8629 0 0 26.8629 0 60V196C0 229.137 26.8629 256 60 256H196C229.137 256 256 229.137 256 196V60C256 26.8629 229.137 0 196 0Z" fill="#242938"/>
<path d="M196 0H60C26.8629 0 0 26.8629 0 60V196C0 229.137 26.8629 256 60 256H196C229.137 256 256 229.137 256 196V60C256 26.8629 229.137 0 196 0Z" fill="url(#paint0_linear_2_12)"/>
<path d="M124.595 33.9141C119.002 37.522 117.389 44.9958 120.993 50.5998C140.807 81.4469 145.483 104.714 143.455 125.104C135.254 164.15 117.428 172.071 101.85 172.071C86.6401 172.071 90.7129 146.907 102.146 139.541C108.97 135.258 117.712 132.473 124.421 132.473C131.069 132.473 136.459 127.072 136.459 120.408C136.459 113.742 131.069 108.341 124.421 108.341C116.585 108.341 108.898 109.997 101.722 112.814C103.188 105.861 103.729 98.3454 101.834 90.3572C98.9567 78.2272 90.6737 66.6411 76.2913 55.4096C73.7727 53.4392 70.5779 52.5544 67.4086 52.9485C64.2392 53.3426 61.3561 54.982 59.3941 57.5081C55.3134 62.7692 56.2581 70.3514 61.507 74.444C73.2239 83.5927 77.0929 90.3651 78.4159 95.9395C79.7389 101.514 78.6746 107.494 76.0169 115.711C72.6202 126.785 68.6767 136.67 66.948 146.15C66.0973 150.816 66.0248 155.894 65.8053 159.951C57.3675 151.683 54.0649 140.767 54.0649 124.816C54.0629 118.152 48.6729 112.749 42.0266 112.751C35.3841 112.757 30.002 118.156 30 124.816C30 146.601 36.3367 167.33 53.3201 181.159C68.6943 195.884 107.79 190.442 107.79 214.081C107.79 220.753 117.504 224 124.151 224C130.967 224 139.546 219.419 139.546 214.081C139.546 187.259 167.663 170.958 213.948 171.029C220.596 171.039 225.99 165.642 226 158.978C226.012 152.312 220.633 146.899 213.985 146.887C210.82 146.883 207.735 146.991 204.693 147.173C209.867 134.938 212.162 121.468 211.688 106.919C211.469 100.257 205.906 95.035 199.264 95.2518C192.613 95.4685 187.404 101.051 187.621 107.717C188.248 126.767 187.539 143.778 173.421 152.745C169.407 155.293 164.74 157.504 160.314 157.504C163.75 148.109 166.345 138.192 167.408 127.502C168.086 120.68 168.158 112.576 167.384 106.28C166.183 96.5267 164.732 85.4646 168.415 77.1317C171.724 69.9553 179.136 66.9504 190.02 66.9504C196.663 66.9445 202.045 61.5436 202.047 54.8855C202.051 48.2195 196.667 42.8126 190.02 42.8067C173.846 42.8067 161.587 51.3643 154.636 61.7032C151.003 53.9002 146.577 45.8589 141.23 37.5358C139.503 34.8461 136.783 32.9565 133.664 32.2767C132.12 31.9397 130.524 31.9102 128.968 32.19C127.412 32.4718 125.926 33.057 124.595 33.9141Z" fill="url(#paint1_linear_2_12)"/>
</g>
<defs>
<linearGradient id="paint0_linear_2_12" x1="128" y1="10.1404" x2="128" y2="256" gradientUnits="userSpaceOnUse">
<stop stop-color="white"/>
<stop offset="1" stop-color="#6FB1FF"/>
</linearGradient>
<linearGradient id="paint1_linear_2_12" x1="30" y1="31.9989" x2="220.439" y2="214.773" gradientUnits="userSpaceOnUse">
<stop stop-color="#62A0EA"/>
<stop offset="1" stop-color="#1A5FB4"/>
</linearGradient>
<clipPath id="clip0_2_12">
<rect width="256" height="256" fill="white"/>
</clipPath>
</defs>
</svg>
