<svg width="256" height="256" version="1.1" viewBox="0 0 256 256" xmlns="http://www.w3.org/2000/svg">
 <rect width="256" height="256" rx="60" fill="#242938"/>
 <g transform="matrix(.19611 0 0 .1967 -1.135 80.715)" fill="#ac162c">
  <path d="m724 385h-40.6v-130c13 7.22 30.1 20.5 40.6 33.3z"/>
  <path d="m382 385h-50.6l-66-204h46l45.4 143h0.57l46-143h46.3z"/>
  <path d="m586 385h-38.6v-20.6h-0.85c-5.15 8.58-11.8 14.8-20 18.6-8.19 3.81-16.6 5.71-25.2 5.71-10.9 0-19.8-1.43-26.7-4.28-6.95-2.85-12.4-6.91-16.4-12.1-4.01-5.24-6.82-11.6-8.44-19.2-1.61-7.52-2.42-15.9-2.42-25v-90.9h40.6v83.4c0 12.2 1.91 21.3 5.72 27.3 3.81 6.01 10.6 9 20.3 9 11 0 19-3.28 24-9.86 4.96-6.58 7.43-17.4 7.43-32.4v-77.4h40.6v148z"/>
  <polygon points="830 237 774 292 836 385 787 385 731 296 731 290 782 237"/>
  <path d="m844 283c0.57-9.52 2.96-17.4 7.15-23.7s9.52-11.3 16-15.1 13.8-6.53 21.9-8.14c8.09-1.62 16.2-2.43 24.4-2.43 7.43 0 15 0.52 22.6 1.57 7.63 1.05 14.6 3.1 20.9 6.15 6.28 3.05 11.4 7.29 15.4 12.7 4 5.43 6 12.6 6 21.6v76.9c0 6.67 0.38 13.1 1.14 19.2s2.1 10.7 4.01 13.7h-41.2c-0.76-2.28-1.38-4.62-1.86-7-0.47-2.38-0.81-4.8-1-7.29-6.48 6.68-14.1 11.3-22.9 14-8.76 2.66-17.7 4-26.9 4-7.05 0-13.6-0.86-19.7-2.57s-11.4-4.38-16-8c-4.58-3.62-8.16-8.19-10.7-13.7-2.57-5.52-3.86-12.1-3.86-19.7 0-8.38 1.48-15.3 4.43-20.7 2.96-5.43 6.76-9.76 11.4-13 4.67-3.24 10-5.67 16-7.29s12-2.91 18.1-3.86c6.1-0.94 12.1-1.71 18-2.28s11.1-1.43 15.7-2.57c4.58-1.15 8.19-2.81 10.9-5.01 2.67-2.19 3.91-5.38 3.72-9.57 0-4.38-0.72-7.86-2.15-10.4s-3.33-4.57-5.71-6-5.14-2.38-8.29-2.86-6.52-0.72-10.1-0.72c-8 0-14.3 1.71-18.9 5.15-4.57 3.43-7.24 9.14-8 17.2h-40.6zm93.7 30c-1.72 1.53-3.86 2.71-6.43 3.57-2.57 0.87-5.33 1.58-8.29 2.15-2.95 0.57-6.05 1.05-9.28 1.43-3.24 0.38-6.48 0.85-9.72 1.43-3.05 0.57-6.05 1.34-9 2.28-2.95 0.96-5.53 2.24-7.72 3.86s-3.95 3.67-5.29 6.14c-1.33 2.48-2 5.62-2 9.43 0 3.62 0.67 6.67 2 9.14 1.34 2.48 3.15 4.43 5.43 5.86 2.29 1.43 4.95 2.43 8 3s6.19 0.85 9.43 0.85c8 0 14.2-1.33 18.6-3.99 4.38-2.67 7.63-5.86 9.71-9.58 2.09-3.71 3.39-7.47 3.85-11.3 0.48-3.81 0.71-6.86 0.72-9.14v-15.2z"/>
  <path d="m1e3 237h38.6v20.6h0.85c5.14-8.57 11.8-14.8 20-18.7 8.19-3.91 16.6-5.86 25.1-5.86 10.9 0 19.8 1.48 26.7 4.43 6.95 2.96 12.4 7.05 16.4 12.3 4 5.24 6.81 11.6 8.43 19.1 1.62 7.53 2.43 15.9 2.43 25v90.9h-40.6v-83.4c0-12.2-1.91-21.3-5.71-27.3-3.82-6-10.6-9-20.3-9-11 0-19 3.29-24 9.86-4.96 6.56-7.43 17.4-7.43 32.4v77.4h-40.6v-148z"/>
  <path d="m612 212v173h40.6v-151c-13-7.98-26.6-15.5-40.6-22.4z"/>
  <path d="m198 219c23.5-68.9 164-94.2 314-56.4 90 22.6 163 66.5 212 110-21.8-57.6-127-140-273-168-164-31.8-327-3.85-347 69.1-14.5 52.7 49.2 114 148 157-44.2-35.8-65.8-76.1-53.6-112z"/>
  <path d="m724 248v-66.6h-40.6v20.2c17.3 15.5 31 31.2 40.6 46.4z"/>
  <path d="m1215 363c0 12.3-9.63 21.9-22.2 21.9-12.4 0-22.3-9.63-22.3-21.9 0-12 9.89-21.6 22.3-21.6 12.5 0 22.2 9.63 22.2 21.6zm-38.9 0c0 9.63 7.12 17.3 16.9 17.3 9.49 0 16.5-7.65 16.5-17.1 0-9.63-6.99-17.4-16.6-17.4-9.62 0.01-16.7 7.79-16.7 17.3zm13.3 11.3h-5.01v-21.6c1.98-0.4 4.75-0.66 8.31-0.66 4.09 0 5.93 0.66 7.52 1.58 1.19 0.92 2.11 2.64 2.11 4.75 0 2.37-1.85 4.22-4.48 5.01v0.26c2.11 0.79 3.3 2.37 3.96 5.27 0.66 3.3 1.05 4.62 1.58 5.41h-5.41c-0.66-0.79-1.05-2.77-1.71-5.27-0.4-2.37-1.71-3.43-4.48-3.43h-2.37v8.71zm0.14-12.3h2.37c2.77 0 5.01-0.92 5.01-3.17 0-1.98-1.45-3.3-4.62-3.3-1.32 0-2.24 0.13-2.77 0.26v6.21z"/>
 </g>
</svg>
