<svg width="256" height="256" viewBox="0 0 256 256" fill="none" xmlns="http://www.w3.org/2000/svg">
  <defs>
    <linearGradient y2="0.14925" x2="1.16304" y1="0.8185" x1="0.34135" id="paint0_linear_364_527">
      <stop stop-color="#01A4FF"></stop>
      <stop stop-color="#01FFC2" offset="0.7917"></stop>
    </linearGradient>
  </defs>
  <rect width="256" height="256" rx="60" fill="#242938"></rect>
  <g transform="matrix(6.332013, 0, 0, 5.614745, 16.930426, 27.153242)" style="">
    <title>Layer 1</title>
    <path id="svg_1" fill="#006DA8" d="m17.71343,30.53834l-12.27796,0c-1.98753,0 -3.59874,-1.6112 -3.59874,-3.5988l0,-13.97174c0,-1.98754 1.61121,-3.59878 3.59874,-3.59878l17.57026,0l-5.2923,21.16932z"></path>
    <path id="svg_2" fill="#9F73FF" d="m17.80673,5.91834l12.278,0c1.9875,0 3.5987,1.61123 3.5987,3.59879l0,13.97171c0,1.9876 -1.6112,3.5988 -3.5987,3.5988l-17.5703,0l5.2923,-21.1693z"></path>
    <path id="svg_3" fill="url(#paint0_linear_364_527)" d="m17.80673,5.91834l12.278,0c1.9875,0 3.5987,1.61123 3.5987,3.59879l0,13.97171c0,1.9876 -1.6112,3.5988 -3.5987,3.5988l-17.5703,0l5.2923,-21.1693z"></path>
  </g>
</svg>