<svg width="256" height="256" viewBox="0 0 256 256" fill="none" xmlns="http://www.w3.org/2000/svg">
<g clip-path="url(#clip0_7_144)">
<path d="M157.281 0C157.281 0.451765 157.281 0.903529 157.281 1.38039C157.281 17.5937 144.138 30.7325 127.929 30.7325C111.716 30.7325 98.5767 17.5895 98.5767 1.38039C98.5767 0.903529 98.5767 0.451765 98.5767 0L0 0V256H256V0H157.281Z" fill="#654FF0"/>
<path d="M59.4656 137.96H76.4318L88.0146 199.647H88.2237L102.145 137.96H118.015L130.589 200.404H130.836L144.038 137.96H160.678L139.056 228.601H122.219L109.749 166.914H109.423L96.0752 228.601H78.9249L59.4656 137.96ZM179.806 137.96H206.553L233.115 228.601H215.613L209.836 208.431H179.367L174.908 228.601H157.862L179.806 137.96ZM189.988 160.301L182.588 193.556H205.62L197.124 160.301H189.988Z" fill="white"/>
</g>
<defs>
<clipPath id="clip0_7_144">
<rect width="256" height="256" rx="60" fill="white"/>
</clipPath>
</defs>
</svg>
