<svg width="256" height="256" viewBox="0 0 256 256" fill="none" xmlns="http://www.w3.org/2000/svg">
<rect width="256" height="256" rx="60" fill="#4353FF"/>
<path d="M169.105 103.436C169.105 103.436 155.29 146.718 154.269 150.393C153.861 146.786 143.789 69 143.789 69C120.242 69 107.72 85.7414 101.05 103.436C101.05 103.436 84.241 146.854 82.8799 150.461C82.8119 147.058 80.2938 103.844 80.2938 103.844C78.8647 82.1345 59.0609 69 43 69L62.3275 186.802C86.9632 186.734 100.234 170.061 107.175 152.299C107.175 152.299 121.943 113.984 122.556 112.283C122.692 113.916 133.172 186.802 133.172 186.802C157.876 186.802 171.215 171.218 178.36 154.136L213 69C188.568 69 175.706 85.6733 169.105 103.436Z" fill="white"/>
</svg>
