<svg width="256" height="256" viewBox="0 0 256 256" fill="none" xmlns="http://www.w3.org/2000/svg">
<g clip-path="url(#clip0_36_1180)">
<path d="M196 0H60C26.8629 0 0 26.8629 0 60V196C0 229.137 26.8629 256 60 256H196C229.137 256 256 229.137 256 196V60C256 26.8629 229.137 0 196 0Z" fill="#F4F2ED"/>
<g clip-path="url(#clip1_36_1180)">
<path d="M63.5 198.25L40 58.25L83.75 40.25L111.5 56.75L137 43L190.25 63.5L160.25 215L63.5 198.25Z" fill="url(#paint0_linear_36_1180)"/>
<path d="M215 99.25L192.5 43.5L151.5 40L88.25 100.75L105.25 179L137 201.5L215 155L195.75 119.25L215 99.25Z" fill="url(#paint1_linear_36_1180)"/>
<path d="M180 91L195.75 119.25L215 99.25L201 64.5L180 91Z" fill="url(#paint2_linear_36_1180)"/>
<path d="M181.5 73.5H73.5V181.5H181.5V73.5Z" fill="black"/>
<path d="M124.25 161.25H83.75V168H124.25V161.25Z" fill="white"/>
<path d="M136.75 125.75L142.5 118.75C146.5 122 150.75 124.25 155.75 124.25C159.75 124.25 162 122.75 162 120V119.75C162 117.25 160.5 116 153 114C144 111.75 138.5 109.25 138.5 100.25V100C138.5 91.75 145 86.5 154 86.5C160.5 86.5 166 88.5 170.5 92.25L165.5 99.75C161.5 97 157.75 95.25 154 95.25C150.25 95.25 148.25 97 148.25 99.25V99.5C148.25 102.5 150.25 103.5 157.75 105.5C166.75 108 171.75 111.25 171.75 119V119.25C171.75 128.25 165 133.25 155.5 133.25C148.75 133 142 130.5 136.75 125.75Z" fill="white"/>
<path d="M128 87.5L121.25 113.5L113.75 87.5H106.25L98.5 113.5L91.75 87.5H81.5L94.25 132.25H102.5L110 106.25L117.25 132.25H125.75L138.5 87.5H128Z" fill="white"/>
</g>
</g>
<defs>
<linearGradient id="paint0_linear_36_1180" x1="102.67" y1="43.6498" x2="147.957" y2="206.687" gradientUnits="userSpaceOnUse">
<stop offset="0.2849" stop-color="#00CDD7"/>
<stop offset="0.9409" stop-color="#2086D7"/>
</linearGradient>
<linearGradient id="paint1_linear_36_1180" x1="116.8" y1="64.3357" x2="193.413" y2="176.677" gradientUnits="userSpaceOnUse">
<stop offset="0.1398" stop-color="#FFF045"/>
<stop offset="0.3656" stop-color="#00CDD7"/>
</linearGradient>
<linearGradient id="paint2_linear_36_1180" x1="192.705" y1="78.225" x2="202.765" y2="113.86" gradientUnits="userSpaceOnUse">
<stop offset="0.2849" stop-color="#00CDD7"/>
<stop offset="0.9409" stop-color="#2086D7"/>
</linearGradient>
<clipPath id="clip0_36_1180">
<rect width="256" height="256" fill="white"/>
</clipPath>
<clipPath id="clip1_36_1180">
<rect width="175" height="175" fill="white" transform="translate(40 40)"/>
</clipPath>
</defs>
</svg>
