<svg width="256" height="256" viewBox="0 0 256 256" fill="none" xmlns="http://www.w3.org/2000/svg">
<rect width="256" height="256" rx="60" fill="#0073AA"/>
<path d="M42.214 127.994C42.214 161.949 61.9468 191.293 90.5609 205.199L49.641 93.083C44.8812 103.752 42.214 115.558 42.214 127.994Z" fill="white"/>
<path d="M185.908 123.666C185.908 113.064 182.1 105.722 178.834 100.007C174.485 92.9409 170.409 86.9569 170.409 79.8907C170.409 72.0051 176.39 64.6647 184.814 64.6647C185.195 64.6647 185.555 64.712 185.926 64.7332C170.664 50.751 150.331 42.2141 127.998 42.2141C98.0286 42.2141 71.6622 57.5903 56.3235 80.8799C58.3362 80.9403 60.2329 80.9827 61.844 80.9827C70.8167 80.9827 84.7059 79.894 84.7059 79.894C89.3302 79.6214 89.8753 86.4133 85.2559 86.9602C85.2559 86.9602 80.6088 87.507 75.4377 87.778L106.677 180.696L125.45 124.394L112.084 87.7747C107.465 87.5037 103.089 86.9569 103.089 86.9569C98.4661 86.6859 99.008 79.6181 103.631 79.8907C103.631 79.8907 117.797 80.9794 126.227 80.9794C135.198 80.9794 149.088 79.8907 149.088 79.8907C153.716 79.6181 154.26 86.4101 149.638 86.9569C149.638 86.9569 144.982 87.5037 139.82 87.7747L170.821 179.989L179.377 151.397C183.086 139.531 185.908 131.009 185.908 123.666Z" fill="white"/>
<path d="M129.503 135.498L103.765 210.288C111.449 212.547 119.577 213.783 127.998 213.783C137.987 213.783 147.567 212.056 156.484 208.92C156.254 208.553 156.045 208.163 155.874 207.738L129.503 135.498Z" fill="white"/>
<path d="M203.269 86.8374C203.638 89.5699 203.847 92.5031 203.847 95.6583C203.847 104.363 202.221 114.149 197.324 126.385L171.121 202.144C196.624 187.272 213.778 159.643 213.778 127.996C213.779 113.081 209.97 99.0568 203.269 86.8374Z" fill="white"/>
<path d="M127.998 28C72.8603 28 28 72.857 28 127.994C28 183.138 72.8603 227.993 127.998 227.993C183.133 227.993 228 183.138 228 127.994C227.998 72.857 183.133 28 127.998 28ZM127.998 223.41C75.3887 223.41 32.5851 180.606 32.5851 127.994C32.5851 75.3855 75.3871 32.5851 127.998 32.5851C180.605 32.5851 223.405 75.3855 223.405 127.994C223.405 180.606 180.605 223.41 127.998 223.41Z" fill="white"/>
</svg>
