<svg xmlns="http://www.w3.org/2000/svg" xmlns:xlink="http://www.w3.org/1999/xlink" width="256" zoomAndPan="magnify" viewBox="0 0 375 374.999991" height="256" preserveAspectRatio="xMidYMid meet" version="1.0">
<defs>
<clipPath id="f10b5bbb62">
<path d="M 75 0 L 300 0 C 341.421875 0 375 33.578125 375 75 L 375 304.027344 C 375 345.445312 341.421875 379.027344 300 379.027344 L 75 379.027344 C 33.578125 379.027344 0 345.445312 0 304.027344 L 0 75 C 0 33.578125 33.578125 0 75 0 " clip-rule="nonzero"/>
</clipPath>
<clipPath id="e2172d5c33">
<path d="M 31.164062 50 L 343.914062 50 L 343.914062 329 L 31.164062 329 Z M 31.164062 50 " clip-rule="nonzero"/>
</clipPath>
</defs>
<g clip-path="url(#f10b5bbb62)">
<path fill="#f4f2ec" d="M 0 0 L 374.414062 0 L 374.414062 379.6875 L 0 379.6875 Z M 0 0 " fill-opacity="1" fill-rule="nonzero"/>
</g>
<g clip-path="url(#e2172d5c33)">
<path fill="#3498db" d="M 121.40625 50.28125 C 112.957031 50.296875 104.691406 55.09375 100.4375 62.40625 L 34.304688 177.289062 C 30.117188 184.625 30.117188 194.210938 34.304688 201.542969 L 100.4375 316.425781 C 104.691406 323.742188 112.957031 328.539062 121.40625 328.554688 L 253.671875 328.554688 C 262.121094 328.535156 270.386719 323.742188 274.640625 316.425781 L 340.773438 201.542969 C 344.960938 194.210938 344.960938 184.625 340.773438 177.289062 L 274.640625 62.40625 C 270.386719 55.09375 262.121094 50.296875 253.671875 50.28125 Z M 122.605469 117.488281 C 122.789062 117.46875 122.976562 117.46875 123.160156 117.488281 L 145.972656 117.488281 C 146.488281 117.503906 146.96875 117.644531 147.410156 117.910156 C 147.855469 118.171875 148.207031 118.523438 148.46875 118.96875 L 187.171875 187.9375 C 187.367188 188.277344 187.488281 188.65625 187.535156 189.046875 C 187.585938 188.65625 187.710938 188.277344 187.90625 187.9375 L 226.515625 118.96875 C 226.785156 118.511719 227.152344 118.152344 227.613281 117.886719 C 228.074219 117.625 228.570312 117.492188 229.101562 117.488281 L 251.914062 117.488281 C 253.933594 117.503906 255.449219 120.050781 254.5 121.839844 L 216.722656 189.417969 L 254.5 256.902344 C 255.539062 258.703125 253.988281 261.363281 251.914062 261.347656 L 229.101562 261.347656 C 228.558594 261.335938 228.058594 261.1875 227.597656 260.90625 C 227.132812 260.625 226.773438 260.246094 226.515625 259.773438 L 187.90625 190.804688 C 187.710938 190.464844 187.585938 190.085938 187.539062 189.695312 C 187.488281 190.089844 187.367188 190.460938 187.171875 190.804688 L 148.46875 259.773438 C 148.21875 260.234375 147.871094 260.605469 147.425781 260.886719 C 146.984375 261.164062 146.5 261.320312 145.976562 261.347656 L 123.160156 261.347656 C 121.085938 261.363281 119.535156 258.703125 120.574219 256.902344 L 158.351562 189.417969 L 120.574219 121.839844 C 119.667969 120.207031 120.773438 117.835938 122.605469 117.488281 Z M 122.605469 117.488281 " fill-opacity="1" fill-rule="nonzero"/>
</g>
</svg>