<svg xmlns="http://www.w3.org/2000/svg" xmlns:xlink="http://www.w3.org/1999/xlink" width="256" zoomAndPan="magnify" viewBox="0 0 375 374.999991" height="256" preserveAspectRatio="xMidYMid meet" version="1.0">
<defs>
<clipPath id="dad63139de">
<path d="M 75 0 L 300 0 C 341.421875 0 375 33.578125 375 75 L 375 304.027344 C 375 345.445312 341.421875 379.027344 300 379.027344 L 75 379.027344 C 33.578125 379.027344 0 345.445312 0 304.027344 L 0 75 C 0 33.578125 33.578125 0 75 0 " clip-rule="nonzero"/>
</clipPath>
<clipPath id="5ce0ecf7a0">
<path d="M 18.933594 39 L 356.433594 39 L 356.433594 340 L 18.933594 340 Z M 18.933594 39 " clip-rule="nonzero"/>
</clipPath>
</defs>
<g clip-path="url(#dad63139de)">
<path fill="#242938" d="M 0 0 L 374.414062 0 L 374.414062 379.6875 L 0 379.6875 Z M 0 0 " fill-opacity="1" fill-rule="nonzero"/>
</g>
<g clip-path="url(#5ce0ecf7a0)">
<path fill="#3498db" d="M 116.3125 39.402344 C 107.199219 39.421875 98.277344 44.597656 93.6875 52.488281 L 22.320312 176.460938 C 17.800781 184.375 17.800781 194.722656 22.320312 202.636719 L 93.6875 326.609375 C 98.277344 334.503906 107.199219 339.679688 116.3125 339.699219 L 259.050781 339.699219 C 268.164062 339.679688 277.085938 334.503906 281.675781 326.609375 L 353.042969 202.636719 C 357.5625 194.722656 357.558594 184.375 353.042969 176.460938 L 281.675781 52.488281 C 277.085938 44.59375 268.164062 39.421875 259.050781 39.402344 Z M 117.609375 111.929688 C 117.804688 111.910156 118.011719 111.910156 118.207031 111.929688 L 142.828125 111.929688 C 143.382812 111.945312 143.902344 112.097656 144.378906 112.382812 C 144.855469 112.664062 145.238281 113.046875 145.519531 113.527344 L 187.285156 187.949219 C 187.496094 188.320312 187.628906 188.726562 187.679688 189.148438 C 187.730469 188.726562 187.867188 188.320312 188.078125 187.949219 L 229.742188 113.527344 C 230.035156 113.03125 230.429688 112.644531 230.925781 112.359375 C 231.421875 112.074219 231.960938 111.929688 232.53125 111.929688 L 257.152344 111.929688 C 259.332031 111.945312 260.964844 114.691406 259.945312 116.625 L 219.175781 189.550781 L 259.945312 262.375 C 261.0625 264.316406 259.390625 267.1875 257.152344 267.171875 L 232.53125 267.171875 C 231.949219 267.160156 231.40625 267 230.910156 266.695312 C 230.410156 266.394531 230.019531 265.984375 229.742188 265.472656 L 188.078125 191.046875 C 187.867188 190.679688 187.730469 190.269531 187.679688 189.847656 C 187.628906 190.277344 187.496094 190.675781 187.285156 191.046875 L 145.519531 265.472656 C 145.25 265.96875 144.875 266.371094 144.394531 266.671875 C 143.917969 266.976562 143.394531 267.140625 142.828125 267.171875 L 118.207031 267.171875 C 115.96875 267.191406 114.296875 264.316406 115.417969 262.375 L 156.183594 189.550781 L 115.417969 116.625 C 114.4375 114.863281 115.632812 112.304688 117.609375 111.929688 Z M 117.609375 111.929688 " fill-opacity="1" fill-rule="nonzero"/>
</g>
</svg>