<svg width="256" height="256" viewBox="0 0 256 256" fill="none" xmlns="http://www.w3.org/2000/svg">
<g clip-path="url(#clip0_151_177)">
<path d="M60 0H196C229.1 0 256 26.9 256 60V196C256 229.1 229.1 256 196 256H60C26.9 256 0 229.1 0 196V60C0 26.9 26.9 0 60 0Z" fill="#242938"/>
<path d="M73.3 29.9001H184.1C207.8 29.9001 227 49.1001 227 72.8001V183.6C227 207.3 207.8 226.5 184.1 226.5H73.3C49.6 226.5 30.4 207.3 30.4 183.6V72.8001C30.3 49.1001 49.6 29.9001 73.3 29.9001Z" fill="url(#paint0_linear_151_177)"/>
<path d="M180.7 40.5H76.6001C56.8001 40.5 40.7001 56.6 40.7001 76.4V180.5C40.7001 200.3 56.8001 216.4 76.6001 216.4H180.7C200.5 216.4 216.6 200.3 216.6 180.5V76.2C216.6 56.4 200.6 40.5 180.7 40.5ZM213.7 180.9C213.7 198.9 199.2 213.5 181.1 213.5H76.2001C58.4001 213.5 43.6001 199 43.6001 180.9V75.8C43.6001 57.8 58.1001 43.2 76.2001 43.2H181.3C199.1 43.2 213.9 57.7 213.9 75.8V180.9H213.7Z" fill="white"/>
<path d="M129 47.5C84.7001 47.5 48.6001 83.6 48.6001 127.9C48.6001 172.2 84.7001 208.3 129 208.3C173.5 208.3 209.4 172.2 209.4 127.9C209.4 83.6 173.3 47.5 129 47.5ZM129 207.2C85.3001 207.2 49.8001 171.7 49.8001 128C49.8001 84.3 85.3001 48.7 129 48.7C172.7 48.7 208.2 84.2 208.2 127.9C208.2 171.6 172.7 207.2 129 207.2Z" fill="#69C5F3"/>
<path d="M129 64C93.5 64 64.9 92.6 64.9 128.1C64.9 163.6 93.5 192 129 192C164.5 192 193.1 163.4 193.1 127.9C193.1 92.4 164.3 64 129 64ZM129 190.7C94.3 190.7 66.3 162.7 66.3 128C66.3 93.3 94.3 65.3 129 65.3C163.7 65.3 191.7 93.3 191.7 128C191.7 162.7 163.5 190.7 129 190.7Z" fill="#68C5F4"/>
<path d="M67.5683 142.668H189.968C195.068 142.668 198.968 146.768 198.968 151.668C198.968 156.768 194.868 160.668 189.968 160.668H67.5683C62.4683 160.668 58.5683 156.568 58.5683 151.668C58.3683 146.768 62.4683 142.668 67.5683 142.668Z" fill="white"/>
<path d="M67.1683 144.368H189.968C193.868 144.368 197.268 147.468 197.268 151.668V151.868C197.268 155.768 194.168 159.168 189.968 159.168H67.1683C63.2683 159.168 59.8683 156.068 59.8683 151.868V151.468C60.1683 147.568 63.2683 144.368 67.1683 144.368Z" fill="#0A93E9"/>
<path d="M64.2683 158.368H193.068L194.068 157.768H63.2683L64.2683 158.368Z" fill="#1694EA"/>
<path d="M61.3683 155.968H195.868L196.268 155.368H60.9683L61.3683 155.968Z" fill="#319DEC"/>
<path d="M60.1683 152.268H197.268V151.468H60.1683V152.268Z" fill="#65B1EE"/>
<path d="M61.5683 147.368H196.068L196.268 147.768L196.468 148.168H61.1683L61.3683 147.768L61.5683 147.368Z" fill="#8EC6F3"/>
<path d="M64.4683 144.968H193.068L193.668 145.168L194.268 145.568H63.2683L63.8683 145.168L64.4683 144.968Z" fill="#95CAF3"/>
<path d="M186.468 144.368H185.468C185.468 144.368 188.768 146.768 188.768 151.968C188.768 156.868 185.468 159.068 185.468 159.068H186.468C186.468 159.068 189.768 157.468 189.768 151.968C189.768 146.168 186.468 144.368 186.468 144.368Z" fill="url(#paint1_linear_151_177)"/>
<path d="M177.068 144.368H176.068C176.068 144.368 178.968 147.068 178.968 151.968C178.968 156.268 176.068 159.068 176.068 159.068H177.068C177.068 159.068 179.968 156.868 179.968 151.968C179.768 146.768 177.068 144.368 177.068 144.368Z" fill="url(#paint2_linear_151_177)"/>
<path d="M128.168 144.368H129.168V159.168H128.168V144.368Z" fill="url(#paint3_linear_151_177)"/>
<path d="M118.568 144.368H119.568C119.568 144.368 119.168 148.068 119.168 151.968C119.168 155.468 119.568 159.068 119.568 159.068H118.568C118.568 159.068 118.168 155.568 118.168 151.968C118.168 148.168 118.568 144.368 118.568 144.368Z" fill="url(#paint4_linear_151_177)"/>
<path d="M109.168 144.368H110.168C110.168 144.368 109.168 148.068 109.168 151.968C109.168 155.468 110.168 159.068 110.168 159.068H109.168C109.168 159.068 108.168 155.568 108.168 151.968C108.168 148.168 109.168 144.368 109.168 144.368Z" fill="url(#paint5_linear_151_177)"/>
<path d="M99.5682 144.368H100.568C100.568 144.368 99.1682 148.068 99.1682 151.968C99.1682 155.468 100.568 159.068 100.568 159.068H99.5682C99.5682 159.068 98.1682 155.568 98.1682 151.968C98.1682 148.168 99.5682 144.368 99.5682 144.368Z" fill="url(#paint6_linear_151_177)"/>
<path d="M89.9683 144.368H90.9683C90.9683 144.368 88.9683 147.468 88.9683 151.968C88.9683 155.868 90.9683 159.068 90.9683 159.068H89.9683C89.9683 159.068 87.9683 155.968 87.9683 151.968C87.9683 147.568 89.9683 144.368 89.9683 144.368Z" fill="url(#paint7_linear_151_177)"/>
<path d="M80.3683 144.368H81.3683C81.3683 144.368 78.4683 147.068 78.4683 151.968C78.4683 156.268 81.3683 159.068 81.3683 159.068H80.3683C80.3683 159.068 77.4683 156.868 77.4683 151.968C77.5683 146.768 80.3683 144.368 80.3683 144.368Z" fill="url(#paint8_linear_151_177)"/>
<path d="M70.9683 144.368H71.9683C71.9683 144.368 68.6683 146.768 68.6683 151.968C68.6683 156.868 71.9683 159.068 71.9683 159.068H70.9683C70.9683 159.068 67.6683 157.468 67.6683 151.968C67.5683 146.168 70.9683 144.368 70.9683 144.368Z" fill="url(#paint9_linear_151_177)"/>
<path d="M124.875 69.7024L186.075 175.602C188.575 179.902 187.075 185.402 182.775 188.002C178.475 190.502 172.975 189.002 170.375 184.702L109.175 78.7024C106.675 74.4024 108.175 68.9024 112.475 66.3024C116.775 63.7024 122.275 65.4024 124.875 69.7024Z" fill="white"/>
<path d="M123.275 70.5023L184.675 176.802C186.675 180.102 185.475 184.602 182.175 186.602L181.775 186.802C178.475 188.802 173.975 187.602 171.975 184.302L110.575 77.7023C108.575 74.4023 109.775 69.9023 113.075 67.9023L113.275 67.7023C116.775 65.8023 121.375 67.0023 123.275 70.5023Z" fill="url(#paint10_linear_151_177)"/>
<path d="M109.575 74.8023L173.875 186.402L174.275 186.602L174.675 186.802L175.075 187.002L109.575 73.6023V74.8023Z" fill="url(#paint11_linear_151_177)"/>
<path d="M110.175 71.1024L177.375 187.602H178.175L110.575 70.5024L110.375 70.9024L110.175 71.1024Z" fill="url(#paint12_linear_151_177)"/>
<path d="M112.875 68.1024L181.575 186.802L182.075 186.402L113.475 67.7024L112.875 68.1024Z" fill="url(#paint13_linear_151_177)"/>
<path d="M117.775 67.0025L184.875 183.202L184.675 183.602L184.475 184.002L116.775 66.8025H117.175L117.775 67.0025Z" fill="url(#paint14_linear_151_177)"/>
<path d="M121.375 68.1024L185.675 179.502V180.702L120.175 67.5024L120.575 67.7024L120.975 67.9024L121.375 68.1024Z" fill="url(#paint15_linear_151_177)"/>
<path d="M182.675 173.202L182.275 172.402C182.275 172.402 181.875 176.302 177.575 179.102C173.475 181.602 169.775 179.902 169.775 179.902L170.175 180.702C170.175 180.702 173.275 182.902 177.975 179.902C182.675 177.202 182.675 173.202 182.675 173.202ZM177.775 165.002L177.375 164.202C177.375 164.202 176.375 168.102 172.275 170.502C168.575 172.902 164.775 171.702 164.775 171.702L165.175 172.502C165.175 172.502 168.475 173.902 172.775 171.302C177.175 168.702 177.775 165.002 177.775 165.002Z" fill="#3C98EA"/>
<path d="M173.075 156.802L172.675 156.002C172.675 156.002 170.875 159.302 167.175 161.502C163.875 163.502 160.075 163.502 160.075 163.502L160.475 164.302C160.475 164.302 163.975 164.302 167.575 162.302C171.375 160.102 173.075 156.802 173.075 156.802Z" fill="#4CA4ED"/>
<path d="M168.375 148.502L167.975 147.702C167.975 147.702 165.475 151.002 162.075 152.802C158.975 154.602 155.175 155.202 155.175 155.202L155.575 156.002C155.575 156.002 159.275 155.402 162.475 153.602C165.675 151.902 168.375 148.502 168.375 148.502Z" fill="#4DA7EE"/>
<path d="M148.975 115.202L149.375 116.002C149.375 116.002 146.075 117.602 142.675 119.302C139.575 121.102 136.775 123.402 136.775 123.402L136.375 122.602C136.375 122.602 139.275 120.202 142.275 118.502C145.675 116.802 148.975 115.202 148.975 115.202Z" fill="url(#paint16_linear_151_177)"/>
<path d="M144.275 107.002L144.675 107.802C144.675 107.802 140.975 109.002 137.775 110.902C134.675 112.702 132.075 115.402 132.075 115.402L131.675 114.602C131.675 114.602 134.175 111.902 137.375 110.102C140.575 107.902 144.275 107.002 144.275 107.002Z" fill="url(#paint17_linear_151_177)"/>
<path d="M135.475 100.502C137.975 99.7024 139.975 99.3024 139.975 99.3024L139.575 98.5024C139.575 98.5024 137.775 98.7024 135.875 99.5024C134.675 99.9024 134.475 100.902 135.475 100.502Z" fill="#9DD4F7"/>
<path d="M129.975 82.3025L130.375 83.1025C130.375 83.1025 126.675 82.1025 122.375 84.5025C118.675 86.9025 117.875 90.6025 117.875 90.6025L117.475 89.8025C117.475 89.8025 117.875 86.5025 121.975 83.9025C126.275 81.1025 129.975 82.3025 129.975 82.3025Z" fill="url(#paint18_linear_151_177)"/>
<path d="M125.275 73.8023L125.875 74.6023C125.875 74.6023 121.975 73.0023 117.475 75.6023C113.075 78.3023 113.075 82.1023 113.075 82.1023L112.475 81.3023C112.475 81.3023 112.075 78.0023 116.775 75.0023C121.675 72.1023 125.275 73.8023 125.275 73.8023Z" fill="url(#paint19_linear_151_177)"/>
<path d="M112.128 142.658C129.128 113.258 148.828 79.1577 148.828 79.1577C151.328 74.8577 149.828 69.3577 145.528 66.7577C141.228 64.2577 135.728 65.7577 133.128 70.0577C133.128 70.0577 109.228 111.658 91.1284 142.658H112.128ZM101.528 160.658C93.3284 174.758 87.6284 184.958 87.6284 184.958C85.1284 189.258 79.6284 190.858 75.2284 188.258C70.9284 185.758 69.3284 180.258 71.9284 175.858C71.9284 175.858 75.2284 169.758 80.5284 160.758C87.2284 160.658 99.3284 160.658 101.528 160.658Z" fill="white"/>
<path d="M109.928 142.658C127.228 112.858 147.228 78.1577 147.228 78.1577C149.228 74.8577 148.028 70.3577 144.728 68.3577L144.528 68.1577C141.228 66.1577 136.728 67.3577 134.728 70.6577C134.728 70.6577 111.228 111.458 93.1284 142.658H109.928ZM99.5284 160.658C91.7284 174.458 86.0284 184.258 86.0284 184.258C84.0284 187.558 79.7284 188.758 76.2284 186.758H75.8284C72.5284 184.758 71.3284 180.458 73.3284 176.958C73.3284 176.958 77.0284 170.458 82.7284 160.658H99.5284Z" fill="url(#paint20_linear_151_177)"/>
<path d="M109.328 142.658L148.328 75.1578V73.9578C148.328 73.9578 126.728 111.458 108.728 142.558H109.328V142.658ZM98.8284 160.658L83.8284 186.558L83.2284 186.958L82.6284 187.158C82.6284 187.158 89.3284 175.558 97.9284 160.658H98.8284Z" fill="url(#paint21_linear_151_177)"/>
<path d="M106.428 142.658L147.628 71.4577L147.428 71.0577L147.228 70.6577C147.228 70.6577 124.628 109.658 105.828 142.458L106.428 142.658ZM96.0283 160.658L80.3283 187.758H79.5283C79.5283 187.758 86.2283 176.158 95.2283 160.458C95.6283 160.658 96.0283 160.658 96.0283 160.658Z" fill="url(#paint22_linear_151_177)"/>
<path d="M102.128 142.658C121.528 109.158 144.828 68.5577 144.828 68.5577L144.228 68.1577L101.128 142.658H102.128ZM91.5284 160.858C82.9284 175.958 76.4284 187.158 76.4284 187.158L75.8284 186.758C75.8284 186.758 82.1284 175.758 90.7284 160.858C91.1284 160.658 90.9284 160.658 91.5284 160.858Z" fill="url(#paint23_linear_151_177)"/>
<path d="M97.4285 142.658C116.828 109.158 140.928 67.1577 140.928 67.1577H140.128C140.128 67.1577 116.028 108.958 96.6285 142.658H97.4285ZM86.0285 160.658C78.2285 174.158 72.9285 183.358 72.9285 183.358L73.1285 183.758L73.3285 184.158C73.3285 184.158 79.0285 174.358 87.0285 160.658H86.0285Z" fill="url(#paint24_linear_151_177)"/>
<path d="M94.4283 142.658L137.628 67.9578L137.228 68.1578L136.828 68.3578L136.628 68.5578C136.628 68.5578 112.728 109.958 93.9283 142.658H94.4283ZM84.0283 160.658C77.1283 172.658 72.2283 181.058 72.2283 181.058V179.458C72.2283 179.458 76.5283 171.958 83.2283 160.458C83.7283 160.658 83.7283 160.658 84.0283 160.658Z" fill="url(#paint25_linear_151_177)"/>
<path d="M132.728 73.8578L132.328 74.6578C132.328 74.6578 135.828 72.8578 140.528 75.4578C144.828 77.8578 145.028 81.9578 145.028 81.9578L145.428 81.1578C145.428 81.1578 145.828 77.4578 140.928 74.6578C136.028 71.8578 132.728 73.8578 132.728 73.8578Z" fill="url(#paint26_linear_151_177)"/>
<path d="M128.028 82.2578L127.628 83.0578C127.628 83.0578 131.528 81.8578 135.628 84.2578C139.528 86.4578 140.328 90.1578 140.328 90.1578L140.728 89.3578C140.728 89.3578 140.328 85.8578 136.028 83.4578C131.528 80.8578 128.028 82.2578 128.028 82.2578Z" fill="url(#paint27_linear_151_177)"/>
<path d="M123.128 90.4578L122.728 91.2578C122.728 91.2578 126.228 91.0578 130.228 93.4578C133.728 95.4578 135.528 98.5578 135.528 98.5578L135.928 97.7578C135.928 97.7578 134.128 94.6578 130.628 92.6578C126.828 90.4578 123.128 90.4578 123.128 90.4578Z" fill="url(#paint28_linear_151_177)"/>
<path d="M118.428 98.9578L118.028 99.7578C118.028 99.7578 121.928 100.358 125.328 102.258C128.428 104.058 130.828 106.958 130.828 106.958L131.228 106.158C131.228 106.158 128.828 103.258 125.728 101.458C122.328 99.5578 118.428 98.9578 118.428 98.9578Z" fill="url(#paint29_linear_151_177)"/>
<path d="M113.528 107.158L113.128 107.958C113.128 107.958 116.828 108.958 120.228 110.858C123.328 112.658 125.928 115.158 125.928 115.158L126.328 114.358C126.328 114.358 123.828 111.858 120.628 110.058C117.428 108.358 113.528 107.158 113.528 107.158Z" fill="url(#paint30_linear_151_177)"/>
<path d="M108.828 115.358L108.228 116.158C108.228 116.158 111.728 117.558 115.128 119.458C118.228 121.258 121.028 123.358 121.028 123.358L121.428 122.558C121.428 122.558 118.728 120.358 115.528 118.658C112.328 116.958 108.828 115.358 108.828 115.358Z" fill="url(#paint31_linear_151_177)"/>
<path d="M103.528 124.658L103.928 123.858L116.628 131.058L116.228 131.858L103.528 124.658Z" fill="url(#paint32_linear_151_177)"/>
<path d="M98.8284 133.058L99.2284 132.258C99.2284 132.258 102.328 134.658 105.728 136.358C108.828 138.158 112.028 139.458 112.028 139.458L111.628 140.058C111.628 140.058 108.328 138.658 105.128 136.958C101.728 135.158 98.8284 133.058 98.8284 133.058Z" fill="url(#paint33_linear_151_177)"/>
<path d="M95.6283 142.658C94.6283 141.858 94.0283 141.258 94.0283 141.258L94.4283 140.458C94.4283 140.458 95.6283 141.458 97.1283 142.658H95.6283Z" fill="#73B9F1"/>
<path d="M88.0284 160.658C88.8284 161.258 89.6284 161.858 90.5284 162.458C94.0284 164.458 97.6284 164.258 97.6284 164.258L97.2284 165.058C97.2284 165.058 93.7284 165.258 90.1284 163.258C88.7284 162.458 87.6284 161.458 86.8284 160.758H88.0284V160.658Z" fill="url(#paint34_linear_151_177)"/>
<path d="M79.5283 166.158L79.9283 165.358C79.9283 165.358 80.9283 169.258 85.2283 171.658C89.1283 173.858 92.7283 172.658 92.7283 172.658L92.3283 173.458C92.3283 173.458 89.2283 174.858 84.8283 172.458C80.3283 169.958 79.5283 166.158 79.5283 166.158Z" fill="url(#paint35_linear_151_177)"/>
<path d="M74.6284 174.658L75.0284 173.858C75.0284 173.858 75.4284 177.958 80.1284 180.558C84.4284 182.958 87.7284 181.158 87.7284 181.158L87.1284 181.958C87.1284 181.958 84.2284 184.158 79.5284 181.358C74.6284 178.558 74.6284 174.658 74.6284 174.658Z" fill="url(#paint36_linear_151_177)"/>
<path d="M138.154 226.8L222.054 50.5L200.854 40.5L113.454 223.8C113.454 223.8 116.154 225.2 119.754 226.7H138.154V226.8Z" fill="url(#paint37_linear_151_177)"/>
<path d="M187.854 29.9001L227.054 48.5001V104.8C213.454 98.3001 122.854 55.2001 122.854 55.2001C122.854 55.2001 129.154 42.1001 135.054 29.9001H187.854Z" fill="url(#paint38_radial_151_177)"/>
<path d="M90.5537 218.9C89.9537 220.1 88.9537 221.4 89.1537 223.6C89.3537 231.6 102.454 239.1 110.154 239.1C115.454 239.1 117.254 236.9 119.154 233C121.154 229.1 92.6537 214.2 90.5537 218.9Z" fill="url(#paint39_radial_151_177)"/>
<path d="M180.954 52.1001C180.954 52.1001 201.154 57.0001 202.754 58.4001C204.354 59.8001 200.254 67.6001 199.454 68.8001C192.954 76.6001 172.754 120 172.754 120L154.154 109.4C154.154 109.4 170.854 78.4001 176.754 67.4001C180.354 59.9001 180.954 52.1001 180.954 52.1001Z" fill="url(#paint40_linear_151_177)"/>
<path d="M227.654 41.9C231.154 44.4 235.854 43.9 239.654 43.3C242.154 42.9 238.254 46.6 233.954 55.3C229.654 63.9 229.854 64.5 229.254 63.9C228.654 63.3 209.254 52.3 209.854 51.4C210.654 50.4 213.754 29 215.354 29.6C220.954 30.9 221.954 37.7 227.654 41.9Z" fill="url(#paint41_linear_151_177)"/>
<path d="M197.454 66C198.854 63.8 205.054 50.5 215.054 50.5C219.554 50.5 228.154 61.9 228.954 63.4C229.554 64.8 227.554 70.3 226.554 67.7C225.354 64.8 220.454 58.5 215.154 58.5C209.854 58.5 202.554 64.6 200.854 66.7C199.154 68.7 196.054 68.1 197.454 66Z" fill="url(#paint42_linear_151_177)"/>
<path d="M197.054 65.2001C198.054 63.6001 202.554 56.8001 204.654 54.6001C206.854 52.4001 212.254 46.8001 217.054 46.0001C221.754 45.2001 226.654 54.8001 225.054 56.8001C223.854 58.2001 221.954 56.6001 219.554 54.6001C217.154 52.8001 215.654 49.3001 208.154 55.0001C205.654 57.0001 203.054 58.5001 197.154 67.0001C195.654 69.1001 196.054 66.8001 197.054 65.2001Z" fill="url(#paint43_linear_151_177)"/>
<path d="M172.754 122.5C173.554 120.9 174.554 118.6 172.354 116.8C169.954 115 159.054 109.2 157.054 108.8C155.054 108.4 153.554 108.8 152.754 110.2C151.954 111.6 91.7537 214.7 90.5537 217.7C89.3537 220.6 89.1537 222.8 90.9537 223.4C92.7537 224 112.954 233.6 114.854 235.8C116.854 238 117.754 235.6 118.554 234.4C122.354 229.5 171.754 124 172.754 122.5Z" fill="url(#paint44_linear_151_177)"/>
<path d="M198.354 64.8001C199.354 63.4001 201.654 59.5001 204.654 56.0001C206.654 53.6001 217.254 48.5001 219.554 40.3001C220.954 35.8001 218.754 31.3001 215.854 29.3001C205.854 23.2001 188.554 13.6001 163.254 13.6001C146.154 13.6001 138.954 19.3001 138.954 19.3001H147.554L177.554 31.1001L181.254 46.8001C181.254 46.8001 181.654 52.1001 179.854 58.2001C178.654 63.1001 178.254 66.0001 176.554 70.9001C177.954 71.5001 181.054 69.3001 184.554 70.3001C187.654 71.1001 189.654 75.4001 191.854 72.8001C195.654 67.9001 196.854 67.0001 198.354 64.8001Z" fill="url(#paint45_linear_151_177)"/>
<path d="M180.754 52.6C179.154 38.1 175.654 24.4 138.754 24.6C141.154 22.2 146.754 19.9 146.754 19.9L138.754 19.3C138.754 19.3 139.954 18.3 142.254 18.1C163.854 16.3 183.054 20.8 181.654 48.9C181.554 53.4 181.154 55.4 180.754 52.6Z" fill="url(#paint46_linear_151_177)"/>
<path d="M138.754 24.6002C141.254 23.6002 144.854 23.0002 151.454 23.4002C159.654 23.8002 170.054 26.9002 174.354 30.9002C176.554 32.9002 176.354 31.3002 173.954 28.7002C167.854 21.6002 158.654 20.1002 146.654 19.9002C145.454 19.7002 140.954 22.2002 138.754 24.6002Z" fill="url(#paint47_linear_151_177)"/>
<path d="M239.954 43.2002L250.754 48.7002C250.754 48.7002 246.654 54.2002 243.254 60.5002C239.754 67.2002 237.354 74.4002 237.354 74.4002L226.954 68.1002C226.954 68.1002 229.454 61.0002 233.254 54.2002C236.254 48.5002 239.954 43.2002 239.954 43.2002Z" fill="url(#paint48_linear_151_177)"/>
<path d="M250.754 48.7002C251.554 49.1002 248.954 55.2002 245.254 62.2002C241.554 69.3002 237.954 74.7002 237.454 74.4002C236.654 74.0002 239.254 67.9002 242.954 60.9002C246.454 53.8002 249.954 48.3002 250.754 48.7002Z" fill="#BFC0D0"/>
<path d="M73.3 29.9001H184.1C207.8 29.9001 227 49.1001 227 72.8001V183.6C227 207.3 207.8 226.5 184.1 226.5H73.3C49.6 226.5 30.4 207.3 30.4 183.6V72.8001C30.3 49.1001 49.6 29.9001 73.3 29.9001Z" fill="url(#paint49_linear_151_177)"/>
<path d="M180.7 40.5H76.6001C56.8001 40.5 40.7001 56.6 40.7001 76.4V180.5C40.7001 200.3 56.8001 216.4 76.6001 216.4H180.7C200.5 216.4 216.6 200.3 216.6 180.5V76.2C216.6 56.4 200.6 40.5 180.7 40.5ZM213.7 180.9C213.7 198.9 199.2 213.5 181.1 213.5H76.2001C58.4001 213.5 43.6001 199 43.6001 180.9V75.8C43.6001 57.8 58.1001 43.2 76.2001 43.2H181.3C199.1 43.2 213.9 57.7 213.9 75.8V180.9H213.7Z" fill="white"/>
<path d="M129 47.5C84.7001 47.5 48.6001 83.6 48.6001 127.9C48.6001 172.2 84.7001 208.3 129 208.3C173.5 208.3 209.4 172.2 209.4 127.9C209.4 83.6 173.3 47.5 129 47.5ZM129 207.2C85.3001 207.2 49.8001 171.7 49.8001 128C49.8001 84.3 85.3001 48.7 129 48.7C172.7 48.7 208.2 84.2 208.2 127.9C208.2 171.6 172.7 207.2 129 207.2Z" fill="#69C5F3"/>
<path d="M129 64C93.5 64 64.9 92.6 64.9 128.1C64.9 163.6 93.5 192 129 192C164.5 192 193.1 163.4 193.1 127.9C193.1 92.4 164.3 64 129 64ZM129 190.7C94.3 190.7 66.3 162.7 66.3 128C66.3 93.3 94.3 65.3 129 65.3C163.7 65.3 191.7 93.3 191.7 128C191.7 162.7 163.5 190.7 129 190.7Z" fill="#68C5F4"/>
<path d="M67.5683 142.668H189.968C195.068 142.668 198.968 146.768 198.968 151.668C198.968 156.768 194.868 160.668 189.968 160.668H67.5683C62.4683 160.668 58.5683 156.568 58.5683 151.668C58.3683 146.768 62.4683 142.668 67.5683 142.668Z" fill="white"/>
<path d="M67.1683 144.368H189.968C193.868 144.368 197.268 147.468 197.268 151.668V151.868C197.268 155.768 194.168 159.168 189.968 159.168H67.1683C63.2683 159.168 59.8683 156.068 59.8683 151.868V151.468C60.1683 147.568 63.2683 144.368 67.1683 144.368Z" fill="#0A93E9"/>
<path d="M64.2683 158.368H193.068L194.068 157.768H63.2683L64.2683 158.368Z" fill="#1694EA"/>
<path d="M61.3683 155.968H195.868L196.268 155.368H60.9683L61.3683 155.968Z" fill="#319DEC"/>
<path d="M60.1683 152.268H197.268V151.468H60.1683V152.268Z" fill="#65B1EE"/>
<path d="M61.5683 147.368H196.068L196.268 147.768L196.468 148.168H61.1683L61.3683 147.768L61.5683 147.368Z" fill="#8EC6F3"/>
<path d="M64.4683 144.968H193.068L193.668 145.168L194.268 145.568H63.2683L63.8683 145.168L64.4683 144.968Z" fill="#95CAF3"/>
<path d="M186.468 144.368H185.468C185.468 144.368 188.768 146.768 188.768 151.968C188.768 156.868 185.468 159.068 185.468 159.068H186.468C186.468 159.068 189.768 157.468 189.768 151.968C189.768 146.168 186.468 144.368 186.468 144.368Z" fill="url(#paint50_linear_151_177)"/>
<path d="M177.068 144.368H176.068C176.068 144.368 178.968 147.068 178.968 151.968C178.968 156.268 176.068 159.068 176.068 159.068H177.068C177.068 159.068 179.968 156.868 179.968 151.968C179.768 146.768 177.068 144.368 177.068 144.368Z" fill="url(#paint51_linear_151_177)"/>
<path d="M128.168 144.368H129.168V159.168H128.168V144.368Z" fill="url(#paint52_linear_151_177)"/>
<path d="M118.568 144.368H119.568C119.568 144.368 119.168 148.068 119.168 151.968C119.168 155.468 119.568 159.068 119.568 159.068H118.568C118.568 159.068 118.168 155.568 118.168 151.968C118.168 148.168 118.568 144.368 118.568 144.368Z" fill="url(#paint53_linear_151_177)"/>
<path d="M109.168 144.368H110.168C110.168 144.368 109.168 148.068 109.168 151.968C109.168 155.468 110.168 159.068 110.168 159.068H109.168C109.168 159.068 108.168 155.568 108.168 151.968C108.168 148.168 109.168 144.368 109.168 144.368Z" fill="url(#paint54_linear_151_177)"/>
<path d="M99.5682 144.368H100.568C100.568 144.368 99.1682 148.068 99.1682 151.968C99.1682 155.468 100.568 159.068 100.568 159.068H99.5682C99.5682 159.068 98.1682 155.568 98.1682 151.968C98.1682 148.168 99.5682 144.368 99.5682 144.368Z" fill="url(#paint55_linear_151_177)"/>
<path d="M89.9683 144.368H90.9683C90.9683 144.368 88.9683 147.468 88.9683 151.968C88.9683 155.868 90.9683 159.068 90.9683 159.068H89.9683C89.9683 159.068 87.9683 155.968 87.9683 151.968C87.9683 147.568 89.9683 144.368 89.9683 144.368Z" fill="url(#paint56_linear_151_177)"/>
<path d="M80.3683 144.368H81.3683C81.3683 144.368 78.4683 147.068 78.4683 151.968C78.4683 156.268 81.3683 159.068 81.3683 159.068H80.3683C80.3683 159.068 77.4683 156.868 77.4683 151.968C77.5683 146.768 80.3683 144.368 80.3683 144.368Z" fill="url(#paint57_linear_151_177)"/>
<path d="M70.9683 144.368H71.9683C71.9683 144.368 68.6683 146.768 68.6683 151.968C68.6683 156.868 71.9683 159.068 71.9683 159.068H70.9683C70.9683 159.068 67.6683 157.468 67.6683 151.968C67.5683 146.168 70.9683 144.368 70.9683 144.368Z" fill="url(#paint58_linear_151_177)"/>
<path d="M124.875 69.7024L186.075 175.602C188.575 179.902 187.075 185.402 182.775 188.002C178.475 190.502 172.975 189.002 170.375 184.702L109.175 78.7024C106.675 74.4024 108.175 68.9024 112.475 66.3024C116.775 63.7024 122.275 65.4024 124.875 69.7024Z" fill="white"/>
<path d="M123.275 70.5023L184.675 176.802C186.675 180.102 185.475 184.602 182.175 186.602L181.775 186.802C178.475 188.802 173.975 187.602 171.975 184.302L110.575 77.7023C108.575 74.4023 109.775 69.9023 113.075 67.9023L113.275 67.7023C116.775 65.8023 121.375 67.0023 123.275 70.5023Z" fill="url(#paint59_linear_151_177)"/>
<path d="M109.575 74.8023L173.875 186.402L174.275 186.602L174.675 186.802L175.075 187.002L109.575 73.6023V74.8023Z" fill="url(#paint60_linear_151_177)"/>
<path d="M110.175 71.1024L177.375 187.602H178.175L110.575 70.5024L110.375 70.9024L110.175 71.1024Z" fill="url(#paint61_linear_151_177)"/>
<path d="M112.875 68.1024L181.575 186.802L182.075 186.402L113.475 67.7024L112.875 68.1024Z" fill="url(#paint62_linear_151_177)"/>
<path d="M117.775 67.0025L184.875 183.202L184.675 183.602L184.475 184.002L116.775 66.8025H117.175L117.775 67.0025Z" fill="url(#paint63_linear_151_177)"/>
<path d="M121.375 68.1024L185.675 179.502V180.702L120.175 67.5024L120.575 67.7024L120.975 67.9024L121.375 68.1024Z" fill="url(#paint64_linear_151_177)"/>
<path d="M182.675 173.202L182.275 172.402C182.275 172.402 181.875 176.302 177.575 179.102C173.475 181.602 169.775 179.902 169.775 179.902L170.175 180.702C170.175 180.702 173.275 182.902 177.975 179.902C182.675 177.202 182.675 173.202 182.675 173.202ZM177.775 165.002L177.375 164.202C177.375 164.202 176.375 168.102 172.275 170.502C168.575 172.902 164.775 171.702 164.775 171.702L165.175 172.502C165.175 172.502 168.475 173.902 172.775 171.302C177.175 168.702 177.775 165.002 177.775 165.002Z" fill="#3C98EA"/>
<path d="M173.075 156.802L172.675 156.002C172.675 156.002 170.875 159.302 167.175 161.502C163.875 163.502 160.075 163.502 160.075 163.502L160.475 164.302C160.475 164.302 163.975 164.302 167.575 162.302C171.375 160.102 173.075 156.802 173.075 156.802Z" fill="#4CA4ED"/>
<path d="M168.375 148.502L167.975 147.702C167.975 147.702 165.475 151.002 162.075 152.802C158.975 154.602 155.175 155.202 155.175 155.202L155.575 156.002C155.575 156.002 159.275 155.402 162.475 153.602C165.675 151.902 168.375 148.502 168.375 148.502Z" fill="#4DA7EE"/>
<path d="M148.975 115.202L149.375 116.002C149.375 116.002 146.075 117.602 142.675 119.302C139.575 121.102 136.775 123.402 136.775 123.402L136.375 122.602C136.375 122.602 139.275 120.202 142.275 118.502C145.675 116.802 148.975 115.202 148.975 115.202Z" fill="url(#paint65_linear_151_177)"/>
<path d="M144.275 107.002L144.675 107.802C144.675 107.802 140.975 109.002 137.775 110.902C134.675 112.702 132.075 115.402 132.075 115.402L131.675 114.602C131.675 114.602 134.175 111.902 137.375 110.102C140.575 107.902 144.275 107.002 144.275 107.002Z" fill="url(#paint66_linear_151_177)"/>
<path d="M135.475 100.502C137.975 99.7024 139.975 99.3024 139.975 99.3024L139.575 98.5024C139.575 98.5024 137.775 98.7024 135.875 99.5024C134.675 99.9024 134.475 100.902 135.475 100.502Z" fill="#9DD4F7"/>
<path d="M129.975 82.3025L130.375 83.1025C130.375 83.1025 126.675 82.1025 122.375 84.5025C118.675 86.9025 117.875 90.6025 117.875 90.6025L117.475 89.8025C117.475 89.8025 117.875 86.5025 121.975 83.9025C126.275 81.1025 129.975 82.3025 129.975 82.3025Z" fill="url(#paint67_linear_151_177)"/>
<path d="M125.275 73.8023L125.875 74.6023C125.875 74.6023 121.975 73.0023 117.475 75.6023C113.075 78.3023 113.075 82.1023 113.075 82.1023L112.475 81.3023C112.475 81.3023 112.075 78.0023 116.775 75.0023C121.675 72.1023 125.275 73.8023 125.275 73.8023Z" fill="url(#paint68_linear_151_177)"/>
<path d="M112.128 142.658C129.128 113.258 148.828 79.1577 148.828 79.1577C151.328 74.8577 149.828 69.3577 145.528 66.7577C141.228 64.2577 135.728 65.7577 133.128 70.0577C133.128 70.0577 109.228 111.658 91.1284 142.658H112.128ZM101.528 160.658C93.3284 174.758 87.6284 184.958 87.6284 184.958C85.1284 189.258 79.6284 190.858 75.2284 188.258C70.9284 185.758 69.3284 180.258 71.9284 175.858C71.9284 175.858 75.2284 169.758 80.5284 160.758C87.2284 160.658 99.3284 160.658 101.528 160.658Z" fill="white"/>
<path d="M109.928 142.658C127.228 112.858 147.228 78.1577 147.228 78.1577C149.228 74.8577 148.028 70.3577 144.728 68.3577L144.528 68.1577C141.228 66.1577 136.728 67.3577 134.728 70.6577C134.728 70.6577 111.228 111.458 93.1284 142.658H109.928ZM99.5284 160.658C91.7284 174.458 86.0284 184.258 86.0284 184.258C84.0284 187.558 79.7284 188.758 76.2284 186.758H75.8284C72.5284 184.758 71.3284 180.458 73.3284 176.958C73.3284 176.958 77.0284 170.458 82.7284 160.658H99.5284Z" fill="url(#paint69_linear_151_177)"/>
<path d="M109.328 142.658L148.328 75.1578V73.9578C148.328 73.9578 126.728 111.458 108.728 142.558H109.328V142.658ZM98.8284 160.658L83.8284 186.558L83.2284 186.958L82.6284 187.158C82.6284 187.158 89.3284 175.558 97.9284 160.658H98.8284Z" fill="url(#paint70_linear_151_177)"/>
<path d="M106.428 142.658L147.628 71.4577L147.428 71.0577L147.228 70.6577C147.228 70.6577 124.628 109.658 105.828 142.458L106.428 142.658ZM96.0283 160.658L80.3283 187.758H79.5283C79.5283 187.758 86.2283 176.158 95.2283 160.458C95.6283 160.658 96.0283 160.658 96.0283 160.658Z" fill="url(#paint71_linear_151_177)"/>
<path d="M102.128 142.658C121.528 109.158 144.828 68.5577 144.828 68.5577L144.228 68.1577L101.128 142.658H102.128ZM91.5284 160.858C82.9284 175.958 76.4284 187.158 76.4284 187.158L75.8284 186.758C75.8284 186.758 82.1284 175.758 90.7284 160.858C91.1284 160.658 90.9284 160.658 91.5284 160.858Z" fill="url(#paint72_linear_151_177)"/>
<path d="M97.4285 142.658C116.828 109.158 140.928 67.1577 140.928 67.1577H140.128C140.128 67.1577 116.028 108.958 96.6285 142.658H97.4285ZM86.0285 160.658C78.2285 174.158 72.9285 183.358 72.9285 183.358L73.1285 183.758L73.3285 184.158C73.3285 184.158 79.0285 174.358 87.0285 160.658H86.0285Z" fill="url(#paint73_linear_151_177)"/>
<path d="M94.4283 142.658L137.628 67.9578L137.228 68.1578L136.828 68.3578L136.628 68.5578C136.628 68.5578 112.728 109.958 93.9283 142.658H94.4283ZM84.0283 160.658C77.1283 172.658 72.2283 181.058 72.2283 181.058V179.458C72.2283 179.458 76.5283 171.958 83.2283 160.458C83.7283 160.658 83.7283 160.658 84.0283 160.658Z" fill="url(#paint74_linear_151_177)"/>
<path d="M132.728 73.8578L132.328 74.6578C132.328 74.6578 135.828 72.8578 140.528 75.4578C144.828 77.8578 145.028 81.9578 145.028 81.9578L145.428 81.1578C145.428 81.1578 145.828 77.4578 140.928 74.6578C136.028 71.8578 132.728 73.8578 132.728 73.8578Z" fill="url(#paint75_linear_151_177)"/>
<path d="M128.028 82.2578L127.628 83.0578C127.628 83.0578 131.528 81.8578 135.628 84.2578C139.528 86.4578 140.328 90.1578 140.328 90.1578L140.728 89.3578C140.728 89.3578 140.328 85.8578 136.028 83.4578C131.528 80.8578 128.028 82.2578 128.028 82.2578Z" fill="url(#paint76_linear_151_177)"/>
<path d="M123.128 90.4578L122.728 91.2578C122.728 91.2578 126.228 91.0578 130.228 93.4578C133.728 95.4578 135.528 98.5578 135.528 98.5578L135.928 97.7578C135.928 97.7578 134.128 94.6578 130.628 92.6578C126.828 90.4578 123.128 90.4578 123.128 90.4578Z" fill="url(#paint77_linear_151_177)"/>
<path d="M118.428 98.9578L118.028 99.7578C118.028 99.7578 121.928 100.358 125.328 102.258C128.428 104.058 130.828 106.958 130.828 106.958L131.228 106.158C131.228 106.158 128.828 103.258 125.728 101.458C122.328 99.5578 118.428 98.9578 118.428 98.9578Z" fill="url(#paint78_linear_151_177)"/>
<path d="M113.528 107.158L113.128 107.958C113.128 107.958 116.828 108.958 120.228 110.858C123.328 112.658 125.928 115.158 125.928 115.158L126.328 114.358C126.328 114.358 123.828 111.858 120.628 110.058C117.428 108.358 113.528 107.158 113.528 107.158Z" fill="url(#paint79_linear_151_177)"/>
<path d="M108.828 115.358L108.228 116.158C108.228 116.158 111.728 117.558 115.128 119.458C118.228 121.258 121.028 123.358 121.028 123.358L121.428 122.558C121.428 122.558 118.728 120.358 115.528 118.658C112.328 116.958 108.828 115.358 108.828 115.358Z" fill="url(#paint80_linear_151_177)"/>
<path d="M103.528 124.658L103.928 123.858L116.628 131.058L116.228 131.858L103.528 124.658Z" fill="url(#paint81_linear_151_177)"/>
<path d="M98.8284 133.058L99.2284 132.258C99.2284 132.258 102.328 134.658 105.728 136.358C108.828 138.158 112.028 139.458 112.028 139.458L111.628 140.058C111.628 140.058 108.328 138.658 105.128 136.958C101.728 135.158 98.8284 133.058 98.8284 133.058Z" fill="url(#paint82_linear_151_177)"/>
<path d="M95.6283 142.658C94.6283 141.858 94.0283 141.258 94.0283 141.258L94.4283 140.458C94.4283 140.458 95.6283 141.458 97.1283 142.658H95.6283Z" fill="#73B9F1"/>
<path d="M88.0284 160.658C88.8284 161.258 89.6284 161.858 90.5284 162.458C94.0284 164.458 97.6284 164.258 97.6284 164.258L97.2284 165.058C97.2284 165.058 93.7284 165.258 90.1284 163.258C88.7284 162.458 87.6284 161.458 86.8284 160.758H88.0284V160.658Z" fill="url(#paint83_linear_151_177)"/>
<path d="M79.5283 166.158L79.9283 165.358C79.9283 165.358 80.9283 169.258 85.2283 171.658C89.1283 173.858 92.7283 172.658 92.7283 172.658L92.3283 173.458C92.3283 173.458 89.2283 174.858 84.8283 172.458C80.3283 169.958 79.5283 166.158 79.5283 166.158Z" fill="url(#paint84_linear_151_177)"/>
<path d="M74.6284 174.658L75.0284 173.858C75.0284 173.858 75.4284 177.958 80.1284 180.558C84.4284 182.958 87.7284 181.158 87.7284 181.158L87.1284 181.958C87.1284 181.958 84.2284 184.158 79.5284 181.358C74.6284 178.558 74.6284 174.658 74.6284 174.658Z" fill="url(#paint85_linear_151_177)"/>
<path d="M138.154 226.8L222.054 50.5L200.854 40.5L113.454 223.8C113.454 223.8 116.154 225.2 119.754 226.7H138.154V226.8Z" fill="url(#paint86_linear_151_177)"/>
<path d="M187.854 29.9001L227.054 48.5001V104.8C213.454 98.3001 122.854 55.2001 122.854 55.2001C122.854 55.2001 129.154 42.1001 135.054 29.9001H187.854Z" fill="url(#paint87_radial_151_177)"/>
<path d="M90.5537 218.9C89.9537 220.1 88.9537 221.4 89.1537 223.6C89.3537 231.6 102.454 239.1 110.154 239.1C115.454 239.1 117.254 236.9 119.154 233C121.154 229.1 92.6537 214.2 90.5537 218.9Z" fill="url(#paint88_radial_151_177)"/>
<path d="M180.954 52.1001C180.954 52.1001 201.154 57.0001 202.754 58.4001C204.354 59.8001 200.254 67.6001 199.454 68.8001C192.954 76.6001 172.754 120 172.754 120L154.154 109.4C154.154 109.4 170.854 78.4001 176.754 67.4001C180.354 59.9001 180.954 52.1001 180.954 52.1001Z" fill="url(#paint89_linear_151_177)"/>
<path d="M227.654 41.9C231.154 44.4 235.854 43.9 239.654 43.3C242.154 42.9 238.254 46.6 233.954 55.3C229.654 63.9 229.854 64.5 229.254 63.9C228.654 63.3 209.254 52.3 209.854 51.4C210.654 50.4 213.754 29 215.354 29.6C220.954 30.9 221.954 37.7 227.654 41.9Z" fill="url(#paint90_linear_151_177)"/>
<path d="M197.454 66C198.854 63.8 205.054 50.5 215.054 50.5C219.554 50.5 228.154 61.9 228.954 63.4C229.554 64.8 227.554 70.3 226.554 67.7C225.354 64.8 220.454 58.5 215.154 58.5C209.854 58.5 202.554 64.6 200.854 66.7C199.154 68.7 196.054 68.1 197.454 66Z" fill="url(#paint91_linear_151_177)"/>
<path d="M197.054 65.2001C198.054 63.6001 202.554 56.8001 204.654 54.6001C206.854 52.4001 212.254 46.8001 217.054 46.0001C221.754 45.2001 226.654 54.8001 225.054 56.8001C223.854 58.2001 221.954 56.6001 219.554 54.6001C217.154 52.8001 215.654 49.3001 208.154 55.0001C205.654 57.0001 203.054 58.5001 197.154 67.0001C195.654 69.1001 196.054 66.8001 197.054 65.2001Z" fill="url(#paint92_linear_151_177)"/>
<path d="M172.754 122.5C173.554 120.9 174.554 118.6 172.354 116.8C169.954 115 159.054 109.2 157.054 108.8C155.054 108.4 153.554 108.8 152.754 110.2C151.954 111.6 91.7537 214.7 90.5537 217.7C89.3537 220.6 89.1537 222.8 90.9537 223.4C92.7537 224 112.954 233.6 114.854 235.8C116.854 238 117.754 235.6 118.554 234.4C122.354 229.5 171.754 124 172.754 122.5Z" fill="url(#paint93_linear_151_177)"/>
<path d="M198.354 64.8001C199.354 63.4001 201.654 59.5001 204.654 56.0001C206.654 53.6001 217.254 48.5001 219.554 40.3001C220.954 35.8001 218.754 31.3001 215.854 29.3001C205.854 23.2001 188.554 13.6001 163.254 13.6001C146.154 13.6001 138.954 19.3001 138.954 19.3001H147.554L177.554 31.1001L181.254 46.8001C181.254 46.8001 181.654 52.1001 179.854 58.2001C178.654 63.1001 178.254 66.0001 176.554 70.9001C177.954 71.5001 181.054 69.3001 184.554 70.3001C187.654 71.1001 189.654 75.4001 191.854 72.8001C195.654 67.9001 196.854 67.0001 198.354 64.8001Z" fill="url(#paint94_linear_151_177)"/>
<path d="M180.754 52.6C179.154 38.1 175.654 24.4 138.754 24.6C141.154 22.2 146.754 19.9 146.754 19.9L138.754 19.3C138.754 19.3 139.954 18.3 142.254 18.1C163.854 16.3 183.054 20.8 181.654 48.9C181.554 53.4 181.154 55.4 180.754 52.6Z" fill="url(#paint95_linear_151_177)"/>
<path d="M138.754 24.6002C141.254 23.6002 144.854 23.0002 151.454 23.4002C159.654 23.8002 170.054 26.9002 174.354 30.9002C176.554 32.9002 176.354 31.3002 173.954 28.7002C167.854 21.6002 158.654 20.1002 146.654 19.9002C145.454 19.7002 140.954 22.2002 138.754 24.6002Z" fill="url(#paint96_linear_151_177)"/>
<path d="M239.954 43.2002L250.754 48.7002C250.754 48.7002 246.654 54.2002 243.254 60.5002C239.754 67.2002 237.354 74.4002 237.354 74.4002L226.954 68.1002C226.954 68.1002 229.454 61.0002 233.254 54.2002C236.254 48.5002 239.954 43.2002 239.954 43.2002Z" fill="url(#paint97_linear_151_177)"/>
<path d="M250.754 48.7002C251.554 49.1002 248.954 55.2002 245.254 62.2002C241.554 69.3002 237.954 74.7002 237.454 74.4002C236.654 74.0002 239.254 67.9002 242.954 60.9002C246.454 53.8002 249.954 48.3002 250.754 48.7002Z" fill="#BFC0D0"/>
</g>
<defs>
<linearGradient id="paint0_linear_151_177" x1="128.688" y1="226.606" x2="128.688" y2="29.9078" gradientUnits="userSpaceOnUse">
<stop stop-color="#1578E4"/>
<stop offset="1" stop-color="#00C3F2"/>
</linearGradient>
<linearGradient id="paint1_linear_151_177" x1="187.614" y1="159.068" x2="187.614" y2="144.396" gradientUnits="userSpaceOnUse">
<stop stop-color="#1492E7"/>
<stop offset="1" stop-color="#DBEDFB"/>
</linearGradient>
<linearGradient id="paint2_linear_151_177" x1="178.004" y1="159.068" x2="178.004" y2="144.396" gradientUnits="userSpaceOnUse">
<stop stop-color="#1492E7"/>
<stop offset="1" stop-color="#DBEDFB"/>
</linearGradient>
<linearGradient id="paint3_linear_151_177" x1="128.684" y1="159.068" x2="128.684" y2="144.396" gradientUnits="userSpaceOnUse">
<stop stop-color="#1492E7"/>
<stop offset="1" stop-color="#DBEDFB"/>
</linearGradient>
<linearGradient id="paint4_linear_151_177" x1="118.88" y1="159.068" x2="118.88" y2="144.396" gradientUnits="userSpaceOnUse">
<stop stop-color="#1492E7"/>
<stop offset="1" stop-color="#DBEDFB"/>
</linearGradient>
<linearGradient id="paint5_linear_151_177" x1="109.174" y1="159.068" x2="109.174" y2="144.396" gradientUnits="userSpaceOnUse">
<stop stop-color="#1492E7"/>
<stop offset="1" stop-color="#DBEDFB"/>
</linearGradient>
<linearGradient id="paint6_linear_151_177" x1="99.3705" y1="159.068" x2="99.3705" y2="144.396" gradientUnits="userSpaceOnUse">
<stop stop-color="#1492E7"/>
<stop offset="1" stop-color="#DBEDFB"/>
</linearGradient>
<linearGradient id="paint7_linear_151_177" x1="89.4653" y1="159.068" x2="89.4653" y2="144.396" gradientUnits="userSpaceOnUse">
<stop stop-color="#1492E7"/>
<stop offset="1" stop-color="#DBEDFB"/>
</linearGradient>
<linearGradient id="paint8_linear_151_177" x1="79.3686" y1="159.068" x2="79.3686" y2="144.396" gradientUnits="userSpaceOnUse">
<stop stop-color="#1492E7"/>
<stop offset="1" stop-color="#DBEDFB"/>
</linearGradient>
<linearGradient id="paint9_linear_151_177" x1="69.7609" y1="159.068" x2="69.7609" y2="144.396" gradientUnits="userSpaceOnUse">
<stop stop-color="#1492E7"/>
<stop offset="1" stop-color="#DBEDFB"/>
</linearGradient>
<linearGradient id="paint10_linear_151_177" x1="147.609" y1="187.719" x2="147.609" y2="66.7837" gradientUnits="userSpaceOnUse">
<stop stop-color="#1285E7"/>
<stop offset="1" stop-color="#00B5EF"/>
</linearGradient>
<linearGradient id="paint11_linear_151_177" x1="153.163" y1="187.117" x2="98.5917" y2="92.6132" gradientUnits="userSpaceOnUse">
<stop stop-color="#2B90E7"/>
<stop offset="1" stop-color="#00B6EF"/>
</linearGradient>
<linearGradient id="paint12_linear_151_177" x1="155.582" y1="187.805" x2="99.144" y2="90.051" gradientUnits="userSpaceOnUse">
<stop stop-color="#3795EA"/>
<stop offset="1" stop-color="#49C4F2"/>
</linearGradient>
<linearGradient id="paint13_linear_151_177" x1="159.1" y1="186.642" x2="101.901" y2="87.5767" gradientUnits="userSpaceOnUse">
<stop stop-color="#3696EA"/>
<stop offset="1" stop-color="#90D9F6"/>
</linearGradient>
<linearGradient id="paint14_linear_151_177" x1="162.294" y1="183.886" x2="105.826" y2="86.0978" gradientUnits="userSpaceOnUse">
<stop stop-color="#3097EA"/>
<stop offset="1" stop-color="#B5E5F9"/>
</linearGradient>
<linearGradient id="paint15_linear_151_177" x1="163.956" y1="180.642" x2="109.44" y2="86.2216" gradientUnits="userSpaceOnUse">
<stop stop-color="#3A98EA"/>
<stop offset="1" stop-color="#BCE7FA"/>
</linearGradient>
<linearGradient id="paint16_linear_151_177" x1="136.607" y1="120.777" x2="147.416" y2="114.536" gradientUnits="userSpaceOnUse">
<stop stop-color="#00A4EC"/>
<stop offset="1" stop-color="#B9DFF6"/>
</linearGradient>
<linearGradient id="paint17_linear_151_177" x1="131.812" y1="112.737" x2="142.682" y2="106.462" gradientUnits="userSpaceOnUse">
<stop stop-color="#00A4EC"/>
<stop offset="1" stop-color="#B9DFF6"/>
</linearGradient>
<linearGradient id="paint18_linear_151_177" x1="117.008" y1="87.5367" x2="127.828" y2="81.2913" gradientUnits="userSpaceOnUse">
<stop stop-color="#00B4EF"/>
<stop offset="1" stop-color="#C3E9FA"/>
</linearGradient>
<linearGradient id="paint19_linear_151_177" x1="112.061" y1="78.9723" x2="122.954" y2="72.6825" gradientUnits="userSpaceOnUse">
<stop stop-color="#00B4EF"/>
<stop offset="1" stop-color="#C3E9FA"/>
</linearGradient>
<linearGradient id="paint20_linear_151_177" x1="110.251" y1="187.963" x2="110.251" y2="67.1612" gradientUnits="userSpaceOnUse">
<stop stop-color="#1285E7"/>
<stop offset="1" stop-color="#00B5EF"/>
</linearGradient>
<linearGradient id="paint21_linear_151_177" x1="104.6" y1="187.421" x2="159.213" y2="92.8347" gradientUnits="userSpaceOnUse">
<stop stop-color="#3194E9"/>
<stop offset="1" stop-color="#71CFF4"/>
</linearGradient>
<linearGradient id="paint22_linear_151_177" x1="102.175" y1="188.1" x2="158.628" y2="90.3418" gradientUnits="userSpaceOnUse">
<stop stop-color="#5AA6EC"/>
<stop offset="1" stop-color="#A2DEF8"/>
</linearGradient>
<linearGradient id="paint23_linear_151_177" x1="98.8389" y1="186.959" x2="156.009" y2="87.9374" gradientUnits="userSpaceOnUse">
<stop stop-color="#66ABEE"/>
<stop offset="1" stop-color="#BEE8FA"/>
</linearGradient>
<linearGradient id="paint24_linear_151_177" x1="95.4313" y1="184.165" x2="151.922" y2="86.3538" gradientUnits="userSpaceOnUse">
<stop stop-color="#7BB6F0"/>
<stop offset="1" stop-color="#B1E3F9"/>
</linearGradient>
<linearGradient id="paint25_linear_151_177" x1="93.9487" y1="180.989" x2="148.449" y2="86.5749" gradientUnits="userSpaceOnUse">
<stop stop-color="#5AA6EC"/>
<stop offset="1" stop-color="#AFE3F9"/>
</linearGradient>
<linearGradient id="paint26_linear_151_177" x1="133.347" y1="75.5765" x2="144.268" y2="81.8821" gradientUnits="userSpaceOnUse">
<stop stop-color="#C1E7FA"/>
<stop offset="1" stop-color="#89D4F5"/>
</linearGradient>
<linearGradient id="paint27_linear_151_177" x1="128.43" y1="84.2954" x2="139.196" y2="90.5102" gradientUnits="userSpaceOnUse">
<stop stop-color="#C1E7FA"/>
<stop offset="1" stop-color="#89D4F5"/>
</linearGradient>
<linearGradient id="paint28_linear_151_177" x1="123.301" y1="93.0862" x2="134.014" y2="99.2696" gradientUnits="userSpaceOnUse">
<stop stop-color="#C1E7FA"/>
<stop offset="1" stop-color="#89D4F5"/>
</linearGradient>
<linearGradient id="paint29_linear_151_177" x1="118.358" y1="101.575" x2="129.069" y2="107.76" gradientUnits="userSpaceOnUse">
<stop stop-color="#B0DFF8"/>
<stop offset="1" stop-color="#52BDF2"/>
</linearGradient>
<linearGradient id="paint30_linear_151_177" x1="113.486" y1="109.83" x2="124.201" y2="116.017" gradientUnits="userSpaceOnUse">
<stop stop-color="#B4DEF8"/>
<stop offset="1" stop-color="#4EB5F0"/>
</linearGradient>
<linearGradient id="paint31_linear_151_177" x1="108.633" y1="118.056" x2="119.345" y2="124.24" gradientUnits="userSpaceOnUse">
<stop stop-color="#B4DEF8"/>
<stop offset="1" stop-color="#4EB5F0"/>
</linearGradient>
<linearGradient id="paint32_linear_151_177" x1="103.753" y1="126.472" x2="114.464" y2="132.655" gradientUnits="userSpaceOnUse">
<stop stop-color="#B5DDF8"/>
<stop offset="1" stop-color="#46AEEE"/>
</linearGradient>
<linearGradient id="paint33_linear_151_177" x1="98.8943" y1="134.868" x2="109.552" y2="141.02" gradientUnits="userSpaceOnUse">
<stop stop-color="#96CEF4"/>
<stop offset="1" stop-color="#46AAEE"/>
</linearGradient>
<linearGradient id="paint34_linear_151_177" x1="87.0616" y1="162.364" x2="94.7504" y2="166.802" gradientUnits="userSpaceOnUse">
<stop stop-color="#8FC1F2"/>
<stop offset="1" stop-color="#3193EA"/>
</linearGradient>
<linearGradient id="paint35_linear_151_177" x1="79.1367" y1="168.373" x2="89.9723" y2="174.627" gradientUnits="userSpaceOnUse">
<stop stop-color="#8FC1F2"/>
<stop offset="1" stop-color="#3193EA"/>
</linearGradient>
<linearGradient id="paint36_linear_151_177" x1="74.1557" y1="176.946" x2="85.1177" y2="183.274" gradientUnits="userSpaceOnUse">
<stop stop-color="#8FC1F2"/>
<stop offset="1" stop-color="#3193EA"/>
</linearGradient>
<linearGradient id="paint37_linear_151_177" x1="162.987" y1="130.23" x2="174.375" y2="135.781" gradientUnits="userSpaceOnUse">
<stop offset="0.001"/>
<stop offset="1" stop-opacity="0"/>
</linearGradient>
<radialGradient id="paint38_radial_151_177" cx="0" cy="0" r="1" gradientUnits="userSpaceOnUse" gradientTransform="translate(190.059 52.1314) rotate(116.706) scale(31.7271 31.7271)">
<stop/>
<stop offset="1" stop-opacity="0"/>
</radialGradient>
<radialGradient id="paint39_radial_151_177" cx="0" cy="0" r="1" gradientUnits="userSpaceOnUse" gradientTransform="translate(103.727 228.278) rotate(26.1167) scale(15.4713 15.4713)">
<stop offset="0.417" stop-color="#0C0C12"/>
<stop offset="1" stop-color="#3D4651"/>
</radialGradient>
<linearGradient id="paint40_linear_151_177" x1="173.939" y1="79.4542" x2="185.807" y2="85.5036" gradientUnits="userSpaceOnUse">
<stop stop-color="#344351"/>
<stop offset="0.1" stop-color="#9697A0"/>
<stop offset="0.181" stop-color="#8B8C95"/>
<stop offset="0.351" stop-color="#787A83"/>
<stop offset="0.47" stop-color="#71747D"/>
<stop offset="0.591" stop-color="#777982"/>
<stop offset="0.749" stop-color="#87898F"/>
<stop offset="0.8" stop-color="#8E8F94"/>
<stop offset="0.849" stop-color="#3D3B42"/>
<stop offset="0.9" stop-color="#606E84"/>
</linearGradient>
<linearGradient id="paint41_linear_151_177" x1="232.515" y1="60.1884" x2="212.521" y2="33.1723" gradientUnits="userSpaceOnUse">
<stop offset="0.27" stop-color="#262B33"/>
<stop offset="0.45" stop-color="#74747E"/>
<stop offset="0.54" stop-color="#B0B0BC"/>
<stop offset="0.73" stop-color="#74747E"/>
</linearGradient>
<linearGradient id="paint42_linear_151_177" x1="196.525" y1="60.4376" x2="228.078" y2="56.3677" gradientUnits="userSpaceOnUse">
<stop offset="0.14" stop-color="#606E84"/>
<stop offset="0.4" stop-color="#9899A5"/>
<stop offset="0.73" stop-color="#475768"/>
<stop offset="0.92" stop-color="#262B33"/>
</linearGradient>
<linearGradient id="paint43_linear_151_177" x1="210.889" y1="61.648" x2="209.108" y2="51.543" gradientUnits="userSpaceOnUse">
<stop stop-color="#101215" stop-opacity="0.1"/>
<stop offset="0.46" stop-color="#101215" stop-opacity="0.7"/>
<stop offset="0.7" stop-color="#474951"/>
<stop offset="0.91" stop-color="#7B7D88"/>
</linearGradient>
<linearGradient id="paint44_linear_151_177" x1="125.432" y1="163.1" x2="141.488" y2="171.004" gradientUnits="userSpaceOnUse">
<stop offset="0.115" stop-color="#2C3952"/>
<stop offset="0.374" stop-color="#3D414E"/>
<stop offset="0.55" stop-color="#474A54"/>
<stop offset="0.754" stop-color="#4E5057"/>
<stop offset="0.892" stop-color="#323945"/>
<stop offset="1" stop-color="#143052"/>
</linearGradient>
<linearGradient id="paint45_linear_151_177" x1="160.039" y1="53.9342" x2="174.389" y2="22.4533" gradientUnits="userSpaceOnUse">
<stop offset="0.118" stop-color="#6D7078" stop-opacity="0"/>
<stop offset="0.2" stop-color="#6D7078" stop-opacity="0.7"/>
<stop offset="0.34" stop-color="#35363A"/>
<stop offset="0.374" stop-color="#1D1F22"/>
<stop offset="0.4" stop-color="#101215"/>
<stop offset="0.5" stop-color="#16171A"/>
<stop offset="0.56" stop-color="#292A2E"/>
<stop offset="0.688" stop-color="#4B4D51"/>
<stop offset="0.807" stop-color="#63666B"/>
<stop offset="0.915" stop-color="#72757B"/>
<stop offset="1" stop-color="#777A80"/>
</linearGradient>
<linearGradient id="paint46_linear_151_177" x1="138.713" y1="35.8677" x2="181.78" y2="35.8677" gradientUnits="userSpaceOnUse">
<stop stop-color="#4A4D56"/>
<stop offset="1" stop-color="#29292D"/>
</linearGradient>
<linearGradient id="paint47_linear_151_177" x1="138.717" y1="25.8417" x2="175.954" y2="25.8417" gradientUnits="userSpaceOnUse">
<stop stop-color="#767880"/>
<stop offset="0.41" stop-color="#0C0A0B"/>
</linearGradient>
<linearGradient id="paint48_linear_151_177" x1="234.663" y1="71.0497" x2="247.603" y2="48.638" gradientUnits="userSpaceOnUse">
<stop stop-color="#858997"/>
<stop offset="0.23" stop-color="#244668"/>
<stop offset="0.282" stop-color="#1A3249"/>
<stop offset="0.4" stop-color="#040506"/>
<stop offset="0.464" stop-color="#313236"/>
<stop offset="0.546" stop-color="#65656E"/>
<stop offset="0.607" stop-color="#868691"/>
<stop offset="0.64" stop-color="#92929E"/>
</linearGradient>
<linearGradient id="paint49_linear_151_177" x1="128.688" y1="226.606" x2="128.688" y2="29.9078" gradientUnits="userSpaceOnUse">
<stop stop-color="#1578E4"/>
<stop offset="1" stop-color="#00C3F2"/>
</linearGradient>
<linearGradient id="paint50_linear_151_177" x1="187.614" y1="159.068" x2="187.614" y2="144.396" gradientUnits="userSpaceOnUse">
<stop stop-color="#1492E7"/>
<stop offset="1" stop-color="#DBEDFB"/>
</linearGradient>
<linearGradient id="paint51_linear_151_177" x1="178.004" y1="159.068" x2="178.004" y2="144.396" gradientUnits="userSpaceOnUse">
<stop stop-color="#1492E7"/>
<stop offset="1" stop-color="#DBEDFB"/>
</linearGradient>
<linearGradient id="paint52_linear_151_177" x1="128.684" y1="159.068" x2="128.684" y2="144.396" gradientUnits="userSpaceOnUse">
<stop stop-color="#1492E7"/>
<stop offset="1" stop-color="#DBEDFB"/>
</linearGradient>
<linearGradient id="paint53_linear_151_177" x1="118.88" y1="159.068" x2="118.88" y2="144.396" gradientUnits="userSpaceOnUse">
<stop stop-color="#1492E7"/>
<stop offset="1" stop-color="#DBEDFB"/>
</linearGradient>
<linearGradient id="paint54_linear_151_177" x1="109.174" y1="159.068" x2="109.174" y2="144.396" gradientUnits="userSpaceOnUse">
<stop stop-color="#1492E7"/>
<stop offset="1" stop-color="#DBEDFB"/>
</linearGradient>
<linearGradient id="paint55_linear_151_177" x1="99.3705" y1="159.068" x2="99.3705" y2="144.396" gradientUnits="userSpaceOnUse">
<stop stop-color="#1492E7"/>
<stop offset="1" stop-color="#DBEDFB"/>
</linearGradient>
<linearGradient id="paint56_linear_151_177" x1="89.4653" y1="159.068" x2="89.4653" y2="144.396" gradientUnits="userSpaceOnUse">
<stop stop-color="#1492E7"/>
<stop offset="1" stop-color="#DBEDFB"/>
</linearGradient>
<linearGradient id="paint57_linear_151_177" x1="79.3686" y1="159.068" x2="79.3686" y2="144.396" gradientUnits="userSpaceOnUse">
<stop stop-color="#1492E7"/>
<stop offset="1" stop-color="#DBEDFB"/>
</linearGradient>
<linearGradient id="paint58_linear_151_177" x1="69.7609" y1="159.068" x2="69.7609" y2="144.396" gradientUnits="userSpaceOnUse">
<stop stop-color="#1492E7"/>
<stop offset="1" stop-color="#DBEDFB"/>
</linearGradient>
<linearGradient id="paint59_linear_151_177" x1="147.609" y1="187.719" x2="147.609" y2="66.7837" gradientUnits="userSpaceOnUse">
<stop stop-color="#1285E7"/>
<stop offset="1" stop-color="#00B5EF"/>
</linearGradient>
<linearGradient id="paint60_linear_151_177" x1="153.163" y1="187.117" x2="98.5917" y2="92.6132" gradientUnits="userSpaceOnUse">
<stop stop-color="#2B90E7"/>
<stop offset="1" stop-color="#00B6EF"/>
</linearGradient>
<linearGradient id="paint61_linear_151_177" x1="155.582" y1="187.805" x2="99.144" y2="90.051" gradientUnits="userSpaceOnUse">
<stop stop-color="#3795EA"/>
<stop offset="1" stop-color="#49C4F2"/>
</linearGradient>
<linearGradient id="paint62_linear_151_177" x1="159.1" y1="186.642" x2="101.901" y2="87.5767" gradientUnits="userSpaceOnUse">
<stop stop-color="#3696EA"/>
<stop offset="1" stop-color="#90D9F6"/>
</linearGradient>
<linearGradient id="paint63_linear_151_177" x1="162.294" y1="183.886" x2="105.826" y2="86.0978" gradientUnits="userSpaceOnUse">
<stop stop-color="#3097EA"/>
<stop offset="1" stop-color="#B5E5F9"/>
</linearGradient>
<linearGradient id="paint64_linear_151_177" x1="163.956" y1="180.642" x2="109.44" y2="86.2216" gradientUnits="userSpaceOnUse">
<stop stop-color="#3A98EA"/>
<stop offset="1" stop-color="#BCE7FA"/>
</linearGradient>
<linearGradient id="paint65_linear_151_177" x1="136.607" y1="120.777" x2="147.416" y2="114.536" gradientUnits="userSpaceOnUse">
<stop stop-color="#00A4EC"/>
<stop offset="1" stop-color="#B9DFF6"/>
</linearGradient>
<linearGradient id="paint66_linear_151_177" x1="131.812" y1="112.737" x2="142.682" y2="106.462" gradientUnits="userSpaceOnUse">
<stop stop-color="#00A4EC"/>
<stop offset="1" stop-color="#B9DFF6"/>
</linearGradient>
<linearGradient id="paint67_linear_151_177" x1="117.008" y1="87.5367" x2="127.828" y2="81.2913" gradientUnits="userSpaceOnUse">
<stop stop-color="#00B4EF"/>
<stop offset="1" stop-color="#C3E9FA"/>
</linearGradient>
<linearGradient id="paint68_linear_151_177" x1="112.061" y1="78.9723" x2="122.954" y2="72.6825" gradientUnits="userSpaceOnUse">
<stop stop-color="#00B4EF"/>
<stop offset="1" stop-color="#C3E9FA"/>
</linearGradient>
<linearGradient id="paint69_linear_151_177" x1="110.251" y1="187.963" x2="110.251" y2="67.1612" gradientUnits="userSpaceOnUse">
<stop stop-color="#1285E7"/>
<stop offset="1" stop-color="#00B5EF"/>
</linearGradient>
<linearGradient id="paint70_linear_151_177" x1="104.6" y1="187.421" x2="159.213" y2="92.8347" gradientUnits="userSpaceOnUse">
<stop stop-color="#3194E9"/>
<stop offset="1" stop-color="#71CFF4"/>
</linearGradient>
<linearGradient id="paint71_linear_151_177" x1="102.175" y1="188.1" x2="158.628" y2="90.3418" gradientUnits="userSpaceOnUse">
<stop stop-color="#5AA6EC"/>
<stop offset="1" stop-color="#A2DEF8"/>
</linearGradient>
<linearGradient id="paint72_linear_151_177" x1="98.8389" y1="186.959" x2="156.009" y2="87.9374" gradientUnits="userSpaceOnUse">
<stop stop-color="#66ABEE"/>
<stop offset="1" stop-color="#BEE8FA"/>
</linearGradient>
<linearGradient id="paint73_linear_151_177" x1="95.4313" y1="184.165" x2="151.922" y2="86.3538" gradientUnits="userSpaceOnUse">
<stop stop-color="#7BB6F0"/>
<stop offset="1" stop-color="#B1E3F9"/>
</linearGradient>
<linearGradient id="paint74_linear_151_177" x1="93.9487" y1="180.989" x2="148.449" y2="86.5749" gradientUnits="userSpaceOnUse">
<stop stop-color="#5AA6EC"/>
<stop offset="1" stop-color="#AFE3F9"/>
</linearGradient>
<linearGradient id="paint75_linear_151_177" x1="133.347" y1="75.5765" x2="144.268" y2="81.8821" gradientUnits="userSpaceOnUse">
<stop stop-color="#C1E7FA"/>
<stop offset="1" stop-color="#89D4F5"/>
</linearGradient>
<linearGradient id="paint76_linear_151_177" x1="128.43" y1="84.2954" x2="139.196" y2="90.5102" gradientUnits="userSpaceOnUse">
<stop stop-color="#C1E7FA"/>
<stop offset="1" stop-color="#89D4F5"/>
</linearGradient>
<linearGradient id="paint77_linear_151_177" x1="123.301" y1="93.0862" x2="134.014" y2="99.2696" gradientUnits="userSpaceOnUse">
<stop stop-color="#C1E7FA"/>
<stop offset="1" stop-color="#89D4F5"/>
</linearGradient>
<linearGradient id="paint78_linear_151_177" x1="118.358" y1="101.575" x2="129.069" y2="107.76" gradientUnits="userSpaceOnUse">
<stop stop-color="#B0DFF8"/>
<stop offset="1" stop-color="#52BDF2"/>
</linearGradient>
<linearGradient id="paint79_linear_151_177" x1="113.486" y1="109.83" x2="124.201" y2="116.017" gradientUnits="userSpaceOnUse">
<stop stop-color="#B4DEF8"/>
<stop offset="1" stop-color="#4EB5F0"/>
</linearGradient>
<linearGradient id="paint80_linear_151_177" x1="108.633" y1="118.056" x2="119.345" y2="124.24" gradientUnits="userSpaceOnUse">
<stop stop-color="#B4DEF8"/>
<stop offset="1" stop-color="#4EB5F0"/>
</linearGradient>
<linearGradient id="paint81_linear_151_177" x1="103.753" y1="126.472" x2="114.464" y2="132.655" gradientUnits="userSpaceOnUse">
<stop stop-color="#B5DDF8"/>
<stop offset="1" stop-color="#46AEEE"/>
</linearGradient>
<linearGradient id="paint82_linear_151_177" x1="98.8943" y1="134.868" x2="109.552" y2="141.02" gradientUnits="userSpaceOnUse">
<stop stop-color="#96CEF4"/>
<stop offset="1" stop-color="#46AAEE"/>
</linearGradient>
<linearGradient id="paint83_linear_151_177" x1="87.0616" y1="162.364" x2="94.7504" y2="166.802" gradientUnits="userSpaceOnUse">
<stop stop-color="#8FC1F2"/>
<stop offset="1" stop-color="#3193EA"/>
</linearGradient>
<linearGradient id="paint84_linear_151_177" x1="79.1367" y1="168.373" x2="89.9723" y2="174.627" gradientUnits="userSpaceOnUse">
<stop stop-color="#8FC1F2"/>
<stop offset="1" stop-color="#3193EA"/>
</linearGradient>
<linearGradient id="paint85_linear_151_177" x1="74.1557" y1="176.946" x2="85.1177" y2="183.274" gradientUnits="userSpaceOnUse">
<stop stop-color="#8FC1F2"/>
<stop offset="1" stop-color="#3193EA"/>
</linearGradient>
<linearGradient id="paint86_linear_151_177" x1="162.987" y1="130.23" x2="174.375" y2="135.781" gradientUnits="userSpaceOnUse">
<stop offset="0.001"/>
<stop offset="1" stop-opacity="0"/>
</linearGradient>
<radialGradient id="paint87_radial_151_177" cx="0" cy="0" r="1" gradientUnits="userSpaceOnUse" gradientTransform="translate(190.059 52.1314) rotate(116.706) scale(31.7271 31.7271)">
<stop/>
<stop offset="1" stop-opacity="0"/>
</radialGradient>
<radialGradient id="paint88_radial_151_177" cx="0" cy="0" r="1" gradientUnits="userSpaceOnUse" gradientTransform="translate(103.727 228.278) rotate(26.1167) scale(15.4713 15.4713)">
<stop offset="0.417" stop-color="#0C0C12"/>
<stop offset="1" stop-color="#3D4651"/>
</radialGradient>
<linearGradient id="paint89_linear_151_177" x1="173.939" y1="79.4542" x2="185.807" y2="85.5036" gradientUnits="userSpaceOnUse">
<stop stop-color="#344351"/>
<stop offset="0.1" stop-color="#9697A0"/>
<stop offset="0.181" stop-color="#8B8C95"/>
<stop offset="0.351" stop-color="#787A83"/>
<stop offset="0.47" stop-color="#71747D"/>
<stop offset="0.591" stop-color="#777982"/>
<stop offset="0.749" stop-color="#87898F"/>
<stop offset="0.8" stop-color="#8E8F94"/>
<stop offset="0.849" stop-color="#3D3B42"/>
<stop offset="0.9" stop-color="#606E84"/>
</linearGradient>
<linearGradient id="paint90_linear_151_177" x1="232.515" y1="60.1884" x2="212.521" y2="33.1723" gradientUnits="userSpaceOnUse">
<stop offset="0.27" stop-color="#262B33"/>
<stop offset="0.45" stop-color="#74747E"/>
<stop offset="0.54" stop-color="#B0B0BC"/>
<stop offset="0.73" stop-color="#74747E"/>
</linearGradient>
<linearGradient id="paint91_linear_151_177" x1="196.525" y1="60.4376" x2="228.078" y2="56.3677" gradientUnits="userSpaceOnUse">
<stop offset="0.14" stop-color="#606E84"/>
<stop offset="0.4" stop-color="#9899A5"/>
<stop offset="0.73" stop-color="#475768"/>
<stop offset="0.92" stop-color="#262B33"/>
</linearGradient>
<linearGradient id="paint92_linear_151_177" x1="210.889" y1="61.648" x2="209.108" y2="51.543" gradientUnits="userSpaceOnUse">
<stop stop-color="#101215" stop-opacity="0.1"/>
<stop offset="0.46" stop-color="#101215" stop-opacity="0.7"/>
<stop offset="0.7" stop-color="#474951"/>
<stop offset="0.91" stop-color="#7B7D88"/>
</linearGradient>
<linearGradient id="paint93_linear_151_177" x1="125.432" y1="163.1" x2="141.488" y2="171.004" gradientUnits="userSpaceOnUse">
<stop offset="0.115" stop-color="#2C3952"/>
<stop offset="0.374" stop-color="#3D414E"/>
<stop offset="0.55" stop-color="#474A54"/>
<stop offset="0.754" stop-color="#4E5057"/>
<stop offset="0.892" stop-color="#323945"/>
<stop offset="1" stop-color="#143052"/>
</linearGradient>
<linearGradient id="paint94_linear_151_177" x1="160.039" y1="53.9342" x2="174.389" y2="22.4533" gradientUnits="userSpaceOnUse">
<stop offset="0.118" stop-color="#6D7078" stop-opacity="0"/>
<stop offset="0.2" stop-color="#6D7078" stop-opacity="0.7"/>
<stop offset="0.34" stop-color="#35363A"/>
<stop offset="0.374" stop-color="#1D1F22"/>
<stop offset="0.4" stop-color="#101215"/>
<stop offset="0.5" stop-color="#16171A"/>
<stop offset="0.56" stop-color="#292A2E"/>
<stop offset="0.688" stop-color="#4B4D51"/>
<stop offset="0.807" stop-color="#63666B"/>
<stop offset="0.915" stop-color="#72757B"/>
<stop offset="1" stop-color="#777A80"/>
</linearGradient>
<linearGradient id="paint95_linear_151_177" x1="138.713" y1="35.8677" x2="181.78" y2="35.8677" gradientUnits="userSpaceOnUse">
<stop stop-color="#4A4D56"/>
<stop offset="1" stop-color="#29292D"/>
</linearGradient>
<linearGradient id="paint96_linear_151_177" x1="138.717" y1="25.8417" x2="175.954" y2="25.8417" gradientUnits="userSpaceOnUse">
<stop stop-color="#767880"/>
<stop offset="0.41" stop-color="#0C0A0B"/>
</linearGradient>
<linearGradient id="paint97_linear_151_177" x1="234.663" y1="71.0497" x2="247.603" y2="48.638" gradientUnits="userSpaceOnUse">
<stop stop-color="#858997"/>
<stop offset="0.23" stop-color="#244668"/>
<stop offset="0.282" stop-color="#1A3249"/>
<stop offset="0.4" stop-color="#040506"/>
<stop offset="0.464" stop-color="#313236"/>
<stop offset="0.546" stop-color="#65656E"/>
<stop offset="0.607" stop-color="#868691"/>
<stop offset="0.64" stop-color="#92929E"/>
</linearGradient>
<clipPath id="clip0_151_177">
<rect width="256" height="256" fill="white"/>
</clipPath>
</defs>
</svg>
