<?xml version="1.0" encoding="utf-8"?>
<!-- Generator: Adobe Illustrator 27.3.1, SVG Export Plug-In . SVG Version: 6.00 Build 0)  -->
<svg width="256" height="256" version="1.0" id="Layer_1" xmlns="http://www.w3.org/2000/svg" xmlns:xlink="http://www.w3.org/1999/xlink" x="0px" y="0px"
	 viewBox="0 0 256 256" enable-background="new 0 0 256 256" xml:space="preserve">
<path display="none" fill="#242938" d="M60,0h136c33.1,0,60,26.9,60,60v136c0,33.1-26.9,60-60,60H60c-33.1,0-60-26.9-60-60V60
	C0,26.9,26.9,0,60,0z"/>
<path fill="#F4F4ED" d="M61.2,1.2h135.2c32.9,0,59.6,26.7,59.6,59.6V196c0,32.9-26.7,59.6-59.6,59.6H61.2
	C28.2,255.7,1.5,229,1.5,196V60.8C1.5,27.9,28.2,1.2,61.2,1.2z"/>
<g>
	
		<linearGradient id="SVGID_1_" gradientUnits="userSpaceOnUse" x1="-14.3706" y1="407.4288" x2="-14.3706" y2="408.2904" gradientTransform="matrix(228.2941 0 0 -228.294 3409.4109 93240.1562)">
		<stop  offset="0" style="stop-color:#1578E4"/>
		<stop  offset="1" style="stop-color:#00C3F2"/>
	</linearGradient>
	<path fill="url(#SVGID_1_)" d="M73.3,29.9h110.8c23.7,0,42.9,19.2,42.9,42.9v110.8c0,23.7-19.2,42.9-42.9,42.9H73.3
		c-23.7,0-42.9-19.2-42.9-42.9V72.8C30.3,49.1,49.6,29.9,73.3,29.9z"/>
	<path fill="#FFFFFF" d="M180.7,40.5H76.6c-19.8,0-35.9,16.1-35.9,35.9v104.1c0,19.8,16.1,35.9,35.9,35.9h104.1
		c19.8,0,35.9-16.1,35.9-35.9V76.2C216.6,56.4,200.6,40.5,180.7,40.5z M213.7,180.9c0,18-14.5,32.6-32.6,32.6H76.2
		c-17.8,0-32.6-14.5-32.6-32.6V75.8c0-18,14.5-32.6,32.6-32.6h105.1c17.8,0,32.6,14.5,32.6,32.6v105.1H213.7z"/>
	<path fill="#69C5F3" d="M129,47.5c-44.3,0-80.4,36.1-80.4,80.4s36.1,80.4,80.4,80.4c44.5,0,80.4-36.1,80.4-80.4
		S173.3,47.5,129,47.5L129,47.5z M129,207.2c-43.7,0-79.2-35.5-79.2-79.2S85.3,48.7,129,48.7s79.2,35.5,79.2,79.2
		S172.7,207.2,129,207.2z"/>
	<path fill="#68C5F4" d="M129,64c-35.5,0-64.1,28.6-64.1,64.1s28.6,63.9,64.1,63.9s64.1-28.6,64.1-64.1S164.3,64,129,64L129,64z
		 M129,190.7c-34.7,0-62.7-28-62.7-62.7s28-62.7,62.7-62.7s62.7,28,62.7,62.7S163.5,190.7,129,190.7z"/>
	<g transform="translate(32.768209, 149.768179)">
		<path fill="#FFFFFF" d="M34.8-7.1h122.4c5.1,0,9,4.1,9,9c0,5.1-4.1,9-9,9H34.8c-5.1,0-9-4.1-9-9C25.6-3,29.7-7.1,34.8-7.1z"/>
		<path fill="#0A93E9" d="M34.4-5.4h122.8c3.9,0,7.3,3.1,7.3,7.3v0.2c0,3.9-3.1,7.3-7.3,7.3H34.4c-3.9,0-7.3-3.1-7.3-7.3V1.7
			C27.4-2.2,30.5-5.4,34.4-5.4z"/>
		<polygon fill="#1694EA" points="31.5,8.6 160.3,8.6 161.3,8 30.5,8 		"/>
		<polygon fill="#319DEC" points="28.6,6.2 163.1,6.2 163.5,5.6 28.2,5.6 		"/>
		<polygon fill="#65B1EE" points="27.4,2.5 164.5,2.5 164.5,1.7 27.4,1.7 		"/>
		<polygon fill="#8EC6F3" points="28.8,-2.4 163.3,-2.4 163.5,-2 163.7,-1.6 28.4,-1.6 28.6,-2 		"/>
		<polygon fill="#95CAF3" points="31.7,-4.8 160.3,-4.8 160.9,-4.6 161.5,-4.2 30.5,-4.2 31.1,-4.6 		"/>
		
			<linearGradient id="SVGID_00000134941313984740517270000015859839808792112002_" gradientUnits="userSpaceOnUse" x1="-43.2607" y1="249.9622" x2="-43.2607" y2="250.8217" gradientTransform="matrix(5.0074 0 0 -17.0708 371.469 4276.3545)">
			<stop  offset="0" style="stop-color:#1492E7"/>
			<stop  offset="1" style="stop-color:#DBEDFB"/>
		</linearGradient>
		<path fill="url(#SVGID_00000134941313984740517270000015859839808792112002_)" d="M153.7-5.4h-1c0,0,3.3,2.4,3.3,7.6
			c0,4.9-3.3,7.1-3.3,7.1h1c0,0,3.3-1.6,3.3-7.1C157-3.6,153.7-5.4,153.7-5.4z"/>
		
			<linearGradient id="SVGID_00000017511064204499346340000013103092691995173783_" gradientUnits="userSpaceOnUse" x1="-42.5207" y1="249.9622" x2="-42.5207" y2="250.8217" gradientTransform="matrix(4.5522 0 0 -17.0708 338.7981 4276.3545)">
			<stop  offset="0" style="stop-color:#1492E7"/>
			<stop  offset="1" style="stop-color:#DBEDFB"/>
		</linearGradient>
		<path fill="url(#SVGID_00000017511064204499346340000013103092691995173783_)" d="M144.3-5.4h-1c0,0,2.9,2.7,2.9,7.6
			c0,4.3-2.9,7.1-2.9,7.1h1c0,0,2.9-2.2,2.9-7.1C147-3,144.3-5.4,144.3-5.4z"/>
		
			<linearGradient id="SVGID_00000181797160432071054890000014088261679587792315_" gradientUnits="userSpaceOnUse" x1="-21.3134" y1="249.9622" x2="-21.3134" y2="250.8217" gradientTransform="matrix(1.1381 0 0 -17.0708 120.1729 4276.3545)">
			<stop  offset="0" style="stop-color:#1492E7"/>
			<stop  offset="1" style="stop-color:#DBEDFB"/>
		</linearGradient>
		<polygon fill="url(#SVGID_00000181797160432071054890000014088261679587792315_)" points="95.4,-5.4 96.4,-5.4 96.4,9.4 95.4,9.4 
					"/>
		
			<linearGradient id="SVGID_00000170248692794863666190000013938369148976271244_" gradientUnits="userSpaceOnUse" x1="-27.7399" y1="249.9622" x2="-27.7399" y2="250.8217" gradientTransform="matrix(1.5933 0 0 -17.0708 130.3096 4276.3545)">
			<stop  offset="0" style="stop-color:#1492E7"/>
			<stop  offset="1" style="stop-color:#DBEDFB"/>
		</linearGradient>
		<path fill="url(#SVGID_00000170248692794863666190000013938369148976271244_)" d="M85.8-5.4h1c0,0-0.4,3.7-0.4,7.6
			c0,3.5,0.4,7.1,0.4,7.1h-1c0,0-0.4-3.5-0.4-7.1C85.4-1.6,85.8-5.4,85.8-5.4z"/>
		
			<linearGradient id="SVGID_00000014616690460058833480000001603413028580053915_" gradientUnits="userSpaceOnUse" x1="-32.913" y1="249.9622" x2="-32.913" y2="250.8217" gradientTransform="matrix(2.2761 0 0 -17.0708 151.3194 4276.3545)">
			<stop  offset="0" style="stop-color:#1492E7"/>
			<stop  offset="1" style="stop-color:#DBEDFB"/>
		</linearGradient>
		<path fill="url(#SVGID_00000014616690460058833480000001603413028580053915_)" d="M76.4-5.4h1c0,0-1,3.7-1,7.6c0,3.5,1,7.1,1,7.1
			h-1c0,0-1-3.5-1-7.1C75.4-1.6,76.4-5.4,76.4-5.4z"/>
		
			<linearGradient id="SVGID_00000033371275875664641880000013389077623836163972_" gradientUnits="userSpaceOnUse" x1="-34.7285" y1="249.9622" x2="-34.7285" y2="250.8217" gradientTransform="matrix(2.7313 0 0 -17.0708 161.4562 4276.3545)">
			<stop  offset="0" style="stop-color:#1492E7"/>
			<stop  offset="1" style="stop-color:#DBEDFB"/>
		</linearGradient>
		<path fill="url(#SVGID_00000033371275875664641880000013389077623836163972_)" d="M66.8-5.4h1c0,0-1.4,3.7-1.4,7.6
			c0,3.5,1.4,7.1,1.4,7.1h-1c0,0-1.4-3.5-1.4-7.1C65.4-1.6,66.8-5.4,66.8-5.4z"/>
		
			<linearGradient id="SVGID_00000123441832739122040290000015719984567433358473_" gradientUnits="userSpaceOnUse" x1="-36.7703" y1="249.9622" x2="-36.7703" y2="250.8217" gradientTransform="matrix(3.4142 0 0 -17.0708 182.2382 4276.3545)">
			<stop  offset="0" style="stop-color:#1492E7"/>
			<stop  offset="1" style="stop-color:#DBEDFB"/>
		</linearGradient>
		<path fill="url(#SVGID_00000123441832739122040290000015719984567433358473_)" d="M57.2-5.4h1c0,0-2,3.1-2,7.6c0,3.9,2,7.1,2,7.1
			h-1c0,0-2-3.1-2-7.1C55.2-2.2,57.2-5.4,57.2-5.4z"/>
		
			<linearGradient id="SVGID_00000151516487639145260520000014709749232527986873_" gradientUnits="userSpaceOnUse" x1="-39.0382" y1="249.9622" x2="-39.0382" y2="250.8217" gradientTransform="matrix(4.5522 0 0 -17.0708 224.31 4276.3545)">
			<stop  offset="0" style="stop-color:#1492E7"/>
			<stop  offset="1" style="stop-color:#DBEDFB"/>
		</linearGradient>
		<path fill="url(#SVGID_00000151516487639145260520000014709749232527986873_)" d="M47.6-5.4h1c0,0-2.9,2.7-2.9,7.6
			c0,4.3,2.9,7.1,2.9,7.1h-1c0,0-2.9-2.2-2.9-7.1C44.8-3,47.6-5.4,47.6-5.4z"/>
		
			<linearGradient id="SVGID_00000073688625303741634070000010423935329346513073_" gradientUnits="userSpaceOnUse" x1="-39.478" y1="249.9622" x2="-39.478" y2="250.8217" gradientTransform="matrix(5.0074 0 0 -17.0708 234.6747 4276.3545)">
			<stop  offset="0" style="stop-color:#1492E7"/>
			<stop  offset="1" style="stop-color:#DBEDFB"/>
		</linearGradient>
		<path fill="url(#SVGID_00000073688625303741634070000010423935329346513073_)" d="M38.2-5.4h1c0,0-3.3,2.4-3.3,7.6
			c0,4.9,3.3,7.1,3.3,7.1h-1c0,0-3.3-1.6-3.3-7.1C34.8-3.6,38.2-5.4,38.2-5.4z"/>
	</g>
	<g transform="translate(90.074579, 59.802288)">
		<path fill="#FFFFFF" d="M34.8,9.9L96,115.8c2.5,4.3,1,9.8-3.3,12.4c-4.3,2.5-9.8,1-12.4-3.3L19.1,18.9c-2.5-4.3-1-9.8,3.3-12.4
			S32.2,5.6,34.8,9.9z"/>
		
			<linearGradient id="SVGID_00000034087348043334324690000006342150564777342105_" gradientUnits="userSpaceOnUse" x1="-104.2743" y1="347.2242" x2="-104.2743" y2="348.0858" gradientTransform="matrix(88.246 0 0 -140.361 9259.3242 48864.6523)">
			<stop  offset="0" style="stop-color:#1285E7"/>
			<stop  offset="1" style="stop-color:#00B5EF"/>
		</linearGradient>
		<path fill="url(#SVGID_00000034087348043334324690000006342150564777342105_)" d="M33.2,10.7L94.6,117c2,3.3,0.8,7.8-2.5,9.8
			l-0.4,0.2c-3.3,2-7.8,0.8-9.8-2.5L20.5,17.9c-2-3.3-0.8-7.8,2.5-9.8l0.2-0.2C26.7,6,31.3,7.2,33.2,10.7z"/>
		
			<linearGradient id="SVGID_00000067208060010253633520000011671622257152017802_" gradientUnits="userSpaceOnUse" x1="-104.0722" y1="347.157" x2="-104.3598" y2="348.0189" gradientTransform="matrix(76.0221 0 0 -131.5593 7974.8755 45799.0469)">
			<stop  offset="0" style="stop-color:#2B90E7"/>
			<stop  offset="1" style="stop-color:#00B6EF"/>
		</linearGradient>
		<polygon fill="url(#SVGID_00000067208060010253633520000011671622257152017802_)" points="19.5,15 83.8,126.6 84.2,126.8 
			84.6,127 85,127.2 19.5,13.8 		"/>
		
			<linearGradient id="SVGID_00000182502094944957902640000008105927941564479125_" gradientUnits="userSpaceOnUse" x1="-104.0877" y1="347.1901" x2="-104.377" y2="348.0522" gradientTransform="matrix(78.9811 0 0 -135.8839 8286.4678 47305.5469)">
			<stop  offset="0" style="stop-color:#3795EA"/>
			<stop  offset="1" style="stop-color:#49C4F2"/>
		</linearGradient>
		<polygon fill="url(#SVGID_00000182502094944957902640000008105927941564479125_)" points="20.1,11.3 87.3,127.8 88.1,127.8 
			20.5,10.7 20.3,11.1 		"/>
		
			<linearGradient id="SVGID_00000133509596686431654890000006453543092838620323_" gradientUnits="userSpaceOnUse" x1="-104.1003" y1="347.2086" x2="-104.3888" y2="348.0678" gradientTransform="matrix(80.3468 0 0 -138.16 8433.1514 48097.1797)">
			<stop  offset="0" style="stop-color:#3696EA"/>
			<stop  offset="1" style="stop-color:#90D9F6"/>
		</linearGradient>
		<polygon fill="url(#SVGID_00000133509596686431654890000006453543092838620323_)" points="22.8,8.3 91.5,127 92,126.6 23.4,7.9 		
			"/>
		
			<linearGradient id="SVGID_00000173129572199413742420000001712205291005230744_" gradientUnits="userSpaceOnUse" x1="-104.1007" y1="347.1905" x2="-104.3893" y2="348.0518" gradientTransform="matrix(78.9811 0 0 -136.1115 8294.207 47380.7031)">
			<stop  offset="0" style="stop-color:#3097EA"/>
			<stop  offset="1" style="stop-color:#B5E5F9"/>
		</linearGradient>
		<polygon fill="url(#SVGID_00000173129572199413742420000001712205291005230744_)" points="27.7,7.2 94.8,123.4 94.6,123.8 
			94.4,124.2 26.7,7 27.1,7 		"/>
		
			<linearGradient id="SVGID_00000084516506664358610110000008392580871226398600_" gradientUnits="userSpaceOnUse" x1="-104.0919" y1="347.149" x2="-104.3801" y2="348.0113" gradientTransform="matrix(76.0221 0 0 -131.3317 7987.1665 45712.5078)">
			<stop  offset="0" style="stop-color:#3A98EA"/>
			<stop  offset="1" style="stop-color:#BCE7FA"/>
		</linearGradient>
		<polygon fill="url(#SVGID_00000084516506664358610110000008392580871226398600_)" points="31.3,8.3 95.6,119.7 95.6,120.9 
			30.1,7.7 30.5,7.9 30.9,8.1 		"/>
		<path fill="#3C98EA" d="M92.6,113.4l-0.4-0.8c0,0-0.4,3.9-4.7,6.7c-4.1,2.5-7.8,0.8-7.8,0.8l0.4,0.8c0,0,3.1,2.2,7.8-0.8
			C92.6,117.4,92.6,113.4,92.6,113.4z M87.7,105.2l-0.4-0.8c0,0-1,3.9-5.1,6.3c-3.7,2.4-7.5,1.2-7.5,1.2l0.4,0.8
			c0,0,3.3,1.4,7.6-1.2C87.1,108.9,87.7,105.2,87.7,105.2L87.7,105.2z"/>
		<path fill="#4CA4ED" d="M83,97l-0.4-0.8c0,0-1.8,3.3-5.5,5.5c-3.3,2-7.1,2-7.1,2l0.4,0.8c0,0,3.5,0,7.1-2C81.3,100.3,83,97,83,97z
			"/>
		<path fill="#4DA7EE" d="M78.3,88.7l-0.4-0.8c0,0-2.5,3.3-5.9,5.1c-3.1,1.8-6.9,2.4-6.9,2.4l0.4,0.8c0,0,3.7-0.6,6.9-2.4
			C75.6,92.1,78.3,88.7,78.3,88.7z"/>
		
			<linearGradient id="SVGID_00000127730402486060740130000008124879503454816663_" gradientUnits="userSpaceOnUse" x1="-103.1797" y1="333.1003" x2="-102.3344" y2="333.4109" gradientTransform="matrix(15.0223 0 0 -9.5597 1596.5289 3245.3137)">
			<stop  offset="0" style="stop-color:#00A4EC"/>
			<stop  offset="1" style="stop-color:#B9DFF6"/>
		</linearGradient>
		<path fill="url(#SVGID_00000127730402486060740130000008124879503454816663_)" d="M58.9,55.4l0.4,0.8c0,0-3.3,1.6-6.7,3.3
			c-3.1,1.8-5.9,4.1-5.9,4.1l-0.4-0.8c0,0,2.9-2.4,5.9-4.1C55.6,57,58.9,55.4,58.9,55.4z"/>
		
			<linearGradient id="SVGID_00000079461100251578937480000003723477158655661457_" gradientUnits="userSpaceOnUse" x1="-103.1353" y1="333.3199" x2="-102.2901" y2="333.6378" gradientTransform="matrix(15.0223 0 0 -9.7873 1591.0663 3315.2368)">
			<stop  offset="0" style="stop-color:#00A4EC"/>
			<stop  offset="1" style="stop-color:#B9DFF6"/>
		</linearGradient>
		<path fill="url(#SVGID_00000079461100251578937480000003723477158655661457_)" d="M54.2,47.2l0.4,0.8c0,0-3.7,1.2-6.9,3.1
			c-3.1,1.8-5.7,4.5-5.7,4.5l-0.4-0.8c0,0,2.5-2.7,5.7-4.5C50.5,48.1,54.2,47.2,54.2,47.2z"/>
		<path fill="#9DD4F7" d="M45.4,40.7c2.5-0.8,4.5-1.2,4.5-1.2l-0.4-0.8c0,0-1.8,0.2-3.7,1C44.6,40.1,44.4,41.1,45.4,40.7L45.4,40.7z
			"/>
		
			<linearGradient id="SVGID_00000088115851207867154390000010646594694790412427_" gradientUnits="userSpaceOnUse" x1="-103.0147" y1="333.0394" x2="-102.1748" y2="333.3573" gradientTransform="matrix(15.0223 0 0 -9.8506 1574.4508 3308.3721)">
			<stop  offset="0" style="stop-color:#00B4EF"/>
			<stop  offset="1" style="stop-color:#C3E9FA"/>
		</linearGradient>
		<path fill="url(#SVGID_00000088115851207867154390000010646594694790412427_)" d="M39.9,22.5l0.4,0.8c0,0-3.7-1-8,1.4
			c-3.7,2.4-4.5,6.1-4.5,6.1l-0.4-0.8c0,0,0.4-3.3,4.5-5.9C36.2,21.3,39.9,22.5,39.9,22.5L39.9,22.5z"/>
		
			<linearGradient id="SVGID_00000055691191125018252780000016654242417935417488_" gradientUnits="userSpaceOnUse" x1="-103.0273" y1="333.3959" x2="-102.2073" y2="333.7068" gradientTransform="matrix(15.4869 0 0 -10.1691 1617.5597 3409.5063)">
			<stop  offset="0" style="stop-color:#00B4EF"/>
			<stop  offset="1" style="stop-color:#C3E9FA"/>
		</linearGradient>
		<path fill="url(#SVGID_00000055691191125018252780000016654242417935417488_)" d="M35.2,14l0.6,0.8c0,0-3.9-1.6-8.4,1
			C23,18.5,23,22.3,23,22.3l-0.6-0.8c0,0-0.4-3.3,4.3-6.3C31.6,12.3,35.2,14,35.2,14L35.2,14z"/>
	</g>
	<g transform="translate(46.828448, 60.257510)">
		<path fill="#FFFFFF" d="M65.3,82.4C82.3,53,102,18.9,102,18.9c2.5-4.3,1-9.8-3.3-12.4c-4.3-2.5-9.8-1-12.4,3.3
			c0,0-23.9,41.6-42,72.6H65.3L65.3,82.4z M54.7,100.4c-8.2,14.1-13.9,24.3-13.9,24.3c-2.5,4.3-8,5.9-12.4,3.3
			c-4.3-2.5-5.9-8-3.3-12.4c0,0,3.3-6.1,8.6-15.1C40.4,100.4,52.5,100.4,54.7,100.4L54.7,100.4z"/>
		
			<linearGradient id="SVGID_00000163765921525909811050000001760063640291759490_" gradientUnits="userSpaceOnUse" x1="-60.9592" y1="346.7643" x2="-60.9592" y2="347.6277" gradientTransform="matrix(88.0184 0 0 -139.9137 5428.9541 48644.7812)">
			<stop  offset="0" style="stop-color:#1285E7"/>
			<stop  offset="1" style="stop-color:#00B5EF"/>
		</linearGradient>
		<path fill="url(#SVGID_00000163765921525909811050000001760063640291759490_)" d="M63.1,82.4c17.3-29.8,37.3-64.5,37.3-64.5
			c2-3.3,0.8-7.8-2.5-9.8l-0.2-0.2c-3.3-2-7.8-0.8-9.8,2.5c0,0-23.5,40.8-41.6,72H63.1L63.1,82.4z M52.7,100.4
			C44.9,114.2,39.2,124,39.2,124c-2,3.3-6.3,4.5-9.8,2.5H29c-3.3-2-4.5-6.3-2.5-9.8c0,0,3.7-6.5,9.4-16.3H52.7z"/>
		
			<linearGradient id="SVGID_00000136405670420180693910000011973530754712746144_" gradientUnits="userSpaceOnUse" x1="-61.0569" y1="346.6994" x2="-60.7675" y2="347.5627" gradientTransform="matrix(76.2498 0 0 -131.3317 4713.3477 45659.7852)">
			<stop  offset="0" style="stop-color:#3194E9"/>
			<stop  offset="1" style="stop-color:#71CFF4"/>
		</linearGradient>
		<path fill="url(#SVGID_00000136405670420180693910000011973530754712746144_)" d="M62.5,82.4l39-67.5v-1.2
			c0,0-21.6,37.5-39.6,68.6H62.5L62.5,82.4z M52,100.4L37,126.3l-0.6,0.4l-0.6,0.2c0,0,6.7-11.6,15.3-26.5H52z"/>
		
			<linearGradient id="SVGID_00000042722105724754755630000014662420092095852970_" gradientUnits="userSpaceOnUse" x1="-61.0682" y1="346.7344" x2="-60.7788" y2="347.5966" gradientTransform="matrix(78.9811 0 0 -135.8839 4878.5806 47243.4648)">
			<stop  offset="0" style="stop-color:#5AA6EC"/>
			<stop  offset="1" style="stop-color:#A2DEF8"/>
		</linearGradient>
		<path fill="url(#SVGID_00000042722105724754755630000014662420092095852970_)" d="M59.6,82.4l41.2-71.2l-0.2-0.4l-0.2-0.4
			c0,0-22.6,39-41.4,71.8L59.6,82.4L59.6,82.4z M49.2,100.4l-15.7,27.1h-0.8c0,0,6.7-11.6,15.7-27.3
			C48.8,100.4,49.2,100.4,49.2,100.4L49.2,100.4z"/>
		
			<linearGradient id="SVGID_00000120558688887303340930000000947365357048875153_" gradientUnits="userSpaceOnUse" x1="-61.0667" y1="346.7544" x2="-60.779" y2="347.6137" gradientTransform="matrix(80.1191 0 0 -138.16 4944.6196 48034.2891)">
			<stop  offset="0" style="stop-color:#66ABEE"/>
			<stop  offset="1" style="stop-color:#BEE8FA"/>
		</linearGradient>
		<path fill="url(#SVGID_00000120558688887303340930000000947365357048875153_)" d="M55.3,82.4C74.7,48.9,98,8.3,98,8.3l-0.6-0.4
			L54.3,82.4H55.3L55.3,82.4z M44.7,100.6c-8.6,15.1-15.1,26.3-15.1,26.3l-0.6-0.4c0,0,6.3-11,14.9-25.9
			C44.3,100.4,44.1,100.4,44.7,100.6z"/>
		
			<linearGradient id="SVGID_00000021106220545567544380000014134190740384877701_" gradientUnits="userSpaceOnUse" x1="-61.0556" y1="346.7332" x2="-60.766" y2="347.5959" gradientTransform="matrix(78.9811 0 0 -135.8839 4870.8413 47239.3672)">
			<stop  offset="0" style="stop-color:#7BB6F0"/>
			<stop  offset="1" style="stop-color:#B1E3F9"/>
		</linearGradient>
		<path fill="url(#SVGID_00000021106220545567544380000014134190740384877701_)" d="M50.6,82.4C70,48.9,94.1,6.9,94.1,6.9h-0.8
			c0,0-24.1,41.8-43.5,75.5H50.6z M39.2,100.4c-7.8,13.5-13.1,22.7-13.1,22.7l0.2,0.4l0.2,0.4c0,0,5.7-9.8,13.7-23.5H39.2z"/>
		
			<linearGradient id="SVGID_00000072962577875278696870000016634372537158473350_" gradientUnits="userSpaceOnUse" x1="-61.0337" y1="346.6946" x2="-60.7463" y2="347.5573" gradientTransform="matrix(75.7945 0 0 -131.3317 4673.1392 45652.7227)">
			<stop  offset="0" style="stop-color:#5AA6EC"/>
			<stop  offset="1" style="stop-color:#AFE3F9"/>
		</linearGradient>
		<path fill="url(#SVGID_00000072962577875278696870000016634372537158473350_)" d="M47.6,82.4L90.8,7.7l-0.4,0.2L90,8.1l-0.2,0.2
			c0,0-23.9,41.4-42.7,74.1H47.6z M37.2,100.4c-6.9,12-11.8,20.4-11.8,20.4v-1.6c0,0,4.3-7.5,11-19
			C36.9,100.4,36.9,100.4,37.2,100.4z"/>
		
			<linearGradient id="SVGID_00000130637531409286966810000005864708526163785617_" gradientUnits="userSpaceOnUse" x1="-59.8631" y1="333.1814" x2="-59.0308" y2="332.8627" gradientTransform="matrix(15.2586 0 0 -10.1196 999.9458 3386.9812)">
			<stop  offset="0" style="stop-color:#C1E7FA"/>
			<stop  offset="1" style="stop-color:#89D4F5"/>
		</linearGradient>
		<path fill="url(#SVGID_00000130637531409286966810000005864708526163785617_)" d="M85.9,13.6l-0.4,0.8c0,0,3.5-1.8,8.2,0.8
			c4.3,2.4,4.5,6.5,4.5,6.5l0.4-0.8c0,0,0.4-3.7-4.5-6.5S85.9,13.6,85.9,13.6z"/>
		
			<linearGradient id="SVGID_00000118378962225690076250000014383487840430456461_" gradientUnits="userSpaceOnUse" x1="-59.826" y1="332.3724" x2="-58.9932" y2="332.0719" gradientTransform="matrix(15.25 0 0 -9.5328 993.9478 3192.4773)">
			<stop  offset="0" style="stop-color:#C1E7FA"/>
			<stop  offset="1" style="stop-color:#89D4F5"/>
		</linearGradient>
		<path fill="url(#SVGID_00000118378962225690076250000014383487840430456461_)" d="M81.2,22l-0.4,0.8c0,0,3.9-1.2,8,1.2
			c3.9,2.2,4.7,5.9,4.7,5.9l0.4-0.8c0,0-0.4-3.5-4.7-5.9C84.7,20.6,81.2,22,81.2,22z"/>
		
			<linearGradient id="SVGID_00000062890771887167585470000010756117944857866413_" gradientUnits="userSpaceOnUse" x1="-59.7895" y1="332.1464" x2="-58.9569" y2="331.8523" gradientTransform="matrix(15.2499 0 0 -9.3321 988.257 3132.4519)">
			<stop  offset="0" style="stop-color:#C1E7FA"/>
			<stop  offset="1" style="stop-color:#89D4F5"/>
		</linearGradient>
		<path fill="url(#SVGID_00000062890771887167585470000010756117944857866413_)" d="M76.3,30.2L75.9,31c0,0,3.5-0.2,7.5,2.2
			c3.5,2,5.3,5.1,5.3,5.1l0.4-0.8c0,0-1.8-3.1-5.3-5.1C80,30.2,76.3,30.2,76.3,30.2L76.3,30.2z"/>
		
			<linearGradient id="SVGID_00000173857378916309699590000009691069812094771586_" gradientUnits="userSpaceOnUse" x1="-59.7551" y1="332.2855" x2="-58.9225" y2="331.9913" gradientTransform="matrix(15.25 0 0 -9.3321 982.7948 3142.2385)">
			<stop  offset="0" style="stop-color:#B0DFF8"/>
			<stop  offset="1" style="stop-color:#52BDF2"/>
		</linearGradient>
		<path fill="url(#SVGID_00000173857378916309699590000009691069812094771586_)" d="M71.6,38.7l-0.4,0.8c0,0,3.9,0.6,7.3,2.5
			c3.1,1.8,5.5,4.7,5.5,4.7l0.4-0.8c0,0-2.4-2.9-5.5-4.7C75.5,39.3,71.6,38.7,71.6,38.7z"/>
		
			<linearGradient id="SVGID_00000145027553489981099430000016320385295551052161_" gradientUnits="userSpaceOnUse" x1="-59.7014" y1="332.4254" x2="-58.8685" y2="332.1311" gradientTransform="matrix(15.25 0 0 -9.3321 977.1042 3151.7996)">
			<stop  offset="0" style="stop-color:#B4DEF8"/>
			<stop  offset="1" style="stop-color:#4EB5F0"/>
		</linearGradient>
		<path fill="url(#SVGID_00000145027553489981099430000016320385295551052161_)" d="M66.7,46.9l-0.4,0.8c0,0,3.7,1,7.1,2.9
			c3.1,1.8,5.7,4.3,5.7,4.3l0.4-0.8c0,0-2.5-2.5-5.7-4.3C70.6,48.1,66.7,46.9,66.7,46.9z"/>
		
			<linearGradient id="SVGID_00000012454793500072444000000014041341929417119368_" gradientUnits="userSpaceOnUse" x1="-59.6465" y1="332.5683" x2="-58.8139" y2="332.2742" gradientTransform="matrix(15.25 0 0 -9.3321 971.414 3161.3591)">
			<stop  offset="0" style="stop-color:#B4DEF8"/>
			<stop  offset="1" style="stop-color:#4EB5F0"/>
		</linearGradient>
		<path fill="url(#SVGID_00000012454793500072444000000014041341929417119368_)" d="M62,55.1l-0.6,0.8c0,0,3.5,1.4,6.9,3.3
			c3.1,1.8,5.9,3.9,5.9,3.9l0.4-0.8c0,0-2.7-2.2-5.9-3.9C65.5,56.7,62,55.1,62,55.1L62,55.1z"/>
		
			<linearGradient id="SVGID_00000003099321796396723870000015358356914550440626_" gradientUnits="userSpaceOnUse" x1="-59.6083" y1="332.7153" x2="-58.7758" y2="332.4212" gradientTransform="matrix(15.25 0 0 -9.3321 965.9513 3171.1465)">
			<stop  offset="0" style="stop-color:#B5DDF8"/>
			<stop  offset="1" style="stop-color:#46AEEE"/>
		</linearGradient>
		<polygon fill="url(#SVGID_00000003099321796396723870000015358356914550440626_)" points="56.7,64.4 57.1,63.6 69.8,70.8 
			69.4,71.6 		"/>
		
			<linearGradient id="SVGID_00000153662828645794769140000004631382559285607087_" gradientUnits="userSpaceOnUse" x1="-59.5687" y1="332.4705" x2="-58.7359" y2="332.1835" gradientTransform="matrix(15.25 0 0 -9.1044 960.4886 3101.5547)">
			<stop  offset="0" style="stop-color:#96CEF4"/>
			<stop  offset="1" style="stop-color:#46AAEE"/>
		</linearGradient>
		<path fill="url(#SVGID_00000153662828645794769140000004631382559285607087_)" d="M52,72.8l0.4-0.8c0,0,3.1,2.4,6.5,4.1
			c3.1,1.8,6.3,3.1,6.3,3.1l-0.4,0.6c0,0-3.3-1.4-6.5-3.1C54.9,74.9,52,72.8,52,72.8L52,72.8z"/>
		<path fill="#73B9F1" d="M48.8,82.4c-1-0.8-1.6-1.4-1.6-1.4l0.4-0.8c0,0,1.2,1,2.7,2.2H48.8L48.8,82.4z"/>
		
			<linearGradient id="SVGID_00000060031645592457866330000005438037297372895384_" gradientUnits="userSpaceOnUse" x1="-58.9121" y1="320.2874" x2="-58.1348" y2="320.1077" gradientTransform="matrix(12.5186 0 0 -5.0138 777.7302 1707.9633)">
			<stop  offset="0" style="stop-color:#8FC1F2"/>
			<stop  offset="1" style="stop-color:#3193EA"/>
		</linearGradient>
		<path fill="url(#SVGID_00000060031645592457866330000005438037297372895384_)" d="M41.2,100.4c0.8,0.6,1.6,1.2,2.5,1.8
			c3.5,2,7.1,1.8,7.1,1.8l-0.4,0.8c0,0-3.5,0.2-7.1-1.8c-1.4-0.8-2.5-1.8-3.3-2.5H41.2L41.2,100.4z"/>
		
			<linearGradient id="SVGID_00000107582464492692053240000016173174146928316068_" gradientUnits="userSpaceOnUse" x1="-59.4016" y1="334.1216" x2="-58.5688" y2="333.8129" gradientTransform="matrix(15.25 0 0 -9.794 938.1828 3380.5024)">
			<stop  offset="0" style="stop-color:#8FC1F2"/>
			<stop  offset="1" style="stop-color:#3193EA"/>
		</linearGradient>
		<path fill="url(#SVGID_00000107582464492692053240000016173174146928316068_)" d="M32.7,105.9l0.4-0.8c0,0,1,3.9,5.3,6.3
			c3.9,2.2,7.5,1,7.5,1l-0.4,0.8c0,0-3.1,1.4-7.5-1C33.5,109.7,32.7,105.9,32.7,105.9z"/>
		
			<linearGradient id="SVGID_00000143596094146595165780000014234413514793221022_" gradientUnits="userSpaceOnUse" x1="-59.3551" y1="334.9128" x2="-58.5225" y2="334.5892" gradientTransform="matrix(15.25 0 0 -10.2671 932.4926 3555.2712)">
			<stop  offset="0" style="stop-color:#8FC1F2"/>
			<stop  offset="1" style="stop-color:#3193EA"/>
		</linearGradient>
		<path fill="url(#SVGID_00000143596094146595165780000014234413514793221022_)" d="M27.8,114.4l0.4-0.8c0,0,0.4,4.1,5.1,6.7
			c4.3,2.4,7.6,0.6,7.6,0.6l-0.6,0.8c0,0-2.9,2.2-7.6-0.6C27.8,118.3,27.8,114.4,27.8,114.4L27.8,114.4z"/>
	</g>
	<g transform="translate(68.253760, 0.000000)">
		
			<linearGradient id="SVGID_00000048488629517487751490000004496408585473455030_" gradientUnits="userSpaceOnUse" x1="-82.6076" y1="407.8435" x2="-82.5418" y2="407.7885" gradientTransform="matrix(126.0966 0 0 -216.2307 10511.2705 88318.5156)">
			<stop  offset="1.000000e-03" style="stop-color:#000000"/>
			<stop  offset="1" style="stop-color:#000000;stop-opacity:0"/>
		</linearGradient>
		<path fill="url(#SVGID_00000048488629517487751490000004496408585473455030_)" d="M69.9,226.8l83.9-176.3l-21.2-10L45.2,223.8
			c0,0,2.7,1.4,6.3,2.9H69.9z"/>
		
			<radialGradient id="SVGID_00000110467340061848006370000009409294134582915497_" cx="-81.0828" cy="409.7245" r="0.3649" gradientTransform="matrix(-39.0753 77.6723 77.6723 39.0753 -34870.7734 -9660.0889)" gradientUnits="userSpaceOnUse">
			<stop  offset="0" style="stop-color:#000000"/>
			<stop  offset="1" style="stop-color:#000000;stop-opacity:0"/>
		</radialGradient>
		<path fill="url(#SVGID_00000110467340061848006370000009409294134582915497_)" d="M119.6,29.9l39.2,18.6v56.3
			C145.2,98.3,54.6,55.2,54.6,55.2s6.3-13.1,12.2-25.3H119.6z"/>
		
			<radialGradient id="SVGID_00000064340545216270519030000001970564120905317802_" cx="-79.2019" cy="404.3488" r="0.6315" gradientTransform="matrix(21.9979 10.7846 10.7846 -21.9979 -2582.9915 9977.2627)" gradientUnits="userSpaceOnUse">
			<stop  offset="0.417" style="stop-color:#0C0C12"/>
			<stop  offset="1" style="stop-color:#3D4651"/>
		</radialGradient>
		<path fill="url(#SVGID_00000064340545216270519030000001970564120905317802_)" d="M22.3,218.9c-0.6,1.2-1.6,2.5-1.4,4.7
			c0.2,8,13.3,15.5,21,15.5c5.3,0,7.1-2.2,9-6.1C52.9,229.1,24.4,214.2,22.3,218.9L22.3,218.9z"/>
		
			<linearGradient id="SVGID_00000003066133521725625760000009189834835827836810_" gradientUnits="userSpaceOnUse" x1="-82.4568" y1="406.6401" x2="-82.2813" y2="406.5162" gradientTransform="matrix(56.8576 0 0 -78.7535 4793.9805 32103.7852)">
			<stop  offset="0" style="stop-color:#344351"/>
			<stop  offset="9.999999e-02" style="stop-color:#9697A0"/>
			<stop  offset="0.181" style="stop-color:#8B8C95"/>
			<stop  offset="0.351" style="stop-color:#787A83"/>
			<stop  offset="0.47" style="stop-color:#71747D"/>
			<stop  offset="0.591" style="stop-color:#777982"/>
			<stop  offset="0.749" style="stop-color:#87898F"/>
			<stop  offset="0.8" style="stop-color:#8E8F94"/>
			<stop  offset="0.849" style="stop-color:#3D3B42"/>
			<stop  offset="0.9" style="stop-color:#606E84"/>
		</linearGradient>
		<path fill="url(#SVGID_00000003066133521725625760000009189834835827836810_)" d="M112.7,52.1c0,0,20.2,4.9,21.8,6.3
			c1.6,1.4-2.5,9.2-3.3,10.4c-6.5,7.8-26.7,51.2-26.7,51.2l-18.6-10.6c0,0,16.7-31,22.6-42C112.1,59.9,112.7,52.1,112.7,52.1z"/>
		
			<linearGradient id="SVGID_00000153666177491759891070000002860296368341089433_" gradientUnits="userSpaceOnUse" x1="-82.1493" y1="404.1857" x2="-82.6286" y2="404.9151" gradientTransform="matrix(35.5495 0 0 -40.0365 3084.6274 16242.3691)">
			<stop  offset="0.27" style="stop-color:#262B33"/>
			<stop  offset="0.45" style="stop-color:#74747E"/>
			<stop  offset="0.54" style="stop-color:#B0B0BC"/>
			<stop  offset="0.73" style="stop-color:#74747E"/>
		</linearGradient>
		<path fill="url(#SVGID_00000153666177491759891070000002860296368341089433_)" d="M159.4,41.9c3.5,2.5,8.2,2,12,1.4
			c2.5-0.4-1.4,3.3-5.7,12c-4.3,8.6-4.1,9.2-4.7,8.6c-0.6-0.6-20-11.6-19.4-12.5c0.8-1,3.9-22.4,5.5-21.8
			C152.7,30.9,153.7,37.7,159.4,41.9L159.4,41.9z"/>
		
			<linearGradient id="SVGID_00000132046742418497501460000016936677441903358856_" gradientUnits="userSpaceOnUse" x1="-82.7697" y1="400.8931" x2="-81.911" y2="400.9551" gradientTransform="matrix(37.163 0 0 -20.8032 3204.2417 8400.2969)">
			<stop  offset="0.14" style="stop-color:#606E84"/>
			<stop  offset="0.4" style="stop-color:#9899A5"/>
			<stop  offset="0.73" style="stop-color:#475768"/>
			<stop  offset="0.92" style="stop-color:#262B33"/>
		</linearGradient>
		<path fill="url(#SVGID_00000132046742418497501460000016936677441903358856_)" d="M129.2,66c1.4-2.2,7.6-15.5,17.6-15.5
			c4.5,0,13.1,11.4,13.9,12.9c0.6,1.4-1.4,6.9-2.4,4.3c-1.2-2.9-6.1-9.2-11.4-9.2s-12.6,6.1-14.3,8.2
			C130.9,68.7,127.8,68.1,129.2,66L129.2,66z"/>
		
			<linearGradient id="SVGID_00000134246429879171184430000011407660304735303575_" gradientUnits="userSpaceOnUse" x1="-82.2677" y1="402.1083" x2="-82.359" y2="402.4968" gradientTransform="matrix(33.8922 0 0 -25.4145 2930.8687 10281.0293)">
			<stop  offset="0" style="stop-color:#101215;stop-opacity:0.1"/>
			<stop  offset="0.46" style="stop-color:#101215;stop-opacity:0.7"/>
			<stop  offset="0.7" style="stop-color:#474951"/>
			<stop  offset="0.91" style="stop-color:#7B7D88"/>
		</linearGradient>
		<path fill="url(#SVGID_00000134246429879171184430000011407660304735303575_)" d="M128.8,65.2c1-1.6,5.5-8.4,7.6-10.6
			c2.2-2.2,7.6-7.8,12.4-8.6c4.7-0.8,9.6,8.8,8,10.8c-1.2,1.4-3.1-0.2-5.5-2.2c-2.4-1.8-3.9-5.3-11.4,0.4c-2.5,2-5.1,3.5-11,12
			C127.4,69.1,127.8,66.8,128.8,65.2L128.8,65.2z"/>
		
			<linearGradient id="SVGID_00000031925501007907024440000012218480694081378971_" gradientUnits="userSpaceOnUse" x1="-82.5192" y1="407.6266" x2="-82.3882" y2="407.5284" gradientTransform="matrix(97.4883 0 0 -148.4503 8101.835 60675.3906)">
			<stop  offset="0.115" style="stop-color:#2C3952"/>
			<stop  offset="0.374" style="stop-color:#3D414E"/>
			<stop  offset="0.55" style="stop-color:#474A54"/>
			<stop  offset="0.754" style="stop-color:#4E5057"/>
			<stop  offset="0.892" style="stop-color:#323945"/>
			<stop  offset="1" style="stop-color:#143052"/>
		</linearGradient>
		<path fill="url(#SVGID_00000031925501007907024440000012218480694081378971_)" d="M104.5,122.5c0.8-1.6,1.8-3.9-0.4-5.7
			c-2.4-1.8-13.3-7.6-15.3-8c-2-0.4-3.5,0-4.3,1.4c-0.8,1.4-61,104.5-62.2,107.5c-1.2,2.9-1.4,5.1,0.4,5.7
			c1.8,0.6,22,10.2,23.9,12.4c2,2.2,2.9-0.2,3.7-1.4C54.1,229.5,103.5,124,104.5,122.5z"/>
		
			<linearGradient id="SVGID_00000117636044696527824500000017280782853063176105_" gradientUnits="userSpaceOnUse" x1="-82.7333" y1="406.0583" x2="-82.4897" y2="406.4542" gradientTransform="matrix(94.0395 0 0 -69.6634 7871.9839 28341.3359)">
			<stop  offset="0.118" style="stop-color:#6D7078;stop-opacity:0"/>
			<stop  offset="0.2" style="stop-color:#6D7078;stop-opacity:0.7"/>
			<stop  offset="0.34" style="stop-color:#35363A"/>
			<stop  offset="0.374" style="stop-color:#1D1F22"/>
			<stop  offset="0.4" style="stop-color:#101215"/>
			<stop  offset="0.5" style="stop-color:#16171A"/>
			<stop  offset="0.56" style="stop-color:#292A2E"/>
			<stop  offset="0.688" style="stop-color:#4B4D51"/>
			<stop  offset="0.807" style="stop-color:#63666B"/>
			<stop  offset="0.915" style="stop-color:#72757B"/>
			<stop  offset="1" style="stop-color:#777A80"/>
		</linearGradient>
		<path fill="url(#SVGID_00000117636044696527824500000017280782853063176105_)" d="M130.1,64.8c1-1.4,3.3-5.3,6.3-8.8
			c2-2.4,12.6-7.5,14.9-15.7c1.4-4.5-0.8-9-3.7-11c-10-6.1-27.3-15.7-52.6-15.7c-17.1,0-24.3,5.7-24.3,5.7h8.6l30,11.8l3.7,15.7
			c0,0,0.4,5.3-1.4,11.4c-1.2,4.9-1.6,7.8-3.3,12.7c1.4,0.6,4.5-1.6,8-0.6c3.1,0.8,5.1,5.1,7.3,2.5C127.4,67.9,128.6,67,130.1,64.8
			L130.1,64.8z"/>
		
			<linearGradient id="SVGID_00000156581660540373756110000011904008608457817768_" gradientUnits="userSpaceOnUse" x1="-82.6961" y1="404.6574" x2="-81.8335" y2="404.6574" gradientTransform="matrix(49.9273 0 0 -41.9112 4199.252 16995.5449)">
			<stop  offset="0" style="stop-color:#4A4D56"/>
			<stop  offset="1" style="stop-color:#29292D"/>
		</linearGradient>
		<path fill="url(#SVGID_00000156581660540373756110000011904008608457817768_)" d="M112.5,52.6c-1.6-14.5-5.1-28.2-42-28
			c2.4-2.4,8-4.7,8-4.7l-8-0.6c0,0,1.2-1,3.5-1.2c21.6-1.8,40.8,2.7,39.4,30.8C113.3,53.4,112.9,55.4,112.5,52.6z"/>
		
			<linearGradient id="SVGID_00000124119759134105433740000011381582909728901290_" gradientUnits="userSpaceOnUse" x1="-82.6087" y1="396.698" x2="-81.7461" y2="396.698" gradientTransform="matrix(43.1691 0 0 -13.7824 3636.6062 5493.292)">
			<stop  offset="0" style="stop-color:#767880"/>
			<stop  offset="0.41" style="stop-color:#0C0A0B"/>
		</linearGradient>
		<path fill="url(#SVGID_00000124119759134105433740000011381582909728901290_)" d="M70.5,24.6c2.5-1,6.1-1.6,12.7-1.2
			c8.2,0.4,18.6,3.5,22.9,7.5c2.2,2,2,0.4-0.4-2.2c-6.1-7.1-15.3-8.6-27.3-8.8C77.2,19.7,72.7,22.2,70.5,24.6L70.5,24.6z"/>
		
			<linearGradient id="SVGID_00000115481561715599847450000002767764899095595650_" gradientUnits="userSpaceOnUse" x1="-82.4777" y1="403.8139" x2="-82.1736" y2="404.506" gradientTransform="matrix(27.541 0 0 -36.1902 2437.9282 14685.1553)">
			<stop  offset="0" style="stop-color:#858997"/>
			<stop  offset="0.23" style="stop-color:#244668"/>
			<stop  offset="0.282" style="stop-color:#1A3249"/>
			<stop  offset="0.4" style="stop-color:#040506"/>
			<stop  offset="0.464" style="stop-color:#313236"/>
			<stop  offset="0.546" style="stop-color:#65656E"/>
			<stop  offset="0.607" style="stop-color:#868691"/>
			<stop  offset="0.64" style="stop-color:#92929E"/>
		</linearGradient>
		<path fill="url(#SVGID_00000115481561715599847450000002767764899095595650_)" d="M171.7,43.2l10.8,5.5c0,0-4.1,5.5-7.5,11.8
			c-3.5,6.7-5.9,13.9-5.9,13.9l-10.4-6.3c0,0,2.5-7.1,6.3-13.9C168,48.5,171.7,43.2,171.7,43.2L171.7,43.2z"/>
		<path fill="#BFC0D0" d="M182.5,48.7c0.8,0.4-1.8,6.5-5.5,13.5c-3.7,7.1-7.3,12.5-7.8,12.2c-0.8-0.4,1.8-6.5,5.5-13.5
			C178.2,53.8,181.7,48.3,182.5,48.7L182.5,48.7z"/>
	</g>
</g>
</svg>
