
<svg xmlns="http://www.w3.org/2000/svg" xmlns:xlink="http://www.w3.org/1999/xlink" width="256" zoomAndPan="magnify" viewBox="0 0 375 374.999991" height="256" preserveAspectRatio="xMidYMid meet" version="1.0">
<defs>
<clipPath id="a15bde2fa1">
<path d="M 75 0 L 300 0 C 341.421875 0 375 33.578125 375 75 L 375 304.027344 C 375 345.445312 341.421875 379.027344 300 379.027344 L 75 379.027344 C 33.578125 379.027344 0 345.445312 0 304.027344 L 0 75 C 0 33.578125 33.578125 0 75 0 " clip-rule="nonzero"/>
</clipPath>
<clipPath id="cd637f62cc">
<path d="M 60.683594 62.699219 L 314.316406 62.699219 L 314.316406 316.328125 L 60.683594 316.328125 Z M 60.683594 62.699219 " clip-rule="nonzero"/>
</clipPath>
<clipPath id="0a511647d0">
<path d="M 187.5 62.699219 C 117.460938 62.699219 60.683594 119.476562 60.683594 189.511719 C 60.683594 259.550781 117.460938 316.328125 187.5 316.328125 C 257.539062 316.328125 314.316406 259.550781 314.316406 189.511719 C 314.316406 119.476562 257.539062 62.699219 187.5 62.699219 " clip-rule="nonzero"/>
</clipPath>
</defs>
<g clip-path="url(#a15bde2fa1)">
<path fill="#242938" d="M 0 0 L 374.414062 0 L 374.414062 379.6875 L 0 379.6875 Z M 0 0 " fill-opacity="1" fill-rule="nonzero"/>
</g>
<g clip-path="url(#cd637f62cc)">
<g clip-path="url(#0a511647d0)">
<path fill="#ffffff" d="M 60.683594 62.699219 L 314.316406 62.699219 L 314.316406 316.328125 L 60.683594 316.328125 Z M 60.683594 62.699219 " fill-opacity="1" fill-rule="nonzero"/>
</g>
</g>
<path fill="#2c8ebb" d="M 260.484375 224.058594 C 251.480469 224.164062 243.597656 228.808594 236.941406 232.957031 C 224.496094 240.652344 218.273438 240.15625 218.273438 240.15625 L 218.066406 239.804688 C 217.214844 238.414062 222.046875 225.949219 216.632812 211.097656 C 210.785156 194.855469 201.492188 190.933594 202.238281 189.691406 C 205.410156 184.316406 213.355469 175.792969 216.53125 159.90625 C 218.417969 150.28125 217.917969 134.433594 213.648438 126.136719 C 212.859375 124.601562 205.804688 128.707031 205.804688 128.707031 C 205.804688 128.707031 199.210938 114.003906 197.363281 112.820312 C 191.410156 109.003906 184.917969 128.605469 184.917969 128.605469 C 182.671875 128.382812 180.429688 128.425781 178.191406 128.730469 C 175.953125 129.03125 173.777344 129.589844 171.671875 130.398438 C 169.5625 131.210938 167.574219 132.25 165.710938 133.523438 C 163.84375 134.796875 162.152344 136.269531 160.628906 137.9375 C 158.339844 140.140625 155.679688 141.710938 152.644531 142.648438 C 151.792969 142.9375 150.757812 142.894531 148.183594 149.84375 C 144.242188 160.359375 154.90625 172.265625 154.90625 172.265625 C 154.90625 172.265625 142.191406 181.25 137.480469 192.429688 C 135.910156 196.261719 134.816406 200.226562 134.203125 204.324219 C 133.589844 208.417969 133.472656 212.53125 133.851562 216.65625 C 133.851562 216.65625 124.808594 224.496094 124.226562 232.585938 C 123.957031 235.417969 124.136719 238.222656 124.765625 241 C 125.390625 243.777344 126.4375 246.382812 127.898438 248.828125 C 128.011719 249.070312 128.148438 249.300781 128.308594 249.515625 C 128.46875 249.734375 128.648438 249.929688 128.851562 250.109375 C 129.050781 250.289062 129.265625 250.449219 129.496094 250.585938 C 129.730469 250.722656 129.972656 250.835938 130.226562 250.921875 C 130.480469 251.011719 130.742188 251.074219 131.007812 251.109375 C 131.277344 251.144531 131.542969 251.152344 131.8125 251.136719 C 132.082031 251.117188 132.34375 251.074219 132.605469 251 C 132.863281 250.929688 133.113281 250.835938 133.355469 250.714844 C 133.355469 250.714844 127.339844 257.726562 132.960938 260.691406 C 138.082031 263.367188 146.710938 264.839844 151.273438 260.296875 C 154.59375 256.976562 155.257812 249.574219 156.480469 246.542969 C 156.773438 245.839844 157.765625 247.726562 158.722656 248.617188 C 159.601562 249.390625 160.542969 250.082031 161.542969 250.691406 C 161.542969 250.691406 153.453125 254.179688 156.773438 262.121094 C 157.871094 264.757812 161.792969 266.4375 168.199219 266.394531 C 170.585938 266.394531 196.742188 264.902344 203.710938 263.222656 C 204.765625 263.054688 205.757812 262.710938 206.6875 262.1875 C 207.617188 261.667969 208.429688 261.003906 209.125 260.191406 C 220.492188 256.8125 231.203125 251.972656 241.253906 245.671875 C 251.085938 239.265625 255.109375 237.523438 263.054688 235.632812 C 269.609375 234.078125 269.171875 223.914062 260.484375 224.058594 Z M 260.484375 224.058594 " fill-opacity="1" fill-rule="nonzero"/>
<path fill="#2c8ebb" d="M 187.386719 60.796875 C 185.28125 60.796875 183.179688 60.851562 181.078125 60.953125 C 178.976562 61.054688 176.875 61.210938 174.78125 61.417969 C 172.6875 61.625 170.597656 61.882812 168.515625 62.191406 C 166.433594 62.5 164.363281 62.859375 162.296875 63.269531 C 160.234375 63.679688 158.179688 64.140625 156.140625 64.652344 C 154.097656 65.164062 152.070312 65.726562 150.054688 66.335938 C 148.042969 66.945312 146.042969 67.605469 144.0625 68.316406 C 142.082031 69.023438 140.117188 69.78125 138.171875 70.585938 C 136.230469 71.394531 134.304688 72.246094 132.402344 73.144531 C 130.5 74.046875 128.621094 74.992188 126.765625 75.984375 C 124.910156 76.976562 123.078125 78.011719 121.273438 79.09375 C 119.46875 80.175781 117.691406 81.300781 115.941406 82.472656 C 114.191406 83.640625 112.46875 84.851562 110.777344 86.105469 C 109.089844 87.359375 107.429688 88.65625 105.804688 89.988281 C 104.175781 91.324219 102.582031 92.699219 101.023438 94.113281 C 99.464844 95.527344 97.941406 96.976562 96.453125 98.464844 C 94.964844 99.953125 93.511719 101.476562 92.101562 103.035156 C 90.6875 104.597656 89.3125 106.1875 87.976562 107.816406 C 86.640625 109.441406 85.347656 111.101562 84.09375 112.792969 C 82.839844 114.484375 81.628906 116.203125 80.457031 117.953125 C 79.289062 119.703125 78.164062 121.480469 77.082031 123.285156 C 76 125.089844 74.960938 126.921875 73.96875 128.777344 C 72.976562 130.632812 72.03125 132.511719 71.132812 134.414062 C 70.234375 136.316406 69.378906 138.242188 68.574219 140.1875 C 67.769531 142.128906 67.011719 144.09375 66.304688 146.074219 C 65.59375 148.058594 64.933594 150.054688 64.324219 152.070312 C 63.710938 154.082031 63.152344 156.109375 62.640625 158.152344 C 62.128906 160.195312 61.667969 162.246094 61.257812 164.3125 C 60.847656 166.375 60.484375 168.449219 60.175781 170.53125 C 59.867188 172.613281 59.609375 174.699219 59.40625 176.792969 C 59.199219 178.890625 59.042969 180.988281 58.941406 183.089844 C 58.835938 185.191406 58.785156 187.296875 58.785156 189.398438 C 58.785156 191.503906 58.835938 193.609375 58.941406 195.710938 C 59.042969 197.8125 59.199219 199.910156 59.40625 202.003906 C 59.609375 204.101562 59.867188 206.1875 60.175781 208.269531 C 60.484375 210.351562 60.847656 212.425781 61.257812 214.488281 C 61.667969 216.554688 62.128906 218.605469 62.640625 220.648438 C 63.152344 222.6875 63.710938 224.71875 64.324219 226.730469 C 64.933594 228.746094 65.59375 230.742188 66.304688 232.722656 C 67.011719 234.707031 67.769531 236.667969 68.574219 238.613281 C 69.378906 240.558594 70.234375 242.480469 71.132812 244.382812 C 72.03125 246.285156 72.976562 248.167969 73.96875 250.023438 C 74.960938 251.878906 76 253.710938 77.082031 255.515625 C 78.164062 257.320312 79.289062 259.097656 80.457031 260.847656 C 81.628906 262.597656 82.839844 264.316406 84.09375 266.007812 C 85.347656 267.699219 86.640625 269.355469 87.976562 270.984375 C 89.3125 272.609375 90.6875 274.203125 92.101562 275.761719 C 93.511719 277.324219 94.964844 278.847656 96.453125 280.335938 C 97.941406 281.824219 99.464844 283.273438 101.023438 284.6875 C 102.582031 286.101562 104.175781 287.476562 105.804688 288.808594 C 107.429688 290.144531 109.089844 291.441406 110.777344 292.695312 C 112.46875 293.949219 114.191406 295.160156 115.941406 296.328125 C 117.691406 297.496094 119.46875 298.625 121.273438 299.707031 C 123.078125 300.789062 124.910156 301.824219 126.765625 302.816406 C 128.621094 303.808594 130.5 304.753906 132.402344 305.65625 C 134.304688 306.554688 136.230469 307.40625 138.171875 308.210938 C 140.117188 309.019531 142.082031 309.773438 144.0625 310.484375 C 146.042969 311.191406 148.042969 311.851562 150.054688 312.464844 C 152.070312 313.074219 154.097656 313.636719 156.140625 314.148438 C 158.179688 314.660156 160.234375 315.121094 162.296875 315.53125 C 164.363281 315.941406 166.433594 316.300781 168.515625 316.609375 C 170.597656 316.917969 172.6875 317.175781 174.78125 317.382812 C 176.875 317.589844 178.976562 317.742188 181.078125 317.847656 C 183.179688 317.949219 185.28125 318 187.386719 318 C 189.492188 318 191.59375 317.949219 193.695312 317.847656 C 195.800781 317.742188 197.898438 317.589844 199.992188 317.382812 C 202.085938 317.175781 204.175781 316.917969 206.257812 316.609375 C 208.339844 316.300781 210.410156 315.941406 212.476562 315.53125 C 214.539062 315.121094 216.59375 314.660156 218.632812 314.148438 C 220.675781 313.636719 222.703125 313.074219 224.71875 312.464844 C 226.730469 311.851562 228.730469 311.191406 230.710938 310.484375 C 232.691406 309.773438 234.65625 309.019531 236.601562 308.210938 C 238.546875 307.40625 240.46875 306.554688 242.371094 305.65625 C 244.273438 304.753906 246.152344 303.808594 248.007812 302.816406 C 249.867188 301.824219 251.695312 300.789062 253.5 299.707031 C 255.308594 298.625 257.085938 297.496094 258.835938 296.328125 C 260.585938 295.160156 262.304688 293.949219 263.996094 292.695312 C 265.683594 291.441406 267.34375 290.144531 268.972656 288.808594 C 270.597656 287.476562 272.191406 286.101562 273.75 284.6875 C 275.308594 283.273438 276.832031 281.824219 278.320312 280.335938 C 279.808594 278.847656 281.261719 277.324219 282.675781 275.761719 C 284.089844 274.203125 285.460938 272.609375 286.796875 270.984375 C 288.132812 269.355469 289.425781 267.699219 290.679688 266.007812 C 291.933594 264.316406 293.144531 262.597656 294.316406 260.847656 C 295.484375 259.097656 296.609375 257.320312 297.691406 255.515625 C 298.773438 253.710938 299.8125 251.878906 300.804688 250.023438 C 301.796875 248.167969 302.742188 246.285156 303.640625 244.382812 C 304.542969 242.480469 305.394531 240.558594 306.199219 238.613281 C 307.003906 236.667969 307.761719 234.707031 308.472656 232.722656 C 309.179688 230.742188 309.839844 228.746094 310.449219 226.730469 C 311.0625 224.71875 311.625 222.6875 312.132812 220.648438 C 312.644531 218.605469 313.105469 216.554688 313.519531 214.488281 C 313.929688 212.425781 314.289062 210.351562 314.597656 208.269531 C 314.90625 206.1875 315.164062 204.101562 315.371094 202.003906 C 315.574219 199.910156 315.730469 197.8125 315.832031 195.710938 C 315.9375 193.609375 315.988281 191.503906 315.988281 189.398438 C 315.988281 187.296875 315.9375 185.191406 315.832031 183.089844 C 315.730469 180.988281 315.574219 178.890625 315.371094 176.792969 C 315.164062 174.699219 314.90625 172.613281 314.597656 170.53125 C 314.289062 168.449219 313.929688 166.375 313.519531 164.3125 C 313.105469 162.246094 312.644531 160.195312 312.132812 158.152344 C 311.625 156.109375 311.0625 154.082031 310.449219 152.070312 C 309.839844 150.054688 309.179688 148.058594 308.472656 146.074219 C 307.761719 144.09375 307.003906 142.128906 306.199219 140.1875 C 305.394531 138.242188 304.542969 136.316406 303.640625 134.414062 C 302.742188 132.511719 301.796875 130.632812 300.804688 128.777344 C 299.8125 126.921875 298.773438 125.089844 297.691406 123.285156 C 296.609375 121.480469 295.484375 119.703125 294.316406 117.953125 C 293.144531 116.203125 291.933594 114.484375 290.679688 112.792969 C 289.425781 111.101562 288.132812 109.441406 286.796875 107.816406 C 285.460938 106.1875 284.089844 104.597656 282.675781 103.035156 C 281.261719 101.476562 279.808594 99.953125 278.320312 98.464844 C 276.832031 96.976562 275.308594 95.527344 273.75 94.113281 C 272.191406 92.699219 270.597656 91.324219 268.972656 89.988281 C 267.34375 88.65625 265.683594 87.359375 263.996094 86.105469 C 262.304688 84.851562 260.585938 83.640625 258.835938 82.472656 C 257.085938 81.300781 255.308594 80.175781 253.5 79.09375 C 251.695312 78.011719 249.867188 76.976562 248.007812 75.984375 C 246.152344 74.992188 244.273438 74.046875 242.371094 73.144531 C 240.46875 72.246094 238.546875 71.394531 236.601562 70.585938 C 234.65625 69.78125 232.691406 69.023438 230.710938 68.316406 C 228.730469 67.605469 226.730469 66.945312 224.71875 66.335938 C 222.703125 65.726562 220.675781 65.164062 218.632812 64.652344 C 216.59375 64.140625 214.539062 63.679688 212.476562 63.269531 C 210.410156 62.859375 208.339844 62.5 206.257812 62.191406 C 204.175781 61.882812 202.085938 61.625 199.992188 61.417969 C 197.898438 61.210938 195.800781 61.054688 193.695312 60.953125 C 191.59375 60.851562 189.492188 60.796875 187.386719 60.796875 Z M 264.753906 242.976562 C 257.808594 244.65625 254.570312 245.964844 245.238281 252.019531 C 235.117188 258.371094 224.359375 263.335938 212.960938 266.914062 C 210.738281 268.738281 208.222656 269.960938 205.410156 270.585938 C 197.507812 272.515625 170.398438 273.964844 168.261719 273.964844 L 167.765625 273.964844 C 159.46875 273.964844 154.757812 271.394531 152.230469 268.699219 C 145.175781 272.222656 136.050781 270.773438 129.414062 267.265625 C 128.617188 266.875 127.878906 266.402344 127.191406 265.839844 C 126.507812 265.28125 125.894531 264.648438 125.355469 263.949219 C 124.816406 263.246094 124.363281 262.492188 123.996094 261.6875 C 123.632812 260.882812 123.363281 260.042969 123.191406 259.175781 C 122.941406 257.753906 122.941406 256.328125 123.191406 254.902344 C 122.578125 254.265625 122.03125 253.574219 121.550781 252.828125 C 119.667969 249.695312 118.324219 246.34375 117.523438 242.773438 C 116.722656 239.207031 116.5 235.601562 116.863281 231.964844 C 117.464844 224.226562 122.816406 217.320312 126.300781 213.648438 C 126.007812 205.261719 127.433594 197.179688 130.574219 189.398438 C 133.949219 182.160156 138.664062 175.9375 144.71875 170.730469 C 141.296875 164.964844 137.8125 156.089844 141.195312 147.042969 C 143.621094 140.59375 145.613281 137.003906 149.988281 135.46875 C 151.921875 134.914062 153.65625 133.984375 155.195312 132.691406 C 156.777344 130.972656 158.507812 129.421875 160.382812 128.035156 C 162.261719 126.648438 164.253906 125.453125 166.363281 124.445312 C 168.46875 123.441406 170.652344 122.644531 172.910156 122.054688 C 175.171875 121.46875 177.464844 121.101562 179.796875 120.949219 C 180.191406 119.957031 180.644531 118.875 181.144531 117.921875 C 184.460938 110.871094 187.988281 106.910156 192.117188 105.476562 C 192.863281 105.199219 193.632812 105.007812 194.425781 104.910156 C 195.21875 104.8125 196.011719 104.8125 196.804688 104.902344 C 197.597656 104.992188 198.367188 105.171875 199.117188 105.445312 C 199.867188 105.71875 200.578125 106.074219 201.242188 106.515625 C 202.589844 107.40625 204.3125 108.589844 209.332031 118.960938 C 211.28125 118.261719 213.25 118.191406 215.242188 118.753906 C 216.316406 119.042969 217.285156 119.539062 218.148438 120.242188 C 219.011719 120.941406 219.695312 121.785156 220.203125 122.777344 C 225.324219 132.609375 226.007812 150.136719 223.769531 161.398438 C 222.773438 166.382812 221.257812 171.203125 219.214844 175.859375 C 217.171875 180.515625 214.652344 184.898438 211.65625 189.007812 C 217.078125 194.648438 221.070312 201.167969 223.625 208.566406 C 226.117188 215.558594 227.09375 222.753906 226.546875 230.160156 C 228.78125 229.089844 230.9375 227.886719 233.019531 226.550781 C 239.367188 222.628906 248.949219 216.71875 260.378906 216.570312 C 261.238281 216.515625 262.09375 216.539062 262.949219 216.640625 C 263.804688 216.746094 264.640625 216.925781 265.460938 217.1875 C 266.28125 217.449219 267.070312 217.785156 267.828125 218.195312 C 268.585938 218.605469 269.296875 219.082031 269.964844 219.625 C 270.632812 220.167969 271.246094 220.769531 271.800781 221.429688 C 272.355469 222.085938 272.84375 222.792969 273.265625 223.542969 C 273.6875 224.292969 274.035156 225.074219 274.308594 225.890625 C 274.585938 226.707031 274.78125 227.542969 274.898438 228.394531 C 275.003906 229.203125 275.039062 230.011719 274.996094 230.828125 C 274.953125 231.640625 274.835938 232.441406 274.644531 233.234375 C 274.449219 234.027344 274.1875 234.792969 273.855469 235.535156 C 273.519531 236.277344 273.121094 236.984375 272.65625 237.652344 C 272.191406 238.320312 271.667969 238.941406 271.085938 239.515625 C 270.507812 240.085938 269.878906 240.597656 269.203125 241.054688 C 268.527344 241.507812 267.816406 241.898438 267.070312 242.222656 C 266.320312 242.546875 265.550781 242.796875 264.753906 242.976562 Z M 264.753906 242.976562 " fill-opacity="1" fill-rule="nonzero"/>
</svg>