<svg xmlns="http://www.w3.org/2000/svg" xmlns:xlink="http://www.w3.org/1999/xlink" width="256" zoomAndPan="magnify" viewBox="0 0 375 374.999991" height="256" preserveAspectRatio="xMidYMid meet" version="1.0">
<defs>
<clipPath id="849694ca2d">
<path d="M 75 0 L 300 0 C 341.421875 0 375 33.578125 375 75 L 375 304.027344 C 375 345.445312 341.421875 379.027344 300 379.027344 L 75 379.027344 C 33.578125 379.027344 0 345.445312 0 304.027344 L 0 75 C 0 33.578125 33.578125 0 75 0 " clip-rule="nonzero"/>
</clipPath>
<clipPath id="1ff0ca9085">
<path d="M 60.683594 62.699219 L 314.316406 62.699219 L 314.316406 316.328125 L 60.683594 316.328125 Z M 60.683594 62.699219 " clip-rule="nonzero"/>
</clipPath>
<clipPath id="f351491355">
<path d="M 187.5 62.699219 C 117.460938 62.699219 60.683594 119.476562 60.683594 189.511719 C 60.683594 259.550781 117.460938 316.328125 187.5 316.328125 C 257.539062 316.328125 314.316406 259.550781 314.316406 189.511719 C 314.316406 119.476562 257.539062 62.699219 187.5 62.699219 " clip-rule="nonzero"/>
</clipPath>
</defs>
<g clip-path="url(#849694ca2d)">
<path fill="#242938" d="M 0 0 L 374.414062 0 L 374.414062 379.6875 L 0 379.6875 Z M 0 0 " fill-opacity="1" fill-rule="nonzero"/>
</g>
<g clip-path="url(#1ff0ca9085)">
<g clip-path="url(#f351491355)">
<path fill="#ffffff" d="M 60.683594 62.699219 L 314.316406 62.699219 L 314.316406 316.328125 L 60.683594 316.328125 Z M 60.683594 62.699219 " fill-opacity="1" fill-rule="nonzero"/>
</g>
</g>
<path fill="#2c8ebb" d="M 270.09375 226.664062 C 259.921875 226.78125 251.015625 232.03125 243.492188 236.71875 C 229.429688 245.414062 222.398438 244.851562 222.398438 244.851562 L 222.164062 244.453125 C 221.203125 242.882812 226.664062 228.796875 220.546875 212.015625 C 213.9375 193.664062 203.4375 189.234375 204.28125 187.828125 C 207.867188 181.757812 216.84375 172.125 220.429688 154.171875 C 222.5625 143.296875 222 125.390625 217.171875 116.015625 C 216.28125 114.28125 208.3125 118.921875 208.3125 118.921875 C 208.3125 118.921875 200.859375 102.304688 198.773438 100.96875 C 192.046875 96.65625 184.710938 118.804688 184.710938 118.804688 C 182.171875 118.554688 179.636719 118.601562 177.109375 118.945312 C 174.578125 119.289062 172.125 119.917969 169.742188 120.832031 C 167.359375 121.746094 165.113281 122.925781 163.007812 124.363281 C 160.898438 125.804688 158.984375 127.464844 157.265625 129.351562 C 154.679688 131.839844 151.671875 133.617188 148.242188 134.671875 C 147.28125 135 146.109375 134.953125 143.203125 142.804688 C 138.75 154.6875 150.796875 168.140625 150.796875 168.140625 C 150.796875 168.140625 136.429688 178.289062 131.109375 190.921875 C 129.332031 195.253906 128.097656 199.730469 127.402344 204.363281 C 126.710938 208.992188 126.578125 213.636719 127.007812 218.296875 C 127.007812 218.296875 116.789062 227.15625 116.132812 236.296875 C 115.828125 239.5 116.03125 242.667969 116.738281 245.804688 C 117.449219 248.941406 118.628906 251.890625 120.28125 254.648438 C 120.410156 254.925781 120.566406 255.183594 120.746094 255.429688 C 120.925781 255.671875 121.128906 255.894531 121.355469 256.101562 C 121.582031 256.304688 121.828125 256.480469 122.089844 256.636719 C 122.351562 256.792969 122.625 256.917969 122.914062 257.019531 C 123.199219 257.117188 123.496094 257.1875 123.796875 257.226562 C 124.097656 257.269531 124.398438 257.277344 124.703125 257.257812 C 125.007812 257.238281 125.304688 257.1875 125.597656 257.105469 C 125.890625 257.027344 126.171875 256.917969 126.445312 256.78125 C 126.445312 256.78125 119.648438 264.703125 126 268.054688 C 131.789062 271.078125 141.539062 272.742188 146.695312 267.609375 C 150.445312 263.859375 151.195312 255.492188 152.578125 252.070312 C 152.90625 251.273438 154.03125 253.40625 155.109375 254.414062 C 156.105469 255.285156 157.167969 256.066406 158.296875 256.757812 C 158.296875 256.757812 149.15625 260.695312 152.90625 269.671875 C 154.148438 272.648438 158.578125 274.546875 165.820312 274.5 C 168.515625 274.5 198.070312 272.8125 205.945312 270.914062 C 207.136719 270.726562 208.257812 270.335938 209.308594 269.746094 C 210.359375 269.160156 211.277344 268.40625 212.0625 267.492188 C 224.910156 263.671875 237.011719 258.203125 248.367188 251.085938 C 259.476562 243.84375 264.023438 241.875 273 239.742188 C 280.40625 237.984375 279.914062 226.5 270.09375 226.664062 Z M 270.09375 226.664062 " fill-opacity="1" fill-rule="nonzero"/>
<path fill="#2c8ebb" d="M 187.5 42.1875 C 185.121094 42.1875 182.746094 42.246094 180.371094 42.363281 C 177.996094 42.480469 175.625 42.652344 173.257812 42.886719 C 170.890625 43.121094 168.53125 43.410156 166.179688 43.761719 C 163.824219 44.109375 161.484375 44.515625 159.152344 44.980469 C 156.820312 45.445312 154.5 45.964844 152.191406 46.542969 C 149.886719 47.121094 147.59375 47.753906 145.316406 48.445312 C 143.042969 49.136719 140.785156 49.878906 138.546875 50.683594 C 136.304688 51.484375 134.089844 52.339844 131.890625 53.25 C 129.695312 54.160156 127.519531 55.121094 125.371094 56.140625 C 123.222656 57.15625 121.097656 58.226562 119 59.347656 C 116.902344 60.46875 114.835938 61.640625 112.792969 62.859375 C 110.753906 64.082031 108.746094 65.355469 106.769531 66.675781 C 104.792969 68 102.847656 69.367188 100.9375 70.785156 C 99.027344 72.199219 97.152344 73.664062 95.316406 75.171875 C 93.476562 76.679688 91.675781 78.234375 89.914062 79.832031 C 88.152344 81.425781 86.429688 83.066406 84.75 84.75 C 83.066406 86.429688 81.425781 88.152344 79.832031 89.914062 C 78.234375 91.675781 76.679688 93.476562 75.171875 95.316406 C 73.664062 97.152344 72.199219 99.027344 70.785156 100.9375 C 69.367188 102.847656 68 104.792969 66.675781 106.769531 C 65.355469 108.746094 64.082031 110.753906 62.859375 112.792969 C 61.640625 114.835938 60.46875 116.902344 59.347656 119 C 58.226562 121.097656 57.15625 123.222656 56.140625 125.371094 C 55.121094 127.519531 54.160156 129.695312 53.25 131.890625 C 52.339844 134.089844 51.484375 136.304688 50.683594 138.546875 C 49.878906 140.785156 49.136719 143.042969 48.445312 145.316406 C 47.753906 147.59375 47.121094 149.886719 46.542969 152.191406 C 45.964844 154.5 45.445312 156.820312 44.980469 159.152344 C 44.515625 161.484375 44.109375 163.824219 43.761719 166.179688 C 43.410156 168.53125 43.121094 170.890625 42.886719 173.257812 C 42.652344 175.625 42.480469 177.996094 42.363281 180.371094 C 42.246094 182.746094 42.1875 185.121094 42.1875 187.5 C 42.1875 189.878906 42.246094 192.253906 42.363281 194.628906 C 42.480469 197.003906 42.652344 199.375 42.886719 201.742188 C 43.121094 204.109375 43.410156 206.46875 43.761719 208.820312 C 44.109375 211.175781 44.515625 213.515625 44.980469 215.847656 C 45.445312 218.179688 45.964844 220.5 46.542969 222.808594 C 47.121094 225.113281 47.753906 227.40625 48.445312 229.683594 C 49.136719 231.957031 49.878906 234.214844 50.683594 236.453125 C 51.484375 238.695312 52.339844 240.910156 53.25 243.109375 C 54.160156 245.304688 55.121094 247.480469 56.140625 249.628906 C 57.15625 251.777344 58.226562 253.902344 59.347656 256 C 60.46875 258.097656 61.640625 260.164062 62.859375 262.207031 C 64.082031 264.246094 65.355469 266.253906 66.675781 268.230469 C 68 270.207031 69.367188 272.152344 70.785156 274.0625 C 72.199219 275.972656 73.664062 277.847656 75.171875 279.683594 C 76.679688 281.523438 78.234375 283.324219 79.832031 285.085938 C 81.425781 286.847656 83.066406 288.570312 84.75 290.25 C 86.429688 291.933594 88.152344 293.574219 89.914062 295.167969 C 91.675781 296.765625 93.476562 298.320312 95.316406 299.828125 C 97.152344 301.335938 99.027344 302.800781 100.9375 304.214844 C 102.847656 305.632812 104.792969 307 106.769531 308.324219 C 108.746094 309.644531 110.753906 310.917969 112.792969 312.136719 C 114.835938 313.359375 116.902344 314.53125 119 315.652344 C 121.097656 316.773438 123.222656 317.84375 125.371094 318.859375 C 127.519531 319.878906 129.695312 320.839844 131.890625 321.75 C 134.089844 322.660156 136.304688 323.515625 138.546875 324.316406 C 140.785156 325.121094 143.042969 325.863281 145.316406 326.554688 C 147.59375 327.246094 149.886719 327.878906 152.191406 328.457031 C 154.5 329.035156 156.820312 329.554688 159.152344 330.019531 C 161.484375 330.484375 163.824219 330.890625 166.179688 331.238281 C 168.53125 331.589844 170.890625 331.878906 173.257812 332.113281 C 175.625 332.347656 177.996094 332.519531 180.371094 332.636719 C 182.746094 332.753906 185.121094 332.8125 187.5 332.8125 C 189.878906 332.8125 192.253906 332.753906 194.628906 332.636719 C 197.003906 332.519531 199.375 332.347656 201.742188 332.113281 C 204.109375 331.878906 206.46875 331.589844 208.820312 331.238281 C 211.175781 330.890625 213.515625 330.484375 215.847656 330.019531 C 218.179688 329.554688 220.5 329.035156 222.808594 328.457031 C 225.113281 327.878906 227.40625 327.246094 229.683594 326.554688 C 231.957031 325.863281 234.214844 325.121094 236.453125 324.316406 C 238.695312 323.515625 240.910156 322.660156 243.109375 321.75 C 245.304688 320.839844 247.480469 319.878906 249.628906 318.859375 C 251.777344 317.84375 253.902344 316.773438 256 315.652344 C 258.097656 314.53125 260.164062 313.359375 262.207031 312.136719 C 264.246094 310.917969 266.253906 309.644531 268.230469 308.324219 C 270.207031 307 272.152344 305.632812 274.0625 304.214844 C 275.972656 302.800781 277.847656 301.335938 279.683594 299.828125 C 281.523438 298.320312 283.324219 296.765625 285.085938 295.167969 C 286.847656 293.574219 288.570312 291.933594 290.25 290.25 C 291.933594 288.570312 293.574219 286.847656 295.167969 285.085938 C 296.765625 283.324219 298.320312 281.523438 299.828125 279.683594 C 301.335938 277.847656 302.800781 275.972656 304.214844 274.0625 C 305.632812 272.152344 307 270.207031 308.324219 268.230469 C 309.644531 266.253906 310.917969 264.246094 312.136719 262.207031 C 313.359375 260.164062 314.53125 258.097656 315.652344 256 C 316.773438 253.902344 317.84375 251.777344 318.859375 249.628906 C 319.878906 247.480469 320.839844 245.304688 321.75 243.109375 C 322.660156 240.910156 323.515625 238.695312 324.316406 236.453125 C 325.121094 234.214844 325.863281 231.957031 326.554688 229.683594 C 327.246094 227.40625 327.878906 225.113281 328.457031 222.808594 C 329.035156 220.5 329.554688 218.179688 330.019531 215.847656 C 330.484375 213.515625 330.890625 211.175781 331.238281 208.820312 C 331.589844 206.46875 331.878906 204.109375 332.113281 201.742188 C 332.347656 199.375 332.519531 197.003906 332.636719 194.628906 C 332.753906 192.253906 332.8125 189.878906 332.8125 187.5 C 332.8125 185.121094 332.753906 182.746094 332.636719 180.371094 C 332.519531 177.996094 332.347656 175.625 332.113281 173.257812 C 331.878906 170.890625 331.589844 168.53125 331.238281 166.179688 C 330.890625 163.824219 330.484375 161.484375 330.019531 159.152344 C 329.554688 156.820312 329.035156 154.5 328.457031 152.191406 C 327.878906 149.886719 327.246094 147.59375 326.554688 145.316406 C 325.863281 143.042969 325.121094 140.785156 324.316406 138.546875 C 323.515625 136.304688 322.660156 134.089844 321.75 131.890625 C 320.839844 129.695312 319.878906 127.519531 318.859375 125.371094 C 317.84375 123.222656 316.773438 121.097656 315.652344 119 C 314.53125 116.902344 313.359375 114.835938 312.136719 112.792969 C 310.917969 110.753906 309.644531 108.746094 308.324219 106.769531 C 307 104.792969 305.632812 102.847656 304.214844 100.9375 C 302.800781 99.027344 301.335938 97.152344 299.828125 95.316406 C 298.320312 93.476562 296.765625 91.675781 295.167969 89.914062 C 293.574219 88.152344 291.933594 86.429688 290.25 84.75 C 288.570312 83.066406 286.847656 81.425781 285.085938 79.832031 C 283.324219 78.234375 281.523438 76.679688 279.683594 75.171875 C 277.847656 73.664062 275.972656 72.199219 274.0625 70.785156 C 272.152344 69.367188 270.207031 68 268.230469 66.675781 C 266.253906 65.355469 264.246094 64.082031 262.207031 62.859375 C 260.164062 61.640625 258.097656 60.46875 256 59.347656 C 253.902344 58.226562 251.777344 57.15625 249.628906 56.140625 C 247.480469 55.121094 245.304688 54.160156 243.109375 53.25 C 240.910156 52.339844 238.695312 51.484375 236.453125 50.683594 C 234.214844 49.878906 231.957031 49.136719 229.683594 48.445312 C 227.40625 47.753906 225.113281 47.121094 222.808594 46.542969 C 220.5 45.964844 218.179688 45.445312 215.847656 44.980469 C 213.515625 44.515625 211.175781 44.109375 208.820312 43.761719 C 206.46875 43.410156 204.109375 43.121094 201.742188 42.886719 C 199.375 42.652344 197.003906 42.480469 194.628906 42.363281 C 192.253906 42.246094 189.878906 42.1875 187.5 42.1875 Z M 274.921875 248.039062 C 267.070312 249.9375 263.414062 251.414062 252.867188 258.257812 C 241.433594 265.433594 229.277344 271.042969 216.398438 275.085938 C 213.886719 277.148438 211.042969 278.53125 207.867188 279.234375 C 198.9375 281.414062 168.304688 283.054688 165.890625 283.054688 L 165.328125 283.054688 C 155.953125 283.054688 150.632812 280.148438 147.773438 277.101562 C 139.804688 281.085938 129.492188 279.445312 121.992188 275.484375 C 121.09375 275.042969 120.257812 274.507812 119.484375 273.875 C 118.710938 273.242188 118.019531 272.527344 117.410156 271.734375 C 116.796875 270.941406 116.285156 270.089844 115.875 269.179688 C 115.460938 268.269531 115.15625 267.324219 114.960938 266.34375 C 114.679688 264.734375 114.679688 263.125 114.960938 261.515625 C 114.269531 260.792969 113.652344 260.011719 113.109375 259.171875 C 110.980469 255.628906 109.464844 251.84375 108.558594 247.808594 C 107.652344 243.777344 107.402344 239.707031 107.8125 235.59375 C 108.492188 226.851562 114.539062 219.046875 118.476562 214.898438 C 118.3125 210.214844 118.636719 205.5625 119.453125 200.945312 C 120.265625 196.328125 121.550781 191.847656 123.304688 187.5 C 125.191406 183.457031 127.480469 179.65625 130.175781 176.101562 C 132.867188 172.546875 135.90625 169.316406 139.289062 166.40625 C 135.421875 159.890625 131.484375 149.859375 135.304688 139.640625 C 138.046875 132.351562 140.296875 128.296875 145.242188 126.5625 C 147.425781 125.933594 149.386719 124.886719 151.125 123.421875 C 152.910156 121.480469 154.867188 119.726562 156.988281 118.160156 C 159.109375 116.59375 161.363281 115.242188 163.742188 114.105469 C 166.125 112.96875 168.589844 112.070312 171.144531 111.40625 C 173.695312 110.742188 176.289062 110.324219 178.921875 110.15625 C 179.367188 109.03125 179.882812 107.8125 180.445312 106.734375 C 184.195312 98.765625 188.179688 94.289062 192.84375 92.671875 C 193.6875 92.355469 194.558594 92.144531 195.453125 92.03125 C 196.347656 91.921875 197.246094 91.917969 198.140625 92.019531 C 199.035156 92.121094 199.910156 92.328125 200.757812 92.636719 C 201.605469 92.945312 202.402344 93.347656 203.15625 93.84375 C 204.679688 94.851562 206.625 96.1875 212.296875 107.90625 C 214.5 107.117188 216.726562 107.039062 218.976562 107.671875 C 220.1875 108.003906 221.28125 108.5625 222.257812 109.355469 C 223.230469 110.144531 224.003906 111.101562 224.578125 112.21875 C 230.367188 123.328125 231.140625 143.132812 228.609375 155.859375 C 227.484375 161.492188 225.769531 166.941406 223.460938 172.203125 C 221.152344 177.460938 218.308594 182.414062 214.921875 187.054688 C 217.949219 190.203125 220.605469 193.644531 222.882812 197.371094 C 225.164062 201.097656 227.019531 205.027344 228.445312 209.15625 C 231.265625 217.054688 232.367188 225.1875 231.75 233.554688 C 234.273438 232.347656 236.710938 230.988281 239.0625 229.476562 C 246.234375 225.046875 257.0625 218.367188 269.976562 218.203125 C 270.945312 218.136719 271.914062 218.164062 272.882812 218.28125 C 273.847656 218.398438 274.792969 218.605469 275.71875 218.898438 C 276.648438 219.195312 277.539062 219.574219 278.394531 220.035156 C 279.25 220.5 280.054688 221.039062 280.808594 221.652344 C 281.5625 222.265625 282.253906 222.945312 282.882812 223.691406 C 283.507812 224.433594 284.058594 225.230469 284.535156 226.078125 C 285.011719 226.925781 285.40625 227.8125 285.71875 228.734375 C 286.027344 229.65625 286.25 230.597656 286.382812 231.5625 C 286.503906 232.476562 286.539062 233.390625 286.492188 234.308594 C 286.445312 235.230469 286.3125 236.136719 286.09375 237.03125 C 285.878906 237.925781 285.582031 238.792969 285.203125 239.632812 C 284.824219 240.46875 284.375 241.269531 283.847656 242.023438 C 283.320312 242.777344 282.730469 243.480469 282.074219 244.125 C 281.421875 244.773438 280.710938 245.351562 279.949219 245.867188 C 279.183594 246.378906 278.378906 246.820312 277.535156 247.1875 C 276.691406 247.550781 275.820312 247.835938 274.921875 248.039062 Z M 274.921875 248.039062 " fill-opacity="1" fill-rule="nonzero"/>
</svg>