<svg xmlns="http://www.w3.org/2000/svg" xmlns:xlink="http://www.w3.org/1999/xlink" width="256" zoomAndPan="magnify" viewBox="0 0 375 374.999991" height="256" preserveAspectRatio="xMidYMid meet" version="1.0">
<defs>
<clipPath id="6fa239b202">
<path d="M 75 0 L 300 0 C 341.421875 0 375 33.578125 375 75 L 375 304.027344 C 375 345.445312 341.421875 379.027344 300 379.027344 L 75 379.027344 C 33.578125 379.027344 0 345.445312 0 304.027344 L 0 75 C 0 33.578125 33.578125 0 75 0 " clip-rule="nonzero"/>
</clipPath>
</defs>
<g clip-path="url(#6fa239b202)">
<path fill="#f4f2ec" d="M 0 0 L 374.414062 0 L 374.414062 379.6875 L 0 379.6875 Z M 0 0 " fill-opacity="1" fill-rule="nonzero"/>
</g>
<path fill="#2c8ebb" d="M 272.570312 227.839844 C 262.09375 227.960938 252.921875 233.367188 245.171875 238.195312 C 230.6875 247.152344 223.445312 246.570312 223.445312 246.570312 L 223.203125 246.160156 C 222.214844 244.542969 227.839844 230.035156 221.539062 212.75 C 214.730469 193.847656 203.914062 189.285156 204.785156 187.839844 C 208.476562 181.585938 217.722656 171.664062 221.417969 153.171875 C 223.613281 141.972656 223.035156 123.527344 218.0625 113.871094 C 217.144531 112.085938 208.9375 116.863281 208.9375 116.863281 C 208.9375 116.863281 201.261719 99.75 199.113281 98.371094 C 192.183594 93.929688 184.628906 116.742188 184.628906 116.742188 C 182.011719 116.488281 179.402344 116.535156 176.796875 116.886719 C 174.191406 117.242188 171.660156 117.890625 169.207031 118.832031 C 166.753906 119.773438 164.441406 120.988281 162.269531 122.46875 C 160.101562 123.953125 158.128906 125.664062 156.359375 127.605469 C 153.695312 130.171875 150.597656 132 147.0625 133.085938 C 146.074219 133.425781 144.867188 133.375 141.875 141.464844 C 137.289062 153.703125 149.695312 167.558594 149.695312 167.558594 C 149.695312 167.558594 134.898438 178.011719 129.417969 191.023438 C 127.585938 195.484375 126.316406 200.097656 125.601562 204.867188 C 124.886719 209.636719 124.75 214.417969 125.191406 219.222656 C 125.191406 219.222656 114.667969 228.347656 113.992188 237.761719 C 113.679688 241.058594 113.886719 244.324219 114.617188 247.554688 C 115.347656 250.785156 116.5625 253.820312 118.265625 256.664062 C 118.398438 256.945312 118.558594 257.214844 118.742188 257.464844 C 118.929688 257.71875 119.140625 257.949219 119.371094 258.15625 C 119.605469 258.367188 119.855469 258.550781 120.125 258.710938 C 120.394531 258.871094 120.679688 259 120.976562 259.101562 C 121.269531 259.207031 121.574219 259.277344 121.882812 259.320312 C 122.195312 259.359375 122.507812 259.371094 122.820312 259.351562 C 123.132812 259.328125 123.4375 259.277344 123.742188 259.195312 C 124.042969 259.113281 124.332031 259 124.613281 258.859375 C 124.613281 258.859375 117.613281 267.019531 124.15625 270.472656 C 130.117188 273.585938 140.160156 275.300781 145.472656 270.011719 C 149.332031 266.148438 150.105469 257.53125 151.53125 254.007812 C 151.867188 253.1875 153.027344 255.382812 154.136719 256.421875 C 155.164062 257.320312 156.257812 258.125 157.421875 258.835938 C 157.421875 258.835938 148.007812 262.890625 151.867188 272.136719 C 153.148438 275.203125 157.710938 277.160156 165.171875 277.109375 C 167.945312 277.109375 198.386719 275.371094 206.5 273.417969 C 207.726562 273.222656 208.878906 272.820312 209.964844 272.214844 C 211.046875 271.609375 211.992188 270.835938 212.800781 269.890625 C 226.03125 265.957031 238.496094 260.324219 250.191406 252.992188 C 261.636719 245.535156 266.320312 243.507812 275.566406 241.308594 C 283.195312 239.5 282.6875 227.671875 272.570312 227.839844 Z M 272.570312 227.839844 " fill-opacity="1" fill-rule="nonzero"/>
<path fill="#2c8ebb" d="M 187.5 37.828125 C 185.050781 37.828125 182.601562 37.886719 180.15625 38.007812 C 177.710938 38.128906 175.265625 38.308594 172.828125 38.550781 C 170.390625 38.789062 167.960938 39.089844 165.539062 39.449219 C 163.117188 39.808594 160.703125 40.226562 158.300781 40.703125 C 155.898438 41.183594 153.507812 41.71875 151.132812 42.3125 C 148.757812 42.910156 146.398438 43.5625 144.050781 44.273438 C 141.707031 44.984375 139.382812 45.753906 137.078125 46.578125 C 134.769531 47.402344 132.484375 48.285156 130.222656 49.222656 C 127.960938 50.160156 125.722656 51.152344 123.507812 52.199219 C 121.292969 53.246094 119.105469 54.347656 116.945312 55.5 C 114.785156 56.65625 112.652344 57.863281 110.554688 59.121094 C 108.453125 60.382812 106.382812 61.691406 104.347656 63.050781 C 102.308594 64.414062 100.308594 65.824219 98.339844 67.28125 C 96.375 68.742188 94.441406 70.25 92.550781 71.800781 C 90.65625 73.355469 88.800781 74.957031 86.988281 76.601562 C 85.171875 78.246094 83.398438 79.933594 81.664062 81.664062 C 79.933594 83.398438 78.246094 85.171875 76.601562 86.988281 C 74.957031 88.800781 73.355469 90.65625 71.800781 92.550781 C 70.25 94.441406 68.742188 96.375 67.28125 98.339844 C 65.824219 100.308594 64.414062 102.308594 63.050781 104.347656 C 61.691406 106.382812 60.382812 108.453125 59.121094 110.554688 C 57.863281 112.652344 56.65625 114.785156 55.5 116.945312 C 54.347656 119.105469 53.246094 121.292969 52.199219 123.507812 C 51.152344 125.722656 50.160156 127.960938 49.222656 130.222656 C 48.285156 132.484375 47.402344 134.769531 46.578125 137.078125 C 45.753906 139.382812 44.984375 141.707031 44.273438 144.050781 C 43.5625 146.398438 42.910156 148.757812 42.3125 151.132812 C 41.71875 153.507812 41.183594 155.898438 40.703125 158.300781 C 40.226562 160.703125 39.808594 163.117188 39.449219 165.539062 C 39.089844 167.960938 38.789062 170.390625 38.550781 172.828125 C 38.308594 175.265625 38.128906 177.710938 38.007812 180.15625 C 37.886719 182.601562 37.828125 185.050781 37.828125 187.5 C 37.828125 189.949219 37.886719 192.398438 38.007812 194.84375 C 38.128906 197.289062 38.308594 199.734375 38.550781 202.171875 C 38.789062 204.609375 39.089844 207.039062 39.449219 209.460938 C 39.808594 211.882812 40.226562 214.296875 40.703125 216.699219 C 41.183594 219.101562 41.71875 221.492188 42.3125 223.867188 C 42.910156 226.242188 43.5625 228.601562 44.273438 230.949219 C 44.984375 233.292969 45.753906 235.617188 46.578125 237.921875 C 47.402344 240.230469 48.285156 242.515625 49.222656 244.777344 C 50.160156 247.039062 51.152344 249.277344 52.199219 251.492188 C 53.246094 253.707031 54.347656 255.894531 55.5 258.054688 C 56.65625 260.214844 57.863281 262.34375 59.121094 264.445312 C 60.382812 266.546875 61.691406 268.617188 63.050781 270.652344 C 64.414062 272.691406 65.824219 274.691406 67.28125 276.660156 C 68.742188 278.625 70.25 280.558594 71.800781 282.449219 C 73.355469 284.34375 74.957031 286.199219 76.601562 288.011719 C 78.246094 289.828125 79.933594 291.601562 81.664062 293.332031 C 83.398438 295.066406 85.171875 296.753906 86.988281 298.398438 C 88.800781 300.042969 90.65625 301.644531 92.550781 303.199219 C 94.441406 304.75 96.375 306.257812 98.339844 307.71875 C 100.308594 309.175781 102.308594 310.585938 104.347656 311.949219 C 106.382812 313.308594 108.453125 314.617188 110.554688 315.878906 C 112.652344 317.136719 114.785156 318.34375 116.945312 319.5 C 119.105469 320.652344 121.292969 321.753906 123.507812 322.800781 C 125.722656 323.847656 127.960938 324.839844 130.222656 325.777344 C 132.484375 326.714844 134.769531 327.597656 137.078125 328.421875 C 139.382812 329.246094 141.707031 330.015625 144.050781 330.726562 C 146.398438 331.4375 148.757812 332.089844 151.132812 332.6875 C 153.507812 333.28125 155.898438 333.816406 158.300781 334.296875 C 160.703125 334.773438 163.117188 335.191406 165.539062 335.550781 C 167.960938 335.910156 170.390625 336.210938 172.828125 336.449219 C 175.265625 336.691406 177.710938 336.871094 180.15625 336.992188 C 182.601562 337.113281 185.050781 337.171875 187.5 337.171875 C 189.949219 337.171875 192.398438 337.113281 194.84375 336.992188 C 197.289062 336.871094 199.734375 336.691406 202.171875 336.449219 C 204.609375 336.210938 207.039062 335.910156 209.460938 335.550781 C 211.882812 335.191406 214.296875 334.773438 216.699219 334.296875 C 219.101562 333.816406 221.492188 333.28125 223.867188 332.6875 C 226.242188 332.089844 228.601562 331.4375 230.949219 330.726562 C 233.292969 330.015625 235.617188 329.246094 237.921875 328.421875 C 240.230469 327.597656 242.515625 326.714844 244.777344 325.777344 C 247.039062 324.839844 249.277344 323.847656 251.492188 322.800781 C 253.707031 321.753906 255.894531 320.652344 258.054688 319.5 C 260.214844 318.34375 262.34375 317.136719 264.445312 315.878906 C 266.546875 314.617188 268.617188 313.308594 270.652344 311.949219 C 272.691406 310.585938 274.691406 309.175781 276.660156 307.71875 C 278.625 306.257812 280.558594 304.75 282.449219 303.199219 C 284.34375 301.644531 286.199219 300.042969 288.011719 298.398438 C 289.828125 296.753906 291.601562 295.066406 293.332031 293.332031 C 295.066406 291.601562 296.753906 289.828125 298.398438 288.011719 C 300.042969 286.199219 301.644531 284.34375 303.199219 282.449219 C 304.75 280.558594 306.257812 278.625 307.71875 276.660156 C 309.175781 274.691406 310.585938 272.691406 311.949219 270.652344 C 313.308594 268.617188 314.617188 266.546875 315.878906 264.445312 C 317.136719 262.34375 318.34375 260.214844 319.5 258.054688 C 320.652344 255.894531 321.753906 253.707031 322.800781 251.492188 C 323.847656 249.277344 324.839844 247.039062 325.777344 244.777344 C 326.714844 242.515625 327.597656 240.230469 328.421875 237.921875 C 329.246094 235.617188 330.015625 233.292969 330.726562 230.949219 C 331.4375 228.601562 332.089844 226.242188 332.6875 223.867188 C 333.28125 221.492188 333.816406 219.101562 334.296875 216.699219 C 334.773438 214.296875 335.191406 211.882812 335.550781 209.460938 C 335.910156 207.039062 336.210938 204.609375 336.449219 202.171875 C 336.691406 199.734375 336.871094 197.289062 336.992188 194.84375 C 337.113281 192.398438 337.171875 189.949219 337.171875 187.5 C 337.171875 185.050781 337.113281 182.601562 336.992188 180.15625 C 336.871094 177.710938 336.691406 175.265625 336.449219 172.828125 C 336.210938 170.390625 335.910156 167.960938 335.550781 165.539062 C 335.191406 163.117188 334.773438 160.703125 334.296875 158.300781 C 333.816406 155.898438 333.28125 153.507812 332.6875 151.132812 C 332.089844 148.757812 331.4375 146.398438 330.726562 144.050781 C 330.015625 141.707031 329.246094 139.382812 328.421875 137.078125 C 327.597656 134.769531 326.714844 132.484375 325.777344 130.222656 C 324.839844 127.960938 323.847656 125.722656 322.800781 123.507812 C 321.753906 121.292969 320.652344 119.105469 319.5 116.945312 C 318.34375 114.785156 317.136719 112.652344 315.878906 110.554688 C 314.617188 108.453125 313.308594 106.382812 311.949219 104.347656 C 310.585938 102.308594 309.175781 100.308594 307.71875 98.339844 C 306.257812 96.375 304.75 94.441406 303.199219 92.550781 C 301.644531 90.65625 300.042969 88.800781 298.398438 86.988281 C 296.753906 85.171875 295.066406 83.398438 293.332031 81.664062 C 291.601562 79.933594 289.828125 78.246094 288.011719 76.601562 C 286.199219 74.957031 284.34375 73.355469 282.449219 71.800781 C 280.558594 70.25 278.625 68.742188 276.660156 67.28125 C 274.691406 65.824219 272.691406 64.414062 270.652344 63.050781 C 268.617188 61.691406 266.546875 60.382812 264.445312 59.121094 C 262.34375 57.863281 260.214844 56.65625 258.054688 55.5 C 255.894531 54.347656 253.707031 53.246094 251.492188 52.199219 C 249.277344 51.152344 247.039062 50.160156 244.777344 49.222656 C 242.515625 48.285156 240.230469 47.402344 237.921875 46.578125 C 235.617188 45.753906 233.292969 44.984375 230.949219 44.273438 C 228.601562 43.5625 226.242188 42.910156 223.867188 42.3125 C 221.492188 41.71875 219.101562 41.183594 216.699219 40.703125 C 214.296875 40.226562 211.882812 39.808594 209.460938 39.449219 C 207.039062 39.089844 204.609375 38.789062 202.171875 38.550781 C 199.734375 38.308594 197.289062 38.128906 194.84375 38.007812 C 192.398438 37.886719 189.949219 37.828125 187.5 37.828125 Z M 277.542969 249.855469 C 269.457031 251.8125 265.691406 253.332031 254.828125 260.378906 C 243.050781 267.773438 230.53125 273.550781 217.265625 277.714844 C 214.675781 279.835938 211.746094 281.261719 208.476562 281.988281 C 199.28125 284.230469 167.730469 285.921875 165.242188 285.921875 L 164.664062 285.921875 C 155.007812 285.921875 149.527344 282.929688 146.582031 279.789062 C 138.375 283.894531 127.753906 282.203125 120.027344 278.125 C 119.101562 277.671875 118.242188 277.117188 117.445312 276.464844 C 116.644531 275.8125 115.933594 275.078125 115.304688 274.261719 C 114.675781 273.445312 114.152344 272.570312 113.726562 271.632812 C 113.300781 270.691406 112.984375 269.71875 112.785156 268.710938 C 112.496094 267.050781 112.496094 265.394531 112.785156 263.734375 C 112.070312 262.992188 111.4375 262.1875 110.878906 261.320312 C 108.683594 257.671875 107.121094 253.773438 106.1875 249.621094 C 105.257812 245.464844 105 241.273438 105.421875 237.035156 C 106.121094 228.03125 112.351562 219.992188 116.40625 215.71875 C 116.238281 210.894531 116.570312 206.105469 117.410156 201.347656 C 118.246094 196.59375 119.570312 191.976562 121.378906 187.5 C 123.320312 183.335938 125.679688 179.421875 128.453125 175.761719 C 131.230469 172.097656 134.359375 168.769531 137.84375 165.773438 C 133.859375 159.0625 129.804688 148.730469 133.738281 138.203125 C 136.5625 130.695312 138.878906 126.519531 143.972656 124.734375 C 146.222656 124.085938 148.242188 123.007812 150.035156 121.5 C 151.875 119.5 153.886719 117.695312 156.074219 116.078125 C 158.257812 114.464844 160.578125 113.074219 163.03125 111.902344 C 165.480469 110.734375 168.023438 109.804688 170.652344 109.121094 C 173.28125 108.4375 175.953125 108.007812 178.664062 107.835938 C 179.125 106.675781 179.652344 105.421875 180.234375 104.3125 C 184.097656 96.105469 188.199219 91.492188 193.003906 89.828125 C 193.875 89.5 194.769531 89.28125 195.691406 89.167969 C 196.613281 89.054688 197.535156 89.050781 198.460938 89.15625 C 199.382812 89.261719 200.28125 89.472656 201.152344 89.789062 C 202.027344 90.105469 202.851562 90.523438 203.625 91.035156 C 205.195312 92.070312 207.199219 93.449219 213.039062 105.519531 C 215.308594 104.707031 217.601562 104.625 219.921875 105.277344 C 221.167969 105.617188 222.296875 106.195312 223.300781 107.011719 C 224.304688 107.824219 225.101562 108.808594 225.691406 109.960938 C 231.652344 121.402344 232.449219 141.800781 229.84375 154.910156 C 228.6875 160.714844 226.917969 166.324219 224.542969 171.742188 C 222.164062 177.160156 219.230469 182.261719 215.746094 187.042969 C 218.863281 190.285156 221.597656 193.828125 223.945312 197.667969 C 226.296875 201.503906 228.203125 205.550781 229.671875 209.804688 C 232.578125 217.941406 233.710938 226.320312 233.078125 234.9375 C 235.675781 233.691406 238.1875 232.292969 240.609375 230.734375 C 247.996094 226.171875 259.148438 219.292969 272.449219 219.125 C 273.449219 219.058594 274.449219 219.085938 275.441406 219.203125 C 276.4375 219.324219 277.414062 219.539062 278.367188 219.84375 C 279.320312 220.144531 280.238281 220.535156 281.121094 221.011719 C 282.003906 221.488281 282.832031 222.042969 283.609375 222.675781 C 284.386719 223.308594 285.097656 224.007812 285.742188 224.777344 C 286.386719 225.542969 286.957031 226.363281 287.449219 227.234375 C 287.9375 228.109375 288.34375 229.019531 288.664062 229.972656 C 288.984375 230.921875 289.210938 231.890625 289.347656 232.882812 C 289.472656 233.824219 289.511719 234.765625 289.460938 235.714844 C 289.410156 236.660156 289.273438 237.59375 289.050781 238.515625 C 288.828125 239.4375 288.523438 240.332031 288.132812 241.195312 C 287.746094 242.058594 287.28125 242.882812 286.738281 243.660156 C 286.195312 244.4375 285.589844 245.160156 284.914062 245.824219 C 284.238281 246.488281 283.507812 247.085938 282.722656 247.617188 C 281.933594 248.148438 281.105469 248.601562 280.238281 248.976562 C 279.367188 249.351562 278.46875 249.644531 277.542969 249.855469 Z M 277.542969 249.855469 " fill-opacity="1" fill-rule="nonzero"/>
</svg>