<svg width="256" height="256" viewBox="0 0 256 256" fill="none" xmlns="http://www.w3.org/2000/svg">
<g clip-path="url(#clip0_33_638)">
<path d="M196 0H60C26.8629 0 0 26.8629 0 60V196C0 229.137 26.8629 256 60 256H196C229.137 256 256 229.137 256 196V60C256 26.8629 229.137 0 196 0Z" fill="#F4F2ED"/>
<path d="M129.333 191.805C166.152 191.805 196 162.048 196 125.341C196 88.6347 166.152 58.8781 129.333 58.8781C92.5144 58.8781 62.6667 88.6347 62.6667 125.341C62.6667 162.048 92.5144 191.805 129.333 191.805Z" fill="#B3E1CE"/>
<path d="M129.966 128.09L65.3333 56.2195" stroke="#444444" stroke-width="12" stroke-linecap="round"/>
<path d="M129.966 128.09L194.599 56.2195" stroke="#444444" stroke-width="12" stroke-linecap="round"/>
<path d="M129.966 128.09V202.439" stroke="#444444" stroke-width="12" stroke-linecap="round"/>
<path d="M129.333 146.61C139.643 146.61 148 138.278 148 128C148 117.722 139.643 109.39 129.333 109.39C119.024 109.39 110.667 117.722 110.667 128C110.667 138.278 119.024 146.61 129.333 146.61Z" fill="#009A5B" stroke="#444444" stroke-width="8"/>
</g>
<defs>
<clipPath id="clip0_33_638">
<rect width="256" height="256" fill="white"/>
</clipPath>
</defs>
</svg>
