<svg width="256" height="256" viewBox="0 0 256 256" fill="none" xmlns="http://www.w3.org/2000/svg">
<path d="M196 0H60C26.8629 0 0 26.8629 0 60V196C0 229.137 26.8629 256 60 256H196C229.137 256 256 229.137 256 196V60C256 26.8629 229.137 0 196 0Z" fill="#242938"/>
<path d="M78.7619 228.215L209.253 205.88C214.002 205.073 218.391 202.835 221.832 199.465C225.274 196.095 227.603 191.754 228.509 187.023C229.117 183.88 229.081 180.646 228.403 177.517C227.725 174.388 226.419 171.429 224.564 168.82C222.709 166.21 220.343 164.005 217.611 162.336C214.878 160.668 211.835 159.572 208.667 159.114L77.4629 140.697C71.6026 139.873 65.6366 140.232 59.9172 141.752C54.1978 143.272 48.8411 145.923 44.1633 149.548C39.4856 153.173 35.5817 157.699 32.6822 162.858C29.7828 168.017 27.9465 173.704 27.2819 179.585C26.5065 186.411 27.3306 193.325 29.6889 199.778C32.0473 206.231 35.8751 212.046 40.8695 216.764C45.864 221.482 51.8879 224.973 58.4647 226.961C65.0414 228.948 71.9905 229.378 78.7619 228.215Z" fill="url(#paint0_linear_1_5)"/>
<path d="M166.301 37.0248L41.5086 152.095C36.8078 156.43 33.1033 161.734 30.6509 167.639C28.1984 173.545 27.0563 179.912 27.3033 186.302C27.5503 192.692 29.1805 198.952 32.0815 204.651C34.9825 210.35 39.0852 215.351 44.1067 219.31C52.8437 226.184 63.8496 229.514 74.9317 228.636C86.0137 227.759 96.3584 222.738 103.905 214.575L219.143 89.8667C222.576 86.138 225.216 81.7504 226.902 76.9701C228.588 72.1899 229.284 67.1169 228.949 62.0592C228.614 57.0015 227.254 52.0648 224.953 47.5487C222.651 43.0327 219.455 39.0316 215.56 35.7886C208.595 29.9868 199.76 26.9136 190.698 27.141C181.636 27.3684 172.966 30.881 166.301 37.0248Z" fill="url(#paint1_linear_1_5)"/>
<path d="M191.234 201.522L43.3314 95.1886C38.7853 91.9143 35.03 87.6636 32.3411 82.7485C29.6522 77.8333 28.0981 72.3785 27.7926 66.7843C27.4872 61.1901 28.4383 55.5985 30.576 50.4198C32.7138 45.2412 35.984 40.6069 40.1467 36.8571C47.2347 30.4741 56.4884 27.0316 66.0249 27.2301C75.5613 27.4286 84.6638 31.2533 91.48 37.9257L221.72 165.232C224 167.462 225.807 170.128 227.035 173.071C228.262 176.014 228.885 179.175 228.865 182.363C228.846 185.552 228.185 188.705 226.921 191.633C225.657 194.56 223.817 197.204 221.51 199.406C217.501 203.231 212.282 205.535 206.754 205.922C201.226 206.308 195.737 204.752 191.234 201.522Z" fill="url(#paint2_linear_1_5)"/>
<path d="M65.1429 65.1429H190.857V190.857H65.1429V65.1429Z" fill="black"/>
<path d="M80.8152 167.097H127.958V174.954H80.8152V167.097Z" fill="white"/>
<path d="M94.4343 109.31L76.2686 80.6686H88.4419L99.7143 99.6514L111.196 80.6686H123.013L104.848 109.122V127.958H94.4343V109.31Z" fill="white"/>
<path d="M143.819 90.2648H129.446V80.6686H168.606V90.2648H154.232V127.958H143.819V90.2648Z" fill="white"/>
<defs>
<linearGradient id="paint0_linear_1_5" x1="191.8" y1="162.97" x2="71.8476" y2="185.577" gradientUnits="userSpaceOnUse">
<stop stop-color="#07C3F2"/>
<stop offset="1" stop-color="#6B57FF"/>
</linearGradient>
<linearGradient id="paint1_linear_1_5" x1="187.693" y1="69.6267" x2="61.9791" y2="193.958" gradientUnits="userSpaceOnUse">
<stop stop-color="#07C3F2"/>
<stop offset="1" stop-color="#6B57FF"/>
</linearGradient>
<linearGradient id="paint2_linear_1_5" x1="203.764" y1="192.072" x2="69.2914" y2="68.4324" gradientUnits="userSpaceOnUse">
<stop offset="0.15" stop-color="#07C3F2"/>
<stop offset="0.53" stop-color="#6B57FF"/>
<stop offset="1" stop-color="#FF318C"/>
</linearGradient>
</defs>
</svg>
