<svg xmlns="http://www.w3.org/2000/svg" width="256" height="256" fill="none" viewBox="0 0 256 256"><rect width="256" height="256" fill="#242938" rx="60"/><path fill="#F7A41D" d="M92.1177 71.8824L70.9413 97.7647L60.353 81.2941L92.1177 71.8824Z"/><path fill="#F7A41D" d="M92.1176 71.8825L76.8235 84.8236L70.9412 97.7648H63.8824V157.765H74.4706L61.5294 163.647L52.1176 183.647H38V71.8825H92.1176Z"/><path fill="#F7A41D" d="M74.4708 157.765L52.1178 183.647L42.7061 170.706L74.4708 157.765Z"/><path fill="#F7A41D" d="M103.882 71.8822L110.941 88.3528L81.5293 97.7646L103.882 71.8822Z"/><path fill="#F7A41D" d="M103.882 71.8822H168.588V97.7646H81.5293L103.882 83.647V71.8822Z"/><path fill="#F7A41D" d="M174.471 157.765L152.118 183.647L143.882 168.353L174.471 157.765Z"/><path fill="#F7A41D" d="M174.47 157.765L155.647 168.353L152.117 183.647H87.4116V157.765H174.47Z"/><path fill="#F7A41D" d="M214.47 46L99.1764 183.647L41.5293 210.706L156.823 71.8824L214.47 46Z"/><path fill="#F7A41D" d="M203.883 71.8824L202.706 93.0588L181.53 98.9412L203.883 71.8824Z"/><path fill="#F7A41D" d="M218 71.8825V183.647H162.706L179.177 169.53L185.059 157.765H192.118V98.9413H181.53L193.294 88.3531L203.883 71.8825H218Z"/><path fill="#F7A41D" d="M185.059 157.765L190.941 175.412L162.706 183.647L185.059 157.765Z"/></svg>