<svg width="256" height="256" viewBox="0 0 256 256" fill="none" xmlns="http://www.w3.org/2000/svg">
<rect width="256" height="256" rx="60" fill="#242938"/>
<path d="M92.1176 71.8826L70.9411 97.7649L60.3529 81.2943L92.1176 71.8826Z" fill="#F7A41D"/>
<path d="M92.1176 71.8826L76.8235 84.8237L70.9412 97.7649H63.8824V157.765H74.4706L61.5294 163.647L52.1176 183.647H38V71.8826H92.1176Z" fill="#F7A41D"/>
<path d="M74.4706 157.765L52.1177 183.647L42.7059 170.706L74.4706 157.765Z" fill="#F7A41D"/>
<path d="M103.882 71.8823L110.941 88.3529L81.5294 97.7647L103.882 71.8823Z" fill="#F7A41D"/>
<path d="M103.882 71.8823H168.588V97.7647H81.5294L103.882 83.647V71.8823Z" fill="#F7A41D"/>
<path d="M174.471 157.765L152.118 183.647L143.882 168.353L174.471 157.765Z" fill="#F7A41D"/>
<path d="M174.471 157.765L155.647 168.353L152.118 183.647H87.4117V157.765H174.471Z" fill="#F7A41D"/>
<path d="M214.47 46L99.1764 183.647L41.5293 210.706L156.823 71.8824L214.47 46Z" fill="#F7A41D"/>
<path d="M203.882 71.8826L202.706 93.059L181.529 98.9414L203.882 71.8826Z" fill="#F7A41D"/>
<path d="M218 71.8826V183.647H162.706L179.176 169.53L185.059 157.765H192.118V98.9414H181.529L193.294 88.3532L203.882 71.8826H218Z" fill="#F7A41D"/>
<path d="M185.059 157.765L190.941 175.412L162.706 183.647L185.059 157.765Z" fill="#F7A41D"/>
</svg>
